<?xml version="1.0" encoding="UTF-8"?>
<svg id="_レイヤー_2" data-name="レイヤー 2" xmlns="http://www.w3.org/2000/svg" viewBox="0 0 55.74 65.81">
  <defs>
    <style>
      .cls-1 {
        fill: #428d65;
      }
    </style>
  </defs>
  <g id="_レイヤー_4" data-name="レイヤー 4">
    <g id="_05" data-name="05">
      <path class="cls-1" d="M10.76,60.79h36.31v3.21c0,1-.93,1.81-2.09,1.81H2.08c-1.15,0-2.08-.81-2.08-1.81V10.18c0-1,.93-1.81,2.08-1.81h3.24v47.26c0,2.85,2.44,5.16,5.43,5.16Z"/>
      <g>
        <path class="cls-1" d="M54.32,8.43l-8.47-7.35v6.42c0,.51.57.94,1.25.94h7.22Z"/>
        <path class="cls-1" d="M47.1,10.71c-1.95,0-3.53-1.44-3.53-3.22V0H10.76c-1.15,0-2.08.81-2.08,1.81v53.82c0,1,.93,1.81,2.08,1.81h42.9c1.15,0,2.08-.81,2.08-1.81V10.71h-8.64ZM44.71,40.59h-25c-.65,0-1.18-.53-1.18-1.18s.53-1.18,1.18-1.18h25c.65,0,1.18.53,1.18,1.18s-.53,1.18-1.18,1.18ZM44.71,30.54h-25c-.65,0-1.18-.53-1.18-1.18s.53-1.18,1.18-1.18h25c.65,0,1.18.53,1.18,1.18s-.53,1.18-1.18,1.18ZM44.71,20.49h-25c-.65,0-1.18-.53-1.18-1.18s.53-1.18,1.18-1.18h25c.65,0,1.18.53,1.18,1.18s-.53,1.18-1.18,1.18Z"/>
      </g>
    </g>
  </g>
</svg>