<?xml version="1.0" encoding="UTF-8"?>
<svg id="_レイヤー_2" data-name="レイヤー 2" xmlns="http://www.w3.org/2000/svg" viewBox="0 0 60.48 66.61">
  <defs>
    <style>
      .cls-1 {
        fill: #428d65;
      }
    </style>
  </defs>
  <g id="_レイヤー_4" data-name="レイヤー 4">
    <g>
      <path class="cls-1" d="M56.35,20.73v39.69c0,1.14-.93,2.07-2.07,2.07H6.2c-1.14,0-2.07-.93-2.07-2.07V20.73h52.23M60.48,16.6H0v45.83C0,64.74,1.87,66.61,4.18,66.61h52.11c2.31,0,4.18-1.87,4.18-4.18V16.6h0Z"/>
      <path class="cls-1" d="M56.29,6.14h-5.46v3.78c0,3.02-2.46,5.48-5.48,5.48s-5.48-2.46-5.48-5.48v-3.78h-19.28v3.78c0,3.02-2.46,5.48-5.48,5.48s-5.48-2.46-5.48-5.48v-3.78h-5.46c-2.31,0-4.18,1.87-4.18,4.18v10.94h60.48v-10.94c0-2.31-1.87-4.18-4.18-4.18Z"/>
      <path class="cls-1" d="M15.12,12.27c-1.3,0-2.36-1.05-2.36-2.36V2.36c0-1.3,1.05-2.36,2.36-2.36s2.36,1.05,2.36,2.36v7.56c0,1.3-1.05,2.36-2.36,2.36Z"/>
      <path class="cls-1" d="M45.36,12.27c-1.3,0-2.36-1.05-2.36-2.36V2.36c0-1.3,1.05-2.36,2.36-2.36s2.36,1.05,2.36,2.36v7.56c0,1.3-1.05,2.36-2.36,2.36Z"/>
      <g>
        <rect class="cls-1" x="21.99" y="28.43" width="5.15" height="5.15"/>
        <rect class="cls-1" x="33.33" y="28.43" width="5.15" height="5.15"/>
        <rect class="cls-1" x="44.67" y="28.43" width="5.15" height="5.15"/>
        <rect class="cls-1" x="10.65" y="39.77" width="5.15" height="5.15"/>
        <rect class="cls-1" x="21.99" y="39.77" width="5.15" height="5.15"/>
        <rect class="cls-1" x="33.33" y="39.77" width="5.15" height="5.15"/>
        <rect class="cls-1" x="44.67" y="39.77" width="5.15" height="5.15"/>
        <rect class="cls-1" x="10.65" y="51.11" width="5.15" height="5.15"/>
        <rect class="cls-1" x="21.99" y="51.11" width="5.15" height="5.15"/>
        <rect class="cls-1" x="33.33" y="51.11" width="5.15" height="5.15"/>
        <rect class="cls-1" x="44.67" y="51.11" width="5.15" height="5.15"/>
      </g>
    </g>
  </g>
</svg>