<?xml version="1.0" encoding="UTF-8"?>
<svg id="_レイヤー_2" data-name="レイヤー 2" xmlns="http://www.w3.org/2000/svg" viewBox="0 0 89.66 63.65">
  <defs>
    <style>
      .cls-1 {
        fill: #428d65;
        stroke: #428d65;
        stroke-miterlimit: 10;
      }
    </style>
  </defs>
  <g id="_レイヤー_4" data-name="レイヤー 4">
    <g>
      <g>
        <g>
          <g>
            <path class="cls-1" d="M12.31,20.45c1.36,4.79,5.18,7.73,8.1,7.73,3.32,0,6.88-3.44,8.1-7.74.57-.06,1.44-.31,2.1-1.2,1.12-1.49.71-3.33.36-4.29-.3-.84-.95-1.24-1.53-1.43.15-.94.31-1.95.41-2.82l.04-.32c.24-1.98.41-3.41-.73-5.53-.26-.48-.66-1.36-.72-1.67.05-.19,0-.4-.13-.56-.22-.23-.58-.25-.82-.04-.93.83-1.66.43-2.78-.29-.41-.26-.79-.51-1.19-.65-2.04-.72-4.88-.62-6.69-.32-3.35.56-5.14,2.09-6.16,5.27-.47,1.47-.29,3.34-.03,5.14.08.53.2,1.21.32,1.89-.6.27-1.03.72-1.25,1.32-.34.96-.75,2.8.36,4.29.72.95,1.66,1.17,2.23,1.21ZM10.82,15.34c.07-.21.2-.37.38-.5.19.96.35,1.73.36,1.79.06.28.3.47.57.47.04,0,.08,0,.12-.01.32-.07.52-.38.45-.69,0-.03-.66-3.18-.91-4.82-.17-1.12-.47-3.2-.02-4.61.88-2.74,2.35-3.99,5.24-4.48,1.67-.28,4.28-.38,6.11.27.27.1.6.31.95.53.85.55,2.06,1.33,3.4.72.14.36.35.82.66,1.41.96,1.79.82,2.93.6,4.83l-.04.32c-.1.86-.25,1.86-.41,2.8-.29.05-.5.3-.49.59,0,.21.13.39.3.49-.17.98-.32,1.74-.36,1.91-.08.31.11.63.43.71.32.08.63-.11.71-.43.05-.19.2-.95.37-1.94.26.12.51.32.63.65.27.74.59,2.14-.2,3.19-.56.75-1.35.76-1.58.75-.28-.01-.54.17-.61.45-1.1,4.5-4.53,7.28-7.08,7.28s-6.09-2.99-7.12-7.45c-.07-.3-.35-.49-.66-.45-.13.02-.24.08-.32.16-.34-.04-.88-.19-1.3-.74-.79-1.05-.46-2.45-.2-3.19Z"/>
            <path class="cls-1" d="M20.42,28.78c-3.04,0-7.02-2.9-8.56-7.78-.65-.12-1.54-.46-2.25-1.39-1.29-1.71-.83-3.78-.45-4.85.21-.6.61-1.09,1.14-1.43-.1-.54-.19-1.05-.25-1.48-.28-1.87-.46-3.83.05-5.42,1.09-3.39,3.07-5.08,6.63-5.68,1.88-.32,4.84-.42,6.99.34.47.17.9.44,1.31.71,1.21.78,1.52.83,2.05.35.48-.43,1.22-.39,1.66.08.24.26.35.6.31.94.1.3.4.98.64,1.41,1.23,2.28,1.04,3.87.8,5.88l-.04.32c-.09.73-.21,1.56-.33,2.37.68.34,1.17.89,1.43,1.6.38,1.08.84,3.14-.45,4.85-.53.71-1.27,1.18-2.11,1.37-1.4,4.41-5.1,7.81-8.57,7.81ZM12.72,18.51c.54,0,1.03.38,1.16.92.95,4.11,4.21,6.98,6.54,6.98s5.5-2.74,6.5-6.82c.13-.55.6-.91,1.21-.9.17,0,.69,0,1.08-.51.39-.52.42-1.17.34-1.74-.03.16-.06.27-.07.34-.16.63-.79,1.02-1.43.87-.64-.16-1.03-.8-.87-1.44.03-.12.15-.71.29-1.54-.15-.2-.25-.44-.25-.69-.02-.43.2-.82.55-1.04.13-.83.26-1.69.35-2.44l.04-.32c.22-1.85.34-2.86-.53-4.48-.19-.35-.34-.66-.47-.94-1.4.32-2.62-.47-3.38-.96-.3-.19-.61-.4-.82-.47-1.72-.61-4.21-.51-5.81-.24-2.66.45-3.96,1.55-4.77,4.07-.41,1.28-.12,3.27.04,4.33.24,1.62.89,4.76.9,4.79.13.64-.28,1.27-.92,1.41-.48.1-.99-.12-1.24-.52.03.36.14.71.37,1.02.21.28.46.41.68.47.12-.06.24-.1.38-.12.06,0,.12-.01.17-.01ZM28.06,19.88h0s0,0,0,0h0ZM12.54,19.86h.21s-.03-.1-.04-.16l-.17.16ZM28.78,13.89l-.39.07.35.19.04-.26ZM27.86,3.03c-.14.13-.29.24-.43.33l.37-.17.04.11-.03-.13.04-.14Z"/>
          </g>
          <path class="cls-1" d="M12.91,13.22c.27,0,.51-.19.57-.46.2-.94.63-2.63.92-3.8.11.07.22.14.33.21.22.14.43.27.55.35.2.15.48.15.69,0,.02-.01,1.66-1.13,5.59-1.13,1.37,0,2.43.21,3.24.63,1.12.59,1.57,1.32,2.12,2.62.12.3.47.44.77.31.3-.12.44-.47.31-.77-.51-1.22-1.09-2.38-2.65-3.2-.98-.52-2.21-.77-3.79-.77-3.32,0-5.18.75-5.91,1.14-.09-.06-.19-.12-.3-.19-.32-.2-.68-.42-.96-.63-.16-.12-.36-.15-.55-.08-.18.06-.32.22-.37.41-.43,1.69-.91,3.57-1.14,4.64-.07.32.13.63.45.7.04,0,.08.01.12.01Z"/>
        </g>
        <g>
          <rect class="cls-1" x="13.14" y="27.27" width="4.99" height="2.75" transform="translate(-16.2 35.81) rotate(-74.06)"/>
          <rect class="cls-1" x="24.55" y="26.14" width="2.75" height="4.99" transform="translate(-6.87 8.22) rotate(-15.95)"/>
        </g>
      </g>
      <g>
        <g>
          <path class="cls-1" d="M42.52,32.61c-.09,0-.18-.01-.27-.04-.52-.15-.82-.69-.67-1.2l1.37-4.8c.15-.52.68-.82,1.2-.67.52.15.82.69.67,1.2l-1.37,4.8c-.12.43-.51.71-.94.71Z"/>
          <path class="cls-1" d="M54.18,32.61c-.42,0-.81-.28-.94-.71l-1.37-4.8c-.15-.52.15-1.06.67-1.2.52-.15,1.06.15,1.2.67l1.37,4.8c.15.52-.15,1.06-.67,1.2-.09.03-.18.04-.27.04Z"/>
        </g>
        <g>
          <g>
            <path class="cls-1" d="M40.63,21.54c1.22,4.1,4.59,7.34,7.78,7.34s6.59-3.25,7.79-7.35c.56-.08,1.37-.35,1.99-1.18,1.1-1.46.7-3.26.36-4.2-.24-.66-.7-1.07-1.21-1.31.16-.83.32-1.71.42-2.37.06-.42.11-1.01.14-1.74.1-2.29-.62-4.32-2.06-5.86-1.71-1.81-4.31-2.84-7.34-2.9-.14,0-.27,0-.41,0-.66.01-1.32.09-1.95.23-5.09,1.12-7.87,4.5-7.44,9.04,0,.07.01.15.02.22.14,1.17.37,2.56.52,3.44-.53.28-.91.7-1.11,1.26-.34.94-.73,2.74.37,4.2.67.89,1.54,1.14,2.12,1.19ZM39.45,16.62s.04-.1.08-.17c.07.38.13.63.18.81.09.29.39.46.69.38.43-.12.69-.54.61-.98-.25-1.25-.7-3.73-.9-5.37,0-.06-.01-.12-.02-.19-.37-3.83,1.95-6.58,6.36-7.55.55-.12,1.12-.19,1.69-.2.12,0,.24,0,.35,0,2.65.05,4.9.92,6.35,2.46,1.19,1.26,1.77,2.94,1.69,4.85-.03.69-.07,1.23-.13,1.6-.09.63-.25,1.48-.41,2.28-.02,0-.04,0-.05,0-.38.01-.68.33-.66.72,0,.29.2.53.45.62-.12.6-.21,1.01-.21,1.02-.08.38.16.74.54.82.05.01.1.02.14.02.32,0,.61-.22.68-.55,0-.04.08-.39.18-.89.08.08.15.18.19.31.24.68.54,1.95-.17,2.9-.49.66-1.18.66-1.38.65-.33-.02-.64.2-.72.53-.8,3.28-3.64,6.79-6.58,6.79-2.41,0-5.65-2.79-6.61-6.95-.08-.35-.42-.58-.78-.53-.13.02-.24.07-.33.15-.3-.04-.73-.19-1.07-.64-.71-.94-.41-2.22-.17-2.9Z"/>
            <path class="cls-1" d="M48.41,29.48c-3.35,0-6.84-3.16-8.24-7.4-.67-.14-1.49-.5-2.14-1.37-1.27-1.69-.83-3.71-.45-4.76.2-.55.54-1.01,1.01-1.35-.15-.91-.34-2.07-.45-3.07l-.03-.24c-.46-4.87,2.49-8.48,7.91-9.68.68-.15,1.37-.23,2.07-.25.15,0,.29,0,.43,0,3.19.06,5.95,1.16,7.77,3.09,1.56,1.66,2.33,3.84,2.23,6.3-.03.76-.08,1.37-.15,1.81-.08.55-.21,1.27-.34,1.97.51.35.89.83,1.1,1.42.38,1.05.82,3.07-.45,4.76-.62.82-1.38,1.18-2.01,1.34-1.37,4.19-4.94,7.43-8.26,7.43ZM39.42,15.49c-.34.21-.58.5-.71.87-.3.83-.65,2.4.28,3.63.53.71,1.22.91,1.7.96l.4.04.12.39c1.15,3.87,4.32,6.91,7.21,6.91s6.08-3.04,7.21-6.92l.11-.37.39-.05c.45-.06,1.09-.28,1.59-.94.93-1.24.58-2.81.28-3.63-.16-.44-.46-.76-.9-.97l-.17-.08.57.59c.14.15.25.33.32.52.28.79.63,2.29-.25,3.46-.67.9-1.62.91-1.9.89-.04,0-.09.03-.1.07-.85,3.49-3.83,7.25-7.16,7.25-2.63,0-6.14-2.84-7.2-7.42-.01-.05-.06-.07-.11-.07l-.2.16-.3-.02c-.41-.06-1-.26-1.47-.87-.88-1.17-.54-2.67-.25-3.46h0c.02-.07.06-.17.13-.28l.4-.65ZM41.12,19.4c.59,0,1.13.41,1.27,1,.89,3.82,3.89,6.49,6.03,6.49,2.62,0,5.26-3.34,5.99-6.34.15-.62.72-1.03,1.35-.98.12,0,.54,0,.85-.41.23-.3.31-.67.32-1.03-.28.19-.65.27-1,.2-.7-.15-1.15-.84-1-1.53l.13-.63c-.23-.23-.37-.54-.38-.88-.02-.55.32-1.04.8-1.24.13-.67.25-1.35.33-1.87.05-.35.09-.87.12-1.53.08-1.74-.45-3.27-1.53-4.41-1.33-1.42-3.44-2.23-5.92-2.27-.11,0-.22,0-.32,0-.53.01-1.06.07-1.58.19-4.14.91-6.23,3.36-5.89,6.9l.02.18c.19,1.61.65,4.1.89,5.32.14.74-.31,1.48-1.04,1.67-.27.07-.54.05-.78-.06.01.35.1.7.32.99.13.18.3.3.49.36.11-.05.23-.08.35-.1.06,0,.12-.01.18-.01ZM48.32,2.75c.06,0,.12,0,.18,0,2.81.05,5.22.99,6.78,2.65,1.3,1.38,1.94,3.21,1.85,5.29-.03.71-.08,1.27-.13,1.66-.09.63-.25,1.5-.41,2.31l-.09.47h-.48c-.1.02-.14.06-.13.11,0,.06.06.08.07.08l.47.18-.3,1.45c-.03.13,0,.18.06.19.06,0,.1-.02.11-.07l.39-1.89h0s.09-.46.09-.46c.16-.82.32-1.69.42-2.35.06-.4.11-.96.14-1.68.09-2.13-.57-4-1.9-5.42-1.59-1.69-4.05-2.66-6.91-2.71-.13,0-.26,0-.39,0-.62.01-1.24.09-1.84.22-4.77,1.05-7.38,4.19-6.97,8.39l.02.2c.13,1.13.35,2.48.51,3.41l.08.43h0s.21,1.12.21,1.12c.06.35.11.58.16.74.08-.06.16-.18.13-.3-.07-.34-.66-3.38-.9-5.41l-.02-.21c-.4-4.16,2.09-7.15,6.83-8.19.59-.13,1.2-.2,1.8-.22.06,0,.13,0,.2,0Z"/>
          </g>
          <path class="cls-1" d="M41.82,14.28c.08,0,.16-.01.24-.04.2-.07.45-.15.71-.23.73-.22,1.65-.5,2.43-1.01.22-.14.43-.29.64-.44,0,.04.02.09.04.13.11.28.4.45.69.43h.08c.92-.07,1.58-.12,2.96-.81.01,0,.03-.01.04-.02-.01.05-.02.1-.02.15,0,.38.3.7.68.71h0c.31,0,1.39-.05,2.91-.99.01,0,.03-.02.04-.03.19-.14.41-.31.62-.5.08.39.16.78.24,1.18.07.38.44.62.82.55.38-.07.62-.44.55-.82-.12-.63-.25-1.25-.38-1.87l-.13-.63c-.06-.28-.28-.49-.56-.54-.28-.05-.56.07-.71.32-.16.25-.69.78-1.23,1.18-.11.07-.22.13-.33.19.12-.28.21-.55.27-.79.03-.1.06-.22.07-.35,0-.02,0-.08,0-.17.02-.23-.07-.47-.27-.62-.3-.23-.74-.18-.97.13-.21.27-1.22,1.16-2.25,1.67-.27.13-.5.24-.71.32.14-.27.25-.54.33-.82.05-.18.09-.36.11-.54,0-.04,0-.11,0-.18v-.02c.09-.26.01-.56-.21-.75-.29-.25-.73-.22-.98.07,0,0,0,0,0,0-.6.7-1.77,1.81-3.11,2.68-.63.4-1.4.64-2.09.85-.28.09-.55.17-.79.25-.36.13-.54.53-.41.89.1.28.37.45.65.45Z"/>
        </g>
      </g>
      <g>
        <path class="cls-1" d="M3.25,63.15H.5v-17.18c0-9.21,4.67-14.94,13.5-16.55l.58-.11,6.35,4.66,6.58-4.57h.41c2.96-.1,5.07.57,7.29,1.27.51.16,1.04.33,1.6.49l-.77,2.64c-.58-.17-1.12-.34-1.66-.51-1.97-.62-3.68-1.17-5.98-1.17h-.01l-7.51,5.21-6.96-5.11c-7.18,1.5-10.67,6-10.67,13.74v17.18Z"/>
        <rect class="cls-1" x="10.8" y="52.5" width="2.14" height="10.65"/>
        <rect class="cls-1" x="13.84" y="41.98" width="3.03" height="2.14"/>
      </g>
      <g>
        <path class="cls-1" d="M62.81,63.15h-2.75v-18.81l13.46-2.8c6.13-.9,6.08-2.55,5.95-6.17l-1.03-17.32c-.34-3.4-2.07-5.17-3.57-5.08-1.35.06-2.82,1.65-2.85,5.01v14.16h-16.35l-7.5,5.21-6.96-5.11c-7.18,1.5-10.67,6-10.67,13.74v17.18h-2.75v-17.18c0-9.21,4.67-14.94,13.5-16.55l.58-.11,6.35,4.66,6.6-4.58h14.46v-11.43c.05-5.18,2.79-7.62,5.47-7.74,2.71-.12,5.89,2.2,6.43,7.6l1.03,17.41c.16,4.56-.34,7.85-8.22,9l-11.19,2.33v16.58Z"/>
        <path class="cls-1" d="M66.79,21.92c-2.89,0-5.24-2.62-5.24-5.85s2.35-5.85,5.24-5.85,5.24,2.62,5.24,5.85-2.35,5.85-5.24,5.85ZM66.79,12.97c-1.37,0-2.49,1.39-2.49,3.1s1.12,3.1,2.49,3.1,2.49-1.39,2.49-3.1-1.12-3.1-2.49-3.1Z"/>
        <path class="cls-1" d="M83.92,21.92c-2.89,0-5.24-2.62-5.24-5.85s2.35-5.85,5.24-5.85,5.24,2.62,5.24,5.85-2.35,5.85-5.24,5.85ZM83.92,12.97c-1.37,0-2.49,1.39-2.49,3.1s1.12,3.1,2.49,3.1,2.49-1.39,2.49-3.1-1.12-3.1-2.49-3.1Z"/>
        <path class="cls-1" d="M66.67,51.21c-3.65,0-6.61-2.7-6.61-6.01s2.97-6.01,6.61-6.01,6.61,2.7,6.61,6.01v.56c.03,1.31.05,2.8-1.07,3.94-1.03,1.04-2.74,1.51-5.54,1.51ZM66.67,41.93c-2.13,0-3.87,1.46-3.87,3.27s1.73,3.27,3.87,3.27c2.53,0,3.33-.43,3.58-.69.3-.31.31-.95.29-1.97v-.61c0-1.8-1.74-3.27-3.87-3.27Z"/>
      </g>
    </g>
  </g>
</svg>