<?xml version="1.0" encoding="UTF-8"?>
<svg id="_レイヤー_2" data-name="レイヤー 2" xmlns="http://www.w3.org/2000/svg" viewBox="0 0 351.61 498.26">
  <defs>
    <style>
      .cls-1 {
        stroke-width: 1.43px;
      }

      .cls-1, .cls-2 {
        stroke: #ee780c;
      }

      .cls-1, .cls-2, .cls-3 {
        fill: none;
        stroke-miterlimit: 10;
      }

      .cls-2 {
        stroke-width: 1.43px;
      }

      .cls-4 {
        fill: #ee780c;
      }

      .cls-5 {
        fill: #fff;
      }

      .cls-3 {
        stroke: #fff;
        stroke-width: .57px;
      }

      .cls-6 {
        fill: #004639;
      }
    </style>
  </defs>
  <g id="_レイヤー_5" data-name="レイヤー 5">
    <g>
      <g>
        <g>
          <path class="cls-4" d="M284.45,378.92c-13.47,0-25.19-8.82-25.19-24.61v-34.83c0-15.79,11.73-24.61,25.19-24.61s25.08,8.82,25.08,24.61v34.83c0,15.79-11.61,24.61-25.08,24.61ZM294.44,319.71c0-6.97-4.06-11.26-9.98-11.26s-10.1,4.3-10.1,11.26v34.48c0,6.97,4.18,11.14,10.1,11.14s9.98-4.18,9.98-11.14v-34.48Z"/>
          <path class="cls-4" d="M235.96,344.46l6.56,15.9-4.37,3.26-8.79-19.16h6.6ZM250.35,359.66v3.72h-19.28v-3.72h19.28ZM250.35,365.72v3.72h-19.28v-3.72h19.28ZM244.1,359.31v16.49h-6.33v-16.49h6.33ZM239.56,360.25l6.5-15.79h6.65l-8.87,19.16-4.27-3.36Z"/>
        </g>
        <line class="cls-1" x1="196.58" y1="245.15" x2="196.58" y2="383.08"/>
        <g>
          <path class="cls-4" d="M96.58,378.87c-13.47,0-25.19-8.82-25.19-24.61v-34.83c0-15.79,11.73-24.61,25.19-24.61s25.08,8.82,25.08,24.61v34.83c0,15.79-11.61,24.61-25.08,24.61ZM106.56,319.66c0-6.97-4.06-11.26-9.98-11.26s-10.1,4.3-10.1,11.26v34.48c0,6.97,4.18,11.14,10.1,11.14s9.98-4.18,9.98-11.14v-34.48Z"/>
          <path class="cls-4" d="M48.76,345.75l6.3,15.27-4.2,3.13-8.44-18.4h6.34ZM62.57,360.35v3.57h-18.52v-3.57h18.52ZM62.57,366.17v3.57h-18.52v-3.57h18.52ZM56.57,360.01v15.83h-6.08v-15.83h6.08ZM52.21,360.92l6.24-15.17h6.38l-8.52,18.4-4.1-3.23Z"/>
        </g>
      </g>
      <g>
        <g>
          <path class="cls-4" d="M239.39,242.36h5.95c0,3.25.46,9.52,6.78,13.24-.46.36-1.29,1.26-1.65,1.78-3.57-2.16-5.41-5.44-6.34-8.53-1.26,3.82-3.31,6.8-6.39,8.58-.36-.44-1.19-1.22-1.72-1.6,3.47-1.75,5.54-5.24,6.48-9.74l1.05.24c-.1-.66-.19-1.31-.24-1.9h-3.93v-2.07Z"/>
          <path class="cls-4" d="M258.38,248.43v-1.26c-.92.63-1.9,1.22-2.92,1.7-.24-.46-.77-1.26-1.19-1.67,2.96-1.31,5.75-3.77,7-5.81l2.75.14c-.05.17-.2.31-.44.34,1.58,2.12,4.44,4.05,7.02,4.98-.51.51-.97,1.24-1.33,1.87-.95-.44-1.96-1.02-2.91-1.67v1.38h-7.99ZM255.33,251.74v-1.9h14.19v1.9h-7.99l.51.17c-.07.14-.24.2-.51.2-.36.83-.85,1.8-1.36,2.7,1.68-.03,3.52-.08,5.35-.14-.58-.66-1.19-1.31-1.79-1.85l1.8-.93c1.53,1.33,3.13,3.11,3.93,4.4l-1.9,1.16c-.19-.34-.44-.71-.73-1.12-3.84.24-7.79.44-10.39.56-.03.15-.17.25-.32.27l-.71-2.24c.71-.02,1.56-.02,2.52-.05.49-.95.99-2.11,1.36-3.13h-3.96ZM265.67,246.56c-1.33-.99-2.53-2.11-3.31-3.18-.73,1.04-1.84,2.16-3.16,3.18h6.48Z"/>
          <path class="cls-4" d="M286.8,242.87c-.1.12-.32.14-.49.1-.48.44-1.27,1.07-1.95,1.55.24.32.51.61.78.92.68-.58,1.39-1.27,1.85-1.84l1.7,1.26c-.08.08-.27.14-.48.1-.48.44-1.21,1.05-1.89,1.55.78.63,1.65,1.14,2.58,1.51-.46.39-1.07,1.17-1.38,1.7-1.39-.66-2.62-1.61-3.67-2.77v.92h-6.31v-.85c-1.05,1.12-2.28,2.06-3.57,2.74-.27-.44-.83-1.1-1.24-1.44.87-.41,1.75-1,2.53-1.72-.48-.46-1.19-1-1.77-1.39l1.09-1.12c.63.34,1.38.87,1.85,1.31.46-.54.87-1.12,1.19-1.72h-3.65v-1.65h4.73l.32-.07,1.39.66c-.05.12-.15.19-.25.26-.44,1.19-1.09,2.29-1.87,3.28h4.88c-.95-1.22-1.73-2.63-2.35-4.16l1.75-.53c.24.59.53,1.19.87,1.75.59-.53,1.22-1.14,1.63-1.63l1.72,1.29ZM284.01,253.44l1.12.32c-.03.14-.2.2-.42.2-.22.43-.53.97-.83,1.44h4.27v1.68h-14.75v-1.68h4.1c-.22-.58-.53-1.22-.87-1.75l.75-.22h-1.46v-4.76h9.74v4.76h-1.63ZM277.89,250.32v1.51h5.66v-1.51h-5.66ZM281.88,255.42c.31-.58.65-1.34.87-1.97h-4.21c.41.63.76,1.41.93,1.97h2.41Z"/>
          <path class="cls-4" d="M297.68,254.55c.85-.46,2.01-1.16,3.13-1.85l.54,1.48c-.99.78-2.02,1.56-2.74,2.06.02.14-.07.29-.19.36l-.71-1.26.02.24c-2.12.39-4.33.76-5.76.99-.03.15-.17.25-.31.29l-.58-2.11c.75-.08,1.65-.2,2.65-.32v-3.99h-2.36v-1.72h2.36v-1.27h-1.46v-.15l-.03.03c-.31-.44-.93-1.09-1.38-1.36,1.38-1.38,2.4-3.16,2.99-4.56l2.23.39c-.03.15-.15.24-.41.25l-.03.07c1.02.73,2.23,1.7,2.82,2.38l-1.1,1.67-.15-.19v1.46h-1.67v1.27h2.19v1.72h-2.19v3.76l2.11-.29.03.66ZM292.19,254.18c-.08-.82-.36-2.04-.66-2.97l1.33-.37c.34.94.63,2.14.73,2.92l-1.39.43ZM296.98,245.73c-.58-.61-1.41-1.36-2.19-1.99-.37.65-.8,1.33-1.27,1.99h3.47ZM298.1,251.3c-.07.12-.2.19-.43.19-.19.7-.51,1.73-.8,2.41l-1.21-.44c.24-.75.53-1.9.65-2.7l1.79.54ZM303.25,249.7c.14.59.34,1.22.63,1.82.54-.58,1.19-1.43,1.58-2.07l1.77,1.19c-.1.14-.31.15-.48.12-.42.54-1.22,1.36-1.77,1.85-.02,0-.51-.36-.87-.61.65,1.21,1.62,2.31,3.08,2.94-.39.37-.99,1.19-1.26,1.73-1.19-.66-2.06-1.7-2.69-2.84v1.67c0,1.46-.37,1.94-2.8,1.94-.05-.51-.25-1.24-.48-1.77.24.02.49.02.7.02.63,0,.7,0,.7-.22v-6.48h-3.6v-1.78h6.07v-.97h-4.88v-1.6h4.88v-.94h-5.25v-1.72h7.14v5.22h1.36v1.78h-3.82v.71ZM299.29,249.64c.66.61,1.39,1.48,1.72,2.09l-1.43.97c-.29-.61-1-1.55-1.63-2.19l1.34-.87Z"/>
          <path class="cls-4" d="M314.29,249.47c.58.46,2.24,2.02,2.62,2.4l-1.16,1.65c-.32-.49-.9-1.24-1.46-1.92v5.83h-1.96v-5.35c-.61,1.33-1.33,2.57-2.07,3.42-.19-.61-.65-1.51-.97-2.07.99-1.02,2.01-2.74,2.63-4.28h-2.28v-1.9h2.69v-5.83l2.4.14c-.02.17-.14.26-.44.31v5.39h2.46v1.9h-2.46v.34ZM311.14,242.48c.49,1.21.87,2.74.99,3.77l-1.67.46c-.07-1.02-.44-2.62-.88-3.82l1.56-.41ZM317.55,243.04c-.05.12-.2.2-.44.2-.32,1.07-.92,2.58-1.41,3.54-.44-.15-.97-.36-1.41-.51.42-1.04.92-2.67,1.14-3.84l2.12.61ZM325.52,252.73l-2.14.41v4.3h-2.01v-3.93l-4.27.82-.34-1.94,4.61-.85v-10.06l2.45.14c-.02.15-.14.27-.44.32v9.23l1.82-.34.32,1.9ZM318.47,246.97c.92.75,2.06,1.84,2.57,2.62-1.48,1.12-1.51,1.16-1.53,1.17-.48-.76-1.55-1.92-2.46-2.74l1.43-1.05ZM318.98,242.67c.83.73,1.8,1.77,2.23,2.52l-1.56,1.1c-.39-.75-1.33-1.85-2.12-2.62l1.46-1Z"/>
        </g>
        <g>
          <path class="cls-4" d="M40.52,255.11h-9.56c.01-1.16.29-2.17.84-3.04.55-.87,1.29-1.62,2.24-2.26.45-.33.93-.66,1.42-.97.49-.31.95-.65,1.36-1.01.41-.36.75-.75,1.02-1.17.27-.42.41-.9.42-1.45,0-.25-.03-.52-.09-.81-.06-.29-.18-.55-.35-.8-.17-.25-.41-.45-.72-.62s-.71-.25-1.2-.25c-.45,0-.83.09-1.13.27-.3.18-.54.43-.72.74-.18.31-.31.68-.4,1.11-.09.43-.14.89-.15,1.38h-2.28c0-.77.1-1.49.31-2.15.21-.66.52-1.23.93-1.71.41-.48.92-.86,1.51-1.13.59-.27,1.28-.41,2.07-.41.85,0,1.57.14,2.14.42.57.28,1.04.63,1.39,1.06.35.43.6.89.75,1.39s.22.98.22,1.43c0,.56-.09,1.07-.26,1.52-.17.45-.41.87-.7,1.25-.29.38-.63.73-1,1.05-.37.32-.76.62-1.16.9-.4.28-.8.55-1.2.8-.4.25-.77.51-1.11.76-.34.25-.64.52-.89.79-.25.27-.43.56-.52.87h6.82v2.04Z"/>
          <path class="cls-4" d="M56.7,240.54v12.66c0,2.28-1.07,2.55-4.88,2.55-.12-.59-.53-1.6-.85-2.14.8.05,1.7.05,2.33.05,1.12,0,1.24,0,1.24-.49v-2.63h-7.17c-.48,1.97-1.41,3.91-3.2,5.27-.31-.43-1.11-1.21-1.55-1.51,2.87-2.19,3.11-5.47,3.11-8.11v-5.64h10.96ZM47.83,246.52c-.02.65-.05,1.33-.12,2.04h6.83v-2.04h-6.71ZM54.54,242.53h-6.71v2.06h6.71v-2.06Z"/>
          <path class="cls-4" d="M76.27,247.22c-1.14,2.11-2.8,3.13-4.62,3.13-1.62,0-2.86-.61-4.01-1.87-.73-.76-1.34-1.22-2.53-1.22-1.09,0-2.06.83-2.7,2.04l-1.87-1.02c1.14-2.11,2.8-3.13,4.62-3.13,1.61,0,2.86.61,4.01,1.87.73.78,1.36,1.22,2.53,1.22,1.09,0,2.06-.83,2.7-2.04l1.87,1.02Z"/>
          <path class="cls-4" d="M88.7,251.79h-1.8v3.32h-2.16v-3.32h-6v-2.26l6-8.42h2.16v8.88h1.8v1.8ZM80.5,249.99h4.24v-6.16h-.04l-4.2,6.16Z"/>
          <path class="cls-4" d="M104.78,240.54v12.66c0,2.28-1.07,2.55-4.88,2.55-.12-.59-.53-1.6-.85-2.14.8.05,1.7.05,2.33.05,1.12,0,1.24,0,1.24-.49v-2.63h-7.17c-.48,1.97-1.41,3.91-3.2,5.27-.31-.43-1.11-1.21-1.55-1.51,2.87-2.19,3.11-5.47,3.11-8.11v-5.64h10.96ZM95.91,246.52c-.02.65-.05,1.33-.12,2.04h6.83v-2.04h-6.71ZM102.62,242.53h-6.71v2.06h6.71v-2.06Z"/>
          <path class="cls-4" d="M121.78,240.54v12.66c0,2.28-1.07,2.55-4.88,2.55-.12-.59-.53-1.6-.85-2.14.8.05,1.7.05,2.33.05,1.12,0,1.24,0,1.24-.49v-2.63h-7.17c-.48,1.97-1.41,3.91-3.2,5.27-.31-.43-1.11-1.21-1.55-1.51,2.87-2.19,3.11-5.47,3.11-8.11v-5.64h10.96ZM112.91,246.52c-.02.65-.05,1.33-.12,2.04h6.83v-2.04h-6.71ZM119.62,242.53h-6.71v2.06h6.71v-2.06Z"/>
          <path class="cls-4" d="M129.48,246.76v-1.26c-.92.63-1.9,1.22-2.92,1.7-.24-.46-.77-1.26-1.19-1.67,2.96-1.31,5.75-3.77,7-5.81l2.75.14c-.05.17-.2.31-.44.34,1.58,2.12,4.44,4.05,7.02,4.98-.51.51-.97,1.24-1.33,1.87-.95-.44-1.96-1.02-2.91-1.67v1.38h-7.99ZM126.44,250.07v-1.9h14.19v1.9h-7.99l.51.17c-.07.14-.24.2-.51.2-.36.83-.85,1.8-1.36,2.7,1.68-.03,3.52-.08,5.35-.14-.58-.66-1.19-1.31-1.79-1.85l1.8-.93c1.53,1.33,3.13,3.11,3.93,4.4l-1.9,1.16c-.19-.34-.44-.71-.73-1.12-3.84.24-7.79.44-10.39.56-.03.15-.17.25-.32.27l-.71-2.24c.71-.02,1.56-.02,2.52-.05.49-.95.99-2.11,1.36-3.13h-3.96ZM136.78,244.89c-1.33-.99-2.53-2.11-3.31-3.18-.73,1.04-1.84,2.16-3.16,3.18h6.48Z"/>
          <path class="cls-4" d="M155.09,253.15v.02c1.67.53,3.47,1.17,4.56,1.63l-2.28.99c-1-.51-2.79-1.24-4.57-1.82l1.33-.82h-4.67l1.63.8c-.07.08-.19.14-.32.14-.05,0-.1,0-.15-.02-1.36.63-3.42,1.31-5.15,1.72-.32-.37-.95-1.05-1.34-1.38,1.53-.29,3.28-.75,4.49-1.26h-2.35v-4.95c-.39.08-.82.17-1.27.24-.17-.43-.63-1.21-.97-1.56,2.06-.27,3.3-.71,4.01-1.26h-1.43l-.07.17-1.85-.1c.37-.87.78-2.09,1.07-3.13h3.26v-.68h-4.16v-1.19h4.16v-.95l2.28.12c-.02.15-.14.26-.42.31v.53h1.92v-.95l2.38.12c-.02.17-.15.27-.44.32v.51h3.64v3.08h-3.64v.66h3.26l.42-.03,1.07.1c0,.17-.03.27-.05.44-.12,1.95-.36,2.41-1.73,2.5v5.71h-2.6ZM147.23,243.77l-.22.66h1.85c.07-.2.1-.43.12-.66h-1.75ZM155.61,248.41v-.68h-7.38v.68h7.38ZM155.61,250.19v-.7h-7.38v.7h7.38ZM148.24,251.28v.71h7.38v-.71h-7.38ZM152.77,245.62h-2.33c-.17.34-.39.66-.68.95h3.01v-.95ZM152.77,244.43v-.66h-1.94c0,.22-.02.44-.05.66h1.99ZM150.85,241.88v.68h1.92v-.68h-1.92ZM156.5,241.88h-1.78v.68h1.78v-.68ZM156.14,246.57c-.03-.14-.1-.27-.15-.39.41.05.77.07.95.07.34,0,.44-.1.51-.63h-2.74v.95h1.43Z"/>
        </g>
        <g>
          <path class="cls-4" d="M46.87,210.68l5.7,8.83h-1.12l-5.68-8.83,5.68-8.83h1.12l-5.7,8.83Z"/>
          <path class="cls-4" d="M68.74,203.41l1.79,1.01c-.08.11-.21.21-.34.27-1.01,1.71-2.41,3.23-4.1,4.5,2.09,1.03,4.48,1.79,7.03,2.22-.51.51-1.16,1.48-1.48,2.11-.57-.11-1.14-.25-1.69-.4v6.48h-2.32v-.61h-7.24v.68h-2.22v-6.44c-.7.23-1.42.44-2.15.63-.23-.61-.76-1.52-1.18-2.03,2.41-.53,4.92-1.42,7.1-2.62-.89-.68-1.73-1.46-2.47-2.3-.87.76-1.8,1.44-2.74,1.99-.34-.46-1.08-1.23-1.56-1.63,2.38-1.22,4.79-3.44,6.12-5.74l2.47.97c-.08.13-.29.21-.53.17-.19.29-.38.57-.59.85h5.72l.38-.11ZM68.08,212.52c-1.46-.51-2.83-1.16-4.08-1.92-1.23.74-2.54,1.37-3.91,1.92h8ZM60.38,216.95h7.24v-2.39h-7.24v2.39ZM60.99,205.48l-.02.02c.82.89,1.82,1.73,2.96,2.49,1.08-.76,2.01-1.6,2.77-2.51h-5.72Z"/>
          <path class="cls-4" d="M86.18,203.96h6.99v2.17h-13.92v2.66c0,3.1-.29,7.83-2.01,10.83-.42-.38-1.44-1.04-1.98-1.29,1.58-2.74,1.71-6.76,1.71-9.54v-4.83h6.84v-2.22l2.89.15c-.02.19-.15.3-.51.38v1.69ZM87.44,206.56c-.02.21-.17.32-.51.38v1.27h5.98v2.03h-5.98v2.07h4.86v7.31h-2.34v-.68h-6.82v.7h-2.22v-7.33h4.2v-5.91l2.83.15ZM89.45,216.95v-2.62h-6.82v2.62h6.82Z"/>
          <path class="cls-4" d="M103.84,212.35c-.06.17-.21.28-.51.32-.57,2.83-1.35,5.41-5.79,6.97-.27-.59-.87-1.52-1.39-1.99,3.97-1.14,4.58-3.17,4.88-5.62l2.81.32ZM108.45,216.48c0,.63.09.72.68.72h1.67c.57,0,.68-.36.76-2.62.46.38,1.46.76,2.07.91-.23,3.04-.84,3.86-2.62,3.86h-2.22c-2.15,0-2.64-.7-2.64-2.87v-4.64h-9.73v-2.22h7.35v-3.12h-3.32c-.42.97-.91,1.9-1.46,2.62-.51-.34-1.46-.8-2.01-1.01,1.25-1.58,2.17-4.16,2.56-6.12l2.68.59c-.06.17-.21.27-.49.27-.11.44-.27.95-.44,1.46h2.49v-2.58l2.85.13c-.02.21-.17.32-.53.38v2.07h5.85v2.18h-5.85v3.12h7.37v2.22h-5.01v4.64Z"/>
          <path class="cls-4" d="M134.14,210.57h-10.94c-.11.25-.21.49-.32.74h9.14v8.32h-2.34v-.44h-6.4v.46h-2.24v-5.34c-.89,1.14-1.94,2.15-3.06,2.89-.34-.46-1.08-1.25-1.56-1.61,1.79-1.08,3.34-2.91,4.31-5.02h-3.95v-1.77h7.45v-.72h-5.36v-1.65h5.36v-.72h-6.4v-1.77h3.34c-.27-.49-.61-1.03-.95-1.46l1.96-.76c.57.61,1.12,1.44,1.37,2.07l-.36.15h4.39l-.34-.13c.42-.61.95-1.48,1.24-2.13l2.66.85c-.06.15-.23.21-.51.21-.25.36-.61.8-.97,1.2h3.48v1.77h-6.54v.72h5.55v1.65h-5.55v.72h7.56v1.77ZM129.67,212.96h-6.4v.66h6.4v-.66ZM129.67,215.58v-.68h-6.4v.68h6.4ZM123.27,217.56h6.4v-.72h-6.4v.72Z"/>
          <path class="cls-4" d="M137.63,205.92c.53,0,1.04-.04,1.54-.13.5-.09.95-.23,1.35-.44.4-.21.75-.47,1.03-.79.29-.32.47-.72.56-1.19h2.05v15.4h-2.75v-10.87h-3.78v-1.98Z"/>
          <path class="cls-4" d="M153.84,203.06c1.1,0,2,.25,2.69.76.7.51,1.24,1.15,1.63,1.94.39.78.65,1.65.79,2.58.14.94.21,1.85.21,2.73s-.07,1.79-.21,2.73c-.14.94-.4,1.8-.79,2.58-.39.78-.93,1.43-1.63,1.94-.7.51-1.59.76-2.69.76s-2-.25-2.7-.76c-.7-.51-1.24-1.15-1.63-1.94-.39-.78-.65-1.65-.79-2.58-.14-.94-.21-1.85-.21-2.73s.07-1.79.21-2.73c.14-.94.4-1.8.79-2.58.39-.78.93-1.43,1.63-1.94.7-.51,1.59-.76,2.7-.76ZM153.84,216.99c.54,0,1-.16,1.36-.47.37-.32.66-.74.87-1.28.21-.54.36-1.16.45-1.88.09-.72.13-1.48.13-2.29s-.04-1.57-.13-2.28c-.09-.71-.24-1.34-.45-1.88-.21-.54-.5-.97-.87-1.29-.37-.32-.82-.47-1.36-.47s-1.02.16-1.38.47c-.36.32-.65.74-.86,1.29-.21.54-.36,1.17-.45,1.88-.09.71-.13,1.47-.13,2.28s.04,1.57.13,2.29c.09.72.24,1.35.45,1.88.21.54.5.96.86,1.28s.82.47,1.38.47Z"/>
          <path class="cls-4" d="M167.83,203.06c1.1,0,2,.25,2.69.76.7.51,1.24,1.15,1.63,1.94.39.78.65,1.65.79,2.58.14.94.21,1.85.21,2.73s-.07,1.79-.21,2.73c-.14.94-.4,1.8-.79,2.58-.39.78-.93,1.43-1.63,1.94-.7.51-1.59.76-2.69.76s-2-.25-2.7-.76c-.7-.51-1.24-1.15-1.63-1.94-.39-.78-.65-1.65-.79-2.58-.14-.94-.21-1.85-.21-2.73s.07-1.79.21-2.73c.14-.94.4-1.8.79-2.58.39-.78.93-1.43,1.63-1.94.7-.51,1.59-.76,2.7-.76ZM167.83,216.99c.54,0,1-.16,1.36-.47.37-.32.66-.74.87-1.28.21-.54.36-1.16.45-1.88.09-.72.13-1.48.13-2.29s-.04-1.57-.13-2.28c-.09-.71-.24-1.34-.45-1.88-.21-.54-.5-.97-.87-1.29-.37-.32-.82-.47-1.36-.47s-1.02.16-1.38.47c-.36.32-.65.74-.86,1.29-.21.54-.36,1.17-.45,1.88-.09.71-.13,1.47-.13,2.28s.04,1.57.13,2.29c.09.72.24,1.35.45,1.88.21.54.5.96.86,1.28s.82.47,1.38.47Z"/>
          <path class="cls-4" d="M192.8,211v8.64h-2.38v-.68h-6.52v.67h-2.24v-5.47c-1.35.76-2.79,1.41-4.27,1.9-.27-.61-.85-1.58-1.33-2.03,2.39-.7,4.69-1.82,6.67-3.31-.68-.72-1.65-1.54-2.49-2.17l1.69-1.44c.84.57,1.88,1.37,2.62,2.07,1.1-1.08,2.03-2.28,2.74-3.57h-4.9c-1.21,1.37-2.74,2.68-4.62,3.84-.34-.57-1.08-1.41-1.61-1.79,3.06-1.65,5.11-3.95,6.19-6.04l2.89.51c-.06.21-.23.32-.53.32-.23.38-.48.76-.74,1.14h4.64l.36-.09,1.67.85c-.08.13-.19.21-.32.27-.95,2.47-2.47,4.6-4.35,6.38h6.84ZM183.91,216.89h6.52v-3.86h-6.52v3.86Z"/>
          <path class="cls-4" d="M201.43,207.79v.84c.51.7,1.9,2.83,2.22,3.34-.36.49-.7,1.01-1.18,1.63-.23-.57-.63-1.41-1.04-2.22v8.24h-2.07v-7.22c-.49,1.5-1.08,2.85-1.75,3.82-.21-.63-.68-1.5-1.01-2.01,1.08-1.5,2.09-4.14,2.58-6.42h-2.15v-2.11h2.32v-3.97l2.56.15c-.02.17-.15.28-.49.34v3.48h1.92v2.11h-1.92ZM202.69,216.95c1.12-.49,2.83-1.39,4.48-2.22l.51,1.61c-1.33.89-2.72,1.79-3.67,2.32.02.17-.06.32-.21.42l-1.12-2.13ZM210.11,211.88c.21.59.48,1.14.78,1.67.68-.63,1.42-1.42,1.88-2.05l1.92,1.46c-.09.11-.3.15-.53.11-.55.53-1.56,1.31-2.32,1.86.84,1.01,1.88,1.8,3.12,2.3-.48.44-1.12,1.27-1.44,1.86-1.41-.76-2.53-1.94-3.4-3.38v1.67c0,1.88-.67,2.3-3.53,2.3-.08-.59-.32-1.48-.61-2.03.65.04,1.41.04,1.63.04s.3-.09.3-.32v-6.12h-4.45v-1.86h4.45v-.89h-3.44v-1.77h3.44v-.87h-3.91v-1.86h1.77c-.21-.53-.49-1.14-.78-1.63l1.8-.61c.44.67.89,1.56,1.06,2.13l-.3.11h2.79l-.21-.08c.34-.63.78-1.56.99-2.22l2.45.76c-.08.13-.25.21-.51.21-.21.38-.51.87-.82,1.33h2.01v1.86h-4.14v.87h3.69v1.77h-3.69v.89h4.48v1.86h-4.48v.63ZM205.59,215.03c-.34-.66-1.14-1.71-1.82-2.45l1.56-1.03c.7.7,1.52,1.67,1.9,2.34l-1.63,1.14Z"/>
          <path class="cls-4" d="M223.13,202.48l1.48.78c-.04.09-.1.21-.17.28-.44,1.56-1.1,3.61-1.67,5.13,1.29,1.46,1.73,2.62,1.73,3.8,0,3.08-1.9,3.08-3.48,3.08-.02-.59-.23-1.46-.49-1.98.36.04.68.04.93.04.86,0,.91-.82.91-1.37,0-.89-.46-2.03-1.61-3.32.42-1.23.85-2.98,1.18-4.33h-1.69v15.08h-2.13v-17.12h4.65l.36-.08ZM230.65,211.52c.19.7.42,1.37.7,1.99.65-.61,1.27-1.31,1.71-1.88l1.98,1.5c-.08.11-.3.15-.53.11-.53.55-1.42,1.31-2.2,1.92.78,1.08,1.75,1.94,3,2.49-.49.46-1.18,1.33-1.48,1.94-2.83-1.5-4.31-4.35-5.19-8.07h-1.35v4.92c.89-.15,1.81-.32,2.7-.49l.17,1.98c-2.17.51-4.45,1.03-5.91,1.33-.04.17-.17.28-.32.32l-.85-2.43c.57-.09,1.25-.19,1.99-.32v-14.23h8.91v8.93h-3.32ZM231.72,204.55h-4.43v1.52h4.43v-1.52ZM227.29,207.93v1.63h4.43v-1.63h-4.43Z"/>
          <path class="cls-4" d="M247.94,214.2v2.87c.68.08,1.42.11,2.18.11,1.03,0,4.2,0,5.49-.06-.34.55-.7,1.63-.82,2.32h-4.79c-3.57,0-6.19-.59-7.94-3.34-.63,1.48-1.48,2.74-2.62,3.63-.38-.42-1.23-1.16-1.75-1.5,2-1.42,2.96-4.2,3.31-7.48l2.75.4c-.06.17-.21.28-.47.3-.1.66-.21,1.29-.34,1.92.57,1.56,1.48,2.49,2.62,3.04v-6.74h-3.91v-2.17h10.16v2.17h-3.88v2.39h5.26v2.15h-5.26ZM240.92,205.91v2.64h-2.24v-4.79h6.86v-2.09l2.96.17c-.02.19-.17.3-.53.36v1.56h6.9v4.79h-2.36v-2.64h-11.59Z"/>
          <path class="cls-4" d="M276.25,209.49h-11.32v-1.92h-1.31v3.53l2-.38.04.49h5.77v-1.6l2.75.11c-.02.19-.15.3-.49.36v1.12h2.32v2.09h-2.32v3.93c0,2.13-.82,2.41-4.12,2.41-.08-.63-.38-1.56-.67-2.17.87.04,1.86.04,2.15.04.29-.02.38-.08.38-.32v-3.89h-6.12v-.49l-1.69.44v6.4h-2.18v-5.87c-.78.19-1.5.36-2.09.49-.04.19-.19.3-.34.32l-.74-2.55c.86-.13,1.96-.32,3.17-.55v-3.93h-1.12c-.23,1.03-.49,1.98-.82,2.74-.3-.34-.97-.91-1.37-1.2.53-1.48.84-4.05,1.01-6.4l2.26.53c-.06.13-.19.25-.46.23-.06.63-.15,1.29-.25,1.94h.74v-3.67l2.68.15c-.02.17-.15.28-.49.34v3.17h1.98v1.98h3.8v-1.69h-3.4v-2.07h3.4v-1.9l2.77.15c-.02.19-.17.3-.51.38v1.37h3.53v2.07h-3.53v1.69h4.6v2.11ZM267.91,217.58c-.3-.82-1.12-2.09-1.82-3l1.77-.91c.72.87,1.58,2.07,1.92,2.89l-1.86,1.03Z"/>
          <path class="cls-4" d="M296.74,213.08v2.15h-5.38c1.94.93,4.01,2.07,5.24,2.85l-2.18,1.6c-1.2-.87-3.34-2.2-5.3-3.15l1.41-1.29h-5.74l1.96,1.27c-.06.08-.19.11-.38.13-1.23,1.01-3.65,2.34-5.64,3.04-.44-.48-1.25-1.23-1.84-1.69,1.9-.61,4.14-1.79,5.39-2.75h-5.41v-2.15h1.9v-9.16h3.93v-2.26l2.62.15c-.02.19-.15.28-.49.34v1.77h1.84v-2.26l2.66.15c-.02.19-.15.28-.49.34v1.77h4.18v9.16h1.73ZM284.69,206.03h-1.73v2.45h1.73v-2.45ZM282.96,210.59v2.49h1.73v-2.49h-1.73ZM288.66,206.03h-1.84v2.45h1.84v-2.45ZM288.66,213.08v-2.49h-1.84v2.49h1.84ZM292.71,206.03h-1.88v2.45h1.88v-2.45ZM290.83,210.59v2.49h1.88v-2.49h-1.88Z"/>
          <path class="cls-4" d="M304.81,210.68l-5.7-8.83h1.12l5.68,8.83-5.68,8.83h-1.12l5.7-8.83Z"/>
        </g>
        <g>
          <path class="cls-4" d="M23.64,270.23v4.11c.96,1.49,2.74,1.49,5.11,1.49,1.36,0,2.96-.03,3.94-.09-.1.19-.23.57-.28.82-.85.02-2.2.05-3.45.05-2.74,0-4.45,0-5.69-1.56-.66.57-1.35,1.12-1.91,1.55,0,.11-.03.16-.11.2l-.47-.9c.61-.4,1.38-.95,2.05-1.5v-3.37h-1.89v-.8h2.7ZM21.75,265.52c.81.57,1.75,1.44,2.15,2.07l-.62.57c-.4-.64-1.31-1.54-2.12-2.14l.6-.51ZM28.78,268.4c-.79-.39-1.75-.81-2.56-1.11l.55-.49c.55.2,1.19.45,1.8.72.66-.3,1.36-.69,1.9-1.07h-5.47v-.69h6.34l.14-.04.64.41c-.04.05-.12.09-.2.1-.64.55-1.6,1.17-2.56,1.64.39.18.74.36,1.02.52h1.61v5.69c0,.82-.26.91-2.12.91-.04-.22-.14-.51-.24-.71.36.01.71.02.96.02.54,0,.6,0,.6-.22v-1.27h-2.35v2.11h-.76v-2.11h-2.26v2.16h-.8v-6.57h3.77ZM28.06,269.08h-2.26v1.19h2.26v-1.19ZM25.8,272.15h2.26v-1.24h-2.26v1.24ZM31.17,270.27v-1.19h-2.35v1.19h2.35ZM28.83,272.15h2.35v-1.24h-2.35v1.24Z"/>
          <path class="cls-4" d="M44.35,265.73c-.06.09-.16.11-.26.1-.26.37-.67.92-1.03,1.32h2.25v2.6h-.83v-1.84h-8.91v1.84h-.8v-2.6h2.05c-.23-.44-.64-1.05-1-1.49l.72-.31c.45.49.91,1.14,1.14,1.57l-.48.23h2.31v-1.94l1.09.07c-.01.09-.08.15-.24.17v1.69h2.26l-.38-.18c.36-.45.85-1.17,1.1-1.66l.99.41ZM44.49,272.73v2.61c0,.94-.46.94-2.5.94-.04-.22-.17-.51-.29-.74.48.01.91.03,1.22.03.64,0,.74,0,.74-.23v-1.84h-3.29v3.35h-.85v-3.35h-3.1v2.8h-.81v-3.57h3.91v-1.05h-2.79v-2.77h6.64v2.77h-2.85s-.09.04-.15.05v1h4.11ZM37.53,269.57v1.46h5.02v-1.46h-5.02Z"/>
          <path class="cls-4" d="M54.49,275.78h-.99v-2.6h-2.12v-.6h2.12v-1.15h-2.12v-.61h1.84l-2.31-4.4h1.11l1.49,3.1c.23.5.39.89.55,1.3h.04c.12-.39.31-.84.55-1.32l1.54-3.07h1.09l-2.46,4.4h1.84v.61h-2.15v1.15h2.15v.6h-2.15v2.6Z"/>
          <path class="cls-4" d="M59.85,270.82c.42-.62,1.19-1.15,2.19-1.15,1.59,0,2.65,1.19,2.65,2.99s-1.05,3.27-2.87,3.27-3.05-1.51-3.05-3.94,1.17-5.14,4.21-5.64c.35-.05.66-.09.87-.09v.86c-2.59,0-3.82,1.89-4.04,3.69h.04ZM63.64,272.73c0-1.44-.78-2.27-1.9-2.27s-1.94,1.07-1.94,1.77c.01,1.71.74,2.89,2.04,2.89,1.09,0,1.8-.97,1.8-2.39Z"/>
          <path class="cls-4" d="M68.22,274.14c-.31,1.15-.92,2.72-1.26,3.31l-.76.09c.29-.76.66-2.27.81-3.26l1.21-.14Z"/>
          <path class="cls-4" d="M74.74,275.78h-.99v-2.62h-4.09v-.66l4-6.07h1.07v5.94h1.28v.8h-1.28v2.62ZM70.72,272.35h3.04v-3.32c0-.51.02-1.01.05-1.5h-.05c-.29.57-.51.97-.75,1.4l-2.29,3.4v.03Z"/>
          <path class="cls-4" d="M82.38,271.35c-.51.65-1.24,1.04-2.15,1.04-1.6,0-2.59-1.25-2.59-2.84,0-1.71,1.12-3.29,2.96-3.29s2.86,1.52,2.86,3.91c0,3.11-1.58,5.27-3.97,5.65-.44.07-.84.1-1.11.09v-.86c.26.02.56-.01.96-.06,1.57-.22,2.76-1.5,3.07-3.64h-.04ZM78.69,269.49c0,1.26.71,2.11,1.79,2.11,1.01,0,1.94-.77,1.94-1.52,0-1.8-.66-3.01-1.9-3.01-1.09,0-1.83,1.02-1.83,2.42Z"/>
          <path class="cls-4" d="M85.2,271.13c0-3.27,1.27-4.86,3.02-4.86s2.86,1.67,2.86,4.74c0,3.25-1.14,4.92-3,4.92-1.7,0-2.89-1.67-2.89-4.8ZM90.04,271.05c0-2.34-.56-3.95-1.87-3.95-1.11,0-1.9,1.49-1.9,3.95s.69,4.02,1.86,4.02c1.39,0,1.91-1.8,1.91-4.02Z"/>
          <path class="cls-4" d="M104.31,270.5c-.79,1.41-1.94,2.16-3.25,2.16-1.12,0-1.91-.46-2.79-1.31-.69-.66-1.25-1.06-2.17-1.06-1.01,0-1.9.69-2.42,1.69l-.81-.42c.79-1.41,1.94-2.16,3.25-2.16,1.12,0,1.91.46,2.79,1.31.69.66,1.26,1.06,2.17,1.06,1.01,0,1.9-.69,2.42-1.69l.81.42Z"/>
          <path class="cls-4" d="M109.44,275.78h-.99v-2.6h-2.12v-.6h2.12v-1.15h-2.12v-.61h1.84l-2.31-4.4h1.11l1.49,3.1c.23.5.39.89.55,1.3h.04c.12-.39.31-.84.55-1.32l1.54-3.07h1.09l-2.46,4.4h1.84v.61h-2.15v1.15h2.15v.6h-2.15v2.6Z"/>
          <path class="cls-4" d="M114.01,266.42h5.49v.66l-3.91,8.7h-1.06l3.91-8.47v-.02h-4.42v-.86Z"/>
          <path class="cls-4" d="M123.16,274.14c-.31,1.15-.92,2.72-1.26,3.31l-.76.09c.29-.76.66-2.27.81-3.26l1.21-.14Z"/>
          <path class="cls-4" d="M130.18,266.42v.86h-3.36l-.39,2.65c.2-.02.4-.05.73-.05,1.66,0,3.15.99,3.15,2.87s-1.38,3.17-3.22,3.17c-.94,0-1.72-.27-2.15-.55l.3-.81c.35.24,1.04.52,1.85.52,1.17,0,2.19-.86,2.17-2.21,0-1.29-.83-2.19-2.58-2.19-.5,0-.89.04-1.2.09l.59-4.36h4.11Z"/>
          <path class="cls-4" d="M137.32,271.35c-.51.65-1.24,1.04-2.15,1.04-1.6,0-2.59-1.25-2.59-2.84,0-1.71,1.12-3.29,2.96-3.29s2.86,1.52,2.86,3.91c0,3.11-1.58,5.27-3.97,5.65-.44.07-.84.1-1.11.09v-.86c.26.02.56-.01.96-.06,1.57-.22,2.76-1.5,3.07-3.64h-.04ZM133.64,269.49c0,1.26.71,2.11,1.79,2.11,1.01,0,1.94-.77,1.94-1.52,0-1.8-.66-3.01-1.9-3.01-1.09,0-1.83,1.02-1.83,2.42Z"/>
          <path class="cls-4" d="M140.15,271.13c0-3.27,1.27-4.86,3.02-4.86s2.86,1.67,2.86,4.74c0,3.25-1.14,4.92-3,4.92-1.7,0-2.89-1.67-2.89-4.8ZM144.99,271.05c0-2.34-.56-3.95-1.87-3.95-1.11,0-1.9,1.49-1.9,3.95s.69,4.02,1.86,4.02c1.39,0,1.91-1.8,1.91-4.02Z"/>
          <path class="cls-4" d="M148.1,276.34h-.84l3.96-10.23h.86l-3.99,10.23Z"/>
          <path class="cls-4" d="M162.69,265.9v9.7c0,.65-.17.94-.64,1.09-.46.15-1.3.16-2.66.15-.06-.24-.22-.64-.36-.89.6.02,1.17.04,1.62.04,1.09,0,1.16,0,1.16-.39v-2.79h-6.19c-.33,1.46-.97,2.94-2.3,4.05-.12-.19-.44-.5-.62-.62,2.15-1.82,2.36-4.41,2.36-6.49v-3.85h7.62ZM155.91,269.75c0,.64-.02,1.42-.14,2.25h6.04v-2.25h-5.9ZM161.81,266.73h-5.9v2.22h5.9v-2.22Z"/>
        </g>
        <g>
          <path class="cls-4" d="M248.89,270.23v4.11c.96,1.49,2.74,1.49,5.11,1.49,1.36,0,2.96-.03,3.94-.09-.1.19-.23.57-.28.82-.85.02-2.2.05-3.45.05-2.74,0-4.45,0-5.69-1.56-.66.57-1.35,1.12-1.91,1.55,0,.11-.03.16-.11.2l-.47-.9c.61-.4,1.38-.95,2.05-1.5v-3.37h-1.89v-.8h2.7ZM247,265.52c.81.57,1.75,1.44,2.15,2.07l-.62.57c-.4-.64-1.31-1.54-2.12-2.14l.6-.51ZM254.02,268.4c-.79-.39-1.75-.81-2.56-1.11l.55-.49c.55.2,1.19.45,1.8.72.66-.3,1.36-.69,1.9-1.07h-5.47v-.69h6.34l.14-.04.64.41c-.04.05-.12.09-.2.1-.64.55-1.6,1.17-2.56,1.64.39.18.74.36,1.02.52h1.61v5.69c0,.82-.26.91-2.12.91-.04-.22-.14-.51-.24-.71.36.01.71.02.96.02.54,0,.6,0,.6-.22v-1.27h-2.35v2.11h-.76v-2.11h-2.26v2.16h-.8v-6.57h3.77ZM253.31,269.08h-2.26v1.19h2.26v-1.19ZM251.05,272.15h2.26v-1.24h-2.26v1.24ZM256.42,270.27v-1.19h-2.35v1.19h2.35ZM254.07,272.15h2.35v-1.24h-2.35v1.24Z"/>
          <path class="cls-4" d="M269.6,265.73c-.06.09-.16.11-.26.1-.26.37-.67.92-1.03,1.32h2.25v2.6h-.83v-1.84h-8.91v1.84h-.8v-2.6h2.05c-.23-.44-.64-1.05-1-1.49l.72-.31c.45.49.91,1.14,1.14,1.57l-.48.23h2.31v-1.94l1.09.07c-.01.09-.08.15-.24.17v1.69h2.26l-.38-.18c.36-.45.85-1.17,1.1-1.66l.99.41ZM269.73,272.73v2.61c0,.94-.46.94-2.5.94-.04-.22-.17-.51-.29-.74.48.01.91.03,1.22.03.64,0,.74,0,.74-.23v-1.84h-3.29v3.35h-.85v-3.35h-3.1v2.8h-.81v-3.57h3.91v-1.05h-2.79v-2.77h6.64v2.77h-2.85s-.09.04-.15.05v1h4.11ZM262.77,269.57v1.46h5.02v-1.46h-5.02Z"/>
          <path class="cls-4" d="M279.74,275.78h-.99v-2.6h-2.12v-.6h2.12v-1.15h-2.12v-.61h1.84l-2.31-4.4h1.11l1.49,3.1c.23.5.39.89.55,1.3h.04c.12-.39.31-.84.55-1.32l1.54-3.07h1.09l-2.46,4.4h1.84v.61h-2.15v1.15h2.15v.6h-2.15v2.6Z"/>
          <path class="cls-4" d="M289.34,266.42v.86h-3.36l-.39,2.65c.2-.02.4-.05.73-.05,1.66,0,3.15.99,3.15,2.87s-1.38,3.17-3.22,3.17c-.94,0-1.72-.27-2.15-.55l.3-.81c.35.24,1.04.52,1.85.52,1.17,0,2.19-.86,2.17-2.21,0-1.29-.83-2.19-2.58-2.19-.5,0-.89.04-1.2.09l.59-4.36h4.11Z"/>
          <path class="cls-4" d="M293.46,274.14c-.31,1.15-.92,2.72-1.26,3.31l-.76.09c.29-.76.66-2.27.81-3.26l1.21-.14Z"/>
          <path class="cls-4" d="M300.47,266.42v.86h-3.36l-.39,2.65c.2-.02.4-.05.73-.05,1.66,0,3.15.99,3.15,2.87s-1.38,3.17-3.22,3.17c-.94,0-1.72-.27-2.15-.55l.3-.81c.35.24,1.04.52,1.85.52,1.17,0,2.19-.86,2.17-2.21,0-1.29-.83-2.19-2.58-2.19-.5,0-.89.04-1.2.09l.59-4.36h4.11Z"/>
          <path class="cls-4" d="M302.8,271.13c0-3.27,1.27-4.86,3.02-4.86s2.86,1.67,2.86,4.74c0,3.25-1.14,4.92-3,4.92-1.7,0-2.89-1.67-2.89-4.8ZM307.63,271.05c0-2.34-.56-3.95-1.87-3.95-1.11,0-1.9,1.49-1.9,3.95s.69,4.02,1.86,4.02c1.39,0,1.91-1.8,1.91-4.02Z"/>
          <path class="cls-4" d="M310.44,271.13c0-3.27,1.27-4.86,3.02-4.86s2.86,1.67,2.86,4.74c0,3.25-1.14,4.92-3,4.92-1.7,0-2.89-1.67-2.89-4.8ZM315.27,271.05c0-2.34-.56-3.95-1.87-3.95-1.11,0-1.9,1.49-1.9,3.95s.69,4.02,1.86,4.02c1.39,0,1.91-1.8,1.91-4.02Z"/>
        </g>
      </g>
      <g>
        <line class="cls-2" y1="403.63" x2="350.46" y2="403.63"/>
        <g>
          <path class="cls-4" d="M41.99,428.93c.11.51.11,1.38.08,1.89-.31,0-.64,0-1-.02-.2,0-1.26,0-2.61.02.03,1.87.17,5.98.18,6.73,0,1-.41,1.54-1.54,1.54-.83,0-2.07-.1-2.73-.21-.13-.48-.24-1.48-.28-2.05.81.23,1.78.34,2.08.34.39,0,.56-.1.56-.55,0,0,0-.31-.09-4.17-1.25,1.77-3.5,3.73-5.88,5.02-.53-.33-1.23-1.11-1.52-1.62,2.75-1.08,5.01-3.12,6.3-5.01-1.77.01-3.37.03-3.76.04-.24,0-1.17.01-1.63.01-.11-.58-.18-1.35-.15-1.92.47.03,1.02.06,1.56.06.6.02,2.85-.01,4.98-.03-.03-.94-.08-1.98-.17-2.68.5-.04,1.54.03,2.08.12-.01.51-.01,1.52-.01,2.53,1.18,0,2.11-.01,2.37-.01l1.2-.04Z"/>
          <path class="cls-4" d="M53.48,434.79c-1.39,2.07-3.52,3.52-5.74,4.35-.62-.35-1.35-1.22-1.74-1.88,2.23-.52,4-1.38,5.46-3.17.96-1.15,1.53-2.8,1.71-4.08-1.33.01-6.84.09-8.15.12-.1-.51-.18-1.74-.18-2.16.63.04,1.33.09,1.84.09.87,0,5.79-.05,6.71-.08.29,0,.63-.01.97-.07.39.23.98.74,1.29,1.17-.38,1.86-.9,3.79-2.17,5.7ZM54.93,427.14c0-.85.69-1.55,1.56-1.55s1.54.69,1.54,1.56-.69,1.54-1.54,1.54-1.56-.69-1.56-1.54h0ZM55.71,427.17c0,.39.34.74.78.74.41,0,.75-.34.75-.75,0-.44-.34-.78-.75-.78-.43,0-.78.34-.78.78h0Z"/>
          <path class="cls-4" d="M64.64,432c-.17.47-.63,1.33-.93,1.7-.9-.56-2.45-1.33-3.48-1.78.18-.45.66-1.41.88-1.73.97.41,2.67,1.25,3.52,1.81ZM65.91,435.53c2.21-1.23,4.23-3.37,5.44-5.88.56.36,1.23,1.2,1.49,1.68-1.23,2.14-3.38,4.42-5.89,5.88-1.61.95-3.17,1.54-4.38,1.88-.54-.44-1.11-1.35-1.38-1.95,1.57-.2,3.34-.84,4.72-1.6ZM66.74,428.49c-.18.45-.69,1.32-1.01,1.66-.88-.6-2.41-1.45-3.42-1.92.19-.43.72-1.38.94-1.69.99.47,2.62,1.33,3.48,1.95Z"/>
          <path class="cls-4" d="M82.4,432.05c-.66,0-5,.03-6,.04-.04-.33-.1-1.4-.1-1.62.39.03,1.27.04,1.65.04.66,0,5.26.01,6.22-.03-.04,1.08-.07,7.11-.01,8.7-.39.04-1.33.04-1.79,0v-.68c-1.5-.01-4.24,0-4.86,0-.43.02-1,.03-1.23.03-.06-.45-.1-1.36-.1-1.67.83.06,4.44.06,6.21.06v-1.77h-4.25c-.48.01-.92.03-1.25.04-.04-.38-.08-1.27-.08-1.62.17.01.98.04,1.5.06,1.26.02,3.02.02,4.08.02v-1.62Z"/>
          <path class="cls-4" d="M93.75,429.41c-.19.54-.79,1.48-1.17,1.9-.96-.75-2.7-1.8-4-2.4.24-.48.84-1.48,1.08-1.81,1.19.5,3.06,1.51,4.09,2.31ZM93.51,435.38c2.53-1.41,4.26-3.48,5.47-6.07.54.36,1.27,1.2,1.54,1.71-1.4,2.52-3.38,4.68-5.92,6.15-1.61.91-3.2,1.51-4.42,1.84-.56-.51-1.11-1.4-1.32-2.03,1.62-.24,3.29-.82,4.65-1.6Z"/>
          <path class="cls-4" d="M116.35,439.24h-8.6c.01-1.04.26-1.96.76-2.74.49-.78,1.16-1.46,2.02-2.03.41-.3.83-.59,1.28-.87.44-.28.85-.58,1.22-.91s.68-.68.92-1.05c.24-.38.37-.81.38-1.3,0-.23-.03-.47-.08-.73-.05-.26-.16-.5-.32-.72-.16-.22-.37-.41-.65-.56-.28-.15-.64-.23-1.08-.23-.41,0-.75.08-1.02.24-.27.16-.49.38-.65.67-.16.28-.28.61-.36,1s-.12.8-.13,1.24h-2.05c0-.7.09-1.34.28-1.94.19-.59.46-1.11.84-1.54.37-.43.83-.77,1.36-1.02.53-.25,1.15-.37,1.86-.37.77,0,1.41.13,1.93.38.52.25.93.57,1.25.95.32.38.54.8.67,1.25s.2.88.2,1.29c0,.5-.08.96-.23,1.37-.16.41-.37.78-.63,1.12s-.56.66-.9.95c-.34.29-.68.56-1.04.81-.36.25-.72.49-1.08.72-.36.23-.69.46-1,.68-.31.23-.57.47-.8.71-.23.25-.38.51-.47.78h6.14v1.84Z"/>
          <path class="cls-4" d="M130.67,426.24v11.17c0,2.01-.95,2.25-4.31,2.25-.1-.52-.46-1.41-.75-1.89.71.04,1.5.04,2.06.04.99,0,1.09,0,1.09-.44v-2.32h-6.33c-.42,1.74-1.25,3.45-2.82,4.65-.27-.38-.98-1.06-1.37-1.33,2.54-1.93,2.75-4.83,2.75-7.15v-4.98h9.67ZM122.84,431.52c-.01.57-.04,1.17-.11,1.8h6.03v-1.8h-5.92ZM128.76,428h-5.92v1.81h5.92v-1.81Z"/>
          <path class="cls-4" d="M147.93,432.14c-1,1.86-2.47,2.76-4.08,2.76-1.42,0-2.52-.54-3.54-1.65-.65-.68-1.19-1.08-2.24-1.08-.96,0-1.82.74-2.38,1.8l-1.65-.9c1-1.86,2.48-2.76,4.08-2.76,1.42,0,2.52.54,3.54,1.65.64.69,1.2,1.08,2.23,1.08.96,0,1.82-.73,2.39-1.8l1.65.9Z"/>
          <path class="cls-4" d="M159.09,436.26h-1.62v2.99h-1.94v-2.99h-5.4v-2.03l5.4-7.58h1.94v7.99h1.62v1.62ZM151.71,434.64h3.82v-5.54h-.04l-3.78,5.54Z"/>
          <path class="cls-4" d="M173.32,426.24v11.17c0,2.01-.95,2.25-4.31,2.25-.1-.52-.46-1.41-.75-1.89.71.04,1.5.04,2.06.04.99,0,1.09,0,1.09-.44v-2.32h-6.33c-.42,1.74-1.25,3.45-2.82,4.65-.27-.38-.98-1.06-1.37-1.33,2.54-1.93,2.75-4.83,2.75-7.15v-4.98h9.67ZM165.49,431.52c-.01.57-.04,1.17-.11,1.8h6.03v-1.8h-5.92ZM171.41,428h-5.92v1.81h5.92v-1.81Z"/>
        </g>
        <g>
          <path class="cls-4" d="M295.76,498.18c-11.77,0-22.03-7.71-22.03-21.52v-30.45c0-13.8,10.25-21.52,22.03-21.52s21.92,7.71,21.92,21.52v30.45c0,13.8-10.15,21.52-21.92,21.52ZM304.49,446.41c0-6.09-3.55-9.85-8.73-9.85s-8.83,3.76-8.83,9.85v30.15c0,6.09,3.65,9.74,8.83,9.74s8.73-3.65,8.73-9.74v-30.15Z"/>
          <path class="cls-4" d="M253.95,469.22l5.51,13.35-3.67,2.74-7.38-16.08h5.54ZM266.03,481.99v3.13h-16.19v-3.13h16.19ZM266.03,487.07v3.13h-16.19v-3.13h16.19ZM260.78,481.69v13.84h-5.31v-13.84h5.31ZM256.97,482.48l5.46-13.26h5.58l-7.45,16.08-3.58-2.82Z"/>
        </g>
        <g>
          <path class="cls-4" d="M34.67,449.05c3.11,0,5.62,2.51,5.62,5.62s-2.51,5.62-5.62,5.62-5.62-2.51-5.62-5.62,2.54-5.62,5.62-5.62Z"/>
          <path class="cls-4" d="M45.85,451.83l1.04.45c-.02.09-.09.19-.16.24-.58,3.15-1.91,5.69-3.7,7.01-.26-.36-.88-.96-1.25-1.19,1.47-.99,2.57-2.72,3.14-4.94h-2.72v-1.51h3.39l.27-.06ZM48.65,451.01c.24.89.52,1.74.89,2.52.9-.81,1.9-1.89,2.54-2.79l1.56,1.16c-.09.1-.25.11-.41.1-.75.86-2.04,2-3.04,2.79.89,1.5,2.09,2.72,3.64,3.46-.38.31-.9.95-1.16,1.4-1.82-1.02-3.1-2.7-4.01-4.76v3.72c0,1.55-.56,1.96-3.24,1.96-.06-.47-.35-1.24-.59-1.67.5.03.97.03,1.35.03.82,0,.88,0,.88-.31v-9.84l1.94.09c-.01.14-.1.22-.34.25v1.89Z"/>
          <path class="cls-4" d="M66.67,452.84v1.11h-5.57l.07.04c-.05.06-.16.11-.36.09-.44.37-1.11.86-1.7,1.24.24.15.46.3.67.45.9-.59,1.79-1.24,2.42-1.8l1.44.85c-.09.09-.22.11-.38.1-.77.57-1.85,1.25-2.9,1.84,1.04,0,2.14-.01,3.21-.02-.34-.23-.67-.44-.99-.61.95-.75.96-.77.99-.79,1.04.55,2.39,1.42,3.06,2.09l-1.06.89c-.17-.18-.39-.39-.65-.59l-3.3.11v2.75h-1.49v-2.71c-.74.02-1.45.04-2.11.06l1.5.64c-.05.07-.17.12-.34.1-.79.61-1.96,1.31-3.01,1.75-.25-.27-.72-.74-1.02-.96,1.01-.36,2.14-.95,2.8-1.52l-1.86.04c-.04.11-.12.18-.23.19l-.47-1.37h2.69l.51-.29c-.61-.45-1.42-.96-2.11-1.32l.94-.8c.2.1.42.21.65.34.3-.22.61-.49.9-.75h-3.77v-1.11h4.94v-.47h-3.39v-1.07h3.39v-.47h-4.26v-1.1h4.26v-.95l1.84.1c-.01.14-.11.2-.32.25v.6h4.39v1.1h-4.39v.47h3.6v1.07h-3.6v.47h5.02ZM65.25,460.39c-.6-.5-1.86-1.27-2.82-1.76l1.11-.76c.92.44,2.22,1.16,2.9,1.69l-1.19.84Z"/>
          <path class="cls-4" d="M72.1,451.83l1.04.45c-.02.09-.09.19-.16.24-.58,3.15-1.91,5.69-3.7,7.01-.26-.36-.88-.96-1.25-1.19,1.47-.99,2.57-2.72,3.14-4.94h-2.72v-1.51h3.39l.27-.06ZM74.9,451.01c.24.89.52,1.74.89,2.52.9-.81,1.9-1.89,2.54-2.79l1.56,1.16c-.09.1-.25.11-.41.1-.75.86-2.04,2-3.04,2.79.89,1.5,2.09,2.72,3.64,3.46-.38.31-.9.95-1.16,1.4-1.82-1.02-3.1-2.7-4.01-4.76v3.72c0,1.55-.56,1.96-3.24,1.96-.06-.47-.35-1.24-.59-1.67.5.03.97.03,1.35.03.82,0,.88,0,.88-.31v-9.84l1.94.09c-.01.14-.1.22-.34.25v1.89Z"/>
          <path class="cls-4" d="M90.42,452.33v1.19c.01,1.25.51,4.19,2.71,5.74-.26.32-.7.95-.92,1.34-1.6-1.14-2.35-3.36-2.5-4.46h-.01c-.2,1.1-1.06,3.26-2.9,4.45-.18-.32-.59-.95-.85-1.22l-.38.2c-.05-.15-.11-.31-.19-.5-1.24.35-2.5.69-3.36.9-.01.12-.09.19-.17.22l-.61-1.5.94-.18v-5.56h-.01c-.24-.3-.71-.74-1.04-.92,1.17-.96,2-2.21,2.47-3.24l1.64.29c-.03.09-.11.16-.26.19.76.54,1.72,1.3,2.2,1.85l-1.05.96c-.38-.49-1.12-1.16-1.83-1.72-.17.27-.36.56-.56.84l1.54.09c-.01.11-.1.17-.31.21v.75h1.5v1.67c.76-1.16,1.21-3.15,1.41-5.11l1.76.32c-.04.11-.14.19-.31.19-.08.55-.18,1.11-.3,1.66h3.06l.91.02c0,.08-.21,2.35-.88,3.92l-1.11-.6c.15-.52.28-1.26.38-1.99h-.96ZM83.7,452.23v-1c-.25.34-.53.67-.83,1h.83ZM84.77,457.95c-.16-.27-.34-.54-.51-.77l1.11-.56c.51.65,1.05,1.5,1.32,2.14,1.85-1.64,2.25-4.09,2.25-5.24v-1.19h-.26c-.29.97-.66,1.84-1.11,2.5-.25-.21-.76-.55-1.11-.75v2.45h-2.91v1.69l1.22-.26ZM85.11,453.85v-.55h-1.56v.55h1.56ZM83.55,454.89v.57h1.56v-.57h-1.56Z"/>
          <path class="cls-4" d="M98.99,453.68c.45-.85.97-1.84,1.22-2.37-.59.11-2.05.29-3.01.39-.2-.35-.4-1.14-.4-1.59.29.01.46.01.75.01.75-.01,2.96-.2,3.92-.4.3.2.73.67.92.97-.49.66-1.2,1.92-1.84,3.14.96.16,1.89.46,2.74.8.02-.18.05-.35.06-.52.02-.22.04-.81.01-1.2.56.06,1.2.27,1.58.51-.05.66-.12,1.29-.24,1.86.41.22.8.44,1.14.64-.05.46-.27,1.27-.61,1.72-.3-.22-.64-.46-1-.7-.64,1.6-1.75,2.77-3.6,3.5-.4-.22-.96-.76-1.26-1.27,2.06-.5,3.05-1.66,3.54-2.99-.9-.45-1.92-.81-3.06-.97-.5.97-1.05,2.07-1.4,2.67-.41.72-.89,1.15-1.84,1.15-1.09,0-1.85-.91-1.85-2.01,0-1.79,1.56-3.34,4.2-3.34h.03ZM98.21,455.15c-1.36.16-2.04.96-2.04,1.65,0,.37.24.57.45.57.25,0,.38-.07.58-.36.27-.43.69-1.22,1.01-1.86Z"/>
          <path class="cls-4" d="M119.32,452.46h-.94c-.28,1.84-.71,3.4-1.41,4.7.65.91,1.46,1.64,2.5,2.11-.35.3-.81.9-1.02,1.31-.96-.51-1.74-1.21-2.38-2.07-.7.86-1.59,1.56-2.71,2.09-.15-.35-.52-.97-.77-1.27,1.15-.49,2.01-1.21,2.67-2.15-.39-.79-.7-1.66-.96-2.61-.16.29-.35.55-.54.8-.24-.25-.72-.65-1.06-.89-.08,3.69-.15,5.05-.46,5.49-.25.39-.55.6-1.7.6-.16,0-.32,0-.5-.01-.02-.4-.16-.99-.37-1.36.41.05.75.05.95.05.16,0,.26-.04.36-.19.17-.26.25-1.32.3-4.25h-1.05c-.16,2.2-.57,4.3-1.71,5.8-.24-.36-.7-.81-1.09-1.05,1.34-1.72,1.42-4.54,1.46-7.46h-1.26v-1.39h2v-1.9l1.83.1c-.01.11-.1.2-.34.24v1.56h2.06v1.39h-2.82c-.01.45-.02.9-.05,1.35h1.65l.78.03c-.01.06-.03.67-.03.8.94-1.24,1.55-3.35,1.86-5.49l1.8.36c-.03.11-.14.19-.34.19-.1.59-.22,1.17-.38,1.75h3.67v1.39ZM115.24,452.46l-.04.09c.22,1.09.51,2.12.91,3.04.36-.91.62-1.95.79-3.12h-1.66Z"/>
          <path class="cls-4" d="M124.41,457.36v1.5c.75.22,1.69.27,2.81.27.85,0,4.3,0,5.34-.05-.2.29-.41.86-.49,1.24h-4.85c-2.39,0-3.96-.24-4.96-1.64-.19.71-.47,1.37-.94,1.89-.17-.27-.52-.69-.81-.87.72-.89.84-2.39.87-3.85l1.46.12c-.01.1-.11.16-.28.19-.01.31-.04.64-.06.96.17.41.39.74.64,1v-2.87h-2.34v-1.09h5.66v1.09h-2.06v1.02h1.83v1.09h-1.83ZM125.91,449.28v4.16h-4.52v-4.16h4.52ZM124.52,450.86v-.59h-1.8v.59h1.8ZM124.52,452.43v-.61h-1.8v.61h1.8ZM126.89,451.2h1.4c.1-.26.2-.55.29-.84h-2.25v-1.05h5.96v1.05h-2.39c-.11.26-.24.56-.36.84h2.16v5.69h-1.04c.66.49,1.44,1.1,1.87,1.54l-1.25.49c-.37-.41-1.06-1.04-1.64-1.5l.9-.52h-2.59l1.14.41c-.04.11-.16.14-.29.12-.51.55-1.35,1.16-2.12,1.54-.2-.22-.61-.61-.88-.82.67-.29,1.39-.75,1.84-1.25h-.76v-5.69ZM130.31,452.79v-.57h-2.09v.57h2.09ZM130.31,454.31v-.56h-2.09v.56h2.09ZM130.31,455.86v-.59h-2.09v.59h2.09Z"/>
        </g>
        <g>
          <path class="cls-4" d="M34.67,469.46c3.11,0,5.62,2.51,5.62,5.62s-2.51,5.62-5.62,5.62-5.62-2.51-5.62-5.62,2.54-5.62,5.62-5.62Z"/>
          <path class="cls-4" d="M51.77,472.53c.27,0,.9-.03,1.2-.04.08.45.1,1.04.05,1.52-.34,0-.75-.01-1.12-.01h-1.28c-.02,3.31-.89,5.3-4.06,6.64-.36-.21-1.09-.91-1.39-1.41.54-.11,1.12-.27,1.51-.49,1.62-.85,2.33-2.06,2.33-4.71l-2.89.02v2.85c-.43.05-1.12.06-1.66,0,.01-.18.04-.77.05-1.16.01-.44.01-1.05.01-1.67h-1.12c-.35.01-.85.02-1.19.04-.1-.36-.15-1.21-.12-1.56.36.02.71.04,1.14.05h1.3c0-.54-.01-.97-.01-1.21,0-.4-.03-.85-.06-1.2.44,0,1.27.01,1.69.07,0,.28-.01,1.22-.01,2.34l2.87-.02c0-.52-.01-1.02-.03-1.35-.01-.29-.02-.8-.08-1.2.48-.01,1.33.02,1.76.07-.01.59-.03,1.52-.03,2.45h1.14Z"/>
          <path class="cls-4" d="M61.99,476.91c-1.16,1.72-2.94,2.94-4.79,3.62-.51-.29-1.12-1.01-1.45-1.56,1.86-.44,3.34-1.15,4.55-2.64.8-.96,1.28-2.34,1.42-3.4-1.11.01-5.7.07-6.79.1-.09-.42-.15-1.45-.15-1.8.52.04,1.11.07,1.54.07.72,0,4.82-.04,5.59-.06.24,0,.53-.01.81-.06.33.19.81.61,1.07.97-.31,1.55-.75,3.16-1.81,4.75ZM63.2,470.53c0-.71.58-1.29,1.3-1.29s1.29.57,1.29,1.3-.58,1.29-1.29,1.29-1.3-.57-1.3-1.29h0ZM63.85,470.56c0,.32.29.61.65.61.34,0,.62-.29.62-.62,0-.36-.29-.65-.62-.65-.36,0-.65.29-.65.65h0Z"/>
          <path class="cls-4" d="M69.81,470.42c-.05.91-.1,4.71-.11,5.97-.59.05-1.19.05-1.75,0,.05-.92.1-4.31.1-5.02,0-.25-.02-.71-.06-1.01.39,0,1.34.02,1.83.06ZM74.94,473.65c0,3.01-.56,4.21-1.51,5.27-.84.94-2.05,1.59-2.92,1.89-.35-.25-1.05-1-1.34-1.44,1.04-.22,2.25-.74,2.97-1.56.91-1.04,1.1-2.27,1.1-4.37,0-.64,0-1.19-.01-1.86-.02-.52-.05-.92-.09-1.3.44-.03,1.37.01,1.82.09-.03.35-.03.82-.03,1.16v2.12Z"/>
          <path class="cls-4" d="M87.06,477.02c-.21.45-.7,1.14-1.11,1.51-.66-.7-1.34-1.29-2.36-2.05-1.12,1.6-2.91,3.16-4.54,3.96-.49-.27-1.07-.82-1.45-1.34,1.95-.72,3.56-2.14,4.65-3.57-.94-.62-1.99-1.21-2.99-1.67.29-.45.7-.99,1.02-1.31.69.35,1.91,1.04,2.85,1.6.74-1.37,1.21-2.86,1.4-4.05.65.15,1.38.51,1.69.74-.31,1.15-.88,2.67-1.72,4.2.94.65,1.9,1.37,2.56,1.99Z"/>
          <path class="cls-4" d="M94.3,472.42c-.16.45-.66,1.24-.98,1.59-.8-.62-2.25-1.5-3.34-2,.2-.4.7-1.24.9-1.51.99.41,2.55,1.26,3.41,1.92ZM94.1,477.39c2.11-1.17,3.55-2.9,4.56-5.06.45.3,1.06,1,1.29,1.42-1.16,2.1-2.81,3.9-4.94,5.12-1.34.76-2.66,1.26-3.69,1.54-.46-.43-.92-1.16-1.1-1.69,1.35-.2,2.74-.69,3.87-1.34Z"/>
          <path class="cls-4" d="M105.59,475.19v3.82c0,.36.03,1.07.05,1.6-.47.05-1.45.01-1.92-.06.04-.4.08-1.06.09-1.59.04-1.15.08-6.37.06-7.36,0-.46-.03-1.11-.09-1.66.49-.01,1.41.02,1.86.1-.02.45-.05,1.84-.05,3.39,1.56.49,3.31,1.17,4.45,1.71-.1.49-.41,1.27-.7,1.66-1.02-.56-2.49-1.2-3.75-1.61Z"/>
          <path class="cls-4" d="M121.9,472.53c.27,0,.9-.03,1.2-.04.08.45.1,1.04.05,1.52-.34,0-.75-.01-1.12-.01h-1.28c-.02,3.31-.89,5.3-4.06,6.64-.36-.21-1.09-.91-1.39-1.41.54-.11,1.12-.27,1.51-.49,1.62-.85,2.33-2.06,2.33-4.71l-2.89.02v2.85c-.42.05-1.12.06-1.66,0,.01-.18.04-.77.05-1.16.01-.44.01-1.05.01-1.67h-1.12c-.35.01-.85.02-1.19.04-.1-.36-.15-1.21-.12-1.56.36.02.71.04,1.14.05h1.3c0-.54-.01-.97-.01-1.21,0-.4-.03-.85-.06-1.2.44,0,1.27.01,1.69.07,0,.28-.01,1.22-.01,2.34l2.87-.02c0-.52-.01-1.02-.03-1.35-.01-.29-.02-.8-.07-1.2.47-.01,1.32.02,1.76.07-.01.59-.03,1.52-.03,2.45h1.14Z"/>
          <path class="cls-4" d="M127.38,474.41c2.8,0,6.86-.05,8.3-.08.08.39.09,1.4.06,1.82-1.89-.07-8.56.02-10.25.01-.08-.42-.14-1.35-.12-1.85.41.04,1.34.09,2.01.09Z"/>
          <path class="cls-4" d="M140.65,471.88c.61.1,1.36.34,1.79.54-.2,1.04-.64,2.54-1.12,3.7-.6,1.45-1.21,2.57-1.9,3.39-.58-.17-1.34-.52-1.75-.89,1.02-1.01,1.56-2.06,2.04-3.14.41-.92.84-2.44.95-3.6ZM144.61,472.56c.4-.23,1.14-.55,1.56-.67.55.82,1.07,1.75,1.62,3,.7,1.56,1.03,2.59,1.3,3.69-.34.29-1.2.61-1.82.72-.17-1.09-.53-2.46-1.1-3.82-.49-1.12-1.04-2.2-1.56-2.91ZM148.3,472.23c-.16.12-.5.27-.76.34-.18-.46-.51-1.22-.8-1.66.25-.14.54-.26.76-.32.28.38.67,1.25.8,1.65ZM149.64,471.67c-.16.11-.5.26-.76.34-.19-.49-.54-1.21-.8-1.62.25-.14.54-.26.76-.32.26.38.66,1.2.8,1.61Z"/>
          <path class="cls-4" d="M153.5,474.41c2.8,0,6.86-.05,8.3-.08.08.39.09,1.4.06,1.82-1.89-.07-8.56.02-10.25.01-.08-.42-.14-1.35-.12-1.85.41.04,1.34.09,2.01.09Z"/>
          <path class="cls-4" d="M163.9,480.56l11.37-11.37.43.43-11.37,11.37-.42-.42Z"/>
          <path class="cls-4" d="M45.52,492.27c-.36,1.06-1.29,2.95-1.91,3.75-.4-.12-1.09-.45-1.45-.74.75-.87,1.55-2.36,1.92-3.6.41.12,1.11.4,1.44.59ZM48.66,490.6c0,1.4.03,4.79.03,5.75,0,.74-.42,1.17-1.31,1.17-.6,0-1.47-.07-2.09-.17-.11-.32-.22-1.32-.22-1.65.54.16,1.22.26,1.59.26.31,0,.46-.09.47-.45,0-.49-.02-3.66-.02-4.89-1.41.01-2.67.02-3.02.02s-.85.01-1.19.01c-.06-.36-.12-1.21-.12-1.56.38.02.73.02,1.15.04.32.01,1.69,0,3.19-.01,0-.81-.01-1.75-.08-2.05.41-.03,1.29.01,1.71.06-.01.39-.05,1.15-.06,1.97,1.42-.01,2.69-.04,2.96-.04s.88-.01,1.16-.03c.03.36.06,1.19.06,1.54-.35-.01-.74-.01-1.09-.01-.38,0-1.67.01-3.11.02ZM51.37,491.68c.55.71,1.61,2.67,1.92,3.75-.33.22-1,.5-1.52.64-.36-1.37-1.09-2.79-1.77-3.76.35-.2.99-.5,1.37-.62ZM51.21,488.78c-.16-.46-.39-.97-.66-1.42.25-.12.54-.24.76-.3.26.39.55,1.01.67,1.41-.16.12-.5.25-.77.31ZM52.61,488.47c-.16-.46-.4-.97-.66-1.41.25-.14.54-.25.76-.31.25.39.55,1.01.67,1.41-.16.11-.5.25-.78.31Z"/>
          <path class="cls-4" d="M65.67,490.51c.06.44.08,1.16.05,1.56-.35,0-.72-.01-1.09-.01s-1.6.01-3.02.03c-.02,1.45-.2,2.46-.86,3.42-.59.86-1.7,1.75-2.94,2.17-.47-.25-1.12-.9-1.39-1.26.88-.24,2.03-.74,2.67-1.5.71-.81.8-1.66.81-2.81-1.5.01-2.85.02-3.21.02-.34,0-.84.01-1.19.03-.06-.38-.14-1.17-.12-1.59.38.02.73.02,1.15.04.74.02,7.32-.05,7.96-.06.29,0,.88-.03,1.17-.04ZM56.9,489.03c-.06-.36-.14-1.1-.11-1.56.41.02.62.04,1.06.05.78.03,4.19-.04,4.82-.06.42-.01.75-.05,1.05-.07.06.38.1,1.12.08,1.57-.53-.01-4.94.02-5.77.05-.2,0-.79.01-1.12.02ZM64.5,490.01c-.14-.47-.39-1.12-.65-1.59.26-.11.56-.23.79-.29.24.41.54,1.19.65,1.57-.16.11-.5.25-.79.3ZM66.62,489.25c-.16.11-.5.23-.79.29-.15-.5-.4-1.11-.65-1.54.26-.12.56-.24.79-.29.25.39.55,1.11.65,1.54Z"/>
          <path class="cls-4" d="M73.4,496.62c0,.31.01.81.02,1.09-.31.04-1.31.04-1.67,0,0-.12.04-.59.05-1.07.02-.84.04-1.81.01-3.14-.87.47-1.85.89-2.6,1.14-.35-.29-.86-.91-1.08-1.35,1.17-.23,2.56-.74,3.62-1.44,1.09-.7,2-1.57,2.54-2.45.36.3.81.8,1.05,1.17-.44.57-1.11,1.25-1.95,1.89v4.16Z"/>
          <path class="cls-4" d="M87.44,494.02c-.21.45-.7,1.14-1.11,1.51-.66-.7-1.34-1.29-2.36-2.05-1.12,1.6-2.91,3.16-4.54,3.96-.49-.27-1.07-.82-1.45-1.34,1.95-.72,3.56-2.14,4.65-3.57-.94-.62-1.99-1.21-2.99-1.67.29-.45.7-.99,1.02-1.31.69.35,1.91,1.04,2.85,1.6.74-1.37,1.21-2.86,1.4-4.05.65.15,1.38.51,1.69.74-.31,1.15-.88,2.67-1.72,4.2.94.65,1.9,1.37,2.56,1.99Z"/>
          <path class="cls-4" d="M96.47,490.66c-.01,3.62-.01,5.47-.01,5.47,0,.43.04,1.07.05,1.45-.44.06-1.4.06-1.94,0,.04-.32.06-.79.09-1.42.04-1.14.05-2.5.02-4.34-1.19.67-2.51,1.27-3.56,1.62-.4-.32-1-1.09-1.21-1.52,1.54-.29,3.27-1.01,4.55-1.82,1.35-.86,2.72-2.19,3.35-3.22.41.31.99.94,1.21,1.35-.58.72-1.44,1.6-2.55,2.44Z"/>
          <path class="cls-4" d="M109.2,488.7c.49-.01.62-.05.86-.09.33.19.7.54.9.77-.33,1.21-.92,2.96-2.24,4.62-1.3,1.67-3.36,2.99-5.2,3.57-.51-.29-1.14-.91-1.44-1.42,1.65-.34,3.51-1.19,4.89-2.64,1.16-1.2,1.72-2.56,1.91-3.42l-3.27.05c-.86,1.09-1.86,2.05-2.79,2.62-.49-.2-1.16-.74-1.41-1.12,2.06-1.07,3.79-3.32,4.32-5.17.59.14,1.15.44,1.59.77-.19.49-.44.99-.74,1.49,2.22-.01,2.61-.05,2.61-.05h0Z"/>
          <path class="cls-4" d="M120.64,489.97c-.77-.01-5.37.02-6.69.06-.14-.5-.19-1.36-.15-1.71.42.03.97.06,1.37.06.83.01,6.25.03,7.25-.06-.06,1.32-.14,7.47-.06,8.72-.5.04-1.21.04-1.79,0v-.76s-5.24,0-5.24,0c-.58,0-1.08.02-1.58.04-.1-.45-.17-1.32-.14-1.75,1.21.06,4.95.05,6.97.05l.04-4.65Z"/>
          <path class="cls-4" d="M128,491.41c2.8,0,6.86-.05,8.3-.08.08.39.09,1.4.06,1.82-1.89-.07-8.56.02-10.25.01-.08-.42-.14-1.35-.12-1.85.41.04,1.34.09,2.01.09Z"/>
          <path class="cls-4" d="M148.84,496.01c-.24.41-.8,1.02-1.28,1.29-.76-1.02-1.82-2.32-3.15-3.47-1.42,1.5-3.16,2.74-4.72,3.4-.35-.27-1.01-1.01-1.27-1.45,2.2-.74,3.95-2.12,5.11-3.37.96-1.01,1.51-1.94,1.91-2.89-1.3.01-4.77.1-5.69.14-.09-.41-.17-1.14-.2-1.64.39.04.85.06,1.26.06.59,0,4.51-.06,5.26-.1.3-.01.6-.05.8-.07.35.22.67.55.89.86-.44,1.04-1.32,2.56-2.3,3.84,1.24.99,2.7,2.54,3.38,3.41Z"/>
        </g>
        <g>
          <path class="cls-4" d="M142.23,454.27v3.62c.85,1.31,2.41,1.31,4.5,1.31,1.2,0,2.61-.02,3.47-.08-.09.17-.2.51-.24.73-.75.02-1.94.04-3.04.04-2.41,0-3.92,0-5-1.38-.58.51-1.19.99-1.68,1.36,0,.1-.02.14-.1.18l-.42-.79c.54-.35,1.21-.84,1.8-1.32v-2.97h-1.66v-.7h2.38ZM140.57,450.12c.71.51,1.54,1.27,1.89,1.83l-.55.51c-.35-.56-1.16-1.35-1.87-1.88l.53-.45ZM146.76,452.66c-.69-.34-1.54-.72-2.25-.98l.48-.43c.48.18,1.04.4,1.58.64.58-.26,1.2-.61,1.67-.95h-4.82v-.6h5.58l.12-.03.56.36s-.11.08-.18.09c-.56.48-1.41,1.03-2.26,1.44.34.15.65.32.9.46h1.42v5.01c0,.73-.23.8-1.87.8-.03-.2-.12-.45-.21-.63.32.01.63.02.85.02.47,0,.53,0,.53-.2v-1.12h-2.07v1.86h-.67v-1.86h-1.99v1.9h-.7v-5.79h3.32ZM146.13,453.25h-1.99v1.04h1.99v-1.04ZM144.14,455.96h1.99v-1.09h-1.99v1.09ZM148.87,454.3v-1.04h-2.07v1.04h2.07ZM146.8,455.96h2.07v-1.09h-2.07v1.09Z"/>
          <path class="cls-4" d="M160.46,450.31c-.06.08-.14.1-.23.09-.23.33-.59.81-.9,1.17h1.98v2.29h-.73v-1.62h-7.84v1.62h-.7v-2.29h1.8c-.2-.39-.56-.92-.88-1.31l.64-.27c.4.43.8,1,1,1.39l-.42.2h2.04v-1.71l.96.07c-.01.08-.07.13-.21.15v1.49h1.99l-.33-.15c.32-.4.75-1.03.97-1.46l.87.36ZM160.58,456.47v2.3c0,.83-.41.83-2.2.83-.03-.2-.15-.45-.25-.65.42.01.8.02,1.08.02.56,0,.65,0,.65-.2v-1.62h-2.89v2.95h-.75v-2.95h-2.73v2.46h-.71v-3.15h3.44v-.92h-2.45v-2.44h5.84v2.44h-2.51s-.08.03-.13.04v.88h3.62ZM154.46,453.68v1.29h4.42v-1.29h-4.42Z"/>
          <path class="cls-4" d="M169.38,459.15h-.87v-2.29h-1.87v-.53h1.87v-1.01h-1.87v-.54h1.62l-2.04-3.87h.98l1.31,2.73c.2.44.34.78.48,1.14h.03c.11-.34.28-.74.48-1.17l1.35-2.71h.96l-2.17,3.87h1.62v.54h-1.89v1.01h1.89v.53h-1.89v2.29Z"/>
          <path class="cls-4" d="M175.57,459.15v-7.38h-.02l-1.35.78-.22-.68,1.71-.96h.78v8.24h-.89Z"/>
          <path class="cls-4" d="M181.46,457.71c-.28,1.01-.81,2.4-1.11,2.92l-.67.08c.25-.67.58-2,.71-2.87l1.07-.12Z"/>
          <path class="cls-4" d="M182.96,455.06c0-2.88,1.12-4.28,2.66-4.28s2.52,1.47,2.52,4.17c0,2.86-1,4.33-2.64,4.33-1.5,0-2.54-1.47-2.54-4.22ZM187.21,454.99c0-2.06-.5-3.48-1.65-3.48-.98,0-1.67,1.31-1.67,3.48s.61,3.54,1.64,3.54c1.22,0,1.68-1.58,1.68-3.54Z"/>
          <path class="cls-4" d="M191.3,454.78c-.89-.43-1.29-1.16-1.29-1.86,0-1.28,1-2.15,2.33-2.15,1.5,0,2.21,1.01,2.21,2,0,.7-.37,1.47-1.35,1.95v.04c1.01.43,1.64,1.17,1.64,2.16,0,1.4-1.14,2.35-2.6,2.35-1.57,0-2.54-1-2.54-2.19,0-1.07.64-1.84,1.6-2.27v-.04ZM193.91,457.03c0-1.03-.69-1.56-1.78-1.91-.97.32-1.49,1.02-1.49,1.84,0,.94.63,1.65,1.62,1.65,1.06,0,1.65-.72,1.65-1.57ZM190.89,452.84c-.01.88.62,1.36,1.53,1.64.71-.27,1.25-.84,1.25-1.62,0-.69-.38-1.41-1.35-1.41s-1.43.67-1.43,1.39Z"/>
          <path class="cls-4" d="M196.4,455.06c0-2.88,1.12-4.28,2.66-4.28s2.52,1.47,2.52,4.17c0,2.86-1,4.33-2.64,4.33-1.5,0-2.54-1.47-2.54-4.22ZM200.65,454.99c0-2.06-.5-3.48-1.65-3.48-.98,0-1.67,1.31-1.67,3.48s.61,3.54,1.64,3.54c1.22,0,1.68-1.58,1.68-3.54Z"/>
          <path class="cls-4" d="M203.39,459.65h-.74l3.49-9.01h.76l-3.51,9.01Z"/>
          <path class="cls-4" d="M216.23,450.46v8.54c0,.57-.15.83-.56.96-.41.13-1.14.14-2.34.13-.05-.21-.2-.56-.32-.78.53.02,1.03.03,1.43.03.96,0,1.02,0,1.02-.34v-2.45h-5.45c-.29,1.29-.86,2.59-2.02,3.56-.11-.16-.38-.44-.55-.55,1.89-1.61,2.08-3.88,2.08-5.71v-3.39h6.71ZM210.27,453.85c0,.56-.02,1.25-.12,1.98h5.31v-1.98h-5.19ZM215.46,451.19h-5.19v1.96h5.19v-1.96Z"/>
        </g>
        <g>
          <path class="cls-4" d="M158.27,491.82v3.62c.85,1.31,2.41,1.31,4.5,1.31,1.2,0,2.61-.02,3.47-.08-.09.17-.2.51-.24.73-.75.02-1.94.04-3.04.04-2.41,0-3.92,0-5-1.38-.58.51-1.19.99-1.68,1.36,0,.1-.02.14-.1.18l-.42-.79c.54-.35,1.21-.84,1.8-1.32v-2.97h-1.66v-.7h2.38ZM156.61,487.68c.71.51,1.54,1.27,1.89,1.83l-.55.51c-.35-.56-1.16-1.35-1.87-1.88l.53-.45ZM162.79,490.22c-.69-.34-1.54-.72-2.25-.98l.48-.43c.48.18,1.04.4,1.58.64.58-.26,1.2-.61,1.67-.95h-4.82v-.6h5.58l.12-.03.56.36s-.11.08-.18.09c-.56.48-1.41,1.03-2.26,1.44.34.15.65.32.9.46h1.42v5.01c0,.73-.23.8-1.87.8-.03-.2-.12-.45-.21-.63.32.01.63.02.85.02.47,0,.53,0,.53-.2v-1.12h-2.07v1.86h-.67v-1.86h-1.99v1.9h-.7v-5.79h3.32ZM162.17,490.81h-1.99v1.04h1.99v-1.04ZM160.17,493.52h1.99v-1.09h-1.99v1.09ZM164.9,491.86v-1.04h-2.07v1.04h2.07ZM162.84,493.52h2.07v-1.09h-2.07v1.09Z"/>
          <path class="cls-4" d="M176.5,487.86c-.06.08-.14.1-.23.09-.23.33-.59.81-.9,1.17h1.98v2.29h-.73v-1.62h-7.84v1.62h-.7v-2.29h1.8c-.2-.39-.56-.92-.88-1.31l.64-.27c.4.43.8,1,1,1.39l-.42.2h2.04v-1.71l.96.07c-.01.08-.07.13-.21.15v1.49h1.99l-.33-.15c.32-.4.75-1.03.97-1.46l.87.36ZM176.62,494.02v2.3c0,.83-.41.83-2.2.83-.03-.2-.15-.45-.25-.65.42.01.8.02,1.08.02.56,0,.65,0,.65-.2v-1.62h-2.89v2.95h-.75v-2.95h-2.73v2.46h-.71v-3.15h3.44v-.92h-2.45v-2.44h5.84v2.44h-2.51s-.08.03-.13.04v.88h3.62ZM170.49,491.24v1.29h4.42v-1.29h-4.42Z"/>
          <path class="cls-4" d="M185.42,496.71h-.87v-2.29h-1.87v-.53h1.87v-1.01h-1.87v-.54h1.62l-2.04-3.87h.98l1.31,2.73c.2.44.34.78.48,1.14h.03c.11-.34.28-.74.48-1.17l1.35-2.71h.96l-2.17,3.87h1.62v.54h-1.89v1.01h1.89v.53h-1.89v2.29Z"/>
          <path class="cls-4" d="M194.16,496.71h-4.87v-.56l.8-.85c1.96-1.98,2.95-3.18,2.95-4.52,0-.88-.39-1.69-1.57-1.69-.66,0-1.25.36-1.65.68l-.31-.64c.51-.45,1.25-.8,2.13-.8,1.66,0,2.32,1.21,2.32,2.34,0,1.55-1.09,2.87-2.79,4.59l-.65.68v.02h3.64v.75Z"/>
          <path class="cls-4" d="M197.5,495.27c-.28,1.01-.81,2.4-1.11,2.92l-.67.08c.25-.67.58-2,.71-2.87l1.07-.12Z"/>
          <path class="cls-4" d="M199.25,488.47h4.83v.58l-3.44,7.66h-.93l3.44-7.46v-.02h-3.89v-.76Z"/>
          <path class="cls-4" d="M210.39,488.47v.76h-2.96l-.34,2.33c.18-.02.35-.04.64-.04,1.46,0,2.77.87,2.77,2.53s-1.21,2.79-2.84,2.79c-.83,0-1.52-.24-1.89-.48l.26-.71c.31.21.91.46,1.63.46,1.03,0,1.92-.76,1.91-1.95,0-1.13-.73-1.93-2.27-1.93-.44,0-.78.03-1.06.08l.52-3.84h3.62Z"/>
          <path class="cls-4" d="M212.43,492.62c0-2.88,1.12-4.28,2.66-4.28s2.52,1.47,2.52,4.17c0,2.86-1,4.33-2.64,4.33-1.5,0-2.54-1.47-2.54-4.22ZM216.69,492.55c0-2.06-.5-3.48-1.65-3.48-.98,0-1.67,1.31-1.67,3.48s.61,3.54,1.64,3.54c1.22,0,1.68-1.58,1.68-3.54Z"/>
          <path class="cls-4" d="M219.43,497.2h-.74l3.49-9.01h.76l-3.51,9.01Z"/>
          <path class="cls-4" d="M232.27,488.02v8.54c0,.57-.15.83-.56.96-.41.13-1.14.14-2.34.13-.05-.21-.2-.56-.32-.78.53.02,1.03.03,1.43.03.96,0,1.02,0,1.02-.34v-2.45h-5.45c-.29,1.29-.86,2.59-2.02,3.56-.11-.16-.38-.44-.55-.55,1.89-1.61,2.08-3.88,2.08-5.71v-3.39h6.71ZM226.3,491.41c0,.56-.02,1.25-.12,1.98h5.31v-1.98h-5.19ZM231.5,488.74h-5.19v1.96h5.19v-1.96Z"/>
        </g>
      </g>
      <g>
        <g>
          <path class="cls-5" d="M13.97,43.49h-6.06v1.38h5.33v8.26c0,1.39-.59,1.54-3.38,1.54-.08-.38-.3-.9-.48-1.23.5.01,1.04.03,1.44.03.87,0,.96,0,.96-.34v-6.96H2.69v8.47h-1.42v-9.78h5.16v-1.38H.45v-1.33h5.97v-1.56l1.85.1c-.02.14-.11.21-.36.25v1.2h6.06v1.33ZM10.98,51.91h-3.15v2.68h-1.35v-2.68h-3v-1.17h3v-1.35h-2.79v-1.12h1.39c-.15-.47-.43-1.08-.69-1.55l1.12-.28c.34.51.66,1.22.79,1.68l-.51.15h2.59c-.15-.05-.29-.11-.41-.14.27-.51.6-1.25.75-1.77l1.5.42c-.04.09-.17.15-.34.15-.2.39-.48.9-.77,1.33h1.7v1.12h-3v1.35h3.15v1.17Z"/>
          <path class="cls-5" d="M17.02,50.95v-1.35l4.7-7.44h1.07v1.98h-.68l-3.35,5.3v.09h6.46v1.42h-8.2ZM22.19,53.07v-2.53l.02-.62v-7.76h1.59v10.91h-1.6Z"/>
          <path class="cls-5" d="M41.66,43.1h-7.09c-.08.06-.18.09-.33.09-.39,1.15-.93,2.37-1.61,3.54h8.13v7.87h-1.51v-.89h-6.76v.93h-1.44v-5.58c-.66.82-1.39,1.56-2.22,2.19-.22-.33-.72-.87-1.02-1.12,2.29-1.65,3.95-4.45,4.83-7.03h-4.21v-1.41h13.25v1.41ZM39.25,52.34v-4.24h-6.76v4.24h6.76Z"/>
          <path class="cls-5" d="M56.17,44.21l1.83.12c-.02.12-.11.21-.36.24v9.84h-1.47v-1.09h-9.24v1.14h-1.46v-10.21l1.82.1c-.01.14-.12.21-.36.24v7.27h3.79v-10.9l1.86.11c-.02.14-.12.21-.38.25v10.54h3.96v-7.65Z"/>
          <path class="cls-5" d="M64.49,46.54v4.89c1,1.65,3,1.65,5.64,1.65,1.72,0,3.78-.04,5.12-.15-.17.33-.39.99-.47,1.39-1.11.05-2.8.07-4.36.07-3.27,0-5.12,0-6.54-1.78-.73.63-1.5,1.25-2.13,1.73,0,.15-.04.22-.18.28l-.72-1.51c.69-.42,1.54-1.02,2.28-1.59v-3.66h-2.1v-1.32h3.46ZM62.26,40.93c.96.66,2.1,1.66,2.62,2.4l-1.06,1.02c-.48-.75-1.59-1.81-2.55-2.52l.99-.9ZM67.28,49.82v2.42h-1.33v-7.84h3.93c-.81-.39-1.74-.79-2.52-1.09l.91-.77c.6.21,1.31.48,1.98.78.58-.3,1.18-.66,1.68-1.03h-5.92v-1.11h7.3l.21-.08,1.05.68c-.06.09-.17.14-.28.15-.72.63-1.75,1.36-2.81,1.94.39.2.75.38,1.04.54h1.89v6.52c0,1.23-.51,1.36-2.61,1.36-.04-.36-.21-.82-.38-1.16.38.02.72.03.99.03.58,0,.64,0,.64-.25v-1.08h-2.28v2.35h-1.29v-2.35h-2.21ZM69.49,45.46h-2.21v1.11h2.21v-1.11ZM67.28,48.76h2.21v-1.16h-2.21v1.16ZM73.06,46.57v-1.11h-2.28v1.11h2.28ZM70.78,48.76h2.28v-1.16h-2.28v1.16Z"/>
          <path class="cls-5" d="M82.52,47.62c0,.96-.78,1.74-1.74,1.74s-1.74-.78-1.74-1.74.78-1.74,1.74-1.74,1.74.81,1.74,1.74Z"/>
          <path class="cls-5" d="M100.31,43.49h-6.06v1.38h5.33v8.26c0,1.39-.59,1.54-3.38,1.54-.08-.38-.3-.9-.48-1.23.5.01,1.04.03,1.44.03.87,0,.96,0,.96-.34v-6.96h-9.09v8.47h-1.42v-9.78h5.16v-1.38h-5.97v-1.33h5.97v-1.56l1.85.1c-.02.14-.11.21-.36.25v1.2h6.06v1.33ZM97.33,51.91h-3.15v2.68h-1.35v-2.68h-3v-1.17h3v-1.35h-2.79v-1.12h1.39c-.15-.47-.43-1.08-.69-1.55l1.12-.28c.34.51.66,1.22.79,1.68l-.51.15h2.59c-.15-.05-.29-.11-.41-.14.27-.51.6-1.25.75-1.77l1.5.42c-.04.09-.17.15-.34.15-.2.39-.48.9-.77,1.33h1.7v1.12h-3v1.35h3.15v1.17Z"/>
          <path class="cls-5" d="M116.29,41.26l.82.29c-.01.09-.06.15-.12.19-.36,1.32-.85,3-1.41,4.72,1.33,1.98,1.48,2.95,1.48,3.73,0,2.31-1.2,2.43-2.26,2.43-.13,0-.27,0-.41-.02,0-.36-.17-.93-.4-1.29.28.01.55.03.76.03.62,0,1,0,1-1.3,0-.89-.41-1.86-1.47-3.39.43-1.49.81-2.88,1.08-4.09h-1.56v12.06h-1.26v-1.12l-1.14.44c-.06-.42-.17-.92-.33-1.46-1.25.48-2.49.96-3.33,1.26-.01.14-.09.23-.2.26l-.54-1.46.86-.24v-4.92h-.03c-.52,3.28-1.72,5.8-4.11,7.15-.15-.27-.5-.76-.74-1,1.42-.76,2.38-2.04,2.99-3.72l-2.55.42c-.02.12-.12.2-.23.21l-.43-1.47.79-.09c.45-.63.93-1.41,1.38-2.22-.53-.71-1.33-1.51-2.04-2.11l.62-1.06c.15.12.31.24.46.38.51-.99,1.04-2.28,1.35-3.24l1.47.56c-.04.1-.18.15-.36.15-.41.96-1.07,2.31-1.65,3.27.3.29.57.58.79.85.33-.63.62-1.23.84-1.77l1.4.57c-.06.1-.2.15-.39.17-.63,1.27-1.62,2.98-2.52,4.32l1.42-.18c.14-.51.23-1.06.3-1.64l1.23.21v-5.79h3.94v6.64h-2.71v3.94l1.65-.52c-.24-.71-.53-1.41-.83-2.04l1.12-.39c.65,1.26,1.25,2.83,1.5,4.02v-11.67h3.46l.27-.06ZM110.63,42.55h-1.53v1.51h1.53v-1.51ZM109.1,46.76h1.53v-1.54h-1.53v1.54Z"/>
          <path class="cls-5" d="M120.44,53.07l4.75-9.4v-.09h-5.49v-1.43h7.24v1.49l-4.75,9.43h-1.75Z"/>
          <path class="cls-5" d="M143.3,41.89v1.45h-5.89v9.43c0,1.73-.75,1.88-4.23,1.88-.09-.44-.39-1.09-.62-1.5.79.03,1.58.05,2.13.05,1.05,0,1.2,0,1.2-.45v-9.4h-5.99v-1.45h13.39Z"/>
          <path class="cls-5" d="M147.61,41.6h10.37v13.03h-1.5v-.99h-7.42v.99h-1.44v-13.03ZM156.48,43h-7.42v2.16h7.42v-2.16ZM156.48,46.51h-7.42v2.21h7.42v-2.21ZM149.05,52.25h7.42v-2.2h-7.42v2.2Z"/>
          <path class="cls-5" d="M166.99,47.62c0,.96-.78,1.74-1.74,1.74s-1.74-.78-1.74-1.74.78-1.74,1.74-1.74,1.74.81,1.74,1.74Z"/>
          <path class="cls-5" d="M184.75,50.99h-4.71c1.3,1.02,3.24,1.86,5.04,2.28-.31.28-.72.82-.92,1.17-1.95-.57-4.03-1.7-5.47-3.03v3.23h-1.44v-3.21c-1.42,1.35-3.51,2.47-5.42,3.07-.21-.34-.62-.87-.9-1.14,1.75-.46,3.66-1.33,4.96-2.37h-4.62v-1.2h5.97v-1.08l.85.04c-.12-.2-.27-.38-.4-.51.75-.12,1.48-.3,2.17-.55-.48-.15-.96-.3-1.44-.44l.65-.82c.72.18,1.45.41,2.16.65.45-.25.84-.54,1.17-.85h-4.27v-1.02h5.26l.21-.04.87.39c-.01.08-.09.14-.13.18-.42.73-1.02,1.33-1.75,1.83.84.33,1.59.66,2.16.97l-.84.9c-.64-.39-1.53-.81-2.53-1.2-.83.39-1.74.67-2.69.88v.68h6.06v1.2ZM177.66,45.52c-.03.09-.09.13-.15.16-.39.75-.95,1.4-1.63,1.94.5.22.94.45,1.3.67l-.81.89c-.42-.27-.95-.57-1.56-.85-.92.53-1.95.92-3.01,1.19-.13-.28-.44-.74-.65-.98.81-.16,1.64-.42,2.37-.76-.54-.21-1.09-.41-1.65-.57l.63-.82c.73.21,1.48.47,2.21.75.39-.27.75-.57,1.05-.9h-4.14v-1.02h5.02l.21-.04.81.36ZM182.67,41.54c-.03.06-.13.1-.19.14-.63.7-1.49,1.27-2.49,1.75,1.02.28,1.92.58,2.64.88l-.9.85c-.86-.38-2-.76-3.29-1.12-1.6.54-3.42.9-5.16,1.11-.1-.3-.36-.73-.57-.99,1.25-.12,2.54-.33,3.75-.61-.86-.21-1.74-.39-2.62-.54l.72-.81c1.26.21,2.55.48,3.76.78.69-.26,1.31-.54,1.83-.87h-6.85v-1.05h8.2l.23-.05c.06.05.08.05.09.05l.85.48Z"/>
          <path class="cls-5" d="M188.11,41.23h12.78v13.42h-1.4v-.6h-10.05v.6h-1.33v-13.42ZM189.45,52.76h10.05v-10.24h-10.05v10.24ZM197.91,48.8l1.04.69c-.08.09-.21.1-.33.09-.41.27-1,.66-1.56.97.66.35,1.41.63,2.13.81-.25.23-.58.65-.75.93-1.29-.41-2.59-1.17-3.55-2.08v2.16h-1.26v-1.93c-.94.6-2.04,1.11-3.07,1.48-.15-.24-.5-.66-.72-.87,1.33-.41,2.79-1.08,3.82-1.91h-2.43v-2.5h6.46v2.35l.22-.2ZM198.82,45.19v.85h-8.71v-.85h3.69v-.78h-2.83v-.84h2.83v-.81l1.63.1c-.01.12-.11.2-.34.24v.47h2.92v.84h-2.92v.78h3.73ZM192.42,47.39v1.01h4.02v-1.01h-4.02ZM195.28,49.15l-.06.06c.27.3.62.58,1,.85.42-.27.9-.61,1.28-.92h-2.22Z"/>
          <path class="cls-5" d="M208.99,47.62c0,.96-.78,1.74-1.74,1.74s-1.74-.78-1.74-1.74.78-1.74,1.74-1.74,1.74.81,1.74,1.74Z"/>
          <path class="cls-5" d="M213.67,44.78c1,.33,2.31.93,2.97,1.43l-.76,1.2c-.63-.5-1.92-1.16-2.94-1.54l.74-1.08ZM213.54,53.5c.83-1.15,2-3.1,2.88-4.84l1.05.94c-.79,1.57-1.79,3.33-2.55,4.51.06.07.08.15.08.23,0,.09-.03.17-.08.22l-1.38-1.06ZM214.65,40.69c1,.38,2.28,1.05,2.91,1.59l-.84,1.16c-.6-.54-1.83-1.26-2.83-1.7l.76-1.05ZM222.76,52.34h4.25v1.38h-9.97v-1.38h4.24v-8.74h-3.27v-1.38h8.49v1.38h-3.73v8.74Z"/>
          <path class="cls-5" d="M235.44,47.98h.3s.74.06.74.06c-.01.12-.03.27-.03.41-.15,3.78-.31,5.17-.73,5.65-.42.51-.84.52-1.83.52-.33,0-.69,0-1.07-.01-.03-.38-.18-.9-.38-1.25.69.07,1.35.07,1.62.07.24,0,.39-.03.53-.16.24-.29.39-1.33.51-4.03h-2.14c-.35,1.96-1.02,4-2.54,5.38-.21-.33-.63-.75-.98-.97,1.95-1.73,2.33-4.83,2.49-7.26h-1.62v-5.08h6.11v5.08h-3.11c-.04.49-.09,1.03-.17,1.59h2.29ZM231.6,42.56v2.56h3.43v-2.56h-3.43ZM239.5,42.53c-.02.12-.11.21-.35.24v8.11h-1.38v-8.46l1.73.1ZM241.44,40.9l1.75.09c-.01.14-.09.23-.34.26v11.59c0,1.64-.67,1.84-3.62,1.81-.08-.39-.3-1.05-.51-1.45.62.03,1.21.03,1.67.03.94,0,1.05,0,1.05-.39v-11.94Z"/>
          <path class="cls-5" d="M259.39,46.25l.76.04-.04.24c-.32,1.22-.78,2.69-1.23,3.61-1.04-.23-1.1-.26-1.16-.29.24-.57.51-1.42.74-2.26h-1.46v5.41c0,1.47-.71,1.62-3.11,1.62-.04-.41-.25-1.01-.43-1.41.46.02.93.03,1.29.03.78,0,.82,0,.82-.27v-5.38h-2.43v.09h-2.7v1.41h2.71v1.29h-2.71v1.81c.97-.12,1.98-.24,2.97-.38l.03,1.18c-2.5.42-5.16.82-6.82,1.06-.03.15-.15.21-.25.24l-.41-1.59c.84-.09,1.91-.21,3.11-.36v-1.98h-2.6v-1.29h2.6v-1.41h-2.62v-6.36h6.7v4.92h3.96c-.87-.72-2.08-1.51-3.15-2.05l.92-.92c.49.24,1.02.53,1.51.84.46-.44.92-.98,1.29-1.5h-4.14v-1.27h5.2l.25-.07,1.07.63c-.04.07-.15.15-.27.18-.57.85-1.45,1.92-2.38,2.71.48.35.9.68,1.21.96l-.45.5h1.21ZM247.63,42.49v1.47h1.53v-1.47h-1.53ZM247.63,45.04v1.48h1.53v-1.48h-1.53ZM251.92,43.96v-1.47h-1.56v1.47h1.56ZM251.92,46.52v-1.48h-1.56v1.48h1.56Z"/>
          <path class="cls-5" d="M268.03,43.43v6.58c0,1.05-.34,1.33-1.5,1.33-.03-.34-.18-.87-.36-1.2h.69c.11,0,.14-.03.14-.17v-5.28h-.98v9.93h-1.21v-9.93h-.92v6.79h-1.06v-8.07h1.98v-2.83l1.54.1c-.01.12-.1.2-.33.23v2.5h2.01ZM274.18,52.91c0,.38,0,.47.36.47h.53c.54,0,.57,0,.62-1.59.24.21.69.45,1.02.56-.08,1.48-.1,2.19-1.58,2.19h-.94c-1.37,0-1.37-.91-1.37-1.69v-2.44h-1.25c-.22,2.07-.82,3.51-3.49,4.29-.12-.31-.47-.81-.72-1.06,2.15-.54,2.73-1.51,2.92-3.22h-2.01v-1.22h3.34v-3.12l1.71.09c-.01.14-.12.21-.34.25v2.77h3.54v1.22h-2.34v2.52ZM275.98,40.91v5.14h-7.21v-5.14h7.21ZM269.83,48.98c-.15-.58-.58-1.53-.99-2.22l1.09-.39c.44.68.9,1.57,1.07,2.16l-1.17.45ZM274.66,42.98v-1.01h-4.62v1.01h4.62ZM274.66,44.99v-1.02h-4.62v1.02h4.62ZM276.16,46.9c-.04.09-.17.14-.34.12-.33.58-.85,1.44-1.28,1.99l-.99-.43c.4-.6.9-1.57,1.15-2.25l1.46.57Z"/>
          <path class="cls-5" d="M283.99,47.62c0,.96-.78,1.74-1.74,1.74s-1.74-.78-1.74-1.74.78-1.74,1.74-1.74,1.74.81,1.74,1.74Z"/>
          <path class="cls-5" d="M292.12,44.33v-3.46l1.83.1c-.02.12-.12.21-.36.25v13.27h-1.47v-3.3c-1.25.54-2.48,1.05-3.34,1.4,0,.14-.09.24-.2.28l-.72-1.59c1.06-.34,2.67-.93,4.26-1.53v-4h-3.77v-1.42h3.77ZM297.34,51.97c0,.82.1.96.72.96h1.95c.66,0,.75-.65.85-3.14.36.28.96.57,1.37.66-.15,2.83-.53,3.87-2.1,3.87h-2.27c-1.54,0-2.01-.52-2.01-2.38v-11.07l1.84.12c-.01.12-.12.21-.36.24v4.48c1.29-.79,2.58-1.75,3.48-2.55l1.12,1.32c-.06.06-.18.1-.34.08-1.09.84-2.7,1.78-4.26,2.64v4.77Z"/>
          <path class="cls-5" d="M310.51,50.11c-.01.12-.13.21-.36.24-.39,2.1-1.14,3.57-4.89,4.35-.12-.38-.5-.97-.78-1.27,3.33-.55,3.96-1.62,4.21-3.49l1.82.18ZM313.81,52.64c0,.47.11.54.72.54h1.96c.58,0,.69-.27.75-2.1.3.25.93.48,1.32.58-.17,2.29-.55,2.86-1.93,2.86h-2.27c-1.6,0-2.01-.43-2.01-1.87v-3.1h-5.68v-8.44h9.73v8.44h-2.59v3.09ZM308.04,42.29v1.28h6.93v-1.28h-6.93ZM308.04,44.68v1.27h6.93v-1.27h-6.93ZM308.04,47.06v1.3h6.93v-1.3h-6.93Z"/>
          <path class="cls-5" d="M334.87,44.89v1.26h-2.92l.5.15c-.06.1-.18.17-.39.17-.25.48-.65,1.12-1.02,1.65h3.42v1.26h-5.42c-.03.1-.13.17-.34.21v1.35h5.05v1.26h-5.05v2.46h-1.47v-2.46h-4.83v-1.26h4.83v-1.56h-5.67v-1.26h3.29c-.2-.55-.53-1.27-.86-1.83l.48-.14h-3.3v-1.26h6.06v-1.5h-4.48v-1.24h4.48v-1.5l1.83.1c-.02.14-.12.21-.36.26v1.14h4.63v1.24h-4.63v1.5h6.18ZM329.65,48.11l-.08-.03c.33-.54.71-1.29.98-1.93h-5.16c.38.63.75,1.38.9,1.9l-.2.06h3.55Z"/>
          <path class="cls-5" d="M344.64,41.33v10.47h-5.42v1.15h-1.21v-11.62h6.63ZM340.71,42.58h-1.49v3.27h1.49v-3.27ZM339.22,47.09v3.46h1.49v-3.46h-1.49ZM343.39,45.85v-3.27h-1.56v3.27h1.56ZM341.83,50.56h1.56v-3.46h-1.56v3.46ZM351.61,42.34v1.39h-2.05v9.16c0,1.63-.74,1.75-3.71,1.75-.06-.41-.29-1.05-.5-1.43.51.02,1.02.03,1.44.03q1.3,0,1.3-.38v-9.15h-3.2v-1.39h6.71Z"/>
        </g>
        <g>
          <path class="cls-5" d="M94.22,70.25l3.96,3.96,3.96-3.96.35.35-3.96,3.96,3.96,3.96-.35.35-3.96-3.96-3.97,3.97-.35-.35,3.97-3.97-3.96-3.96.35-.35ZM94.76,75.45c-.49,0-.9-.41-.9-.9s.41-.9.9-.9.9.41.9.9c0,.52-.43.9-.9.9ZM97.28,71.13c0-.49.41-.9.9-.9s.9.41.9.9-.41.9-.9.9c-.52,0-.9-.43-.9-.9ZM99.08,77.97c0,.49-.41.9-.9.9s-.9-.41-.9-.9.41-.9.9-.9.9.43.9.9ZM101.6,73.65c.49,0,.9.41.9.9s-.41.9-.9.9-.9-.41-.9-.9.43-.9.9-.9Z"/>
          <path class="cls-5" d="M116.04,69.83v9.19c0,1.04-.46,1.1-2.69,1.1-.05-.23-.19-.59-.31-.82.43.01.84.02,1.18.02.95,0,1.02,0,1.02-.31v-3.91h-8.37v5.04h-.8v-10.31h9.98ZM106.87,70.62v3.68h3.72v-3.68h-3.72ZM111.39,74.3h3.85v-3.68h-3.85v3.68Z"/>
          <path class="cls-5" d="M127.85,71.87l1.07.07c-.01.08-.08.14-.24.17v7.82h-.83v-.97h-7.95v1.02h-.82v-8.1l1.05.07c-.01.08-.07.14-.24.17v6.02h3.49v-8.91l1.08.07c-.01.08-.08.14-.24.17v8.67h3.62v-6.27Z"/>
          <path class="cls-5" d="M135.05,74.55c0,.68-.55,1.24-1.24,1.24s-1.24-.55-1.24-1.24.55-1.24,1.24-1.24,1.24.58,1.24,1.24Z"/>
          <path class="cls-5" d="M146.22,71.75h-.79v-.97h-3.39v.97h-.65c-.1.23-.2.47-.34.72h6.94l.46.04c-.01.07-.02.18-.02.28-.17,4.83-.32,6.42-.71,6.92-.28.35-.56.43-1.32.43-.29,0-.61-.01-.95-.04-.02-.23-.1-.55-.23-.76.59.04,1.13.05,1.35.05.19,0,.31-.04.42-.17.3-.36.47-1.86.61-6.01h-6.96c-.48.83-1.12,1.69-1.92,2.42-.13-.17-.41-.41-.61-.52,1.3-1.12,2.13-2.63,2.54-3.83l.58.08v-.6h-2.79v-.73h2.79v-1.06l1.03.06c-.01.08-.08.14-.24.17v.83h3.39v-1.06l1.03.06c-.01.08-.07.14-.24.17v.83h2.9v.73h-2.9v.97ZM143.49,76.77c.58.29,2.36,1.37,2.78,1.64l-.5.62c-.41-.35-1.52-1.13-2.28-1.62v2.46h-.78v-2.85c-.88,1.09-2.12,2.12-3.2,2.7-.12-.19-.37-.47-.54-.62,1.09-.49,2.38-1.48,3.2-2.48h-2.71v-.72h3.25v-2.28l1.01.07c-.01.08-.07.14-.23.16v2.05h3.21v.72h-3.21v.16ZM141.13,75.82c-.13-.47-.49-1.18-.88-1.68l.66-.2c.4.49.77,1.16.91,1.63l-.7.25ZM146.25,74.19c-.04.07-.12.11-.25.11-.25.44-.68,1.12-1.03,1.55-.12-.05-.43-.19-.56-.24.34-.47.76-1.22.98-1.73l.86.31Z"/>
          <path class="cls-5" d="M155.13,72.15l.58.26s-.07.11-.13.14c-.62,3.02-2.1,5.25-3.89,6.46-.14-.2-.46-.52-.65-.65,1.62-1.01,2.96-2.87,3.57-5.37h-3.25v-.82h3.62l.14-.04ZM157.17,71.22c.26,1,.62,1.95,1.05,2.84,1.01-.85,2.23-2.11,2.97-3.08l.85.64c-.06.07-.17.08-.26.07-.83.91-2.17,2.19-3.21,3.03.96,1.68,2.24,3.03,3.89,3.73-.2.17-.48.49-.62.73-2.18-1.04-3.68-3.18-4.67-5.78v5.55c0,1.09-.5,1.19-2.76,1.19-.05-.24-.2-.65-.34-.88.46.01.88.01,1.21.01,1.01,0,1.04,0,1.04-.32v-9.94l1.08.06c-.01.1-.07.16-.24.17v1.98Z"/>
          <path class="cls-5" d="M167.93,74.55c0,.68-.55,1.24-1.24,1.24s-1.24-.55-1.24-1.24.55-1.24,1.24-1.24,1.24.58,1.24,1.24Z"/>
          <path class="cls-5" d="M182.05,71.1h-5.01v1.32h4.37v6.75c0,.5-.13.74-.5.86-.38.12-1.08.13-2.06.12-.06-.22-.18-.52-.3-.73.41.01.79.02,1.1.02.89,0,.94,0,.94-.28v-6h-7.77v6.96h-.8v-7.71h4.21v-1.32h-4.93v-.77h4.93v-1.34l1.08.07c-.01.08-.08.14-.25.17v1.1h5.01v.77ZM179.8,77.75h-2.78v2.29h-.78v-2.29h-2.66v-.7h2.66v-1.33h-2.46v-.67h1.33c-.11-.4-.38-1-.67-1.43l.65-.18c.31.42.6,1.02.72,1.42l-.61.19h2.71c-.16-.06-.37-.14-.48-.18.25-.41.56-1.06.73-1.49l.88.26c-.04.07-.12.11-.24.11-.19.37-.49.91-.76,1.3h1.63v.67h-2.65v1.33h2.78v.7Z"/>
          <path class="cls-5" d="M195.06,74.98v.8h-5.06v4.34h-.83v-4.34h-4.99v-.8h4.99v-4.37h-4.35v-.8h9.56v.8h-4.38v4.37h5.06ZM186.85,74.31c-.16-.76-.64-1.94-1.15-2.85l.73-.23c.53.89,1.04,2.06,1.19,2.82l-.77.26ZM193.78,71.51c-.04.08-.12.11-.26.12-.35.82-.95,2.03-1.43,2.77l-.7-.28c.47-.77,1.07-2.05,1.38-2.96l1.01.35Z"/>
          <path class="cls-5" d="M207.87,73.7h-9.07v1.63c0,1.42-.18,3.41-1.21,4.75-.13-.16-.46-.42-.65-.52.95-1.26,1.06-2.96,1.06-4.25v-2.35h9.87v.73ZM207.46,69.53c-.01.07-.08.13-.24.16v2.24h-9.15v-2.47l1.06.07c-.01.07-.08.13-.24.16v1.51h3.26v-2.22l1.07.06c-.01.08-.08.14-.24.17v1.99h3.41v-1.74l1.08.07ZM208.04,76.88v.74h-4.1v2.51h-.82v-2.51h-3.89v-.74h3.89v-1.43h-3.26v-.71h7.52v.71h-3.44v1.43h4.1Z"/>
          <path class="cls-5" d="M213.33,75.88c-.4.8-1.24,2.9-1.43,3.67-.19.01-.48,0-.7-.06-.2-.67-.36-2.12-.36-3.59,0-1.85.22-3.68.36-4.71.05-.4.11-1,.13-1.34.29.04.73.12.94.24-.31,1.61-.56,3.45-.6,5.18,0,.95.05,1.8.11,2.24,0,.11.06.12.11.02.16-.42.49-1.37.79-2.12.24.11.48.26.65.47ZM218.56,72.95c0,1.56.08,2.66.13,3.71.97.3,1.74.76,2.23,1.15-.04.25-.17.67-.34.86-.56-.55-1.22-.95-1.87-1.2v.17c0,.8-.3,1.81-1.96,1.81s-2.37-.74-2.37-1.6c0-.78.53-1.52,2.24-1.52.43,0,.84.04,1.24.11-.04-1.02-.12-2.42-.12-3.5v-.18c-1.08.07-2.13.07-2.83.04-.08-.2-.17-.6-.16-.86.86.12,1.97.13,2.99.06.01-.91.02-1.75.02-2.11.28.01.7.06.91.12-.07.6-.1,1.26-.11,1.92.82-.08,1.5-.23,1.88-.37.05.23.04.64-.02.83-.53.14-1.19.25-1.87.32v.25ZM217.89,77.2c-.47-.12-.92-.17-1.3-.17-.95,0-1.44.28-1.44.77,0,.54.58.88,1.39.88,1.12,0,1.34-.47,1.34-1.32v-.16Z"/>
          <path class="cls-5" d="M224.1,73.07c.65.68,1.34,1.48,1.97,2.25.36-.96.62-2.04.8-3.23l1,.19c-.02.1-.11.14-.26.16-.23,1.33-.55,2.53-1,3.59.59.78,1.07,1.52,1.38,2.12l-.65.55c-.25-.53-.65-1.16-1.12-1.85-.68,1.32-1.61,2.36-2.83,3.13-.11-.18-.35-.46-.5-.61,1.25-.73,2.17-1.82,2.83-3.21-.68-.91-1.46-1.85-2.19-2.64l.58-.46ZM228.76,71.06v.76h-5.82v-.76h2.53v-2.06l1.01.06c-.01.08-.07.14-.23.17v1.83h2.51ZM234.05,71.96v.77h-1.48v6.26c0,1.1-.61,1.13-2.49,1.13-.04-.23-.16-.6-.28-.84.4.01.76.01,1.06.01.88,0,.91,0,.91-.29v-6.27h-3.39v-.77h3.39v-2.99l1.04.06c-.02.1-.08.16-.24.17v2.76h1.48ZM229.24,74.07c.59.84,1.18,1.97,1.37,2.7l-.71.36c-.19-.74-.76-1.91-1.33-2.76l.67-.3Z"/>
          <path class="cls-5" d="M242.39,74.19c.23.7.53,1.34.89,1.93.91-.5,2-1.22,2.66-1.78l.76.58c-.05.06-.16.07-.25.06-.72.5-1.88,1.2-2.81,1.66.83,1.14,1.96,1.99,3.37,2.45-.18.16-.4.46-.52.67-2.42-.9-3.99-2.85-4.81-5.51-.37.23-.8.44-1.27.65,1.64,1.03,2.35,2.42,2.35,3.49s-.64,1.76-1.87,1.76c-.29,0-.64,0-1.03-.02-.01-.22-.1-.53-.23-.73.42.04.85.05,1.12.05.29,0,1.25,0,1.25-1.14,0-.3-.08-.64-.24-.98-1.37,1.1-3.47,2.09-5.17,2.58-.11-.18-.32-.47-.48-.62,1.83-.44,4.08-1.46,5.31-2.52-.14-.22-.32-.43-.55-.65-1.1.76-2.79,1.45-4.11,1.79-.11-.18-.32-.44-.48-.6,1.38-.29,3.09-.91,4.14-1.58-.22-.18-.46-.35-.73-.5-1,.38-2.08.71-3.05.94-.08-.16-.28-.43-.41-.58,1.38-.3,3.02-.78,4.25-1.38h-3.14v-2.1c-.24.18-.5.35-.77.5-.12-.18-.36-.43-.55-.55,1.59-.89,2.81-2.11,3.45-3.11l1,.18c-.02.08-.11.14-.25.14-.13.18-.28.36-.43.55h2.81l.13-.05.61.4c-.02.06-.1.08-.16.1-.22.36-.54.78-.88,1.16h3.41v2.77h-3.31ZM238.1,72.06v1.5h2.93v-1.5h-2.93ZM241.34,71.42c.26-.29.54-.64.74-.96h-2.87c-.3.32-.64.65-1.02.96h3.14ZM244.91,73.56v-1.5h-3.09v1.5h3.09Z"/>
          <path class="cls-5" d="M257.45,69.08c-.01.08-.08.14-.24.17v5.33c.88.8,1.86,1.49,2.82,1.92-.19.16-.44.47-.58.68-.76-.38-1.52-.92-2.24-1.56v4.5h-.83v-5.29c-.74-.77-1.42-1.62-1.93-2.51-.74,3.85-2.4,6.4-4.54,7.77-.13-.18-.44-.47-.65-.59,1.27-.77,2.36-1.93,3.17-3.51-.5-.49-1.33-1.1-2.04-1.51l.44-.56c.66.36,1.43.88,1.95,1.33.43-1.04.77-2.24.98-3.6h-2.51c-.48,1.33-1.1,2.52-1.85,3.36-.12-.16-.4-.41-.56-.54,1.08-1.2,1.88-3.3,2.34-5.49l1,.24c-.02.08-.11.13-.25.13-.12.52-.25,1.03-.41,1.54h2.55l.16-.04.52.22s-.07.11-.12.14l-.11.68.4-.16c.38.68.89,1.37,1.46,2v-4.73l1.07.07Z"/>
        </g>
        <g>
          <g id="_キャンペーン_背景" data-name="キャンペーン 背景">
            <rect class="cls-5" x="104.17" width="143.34" height="24.01" rx="11.64" ry="11.64"/>
          </g>
          <g>
            <path class="cls-6" d="M121.71,12.4c1.82-.3,3.59-.59,4.01-.66.13.31.24.77.28,1.14-.49.06-2.22.35-4.09.66.19,1.08.35,1.98.42,2.3.07.32.18.82.28,1.21-.36.11-.92.22-1.38.24-.05-.43-.08-.84-.16-1.22-.05-.31-.2-1.22-.38-2.33-1.87.31-3.63.61-4.17.71-.14-.3-.29-.85-.33-1.22.28-.02.66-.08,1.09-.13.37-.05,1.7-.26,3.21-.5l-.38-2.24c-1.52.24-2.94.48-3.39.55-.14-.35-.28-.89-.32-1.22.36-.02.65-.05,1.06-.08.23-.02,1.25-.19,2.47-.38-.1-.54-.17-.94-.2-1.1-.07-.36-.16-.7-.22-.92.38-.1.97-.18,1.36-.19.02.23.07.55.12.9.02.14.08.55.18,1.12,1.52-.24,3.01-.49,3.36-.56.11.26.22.77.28,1.16-.32.05-1.81.28-3.44.54l.38,2.25Z"/>
            <path class="cls-6" d="M129.86,10.72c-.08-.3-.18-.62-.26-.83.26-.06.89-.17,1.19-.19.04.18.11.53.18.77.08.32.19.72.31,1.18,1.44-.29,3.11-.61,3.5-.71.18-.04.32-.08.48-.14.22.12.55.35.74.54-.44.96-1.39,2.47-2.18,3.2-.34-.06-.89-.3-1.07-.43.73-.53,1.39-1.36,1.77-2.13l-3,.62c.46,1.67.97,3.51,1.08,3.9.04.16.17.56.2.67-.26.12-.84.25-1.18.28-.04-.2-.11-.54-.17-.78-.17-.6-.64-2.36-1.03-3.83-.97.19-1.8.37-2.06.43-.13-.23-.35-.8-.41-1.06.36-.04.71-.07,1.06-.13.14-.02.58-.11,1.15-.23l-.31-1.13Z"/>
            <path class="cls-6" d="M142.53,9.63c-.11.34-.49.94-.73,1.2-.73-.6-2.1-1.42-3.17-1.88.14-.31.53-.94.68-1.15.94.4,2.45,1.21,3.21,1.84ZM142.58,14.41c1.9-1.08,3.39-2.72,4.33-4.75.36.23.82.74.98,1.07-1.08,1.92-2.64,3.62-4.63,4.79-1.29.74-2.55,1.21-3.57,1.49-.35-.32-.7-.88-.84-1.28,1.27-.19,2.63-.68,3.73-1.31Z"/>
            <path class="cls-6" d="M150.83,12.28c.85-.77,1.63-1.62,2.28-2.3.34-.35.67-.54,1.07-.54.42,0,.73.13,1.14.48.7.6,1.32,1.22,2.12,1.94,1.04.94,2.2,1.91,3.45,2.77-.11.38-.56.94-.92,1.12-.83-.66-2.01-1.69-3.07-2.66-.85-.78-1.5-1.45-2.12-2.02-.24-.22-.4-.26-.55-.26-.17.01-.34.11-.5.29-.56.64-1.93,2.17-2.88,2.97-.37-.18-.85-.6-1.07-.95.41-.28.75-.56,1.05-.84ZM157.27,9.39c0-.72.6-1.31,1.32-1.31s1.32.59,1.32,1.32-.59,1.33-1.32,1.33-1.32-.6-1.32-1.33h0ZM157.86,9.41c0,.38.34.72.73.72s.73-.34.73-.73-.32-.73-.73-.73-.73.34-.73.73h0Z"/>
            <path class="cls-6" d="M164.79,11.56c2.69.01,6.87-.04,7.99-.06.06.3.08,1.06.05,1.38-1.69-.07-8.23.02-9.73.01-.06-.34-.12-1.02-.11-1.4.34.02,1.13.07,1.8.07Z"/>
            <path class="cls-6" d="M179.37,9.63c-.11.34-.49.94-.73,1.2-.73-.6-2.1-1.42-3.17-1.88.14-.31.53-.94.68-1.15.94.4,2.45,1.21,3.21,1.84ZM179.42,14.41c1.9-1.08,3.39-2.72,4.33-4.75.36.23.82.74.98,1.07-1.08,1.92-2.64,3.62-4.63,4.79-1.29.74-2.55,1.21-3.57,1.49-.35-.32-.7-.88-.84-1.28,1.27-.19,2.63-.68,3.73-1.31Z"/>
            <path class="cls-6" d="M187.85,10.49c.58.61,1.2,1.31,1.77,2.02.29-.84.52-1.78.67-2.78l1.33.26c-.02.1-.12.16-.29.16-.23,1.24-.53,2.35-.95,3.36.55.74,1.03,1.45,1.32,2.05l-.91.78c-.23-.49-.56-1.07-.97-1.68-.66,1.18-1.52,2.12-2.65,2.82-.14-.24-.48-.65-.7-.85,1.16-.67,2.03-1.67,2.65-2.95-.65-.89-1.39-1.78-2.09-2.53l.8-.65ZM197.74,9.23v1.1h-1.38v5.83c0,1.27-.49,1.48-2.65,1.48-.05-.34-.22-.88-.37-1.21.43.01.83.02,1.14.02.71,0,.76,0,.76-.29v-5.83h-3.2v-.86h-5.48v-1.06h2.4v-1.99l1.37.08c-.01.1-.08.16-.28.19v1.72h2.39v.82h2.81v-2.82l1.4.07c-.01.11-.08.17-.28.2v2.54h1.38ZM192.98,11.46c.58.82,1.15,1.91,1.34,2.64l-.98.49c-.18-.72-.72-1.85-1.28-2.69l.92-.44Z"/>
            <path class="cls-6" d="M206.02,11.76c.19.59.44,1.14.74,1.64.8-.46,1.74-1.07,2.33-1.55l1.03.79c-.06.06-.19.08-.32.06-.64.43-1.69,1.03-2.53,1.44.77,1,1.79,1.75,3.07,2.18-.24.22-.56.65-.73.95-2.34-.92-3.78-2.83-4.58-5.42-.34.2-.72.4-1.12.58,1.55,1,2.21,2.3,2.21,3.35s-.72,1.91-2.06,1.91c-.29,0-.64,0-1.01-.02-.01-.3-.12-.73-.31-1.02.42.04.84.05,1.13.05.71,0,1.16-.3,1.16-1.02,0-.2-.04-.44-.13-.68-1.36,1.02-3.29,1.91-4.93,2.37-.14-.25-.44-.64-.65-.84,1.8-.43,3.92-1.32,5.17-2.29-.12-.17-.25-.32-.42-.48-1.09.71-2.65,1.33-3.95,1.64-.14-.23-.42-.59-.62-.78,1.33-.28,2.93-.8,3.96-1.4-.17-.13-.35-.25-.55-.37-.94.36-1.96.65-2.89.86-.11-.2-.37-.6-.54-.79,1.27-.24,2.71-.65,3.86-1.15h-2.72v-1.98c-.19.13-.38.26-.59.38-.17-.26-.52-.64-.77-.79,1.57-.85,2.72-2.03,3.37-3.01l1.34.24c-.04.11-.12.17-.29.17-.1.14-.2.29-.32.43h2.5l.17-.06.88.54c-.04.07-.12.11-.22.12-.19.31-.48.7-.79,1.06h3.15v2.9h-3.02ZM201.68,9.71v1.2h2.48v-1.2h-2.48ZM204.56,8.86c.22-.24.43-.52.61-.79h-2.55c-.24.26-.52.53-.82.79h2.76ZM207.92,10.91v-1.2h-2.64v1.2h2.64Z"/>
            <path class="cls-6" d="M218.31,7.91h4.56v1.09h-9.02v2.01c0,1.91-.18,4.75-1.25,6.62-.2-.19-.71-.53-.97-.65,1-1.74,1.08-4.22,1.08-5.97v-3.11h4.41v-1.5l1.46.08c-.01.11-.08.17-.28.2v1.21ZM219.02,9.31c-.01.11-.1.17-.29.19v1.03h3.97v1.02h-3.97v1.56h3.2v4.52h-1.16v-.44h-4.87v.46h-1.12v-4.53h2.79v-3.89l1.44.08ZM220.77,16.17v-2.05h-4.87v2.05h4.87Z"/>
            <path class="cls-6" d="M235.55,9.1h-2.66v1.18h2.28v6.24c0,1.04-.49,1.13-1.69,1.13-.04-.28-.17-.71-.31-.98.37.01.71.01.82.01.11-.01.16-.05.16-.17v-1.33h-1.25v2.37h-1.04v-2.37h-1.16v2.47h-1v-7.36h2.16v-1.18h-2.49v-.34l-.61.72c-.36-.5-1.1-1.22-1.82-1.8-.48.79-1.12,1.64-1.92,2.4h1.38v-1.16l1.32.07c-.01.1-.08.17-.28.19v.9h1.44v.91h-1.44v.96h1.87v.94h-4.87v-.94h1.96v-.96h-1.45v-.85l-.06.06c-.16-.24-.5-.62-.73-.78,1.06-.9,1.83-2.09,2.27-3.02l1.3.22c-.02.1-.12.17-.28.17h-.01c.72.54,1.5,1.22,1.94,1.75v-.44h2.49v-1.69l1.32.08c-.01.1-.1.16-.28.18v1.43h1.91c-.32-.35-1-.83-1.55-1.15l.65-.54c.55.3,1.25.76,1.58,1.1l-.66.59h.73v1.01ZM224.92,17.53v-3.95h4.04v3.73h-1.03v-.38h-2.01v.6h-1ZM227.93,14.51h-2.01v1.5h2.01v-1.5ZM231.85,11.24h-1.16v1.02h1.16v-1.02ZM230.68,14.23h1.16v-1.04h-1.16v1.04ZM234.14,11.24h-1.25v1.02h1.25v-1.02ZM232.89,14.23h1.25v-1.04h-1.25v1.04Z"/>
          </g>
        </g>
      </g>
      <g>
        <line class="cls-3" y1="103.34" x2="350.46" y2="103.34"/>
        <line class="cls-3" y1="177.73" x2="350.46" y2="177.73"/>
        <g>
          <path class="cls-5" d="M51.5,130.73h-4.4c1.22.95,3.03,1.74,4.71,2.13-.29.27-.67.77-.85,1.09-1.82-.53-3.77-1.58-5.11-2.83v3.01h-1.34v-3c-1.33,1.26-3.28,2.31-5.06,2.87-.2-.32-.57-.81-.84-1.06,1.64-.43,3.42-1.25,4.64-2.21h-4.31v-1.12h5.58v-1.01l.8.04c-.11-.18-.25-.35-.38-.48.7-.11,1.39-.28,2.03-.52-.45-.14-.9-.28-1.34-.41l.6-.77c.67.17,1.36.38,2.02.6.42-.24.78-.5,1.09-.8h-3.99v-.95h4.92l.2-.04.81.36c-.01.07-.08.13-.13.17-.39.69-.95,1.25-1.64,1.71.78.31,1.48.62,2.02.91l-.79.84c-.6-.36-1.43-.76-2.37-1.12-.77.36-1.62.63-2.51.83v.63h5.66v1.12ZM44.87,125.62c-.03.08-.08.13-.14.15-.36.7-.88,1.3-1.53,1.81.46.21.88.42,1.22.63l-.76.83c-.39-.25-.88-.53-1.46-.8-.85.49-1.82.85-2.82,1.11-.13-.27-.41-.69-.6-.91.76-.15,1.53-.39,2.21-.71-.5-.2-1.02-.38-1.54-.53l.59-.77c.69.2,1.39.43,2.06.7.36-.25.7-.53.98-.84h-3.87v-.95h4.69l.2-.04.76.34ZM49.55,121.91c-.03.06-.13.1-.18.13-.59.66-1.39,1.19-2.33,1.64.95.27,1.79.55,2.47.83l-.84.8c-.8-.35-1.86-.71-3.07-1.05-1.5.5-3.19.84-4.82,1.04-.1-.28-.34-.69-.53-.92,1.16-.11,2.37-.31,3.5-.57-.8-.2-1.62-.36-2.45-.5l.67-.76c1.18.2,2.38.45,3.52.73.64-.24,1.22-.5,1.71-.81h-6.4v-.98h7.66l.21-.04c.06.04.07.04.08.04l.8.45Z"/>
          <path class="cls-5" d="M54.62,121.61h11.93v12.54h-1.3v-.56h-9.38v.56h-1.25v-12.54ZM55.87,132.39h9.38v-9.57h-9.38v9.57ZM63.77,128.69l.97.64c-.07.08-.2.1-.31.08-.38.25-.94.62-1.46.91.62.32,1.32.59,1.99.76-.24.21-.55.6-.7.87-1.21-.38-2.42-1.09-3.32-1.95v2.02h-1.18v-1.81c-.88.56-1.91,1.04-2.87,1.39-.14-.22-.46-.62-.67-.81,1.25-.38,2.61-1.01,3.57-1.78h-2.27v-2.34h6.04v2.2l.21-.18ZM64.63,125.31v.8h-8.14v-.8h3.45v-.73h-2.65v-.78h2.65v-.76l1.53.1c-.01.11-.1.18-.32.22v.43h2.73v.78h-2.73v.73h3.49ZM58.64,127.37v.94h3.75v-.94h-3.75ZM61.32,129.01l-.06.06c.25.28.57.55.94.8.39-.25.84-.57,1.19-.85h-2.07Z"/>
          <path class="cls-5" d="M77.11,122.78h5.32v1.27h-10.53v2.35c0,2.23-.21,5.55-1.46,7.73-.24-.22-.83-.62-1.13-.76,1.16-2.03,1.26-4.93,1.26-6.98v-3.63h5.15v-1.75l1.71.1c-.01.13-.1.2-.32.24v1.41ZM77.94,124.42c-.01.13-.11.2-.34.22v1.2h4.64v1.19h-4.64v1.82h3.74v5.28h-1.36v-.52h-5.69v.53h-1.3v-5.29h3.26v-4.54l1.68.1ZM79.98,132.43v-2.4h-5.69v2.4h5.69Z"/>
          <path class="cls-5" d="M89.21,128.84c-.56,1.09-1.6,3.56-1.88,4.65-.31.01-.78-.01-1.13-.1-.24-.78-.42-2.55-.42-4.19,0-2.16.24-4.4.41-5.66.06-.46.13-1.13.15-1.57.43.04,1.18.17,1.51.35-.36,1.86-.64,3.84-.7,5.59-.03.88,0,1.79.06,2.26,0,.18.08.18.14.04.18-.43.53-1.37.84-2.13.35.18.77.45,1.02.76ZM95.13,125.56c0,1.74.11,3.05.17,4.27,1.08.35,1.93.87,2.49,1.3-.04.41-.25,1.12-.5,1.43-.6-.6-1.28-1.05-1.95-1.37h0c0,1.13-.46,2.27-2.49,2.27-1.86,0-2.93-.91-2.93-2.09,0-1.04.7-1.98,2.72-1.98.45,0,.88.04,1.29.1-.04-1.16-.13-2.68-.13-3.85-1.19.06-2.35.06-3.18.03-.14-.34-.25-.98-.24-1.39,1.02.14,2.25.17,3.42.1v-2.4c.45.01,1.13.08,1.47.18-.07.67-.11,1.39-.13,2.1.88-.1,1.62-.25,2.1-.42.08.36.06,1.01-.01,1.33-.6.17-1.33.28-2.1.35v.03ZM93.97,130.71c-.5-.11-.98-.17-1.39-.17-.95,0-1.4.29-1.4.78,0,.55.57.88,1.43.88,1.12,0,1.36-.49,1.36-1.4v-.1Z"/>
          <path class="cls-5" d="M103.3,122.48c-.04.9-.1,5.18-.11,6.51-.5.06-1.05.06-1.55,0,.06-.88.11-4.83.11-5.48,0-.28-.03-.8-.07-1.11.36-.01,1.2.03,1.62.07ZM109.12,125.68c-.01,3.67-.59,4.9-1.61,6.09-.88,1.05-2.27,1.79-3.21,2.11-.32-.22-.92-.87-1.18-1.26,1.05-.24,2.41-.81,3.26-1.82,1.05-1.26,1.23-2.73,1.23-5.29,0-.62,0-1.18-.01-1.83-.01-.53-.04-.97-.08-1.36.41-.01,1.21.01,1.62.08-.03.39-.04.91-.03,1.23v2.05Z"/>
          <path class="cls-5" d="M114.84,130.41c.85.03,8.29-.08,9.05-.08.43-.01.9-.04,1.25-.06.07.39.11,1.11.1,1.58-.29,0-.6-.01-1.01-.01-.5,0-7.9.07-8.95.08-.49,0-1.15.01-1.55.03-.08-.41-.17-1.13-.14-1.6.46.03.77.04,1.26.06ZM116.2,124.02c1.15.01,5.27-.07,6.12-.08.55,0,.92-.03,1.34-.07.08.38.13,1.12.1,1.53-.88-.01-6.49.07-7.47.08-.29,0-.83.03-1.21.03-.08-.41-.14-1.15-.13-1.53.45.03.77.04,1.23.04Z"/>
          <path class="cls-5" d="M136.82,131.53c.27,0,.62-.01.9-.03.04.28.06,1.12.06,1.36-.35-.03-.85-.03-1.25-.03-.5,0-6.08.04-6.88.06-.34.01-.7.01-1.02.01-.06-.31-.1-1.08-.1-1.34.35.03.69.03,1.09.04.42.01,2.59,0,4.46-.03.17-1.2.39-3.18.42-3.88-1.47.01-3.19.04-3.59.04-.27,0-.67.01-1,.01-.06-.32-.11-1.16-.11-1.34.38.03.56.04.95.06.59.01,2.48-.01,3.84-.03.18,0,.45-.04.66-.07.25.08.58.27.77.41-.06.76-.35,3.32-.55,4.79l1.34-.03Z"/>
          <path class="cls-5" d="M143.61,127.04c3.14.01,8.03-.04,9.33-.07.07.35.1,1.23.06,1.61-1.98-.08-9.61.03-11.36.01-.07-.39-.14-1.19-.13-1.64.39.03,1.32.08,2.1.08Z"/>
          <path class="cls-5" d="M156.52,124.46c-.1-.36-.15-1.09-.18-1.5.57.03,1.39.06,1.91.06.76-.01,6.85-.06,7.7-.07.36-.01.59-.03.9-.07.35.21.76.63.95.88-.62,1.15-1.97,3.18-3.78,4.38-.34-.15-.94-.6-1.22-.94,1.33-.64,2.63-2.13,3.03-2.93-.76,0-7.3.11-8.18.14l-1.12.04ZM162.3,125.55c.11,4.03-.25,6.35-3.95,8.1-.35-.18-1.01-.84-1.25-1.22.41-.1.91-.29,1.25-.48,2.19-1.2,2.51-3.03,2.44-5.11-.01-.39-.04-.88-.13-1.36.46-.03,1.15-.01,1.64.07Z"/>
          <path class="cls-5" d="M172.48,124.75c0-.62-.04-1.09-.1-1.48.43,0,1.12.04,1.57.11,0,4.99.15,7.33-2.77,9.85-.35-.15-1.04-.69-1.3-1.08.31-.18.62-.42.88-.69,1.67-1.68,1.72-3.45,1.72-6.71ZM176.27,132.39c.07-.25.1-.46.1-.8.04-1.08.1-5.39.08-7.47,0-.46-.03-.85-.04-1.16.27,0,1.12.07,1.55.15-.08,1.02-.15,6.84-.15,8.01,1.39-.46,3.11-2,3.98-4.05.34.25.79.87.98,1.27-.92,1.76-2.38,3.46-5,4.5-.21.07-.41.15-.63.24-.27-.17-.67-.5-.87-.7Z"/>
          <path class="cls-5" d="M197.5,127.9c0,3.07-1.74,5.1-4.8,5.57-.29-.29-.7-.99-.81-1.44.48-.03.88-.1,1.25-.18,1.46-.34,2.87-1.51,2.87-3.96,0-2.27-1.51-3.8-3.84-3.92-.06,1.08-.25,2.82-.56,4.08-.63,2.66-1.6,4.57-3.29,4.57-1.4,0-2.79-1.86-2.79-4.13,0-3.31,2.65-5.83,6.29-5.83,3.28,0,5.69,2.09,5.69,5.25ZM190.22,127.75c.25-1.06.46-2.59.49-3.7-2.51.48-3.77,2.52-3.77,4.3,0,1.64.8,2.59,1.42,2.59.74,0,1.37-1.15,1.86-3.19Z"/>
          <path class="cls-5" d="M201.97,124.12c.53,0,1.13-.04,1.75-.11.04-.21.08-.41.11-.55.13-.7.25-1.44.27-2.03.42.06,1.22.2,1.57.36-.07.34-.24,1.09-.43,1.99.85-.17,1.65-.36,2.16-.57.06.35.03,1.13-.03,1.47-.58.17-1.46.36-2.47.52-.14.56-.28,1.12-.41,1.64-.55,2-1.44,4.94-2.09,6.65-.46-.07-1.21-.28-1.55-.52.7-1.54,1.82-4.82,2.27-6.51.1-.36.2-.73.28-1.06-.77.08-1.55.13-2.31.14-.11-.29-.22-1.11-.24-1.47.31.04.64.06,1.11.06h.01ZM212.35,131.73c.01.35-.07,1.15-.22,1.48-.42.11-1.43.24-2.48.24-2.34,0-3.67-.92-3.66-2.37,0-.69.31-1.46.53-1.85.41.07.95.27,1.25.46-.2.32-.38.74-.38,1.13-.01.64.55,1.26,2.42,1.26,1.04,0,1.99-.18,2.54-.36ZM210.18,124.77c.66,0,1.72.07,2.33.15,0,.35-.06.99-.15,1.37-.59-.13-1.4-.2-2.2-.2-.76-.01-1.53.03-2.19.13-.04-.27-.03-.98.01-1.36.7-.07,1.5-.1,2.18-.1h.01Z"/>
          <path class="cls-5" d="M228.16,128.31c0,3.5-2.56,4.78-4.61,5.04-.31-.28-.73-.94-.88-1.32,2.56-.04,4.03-1.39,4.03-3.77,0-1.75-1.18-3-2.93-3.17-.42,1.71-.99,3.29-1.57,4.34-.14.27-.28.52-.43.78.18.24.39.46.6.69-.15.31-.63.84-.95,1.02-.14-.14-.29-.32-.46-.52-.59.73-1.29,1.25-2.16,1.25-1.4,0-2.33-1.37-2.33-2.79s.59-2.8,1.81-3.96c-.11-.32-.22-.66-.32-.99-.17-.55-.31-.95-.46-1.32.35-.28.9-.55,1.33-.63.13.59.32,1.33.55,2.09.98-.63,2.12-1.04,3.26-1.15.04-.27.08-.55.11-.83.04-.41.08-.92.06-1.32.53.03,1.16.17,1.53.38-.07.59-.17,1.18-.29,1.76,2.17.25,4.12,1.71,4.12,4.4ZM220.18,130.31c-.11-.18-.24-.38-.35-.59-.35-.66-.71-1.51-1.06-2.45-.67.85-.99,1.79-.99,2.47s.39,1.48,1.09,1.48c.46,0,.91-.35,1.32-.91ZM221.07,128.83c.5-.97.99-2.21,1.33-3.68-1.04.14-1.85.56-2.63,1.15.34.97.69,1.85.97,2.37.07.13.14.25.22.39l.11-.22Z"/>
          <path class="cls-5" d="M234.55,127.09h.48c.31,0,.6-.04.88-.13.28-.08.52-.21.73-.37s.38-.37.5-.62c.12-.25.19-.53.19-.85,0-.65-.2-1.13-.61-1.45-.41-.32-.92-.48-1.53-.48-.39,0-.72.07-1.01.21-.29.14-.53.33-.71.57-.19.24-.33.52-.42.83-.09.32-.14.65-.14,1h-1.45c.02-.58.12-1.1.28-1.58.16-.48.4-.88.71-1.22.31-.34.69-.61,1.15-.8.46-.19.99-.29,1.59-.29.52,0,1.01.07,1.45.2.45.13.84.33,1.17.59.33.26.59.59.77,1,.19.41.28.89.28,1.45s-.16,1.03-.48,1.45c-.32.42-.71.74-1.19.95v.03c.74.16,1.28.5,1.64,1.04.36.53.54,1.16.54,1.89,0,.6-.11,1.13-.33,1.59-.22.46-.52.84-.89,1.15-.37.31-.81.54-1.32.69-.5.15-1.04.23-1.61.23-.61,0-1.17-.08-1.67-.26-.5-.17-.92-.42-1.28-.76-.35-.33-.62-.75-.81-1.23-.19-.49-.27-1.04-.26-1.67h1.45c.02.78.25,1.42.68,1.91.43.49,1.06.74,1.89.74.35,0,.69-.05,1-.16.32-.11.59-.26.83-.46.24-.2.43-.44.57-.73.14-.29.21-.61.21-.98s-.07-.71-.2-.99c-.14-.29-.32-.53-.54-.73-.23-.2-.5-.35-.81-.44-.31-.1-.65-.14-1.01-.14-.31,0-.6.02-.87.05v-1.22c.06.01.11.02.15.02Z"/>
          <path class="cls-5" d="M247.81,121.53l-5.03,12.7h-1.22l5.01-12.7h1.24Z"/>
          <path class="cls-5" d="M252.74,133.95v-8.64h-3.13v-1.16c.41,0,.8-.03,1.19-.09.38-.06.73-.18,1.05-.35.31-.17.58-.4.79-.7s.36-.67.44-1.12h1.1v12.05h-1.44Z"/>
          <path class="cls-5" d="M264.76,121.1c-1.53,1.27-2.77,3.67-2.77,6.49s1.29,5.24,2.77,6.49v.07h-1.06c-1.43-1.27-2.65-3.68-2.65-6.56s1.22-5.28,2.65-6.56h1.06v.07Z"/>
          <path class="cls-5" d="M268.18,121.89h9.33v11.99h-1.41v-.87h-6.56v.92h-1.36v-12.05ZM276.1,123.24h-6.56v3.52h6.56v-3.52ZM269.54,131.67h6.56v-3.6h-6.56v3.6Z"/>
          <path class="cls-5" d="M280.77,134.07c1.53-1.27,2.77-3.67,2.77-6.49s-1.29-5.24-2.77-6.49v-.07h1.06c1.44,1.27,2.65,3.68,2.65,6.56s-1.2,5.28-2.65,6.56h-1.06v-.07Z"/>
          <path class="cls-5" d="M295.59,125.98c0,.92.1,2.28.18,3.49,1.55.41,2.9,1.16,3.82,1.99-.06.5-.35,1.12-.7,1.48-.78-.87-1.85-1.58-3.03-2.05.01.25.01.46.01.64,0,1.04-.76,2.14-2.72,2.14s-3.45-.83-3.45-2.37c0-1.2,1.06-2.2,3.49-2.2.38,0,.76.03,1.13.07-.07-1.25-.17-2.72-.18-3.81-.01-.78-.01-2.07-.01-2.56-.01-.45-.03-.91-.06-1.18.48-.01,1.32.07,1.67.18-.1.84-.14,1.65-.15,2.51.95-.06,2.31-.2,3.45-.49.13.31.22,1.01.24,1.36-.69.15-2.37.35-3.7.43v.35ZM294.4,130.48c-.48-.1-.94-.14-1.4-.14-1.2,0-1.89.36-1.89.95,0,.64.69,1.05,1.86,1.05.9,0,1.43-.45,1.43-1.41v-.45Z"/>
          <path class="cls-5" d="M305.71,124.91c.48-1.11,1.44-2.41,2.86-2.41,1.62,0,3.26,1.37,3.26,4.71,0,3.56-1.78,5.8-4.57,6.71-.45-.24-.92-.76-1.15-1.23,2.46-.55,4.22-2.2,4.22-5.45,0-2.42-.88-3.49-1.97-3.49-1.42,0-2.28,1.78-2.49,3.77-.13.73-.13,1.32-.08,1.96-.35.07-1.05.06-1.47-.06-.04-.69-.06-1.86-.04-2.58.01-1.25.22-3.29.28-4.08.01-.42.04-.88.04-1.23.48,0,1.16.06,1.56.14-.21,1.01-.43,2.35-.45,3.24h.01Z"/>
          <path class="cls-5" d="M42.96,144.77c-.07.06-.1.06-.34.06-.56.28-1.29.55-2.1.78v2.41h2.59v1.23h-2.59v.9c.67.5,2.17,1.78,2.56,2.11l-.76,1.13c-.39-.46-1.15-1.23-1.81-1.86v5.35h-1.3v-5.67c-.67,1.47-1.51,2.89-2.37,3.78-.14-.38-.46-.94-.7-1.29,1.05-1.02,2.16-2.82,2.79-4.45h-2.52v-1.23h2.8v-2.07c-.84.2-1.71.36-2.52.5-.06-.29-.25-.76-.42-1.02,2.02-.36,4.29-.97,5.52-1.65l1.16.99ZM45.64,145.58c-.01.11-.1.2-.32.22v7.58h-1.29v-7.9l1.61.1ZM47.45,144.06l1.64.08c-.01.13-.08.21-.32.24v10.83c0,1.53-.63,1.72-3.38,1.69-.07-.36-.28-.98-.48-1.36.57.03,1.13.03,1.55.03.88,0,.98,0,.98-.36v-11.15Z"/>
          <path class="cls-5" d="M63.8,144.74v10.48c0,1.46-.63,1.62-3.38,1.6-.06-.36-.27-.94-.45-1.29.55.03,1.11.03,1.53.03.92,0,.97,0,.97-.35v-2.56h-3.52v4.08h-1.3v-4.08h-3.25c-.24,1.57-.74,3.18-1.79,4.34-.2-.27-.74-.73-1.04-.88,1.55-1.74,1.7-4.26,1.7-6.26v-5.1h10.53ZM54.58,149.86c0,.48-.01.99-.06,1.53h3.12v-2.06h-3.07v.53ZM57.65,146.02h-3.07v2.06h3.07v-2.06ZM62.47,148.08v-2.06h-3.52v2.06h3.52ZM58.95,151.38h3.52v-2.06h-3.52v2.06Z"/>
          <path class="cls-5" d="M71.76,150.33c0,.9-.73,1.62-1.62,1.62s-1.62-.73-1.62-1.62.73-1.62,1.62-1.62,1.62.76,1.62,1.62Z"/>
          <path class="cls-5" d="M83.16,145.53h5.32v1.27h-10.53v2.35c0,2.23-.21,5.55-1.46,7.73-.24-.22-.83-.62-1.13-.76,1.16-2.03,1.26-4.93,1.26-6.98v-3.63h5.15v-1.75l1.71.1c-.01.13-.1.2-.32.24v1.41ZM83.98,147.17c-.01.13-.11.2-.34.22v1.2h4.64v1.19h-4.64v1.82h3.74v5.28h-1.36v-.52h-5.69v.53h-1.3v-5.29h3.26v-4.54l1.68.1ZM86.03,155.18v-2.4h-5.69v2.4h5.69Z"/>
          <path class="cls-5" d="M96.79,153.74l.11,1.08c-1.93.49-3.99.98-5.31,1.27-.01.13-.08.21-.2.24l-.55-1.39c1-.18,2.38-.46,3.87-.77l-.55-.2c.22-.77.49-1.99.6-2.84l1.46.42c-.04.08-.15.14-.34.14-.14.7-.39,1.65-.63,2.37l1.53-.32ZM96.69,144.49v1.23h-5.63v-1.23h5.63ZM96.37,146.93v3.87h-4.92v-3.87h4.92ZM92.79,151.24c.32.81.55,1.88.59,2.58l-1.13.28c-.03-.69-.22-1.76-.52-2.59l1.06-.27ZM95.18,149.74v-1.75h-2.59v1.75h2.59ZM99.99,155.04c-.04.06-.13.08-.25.1-.6.62-1.86,1.37-2.94,1.78-.2-.25-.6-.63-.88-.87,1.07-.38,2.3-1.11,2.89-1.7l1.19.69ZM97.48,146.76h1.86c.1-.39.18-.83.25-1.22h-2.54v-1.13h6.95v1.13h-3.01c-.1.36-.22.8-.35,1.22h2.88v7.44h-6.05v-7.44ZM102.26,148.93v-1.18h-3.56v1.18h3.56ZM102.26,151.05v-1.18h-3.56v1.18h3.56ZM102.26,153.19v-1.19h-3.56v1.19h3.56ZM103.19,156.92c-.49-.52-1.54-1.3-2.35-1.83l1.01-.64c.8.49,1.86,1.25,2.42,1.77l-1.08.71Z"/>
          <path class="cls-5" d="M116.41,150.35l.99.56c-.06.08-.14.15-.22.18-.69,1.39-1.68,2.48-2.91,3.35,1.44.59,3.15.98,5.03,1.19-.29.32-.66.91-.84,1.3-2.13-.29-4.01-.83-5.59-1.65-1.57.8-3.4,1.32-5.35,1.64-.14-.34-.53-.94-.81-1.23,1.77-.22,3.42-.62,4.85-1.22-.98-.69-1.82-1.53-2.48-2.51l.97-.39h-1.44v-1.18h7.56l.25-.04ZM107.98,149.01v1.98h-1.25v-3.15h2.12c-.18-.48-.48-1.09-.77-1.55l1.16-.34c.38.55.77,1.29.92,1.78l-.36.11h2.55c-.11-.52-.35-1.26-.62-1.82l1.19-.27c.31.6.62,1.41.71,1.92l-.66.17h2.35c.42-.67.9-1.61,1.18-2.3l1.57.53c-.04.08-.17.14-.35.14-.25.48-.63,1.09-1,1.62h2.26v3.15h-1.3v-1.98h-9.71ZM118.33,144.95s-.1.04-.17.04c-.06,0-.11-.01-.18-.03-2.73.53-7.1.88-10.81,1.01-.01-.34-.17-.84-.29-1.13,3.68-.14,8-.49,10.49-1.01l.97,1.12ZM110.34,151.56c.62.88,1.5,1.62,2.56,2.23.99-.59,1.81-1.33,2.39-2.23h-4.96Z"/>
          <path class="cls-5" d="M123.7,149.3c-.5.76-1.02,1.44-1.57,2.03-.14-.34-.48-1.01-.69-1.32,1.36-1.39,2.7-3.78,3.52-6.16l1.54.53c-.06.1-.18.17-.36.15-.36.95-.8,1.91-1.27,2.82l.48.13c-.03.11-.13.2-.34.21v9.22h-1.3v-7.61ZM134.81,146.89v1.32h-1.79v7.02c0,.88-.21,1.26-.77,1.47-.56.21-1.51.24-2.94.24-.07-.38-.28-.97-.48-1.34.6.03,1.18.04,1.64.04,1.11,0,1.2,0,1.2-.41v-7.02h-5.64v-1.32h5.64v-2.96l1.67.1c-.01.13-.08.2-.32.22v2.63h1.79ZM128.71,153.5c-.31-.94-1.16-2.41-1.96-3.49l1.15-.56c.81,1.05,1.71,2.47,2.06,3.4l-1.25.64Z"/>
          <path class="cls-5" d="M143.06,149.23h-3.99v7.68h-1.3v-12.55h5.29v4.87ZM141.82,145.34h-2.75v.95h2.75v-.95ZM139.07,148.24h2.75v-1.04h-2.75v1.04ZM147.38,153.57h-1.77v3.07h-1.19v-3.07h-1.74c-.14.91-.62,2.34-1.86,3.18-.18-.24-.59-.62-.85-.78,1.02-.66,1.43-1.65,1.55-2.4h-1.61v-1.11h1.67v-1.34h-1.41v-1.06h6.93v1.06h-1.49v1.34h1.77v1.11ZM142.73,152.46h1.69v-1.34h-1.69v1.34ZM149.58,144.35v10.91c0,1.33-.48,1.62-2.86,1.6-.04-.36-.22-.97-.42-1.32.36.01.73.01,1.04.01.84,0,.94,0,.94-.31v-6h-4.1v-4.9h5.41ZM148.27,145.34h-2.83v.95h2.83v-.95ZM145.44,148.27h2.83v-1.06h-2.83v1.06Z"/>
          <path class="cls-5" d="M157.31,146.62l.71.17c-.01.1-.04.17-.08.24-.18,2.44-.59,4.41-1.25,5.98.64.52,1.22,1.04,1.58,1.5l-.8,1.06c-.32-.42-.81-.9-1.37-1.39-.69,1.19-1.57,2.09-2.66,2.75-.18-.34-.53-.81-.81-1.06.99-.52,1.82-1.36,2.46-2.51-.39-.29-.78-.57-1.18-.84l-.14.55-1.09-.59c.34-1.2.73-2.87,1.11-4.59h-1.25v-1.23h1.5c.2-1.01.38-1.99.53-2.87l1.54.17c-.01.13-.11.2-.32.21-.14.76-.32,1.61-.5,2.49h1.79l.22-.03ZM155.03,147.88c-.27,1.18-.53,2.35-.8,3.42.46.28.94.59,1.4.91.49-1.2.83-2.65,1-4.33h-1.6ZM163.58,146.06c.9,1.13,1.83,2.66,2.17,3.7l-1.15.62c-.08-.27-.21-.57-.35-.9-2.09.18-4.23.32-5.63.42-.01.13-.13.2-.22.21l-.49-1.46,1.15-.04c.55-1.37,1.15-3.36,1.44-4.83l1.68.38c-.04.13-.18.2-.38.21-.35,1.25-.92,2.91-1.47,4.19,1.05-.04,2.21-.1,3.36-.15-.35-.62-.76-1.25-1.16-1.79l1.05-.55ZM158.9,156.9v-5.83h6.08v5.77h-1.3v-.56h-3.52v.62h-1.26ZM163.67,152.28h-3.52v2.8h3.52v-2.8Z"/>
          <path class="cls-5" d="M174.27,143.85c-1.53,1.27-2.77,3.67-2.77,6.49s1.29,5.24,2.77,6.49v.07h-1.06c-1.43-1.27-2.65-3.68-2.65-6.56s1.22-5.28,2.65-6.56h1.06v.07Z"/>
          <path class="cls-5" d="M186.13,156.52l-2.69-9.9h-.03l-2.72,9.9h-1.63l-3.02-11.78h1.6l2.31,9.8h.03l2.64-9.8h1.7l2.61,9.8h.03l2.39-9.8h1.57l-3.15,11.78h-1.63Z"/>
          <path class="cls-5" d="M201.19,144.74v1.32h-6.57v3.75h6.12v1.32h-6.12v4.08h6.62v1.32h-8.18v-11.78h8.13Z"/>
          <path class="cls-5" d="M209.06,144.74c.25,0,.53,0,.82,0,.29,0,.58.02.87.05.29.03.55.07.8.12.25.06.46.14.63.25.38.23.71.55.98.96.27.41.4.91.4,1.5,0,.63-.15,1.17-.45,1.63-.3.46-.73.79-1.29,1.01v.03c.73.15,1.28.48,1.67.99.38.51.58,1.12.58,1.85,0,.43-.08.85-.23,1.25s-.38.77-.68,1.08c-.3.31-.68.57-1.12.76-.45.19-.96.29-1.54.29h-5.69v-11.78h4.27ZM209.49,149.81c.89,0,1.53-.16,1.92-.47.39-.31.58-.78.58-1.41,0-.42-.07-.75-.2-.99s-.31-.43-.54-.56c-.23-.13-.5-.22-.8-.26-.3-.04-.62-.06-.97-.06h-3.13v3.75h3.13ZM210.28,155.2c.69,0,1.24-.19,1.63-.56.39-.37.58-.89.58-1.55,0-.39-.07-.7-.21-.96-.14-.25-.33-.45-.57-.6-.24-.15-.51-.25-.82-.31-.31-.06-.63-.09-.96-.09h-3.58v4.08h3.93Z"/>
          <path class="cls-5" d="M229.04,149.07l.98.22c-.15.31-1.54,2.47-3.38,4.06l-1.09-.7c.69-.59,1.47-1.44,2.12-2.3h-3.25c-.04.07-.13.13-.29.15v4.89c0,1.43-.76,1.5-3.43,1.5-.08-.38-.31-.92-.5-1.27.55.01,1.12.03,1.56.03.94,0,.99,0,.99-.29v-5h-5.62v-1.27h6.98c-1.13-.63-2.62-1.3-3.88-1.74l.91-.92c.79.25,1.68.6,2.55.98.73-.43,1.53-1.01,2.17-1.57h-7.38v-1.23h8.74l.25-.08,1.18.76c-.06.08-.18.15-.32.17-.85.81-2.1,1.82-3.32,2.59.46.24.87.48,1.19.69l-.34.36h3.19Z"/>
          <path class="cls-5" d="M234.42,152.31c-.04.1-.13.15-.29.14-.2,1.18-.56,2.52-1.01,3.36-.24-.17-.7-.38-.99-.49.43-.78.73-2.12.91-3.35l1.39.34ZM237.75,146c-.06.1-.17.14-.35.14-.74,1.15-1.89,2.66-2.93,3.84l2.26-.04c-.24-.41-.5-.81-.76-1.18.42-.22.69-.35.95-.49.69.9,1.42,2.09,1.68,2.89-.43.25-.73.41-1.02.56-.07-.22-.18-.49-.32-.77l-1.32.08v5.87h-1.23v-5.81c-.77.04-1.47.08-2.03.1-.03.13-.13.18-.22.2l-.29-1.37h1.02c.29-.34.6-.7.9-1.09-.45-.6-1.19-1.33-1.82-1.86l.63-.88c.11.1.24.2.36.29.52-.81,1.08-1.88,1.4-2.69l1.37.57c-.07.11-.21.14-.35.13-.41.8-1.09,1.89-1.65,2.66.29.28.56.57.77.83.62-.88,1.21-1.81,1.62-2.58l1.33.62ZM237.29,155.14c-.15-.77-.57-1.95-.98-2.84l1.04-.35c.43.88.87,2.02,1.05,2.77l-1.11.42ZM244.35,146.37l.7.06c0,.1-.01.28-.01.43-.2,6.44-.39,8.63-.95,9.34-.45.59-.9.7-2.14.7-.41,0-.87-.01-1.32-.04-.01-.36-.18-.91-.42-1.26.92.07,1.76.07,2.12.07.28,0,.45-.04.62-.22.42-.46.63-2.56.8-7.8h-3.94c-.35.8-.76,1.53-1.18,2.1-.25-.22-.77-.56-1.09-.74.91-1.19,1.7-3.25,2.14-5.22l1.61.41c-.06.11-.17.18-.35.17-.17.67-.38,1.36-.63,2.03h4.05ZM240.06,149.55c.77.98,1.61,2.33,1.93,3.22l-1.16.62c-.29-.9-1.08-2.28-1.83-3.31l1.06-.53Z"/>
          <path class="cls-5" d="M252.07,151.59c-.56,1.09-1.6,3.56-1.88,4.65-.31.01-.78-.01-1.13-.1-.24-.78-.42-2.55-.42-4.19,0-2.16.24-4.4.41-5.66.06-.46.13-1.13.15-1.57.43.04,1.18.17,1.51.35-.36,1.86-.64,3.84-.7,5.59-.03.88,0,1.79.06,2.26,0,.18.08.18.14.04.18-.43.53-1.37.84-2.13.35.18.77.45,1.02.76ZM258,148.31c0,1.74.11,3.05.17,4.27,1.08.35,1.93.87,2.49,1.3-.04.41-.25,1.12-.5,1.43-.6-.6-1.28-1.05-1.95-1.37h0c0,1.13-.46,2.27-2.49,2.27-1.86,0-2.93-.91-2.93-2.09,0-1.04.7-1.98,2.72-1.98.45,0,.88.04,1.29.1-.04-1.16-.13-2.68-.13-3.85-1.19.06-2.35.06-3.18.03-.14-.34-.25-.98-.24-1.39,1.02.14,2.25.17,3.42.1v-2.4c.45.01,1.13.08,1.47.18-.07.67-.11,1.39-.13,2.1.88-.1,1.62-.25,2.1-.42.08.36.06,1.01-.01,1.33-.6.17-1.33.28-2.1.35v.03ZM256.84,153.46c-.5-.11-.98-.17-1.39-.17-.95,0-1.4.29-1.4.78,0,.55.57.88,1.43.88,1.12,0,1.36-.49,1.36-1.4v-.1Z"/>
          <path class="cls-5" d="M273.23,150.35l.99.56c-.06.08-.14.15-.22.18-.69,1.39-1.68,2.48-2.91,3.35,1.44.59,3.15.98,5.03,1.19-.29.32-.66.91-.84,1.3-2.13-.29-4.01-.83-5.59-1.65-1.57.8-3.4,1.32-5.35,1.64-.14-.34-.53-.94-.81-1.23,1.77-.22,3.42-.62,4.85-1.22-.98-.69-1.82-1.53-2.48-2.51l.97-.39h-1.44v-1.18h7.56l.25-.04ZM264.8,149.01v1.98h-1.25v-3.15h2.12c-.18-.48-.48-1.09-.77-1.55l1.16-.34c.38.55.77,1.29.92,1.78l-.36.11h2.55c-.11-.52-.35-1.26-.62-1.82l1.19-.27c.31.6.62,1.41.71,1.92l-.66.17h2.35c.42-.67.9-1.61,1.18-2.3l1.57.53c-.04.08-.17.14-.35.14-.25.48-.63,1.09-1,1.62h2.26v3.15h-1.3v-1.98h-9.71ZM275.15,144.95s-.1.04-.17.04c-.06,0-.11-.01-.18-.03-2.73.53-7.1.88-10.81,1.01-.01-.34-.17-.84-.29-1.13,3.68-.14,8-.49,10.49-1.01l.97,1.12ZM267.17,151.56c.62.88,1.5,1.62,2.56,2.23.99-.59,1.81-1.33,2.39-2.23h-4.96Z"/>
          <path class="cls-5" d="M280.52,149.3c-.5.76-1.02,1.44-1.57,2.03-.14-.34-.48-1.01-.69-1.32,1.36-1.39,2.7-3.78,3.52-6.16l1.54.53c-.06.1-.18.17-.36.15-.36.95-.8,1.91-1.27,2.82l.48.13c-.03.11-.13.2-.34.21v9.22h-1.3v-7.61ZM291.63,146.89v1.32h-1.79v7.02c0,.88-.21,1.26-.77,1.47-.56.21-1.51.24-2.94.24-.07-.38-.28-.97-.48-1.34.6.03,1.18.04,1.64.04,1.11,0,1.2,0,1.2-.41v-7.02h-5.64v-1.32h5.64v-2.96l1.67.1c-.01.13-.08.2-.32.22v2.63h1.79ZM285.54,153.5c-.31-.94-1.16-2.41-1.96-3.49l1.15-.56c.81,1.05,1.71,2.47,2.06,3.4l-1.25.64Z"/>
          <path class="cls-5" d="M301.08,146.27h5.14v6.84h-1.39v-.77h-3.75v4.55h-1.37v-4.55h-3.67v.84h-1.33v-6.91h5v-2.49l1.72.1c-.01.11-.11.2-.35.24v2.16ZM296.03,151.03h3.67v-3.46h-3.67v3.46ZM301.08,151.03h3.75v-3.46h-3.75v3.46Z"/>
          <path class="cls-5" d="M309.02,156.82c1.53-1.27,2.77-3.67,2.77-6.49s-1.29-5.24-2.77-6.49v-.07h1.06c1.44,1.27,2.65,3.68,2.65,6.56s-1.2,5.28-2.65,6.56h-1.06v-.07Z"/>
        </g>
      </g>
    </g>
  </g>
</svg>