<?xml version="1.0" encoding="UTF-8"?>
<svg id="_レイヤー_2" data-name="レイヤー 2" xmlns="http://www.w3.org/2000/svg" viewBox="0 0 313.63 607.42">
  <defs>
    <style>
      .cls-1 {
        stroke-width: .76px;
      }

      .cls-1, .cls-2 {
        fill: none;
        stroke: #ee780c;
      }

      .cls-1, .cls-2, .cls-3 {
        stroke-miterlimit: 10;
      }

      .cls-2 {
        stroke-width: .76px;
      }

      .cls-4, .cls-3 {
        fill: #ee780c;
      }

      .cls-5 {
        fill: #ec6300;
      }

      .cls-6 {
        fill: #0c3b2c;
      }

      .cls-7 {
        fill: #fff;
      }

      .cls-3 {
        stroke: #fff;
        stroke-width: .99px;
      }
    </style>
  </defs>
  <g id="_レイヤー_4" data-name="レイヤー 4">
    <g>
      <g>
        <g>
          <g>
            <path class="cls-6" d="M48.96,141.88h-7.4c-.04.16-.19.25-.53.31v2.75l.35-.41c2.16,1.07,5.26,2.77,6.76,4.01l-1.73,2.14c-1.15-1.03-3.39-2.47-5.38-3.62v9.35h-2.51v-14.54h-7.11v-2.36h17.56v2.36Z"/>
            <path class="cls-6" d="M52.8,143.19v-1.85h8.05v1.85h-8.05ZM60.01,149.48v5.96h-4.29v.76h-2.03v-6.72h6.31ZM53.75,145.86v-1.77h6.31v1.77h-6.31ZM53.75,148.53v-1.75h6.31v1.75h-6.31ZM60.08,138.71v1.77h-6.22v-1.77h6.22ZM57.96,151.33h-2.24v2.26h2.24v-2.26ZM64.04,153.01c0,.82.16.95,1.09.95h2.81c.9,0,1.03-.45,1.17-2.92.51.39,1.52.78,2.16.94-.29,3.27-.93,4.21-3.16,4.21h-3.25c-2.44,0-3.18-.68-3.18-3.14v-7.33h6.18v-4.42h-6.24v-2.22h8.59v9.63h-2.36v-.76h-3.82v5.07Z"/>
            <path class="cls-4" d="M85.14,137.32c5.51,0,9.96,4.45,9.96,9.96s-4.45,9.96-9.96,9.96-9.96-4.45-9.96-9.96,4.49-9.96,9.96-9.96Z"/>
            <path class="cls-6" d="M106.23,147.28c0,1.36-1.13,2.49-2.49,2.49s-2.49-1.13-2.49-2.49,1.13-2.49,2.49-2.49,2.49,1.17,2.49,2.49Z"/>
            <path class="cls-4" d="M122.01,137.32c5.51,0,9.96,4.45,9.96,9.96s-4.45,9.96-9.96,9.96-9.96-4.45-9.96-9.96,4.49-9.96,9.96-9.96Z"/>
            <path class="cls-6" d="M149.18,146.93c0,2.44-.64,5.42-1.71,7-.68,1.07-1.42,1.42-2.44,1.42-.92,0-2.32-.39-3.31-.9-.2-.74-.18-2.07-.06-2.69.8.47,2.03.99,2.73.99.53,0,.82-.1,1.17-.66.72-1.05,1.19-3.29,1.19-5.01,0-1.48-.64-2.03-1.87-2.03-.35,0-.9.08-1.58.19-1.03,2.9-2.96,8.05-4.19,10.27-.7-.18-1.91-.76-2.46-1.25,1.52-2.42,3.04-6.04,3.96-8.53-.99.18-2.07.35-3.12.47-.29-.6-.53-1.71-.57-2.49.74.04,1.56-.04,2.32-.1.58-.06,1.34-.16,2.16-.27.35-1.25.78-2.84.97-4.11.9.16,2.08.56,2.65.92-.21.68-.53,1.58-.96,2.84.6-.08,1.17-.12,1.6-.12,1.91,0,3.51,1.32,3.51,4.05ZM154.87,147.85c-.39.49-1.38,1.09-2.2,1.34-.64-2.05-2.22-5.03-3.55-6.53.62-.47,1.58-.94,2.1-1.11,1.34,1.52,3.08,4.62,3.64,6.29Z"/>
            <path class="cls-6" d="M162.66,148.14c1.71-1.48,3.7-2.32,5.9-2.32,3.18,0,4.97,1.99,4.97,4.46,0,4.46-4.74,6.06-8.94,5.77-.39-.55-.74-1.81-.82-2.55,4.44.49,7.21-.84,7.21-3.29,0-1.23-.99-2.1-2.67-2.1-2.4,0-4.29,1.33-5.53,2.77-.23.27-.51.7-.68.99-.56-.21-1.62-.7-2.07-1.05.18-1.19.51-7.77.51-8.53.74.06,1.99.27,2.55.45-.16,1.05-.41,4.42-.43,5.42ZM162.68,138.65c1.87.62,4.97,1.42,6.49,1.71-.1.68-.39,1.64-.76,2.24-1.29-.23-5.53-1.38-6.47-1.77.12-.64.51-1.73.74-2.18Z"/>
            <path class="cls-6" d="M187.53,150.87l1.85.72c-.1.16-.29.19-.49.18-.97.72-2.51,1.5-3.9,2.03.53.14,1.09.21,1.73.23.8.04,1.87.06,3.06.06,2.34,0,5.08-.08,6.94-.23-.25.53-.58,1.54-.7,2.18-1.48.08-3.62.14-5.61.14-4.71,0-7.07,0-8.85-2.28-.74.78-1.52,1.52-2.16,2.12,0,.21-.08.31-.25.39l-1.15-2.34c.72-.51,1.56-1.17,2.32-1.83v-4.35h-2.03v-2.16h4.21v6.31c.51.9,1.33,1.44,2.42,1.73-.37-.39-1.07-.99-1.52-1.31,1.23-.37,2.57-.97,3.45-1.6h-3.72v-1.71h3.2v-1.23h-2.47v-1.71h2.47v-1.15l2.69.16c-.02.18-.16.29-.51.33v.66h2.24v-1.15l2.73.16c-.02.18-.16.29-.51.35v.64h2.57v1.71h-2.57v1.23h3.33v1.71h-3.78c1.36.66,2.9,1.48,3.8,2.08l-2.42.88c-.76-.62-2.2-1.54-3.57-2.2l1.34-.76h-4.15ZM180.01,138.51c1.03.94,2.26,2.28,2.77,3.23l-1.99,1.32c-.45-.97-1.62-2.4-2.63-3.39l1.85-1.17ZM186.77,140.99v-.82h-3.45v-1.48h5.42v3.8h-3.16c0,.78,0,.88.6.88h1.54c.39,0,.49-.12.54-.76.37.25,1.11.49,1.62.6-.19,1.33-.7,1.7-1.93,1.7h-2.07c-1.75,0-2.24-.43-2.24-2.01v-1.91h3.12ZM188.51,147.92v1.23h2.24v-1.23h-2.24ZM193.38,140.99v-.8h-3.68v-1.5h5.67v3.8h-3.35c0,.78,0,.88.64.88h1.62c.39,0,.49-.12.55-.78.37.25,1.13.49,1.64.58-.21,1.36-.7,1.73-1.95,1.73h-2.14c-1.79,0-2.26-.43-2.26-2.03v-1.89h3.27Z"/>
            <path class="cls-6" d="M208.46,146.17c-.43-.39-.78-.43-1.03-.43s-.58.16-.88.47c-.9.99-2.92,3.47-4.33,4.62-.76-.35-1.75-1.21-2.2-1.93.68-.49,1.36-1.01,1.91-1.52,1.21-1.09,2.3-2.38,3.33-3.47.62-.64,1.29-1.01,2.05-1.01.82,0,1.46.21,2.24.88,1.01.86,1.95,1.81,3.2,2.92,1.75,1.54,3.45,3.02,5.67,4.54-.23.8-1.13,1.91-1.85,2.28-1.29-.99-3.2-2.67-4.93-4.31l-3.18-3.04ZM215.57,144.18c-.21.29-.74.8-1.19,1.03-.55-.66-1.42-1.6-2.12-2.16.31-.35.84-.8,1.13-.99.62.47,1.68,1.48,2.18,2.12ZM217.54,142.51c-.23.29-.74.8-1.19,1.05-.54-.64-1.4-1.54-2.14-2.1.31-.35.84-.82,1.15-1.01.62.45,1.66,1.42,2.18,2.07Z"/>
            <path class="cls-6" d="M237.27,150.5c0,2.9-2.38,5.55-6.76,5.55-2.79,0-4.33-1.46-4.33-3.2,0-1.5,1.23-2.75,3-2.75,2.26,0,3.68,1.36,4.09,3.02.99-.58,1.52-1.52,1.52-2.65,0-1.71-1.42-2.84-3.76-2.84-3.39,0-5.28,2.4-6.68,4.42-.6-.45-1.4-1.31-1.79-1.97,1.33-1.48,3.6-3.82,4.93-5.14,1.19-1.19,2.4-2.36,2.98-3.02-1.09.16-2.94.39-4.74.55-.21-.6-.45-1.68-.51-2.42.56.04,1.29.06,1.85.02,1.6-.1,5.57-.43,6.47-.62.37.39.86,1.25,1.07,1.81-1.03.86-2.4,2.05-3.51,3.08-.78.74-1.44,1.38-1.83,1.83.76-.41,1.75-.58,2.46-.58,3.27,0,5.53,1.75,5.53,4.91ZM231.13,153.79c-.19-1.01-.82-1.71-1.77-1.71-.57,0-.9.35-.9.72,0,.64.68,1.03,1.79,1.03.31,0,.6-.02.88-.04Z"/>
            <path class="cls-6" d="M260.84,146.05h-11.61v-1.97h-1.34v3.62l2.05-.39.04.51h5.92v-1.64l2.83.12c-.02.19-.16.31-.51.37v1.15h2.38v2.14h-2.38v4.03c0,2.18-.84,2.47-4.23,2.47-.08-.64-.39-1.6-.68-2.22.9.04,1.91.04,2.2.04.29-.02.39-.08.39-.33v-3.99h-6.27v-.51l-1.73.45v6.57h-2.24v-6.02c-.8.19-1.54.37-2.14.51-.04.19-.19.31-.35.33l-.76-2.61c.88-.14,2.01-.33,3.25-.57v-4.03h-1.15c-.23,1.05-.51,2.03-.84,2.81-.31-.35-.99-.94-1.4-1.23.55-1.52.86-4.15,1.03-6.57l2.32.55c-.06.14-.19.25-.47.23-.06.64-.16,1.32-.25,1.99h.76v-3.76l2.75.16c-.02.18-.16.29-.51.35v3.25h2.03v2.03h3.9v-1.73h-3.49v-2.12h3.49v-1.95l2.85.16c-.02.19-.18.31-.53.39v1.4h3.62v2.12h-3.62v1.73h4.71v2.16ZM252.29,154.35c-.31-.84-1.15-2.14-1.87-3.08l1.81-.94c.74.9,1.62,2.12,1.97,2.96l-1.91,1.05Z"/>
            <path class="cls-6" d="M282.62,149.74v2.2h-5.51c1.99.95,4.11,2.12,5.38,2.92l-2.24,1.64c-1.23-.9-3.43-2.26-5.44-3.23l1.44-1.33h-5.88l2.01,1.31c-.06.08-.19.12-.39.14-1.27,1.03-3.74,2.4-5.79,3.12-.45-.49-1.29-1.27-1.89-1.73,1.95-.62,4.25-1.83,5.53-2.83h-5.55v-2.2h1.95v-9.39h4.03v-2.32l2.69.16c-.02.19-.16.29-.51.35v1.81h1.89v-2.32l2.73.16c-.02.19-.16.29-.51.35v1.81h4.29v9.39h1.77ZM270.27,142.51h-1.77v2.51h1.77v-2.51ZM268.49,147.18v2.55h1.77v-2.55h-1.77ZM274.34,142.51h-1.89v2.51h1.89v-2.51ZM274.34,149.74v-2.55h-1.89v2.55h1.89ZM278.49,142.51h-1.93v2.51h1.93v-2.51ZM276.56,147.18v2.55h1.93v-2.55h-1.93Z"/>
            <path class="cls-6" d="M116.56,178.8c-1.81,2.69-4.58,4.58-7.46,5.65-.8-.45-1.75-1.58-2.26-2.44,2.9-.68,5.2-1.79,7.09-4.11,1.25-1.5,1.99-3.64,2.22-5.3-1.73.02-8.89.12-10.58.16-.14-.66-.23-2.26-.23-2.81.82.06,1.73.12,2.4.12,1.13,0,7.52-.06,8.71-.1.37,0,.82-.02,1.27-.1.51.29,1.27.95,1.68,1.52-.49,2.42-1.17,4.93-2.83,7.4ZM118.45,168.86c0-1.11.9-2.01,2.03-2.01s2.01.9,2.01,2.03-.9,2.01-2.01,2.01-2.03-.9-2.03-2.01v-.02ZM119.47,168.9c0,.51.45.95,1.01.95.53,0,.97-.45.97-.97,0-.56-.45-1.01-.97-1.01-.56,0-1.01.45-1.01,1.01v.02Z"/>
            <path class="cls-6" d="M127.88,181.58c.06-1.66.06-7.01.06-10.27,0-.88-.04-1.87-.1-2.42.45,0,2.16.12,2.83.25-.14,1.62-.14,9.84-.14,11.67,3.14-.86,7.27-2.98,10.05-6.96.51.55,1.23,1.83,1.44,2.55-2.2,2.86-6.25,5.59-11.71,7.33-.31.12-.49.16-.8.29-.51-.25-1.38-.84-1.73-1.25.06-.43.08-.9.1-1.21Z"/>
            <path class="cls-6" d="M149.72,172.74c-.02-.82-.04-1.68-.08-2.34-.04-.68-.12-1.5-.21-2.1.88-.08,2.03,0,2.88.12,0,.86-.04,2.26-.06,3.98,2.51-.35,5.38-.8,6.47-1.05.41-.1.76-.21,1.01-.31.62.33,1.5.95,1.93,1.42-.68,1.36-3.2,5.2-4.93,6.66-.64-.16-1.91-.86-2.38-1.31,1.5-.94,3.18-2.92,3.88-4.07-.74.1-3.35.53-6,.97,0,2.1-.04,4.19-.04,5.14,0,1.07.39,1.79,2.75,1.79s4.83-.35,6.29-.84c.08.66-.12,2.16-.27,2.75-1.13.25-3.49.47-5.77.47-4.85,0-5.51-1.33-5.51-3.66,0-1.25.02-3.72.04-5.22l-3.49.6c-.33-.56-.74-1.77-.84-2.51.88-.06,1.97-.16,2.94-.29l1.38-.19ZM160.55,168.27c.45.58,1.03,1.7,1.27,2.3-.23.19-.76.45-1.17.58-.29-.72-.8-1.64-1.25-2.32.35-.23.8-.43,1.15-.57ZM163.84,169.68c-.23.19-.74.45-1.17.58-.33-.76-.82-1.62-1.25-2.24.37-.23.82-.45,1.17-.57.43.55,1.01,1.6,1.25,2.22Z"/>
            <path class="cls-6" d="M173.93,171.8c-.25.7-1.03,1.93-1.52,2.47-1.25-.97-3.51-2.34-5.2-3.12.31-.62,1.09-1.93,1.4-2.36,1.54.64,3.98,1.97,5.32,3ZM173.62,179.56c3.29-1.83,5.53-4.52,7.11-7.89.7.47,1.66,1.56,2.01,2.22-1.81,3.27-4.38,6.08-7.7,7.99-2.08,1.19-4.15,1.97-5.75,2.4-.72-.66-1.44-1.81-1.71-2.63,2.1-.31,4.27-1.07,6.04-2.08Z"/>
            <path class="cls-6" d="M192.89,176.13v5.96c0,.57.04,1.68.08,2.49-.74.08-2.26.02-3-.1.06-.62.12-1.66.14-2.47.06-1.79.12-9.94.1-11.48,0-.72-.04-1.73-.14-2.59.76-.02,2.2.04,2.9.16-.04.7-.08,2.86-.08,5.28,2.44.76,5.16,1.83,6.94,2.67-.16.76-.64,1.99-1.09,2.59-1.6-.88-3.88-1.87-5.85-2.51Z"/>
            <path class="cls-6" d="M204.77,181.8c0-1.05.72-1.79,1.71-1.79s1.71.74,1.71,1.79-.66,1.77-1.71,1.77-1.71-.78-1.71-1.77ZM207.61,178.62h-2.26l-.39-10.25h3.04l-.39,10.25Z"/>
          </g>
          <path class="cls-7" d="M80.32,152.01l3.6-10.31h2.34l3.68,10.31h-2.03l-1.83-5.35c-.18-.55-.37-1.18-.56-1.88-.19-.7-.41-1.49-.64-2.38h.39c-.23.9-.44,1.7-.63,2.4-.19.7-.36,1.32-.53,1.86l-1.77,5.35h-2.02ZM82.41,149.46v-1.49h5.43v1.49h-5.43Z"/>
          <path class="cls-7" d="M118.69,152.3v-10.31h3.94c.74,0,1.36.12,1.85.35.49.24.86.55,1.11.95.24.4.37.86.37,1.37,0,.42-.08.78-.24,1.08-.16.3-.38.54-.65.72-.27.18-.57.32-.91.39v.1c.36.02.71.13,1.05.33.34.2.61.49.83.86.21.37.32.81.32,1.34s-.13,1.01-.39,1.44c-.26.42-.65.76-1.17,1-.52.24-1.17.37-1.96.37h-4.16ZM120.54,146.39h1.86c.33,0,.62-.06.88-.18.26-.12.46-.29.61-.51s.22-.48.22-.79c0-.4-.14-.73-.42-.99s-.7-.39-1.25-.39h-1.9v2.86ZM120.54,150.76h2.02c.68,0,1.17-.13,1.48-.39.3-.26.45-.6.45-1.01,0-.31-.08-.59-.23-.83s-.37-.44-.65-.58c-.28-.14-.61-.21-.99-.21h-2.08v3.04Z"/>
        </g>
        <g>
          <path class="cls-7" d="M191.58,122.19c.78.55,1.76,1.24,3.29,1.24s2.51-.69,3.29-1.24c.7-.49,1.37-.96,2.41-.96.42,0,.76-.33.76-.74s-.34-.74-.76-.74c-1.53,0-2.51.69-3.29,1.24-.7.49-1.37.96-2.41.96s-1.71-.47-2.41-.96c-.78-.55-1.76-1.24-3.29-1.24v1.48c1.04,0,1.71.47,2.41.96Z"/>
          <path class="cls-7" d="M180.18,122.19c.78.55,1.76,1.24,3.29,1.24s2.51-.69,3.29-1.24c.7-.49,1.37-.96,2.41-.96v-1.48c-1.53,0-2.51.69-3.29,1.24-.7.49-1.37.96-2.41.96s-1.71-.47-2.41-.96c-.78-.55-1.76-1.24-3.29-1.24v1.48c1.04,0,1.71.47,2.41.96Z"/>
          <path class="cls-7" d="M168.78,122.19c.78.55,1.76,1.24,3.29,1.24s2.51-.69,3.29-1.24c.7-.49,1.37-.96,2.41-.96v-1.48c-1.53,0-2.51.69-3.29,1.24-.7.49-1.37.96-2.41.96s-1.71-.47-2.41-.96c-.78-.55-1.76-1.24-3.29-1.24v1.48c1.04,0,1.71.47,2.41.96Z"/>
          <path class="cls-7" d="M157.38,122.19c.79.55,1.76,1.24,3.29,1.24s2.51-.69,3.29-1.24c.7-.49,1.37-.96,2.41-.96v-1.48c-1.53,0-2.51.69-3.29,1.24-.7.49-1.37.96-2.41.96s-1.71-.47-2.41-.96c-.78-.55-1.76-1.24-3.29-1.24v1.48c1.04,0,1.71.47,2.41.96Z"/>
          <path class="cls-7" d="M145.98,122.19c.78.55,1.76,1.24,3.29,1.24s2.51-.69,3.29-1.24c.7-.49,1.37-.96,2.41-.96v-1.48c-1.53,0-2.51.69-3.29,1.24-.7.49-1.37.96-2.41.96s-1.71-.47-2.41-.96c-.78-.55-1.76-1.24-3.29-1.24v1.48c1.04,0,1.71.47,2.41.96Z"/>
          <path class="cls-7" d="M134.58,122.19c.79.55,1.76,1.24,3.29,1.24s2.51-.69,3.29-1.24c.7-.49,1.37-.96,2.41-.96v-1.48c-1.53,0-2.51.69-3.29,1.24-.7.49-1.37.96-2.41.96s-1.71-.47-2.41-.96c-.78-.55-1.76-1.24-3.29-1.24v1.48c1.04,0,1.71.47,2.41.96Z"/>
          <path class="cls-7" d="M123.18,122.19c.79.55,1.76,1.24,3.29,1.24s2.51-.69,3.29-1.24c.7-.49,1.37-.96,2.41-.96v-1.48c-1.53,0-2.51.69-3.29,1.24-.7.49-1.37.96-2.41.96s-1.71-.47-2.41-.96c-.78-.55-1.76-1.24-3.29-1.24v1.48c1.04,0,1.71.47,2.41.96Z"/>
          <path class="cls-7" d="M111.78,122.19c.79.55,1.76,1.24,3.29,1.24s2.51-.69,3.29-1.24c.7-.49,1.37-.96,2.41-.96v-1.48c-1.53,0-2.51.69-3.29,1.24-.7.49-1.37.96-2.41.96s-1.71-.47-2.41-.96c-.78-.55-1.76-1.24-3.29-1.24v1.48c1.04,0,1.7.47,2.41.96Z"/>
          <path class="cls-7" d="M100.38,122.19c.79.55,1.76,1.24,3.29,1.24s2.51-.69,3.29-1.24c.7-.49,1.37-.96,2.41-.96v-1.48c-1.53,0-2.51.69-3.29,1.24-.7.49-1.37.96-2.41.96s-1.71-.47-2.41-.96c-.78-.55-1.76-1.24-3.29-1.24v1.48c1.04,0,1.7.47,2.41.96Z"/>
          <path class="cls-7" d="M88.98,122.19c.79.55,1.76,1.24,3.29,1.24s2.51-.69,3.29-1.24c.7-.49,1.37-.96,2.41-.96v-1.48c-1.53,0-2.51.69-3.29,1.24-.7.49-1.37.96-2.41.96s-1.71-.47-2.41-.96c-.78-.55-1.76-1.24-3.29-1.24v1.48c1.04,0,1.7.47,2.41.96Z"/>
          <path class="cls-7" d="M77.58,122.19c.78.55,1.76,1.24,3.29,1.24s2.51-.69,3.29-1.24c.7-.49,1.37-.96,2.41-.96v-1.48c-1.53,0-2.51.69-3.29,1.24-.7.49-1.37.96-2.41.96s-1.71-.47-2.41-.96c-.78-.55-1.76-1.24-3.29-1.24v1.48c1.04,0,1.71.47,2.41.96Z"/>
          <path class="cls-7" d="M66.17,122.19c.79.55,1.76,1.24,3.29,1.24s2.51-.69,3.29-1.24c.7-.49,1.37-.96,2.41-.96v-1.48c-1.53,0-2.51.69-3.29,1.24-.7.49-1.37.96-2.41.96s-1.71-.47-2.41-.96c-.78-.55-1.76-1.24-3.29-1.24v1.48c1.04,0,1.7.47,2.41.96Z"/>
          <path class="cls-7" d="M54.78,122.19c.78.55,1.76,1.24,3.29,1.24s2.51-.69,3.29-1.24c.7-.49,1.37-.96,2.41-.96v-1.48c-1.53,0-2.51.69-3.29,1.24-.7.49-1.37.96-2.41.96s-1.7-.47-2.41-.96c-.79-.55-1.76-1.24-3.29-1.24v1.48c1.04,0,1.71.47,2.41.96Z"/>
          <path class="cls-7" d="M43.38,122.19c.78.55,1.76,1.24,3.29,1.24s2.51-.69,3.29-1.24c.7-.49,1.37-.96,2.41-.96v-1.48c-1.53,0-2.51.69-3.29,1.24-.7.49-1.37.96-2.41.96s-1.71-.47-2.41-.96c-.78-.55-1.76-1.24-3.29-1.24v1.48c1.04,0,1.71.47,2.41.96Z"/>
          <path class="cls-7" d="M38.56,122.19c-.78.55-1.76,1.24-3.29,1.24s-2.51-.69-3.29-1.24c-.7-.49-1.37-.96-2.41-.96-.42,0-.76-.33-.76-.74s.34-.74.76-.74c1.53,0,2.51.69,3.29,1.24.7.49,1.37.96,2.41.96s1.71-.47,2.41-.96c.78-.55,1.76-1.24,3.29-1.24v1.48c-1.04,0-1.71.47-2.41.96Z"/>
        </g>
        <g>
          <g>
            <rect class="cls-7" x="59.86" y="30.97" width="193.92" height="28.4" rx="14.2" ry="14.2"/>
            <g>
              <path class="cls-4" d="M83.06,47.85c.83.86,1.68,1.79,1.92,2.08-.32.48-1,1.14-1.64,1.49-.59-.79-1.68-2.08-2.68-3.03s-1.96-1.82-2.89-2.49c.41-.45,1.05-1,1.54-1.32.41.28,1.42,1.1,2.36,1.95,1.74-1.32,3.25-3.13,3.82-4.15-1.57-.03-8.28.07-9.52.12-.12-.5-.26-1.46-.29-1.95.57.01,1.2.04,1.74.04,1.05.01,7.63-.01,8.83-.06.35-.01.63-.03,1.01-.09.37.25.91.79,1.17,1.11-.95,1.86-2.96,4.35-5.38,6.28Z"/>
              <path class="cls-4" d="M96.17,41.79c-.19.53-.78,1.45-1.14,1.86-.94-.73-2.64-1.76-3.91-2.34.23-.47.82-1.45,1.05-1.77,1.16.48,2.99,1.48,4,2.26ZM95.93,47.62c2.48-1.38,4.16-3.4,5.35-5.93.53.35,1.25,1.17,1.51,1.67-1.36,2.46-3.3,4.57-5.79,6.01-1.57.89-3.12,1.48-4.32,1.8-.54-.5-1.08-1.36-1.29-1.98,1.58-.23,3.21-.81,4.54-1.57Z"/>
              <path class="cls-4" d="M108.91,43.98c-.37.28-1.2.69-1.79.85-.4-.92-1.22-2.64-1.7-3.4.45-.29,1.32-.66,1.79-.83.5.86,1.27,2.37,1.7,3.38ZM117.92,40.95c-.47,2.18-1.27,4.16-2.56,5.99-1.58,2.27-3.94,3.63-5.58,4.32-.51-.28-1.3-1.16-1.66-1.73,1.83-.51,4.15-1.71,5.62-3.69,1.23-1.66,1.96-3.79,2.17-5.84.64.18,1.54.57,2.01.95ZM112.82,42.61c-.38.26-1.2.63-1.82.81-.35-.94-1.1-2.67-1.54-3.44.47-.26,1.3-.62,1.8-.76.47.85,1.17,2.39,1.55,3.4Z"/>
              <path class="cls-4" d="M123.5,44.11c3.28,0,8.04-.06,9.73-.09.09.45.1,1.64.07,2.14-2.21-.09-10.03.03-12.01.01-.09-.5-.16-1.58-.15-2.17.48.04,1.57.1,2.36.1Z"/>
              <path class="cls-4" d="M143.7,47.85c.83.86,1.68,1.79,1.92,2.08-.32.48-1,1.14-1.64,1.49-.59-.79-1.68-2.08-2.68-3.03s-1.96-1.82-2.89-2.49c.41-.45,1.05-1,1.54-1.32.41.28,1.42,1.1,2.36,1.95,1.74-1.32,3.25-3.13,3.82-4.15-1.57-.03-8.28.07-9.52.12-.12-.5-.26-1.46-.29-1.95.57.01,1.2.04,1.74.04,1.05.01,7.63-.01,8.83-.06.35-.01.63-.03,1.01-.09.37.25.91.79,1.17,1.11-.95,1.86-2.96,4.35-5.38,6.28Z"/>
              <path class="cls-4" d="M156.82,41.79c-.19.53-.78,1.45-1.14,1.86-.94-.73-2.64-1.76-3.91-2.34.23-.47.82-1.45,1.05-1.77,1.16.48,2.99,1.48,4,2.26ZM156.58,47.62c2.48-1.38,4.16-3.4,5.35-5.93.53.35,1.25,1.17,1.51,1.67-1.36,2.46-3.3,4.57-5.79,6.01-1.57.89-3.12,1.48-4.32,1.8-.54-.5-1.08-1.36-1.29-1.98,1.58-.23,3.21-.81,4.54-1.57Z"/>
              <path class="cls-4" d="M177.44,41.92c.32,0,1.05-.03,1.41-.04.09.53.12,1.22.06,1.79-.4,0-.88-.01-1.32-.01h-1.49c-.03,3.88-1.04,6.21-4.76,7.78-.42-.25-1.27-1.07-1.63-1.66.63-.13,1.32-.32,1.77-.57,1.9-1,2.72-2.42,2.72-5.52l-3.38.03v3.34c-.5.06-1.32.07-1.95,0,.01-.21.04-.91.06-1.36.01-.51.01-1.23.01-1.96h-1.32c-.41.01-1,.03-1.39.04-.12-.42-.18-1.42-.15-1.83.42.03.83.04,1.33.06h1.52c0-.63-.01-1.14-.01-1.42,0-.47-.03-1-.07-1.41.51,0,1.49.01,1.98.09,0,.32-.01,1.44-.01,2.74l3.37-.03c0-.62-.01-1.2-.03-1.58-.01-.34-.03-.94-.09-1.41.56-.01,1.55.03,2.07.09-.01.69-.03,1.79-.03,2.87h1.33Z"/>
              <path class="cls-4" d="M185.35,45.13c-.42,1.25-1.51,3.46-2.24,4.39-.47-.15-1.27-.53-1.7-.86.88-1.03,1.82-2.77,2.26-4.22.48.15,1.3.47,1.68.69ZM189.03,43.16c0,1.64.03,5.61.03,6.74,0,.86-.5,1.38-1.54,1.38-.7,0-1.73-.09-2.45-.21-.13-.38-.26-1.55-.26-1.93.63.19,1.44.31,1.86.31.37,0,.54-.1.56-.53,0-.57-.03-4.29-.03-5.73-1.66.01-3.13.03-3.54.03s-1,.01-1.39.01c-.07-.42-.15-1.42-.15-1.83.44.03.85.03,1.35.04.38.01,1.98,0,3.74-.01,0-.95-.01-2.05-.09-2.4.48-.03,1.51.01,2.01.07-.01.45-.06,1.35-.07,2.31,1.67-.01,3.15-.04,3.47-.04s1.03-.01,1.36-.03c.03.42.07,1.39.07,1.8-.41-.01-.86-.01-1.27-.01-.44,0-1.96.01-3.65.03ZM192.21,44.44c.64.83,1.89,3.13,2.26,4.39-.38.26-1.17.59-1.79.75-.42-1.61-1.27-3.27-2.08-4.41.41-.23,1.16-.59,1.61-.73ZM191.69,39.59c0-.78.64-1.42,1.44-1.42s1.45.64,1.45,1.44-.64,1.45-1.45,1.45-1.44-.64-1.44-1.45h0ZM192.4,39.62c0,.4.34.72.73.72s.72-.32.72-.73-.32-.72-.72-.72-.73.32-.73.72h0Z"/>
              <path class="cls-4" d="M200.12,44.11c3.28,0,8.04-.06,9.73-.09.09.45.1,1.64.07,2.14-2.21-.09-10.03.03-12.01.01-.09-.5-.16-1.58-.15-2.17.48.04,1.57.1,2.36.1Z"/>
              <path class="cls-4" d="M217.36,45.04v4.48c0,.42.03,1.26.06,1.88-.56.06-1.7.01-2.26-.07.04-.47.09-1.25.1-1.86.04-1.35.09-7.47.07-8.63,0-.54-.03-1.3-.1-1.95.57-.01,1.66.03,2.18.12-.03.53-.06,2.15-.06,3.97,1.83.57,3.88,1.38,5.21,2.01-.12.57-.48,1.49-.82,1.95-1.2-.66-2.92-1.41-4.39-1.89Z"/>
              <path class="cls-4" d="M235.89,49.1c.09.64-.03,1.48-.21,2.04-.53.18-2.04.4-3.34.4-2.07,0-4.16-.66-4.16-2.71,0-1.83,1.57-2.74,3.33-3.62-.12-.41-.53-.7-1.08-.7-1.08,0-2.01.85-3.19,2.36-.47-.34-1.04-.91-1.33-1.41,1.55-1.38,2.55-2.68,3.15-3.74-.7.04-1.39.07-1.99.07-.16-.44-.31-1.25-.32-1.79.45.07.92.1,1.33.1.47,0,1.08-.01,1.76-.06.22-.62.41-1.3.5-1.89.53.04,1.44.28,1.86.48-.09.28-.25.75-.44,1.22.94-.12,1.83-.28,2.49-.51.15.42.22,1.19.19,1.64-.88.22-2.14.42-3.46.57-.34.59-.78,1.27-1.17,1.82.51-.21,1-.31,1.39-.31.79,0,1.6.42,1.89,1.35,1.07-.54,2.02-1.01,2.74-1.44.34-.21.7-.44,1.08-.75.31.38.6,1.25.67,1.74-.44.34-2.8,1.42-4.37,2.15.01.73.01,1.7.03,2.34-.47.07-1.23.07-1.74-.01.04-.29.06-.91.06-1.54-1.04.56-1.52,1.05-1.52,1.71,0,.81.82,1.16,2.36,1.16,1.32,0,2.7-.37,3.5-.69Z"/>
            </g>
          </g>
          <g>
            <path class="cls-5" d="M36.17,96.77c-1.5,1.23-3.1,2.38-4.78,3.37-.53-.88-1.6-2.27-2.43-3.02,4.52-2.43,8.84-6.71,10.77-10.02l4.97.32c-.11.32-.37.56-.78.61,2.57,3.47,7.05,6.95,10.96,8.68-.99.96-1.84,2.24-2.57,3.42-1.66-.96-3.37-2.14-4.94-3.45v2.35h-11.2v-2.27ZM47.88,101.13l.83-.08,2.59.85c-.08.24-.21.51-.35.69-1.1,2.7-2.99,6.84-4.62,10.29l-4.17-1.12c1.09-2.16,2.32-4.76,3.29-6.97h-13.07v-3.66h15.5ZM45.93,95.46c-1.68-1.5-3.15-3.05-4.17-4.46-1.01,1.44-2.4,2.97-4.06,4.46h8.23Z"/>
            <path class="cls-5" d="M62.2,92.92c.8,0,1.68-.05,2.62-.13.05-.35.11-.64.16-.91.21-1.34.43-2.75.45-3.93,1.15.16,3.58.61,4.52,1.02-.11.53-.37,1.74-.67,3.18,1.12-.24,2.16-.51,2.94-.8.11.99.05,3.34-.08,4.25-.94.27-2.25.56-3.82.77-.21.96-.45,1.92-.67,2.78-1.15,4.25-2.75,9.54-3.93,12.69-1.31-.21-3.61-.83-4.59-1.47,1.36-2.91,3.47-8.58,4.49-12.42l.27-1.07c-1.18.08-2.41.13-3.63.16-.27-.88-.56-3.29-.59-4.27.72.11,1.47.16,2.51.16h.03ZM76.82,107.86c1.98,0,4.01-.43,5.26-.8,0,.96-.24,3.26-.64,4.25-1.02.27-3.13.51-5.13.51-4.89,0-7.16-2.06-7.16-4.84,0-1.58.67-3.42,1.07-4.17,1.15.19,2.78.77,3.66,1.28-.4.67-.64,1.36-.64,1.98,0,1.18,1.15,1.79,3.58,1.79ZM77.91,94.07c1.5,0,3.45.13,4.46.29,0,.94-.16,2.91-.4,3.95-1.12-.24-2.73-.35-4.14-.37-1.66-.03-3.26.05-4.52.24-.11-.69-.05-2.86.05-3.93,1.31-.13,2.91-.21,4.52-.19h.03ZM78.9,93.17c-.4-.99-.93-2.24-1.55-3.23.56-.37,1.52-.72,2.03-.85.53.8,1.28,2.22,1.63,3.18-.45.32-1.42.75-2.11.91ZM82,92.12c-.37-.96-.96-2.19-1.6-3.18.59-.32,1.55-.72,2.06-.85.56.8,1.26,2.14,1.66,3.13-.43.29-1.36.77-2.11.91Z"/>
            <path class="cls-5" d="M97.64,102.09c-.8,1.58-1.9,3.9-2.51,5.56-.56,1.39-.88,2.32-1.2,3.34-.93,0-2.56-.35-3.58-.77-.51-1.76-.86-4.89-.86-7.67,0-3.85.46-8.28.7-10.58.11-.85.24-2.03.29-2.97,1.18.11,3.34.4,4.35.8-.75,3.66-1.47,9.06-1.47,11.86,0,.53.05,1.23.13,1.47.03.13.11.19.16,0,.35-.72,1.12-2.86,1.5-3.77.77.56,2,1.95,2.48,2.73ZM112.76,97.2c-.83.19-2.03.35-3.5.51.03.91.05,1.68.05,2.22,0,6.41-1.44,10.02-5.64,12.64-1.04-.32-2.99-1.74-3.79-2.99.83-.32,1.5-.64,2.35-1.34,2.54-2.08,2.99-5.21,2.99-8.84,0-.37,0-.85-.03-1.42-1.95.08-4.06.08-6.07-.05-.45-.85-.75-2.81-.72-4.17,1.9.32,4.33.43,6.68.37-.08-2.22-.21-4.33-.37-5.02,1.39-.08,3.39.03,4.49.27-.08,1.07-.05,2.75-.03,4.49,1.42-.16,2.65-.4,3.47-.67.24,1.18.27,2.94.11,4.01Z"/>
            <path class="cls-5" d="M141.78,100.49c0,5.93-3.21,10.26-9.83,11.27-.83-.85-2.03-2.97-2.38-4.22.93-.03,1.84-.19,2.62-.35,2.94-.61,5.16-2.78,5.16-6.73,0-3.74-2.27-6.06-5.56-6.55-.13,1.92-.43,4.57-.96,6.84-1.26,5.45-3.29,9.46-7.03,9.46-2.99,0-5.9-3.79-5.9-8.6,0-6.73,5.32-11.65,12.5-11.65,6.44,0,11.38,4.03,11.38,10.53ZM127.51,94.21c-3.74,1.12-5.42,4.44-5.42,7.13,0,2.54.99,3.85,1.79,3.85,1.23,0,2.14-2.22,2.86-5.32.37-1.66.67-3.74.77-5.66Z"/>
            <path class="cls-5" d="M171.87,98.72h-16v-2.67h-1.42v4.46l2.43-.37.03.48h7.75v-1.82l4.62.19c-.03.29-.24.48-.78.56v1.07h2.99v3.55h-2.99v4.68c0,3.07-.96,3.98-6.04,3.98-.11-1.1-.61-2.65-1.1-3.69l-1.63.88c-.37-1.1-1.39-2.83-2.24-4.09l2.99-1.55c.88,1.2,1.98,2.81,2.43,3.9l-1.52.83c1.04.05,2.35.05,2.75.05.37,0,.51-.08.51-.4v-4.6h-8.2v-.53l-2,.48v8.68h-3.71v-7.83c-.99.24-1.87.43-2.64.59-.05.27-.29.45-.54.48l-1.2-4.3c1.18-.16,2.7-.37,4.38-.64v-5.05h-1.23c-.29,1.36-.67,2.65-1.12,3.66-.51-.56-1.6-1.58-2.27-2.06.72-2.06,1.12-5.64,1.34-8.87l3.29.75v-2.11l4.49.24c-.03.29-.24.45-.78.56v4.14h2.46v2.78h5.02v-1.84h-4.52v-3.5h4.52v-2.38l4.65.24c-.03.29-.27.48-.8.59v1.55h4.65v3.5h-4.65v1.84h6.09v3.58ZM150.5,89.99c-.08.77-.19,1.58-.29,2.38h.53v-2.38h-.24Z"/>
            <path class="cls-5" d="M201.19,103.02v3.66h-6.57c2.46,1.2,4.97,2.54,6.47,3.47l-3.74,2.7c-1.63-1.18-4.65-3.07-7.35-4.38l1.98-1.79h-7.13l2.67,1.79c-.11.11-.29.16-.53.19-1.74,1.39-5.18,3.23-7.99,4.17-.75-.83-2.16-2.11-3.15-2.89,2.38-.69,5.13-2.03,6.92-3.26h-6.81v-3.66h2.62v-12.61h5.4v-3.1l4.38.24c-.03.29-.24.45-.77.53v2.32h1.79v-3.1l4.46.24c-.03.29-.24.45-.77.56v2.3h5.77v12.61h2.38ZM183.95,93.99h-1.66v2.7h1.66v-2.7ZM182.3,100.25v2.78h1.66v-2.78h-1.66ZM189.35,93.99h-1.79v2.7h1.79v-2.7ZM189.35,103.02v-2.78h-1.79v2.78h1.79ZM194.88,93.99h-1.84v2.7h1.84v-2.7ZM193.04,100.25v2.78h1.84v-2.78h-1.84Z"/>
            <path class="cls-6" d="M208,94.98c1.48-.17,13.29-1.78,15.35-1.78.28.67.43,1.85.43,2.63-.8-.04-2.28,0-3.58.43-3.37,1.06-4.84,4.13-4.84,6.56,0,3.8,3.17,5.04,6.67,5.04-.07.89-.56,2.32-1.04,2.93-4.15-.02-8.6-2.17-8.6-7.38,0-3.24,1.56-5.56,3.32-6.93-2.15.26-6.8,1.19-9.08,1.52-.39-.61-.89-2.15-1-2.87.89-.02,1.98-.11,2.37-.15ZM222.38,100.69c-.28.24-.89.56-1.39.67-.35-.8-.91-1.98-1.37-2.71.39-.26,1.02-.52,1.37-.63.41.61,1.15,2.02,1.39,2.67ZM224.92,99.64c-.3.24-.93.54-1.41.69-.35-.78-.96-1.95-1.41-2.69.39-.26,1-.54,1.39-.65.43.65,1.13,1.95,1.43,2.65Z"/>
            <path class="cls-6" d="M248.69,98.38h-4.69c1.24,3.04,3.21,6.04,5.3,7.79-.61.48-1.48,1.37-1.91,2.04-.65-.63-1.26-1.41-1.85-2.26v1.91h-2.89v3.84h-2.54v-3.84h-2.82v-2c-.65.91-1.32,1.74-2.04,2.41-.37-.52-1.02-1.26-1.56-1.74v5.17h-2.52v-11.16c-.61.89-1.24,1.72-1.89,2.43-.24-.65-.87-2-1.24-2.63,1.91-2.02,3.84-5.6,4.99-9.08l2.89,1c-.09.17-.28.28-.61.26-.54,1.39-1.17,2.8-1.87,4.15l.8.22c-.04.2-.2.35-.56.37v8.79c2.04-1.78,3.93-4.71,5.1-7.69h-4.23v-2.48h5.56v-4.43l3.1.17c-.02.2-.17.35-.56.39v3.86h6.04v2.48ZM240.12,100.58c-.74,1.78-1.61,3.5-2.58,4.95h2.58v-4.95ZM242.66,105.53h2.61c-1-1.52-1.87-3.28-2.61-5.1v5.1Z"/>
            <path class="cls-6" d="M254.58,105.25c-.11,2-.35,4.04-1.24,5.25l-1.32-.72c.78-1.11,1.04-2.95,1.13-4.82l1.43.28ZM258.92,95.37h2v1.98h-2v1.3h2v1.95h-2v1.35h1.24l.48-.02,1.19.09c0,.2-.02.46-.04.67-.22,5.43-.43,7.47-.98,8.14-.48.69-1,.89-3.21.82-.04-.63-.24-1.48-.54-2.02.59.07,1.06.07,1.35.07.24,0,.39-.04.57-.26.17-.22.3-.76.41-1.89l-.67.24c-.13-.78-.56-1.95-.98-2.82l1.02-.35c.26.5.5,1.11.7,1.67h.02c.04-.65.09-1.41.13-2.32h-4.15v.48h-2.15v-12.44h8.06v2.11h-2.43v1.26ZM254.97,109.44c.02-.28.02-.59.02-.91,0-1-.07-2.17-.22-3.15l1.13-.11c.17,1,.26,2.24.26,3.24,0,.28,0,.54-.02.78l-1.17.15ZM256.84,94.11h-1.39v1.26h1.39v-1.26ZM256.84,98.65v-1.3h-1.39v1.3h1.39ZM256.84,101.95v-1.35h-1.39v1.35h1.39ZM256.92,108.81c-.04-.96-.33-2.43-.65-3.56l1.11-.22c.35,1.13.65,2.58.72,3.52l-1.17.26ZM271.99,105.48h-3.1c.85,1.87,2.28,3.43,4.17,4.21-.54.48-1.3,1.41-1.67,2.06-1.76-.96-3.08-2.56-4.02-4.52-.74,1.72-2.08,3.32-4.49,4.56-.33-.54-1.09-1.41-1.58-1.82,2.47-1.22,3.65-2.82,4.19-4.49h-3.13v-5.8h3.56v-1h-2.21v-1.3c-.5.43-1.04.85-1.59,1.17-.26-.63-.74-1.56-1.19-2.08,2-1.15,3.95-3.43,4.84-5.23l2.82.09c-.04.17-.17.28-.37.33,1.11,1.67,3.11,3.56,4.89,4.45-.48.61-1,1.59-1.35,2.3-.43-.26-.89-.59-1.33-.96v1.24h-2.21v1h3.78v5.8ZM264.46,103.51h1.39c.07-.72.07-1.15.07-1.85h-1.46v1.85ZM269.49,96.63c-1-.98-1.91-2.08-2.54-3.1-.54.98-1.41,2.11-2.43,3.1h4.97ZM269.75,101.66h-1.54c0,1,0,1.37-.04,1.85h1.58v-1.85Z"/>
            <path class="cls-6" d="M278.22,108.17c0-1.21.93-2.21,2.08-2.21s2.06,1,2.06,2.21-.91,2.21-2.06,2.21-2.08-1.03-2.08-2.21ZM279.09,104.3l-.54-11.74h3.6l-.52,11.74h-2.54Z"/>
          </g>
          <circle class="cls-5" cx="42.96" cy="77.83" r="3.04"/>
          <circle class="cls-5" cx="72.29" cy="77.83" r="3.04"/>
          <circle class="cls-5" cx="101.63" cy="77.83" r="3.04"/>
          <circle class="cls-5" cx="130.97" cy="77.83" r="3.04"/>
          <circle class="cls-5" cx="160.3" cy="77.83" r="3.04"/>
          <circle class="cls-5" cx="189.64" cy="77.83" r="3.04"/>
          <g>
            <g>
              <path class="cls-6" d="M137.48,6.99c.98,1.71,1.87,3.65,2.05,4.37-.18.37-.82,1.12-1.21,1.34-1.18-.46-3.01-.94-4.67-1.32.14-.52.52-1.43.8-1.84.84.23,2.1.64,2.48.78-.16-.45-.75-1.55-1.44-2.74-.2-.32-.37-.64-.57-.94-1.8.45-4.17.8-6.29.89-.36-.46-.78-1.57-.93-2.26,1.73.11,4.12-.09,6.04-.5-.25-.37-.48-.73-.7-1.05-.36-.5-.75-1.07-1.14-1.53.52-.3,1.6-.71,2.17-.84.39.57,1.05,1.62,1.8,2.85,1.41-.46,2.46-.98,3.35-1.53.34.52.59,1.6.62,2.14-.61.36-1.69.82-2.91,1.25.18.3.36.62.53.94ZM137.09,14.53c.04.62-.12,1.85-.32,2.33-.86.2-1.8.36-3.01.36-3.87,0-5.93-1.64-5.93-3.78,0-1.1.61-2.19,1.16-2.76.61.18,1.35.57,1.78.98-.39.39-.66,1-.66,1.51,0,1.19,1.21,1.89,3.51,1.89,1.46,0,2.66-.29,3.48-.53Z"/>
              <path class="cls-6" d="M148.26,10.11c1.57-1.35,3.39-2.12,5.4-2.12,2.91,0,4.54,1.82,4.54,4.08,0,4.08-4.33,5.54-8.18,5.28-.36-.5-.68-1.66-.75-2.33,4.06.45,6.59-.77,6.59-3.01,0-1.12-.91-1.92-2.44-1.92-2.19,0-3.92,1.21-5.06,2.53-.21.25-.46.64-.62.91-.52-.2-1.48-.64-1.89-.96.16-1.09.46-7.11.46-7.81.68.05,1.82.25,2.33.41-.14.96-.37,4.05-.39,4.95ZM148.28,1.43c1.71.57,4.54,1.3,5.93,1.57-.09.62-.36,1.5-.7,2.05-1.18-.21-5.06-1.27-5.92-1.62.11-.59.46-1.59.68-2Z"/>
              <path class="cls-6" d="M166.47,2.89c-.5,2.26-.77,4.35-.87,6.45-.04.8-.04,1.73.05,2.28.02.18.09.25.18.04.21-.53.59-1.6.89-2.44.54.25,1.27.75,1.6,1.18-.84,1.59-2.1,4.87-2.53,6.33-.52.02-1.28-.04-1.85-.18-.36-1.03-.61-3.3-.61-5.2-.02-2.71.25-5.36.46-6.95.07-.59.18-1.43.21-2.01.73.05,1.85.27,2.46.52ZM171.34,11.34c-.2.39-.36.91-.36,1.32,0,.77.64,1.35,2.66,1.35,1.69,0,3.26-.34,4.28-.8.18.59.23,1.85.14,2.5-.61.2-2.37.62-4.54.62-3.21,0-4.83-1.18-4.83-3.07,0-.75.21-1.71.57-2.53.71.09,1.59.37,2.08.61ZM177.31,3.3c.11.53.09,1.73.02,2.28-1.69.27-5.53.29-7.24.11-.14-.55-.23-1.62-.18-2.35,2.14.37,5.81.32,7.4-.04Z"/>
              <path class="cls-6" d="M181.78,14.67c0-.96.66-1.64,1.57-1.64s1.57.68,1.57,1.64-.61,1.62-1.57,1.62-1.57-.71-1.57-1.62ZM184.38,11.76h-2.07l-.36-9.37h2.78l-.36,9.37Z"/>
            </g>
            <g>
              <rect class="cls-6" x="110.36" y="-1.05" width=".7" height="21.06" transform="translate(8.32 52.66) rotate(-27.76)"/>
              <rect class="cls-6" x="192.39" y="9.13" width="21.06" height=".7" transform="translate(100 184.62) rotate(-62.23)"/>
            </g>
          </g>
        </g>
      </g>
      <g>
        <rect class="cls-7" y="410.09" width="313.63" height="197.33" rx="16.51" ry="16.51"/>
        <g>
          <path class="cls-3" d="M156.82,403.8c8.29,0,14.97,6.69,14.97,14.97s-6.69,14.97-14.97,14.97-14.97-6.69-14.97-14.97,6.75-14.97,14.97-14.97Z"/>
          <path class="cls-7" d="M156.87,410.95c3.53,0,5.33,1.31,5.33,3.9,0,1.55-.89,2.79-2.2,3.27,1.7.48,2.68,1.66,2.68,3.55,0,2.26-1.44,4.31-5.33,4.31h-5.31v-15.02h4.83ZM154.57,417.09h2.46c1.87,0,2.66-.85,2.66-2.09,0-1.18-.59-1.87-2.98-1.87h-2.13v3.96ZM154.57,423.8h2.63c2.03,0,2.96-.83,2.96-2.26,0-1.59-1.04-2.26-3.27-2.26h-2.33v4.53Z"/>
        </g>
        <g>
          <path class="cls-4" d="M105.65,458.19v2.11h-7.54v3.13h-2.36v-3.13h-7.41v-2.11h7.41v-1.25h-5.72v-8.07h1.62c-.4-.72-1.03-1.65-1.6-2.36l1.96-.89c.7.8,1.56,1.92,1.94,2.68-.42.21-.8.4-1.16.57h3.38c-.29-.78-.87-1.82-1.44-2.64l2.05-.78c.65.87,1.37,2.07,1.69,2.87l-1.37.55h2.83c.68-.93,1.46-2.32,1.9-3.34l2.74.99c-.08.13-.27.21-.55.21-.36.65-.91,1.44-1.44,2.15h1.52v8.07h-5.98v1.25h7.54ZM95.75,452.01v-1.27h-3.5v1.27h3.5ZM92.25,455.09h3.5v-1.33h-3.5v1.33ZM101.75,452.01v-1.27h-3.65v1.27h3.65ZM101.75,455.09v-1.33h-3.65v1.33h3.65Z"/>
          <path class="cls-4" d="M122.71,454.16h-1.75v2.17h4.08v2.09h-4.08v2.07c0,.7.08.82.61.82h1.48c.49,0,.59-.38.67-2.18.49.38,1.42.76,2.05.89-.23,2.53-.82,3.31-2.51,3.31h-2.09c-2.07,0-2.58-.68-2.58-2.81v-2.09h-2.55c-.42,2.03-1.69,3.93-5.24,5.11-.29-.51-.97-1.41-1.44-1.82,2.66-.82,3.8-2.01,4.27-3.29h-3.8v-2.09h4.1v-2.17h-1.62v-.59c-.8.61-1.65,1.12-2.53,1.54-.3-.53-.93-1.31-1.39-1.73,1.1-.46,2.18-1.16,3.15-1.99-.51-.49-1.27-1.16-1.9-1.63l1.44-1.18c.57.38,1.29.95,1.82,1.41.47-.55.87-1.14,1.22-1.77h-3.91v-1.96h5.19l.36-.08,1.6.72c-.06.11-.17.21-.29.28-.65,1.84-1.69,3.46-2.98,4.81h6.92c-1.48-1.61-2.64-3.61-3.5-5.87l2.05-.57c.27.7.57,1.39.95,2.03.65-.57,1.29-1.23,1.73-1.77l1.92,1.44c-.11.13-.36.15-.55.11-.51.48-1.37,1.16-2.11,1.69.27.34.55.68.85,1.01.78-.65,1.62-1.44,2.17-2.07l1.88,1.41c-.08.09-.19.13-.34.13-.06,0-.11,0-.17-.02-.57.49-1.44,1.2-2.24,1.75.89.72,1.9,1.31,2.98,1.75-.53.46-1.23,1.35-1.58,1.96-.85-.4-1.63-.87-2.36-1.44v.63ZM118.59,456.33v-2.17h-2.38v2.17h2.38Z"/>
          <path class="cls-4" d="M133.41,449.6c.93.15,2.07.53,2.72.82-.3,1.58-.97,3.88-1.71,5.62-.91,2.2-1.84,3.91-2.89,5.15-.87-.27-2.03-.8-2.66-1.35,1.56-1.54,2.38-3.12,3.1-4.77.63-1.41,1.27-3.7,1.44-5.47ZM139.43,450.65c.61-.36,1.73-.84,2.38-1.04.84,1.25,1.63,2.68,2.47,4.58,1.06,2.36,1.56,3.91,1.98,5.59-.51.44-1.82.95-2.77,1.1-.27-1.63-.8-3.74-1.67-5.79-.74-1.73-1.58-3.36-2.38-4.43ZM143.04,449.26c0-1.1.89-1.99,2.01-1.99s2.01.89,2.01,2.01-.89,2.01-2.01,2.01-2.01-.89-2.01-2.01v-.02ZM144.03,449.3c0,.55.46.99,1.03.99s1.01-.44,1.01-1.01-.44-1.03-1.01-1.03-1.03.46-1.03,1.03v.02Z"/>
          <path class="cls-4" d="M153.51,453.46c4.26,0,10.43-.08,12.61-.11.11.59.13,2.13.1,2.77-2.87-.11-13.01.04-15.58.02-.11-.65-.21-2.05-.19-2.81.63.06,2.03.13,3.06.13Z"/>
          <path class="cls-4" d="M173,447.8c.84,1.18,2.32,3.61,3.02,5.11-.55.53-1.63,1.16-2.39,1.42-.57-1.29-1.98-3.76-3.04-5.15.61-.42,1.69-1.03,2.41-1.39ZM182.88,447.7c.78.09,2.17.51,2.74.85-1.03,5.97-3.61,11.28-9.99,14.06-.72-.4-1.9-1.44-2.36-2.22.61-.15,1.58-.47,2.36-.84,4.29-2.03,6.76-6.16,7.26-11.85Z"/>
          <path class="cls-4" d="M199.17,450.93c2.26-.02,4.22-.06,4.62-.06.44,0,1.35-.04,1.79-.06.11.65.15,1.82.09,2.49-.53-.02-1.1-.04-1.67-.04l-4.83.06c-.06,4.27-1.62,7.5-6.44,9.54-.68-.4-1.69-1.39-2.09-2.09,4.29-1.22,5.91-3.69,5.98-7.43-2.41.02-4.62.04-5.17.04s-1.31.02-1.82.04c-.11-.57-.21-1.98-.19-2.51.55.04,1.1.04,1.75.06.51.02,2.89,0,5.43-.02v-1.6c0-.78-.02-2.2-.15-2.79.76-.06,2.11.02,2.75.1-.04.68-.06,1.71-.06,2.28v1.99Z"/>
          <path class="cls-4" d="M211.54,450.84c0-1.04-.06-1.82-.15-2.45.76,0,1.92.08,2.68.19,0,6.97.3,10.14-3.67,13.66-.61-.28-1.77-1.18-2.26-1.84.46-.27.89-.61,1.27-.99,2-2.07,2.13-4.24,2.13-8.57ZM216.78,460.89c.09-.38.13-.68.15-1.22.04-1.73.13-7.09.1-9.97,0-.63-.04-1.22-.08-1.69.44,0,1.92.11,2.66.25-.11,1.39-.21,8.42-.21,10.43,1.77-.65,3.74-2.79,4.75-5.32.57.44,1.33,1.5,1.69,2.2-1.24,2.36-3.12,4.67-6.71,6.17-.29.09-.55.21-.85.34-.46-.28-1.16-.87-1.5-1.2Z"/>
          <path class="cls-4" d="M73.42,480.66v5.81c0,.55.04,1.63.08,2.43-.72.08-2.2.02-2.93-.09.06-.61.11-1.61.13-2.41.06-1.75.11-9.69.09-11.19,0-.7-.04-1.69-.13-2.53.74-.02,2.15.04,2.83.15-.04.68-.08,2.79-.08,5.15,2.38.74,5.03,1.79,6.76,2.6-.15.74-.63,1.94-1.06,2.53-1.56-.85-3.78-1.82-5.7-2.45Z"/>
          <path class="cls-4" d="M86.21,485.97c.06-1.61.06-6.84.06-10.01,0-.85-.04-1.82-.09-2.36.44,0,2.11.11,2.75.25-.13,1.58-.13,9.59-.13,11.38,3.06-.84,7.09-2.91,9.8-6.78.49.53,1.2,1.79,1.41,2.49-2.15,2.79-6.1,5.45-11.42,7.14-.3.11-.47.15-.78.28-.49-.25-1.35-.82-1.69-1.22.06-.42.08-.87.09-1.18Z"/>
          <path class="cls-4" d="M106.92,479.46c4.26,0,10.43-.08,12.61-.11.11.59.13,2.13.1,2.77-2.87-.11-13.01.04-15.58.02-.11-.65-.21-2.05-.19-2.81.63.06,2.03.13,3.06.13Z"/>
          <path class="cls-4" d="M126.04,484c1.16.04,11.27-.13,12.27-.15.65-.02,1.31-.04,1.77-.06.13.66.21,1.9.15,2.72-.42-.02-.82-.02-1.41-.02-.68.02-10.52.09-12.04.11-.72.02-1.71.04-2.24.04-.15-.68-.29-1.92-.23-2.72.63.04,1.08.04,1.73.08ZM127.82,475.39c1.73.02,7.12-.09,8.38-.11.78-.02,1.33-.06,1.98-.11.13.65.17,1.94.15,2.62-1.52-.02-8.99.09-10.39.11-.44,0-1.12.04-1.63.04-.13-.68-.25-1.98-.23-2.62.65.04,1.12.06,1.75.08Z"/>
          <path class="cls-4" d="M151.08,476.44c-.25.68-1.01,1.88-1.48,2.41-1.22-.95-3.42-2.28-5.07-3.04.3-.61,1.06-1.88,1.37-2.3,1.5.63,3.88,1.92,5.19,2.93ZM150.77,484c3.21-1.79,5.4-4.41,6.93-7.69.68.46,1.61,1.52,1.96,2.17-1.77,3.19-4.27,5.93-7.5,7.79-2.03,1.16-4.05,1.92-5.6,2.34-.7-.65-1.41-1.77-1.67-2.56,2.05-.3,4.16-1.04,5.89-2.03Z"/>
          <path class="cls-4" d="M174.5,475.43c.74-.02.95-.08,1.31-.13.49.29,1.14.87,1.46,1.27-.51,1.82-1.41,4.41-3.38,6.95-1.98,2.53-5.13,4.52-7.92,5.41-.78-.44-1.71-1.39-2.18-2.17,2.51-.51,5.34-1.79,7.45-4.01,1.75-1.8,2.62-3.89,2.91-5.21l-5,.08c-1.29,1.65-2.83,3.12-4.24,3.99-.72-.3-1.75-1.12-2.13-1.71,3.13-1.63,5.74-5.05,6.57-7.86.87.21,1.75.66,2.39,1.18-.29.74-.67,1.5-1.12,2.26,3.29-.02,3.88-.08,3.88-.08v.02ZM176.78,472.7c.4.61.87,1.75,1.08,2.37-.27.21-.84.42-1.27.49-.23-.74-.63-1.69-1.06-2.41.42-.19.87-.38,1.25-.46ZM180.07,474.39c-.27.19-.84.4-1.27.48-.27-.78-.67-1.67-1.06-2.34.4-.19.87-.4,1.23-.47.4.61.89,1.67,1.1,2.34Z"/>
          <path class="cls-4" d="M190.25,471.61c-2.07,1.73-3.76,5.05-3.76,8.87s1.73,7.18,3.76,8.87v.09h-1.77c-1.96-1.73-3.55-5.09-3.55-8.97s1.6-7.24,3.55-8.97h1.77v.09Z"/>
          <path class="cls-4" d="M195.44,479.52c.63-.76,1.61-1.27,2.85-1.27,2.22,0,3.93,1.69,3.93,4.56,0,2.72-1.77,5.11-4.67,5.11-3.25,0-5-2.6-5-6.12,0-3.29,1.48-8.66,8.32-8.66v2.17c-.36,0-.76.04-1.23.09-2.64.36-3.89,2.22-4.26,4.12h.06ZM199.43,482.93c0-1.5-.72-2.74-2.03-2.74-.84,0-2.05.72-2.05,2.34.04,1.86.8,3.34,2.18,3.34,1.23,0,1.9-1.33,1.9-2.94Z"/>
          <path class="cls-4" d="M204.98,480.56c0-4.37,1.61-7.45,4.84-7.45s4.69,3.34,4.69,7.33c0,4.75-1.77,7.47-4.79,7.47-3.34,0-4.75-3.34-4.75-7.35ZM209.77,485.69c1.29,0,1.94-1.82,1.94-5.19s-.59-5.17-1.92-5.17c-1.22,0-2,1.75-2,5.17s.7,5.19,1.96,5.19h.02Z"/>
          <path class="cls-4" d="M231.58,478.55c-1.52-1.75-2.96-3.88-4.03-5.91l2.24-.89c1.22,2.43,3.61,5.21,5.7,6.82-.61.47-1.5,1.41-1.94,2.05-.4-.38-.82-.8-1.24-1.23-.21,5.95-.44,8.21-1.1,9-.61.76-1.25.99-3.36.99-.42,0-.85,0-1.29-.02-.04-.68-.34-1.65-.74-2.3,1.04.08,2.05.09,2.53.09.34,0,.57-.04.78-.27.38-.42.59-2.13.76-6.14h-3.84c-.53,3.46-1.54,6.88-6.65,8.83-.28-.65-.95-1.58-1.48-2.09,4.31-1.42,5.32-3.95,5.7-6.74h-3.25v-1.42c-.53.51-1.06.99-1.61,1.41-.42-.48-1.27-1.31-1.8-1.73,2.28-1.56,4.43-4.35,5.58-7.22l2.79.95c-.1.21-.34.25-.57.21-.91,2.01-2.18,3.97-3.65,5.59h9.4l.53-.02.53.04Z"/>
          <path class="cls-4" d="M237.38,489.36c2.07-1.73,3.76-5.05,3.76-8.87s-1.73-7.18-3.76-8.87v-.09h1.77c1.98,1.73,3.55,5.09,3.55,8.97s-1.58,7.24-3.55,8.97h-1.77v-.09Z"/>
        </g>
        <g>
          <g>
            <path class="cls-4" d="M30.28,517.17v4.3c.88,1.45,2.64,1.45,4.96,1.45,1.52,0,3.33-.04,4.5-.13-.15.29-.34.87-.41,1.23-.98.04-2.47.07-3.84.07-2.88,0-4.5,0-5.75-1.57-.65.55-1.32,1.1-1.87,1.52,0,.13-.04.2-.16.25l-.63-1.33c.61-.37,1.36-.9,2.01-1.4v-3.22h-1.85v-1.16h3.05ZM28.31,512.23c.84.58,1.85,1.47,2.31,2.11l-.94.9c-.42-.66-1.4-1.6-2.24-2.22l.87-.79ZM32.73,520.06v2.13h-1.17v-6.9h3.46c-.71-.34-1.53-.7-2.22-.96l.8-.67c.53.18,1.15.42,1.74.69.51-.26,1.04-.58,1.48-.91h-5.21v-.98h6.43l.19-.07.92.59c-.05.08-.15.12-.25.13-.63.55-1.54,1.2-2.47,1.7.34.17.66.33.91.48h1.66v5.74c0,1.08-.45,1.2-2.3,1.2-.04-.32-.18-.73-.33-1.02.33.01.63.03.87.03.51,0,.57,0,.57-.22v-.95h-2.01v2.07h-1.13v-2.07h-1.94ZM34.67,516.22h-1.94v.98h1.94v-.98ZM32.73,519.12h1.94v-1.02h-1.94v1.02ZM37.82,517.19v-.98h-2.01v.98h2.01ZM35.81,519.12h2.01v-1.02h-2.01v1.02Z"/>
            <path class="cls-4" d="M52.17,512.59c-.05.09-.16.12-.32.12-.22.33-.57.78-.88,1.15h2.16v2.88h-1.23v-1.78h-8.91v1.78h-1.17v-2.88h1.95c-.24-.44-.58-.95-.9-1.35l1.11-.45c.44.5.9,1.17,1.12,1.64l-.36.16h1.98v-1.91l1.57.08c-.01.12-.09.18-.32.22v1.61h1.99c-.11-.05-.21-.09-.3-.13.36-.45.8-1.19,1.06-1.69l1.44.55ZM52.26,519.81v2.67c0,1.2-.59,1.28-2.77,1.28-.05-.33-.25-.78-.41-1.1.44.01.86.03,1.19.03.65,0,.75,0,.75-.21v-1.54h-3.04v3.38h-1.25v-3.38h-2.81v2.85h-1.23v-3.97h4.04v-.94h-2.77v-3.05h7.04v3.05h-2.73c-.05.05-.13.09-.28.11v.83h4.28ZM45.12,516.73v1.21h4.63v-1.21h-4.63Z"/>
            <path class="cls-4" d="M62.88,523.13h-1.44v-2.65h-2.22v-.78h2.22v-1.16h-2.22v-.79h1.85l-2.36-4.55h1.62l1.31,3c.24.57.42,1.07.58,1.52h.04c.15-.44.34-.98.58-1.53l1.35-2.98h1.58l-2.5,4.55h1.85v.79h-2.24v1.16h2.24v.78h-2.24v2.65Z"/>
            <path class="cls-4" d="M70.11,523.13v-8.54h-.03l-1.68.92-.34-1.12,2.24-1.2h1.29v9.94h-1.49Z"/>
            <path class="cls-4" d="M78.32,523.13v-8.54h-.03l-1.68.92-.34-1.12,2.24-1.2h1.29v9.94h-1.49Z"/>
            <path class="cls-4" d="M85.98,521.09c-.38,1.32-1.04,2.96-1.54,3.79l-1.06.11c.37-1,.77-2.59.94-3.75l1.66-.15Z"/>
            <path class="cls-4" d="M87.72,518.18c0-3.25,1.23-5.15,3.29-5.15s3.16,2.03,3.16,5.04c0,3.37-1.21,5.2-3.26,5.2s-3.18-2.05-3.18-5.09ZM92.62,518.13c0-2.36-.5-3.88-1.66-3.88-1,0-1.69,1.4-1.69,3.88s.61,3.92,1.66,3.92c1.29,0,1.69-1.86,1.69-3.92Z"/>
            <path class="cls-4" d="M95.94,518.18c0-3.25,1.23-5.15,3.29-5.15s3.16,2.03,3.16,5.04c0,3.37-1.21,5.2-3.26,5.2s-3.18-2.05-3.18-5.09ZM100.83,518.13c0-2.36-.5-3.88-1.66-3.88-1,0-1.69,1.4-1.69,3.88s.61,3.92,1.66,3.92c1.29,0,1.69-1.86,1.69-3.92Z"/>
            <path class="cls-4" d="M104.15,518.18c0-3.25,1.23-5.15,3.29-5.15s3.16,2.03,3.16,5.04c0,3.37-1.21,5.2-3.26,5.2s-3.18-2.05-3.18-5.09ZM109.05,518.13c0-2.36-.5-3.88-1.66-3.88-1,0-1.69,1.4-1.69,3.88s.61,3.92,1.66,3.92c1.29,0,1.69-1.86,1.69-3.92Z"/>
            <path class="cls-4" d="M112.3,523.88l11.95-11.95.41.41-11.95,11.95-.41-.41Z"/>
            <path class="cls-4" d="M126.98,512.73h11.06v11.47h-1.32v-.88h-8.49v.88h-1.25v-11.47ZM128.24,522.09h8.49v-8.13h-8.49v8.13ZM129.93,515.74h5.04v4.51h-5.04v-4.51ZM133.81,519.22v-2.44h-2.76v2.44h2.76Z"/>
            <path class="cls-4" d="M152.57,517.81c0,1.58-.44,3.74-1.23,4.8-.42.62-.88.83-1.47.83-.63,0-1.54-.3-2.26-.69-.09-.4-.07-1.11.01-1.44.61.38,1.44.74,1.91.74.37,0,.59-.09.88-.55.51-.79.83-2.39.83-3.59,0-1.1-.49-1.49-1.33-1.49-.29,0-.75.07-1.31.17-.71,2.02-1.98,5.35-2.89,6.97-.38-.08-1.02-.4-1.31-.66,1.08-1.72,2.17-4.38,2.76-6.03-.74.13-1.56.28-2.34.34-.16-.33-.29-.92-.32-1.36.45.04.95,0,1.52-.05.42-.04.98-.12,1.57-.21.25-.84.55-1.9.69-2.81.49.08,1.12.32,1.43.51-.16.49-.4,1.19-.69,2.09.5-.07.95-.12,1.27-.12,1.2,0,2.26.75,2.26,2.55ZM153.96,515.12c.84.87,1.95,2.68,2.35,3.75-.2.26-.74.61-1.12.75-.45-1.37-1.48-3.04-2.26-3.85.26-.24.73-.5,1.03-.65ZM154.39,514.97c-.29-.48-.71-1.07-1.11-1.47.17-.16.46-.36.65-.44.34.34.88,1.02,1.15,1.45-.13.15-.44.36-.69.45ZM155.7,514.13c-.3-.48-.73-1.02-1.12-1.43.17-.16.48-.36.65-.44.34.33.88.96,1.15,1.41-.13.13-.42.36-.67.45Z"/>
          </g>
          <g>
            <g>
              <path class="cls-4" d="M216.09,531.9h-2.38v-4.39h-3.67v-1.29h3.67v-1.92h-3.67v-1.31h3.06l-3.91-7.53h2.69l2.16,4.96c.39.94.7,1.77.96,2.51h.07c.24-.72.57-1.62.96-2.53l2.23-4.93h2.62l-4.13,7.53h3.06v1.31h-3.71v1.92h3.71v1.29h-3.71v4.39Z"/>
              <path class="cls-4" d="M228.54,519.65h-4.37v-15.57h15.57v4.54h-10.87v6.08c.87-.87,2.21-1.67,4.41-1.67,4.79,0,7.58,3.71,7.58,10.37,0,6.29-3,9.79-8.75,9.79-4.66,0-8.33-2.91-8.74-7.5h4.75c.5,2.08,1.83,3.29,3.91,3.29,2.46,0,4-1.62,4-5.41s-1.17-6.04-4-6.04c-1.71,0-2.79.92-3.5,2.12Z"/>
              <path class="cls-4" d="M253.77,533.18c-4.79,0-9.04-2.83-9.04-8.79v-11.87c0-6.12,4.25-8.83,9.04-8.83s9.04,2.71,9.04,8.79v11.91c0,5.95-4.25,8.79-9.04,8.79ZM253.77,507.91c-2.62,0-4.25,1.79-4.25,4.87v11.33c0,3.08,1.62,4.87,4.25,4.87s4.21-1.79,4.21-4.87v-11.33c0-3.08-1.62-4.87-4.21-4.87Z"/>
              <path class="cls-4" d="M275.51,533.18c-4.79,0-9.04-2.83-9.04-8.79v-11.87c0-6.12,4.25-8.83,9.04-8.83s9.04,2.71,9.04,8.79v11.91c0,5.95-4.25,8.79-9.04,8.79ZM275.51,507.91c-2.62,0-4.25,1.79-4.25,4.87v11.33c0,3.08,1.62,4.87,4.25,4.87s4.21-1.79,4.21-4.87v-11.33c0-3.08-1.62-4.87-4.21-4.87Z"/>
            </g>
            <g>
              <path class="cls-4" d="M177.98,531.69h-3.69v-17.96l-3.15,2.16v-3.72l3.37-2.42h3.46v21.93Z"/>
              <path class="cls-4" d="M185.43,514.78h16.57v17.18h-1.98v-1.32h-12.72v1.32h-1.88v-17.18ZM187.31,528.8h12.72v-12.18h-12.72v12.18ZM189.84,519.29h7.55v6.76h-7.55v-6.76ZM195.65,524.51v-3.66h-4.13v3.66h4.13Z"/>
            </g>
          </g>
        </g>
        <line class="cls-1" x1="19.57" y1="544.43" x2="296.77" y2="544.43"/>
        <g>
          <path class="cls-4" d="M44.04,562.61c1.42-.33,3.68-.75,5.54-.94.12.35.25,1.25.22,1.59-.94-.01-2.11.05-2.95.22-1,.19-2.37.69-2.37,2.12,0,1.11,1.16,1.53,2.54,1.53.53,0,.96-.02,1.35-.11,0,.46-.16,1.33-.28,1.64-3.12.31-5.2-.69-5.2-2.84,0-.85.48-1.54.88-1.91-.64.15-1.91.56-2.97.91-.17-.32-.38-1.01-.44-1.47.41-.16.7-.28,1.01-.46.49-.3,1.07-.68,2.07-1.49.83-.68,1.95-1.67,2.26-1.98-.51.05-2.54.35-3.43.46-.14-.3-.36-1.1-.4-1.51.37.01.75-.01,1.21-.04.53-.04,3.37-.26,4.37-.4.32.26.69.86.84,1.23-.44.35-3.42,2.78-4.25,3.41h0Z"/>
          <path class="cls-4" d="M63.22,563.43c0,2.73-1.51,4.62-4.4,5.07-.32-.33-.76-1.14-.9-1.62.42-.01.81-.09,1.16-.16,1.31-.3,2.44-1.31,2.44-3.31,0-1.86-1.2-3.07-2.98-3.25-.05.94-.21,2.31-.47,3.38-.57,2.44-1.46,4.2-3.07,4.2-1.31,0-2.58-1.69-2.58-3.8,0-3.01,2.39-5.26,5.65-5.26,2.93,0,5.14,1.85,5.14,4.74ZM56.54,563.24c.2-.85.35-2,.39-2.95-1.97.47-2.91,2.15-2.91,3.56,0,1.31.57,2.02,1.04,2.02.6,0,1.1-1.01,1.48-2.63Z"/>
          <path class="cls-4" d="M66.86,564.13c-.33.38-.68.74-1.01,1.05-.14-.32-.49-1.01-.7-1.32.99-.83,2.15-2.27,2.86-3.63l1.51.63c-.06.09-.17.14-.35.11-.27.46-.58.94-.9,1.39l.3.1c-.04.09-.14.19-.32.2v6.38h-1.38v-4.91ZM69.15,558.02c-.05.09-.16.14-.32.11-.65.95-1.79,2.25-2.79,3.1-.19-.31-.57-.85-.8-1.12.86-.69,1.86-1.83,2.36-2.7l1.56.62ZM75.02,563.95l.95.41c-.04.09-.1.12-.16.17-.41.96-1.04,1.77-1.8,2.42.9.41,1.94.69,3.09.86-.31.3-.69.88-.88,1.26-1.31-.26-2.47-.68-3.44-1.26-1,.57-2.15.98-3.38,1.25-.14-.37-.46-.94-.7-1.26,1.04-.17,2.01-.47,2.88-.88-.37-.32-.7-.68-1-1.06-.35.27-.7.53-1.06.74-.2-.28-.62-.8-.88-1.04.96-.52,1.96-1.36,2.65-2.27l-1.95.07c-.04.11-.14.17-.23.19l-.38-1.54c.53,0,1.16,0,1.86-.01.19-.14.36-.3.54-.44-.58-.6-1.46-1.31-2.2-1.81l.89-.96c.2.12.41.27.63.42.51-.57,1.05-1.3,1.4-1.86l1.44.78c-.06.1-.19.12-.36.11-.37.49-1,1.17-1.53,1.69.28.23.54.46.76.68.79-.77,1.54-1.59,2.1-2.3l1.52.8c-.06.09-.2.14-.38.12-.76.85-1.86,1.88-2.92,2.75l2.23-.04c-.21-.28-.43-.56-.64-.8l1.15-.63c.74.81,1.57,1.93,1.91,2.72l-1.25.69c-.1-.23-.23-.52-.41-.81l-2.25.11c-.05.09-.16.15-.32.12-.15.22-.31.44-.48.67h2.37l.23-.05ZM71.52,565.09c.33.43.74.81,1.23,1.16.47-.33.86-.73,1.19-1.16h-2.42Z"/>
          <path class="cls-4" d="M88.62,565.59c0,2.06-1.65,3.18-4.02,3.18-1.74,0-3.3-.83-3.3-2.64,0-.47.05-1,.14-1.58-.75-.09-1.47-.2-2.03-.35-.07-.42-.06-1.12.01-1.57.62.2,1.41.36,2.23.46.09-.53.17-1.11.26-1.75-.77-.09-1.46-.21-1.93-.33-.06-.41-.06-1.09.02-1.51.57.21,1.31.36,2.07.44.03-.26.05-.53.07-.81.03-.3.05-.98.01-1.41.46.01,1.36.15,1.7.27-.04.67-.11,1.37-.21,2.07.77.02,1.46,0,1.93-.07.03.43-.09,1.17-.17,1.47-.58.05-1.26.05-1.94.01-.1.62-.19,1.21-.27,1.75.86.04,1.67.01,2.27-.09.01.46-.09,1.15-.2,1.52-.64.05-1.46.05-2.28.01-.06.44-.1.81-.1,1.09,0,.86.47,1.49,1.69,1.49,1.48,0,2.37-.68,2.37-1.78,0-.85-.4-1.46-.95-1.99.36-.21,1.05-.51,1.53-.62.7.78,1.07,1.83,1.07,2.72Z"/>
          <path class="cls-4" d="M99.18,564.36c-.43.84-.95,1.63-1.51,2.14-.1-.33-.32-.81-.52-1.19v1.81h5.49v1.35h-5.49v.54h-1.38v-1.93l-.98.35c-.11-.65-.42-1.68-.7-2.44l1.06-.33c.22.56.46,1.23.62,1.81v-2.33l-.96.42c-.04-.19-.09-.4-.16-.63l-.61.04v5.07h-1.27v-3.96c-.06.06-.14.07-.23.06-.11,1.01-.33,2.21-.67,2.94-.25-.16-.7-.37-1.01-.49.3-.68.47-1.85.56-2.9l1.36.31v-.94c-.52.04-.99.06-1.37.07-.02.11-.12.17-.22.19l-.28-1.48h.85c.2-.26.4-.53.59-.81-.35-.56-.91-1.22-1.41-1.73.28-.37.51-.69.73-1.01l.26.25c.33-.68.68-1.48.88-2.12l1.43.57c-.05.1-.17.14-.35.14-.28.68-.75,1.59-1.17,2.27.15.16.28.32.39.48.42-.69.8-1.38,1.09-1.99l1.37.63c-.05.09-.17.12-.33.12-.38.65-.91,1.46-1.46,2.21l1-.42c.39.67.78,1.49,1,2.16v-5.7l1.69.1c-.01.11-.1.19-.31.22v6.83c.63-.6,1.26-1.56,1.67-2.43h-1.49v-1.32h1.85v-3.62l1.59.09c-.01.12-.1.19-.3.22v2.74c.27-.68.6-1.73.77-2.47l1.42.52c-.05.09-.16.14-.32.14-.22.68-.62,1.67-.94,2.28l-.93-.4v.49h1.96v1.32h-1.96v.3c.52.44,1.7,1.59,2,1.91-.01.01-.04.04-.86,1.12-.23-.4-.69-1-1.14-1.56v2.59h-1.3v-2.59ZM94.2,562.79c-.14-.33-.3-.65-.46-.94-.23.33-.48.65-.72.95h1.17ZM98.3,558.34c.36.75.69,1.72.79,2.37l-1.11.4c-.1-.65-.4-1.65-.73-2.39l1.05-.37Z"/>
          <path class="cls-4" d="M108.16,564.56c-.04-.19-.09-.41-.16-.63l-.58.04v5.07h-1.27v-4c-.04.07-.12.11-.25.11-.11,1-.35,2.2-.67,2.94-.26-.17-.73-.38-1.04-.51.3-.68.47-1.85.56-2.9l1.39.32v-.95c-.53.04-1.01.06-1.41.07-.02.11-.12.17-.22.19l-.28-1.48h.85c.2-.25.4-.52.59-.8-.35-.56-.91-1.23-1.41-1.74.28-.36.51-.68.73-1l.27.26c.35-.69.69-1.51.9-2.15l1.43.58c-.05.09-.16.14-.33.12-.3.68-.79,1.6-1.22,2.27.15.17.28.35.39.51.43-.69.83-1.41,1.12-2.01l1.38.63c-.05.09-.17.14-.33.14-.39.65-.93,1.44-1.48,2.2l1.01-.42c.37.64.74,1.42.96,2.07v-1.42h6.74v2.51h-1.35v-1.35h-4.11v1.35h-1.28v-.44l-.95.43ZM107.56,562.79c-.14-.33-.3-.65-.44-.94-.25.33-.49.65-.74.95h1.19ZM108.13,567.31c-.09-.63-.36-1.59-.62-2.32l1.09-.33c.28.73.55,1.67.67,2.28l-1.14.37ZM112.21,563.92c0,.12-.1.2-.27.22-.17,2.4-.94,4.09-2.82,4.89-.17-.28-.62-.81-.9-1.04,1.64-.63,2.22-2.04,2.27-4.16l1.72.09ZM111.67,560.29v-.69h-2.67v-1.21h2.67v-1l1.79.09c-.01.12-.1.2-.32.25v.67h2.77v1.21h-2.77v.69h2.26v1.2h-5.88v-1.2h2.15ZM114.01,567.26c0,.35.02.4.2.4h.41c.18,0,.23-.2.26-1.54.26.23.81.44,1.19.54-.12,1.78-.46,2.25-1.3,2.25h-.79c-1.06,0-1.3-.41-1.3-1.64v-3.43l1.65.1c-.01.1-.11.17-.32.21v3.12Z"/>
          <path class="cls-4" d="M118.78,559.53c.84-.1,7.55-1.01,8.73-1.01.16.38.25,1.05.25,1.49-.46-.02-1.3,0-2.04.25-1.91.6-2.75,2.35-2.75,3.73,0,2.16,1.8,2.86,3.79,2.86-.04.51-.32,1.32-.59,1.67-2.36-.01-4.89-1.23-4.89-4.2,0-1.84.89-3.16,1.89-3.94-1.22.15-3.86.68-5.16.86-.22-.35-.51-1.22-.57-1.63.51-.01,1.12-.06,1.35-.09ZM126.95,562.78c-.16.14-.51.32-.79.38-.2-.46-.52-1.12-.78-1.54.22-.15.58-.3.78-.36.23.35.65,1.15.79,1.52ZM128.39,562.19c-.17.14-.53.31-.8.4-.2-.44-.54-1.11-.8-1.53.22-.15.57-.31.79-.37.25.37.64,1.11.82,1.51Z"/>
          <path class="cls-4" d="M23.81,576.04c.6.1,1.35.35,1.76.53-.2,1.02-.63,2.52-1.11,3.65-.59,1.43-1.2,2.54-1.88,3.35-.57-.17-1.32-.52-1.73-.88,1.01-1,1.54-2.02,2.01-3.1.41-.91.83-2.41.94-3.56ZM27.73,576.72c.39-.23,1.12-.54,1.54-.68.54.81,1.06,1.74,1.6,2.97.69,1.53,1.01,2.54,1.28,3.63-.33.28-1.19.62-1.8.72-.17-1.06-.52-2.43-1.09-3.76-.48-1.12-1.02-2.19-1.54-2.88ZM30.07,575.82c0-.72.58-1.3,1.31-1.3s1.31.58,1.31,1.31-.58,1.31-1.31,1.31-1.31-.58-1.31-1.31h0ZM30.71,575.84c0,.36.3.64.67.64s.65-.28.65-.65-.28-.67-.65-.67-.67.3-.67.67h0Z"/>
          <path class="cls-4" d="M36.88,578.55c2.76,0,6.78-.05,8.2-.07.07.38.09,1.38.06,1.8-1.86-.07-8.46.02-10.12.01-.07-.42-.14-1.33-.12-1.83.41.04,1.32.09,1.99.09Z"/>
          <path class="cls-4" d="M49.55,574.87c.54.77,1.51,2.35,1.96,3.32-.36.35-1.06.75-1.56.93-.37-.84-1.28-2.44-1.97-3.35.39-.27,1.1-.67,1.57-.9ZM55.97,574.81c.51.06,1.41.33,1.78.56-.67,3.88-2.35,7.33-6.49,9.13-.47-.26-1.23-.94-1.53-1.44.4-.1,1.02-.31,1.53-.54,2.79-1.32,4.39-4,4.71-7.7Z"/>
          <path class="cls-4" d="M66.55,576.9c1.47-.01,2.74-.04,3-.04.28,0,.88-.02,1.16-.04.07.42.1,1.19.06,1.62-.35-.01-.72-.02-1.09-.02l-3.14.04c-.04,2.78-1.05,4.88-4.18,6.2-.44-.26-1.1-.9-1.36-1.36,2.79-.79,3.84-2.39,3.89-4.83-1.57.01-3,.02-3.36.02s-.85.01-1.18.02c-.07-.37-.14-1.28-.12-1.63.36.02.72.02,1.14.04.33.01,1.88,0,3.53-.01v-1.02h0c0-.52-.01-1.44-.1-1.83.49-.04,1.37.01,1.79.06-.02.44-.04,1.11-.04,1.48v1.3Z"/>
          <path class="cls-4" d="M74.59,576.84c0-.68-.04-1.19-.1-1.59.49,0,1.25.05,1.74.12,0,4.53.2,6.59-2.38,8.88-.4-.19-1.15-.77-1.47-1.2.3-.17.58-.4.83-.64,1.3-1.35,1.38-2.75,1.38-5.57ZM78,583.37c.06-.25.09-.44.1-.79.02-1.12.09-4.6.06-6.48,0-.41-.02-.79-.05-1.1.28,0,1.25.07,1.73.16-.07.9-.14,5.47-.14,6.78,1.15-.42,2.43-1.81,3.09-3.46.37.28.86.98,1.1,1.43-.8,1.53-2.02,3.04-4.36,4.01-.18.06-.36.14-.56.22-.3-.19-.75-.57-.97-.78Z"/>
          <path class="cls-4" d="M92.8,581.01c-1.15,1.7-2.9,2.9-4.73,3.58-.51-.28-1.11-1-1.43-1.54,1.84-.43,3.3-1.14,4.49-2.6.79-.95,1.26-2.31,1.41-3.36-1.1.01-5.63.07-6.7.1-.09-.42-.15-1.43-.15-1.78.52.04,1.1.07,1.52.07.72,0,4.76-.04,5.52-.06.23,0,.52-.01.8-.06.32.19.8.6,1.06.96-.31,1.53-.74,3.12-1.79,4.69ZM94,574.72c0-.7.57-1.27,1.28-1.27s1.27.57,1.27,1.28-.57,1.27-1.27,1.27-1.28-.57-1.28-1.27h0ZM94.64,574.74c0,.32.28.6.64.6.33,0,.62-.28.62-.62,0-.36-.28-.64-.62-.64-.36,0-.64.28-.64.64h0Z"/>
          <path class="cls-4" d="M105.88,582.15c-1.37,1.49-3.3,2.32-4.51,2.56-.41-.3-1.04-1.02-1.28-1.51,1.58-.16,3.32-.81,4.42-1.94.67-.68,1.02-1.44,1.22-2.21-.75,0-5.8.07-6.83.11-.1-.38-.17-1.23-.16-1.64.46.04.88.06,1.33.06.86.04,5.21-.01,6.13-.07.27-.01.48-.04.69-.06.25.11.69.4.93.6-.35,1.33-.84,2.86-1.95,4.1ZM100.83,574.57c.75.02,4.37-.02,5-.05.42-.01.74-.05,1.01-.07.07.36.11,1.1.1,1.54-.51,0-5.12.02-5.95.05-.18,0-.76.01-1.1.02-.05-.37-.12-1.09-.11-1.54.41.02.62.04,1.05.05Z"/>
          <path class="cls-4" d="M114.97,576.58c-.16.44-.65,1.22-.96,1.57-.79-.62-2.22-1.48-3.3-1.98.2-.4.69-1.22.89-1.49.97.41,2.52,1.25,3.37,1.9ZM114.77,581.5c2.09-1.16,3.51-2.86,4.51-5,.44.3,1.05.99,1.27,1.41-1.15,2.07-2.78,3.85-4.88,5.06-1.32.75-2.63,1.25-3.64,1.52-.46-.42-.91-1.15-1.09-1.67,1.33-.2,2.7-.68,3.83-1.32Z"/>
          <path class="cls-4" d="M126.14,579.25c.42.33,1.63,1.47,1.9,1.74l-.84,1.2c-.23-.36-.65-.9-1.06-1.4v4.23h-1.42v-3.89c-.44.96-.96,1.86-1.51,2.48-.14-.44-.47-1.1-.7-1.51.72-.74,1.46-1.99,1.91-3.11h-1.65v-1.38h1.95v-4.23l1.74.1c-.01.12-.1.19-.32.22v3.91h1.79v1.38h-1.79v.25ZM123.85,574.18c.36.88.63,1.99.72,2.74l-1.21.33c-.05-.74-.32-1.9-.64-2.78l1.14-.3ZM128.51,574.58c-.04.09-.15.15-.32.15-.23.78-.67,1.88-1.02,2.57-.32-.11-.7-.26-1.02-.37.31-.75.67-1.94.83-2.79l1.54.44ZM134.3,581.62l-1.56.3v3.12h-1.46v-2.85l-3.1.59-.25-1.41,3.34-.62v-7.31l1.78.1c-.01.11-.1.2-.32.23v6.7l1.32-.25.24,1.38ZM129.17,577.43c.67.54,1.49,1.33,1.86,1.9-1.07.81-1.1.84-1.11.85-.35-.56-1.12-1.4-1.79-1.99l1.04-.77ZM129.54,574.31c.6.53,1.31,1.28,1.62,1.83l-1.14.8c-.28-.54-.96-1.35-1.54-1.9l1.06-.73Z"/>
          <path class="cls-4" d="M144.27,580.94l1.49.64c-.06.09-.19.14-.35.12-.3.51-.79,1.2-1.2,1.7h2.81v1.27h-10.53v-1.27h2.43c-.19-.57-.62-1.39-1.04-2.01l1.11-.46h-1.89v-1.27h3.79v-1.23h-2.3v-.6c-.59.43-1.22.84-1.86,1.19-.2-.35-.6-.89-.9-1.17,2.12-1.07,4.15-2.98,5.07-4.52l1.97.11c-.04.12-.15.23-.32.25,1.18,1.62,3.3,3.18,5.16,3.97-.37.37-.72.88-.99,1.32-.63-.33-1.27-.74-1.89-1.19v.64h-2.38v1.23h3.84v1.27h-2.05ZM140.92,580.94h-1.79c.47.63.95,1.47,1.14,2.04l-1,.43h1.65v-2.47ZM144.02,577.14c-.93-.75-1.74-1.57-2.3-2.33-.52.75-1.3,1.57-2.21,2.33h4.51ZM143,583.05c.41-.56.91-1.44,1.2-2.11h-1.72v2.47h1.27l-.75-.36Z"/>
        </g>
        <g>
          <path class="cls-4" d="M177.02,572.74h-4v-14.23h14.23v4.15h-9.93v5.56c.8-.8,2.02-1.52,4.03-1.52,4.38,0,6.93,3.39,6.93,9.48,0,5.75-2.74,8.94-7.99,8.94-4.26,0-7.61-2.66-7.99-6.85h4.34c.46,1.9,1.67,3.01,3.58,3.01,2.25,0,3.65-1.48,3.65-4.95s-1.07-5.52-3.65-5.52c-1.56,0-2.55.84-3.2,1.94Z"/>
          <path class="cls-4" d="M199.69,585.1c-4.38,0-8.26-2.59-8.26-8.03v-10.85c0-5.59,3.88-8.07,8.26-8.07s8.26,2.47,8.26,8.03v10.88c0,5.44-3.88,8.03-8.26,8.03ZM199.69,562c-2.4,0-3.88,1.64-3.88,4.45v10.35c0,2.82,1.48,4.45,3.88,4.45s3.84-1.64,3.84-4.45v-10.35c0-2.82-1.48-4.45-3.84-4.45Z"/>
          <path class="cls-4" d="M217.34,573.26c0,1.75-.84,2.97-2.9,2.97-1.85,0-2.86-1.09-2.86-2.97v-1.01c0-1.89,1.05-2.95,2.86-2.95s2.9,1.05,2.9,2.95v1.01ZM215.67,573.24v-.95c0-1.03-.41-1.52-1.22-1.52-.76,0-1.17.51-1.17,1.52v.95c0,.95.31,1.54,1.17,1.54s1.22-.6,1.22-1.54ZM223.12,569.47l-7.48,13.41h-2.08l7.5-13.41h2.06ZM225.22,580.08c0,1.75-.84,2.97-2.9,2.97-1.83,0-2.84-1.09-2.84-2.97v-1.01c0-1.89,1.05-2.95,2.84-2.95s2.9,1.05,2.9,2.95v1.01ZM223.57,580.06v-.95c0-1.03-.43-1.52-1.22-1.52s-1.19.51-1.19,1.52v.95c0,.95.31,1.54,1.19,1.54s1.22-.6,1.22-1.54Z"/>
          <path class="cls-4" d="M237.84,585.1c-5.86,0-9.82-3.54-9.82-11.8v-3.35c0-8.26,3.96-11.8,9.82-11.8s9.86,3.54,9.86,11.8v3.35c0,8.26-3.96,11.8-9.86,11.8ZM232.43,573.31c0,5.67,1.9,7.95,5.4,7.95s5.44-2.28,5.44-7.95v-3.35c0-5.67-1.94-7.95-5.44-7.95s-5.4,2.28-5.4,7.95v3.35Z"/>
          <path class="cls-4" d="M267.36,558.5v3.84h-11.68v7.53h10.54v3.81h-10.54v11.07h-4.41v-26.26h16.1Z"/>
          <path class="cls-4" d="M286.2,558.5v3.84h-11.68v7.53h10.54v3.81h-10.54v11.07h-4.41v-26.26h16.1Z"/>
        </g>
        <g>
          <path class="cls-4" d="M161.51,564.52c-.06.06-.2.09-.34.06-.23.29-.63.73-.97,1.07.38.35.72.68.86.83l-.89,1.15c-.25-.37-.67-.89-1.08-1.39v4.57h-1.49v-4.16c-.4.43-.82.82-1.22,1.13-.14-.38-.54-1.11-.78-1.39,1.25-.86,2.48-2.34,3.26-3.87h-2.91v-1.36h1.65v-2.24l1.83.1c-.01.13-.11.2-.34.24v1.9h.57l.24-.06,1.01.59c-.05.08-.13.15-.23.18-.38.95-.91,1.9-1.51,2.81.1.08.21.18.34.29.31-.43.71-.98.92-1.4l1.1.93ZM166.57,559.9l.84.05c0,.11-.01.34-.03.53-.13,6.57-.24,8.78-.73,9.47-.52.81-1.06.87-2.97.83-.02-.44-.21-1.12-.48-1.56.67.05,1.26.05,1.56.05.21,0,.34-.05.48-.25.35-.42.49-2.47.59-7.68h-1.87c-.1,3.45-.35,7.28-3.28,9.5-.25-.4-.72-.89-1.12-1.18,2.62-1.84,2.81-5.07,2.87-8.32h-1.84v-1.42h5.96Z"/>
          <path class="cls-4" d="M166.01,573.39v9.39c0,1.69-.79,1.89-3.62,1.89-.09-.44-.39-1.18-.63-1.59.59.04,1.26.04,1.73.04.83,0,.92,0,.92-.37v-1.95h-5.32c-.35,1.46-1.05,2.9-2.37,3.91-.23-.32-.82-.9-1.15-1.12,2.13-1.63,2.31-4.06,2.31-6.01v-4.18h8.13ZM159.43,577.82c-.01.48-.04.98-.09,1.51h5.07v-1.51h-4.98ZM164.41,574.86h-4.98v1.52h4.98v-1.52Z"/>
        </g>
      </g>
      <g>
        <rect class="cls-7" y="212.34" width="313.63" height="175.77" rx="16.51" ry="16.51"/>
        <g>
          <path class="cls-3" d="M156.82,206.05c8.29,0,14.97,6.69,14.97,14.97s-6.69,14.97-14.97,14.97-14.97-6.69-14.97-14.97,6.75-14.97,14.97-14.97Z"/>
          <path class="cls-7" d="M150.5,228.22l5.23-15.02h2.39l5.23,15.02h-2.68l-1.02-3.11h-5.42l-1.02,3.11h-2.7ZM154.92,222.93h4.01l-2-6.07-2,6.07Z"/>
        </g>
        <g>
          <path class="cls-4" d="M51.33,320.46h-12.39v-2.44l7.04-8.26c1.34-1.54,2.08-2.88,2.08-4.31,0-1.87-1.4-2.82-2.91-2.82-1.6,0-2.82.98-2.91,2.82h-3.15c0-3.48,2.79-5.76,6.18-5.76s6.21,2.38,6.21,5.82c0,2.58-1.78,4.6-3.09,6.18l-4.84,5.79h7.78v2.97Z"/>
          <path class="cls-4" d="M68.54,304.47v14.04c0,2.11-.91,2.37-5.1,2.33-.11-.5-.44-1.35-.74-1.83.81.04,1.63.06,2.27.06,1.61,0,1.72,0,1.72-.57v-3.46h-8.43c-.5,2.15-1.52,4.29-3.46,5.84-.26-.35-.92-1.04-1.31-1.29,3.14-2.52,3.44-6.23,3.44-9.19v-5.92h11.61ZM58.72,310.6c0,.85-.06,1.78-.17,2.74h8.14v-2.74h-7.97ZM66.69,306.18h-7.97v2.74h7.97v-2.74Z"/>
          <path class="cls-4" d="M77.49,312.19c0,1.18-.96,2.15-2.14,2.15s-2.15-.96-2.15-2.15.96-2.15,2.15-2.15,2.14,1,2.14,2.15Z"/>
          <path class="cls-4" d="M85.61,308.4h1.43c2.14,0,3.3-1.13,3.3-3.06,0-1.49-1.16-2.7-2.91-2.7s-2.76,1.1-2.91,2.53h-3.15c.09-3.3,2.88-5.47,6.18-5.47,3.59,0,6.21,2.47,6.21,5.56,0,2.23-1.31,3.77-2.91,4.58,1.87.83,3.21,2.44,3.21,4.96,0,3.24-2.32,5.94-6.27,5.94-4.16,0-6.51-2.38-6.68-5.61h3.15c.24,1.49,1.28,2.61,3.39,2.61,1.78,0,3-1.31,3-3.03,0-2.08-1.22-3.33-3.59-3.33h-1.43v-2.97Z"/>
          <path class="cls-4" d="M110.31,304.47v14.04c0,2.11-.91,2.37-5.1,2.33-.11-.5-.44-1.35-.74-1.83.81.04,1.63.06,2.27.06,1.61,0,1.72,0,1.72-.57v-3.46h-8.43c-.5,2.15-1.52,4.29-3.46,5.84-.26-.35-.92-1.04-1.31-1.29,3.14-2.52,3.44-6.23,3.44-9.19v-5.92h11.61ZM100.49,310.6c0,.85-.06,1.78-.17,2.74h8.14v-2.74h-7.97ZM108.46,306.18h-7.97v2.74h7.97v-2.74Z"/>
        </g>
        <g>
          <path class="cls-4" d="M94.4,279.19v4.3c.88,1.45,2.64,1.45,4.96,1.45,1.52,0,3.33-.04,4.5-.13-.15.29-.34.87-.41,1.23-.98.04-2.47.07-3.84.07-2.88,0-4.5,0-5.75-1.57-.65.55-1.32,1.1-1.87,1.52,0,.13-.04.2-.16.25l-.63-1.33c.61-.37,1.36-.9,2.01-1.4v-3.22h-1.85v-1.16h3.05ZM92.43,274.26c.84.58,1.85,1.47,2.31,2.11l-.94.9c-.42-.66-1.4-1.6-2.24-2.22l.87-.79ZM96.85,282.09v2.12h-1.17v-6.9h3.46c-.71-.34-1.53-.7-2.22-.96l.8-.67c.53.18,1.15.42,1.74.69.51-.26,1.04-.58,1.48-.91h-5.21v-.98h6.43l.19-.07.92.59c-.05.08-.15.12-.25.13-.63.55-1.54,1.2-2.47,1.7.34.17.66.33.91.48h1.66v5.74c0,1.08-.45,1.2-2.3,1.2-.04-.32-.18-.73-.33-1.02.33.01.63.03.87.03.51,0,.57,0,.57-.22v-.95h-2.01v2.07h-1.13v-2.07h-1.94ZM98.79,278.24h-1.94v.98h1.94v-.98ZM96.85,281.15h1.94v-1.02h-1.94v1.02ZM101.94,279.22v-.98h-2.01v.98h2.01ZM99.93,281.15h2.01v-1.02h-2.01v1.02Z"/>
          <path class="cls-4" d="M116.29,274.61c-.05.09-.16.12-.32.12-.22.33-.57.78-.88,1.15h2.16v2.88h-1.23v-1.78h-8.91v1.78h-1.17v-2.88h1.95c-.24-.44-.58-.95-.9-1.35l1.11-.45c.44.5.9,1.17,1.12,1.64l-.36.16h1.98v-1.91l1.57.08c-.01.12-.09.18-.32.22v1.61h1.99c-.11-.05-.21-.09-.3-.13.36-.45.8-1.19,1.06-1.69l1.44.55ZM116.38,281.83v2.67c0,1.2-.59,1.28-2.77,1.28-.05-.33-.25-.78-.41-1.1.44.01.86.03,1.19.03.65,0,.75,0,.75-.21v-1.54h-3.04v3.38h-1.25v-3.38h-2.81v2.85h-1.23v-3.97h4.04v-.94h-2.77v-3.05h7.04v3.05h-2.73c-.05.05-.13.09-.28.11v.83h4.28ZM109.24,278.76v1.21h4.63v-1.21h-4.63Z"/>
          <path class="cls-4" d="M133.24,274.64v10.02c0,1.5-.65,1.69-3.64,1.66-.08-.36-.32-.96-.53-1.31.58.03,1.16.04,1.62.04,1.15,0,1.23,0,1.23-.41v-2.47h-6.02c-.36,1.53-1.08,3.06-2.47,4.17-.18-.25-.66-.74-.94-.92,2.24-1.79,2.46-4.45,2.46-6.56v-4.22h8.29ZM126.24,279.01c0,.61-.04,1.27-.12,1.95h5.81v-1.95h-5.69ZM131.92,275.86h-5.69v1.95h5.69v-1.95Z"/>
          <path class="cls-4" d="M141.49,285.16h-1.44v-2.63h-4.16v-.99l3.89-6.32h1.7v6.15h1.24v1.16h-1.24v2.63ZM137.33,281.37h2.72v-2.98c0-.57.03-1.16.07-1.73h-.05c-.3.63-.55,1.12-.83,1.65l-1.9,3.04v.03Z"/>
          <path class="cls-4" d="M144.92,274.76h11.06v11.47h-1.32v-.88h-8.49v.88h-1.25v-11.47ZM146.18,284.12h8.49v-8.13h-8.49v8.13ZM147.87,277.77h5.04v4.51h-5.04v-4.51ZM151.75,281.25v-2.44h-2.76v2.44h2.76Z"/>
          <path class="cls-4" d="M165.91,285.16h-1.44v-2.65h-2.22v-.78h2.22v-1.16h-2.22v-.79h1.85l-2.36-4.55h1.62l1.31,3c.24.57.42,1.07.58,1.52h.04c.15-.44.34-.98.58-1.53l1.35-2.98h1.58l-2.5,4.55h1.85v.79h-2.24v1.16h2.24v.78h-2.24v2.65Z"/>
          <path class="cls-4" d="M175.66,285.16h-1.44v-2.63h-4.16v-.99l3.89-6.32h1.7v6.15h1.24v1.16h-1.24v2.63ZM171.51,281.37h2.72v-2.98c0-.57.03-1.16.07-1.73h-.05c-.3.63-.55,1.12-.83,1.65l-1.9,3.04v.03Z"/>
          <path class="cls-4" d="M180.79,283.11c-.38,1.32-1.04,2.96-1.54,3.79l-1.06.11c.37-1,.77-2.59.94-3.75l1.66-.15Z"/>
          <path class="cls-4" d="M187.93,285.16h-1.44v-2.63h-4.16v-.99l3.89-6.32h1.7v6.15h1.24v1.16h-1.24v2.63ZM183.77,281.37h2.72v-2.98c0-.57.03-1.16.07-1.73h-.05c-.3.63-.55,1.12-.83,1.65l-1.9,3.04v.03Z"/>
          <path class="cls-4" d="M190.75,280.21c0-3.25,1.23-5.15,3.29-5.15s3.16,2.03,3.16,5.04c0,3.37-1.21,5.2-3.26,5.2s-3.18-2.05-3.18-5.09ZM195.64,280.16c0-2.36-.5-3.88-1.66-3.88-1,0-1.69,1.4-1.69,3.88s.61,3.92,1.66,3.92c1.29,0,1.69-1.86,1.69-3.92Z"/>
          <path class="cls-4" d="M198.96,280.21c0-3.25,1.23-5.15,3.29-5.15s3.16,2.03,3.16,5.04c0,3.37-1.21,5.2-3.26,5.2s-3.18-2.05-3.18-5.09ZM203.86,280.16c0-2.36-.5-3.88-1.66-3.88-1,0-1.69,1.4-1.69,3.88s.61,3.92,1.66,3.92c1.29,0,1.69-1.86,1.69-3.92Z"/>
          <path class="cls-4" d="M219.39,279.84c0,1.58-.44,3.74-1.23,4.8-.42.62-.88.83-1.47.83-.63,0-1.54-.3-2.26-.69-.09-.4-.07-1.11.01-1.44.61.38,1.44.74,1.91.74.37,0,.59-.09.88-.55.51-.79.83-2.39.83-3.59,0-1.1-.49-1.49-1.33-1.49-.29,0-.75.07-1.31.17-.71,2.02-1.98,5.35-2.89,6.97-.38-.08-1.02-.4-1.31-.66,1.08-1.72,2.17-4.38,2.76-6.03-.74.13-1.56.28-2.34.34-.16-.33-.29-.92-.32-1.36.45.04.95,0,1.52-.05.42-.04.98-.12,1.57-.21.25-.84.55-1.9.69-2.81.49.08,1.12.32,1.43.51-.16.49-.4,1.19-.69,2.09.5-.07.95-.12,1.27-.12,1.2,0,2.26.75,2.26,2.55ZM220.77,277.15c.84.87,1.95,2.68,2.35,3.75-.2.26-.74.61-1.12.75-.45-1.37-1.48-3.04-2.26-3.85.26-.24.73-.5,1.03-.65ZM221.21,277c-.29-.48-.71-1.07-1.11-1.47.17-.16.46-.36.65-.44.34.34.88,1.02,1.15,1.45-.13.15-.44.36-.69.45ZM222.51,276.16c-.3-.48-.73-1.02-1.12-1.43.17-.16.48-.36.65-.44.34.33.88.96,1.15,1.41-.13.13-.42.36-.67.45Z"/>
        </g>
        <g>
          <path class="cls-4" d="M52.65,365.92h-3.04v-5.62h-4.69v-1.65h4.69v-2.46h-4.69v-1.68h3.91l-5-9.64h3.44l2.77,6.34c.5,1.2.89,2.26,1.23,3.21h.08c.31-.92.73-2.07,1.23-3.24l2.85-6.31h3.35l-5.28,9.64h3.91v1.68h-4.75v2.46h4.75v1.65h-4.75v5.62Z"/>
          <path class="cls-4" d="M73.07,367.91c-6.13,0-11.57-3.62-11.57-11.25v-15.19c0-7.83,5.44-11.3,11.57-11.3s11.57,3.46,11.57,11.25v15.24c0,7.62-5.44,11.25-11.57,11.25ZM73.07,335.56c-3.36,0-5.44,2.29-5.44,6.24v14.5c0,3.94,2.08,6.24,5.44,6.24s5.38-2.29,5.38-6.24v-14.5c0-3.94-2.08-6.24-5.38-6.24Z"/>
        </g>
        <g>
          <path class="cls-4" d="M219.1,299.96l-6.57,14.41h4.81v-5.59h3.45v5.59h1.87v3h-1.87v3.09h-3.45v-3.09h-9v-2.44l7.1-14.97h3.65Z"/>
          <path class="cls-4" d="M238.27,304.47v14.04c0,2.11-.91,2.37-5.1,2.33-.11-.5-.44-1.35-.74-1.83.81.04,1.63.06,2.27.06,1.61,0,1.72,0,1.72-.57v-3.46h-8.43c-.5,2.15-1.52,4.29-3.46,5.84-.26-.35-.92-1.04-1.31-1.29,3.14-2.52,3.44-6.23,3.44-9.19v-5.92h11.61ZM228.45,310.6c0,.85-.06,1.78-.17,2.74h8.14v-2.74h-7.97ZM236.42,306.18h-7.97v2.74h7.97v-2.74Z"/>
        </g>
        <g>
          <path class="cls-4" d="M162.87,350.66h-4.53v-16.14h16.14v4.71h-11.27v6.3c.91-.91,2.29-1.73,4.58-1.73,4.96,0,7.86,3.84,7.86,10.75,0,6.52-3.11,10.14-9.07,10.14-4.83,0-8.63-3.02-9.06-7.77h4.92c.52,2.16,1.9,3.41,4.06,3.41,2.55,0,4.14-1.68,4.14-5.61s-1.21-6.26-4.14-6.26c-1.77,0-2.89.95-3.63,2.2Z"/>
          <path class="cls-4" d="M188.6,364.69c-4.96,0-9.37-2.94-9.37-9.11v-12.3c0-6.35,4.4-9.15,9.37-9.15s9.37,2.81,9.37,9.11v12.35c0,6.17-4.4,9.11-9.37,9.11ZM188.6,338.48c-2.72,0-4.4,1.86-4.4,5.05v11.74c0,3.19,1.68,5.05,4.4,5.05s4.36-1.86,4.36-5.05v-11.74c0-3.19-1.68-5.05-4.36-5.05Z"/>
          <path class="cls-4" d="M208.63,351.24c0,1.99-.95,3.38-3.29,3.38-2.1,0-3.24-1.24-3.24-3.38v-1.15c0-2.14,1.19-3.35,3.24-3.35s3.29,1.19,3.29,3.35v1.15ZM206.73,351.22v-1.08c0-1.17-.46-1.72-1.39-1.72-.86,0-1.32.57-1.32,1.72v1.08c0,1.08.35,1.74,1.32,1.74s1.39-.68,1.39-1.74ZM215.19,346.94l-8.5,15.22h-2.36l8.52-15.22h2.34ZM217.57,358.99c0,1.99-.95,3.38-3.29,3.38-2.07,0-3.22-1.24-3.22-3.38v-1.15c0-2.14,1.19-3.35,3.22-3.35s3.29,1.19,3.29,3.35v1.15ZM215.69,358.96v-1.08c0-1.17-.49-1.72-1.39-1.72s-1.35.57-1.35,1.72v1.08c0,1.08.35,1.74,1.35,1.74s1.39-.68,1.39-1.74Z"/>
          <path class="cls-4" d="M231.88,364.69c-6.65,0-11.14-4.01-11.14-13.38v-3.8c0-9.37,4.49-13.38,11.14-13.38s11.18,4.01,11.18,13.38v3.8c0,9.37-4.49,13.38-11.18,13.38ZM225.75,351.3c0,6.43,2.16,9.02,6.13,9.02s6.17-2.59,6.17-9.02v-3.8c0-6.43-2.2-9.02-6.17-9.02s-6.13,2.59-6.13,9.02v3.8Z"/>
          <path class="cls-4" d="M265.38,334.51v4.36h-13.25v8.55h11.96v4.32h-11.96v12.56h-5.01v-29.79h18.26Z"/>
          <path class="cls-4" d="M286.74,334.51v4.36h-13.25v8.55h11.96v4.32h-11.96v12.56h-5.01v-29.79h18.26Z"/>
        </g>
        <line class="cls-2" x1="138.05" y1="299.3" x2="138.05" y2="372.08"/>
        <circle class="cls-4" cx="138.05" cy="335.78" r="7.62"/>
        <path class="cls-7" d="M137.59,331.42h1.08v3.52h3.37v1.03h-3.37v3.54h-1.08v-3.54h-3.38v-1.03h3.38v-3.52Z"/>
        <g>
          <g>
            <path class="cls-4" d="M61.12,256.9v5.81c0,.55.04,1.63.08,2.43-.72.08-2.2.02-2.93-.09.06-.61.11-1.61.13-2.41.06-1.75.11-9.69.09-11.19,0-.7-.04-1.69-.13-2.53.74-.02,2.15.04,2.83.15-.04.68-.08,2.79-.08,5.15,2.38.74,5.03,1.79,6.76,2.6-.15.74-.63,1.94-1.06,2.53-1.56-.85-3.78-1.82-5.7-2.45Z"/>
            <path class="cls-4" d="M73.9,262.22c.06-1.61.06-6.84.06-10.01,0-.85-.04-1.82-.09-2.36.44,0,2.11.11,2.75.25-.13,1.58-.13,9.59-.13,11.38,3.06-.84,7.09-2.91,9.8-6.78.49.53,1.2,1.79,1.41,2.49-2.15,2.79-6.1,5.45-11.42,7.14-.3.11-.47.15-.78.28-.49-.25-1.35-.82-1.69-1.22.06-.42.08-.87.09-1.18Z"/>
            <path class="cls-4" d="M105.48,252.85c.42,0,1.37-.04,1.82-.06.11.68.15,1.58.08,2.32-.51,0-1.14-.02-1.71-.02l-1.94.02c-.04,5.02-1.35,8.04-6.17,10.07-.55-.32-1.65-1.39-2.11-2.15.82-.17,1.71-.42,2.3-.74,2.47-1.29,3.53-3.13,3.53-7.16l-4.39.04v4.33c-.65.08-1.71.09-2.53,0,.02-.27.06-1.18.08-1.77.02-.66.02-1.6.02-2.55l-1.71.02c-.53,0-1.29.02-1.8.04-.15-.55-.23-1.84-.19-2.37.55.04,1.08.06,1.73.08h1.98c0-.82-.02-1.48-.02-1.84,0-.61-.04-1.29-.09-1.82.67,0,1.94.02,2.56.11,0,.42-.02,1.86-.02,3.55l4.37-.04c0-.8-.02-1.56-.04-2.05-.02-.44-.04-1.22-.11-1.82.72-.02,2.01.04,2.68.11-.02.89-.04,2.32-.04,3.72l1.73-.02Z"/>
            <path class="cls-4" d="M115.74,257.01c-.55,1.61-1.96,4.48-2.91,5.7-.61-.19-1.65-.68-2.2-1.12,1.14-1.33,2.36-3.59,2.93-5.47.63.19,1.69.61,2.18.89ZM120.51,254.47c0,2.13.04,7.28.04,8.74,0,1.12-.65,1.79-2,1.79-.91,0-2.24-.11-3.17-.27-.17-.49-.34-2.01-.34-2.51.82.25,1.86.4,2.41.4.47,0,.7-.13.72-.68,0-.74-.04-5.57-.04-7.43-2.15.02-4.07.04-4.6.04s-1.29.02-1.81.02c-.09-.55-.19-1.84-.19-2.37.57.04,1.1.04,1.75.06.49.02,2.56,0,4.84-.02,0-1.23-.02-2.66-.11-3.12.63-.04,1.96.02,2.6.09-.02.59-.08,1.75-.1,3,2.17-.02,4.08-.06,4.5-.06s1.33-.02,1.77-.04c.04.55.09,1.8.09,2.34-.53-.02-1.12-.02-1.65-.02-.57,0-2.55.02-4.73.04ZM124.63,256.12c.84,1.08,2.45,4.07,2.93,5.7-.49.34-1.52.76-2.32.97-.55-2.09-1.65-4.24-2.7-5.72.53-.3,1.5-.76,2.09-.95ZM123.97,249.83c0-1.01.84-1.84,1.86-1.84s1.88.84,1.88,1.86-.84,1.88-1.88,1.88-1.86-.84-1.86-1.88v-.02ZM124.88,249.87c0,.51.44.93.95.93s.93-.42.93-.95-.42-.93-.93-.93-.95.42-.95.93v.02Z"/>
            <path class="cls-4" d="M142.09,259.5c-1.77,2.62-4.46,4.46-7.28,5.51-.78-.44-1.71-1.54-2.2-2.37,2.83-.67,5.07-1.75,6.92-4.01,1.22-1.46,1.94-3.55,2.17-5.17-1.69.02-8.66.11-10.32.15-.13-.65-.23-2.2-.23-2.74.8.06,1.69.11,2.34.11,1.1,0,7.33-.06,8.49-.09.36,0,.8-.02,1.23-.09.49.28,1.24.93,1.63,1.48-.47,2.36-1.14,4.81-2.75,7.22ZM143.94,249.81c0-1.08.87-1.96,1.98-1.96s1.96.87,1.96,1.98-.87,1.96-1.96,1.96-1.98-.87-1.98-1.96v-.02ZM144.92,249.85c0,.49.44.93.99.93.51,0,.95-.44.95-.95,0-.55-.44-.99-.95-.99-.55,0-.99.44-.99.99v.02Z"/>
            <path class="cls-4" d="M162.22,261.25c-2.11,2.3-5.07,3.57-6.93,3.93-.63-.46-1.6-1.58-1.98-2.32,2.43-.25,5.11-1.25,6.8-2.98,1.03-1.04,1.58-2.22,1.88-3.4-1.16,0-8.93.11-10.51.17-.15-.59-.27-1.9-.25-2.53.7.06,1.35.09,2.05.09,1.33.06,8.02-.02,9.44-.11.42-.02.74-.06,1.06-.09.38.17,1.06.61,1.42.93-.53,2.05-1.29,4.41-3,6.31ZM154.45,249.59c1.16.04,6.72-.04,7.69-.08.65-.02,1.14-.08,1.56-.11.11.55.17,1.69.15,2.37-.78,0-7.88.04-9.16.08-.29,0-1.18.02-1.69.04-.08-.57-.19-1.67-.17-2.37.63.04.95.06,1.62.08Z"/>
            <path class="cls-4" d="M184.81,262.69c-.36.63-1.22,1.56-1.94,1.96-1.16-1.56-2.77-3.53-4.79-5.28-2.17,2.28-4.81,4.16-7.18,5.17-.53-.42-1.54-1.54-1.94-2.2,3.34-1.12,6-3.23,7.77-5.13,1.46-1.54,2.3-2.94,2.91-4.39-1.98.02-7.26.15-8.64.21-.13-.63-.27-1.73-.3-2.49.59.06,1.29.09,1.92.09.89,0,6.86-.09,8-.15.46-.02.91-.08,1.22-.11.53.34,1.03.84,1.35,1.31-.67,1.58-2.01,3.89-3.5,5.83,1.88,1.5,4.1,3.86,5.13,5.19Z"/>
          </g>
          <g>
            <path class="cls-4" d="M192.19,254.02l3.96,3.96,3.96-3.96.35.35-3.96,3.96,3.96,3.96-.35.35-3.96-3.96-3.97,3.97-.35-.35,3.97-3.97-3.96-3.96.35-.35ZM192.73,259.22c-.49,0-.9-.41-.9-.9s.41-.9.9-.9.9.41.9.9c0,.52-.43.9-.9.9ZM195.25,254.9c0-.49.41-.9.9-.9s.9.41.9.9-.41.9-.9.9-.9-.43-.9-.9ZM197.05,261.74c0,.49-.41.9-.9.9s-.9-.41-.9-.9.41-.9.9-.9c.52,0,.9.43.9.9ZM199.57,257.42c.49,0,.9.41.9.9s-.41.9-.9.9-.9-.41-.9-.9.43-.9.9-.9Z"/>
            <path class="cls-4" d="M213.48,255.59c.07.32.08.88.06,1.2-.24,0-.49-.01-.78-.01-.16,0-1.08,0-2.22.01.02,1.46.12,4.91.13,5.52.01.73-.3,1.1-1.09,1.1-.58,0-1.58-.08-2.05-.16-.1-.32-.17-.95-.18-1.31.65.17,1.44.26,1.68.26.31,0,.44-.1.44-.46,0,0,0-.28-.08-3.93-.98,1.48-2.84,3.15-4.91,4.28-.35-.2-.8-.71-.98-1.02,2.25-.91,4.15-2.67,5.19-4.28-1.55.01-3.02.04-3.35.04-.19,0-.86.01-1.22.01-.07-.36-.12-.85-.11-1.21.37.02.74.04,1.16.04.47.01,2.38,0,4.15-.02-.04-.74-.06-1.66-.13-2.18.31-.02.98.02,1.33.08-.01.43-.01,1.25-.01,2.1,1.02-.01,1.82-.02,2.04-.02l.92-.04Z"/>
            <path class="cls-4" d="M222.02,260.01c-1.15,1.68-2.84,2.76-4.61,3.39-.38-.2-.84-.76-1.09-1.18,1.85-.43,3.29-1.22,4.45-2.67.79-.98,1.26-2.41,1.42-3.51-.94.01-5.68.07-6.73.1-.07-.31-.14-1.08-.14-1.37.46.05.97.07,1.39.07.61,0,4.86-.04,5.54-.05.2-.01.43-.02.67-.06.24.14.62.47.83.72-.3,1.43-.7,3.02-1.73,4.56ZM223.34,254.08c0-.66.53-1.19,1.2-1.19s1.21.53,1.21,1.2-.54,1.21-1.21,1.21-1.2-.54-1.2-1.21h0ZM223.88,254.1c0,.35.3.65.66.65s.66-.3.66-.66-.3-.66-.66-.66-.66.3-.66.66h0Z"/>
            <path class="cls-4" d="M230.3,257.95c-.1.3-.38.84-.59,1.07-.66-.42-1.96-1.07-2.76-1.4.12-.29.41-.88.56-1.08.73.3,2.17,1.01,2.78,1.42ZM231.51,260.84c1.72-.97,3.38-2.66,4.34-4.64.36.22.78.74.95,1.06-1.01,1.73-2.66,3.48-4.64,4.64-1.28.76-2.53,1.24-3.55,1.52-.34-.26-.7-.85-.86-1.24,1.24-.18,2.65-.71,3.77-1.34ZM231.91,255.19c-.12.29-.43.83-.64,1.04-.67-.46-1.96-1.15-2.71-1.5.12-.29.44-.86.6-1.07.76.36,2.12,1.07,2.75,1.52Z"/>
            <path class="cls-4" d="M244.37,257.78c-.46,0-4.07.02-4.88.04-.02-.23-.07-.9-.07-1.06.26.01.84.04,1.12.04.54.01,4.31.02,4.97-.02-.04.7-.07,5.62-.02,6.73-.24.04-.84.04-1.14,0v-.52c-1.17-.01-3.54-.01-3.99,0-.37,0-.78.02-.97.02-.04-.29-.07-.88-.07-1.08.62.05,3.72.05,5.05.04v-1.69c-1.04-.01-3.12,0-3.53,0s-.73.01-.98.02c-.02-.23-.06-.82-.06-1.04.14.01.71.04,1.14.05,1.08.01,2.63.01,3.44.01v-1.54Z"/>
            <path class="cls-4" d="M252.85,255.92c-.11.34-.49.94-.73,1.2-.73-.6-2.1-1.42-3.17-1.88.14-.31.53-.94.68-1.15.94.4,2.45,1.21,3.21,1.84ZM252.9,260.71c1.89-1.08,3.39-2.72,4.33-4.75.36.23.82.74.98,1.07-1.08,1.92-2.64,3.62-4.63,4.79-1.3.74-2.55,1.21-3.57,1.49-.35-.32-.7-.88-.84-1.28,1.27-.19,2.63-.68,3.73-1.31Z"/>
          </g>
        </g>
      </g>
    </g>
  </g>
</svg>