<svg xmlns="http://www.w3.org/2000/svg" width="255.696" height="50.813" viewBox="0 0 255.696 50.813">
  <g id="グループ_486" data-name="グループ 486" transform="translate(-1552.035 -4630.327)">
    <g id="グループ_21" data-name="グループ 21">
      <path id="パス_317" data-name="パス 317" d="M1583.935,4669.616h-5.581a16.134,16.134,0,0,0,6.355,6.59,9.77,9.77,0,0,0-1.674,1.962,15.025,15.025,0,0,1-2.972-2.43v2.071h-3.006v3.079h-2.286v-3.079h-3.116v-1.927a16.587,16.587,0,0,1-2.844,2.341,11.646,11.646,0,0,0-1.585-1.8,16.044,16.044,0,0,0,6.248-6.806h-5.528v-2.2h6.825v-3.511l2.791.144c-.019.18-.163.288-.505.361v3.006h6.878Zm-9.164,2.035a20.688,20.688,0,0,1-2.864,3.961h2.864Zm2.286,3.961h2.9a20.474,20.474,0,0,1-2.9-4Z" fill="#0c3b2c"/>
      <path id="パス_318" data-name="パス 318" d="M1591.365,4668.464a14.374,14.374,0,0,1-1.908,2.484h11.721c-.036,4.376.2,7.815,1.26,7.815.271-.018.342-.972.378-2.449a7.61,7.61,0,0,0,1.4,1.351c-.162,2.268-.558,3.24-1.945,3.24-2.646,0-3.186-3.474-3.3-8.138h-9.758v-1.6l-.235.216a12.583,12.583,0,0,0-1.818-1.3,12.426,12.426,0,0,0,3.8-6.266l2.593.684a.509.509,0,0,1-.5.235,9.023,9.023,0,0,1-.325.9h10.786v1.8h-11.578l-.486.864h10.407v1.746h-10.5Zm-.558,4.987c.936.5,2,1.1,3.043,1.765a12.593,12.593,0,0,0,1.6-2.359l2.377.9a.472.472,0,0,1-.522.2,15.019,15.019,0,0,1-1.71,2.394,21.667,21.667,0,0,1,2.9,2.341l-1.728,1.638a21.521,21.521,0,0,0-2.719-2.358,18.7,18.7,0,0,1-4.772,3.169,12.254,12.254,0,0,0-1.476-1.6,16.281,16.281,0,0,0,4.519-2.791c-1.026-.684-2.089-1.332-3.06-1.872Z" fill="#0c3b2c"/>
      <path id="パス_319" data-name="パス 319" d="M1608.645,4667.023c1.224-.144,11.019-1.476,12.73-1.476a6.663,6.663,0,0,1,.36,2.179,8.642,8.642,0,0,0-2.971.359,5.738,5.738,0,0,0-4.015,5.438c0,3.151,2.629,4.178,5.527,4.178a5.578,5.578,0,0,1-.864,2.43c-3.438-.018-7.13-1.8-7.13-6.122a7.135,7.135,0,0,1,2.755-5.743c-1.783.216-5.636.99-7.526,1.26a8.429,8.429,0,0,1-.828-2.377C1607.421,4667.131,1608.321,4667.06,1608.645,4667.023Zm11.919,4.736a3.122,3.122,0,0,1-1.152.558,20.261,20.261,0,0,0-1.134-2.251,5.235,5.235,0,0,1,1.134-.522A14.429,14.429,0,0,1,1620.564,4671.759Zm2.107-.864a4.456,4.456,0,0,1-1.17.576,21.675,21.675,0,0,0-1.171-2.233,4.765,4.765,0,0,1,1.152-.54A18.32,18.32,0,0,1,1622.671,4670.9Z" fill="#0c3b2c"/>
      <path id="パス_320" data-name="パス 320" d="M1631.146,4674.352a7.291,7.291,0,0,0-.234-.919l-.846.054v7.4h-1.854v-5.834a.371.371,0,0,1-.36.162,16.877,16.877,0,0,1-.973,4.285,9.8,9.8,0,0,0-1.513-.738,15.327,15.327,0,0,0,.811-4.231l2.035.468v-1.387c-.774.055-1.477.09-2.053.108a.363.363,0,0,1-.324.27l-.414-2.16h1.242c.288-.36.576-.756.864-1.171a16.677,16.677,0,0,0-2.052-2.538c.414-.522.738-.991,1.062-1.459l.4.379a24.833,24.833,0,0,0,1.313-3.134l2.089.847a.479.479,0,0,1-.486.18,25.921,25.921,0,0,1-1.783,3.313c.216.252.414.5.577.738.629-1.008,1.206-2.053,1.638-2.935l2.017.918a.54.54,0,0,1-.486.2c-.577.954-1.351,2.106-2.161,3.2l1.476-.612a18.183,18.183,0,0,1,1.4,3.025v-2.071h9.83v3.656H1640.4v-1.963h-6v1.963h-1.872v-.649Zm-.864-2.575c-.2-.486-.432-.955-.648-1.369-.361.487-.72.955-1.08,1.387Zm.828,6.59a19.807,19.807,0,0,0-.9-3.386l1.585-.485a20.473,20.473,0,0,1,.972,3.331Zm5.942-4.952c0,.18-.144.288-.4.324-.252,3.493-1.369,5.96-4.1,7.131a7.4,7.4,0,0,0-1.315-1.513c2.4-.918,3.242-2.971,3.314-6.068Zm-.774-5.293v-1.009h-3.889v-1.764h3.889v-1.458l2.611.126c-.018.179-.145.288-.468.359v.973h4.033v1.764h-4.033v1.009h3.295v1.746h-8.571v-1.746Zm3.4,10.173c0,.5.036.576.288.576h.594c.27,0,.342-.288.378-2.251a4.92,4.92,0,0,0,1.729.793c-.18,2.592-.666,3.276-1.891,3.276h-1.152c-1.549,0-1.891-.594-1.891-2.394v-5.006l2.413.144c-.018.144-.162.253-.468.306Z" fill="#0c3b2c"/>
      <path id="パス_321" data-name="パス 321" d="M1651.433,4673.938c-.487.99-1.189,2.574-1.6,3.672-.307.829-.5,1.387-.7,1.981a5.387,5.387,0,0,1-1.981-.432,18.913,18.913,0,0,1-.63-5.114,59.914,59.914,0,0,1,.468-7c.072-.577.18-1.423.2-2a10.368,10.368,0,0,1,2.449.468,46.325,46.325,0,0,0-.954,8.084,6.2,6.2,0,0,0,.179,1.6c.019.09.054.108.109,0,.233-.54.756-2.035,1.062-2.773A6.6,6.6,0,0,1,1651.433,4673.938Zm5.725-3.26a36.883,36.883,0,0,1-4.249-.018,6.232,6.232,0,0,1-.4-2.322,28.261,28.261,0,0,0,4.591.216,33.351,33.351,0,0,0-.234-3.511,9.2,9.2,0,0,1,2.5.18c-.036.72-.036,1.945,0,3.169a13.306,13.306,0,0,0,2.5-.451,6.682,6.682,0,0,1,.055,2.233c-.6.126-1.477.252-2.522.36.019.432.019.829.019,1.117,0,4.645-.666,7.13-3.818,8.984a5.164,5.164,0,0,1-2.124-1.692,5.356,5.356,0,0,0,1.531-.828c1.908-1.477,2.142-3.619,2.142-6.717Z" fill="#0c3b2c"/>
      <path id="パス_322" data-name="パス 322" d="M1667.289,4667.708c.612,0,1.3-.037,2.017-.108.054-.252.09-.487.126-.667a18.317,18.317,0,0,0,.324-2.628,13.791,13.791,0,0,1,2.539.576c-.09.4-.288,1.278-.523,2.34a14.165,14.165,0,0,0,2.377-.63,10.471,10.471,0,0,1-.036,2.377,24.1,24.1,0,0,1-2.863.594c-.161.684-.342,1.369-.5,2-.738,2.718-1.854,6.392-2.646,8.534a8.055,8.055,0,0,1-2.557-.81,68.082,68.082,0,0,0,2.971-8.372c.09-.361.179-.7.27-1.045-.883.072-1.8.126-2.7.144a11.461,11.461,0,0,1-.36-2.394,12.4,12.4,0,0,0,1.548.09Zm9.993,10.154a11.944,11.944,0,0,0,3.4-.5,7.8,7.8,0,0,1-.378,2.377,14.061,14.061,0,0,1-3.314.342c-3.15,0-4.771-1.3-4.771-3.169a6.471,6.471,0,0,1,.7-2.574,6.737,6.737,0,0,1,2.053.72,2.762,2.762,0,0,0-.468,1.386C1674.51,4677.269,1675.248,4677.862,1677.282,4677.862Zm.595-9.344a25.067,25.067,0,0,1,2.988.18,11.892,11.892,0,0,1-.234,2.215,18.057,18.057,0,0,0-2.809-.253,20.863,20.863,0,0,0-2.934.18,15.139,15.139,0,0,1,.036-2.2,25.753,25.753,0,0,1,2.934-.126Z" fill="#0c3b2c"/>
      <path id="パス_323" data-name="パス 323" d="M1688.331,4672.137c.271,2.556.919,4.483,1.729,4.483.667,0,.991-1.98,1.152-3.727a7.645,7.645,0,0,1,2.251,1.26c-.666,3.944-1.836,5.312-3.349,5.312-1.764,0-3.583-1.62-4.177-6.986-.252-2.305-.378-4.3-.451-5.762a13.466,13.466,0,0,1,2.629.252C1688.079,4667.8,1688.17,4670.48,1688.331,4672.137Zm13.091,2.827a7.153,7.153,0,0,1-2.287,1.188,14.92,14.92,0,0,0-3.421-7.364,12.89,12.89,0,0,1,2-1.224A15.241,15.241,0,0,1,1701.422,4674.964Z" fill="#0c3b2c"/>
      <path id="パス_324" data-name="パス 324" d="M1717.477,4676.908a6.548,6.548,0,0,1-.181,2.683,16.288,16.288,0,0,1-4.843.666c-3.367,0-6.086-1.368-6.05-4.591a5.707,5.707,0,0,1,2.737-4.573,31.721,31.721,0,0,1-2.791-4.7,6.367,6.367,0,0,1,2.089-1.332,22.05,22.05,0,0,0,2.646,4.735c1.531-.954,3.241-1.981,4.1-2.575a13.617,13.617,0,0,0,1.531-1.17,8.274,8.274,0,0,1,1.188,2.125c-.468.378-3.169,1.908-5.005,2.989-.09.5-.18,1.062-.234,1.512a6.917,6.917,0,0,1-1.53.522,3.046,3.046,0,0,1-.649-.522,3.542,3.542,0,0,0-1.692,2.755c-.019,1.423,1.1,2.448,3.619,2.448A12.178,12.178,0,0,0,1717.477,4676.908Z" fill="#0c3b2c"/>
      <path id="パス_325" data-name="パス 325" d="M1726.168,4675.5a7.835,7.835,0,0,1-2.539,4.573l-1.782-1.224a6.5,6.5,0,0,0,2.377-3.961Zm4.915,1.17a10.939,10.939,0,0,0-3.312-2.448l.99-.955H1724.2v-8.606h12.37v8.606h-6.482a9.7,9.7,0,0,1,2.575,1.909Zm-4.843-10.137v1.53h3.007v-1.53Zm0,3.277v1.584h3.007v-1.584Zm2.574,8.247c0,.54.109.594.829.594h2.016c.631,0,.738-.252.811-2.071a5.667,5.667,0,0,0,1.89.792c-.215,2.557-.792,3.206-2.5,3.206h-2.5c-2.16,0-2.682-.613-2.682-2.485v-2.9l2.611.144c-.018.162-.144.288-.469.342Zm5.619-9.994v-1.53h-3.1v1.53Zm0,3.331v-1.584h-3.1v1.584Zm2.358,8.517a17.044,17.044,0,0,0-3.061-4.339l1.926-1.1a17.409,17.409,0,0,1,3.224,4.213Z" fill="#0c3b2c"/>
      <path id="パス_326" data-name="パス 326" d="M1744.366,4671.957c1.6-.54,3.745-1.621,5.816-1.621a4.2,4.2,0,0,1,4.429,4.249c0,3.386-2.808,5.366-7.328,5.528a7.463,7.463,0,0,1-1.009-2.178c3.53.108,6.086-.991,6.086-3.385a2.076,2.076,0,0,0-2.178-2.179c-2.071,0-4.07,1.386-6.608,2.179a7.018,7.018,0,0,1-1.135-2.089A19.23,19.23,0,0,0,1744.366,4671.957Z" fill="#0c3b2c"/>
      <path id="パス_327" data-name="パス 327" d="M1761.069,4667.708c.613,0,1.3-.037,2.017-.108.055-.252.09-.487.126-.667a18.179,18.179,0,0,0,.324-2.628,13.77,13.77,0,0,1,2.539.576c-.09.4-.288,1.278-.522,2.34a14.191,14.191,0,0,0,2.377-.63,10.528,10.528,0,0,1-.036,2.377,24.181,24.181,0,0,1-2.863.594c-.162.684-.343,1.369-.505,2-.738,2.718-1.854,6.392-2.646,8.534a8.055,8.055,0,0,1-2.557-.81,67.921,67.921,0,0,0,2.971-8.372c.09-.361.18-.7.27-1.045-.882.072-1.8.126-2.7.144a11.526,11.526,0,0,1-.36-2.394,12.4,12.4,0,0,0,1.549.09Zm9.994,10.154a11.941,11.941,0,0,0,3.4-.5,7.806,7.806,0,0,1-.378,2.377,14.061,14.061,0,0,1-3.314.342c-3.151,0-4.771-1.3-4.771-3.169a6.49,6.49,0,0,1,.7-2.574,6.727,6.727,0,0,1,2.053.72,2.772,2.772,0,0,0-.468,1.386C1768.29,4677.269,1769.028,4677.862,1771.063,4677.862Zm.593-9.344a25.1,25.1,0,0,1,2.99.18,11.813,11.813,0,0,1-.235,2.215,18.055,18.055,0,0,0-2.808-.253,20.887,20.887,0,0,0-2.935.18,15.139,15.139,0,0,1,.036-2.2,25.76,25.76,0,0,1,2.935-.126Z" fill="#0c3b2c"/>
      <path id="パス_328" data-name="パス 328" d="M1782.778,4673.181a8.233,8.233,0,0,1,5.456-2.142c2.935,0,4.591,1.836,4.591,4.123,0,4.123-4.375,5.6-8.264,5.329a6.269,6.269,0,0,1-.756-2.358c4.1.45,6.662-.775,6.662-3.043,0-1.134-.918-1.945-2.467-1.945a6.835,6.835,0,0,0-5.113,2.557,7.461,7.461,0,0,0-.631.918,9.5,9.5,0,0,1-1.908-.972c.162-1.1.467-7.184.467-7.886a14.151,14.151,0,0,1,2.36.414C1783.03,4669.148,1782.8,4672.263,1782.778,4673.181Zm.019-8.768a60.143,60.143,0,0,0,5.995,1.584,6.132,6.132,0,0,1-.7,2.07,56.777,56.777,0,0,1-5.978-1.638A9.433,9.433,0,0,1,1782.8,4664.413Z" fill="#0c3b2c"/>
    </g>
    <g id="グループ_485" data-name="グループ 485">
      <g id="グループ_25" data-name="グループ 25">
        <path id="パス_353" data-name="パス 353" d="M1581.332,4637.423a22.238,22.238,0,0,1,1.841,3.922,3.7,3.7,0,0,1-1.088,1.2,32.444,32.444,0,0,0-4.194-1.184,6.966,6.966,0,0,1,.72-1.649c.752.208,1.889.577,2.225.705a21.889,21.889,0,0,0-1.3-2.465c-.177-.289-.337-.577-.513-.849a30.384,30.384,0,0,1-5.65.8,6.3,6.3,0,0,1-.832-2.032,22.084,22.084,0,0,0,5.426-.449c-.224-.336-.432-.656-.624-.944-.321-.448-.672-.96-1.025-1.376a8.79,8.79,0,0,1,1.953-.753c.352.512.945,1.457,1.617,2.561a13.7,13.7,0,0,0,3.009-1.376,5.069,5.069,0,0,1,.56,1.921,17.122,17.122,0,0,1-2.608,1.12C1581.012,4636.847,1581.172,4637.135,1581.332,4637.423Zm-.352,6.771a6.722,6.722,0,0,1-.288,2.1,11.621,11.621,0,0,1-2.7.32c-3.473,0-5.33-1.473-5.33-3.393a3.859,3.859,0,0,1,1.04-2.482,4.354,4.354,0,0,1,1.6.881,2.059,2.059,0,0,0-.592,1.361c0,1.072,1.088,1.7,3.153,1.7A10.634,10.634,0,0,0,1580.98,4644.194Z" fill="#0c3b2c"/>
        <path id="パス_354" data-name="パス 354" d="M1591.01,4640.225a7.312,7.312,0,0,1,4.849-1.905c2.61,0,4.082,1.632,4.082,3.665,0,3.665-3.889,4.978-7.346,4.738a5.562,5.562,0,0,1-.673-2.1c3.649.4,5.923-.688,5.923-2.705,0-1.008-.817-1.729-2.194-1.729a6.081,6.081,0,0,0-4.546,2.273,6.707,6.707,0,0,0-.559.817,8.494,8.494,0,0,1-1.7-.864c.144-.977.416-6.387.416-7.012a12.8,12.8,0,0,1,2.1.368C1591.233,4636.639,1591.025,4639.408,1591.01,4640.225Zm.015-7.8a53.565,53.565,0,0,0,5.33,1.409,5.442,5.442,0,0,1-.624,1.841,51.054,51.054,0,0,1-5.313-1.457A8.45,8.45,0,0,1,1591.025,4632.429Z" fill="#0c3b2c"/>
        <path id="パス_355" data-name="パス 355" d="M1607.361,4633.742a34.6,34.6,0,0,0-.784,5.794,11.9,11.9,0,0,0,.048,2.049c.016.16.08.224.16.032.193-.48.528-1.441.8-2.193a4.619,4.619,0,0,1,1.44,1.056,41.6,41.6,0,0,0-2.273,5.683,6.733,6.733,0,0,1-1.664-.16,17.888,17.888,0,0,1-.545-4.674,47.1,47.1,0,0,1,.416-6.243c.064-.528.16-1.28.192-1.809A8.772,8.772,0,0,1,1607.361,4633.742Zm4.37,7.587a2.913,2.913,0,0,0-.32,1.184c0,.689.576,1.217,2.385,1.217a9.76,9.76,0,0,0,3.842-.721,6.983,6.983,0,0,1,.128,2.242,14.625,14.625,0,0,1-4.082.56c-2.881,0-4.338-1.057-4.338-2.753a6.107,6.107,0,0,1,.512-2.273A7.186,7.186,0,0,1,1611.731,4641.329Zm5.363-7.219a8.832,8.832,0,0,1,.015,2.049,35.271,35.271,0,0,1-6.5.1,8,8,0,0,1-.16-2.113A22.4,22.4,0,0,0,1617.094,4634.11Z" fill="#0c3b2c"/>
        <path id="パス_356" data-name="パス 356" d="M1621.1,4644.322a1.41,1.41,0,1,1,2.817,0,1.409,1.409,0,1,1-2.817,0Zm2.337-2.609h-1.857l-.319-8.42h2.5Z" fill="#0c3b2c"/>
        <path id="パス_357" data-name="パス 357" d="M1641.782,4637.263h-3.458a15.529,15.529,0,0,0,3.906,5.746,7.473,7.473,0,0,0-1.409,1.505,11.278,11.278,0,0,1-1.36-1.664v1.408h-2.129v2.833h-1.873v-2.833h-2.08v-1.473a12.063,12.063,0,0,1-1.505,1.777,8.489,8.489,0,0,0-1.152-1.28v3.809h-1.857v-8.227a16.8,16.8,0,0,1-1.392,1.793,16.381,16.381,0,0,0-.913-1.937,19.394,19.394,0,0,0,3.681-6.691l2.129.736a.42.42,0,0,1-.448.193,32.939,32.939,0,0,1-1.376,3.057l.592.16c-.033.144-.144.256-.416.272v6.483a15.274,15.274,0,0,0,3.761-5.667h-3.122v-1.824h4.1v-3.266l2.289.128c-.016.144-.128.256-.416.288v2.85h4.45Zm-6.323,1.617a21.171,21.171,0,0,1-1.9,3.649h1.9Zm1.873,3.649h1.921a21.813,21.813,0,0,1-1.921-3.761Z" fill="#0c3b2c"/>
        <path id="パス_358" data-name="パス 358" d="M1646.112,4642.321a7.7,7.7,0,0,1-.912,3.874l-.976-.528a7.156,7.156,0,0,0,.832-3.554Zm3.2-7.283h1.473v1.457h-1.473v.96h1.473v1.441h-1.473v.992h.913l.352-.016.88.064c0,.144-.016.336-.031.5-.16,4-.321,5.506-.721,6-.352.512-.736.656-2.369.608a3.954,3.954,0,0,0-.4-1.488,8.65,8.65,0,0,0,.993.048.457.457,0,0,0,.416-.192,3.2,3.2,0,0,0,.3-1.393l-.5.176a9.214,9.214,0,0,0-.719-2.081l.752-.256a9.34,9.34,0,0,1,.511,1.232h.017c.032-.48.063-1.04.1-1.712h-3.057v.352h-1.585v-9.172h5.938v1.553h-1.793Zm-2.913,10.373c.016-.209.016-.432.016-.673a15.99,15.99,0,0,0-.16-2.32l.833-.081a14.986,14.986,0,0,1,.191,2.385c0,.208,0,.4-.015.576Zm1.377-11.3h-1.024v.928h1.024Zm0,3.345v-.96h-1.024v.96Zm0,2.433v-.992h-1.024v.992Zm.064,5.058a13.021,13.021,0,0,0-.481-2.625l.817-.16a13.269,13.269,0,0,1,.528,2.593Zm11.108-2.449h-2.289a5.952,5.952,0,0,0,3.073,3.106,7.152,7.152,0,0,0-1.232,1.52,7.192,7.192,0,0,1-2.961-3.329,6.748,6.748,0,0,1-3.313,3.361,6.692,6.692,0,0,0-1.168-1.344,5.549,5.549,0,0,0,3.088-3.314h-2.3v-4.273h2.625v-.737h-1.633v-.96a8.454,8.454,0,0,1-1.169.864,6.333,6.333,0,0,0-.88-1.536,10.112,10.112,0,0,0,3.569-3.858l2.082.064a.328.328,0,0,1-.273.24,2.873,2.873,0,0,1,2.609,4.978,7.434,7.434,0,0,1-.976-.7v.912h-1.633v.737h2.785Zm-5.553-1.456h1.024a13.053,13.053,0,0,0,.048-1.361H1653.4Zm3.712-5.074a12.64,12.64,0,0,1-1.872-2.289,10.581,10.581,0,0,1-1.793,2.289Zm.193,3.713h-1.137c0,.737,0,1.009-.032,1.361h1.169Z" fill="#0c3b2c"/>
        <path id="パス_359" data-name="パス 359" d="M1664.049,4640.705a17.64,17.64,0,0,1-1.313,1.36,13.4,13.4,0,0,0-.912-1.712,17.169,17.169,0,0,0,3.713-4.706l1.953.816a.432.432,0,0,1-.448.144c-.352.592-.752,1.216-1.168,1.809l.384.127a.458.458,0,0,1-.416.257v8.275h-1.793Zm2.961-7.924a.377.377,0,0,1-.416.144,23.323,23.323,0,0,1-3.617,4.018,13.679,13.679,0,0,0-1.04-1.457,13.925,13.925,0,0,0,3.056-3.5Zm7.619,7.7,1.232.529a.562.562,0,0,1-.208.224,8.44,8.44,0,0,1-2.337,3.137,15.256,15.256,0,0,0,4,1.121,6.777,6.777,0,0,0-1.136,1.632,14.05,14.05,0,0,1-4.466-1.632,15.718,15.718,0,0,1-4.386,1.616,7.446,7.446,0,0,0-.912-1.632,14.266,14.266,0,0,0,3.729-1.137,9.527,9.527,0,0,1-1.3-1.377,12.615,12.615,0,0,1-1.376.961,10.118,10.118,0,0,0-1.137-1.345,11.186,11.186,0,0,0,3.441-2.945l-2.529.1a.36.36,0,0,1-.3.24l-.5-2c.689,0,1.5,0,2.417-.015.24-.177.464-.385.7-.577a19.75,19.75,0,0,0-2.849-2.353l1.153-1.248c.256.16.527.352.815.544a18.142,18.142,0,0,0,1.81-2.417l1.872,1.008c-.08.129-.24.16-.464.145a22.2,22.2,0,0,1-1.984,2.193c.367.3.7.591.992.88a31.79,31.79,0,0,0,2.721-2.978l1.968,1.041a.548.548,0,0,1-.5.16,37.54,37.54,0,0,1-3.793,3.569l2.9-.047c-.272-.369-.56-.721-.832-1.041l1.488-.816a15.485,15.485,0,0,1,2.482,3.521l-1.618.9a8.969,8.969,0,0,0-.528-1.057l-2.913.144a.385.385,0,0,1-.416.16q-.288.431-.624.864h3.073Zm-4.546,1.473a7.268,7.268,0,0,0,1.6,1.5,6.891,6.891,0,0,0,1.537-1.5Z" fill="#0c3b2c"/>
        <path id="パス_360" data-name="パス 360" d="M1694.214,4639.808c0,3.538-1.953,5.986-5.7,6.579a6.394,6.394,0,0,1-1.169-2.1,8.339,8.339,0,0,0,1.505-.208,4.344,4.344,0,0,0-.689-8.5,26.541,26.541,0,0,1-.608,4.385c-.737,3.17-1.889,5.443-3.986,5.443-1.7,0-3.345-2.193-3.345-4.931,0-3.9,3.1-6.818,7.331-6.818C1691.349,4633.662,1694.214,4636.063,1694.214,4639.808Zm-8.66-.256a23.855,23.855,0,0,0,.512-3.825,4.793,4.793,0,0,0-3.777,4.609c0,1.7.736,2.625,1.345,2.625C1684.418,4642.961,1685.058,4641.649,1685.554,4639.552Z" fill="#0c3b2c"/>
        <path id="パス_361" data-name="パス 361" d="M1707.844,4641.009a10.13,10.13,0,0,1-1.953,2.769,9.584,9.584,0,0,0-.672-1.537v2.353h7.123v1.745h-7.123v.7h-1.793v-2.5l-1.265.448a20.541,20.541,0,0,0-.912-3.169l1.377-.432a23.937,23.937,0,0,1,.8,2.353v-3.025l-1.248.544a8.157,8.157,0,0,0-.208-.817l-.785.049v6.578h-1.649v-5.138a.332.332,0,0,1-.3.08,14.072,14.072,0,0,1-.864,3.81,9.165,9.165,0,0,0-1.312-.64,13.709,13.709,0,0,0,.719-3.762l1.761.4v-1.217c-.672.049-1.28.081-1.776.1a.322.322,0,0,1-.288.24l-.368-1.921h1.1q.384-.5.769-1.057a14.747,14.747,0,0,0-1.826-2.24c.369-.48.657-.9.945-1.313l.336.32a20.3,20.3,0,0,0,1.136-2.753l1.857.736c-.064.128-.224.177-.448.177a23.441,23.441,0,0,1-1.521,2.944,6.12,6.12,0,0,1,.513.625,28.651,28.651,0,0,0,1.408-2.577l1.776.816c-.063.112-.223.16-.431.16-.5.848-1.185,1.889-1.889,2.866l1.3-.545a15.594,15.594,0,0,1,1.3,2.8v-7.4l2.193.128c-.016.144-.129.241-.4.288v8.852a11.228,11.228,0,0,0,2.161-3.153h-1.938v-1.713h2.4v-4.69l2.064.112c-.015.16-.128.24-.384.288v3.554a23.12,23.12,0,0,0,.993-3.2l1.84.672a.448.448,0,0,1-.416.176,22.957,22.957,0,0,1-1.216,2.961l-1.2-.512v.64h2.545v1.713h-2.545v.384c.672.576,2.209,2.065,2.593,2.481-.015.016-.048.048-1.12,1.456a21.317,21.317,0,0,0-1.473-2.016v3.361h-1.68Zm-6.451-2.033a10.668,10.668,0,0,0-.592-1.217c-.3.432-.624.849-.929,1.233Zm5.314-5.778a12.476,12.476,0,0,1,1.024,3.073l-1.44.512a13.613,13.613,0,0,0-.944-3.1Z" fill="#0c3b2c"/>
        <path id="パス_362" data-name="パス 362" d="M1719.794,4641.265a6.792,6.792,0,0,0-.208-.817l-.752.049v6.578h-1.649v-5.186a.33.33,0,0,1-.32.144,14.962,14.962,0,0,1-.865,3.81,8.774,8.774,0,0,0-1.344-.656,13.661,13.661,0,0,0,.72-3.762l1.809.416v-1.233c-.688.049-1.313.081-1.825.1a.322.322,0,0,1-.288.24l-.368-1.921h1.1c.255-.32.511-.672.768-1.041a14.781,14.781,0,0,0-1.825-2.256c.368-.465.656-.881.944-1.3l.353.336a22.06,22.06,0,0,0,1.168-2.785l1.856.752a.425.425,0,0,1-.431.161,22.937,22.937,0,0,1-1.585,2.944c.192.225.368.449.512.657a29.761,29.761,0,0,0,1.456-2.609l1.793.816a.479.479,0,0,1-.432.176c-.512.849-1.2,1.873-1.92,2.85l1.312-.545a16.245,16.245,0,0,1,1.248,2.689v-1.841h8.74v3.25h-1.745v-1.745h-5.33v1.745h-1.665v-.576Zm-.769-2.289c-.175-.433-.383-.849-.576-1.217-.32.432-.639.849-.96,1.233Zm.737,5.858a17.621,17.621,0,0,0-.8-3.009l1.408-.432a18.047,18.047,0,0,1,.864,2.961Zm5.282-4.4c0,.159-.128.256-.352.288-.224,3.1-1.216,5.3-3.649,6.338a6.654,6.654,0,0,0-1.169-1.345c2.129-.816,2.881-2.64,2.945-5.394Zm-.689-4.706v-.9H1720.9v-1.568h3.457v-1.3l2.322.112c-.016.16-.128.256-.416.32v.865h3.585v1.568h-3.585v.9h2.928v1.552h-7.619v-1.552Zm3.026,9.043c0,.448.032.512.256.512h.528c.24,0,.3-.256.337-2a4.368,4.368,0,0,0,1.536.7c-.16,2.305-.592,2.913-1.681,2.913h-1.024c-1.377,0-1.681-.528-1.681-2.129v-4.45l2.145.128c-.016.129-.144.224-.416.273Z" fill="#0c3b2c"/>
        <path id="パス_363" data-name="パス 363" d="M1745.365,4642.609c0,2.673-2.144,4.13-5.218,4.13-2.256,0-4.273-1.072-4.273-3.425a14.167,14.167,0,0,1,.176-2.049,19.218,19.218,0,0,1-2.625-.449,7.247,7.247,0,0,1,.015-2.032,16.215,16.215,0,0,0,2.9.592c.112-.688.225-1.44.336-2.273a18.721,18.721,0,0,1-2.5-.432,6.674,6.674,0,0,1,.032-1.953,11.961,11.961,0,0,0,2.689.576c.033-.336.064-.688.1-1.056a13.4,13.4,0,0,0,.016-1.825,10.118,10.118,0,0,1,2.209.352c-.048.865-.144,1.777-.272,2.69a14.418,14.418,0,0,0,2.5-.1,7.5,7.5,0,0,1-.224,1.905,18.607,18.607,0,0,1-2.513.016c-.128.8-.24,1.569-.353,2.273a15.26,15.26,0,0,0,2.946-.112,7.614,7.614,0,0,1-.256,1.969,25.659,25.659,0,0,1-2.961.016,11.075,11.075,0,0,0-.128,1.409c0,1.12.608,1.936,2.192,1.936,1.921,0,3.074-.88,3.074-2.305a3.434,3.434,0,0,0-1.233-2.577,8.577,8.577,0,0,1,1.985-.8A5.46,5.46,0,0,1,1745.365,4642.609Z" fill="#0c3b2c"/>
        <path id="パス_364" data-name="パス 364" d="M1751.969,4635.679v2.24c0,2.609-.24,6.6-1.7,9.124a9.015,9.015,0,0,0-1.665-1.088c1.33-2.305,1.442-5.7,1.442-8.036v-4.065h5.762v-1.873l2.433.128c-.016.16-.129.256-.432.32v1.425h5.89v1.825h-6.931a21.7,21.7,0,0,1,3.89,2.288l-1.377,1.425a20.831,20.831,0,0,0-3.874-2.481l1.265-1.232Zm2.754,4.721a14.482,14.482,0,0,1-1.2,5.235l-1.711-.753a13.02,13.02,0,0,0,1.183-4.866Zm2.5,4.162c0,.576.063.656.479.656h1.153c.448,0,.528-.384.576-2.609a5.061,5.061,0,0,0,1.681.785c-.16,2.753-.608,3.537-2.081,3.537h-1.649c-1.649,0-2.065-.576-2.065-2.369v-5.506l2.337.128c-.015.16-.143.256-.431.32Zm4.913,1.152a18.288,18.288,0,0,0-1.889-5.234l1.745-.656a18.523,18.523,0,0,1,2.033,5.122Z" fill="#0c3b2c"/>
        <path id="パス_365" data-name="パス 365" d="M1779.237,4641.057l1.041.432a.4.4,0,0,1-.16.24,7.4,7.4,0,0,1-1.68,2.977,12.929,12.929,0,0,0,3.168.785,6.956,6.956,0,0,0-1.12,1.584,12.077,12.077,0,0,1-3.458-1.2,9.893,9.893,0,0,1-2.848,1.184,5.5,5.5,0,0,0-1.025-1.409,10.132,10.132,0,0,0,2.385-.8,7.256,7.256,0,0,1-1.3-1.424,9.352,9.352,0,0,1-2.353,3.6,10.468,10.468,0,0,0-1.441-1.056,9.9,9.9,0,0,0,2.9-5.6h-1.778v-1.553h2.049c.048-.256.08-.528.112-.8H1771.7v-1.153h-1.488v2.305l.977-.272.24,1.632-1.217.417v4.034c0,1.744-.641,2.112-3.089,2.112a6.653,6.653,0,0,0-.528-1.84c.32,0,.639.016.912.016.849,0,.881,0,.881-.305v-3.393c-.513.176-.977.32-1.362.448a.322.322,0,0,1-.271.288l-.5-2.113c.592-.128,1.328-.32,2.129-.528v-2.8h-1.921v-1.777h1.921v-3.1l2.24.112c-.016.16-.128.256-.416.3v2.689h1.568v1.441h1.169a8.527,8.527,0,0,0-.624-1.873l1.424-.432a7.862,7.862,0,0,1,.721,1.9l-1.217.4h4.578l-.32-.128a14.03,14.03,0,0,0,1.217-2.449l1.936.672c-.063.128-.208.176-.432.176a16.443,16.443,0,0,1-1.073,1.729h1.345v1.489h-4.962c-.032.272-.08.544-.112.8h5.682v1.553h-5.97c-.048.256-.112.5-.161.736h3.955Zm1.409-7.619a.531.531,0,0,1-.24.048.672.672,0,0,1-.176-.016,56.359,56.359,0,0,1-8.387.784,5.4,5.4,0,0,0-.433-1.424,54.282,54.282,0,0,0,8.084-.849Zm-6.066,9.075c-.064.16-.112.321-.177.481l1.154-.353a4.777,4.777,0,0,0,1.36,1.3,4.645,4.645,0,0,0,1.12-1.425Zm1.969-8.4a7.663,7.663,0,0,1,.431,1.985l-1.552.336a8.434,8.434,0,0,0-.352-2.033Z" fill="#0c3b2c"/>
        <path id="パス_366" data-name="パス 366" d="M1785.458,4644.242a1.529,1.529,0,1,1,3.058,0,1.529,1.529,0,1,1-3.058,0Zm.641-2.721-.4-8.244h2.657l-.384,8.244Z" fill="#0c3b2c"/>
      </g>
      <g id="グループ_29" data-name="グループ 29">
        <line id="線_1" data-name="線 1" x2="9.908" y2="18.826" transform="translate(1552.348 4630.492)" fill="none" stroke="#0c3b2c" stroke-miterlimit="10" stroke-width="0.709"/>
        <line id="線_2" data-name="線 2" x1="9.908" y2="18.826" transform="translate(1797.509 4630.492)" fill="none" stroke="#0c3b2c" stroke-miterlimit="10" stroke-width="0.709"/>
      </g>
    </g>
  </g>
</svg>
