<?xml version="1.0" encoding="UTF-8"?>
<svg id="_レイヤー_2" data-name="レイヤー 2" xmlns="http://www.w3.org/2000/svg" viewBox="0 0 352.08 220.73">
  <defs>
    <style>
      .cls-1 {
        fill: #ee780c;
      }

      .cls-2 {
        fill: #fff;
      }

      .cls-3 {
        fill: #004639;
      }
    </style>
  </defs>
  <g id="_レイヤー_4" data-name="レイヤー 4">
    <g>
      <rect class="cls-1" y="19.44" width="352.08" height="201.29" rx="18.53" ry="18.53"/>
      <g>
        <rect class="cls-3" x="54.05" y="0" width="242.75" height="39.84" rx="19.21" ry="19.21"/>
        <g>
          <path class="cls-2" d="M81.88,16.18c-.12-.31-.31-.59-.61-.86-.43-.35-.88-.49-1.47-.49-1.26,0-1.92.75-1.92,1.63,0,.41.14,1.12,1.47,1.65l1.37.55c2.51,1.02,3.2,2.45,3.2,4,0,2.59-1.83,4.36-4.38,4.36-1.57,0-2.51-.59-3.2-1.37-.73-.82-1.06-1.71-1.14-2.65l2.06-.45c0,.67.25,1.3.57,1.73.39.49.96.82,1.77.82,1.26,0,2.24-.92,2.24-2.28s-1.06-1.96-1.96-2.32l-1.3-.55c-1.12-.47-2.77-1.41-2.77-3.44,0-1.83,1.43-3.59,3.98-3.59,1.47,0,2.3.55,2.73.92.37.33.75.79,1.04,1.37l-1.67.98Z"/>
          <path class="cls-2" d="M89.52,13.16c.83,0,2,.08,2.98.73,1.14.75,1.69,2.06,1.69,3.3,0,.79-.2,2.02-1.33,2.98-1.08.92-2.32,1.06-3.32,1.06h-.94v5.52h-2.08v-13.6h3ZM88.6,19.31h.94c1.79,0,2.65-.88,2.65-2.14,0-.75-.31-2.1-2.67-2.1h-.92v4.24Z"/>
          <path class="cls-2" d="M98.73,13.16c1.65,0,2.71.2,3.59.79,1.49,1,1.61,2.61,1.61,3.2,0,1.96-1.2,3.38-3.02,3.79l4.24,5.81h-2.51l-3.89-5.57h-.37v5.57h-2.08v-13.6h2.43ZM98.39,19.4h.65c.57,0,2.89-.06,2.89-2.22,0-1.92-1.81-2.1-2.83-2.1h-.71v4.32Z"/>
          <path class="cls-2" d="M109.27,13.16v13.6h-2.08v-13.6h2.08Z"/>
          <path class="cls-2" d="M112.53,26.76v-14.51l9.87,10.34v-9.42h2.08v14.43l-9.87-10.34v9.5h-2.08Z"/>
          <path class="cls-2" d="M134.77,19.68h5.61v.1c0,2.32-.69,4.22-2.02,5.5-1.41,1.37-3.08,1.73-4.63,1.73-1.98,0-3.38-.57-4.63-1.86-1.33-1.37-2.02-3.18-2.02-5.14,0-2.12.86-3.96,1.98-5.08,1.16-1.18,3.02-2.04,5.12-2.04,1.22,0,2.49.27,3.55.86,1.12.63,1.81,1.43,2.2,2.04l-1.65,1.16c-.41-.57-1.02-1.18-1.67-1.55-.75-.45-1.57-.59-2.41-.59-1.77,0-2.92.73-3.59,1.41-.9.9-1.45,2.34-1.45,3.81,0,1.37.51,2.73,1.41,3.69.94,1,2.1,1.37,3.4,1.37,1.18,0,2.16-.35,3.04-1.2.75-.73,1.06-1.53,1.14-2.3h-3.38v-1.92Z"/>
          <path class="cls-2" d="M157.8,16.34c-1.51-1.37-2.92-1.51-3.69-1.51-2.96,0-4.95,2.18-4.95,5.18s2.08,5.1,4.97,5.1c1.63,0,2.89-.84,3.67-1.57v2.47c-1.37.82-2.79,1.02-3.73,1.02-2.47,0-4.02-1.12-4.81-1.88-1.59-1.49-2.18-3.22-2.18-5.14,0-2.51,1.04-4.24,2.18-5.32,1.41-1.33,3.04-1.77,4.91-1.77,1.24,0,2.45.22,3.63.98v2.45Z"/>
          <path class="cls-2" d="M168.16,23.47h-5.81l-1.49,3.28h-2.24l6.77-14.39,6.44,14.39h-2.24l-1.43-3.28ZM167.32,21.52l-2.02-4.61-2.1,4.61h4.12Z"/>
          <path class="cls-2" d="M173.13,26.76l2.85-14.62,4.73,10.56,4.77-10.56,2.57,14.62h-2.12l-1.39-8.19-3.95,8.83-3.91-8.85-1.43,8.22h-2.12Z"/>
          <path class="cls-2" d="M193.9,13.16c.83,0,2,.08,2.98.73,1.14.75,1.69,2.06,1.69,3.3,0,.79-.2,2.02-1.33,2.98-1.08.92-2.32,1.06-3.32,1.06h-.94v5.52h-2.08v-13.6h3ZM192.99,19.31h.94c1.79,0,2.65-.88,2.65-2.14,0-.75-.31-2.1-2.67-2.1h-.92v4.24Z"/>
          <path class="cls-2" d="M208.07,23.47h-5.81l-1.49,3.28h-2.24l6.77-14.39,6.44,14.39h-2.24l-1.43-3.28ZM207.23,21.52l-2.02-4.61-2.1,4.61h4.12Z"/>
          <path class="cls-2" d="M215.53,13.16v13.6h-2.08v-13.6h2.08Z"/>
          <path class="cls-2" d="M225.82,19.68h5.61v.1c0,2.32-.69,4.22-2.02,5.5-1.41,1.37-3.08,1.73-4.63,1.73-1.98,0-3.38-.57-4.63-1.86-1.33-1.37-2.02-3.18-2.02-5.14,0-2.12.86-3.96,1.98-5.08,1.16-1.18,3.02-2.04,5.12-2.04,1.22,0,2.49.27,3.55.86,1.12.63,1.81,1.43,2.2,2.04l-1.65,1.16c-.41-.57-1.02-1.18-1.67-1.55-.75-.45-1.57-.59-2.41-.59-1.77,0-2.92.73-3.59,1.41-.9.9-1.45,2.34-1.45,3.81,0,1.37.51,2.73,1.41,3.69.94,1,2.1,1.37,3.4,1.37,1.18,0,2.16-.35,3.04-1.2.75-.73,1.06-1.53,1.14-2.3h-3.38v-1.92Z"/>
          <path class="cls-2" d="M234.04,26.76v-14.51l9.87,10.34v-9.42h2.08v14.43l-9.87-10.34v9.5h-2.08Z"/>
          <path class="cls-2" d="M263.38,18.93h-9.67v-1.64h-1.12v3.02l1.7-.32.03.42h4.93v-1.36l2.35.1c-.02.16-.13.26-.42.31v.96h1.98v1.78h-1.98v3.36c0,1.82-.7,2.06-3.52,2.06-.07-.54-.32-1.33-.57-1.85.75.03,1.59.03,1.83.03.24-.02.33-.06.33-.28v-3.33h-5.22v-.42l-1.44.37v5.47h-1.87v-5.01c-.67.16-1.28.31-1.78.42-.03.16-.16.26-.29.28l-.63-2.17c.73-.11,1.67-.28,2.71-.47v-3.36h-.96c-.19.88-.42,1.69-.7,2.34-.26-.29-.83-.78-1.17-1.02.45-1.27.71-3.46.86-5.47l1.93.45c-.05.11-.16.21-.39.19-.05.54-.13,1.1-.21,1.65h.63v-3.13l2.29.13c-.02.15-.13.24-.42.29v2.71h1.69v1.69h3.24v-1.44h-2.9v-1.77h2.9v-1.62l2.37.13c-.02.16-.15.26-.44.32v1.17h3.02v1.77h-3.02v1.44h3.92v1.8ZM256.26,25.84c-.26-.7-.96-1.78-1.56-2.56l1.51-.78c.62.75,1.35,1.77,1.64,2.47l-1.59.88Z"/>
          <path class="cls-2" d="M279.56,22v1.83h-4.59c1.65.79,3.42,1.77,4.48,2.43l-1.87,1.36c-1.02-.75-2.85-1.88-4.53-2.69l1.2-1.1h-4.9l1.67,1.09c-.05.06-.16.1-.33.11-1.05.86-3.11,2-4.82,2.6-.37-.41-1.07-1.05-1.57-1.44,1.62-.52,3.54-1.52,4.61-2.35h-4.62v-1.83h1.62v-7.82h3.36v-1.93l2.24.13c-.02.16-.13.24-.42.29v1.51h1.57v-1.93l2.27.13c-.02.16-.13.24-.42.29v1.51h3.57v7.82h1.48ZM269.28,15.98h-1.48v2.09h1.48v-2.09ZM267.8,19.87v2.12h1.48v-2.12h-1.48ZM272.67,15.98h-1.57v2.09h1.57v-2.09ZM272.67,22v-2.12h-1.57v2.12h1.57ZM276.12,15.98h-1.61v2.09h1.61v-2.09ZM274.52,19.87v2.12h1.61v-2.12h-1.61Z"/>
        </g>
      </g>
      <g>
        <g>
          <path class="cls-2" d="M61.64,105.47v1.78h-6.35v2.64h-1.99v-2.64h-6.24v-1.78h6.24v-1.06h-4.82v-6.8h1.36c-.34-.61-.86-1.39-1.34-1.98l1.65-.75c.59.67,1.31,1.62,1.63,2.26-.35.18-.67.34-.98.48h2.85c-.24-.66-.74-1.54-1.22-2.23l1.73-.66c.54.74,1.15,1.74,1.42,2.42l-1.15.46h2.38c.58-.78,1.23-1.95,1.6-2.82l2.31.83c-.06.11-.22.18-.46.18-.3.54-.77,1.22-1.22,1.81h1.28v6.8h-5.04v1.06h6.35ZM53.3,100.27v-1.07h-2.95v1.07h2.95ZM50.35,102.86h2.95v-1.12h-2.95v1.12ZM58.36,100.27v-1.07h-3.07v1.07h3.07ZM58.36,102.86v-1.12h-3.07v1.12h3.07Z"/>
          <path class="cls-2" d="M75.68,102.08h-1.47v1.82h3.44v1.76h-3.44v1.74c0,.59.06.69.51.69h1.25c.42,0,.5-.32.56-1.84.42.32,1.2.64,1.73.75-.19,2.13-.69,2.79-2.11,2.79h-1.76c-1.74,0-2.18-.58-2.18-2.37v-1.76h-2.14c-.35,1.71-1.42,3.31-4.42,4.31-.24-.43-.82-1.18-1.22-1.54,2.24-.69,3.2-1.7,3.6-2.77h-3.2v-1.76h3.46v-1.82h-1.36v-.5c-.67.51-1.39.94-2.13,1.3-.26-.45-.78-1.1-1.17-1.46.93-.38,1.84-.98,2.66-1.68-.43-.42-1.07-.98-1.6-1.38l1.22-.99c.48.32,1.09.8,1.54,1.18.4-.46.74-.96,1.02-1.49h-3.3v-1.65h4.37l.3-.06,1.34.61c-.05.1-.14.18-.24.24-.54,1.55-1.42,2.91-2.51,4.05h5.83c-1.25-1.36-2.22-3.04-2.95-4.95l1.73-.48c.22.59.48,1.17.8,1.71.54-.48,1.09-1.04,1.46-1.49l1.62,1.22c-.1.11-.3.13-.46.1-.43.4-1.15.98-1.78,1.42.22.29.46.58.72.85.66-.54,1.36-1.22,1.82-1.74l1.58,1.18c-.06.08-.16.11-.29.11-.05,0-.1,0-.14-.02-.48.42-1.22,1.01-1.89,1.47.75.61,1.6,1.1,2.51,1.47-.45.38-1.04,1.14-1.33,1.65-.72-.34-1.38-.74-1.98-1.22v.53ZM72.21,103.91v-1.82h-2v1.82h2Z"/>
          <path class="cls-2" d="M84.37,98.24c.78.13,1.74.45,2.29.69-.26,1.33-.82,3.27-1.44,4.74-.77,1.86-1.55,3.3-2.43,4.34-.74-.22-1.71-.67-2.24-1.14,1.31-1.3,2-2.62,2.61-4.02.53-1.18,1.07-3.12,1.22-4.61ZM89.44,99.12c.51-.3,1.46-.7,2-.88.71,1.06,1.38,2.26,2.08,3.86.9,1.98,1.31,3.3,1.67,4.71-.43.37-1.54.8-2.34.93-.22-1.38-.67-3.15-1.41-4.88-.62-1.46-1.33-2.83-2-3.73ZM92.48,97.95c0-.93.75-1.68,1.7-1.68s1.7.75,1.7,1.7-.75,1.7-1.7,1.7-1.7-.75-1.7-1.7v-.02ZM93.32,97.98c0,.46.38.83.86.83s.85-.37.85-.85-.37-.86-.85-.86-.86.38-.86.86v.02Z"/>
          <path class="cls-2" d="M100.98,101.49c3.59,0,8.79-.06,10.63-.1.1.5.11,1.79.08,2.34-2.42-.1-10.96.03-13.12.02-.1-.54-.18-1.73-.16-2.37.53.05,1.71.11,2.58.11Z"/>
          <path class="cls-2" d="M117.07,96.72c.7.99,1.95,3.04,2.54,4.31-.46.45-1.38.98-2.02,1.2-.48-1.09-1.67-3.17-2.56-4.34.51-.35,1.42-.86,2.03-1.17ZM125.4,96.64c.66.08,1.82.43,2.3.72-.86,5.03-3.04,9.51-8.42,11.84-.61-.34-1.6-1.22-1.99-1.87.51-.13,1.33-.4,1.99-.7,3.62-1.71,5.7-5.19,6.11-9.99Z"/>
          <path class="cls-2" d="M138.79,99.36c1.91-.02,3.55-.05,3.89-.05.37,0,1.14-.03,1.5-.05.1.54.13,1.54.08,2.1-.45-.02-.93-.03-1.41-.03l-4.07.05c-.05,3.6-1.36,6.32-5.43,8.04-.58-.34-1.42-1.17-1.76-1.76,3.62-1.02,4.98-3.11,5.04-6.26-2.03.02-3.89.03-4.35.03s-1.1.02-1.54.03c-.1-.48-.18-1.66-.16-2.11.46.03.93.03,1.47.05.43.02,2.43,0,4.58-.02v-1.34c0-.66-.02-1.86-.13-2.35.64-.05,1.78.02,2.32.08-.03.58-.05,1.44-.05,1.92v1.68Z"/>
          <path class="cls-2" d="M148.88,99.28c0-.88-.05-1.54-.13-2.06.64,0,1.62.06,2.26.16,0,5.87.26,8.55-3.09,11.51-.51-.24-1.49-.99-1.91-1.55.38-.22.75-.51,1.07-.83,1.68-1.74,1.79-3.57,1.79-7.22ZM153.3,107.75c.08-.32.11-.58.13-1.02.03-1.46.11-5.97.08-8.4,0-.53-.03-1.02-.06-1.42.37,0,1.62.1,2.24.21-.1,1.17-.18,7.09-.18,8.79,1.49-.54,3.15-2.35,4-4.48.48.37,1.12,1.26,1.42,1.86-1.04,1.98-2.62,3.94-5.65,5.2-.24.08-.46.18-.72.29-.38-.24-.98-.74-1.26-1.01Z"/>
          <path class="cls-2" d="M167.65,102.5v4.9c0,.46.03,1.38.06,2.05-.61.06-1.86.02-2.46-.08.05-.51.1-1.36.11-2.03.05-1.47.1-8.16.08-9.43,0-.59-.03-1.42-.11-2.13.62-.02,1.81.03,2.38.13-.03.58-.06,2.35-.06,4.34,2,.62,4.24,1.5,5.7,2.19-.13.62-.53,1.63-.9,2.13-1.31-.72-3.19-1.54-4.8-2.06Z"/>
          <path class="cls-2" d="M178.1,106.98c.05-1.36.05-5.76.05-8.44,0-.72-.03-1.54-.08-1.98.37,0,1.78.1,2.32.21-.11,1.33-.11,8.08-.11,9.59,2.58-.7,5.97-2.45,8.26-5.71.42.45,1.01,1.5,1.18,2.1-1.81,2.35-5.14,4.59-9.62,6.02-.26.1-.4.13-.66.24-.42-.21-1.14-.69-1.42-1.02.05-.35.06-.74.08-.99Z"/>
          <path class="cls-2" d="M195.22,101.49c3.59,0,8.79-.06,10.63-.1.1.5.11,1.79.08,2.34-2.42-.1-10.96.03-13.12.02-.1-.54-.18-1.73-.16-2.37.53.05,1.71.11,2.58.11Z"/>
          <path class="cls-2" d="M210.99,105.31c.98.03,9.49-.11,10.34-.13.54-.02,1.1-.03,1.49-.05.11.56.18,1.6.13,2.29-.35-.02-.69-.02-1.18-.02-.58.02-8.87.08-10.15.1-.61.02-1.44.03-1.89.03-.13-.58-.24-1.62-.19-2.29.53.03.91.03,1.46.06ZM212.5,98.06c1.46.02,6-.08,7.06-.1.66-.02,1.12-.05,1.67-.1.11.54.14,1.63.13,2.21-1.28-.02-7.57.08-8.76.1-.37,0-.94.03-1.38.03-.11-.58-.21-1.66-.19-2.21.54.03.94.05,1.47.06Z"/>
          <path class="cls-2" d="M231.76,98.94c-.21.58-.85,1.58-1.25,2.03-1.02-.8-2.88-1.92-4.27-2.56.26-.51.9-1.58,1.15-1.94,1.26.53,3.27,1.62,4.37,2.47ZM231.51,105.31c2.71-1.5,4.55-3.71,5.84-6.48.58.38,1.36,1.28,1.65,1.82-1.49,2.69-3.6,4.99-6.32,6.56-1.71.98-3.41,1.62-4.72,1.97-.59-.54-1.18-1.49-1.41-2.16,1.73-.26,3.51-.88,4.96-1.71Z"/>
          <path class="cls-2" d="M251.17,98.09c.62-.02.8-.06,1.1-.11.42.24.96.74,1.23,1.07-.43,1.54-1.18,3.71-2.85,5.86-1.67,2.13-4.32,3.81-6.67,4.56-.66-.37-1.44-1.17-1.84-1.82,2.11-.43,4.5-1.5,6.27-3.38,1.47-1.52,2.21-3.28,2.45-4.39l-4.21.06c-1.09,1.39-2.38,2.62-3.57,3.36-.61-.26-1.47-.94-1.79-1.44,2.64-1.38,4.83-4.26,5.54-6.63.74.18,1.47.56,2.02.99-.24.62-.56,1.26-.94,1.9,2.77-.02,3.27-.06,3.27-.06v.02ZM253.09,95.79c.34.51.74,1.47.91,2-.22.18-.7.35-1.07.42-.19-.62-.53-1.42-.9-2.03.35-.16.74-.32,1.06-.38ZM255.86,97.21c-.22.16-.7.34-1.07.4-.22-.66-.56-1.41-.9-1.97.34-.16.74-.34,1.04-.4.34.51.75,1.41.93,1.97Z"/>
          <path class="cls-2" d="M264.12,94.88c-1.75,1.46-3.17,4.26-3.17,7.48s1.46,6.05,3.17,7.48v.08h-1.49c-1.65-1.46-2.99-4.29-2.99-7.56s1.34-6.1,2.99-7.56h1.49v.08Z"/>
          <path class="cls-2" d="M268.16,101.54c.53-.64,1.36-1.07,2.4-1.07,1.87,0,3.31,1.42,3.31,3.84,0,2.29-1.49,4.31-3.94,4.31-2.74,0-4.21-2.19-4.21-5.15,0-2.77,1.25-7.3,7.01-7.3v1.82c-.3,0-.64.03-1.04.08-2.23.3-3.28,1.87-3.59,3.47h.05ZM271.52,104.42c0-1.26-.61-2.31-1.71-2.31-.7,0-1.73.61-1.73,1.97.03,1.57.67,2.82,1.84,2.82,1.04,0,1.6-1.12,1.6-2.48Z"/>
          <path class="cls-2" d="M275.87,102.42c0-3.68,1.36-6.27,4.08-6.27s3.95,2.82,3.95,6.18c0,4-1.49,6.29-4.03,6.29-2.82,0-4-2.82-4-6.19ZM279.91,106.74c1.09,0,1.63-1.54,1.63-4.37s-.5-4.35-1.62-4.35c-1.03,0-1.68,1.47-1.68,4.35s.59,4.37,1.65,4.37h.02Z"/>
          <path class="cls-2" d="M297.96,100.72c-1.28-1.47-2.5-3.27-3.39-4.98l1.89-.75c1.02,2.05,3.04,4.39,4.8,5.75-.51.4-1.26,1.18-1.63,1.73-.34-.32-.69-.67-1.04-1.04-.18,5.01-.37,6.91-.93,7.59-.51.64-1.06.83-2.83.83-.35,0-.72,0-1.09-.02-.03-.58-.29-1.39-.62-1.94.88.06,1.73.08,2.13.08.29,0,.48-.03.66-.22.32-.35.5-1.79.64-5.17h-3.23c-.45,2.91-1.3,5.79-5.6,7.44-.24-.54-.8-1.33-1.25-1.76,3.63-1.2,4.48-3.33,4.8-5.68h-2.74v-1.2c-.45.43-.9.83-1.36,1.18-.35-.4-1.07-1.1-1.52-1.46,1.92-1.31,3.73-3.67,4.71-6.08l2.35.8c-.08.18-.29.21-.48.18-.77,1.7-1.84,3.35-3.07,4.71h7.92l.45-.02.45.03Z"/>
          <path class="cls-2" d="M302.51,109.83c1.75-1.46,3.17-4.26,3.17-7.48s-1.46-6.05-3.17-7.48v-.08h1.49c1.67,1.46,2.99,4.29,2.99,7.56s-1.33,6.1-2.99,7.56h-1.49v-.08Z"/>
        </g>
        <g>
          <g>
            <path class="cls-2" d="M159.87,189.68h-3.22v-5.93h-4.96v-1.74h4.96v-2.6h-4.96v-1.77h4.13l-5.29-10.19h3.63l2.92,6.7c.53,1.27.95,2.39,1.3,3.4h.09c.33-.97.77-2.18,1.3-3.42l3.01-6.67h3.54l-5.58,10.19h4.13v1.77h-5.02v2.6h5.02v1.74h-5.02v5.93Z"/>
            <path class="cls-2" d="M176.71,173.12h-5.91v-21.06h21.06v6.14h-14.7v8.22c1.18-1.18,2.98-2.25,5.97-2.25,6.47,0,10.25,5.01,10.25,14.02,0,8.5-4.05,13.23-11.82,13.23-6.31,0-11.26-3.94-11.82-10.13h6.42c.67,2.81,2.48,4.45,5.29,4.45,3.32,0,5.41-2.2,5.41-7.32s-1.58-8.16-5.41-8.16c-2.31,0-3.77,1.24-4.73,2.87Z"/>
            <path class="cls-2" d="M210.84,191.42c-6.47,0-12.22-3.83-12.22-11.88v-16.05c0-8.28,5.74-11.94,12.22-11.94s12.22,3.66,12.22,11.88v16.1c0,8.05-5.74,11.88-12.22,11.88ZM210.84,157.24c-3.55,0-5.74,2.42-5.74,6.59v15.31c0,4.17,2.2,6.59,5.74,6.59s5.69-2.42,5.69-6.59v-15.31c0-4.17-2.2-6.59-5.69-6.59Z"/>
            <path class="cls-2" d="M240.23,191.42c-6.47,0-12.22-3.83-12.22-11.88v-16.05c0-8.28,5.74-11.94,12.22-11.94s12.22,3.66,12.22,11.88v16.1c0,8.05-5.74,11.88-12.22,11.88ZM240.23,157.24c-3.55,0-5.74,2.42-5.74,6.59v15.31c0,4.17,2.2,6.59,5.74,6.59s5.69-2.42,5.69-6.59v-15.31c0-4.17-2.2-6.59-5.69-6.59Z"/>
          </g>
          <g>
            <path class="cls-2" d="M109.11,186.93h-4.55v-22.17l-3.88,2.67v-4.59l4.16-2.98h4.28v27.07Z"/>
            <path class="cls-2" d="M118.3,166.05h20.46v21.22h-2.44v-1.64h-15.7v1.64h-2.32v-21.22ZM120.62,183.36h15.7v-15.04h-15.7v15.04ZM123.75,171.61h9.33v8.35h-9.33v-8.35ZM130.92,178.06v-4.52h-5.1v4.52h5.1Z"/>
          </g>
        </g>
        <g>
          <path class="cls-2" d="M110.71,127.2v4.84c.99,1.63,2.97,1.63,5.58,1.63,1.71,0,3.74-.04,5.06-.15-.16.33-.39.98-.46,1.38-1.1.04-2.77.07-4.32.07-3.23,0-5.06,0-6.47-1.77-.73.62-1.48,1.23-2.11,1.71,0,.15-.04.22-.18.28l-.71-1.5c.68-.42,1.53-1.01,2.25-1.57v-3.62h-2.08v-1.31h3.43ZM108.5,121.66c.95.65,2.08,1.65,2.59,2.37l-1.05,1.01c-.47-.74-1.57-1.79-2.52-2.49l.98-.89ZM113.47,130.45v2.39h-1.32v-7.76h3.89c-.8-.39-1.72-.79-2.49-1.08l.91-.76c.59.21,1.29.47,1.96.77.58-.3,1.17-.65,1.66-1.02h-5.86v-1.1h7.22l.21-.07,1.04.67c-.06.09-.16.13-.28.15-.71.62-1.74,1.35-2.77,1.91.39.19.74.37,1.02.53h1.87v6.45c0,1.22-.5,1.35-2.58,1.35-.04-.36-.21-.82-.37-1.14.37.02.71.03.98.03.58,0,.64,0,.64-.25v-1.07h-2.25v2.33h-1.28v-2.33h-2.18ZM115.65,126.13h-2.18v1.1h2.18v-1.1ZM113.47,129.4h2.18v-1.14h-2.18v1.14ZM119.18,127.23v-1.1h-2.25v1.1h2.25ZM116.92,129.4h2.25v-1.14h-2.25v1.14Z"/>
          <path class="cls-2" d="M135.29,122.06c-.06.1-.18.13-.36.13-.25.37-.64.88-.99,1.29h2.43v3.23h-1.38v-2h-10.01v2h-1.32v-3.23h2.19c-.27-.49-.65-1.07-1.01-1.51l1.25-.5c.49.56,1.01,1.32,1.26,1.84l-.4.18h2.22v-2.15l1.77.09c-.02.13-.1.21-.36.25v1.81h2.24c-.12-.06-.24-.1-.34-.15.4-.5.91-1.33,1.19-1.9l1.62.62ZM135.4,130.17v3c0,1.35-.67,1.44-3.11,1.44-.06-.37-.28-.88-.46-1.23.49.02.96.03,1.33.03.73,0,.84,0,.84-.24v-1.74h-3.41v3.8h-1.41v-3.8h-3.16v3.2h-1.38v-4.46h4.54v-1.05h-3.11v-3.43h7.91v3.43h-3.07c-.06.06-.15.1-.31.12v.93h4.81ZM127.37,126.71v1.36h5.21v-1.36h-5.21Z"/>
          <path class="cls-2" d="M151.52,133.91h-1.62v-2.98h-2.49v-.88h2.49v-1.3h-2.49v-.89h2.08l-2.66-5.12h1.82l1.47,3.37c.27.64.47,1.2.65,1.71h.04c.16-.49.39-1.1.65-1.72l1.51-3.35h1.78l-2.8,5.12h2.08v.89h-2.52v1.3h2.52v.88h-2.52v2.98Z"/>
          <path class="cls-2" d="M159.63,133.91v-9.6h-.03l-1.88,1.04-.38-1.26,2.52-1.35h1.45v11.17h-1.68Z"/>
          <path class="cls-2" d="M168.85,133.91v-9.6h-.03l-1.88,1.04-.38-1.26,2.52-1.35h1.45v11.17h-1.68Z"/>
          <path class="cls-2" d="M177.45,131.61c-.43,1.48-1.17,3.32-1.74,4.26l-1.19.12c.42-1.13.86-2.91,1.05-4.21l1.87-.16Z"/>
          <path class="cls-2" d="M179.4,128.34c0-3.65,1.38-5.78,3.69-5.78s3.54,2.28,3.54,5.67c0,3.78-1.36,5.84-3.66,5.84s-3.57-2.3-3.57-5.73ZM184.91,128.29c0-2.65-.56-4.36-1.87-4.36-1.13,0-1.9,1.57-1.9,4.36s.68,4.4,1.87,4.4c1.45,0,1.9-2.09,1.9-4.4Z"/>
          <path class="cls-2" d="M188.62,128.34c0-3.65,1.38-5.78,3.69-5.78s3.54,2.28,3.54,5.67c0,3.78-1.36,5.84-3.66,5.84s-3.57-2.3-3.57-5.73ZM194.13,128.29c0-2.65-.56-4.36-1.87-4.36-1.13,0-1.9,1.57-1.9,4.36s.68,4.4,1.87,4.4c1.45,0,1.9-2.09,1.9-4.4Z"/>
          <path class="cls-2" d="M197.84,128.34c0-3.65,1.38-5.78,3.69-5.78s3.54,2.28,3.54,5.67c0,3.78-1.36,5.84-3.66,5.84s-3.57-2.3-3.57-5.73ZM203.35,128.29c0-2.65-.56-4.36-1.87-4.36-1.13,0-1.9,1.57-1.9,4.36s.68,4.4,1.87,4.4c1.45,0,1.9-2.09,1.9-4.4Z"/>
          <path class="cls-2" d="M206.99,134.75l13.42-13.42.46.46-13.42,13.42-.46-.46Z"/>
          <path class="cls-2" d="M223.48,122.22h12.43v12.89h-1.48v-.99h-9.54v.99h-1.41v-12.89ZM224.89,132.73h9.54v-9.14h-9.54v9.14ZM226.78,125.6h5.67v5.07h-5.67v-5.07ZM231.14,129.52v-2.74h-3.1v2.74h3.1Z"/>
          <path class="cls-2" d="M252.21,127.93c0,1.78-.49,4.2-1.38,5.4-.47.7-.99.93-1.65.93-.71,0-1.74-.34-2.54-.77-.1-.45-.07-1.25.01-1.62.68.43,1.62.83,2.15.83.42,0,.67-.1.99-.62.58-.89.93-2.68.93-4.03,0-1.23-.55-1.68-1.5-1.68-.33,0-.85.07-1.47.19-.8,2.27-2.22,6.01-3.25,7.83-.43-.09-1.14-.44-1.47-.74,1.22-1.93,2.43-4.92,3.1-6.78-.83.15-1.75.31-2.63.39-.18-.37-.33-1.04-.36-1.53.5.04,1.07,0,1.71-.06.47-.04,1.1-.13,1.76-.24.28-.95.62-2.14.77-3.16.55.09,1.26.36,1.6.58-.18.55-.45,1.33-.77,2.34.56-.07,1.07-.13,1.42-.13,1.35,0,2.54.85,2.54,2.86ZM253.77,124.9c.95.98,2.2,3.01,2.64,4.21-.22.3-.83.68-1.26.85-.5-1.54-1.66-3.41-2.54-4.33.3-.27.82-.56,1.16-.73ZM254.26,124.74c-.33-.53-.8-1.2-1.25-1.65.19-.18.52-.4.73-.49.39.39.99,1.14,1.29,1.63-.15.16-.49.4-.77.5ZM255.73,123.79c-.34-.53-.82-1.14-1.26-1.6.19-.18.53-.4.73-.49.39.37.99,1.08,1.29,1.59-.15.15-.47.4-.76.5Z"/>
        </g>
      </g>
      <g>
        <g>
          <path class="cls-2" d="M126.55,67.32h-13.25v-2.25h-1.53v4.14l2.33-.44.04.58h6.76v-1.87l3.22.13c-.02.22-.18.36-.58.42v1.31h2.71v2.45h-2.71v4.6c0,2.49-.96,2.82-4.82,2.82-.09-.73-.45-1.82-.78-2.53,1.02.04,2.18.04,2.51.04.33-.02.45-.09.45-.38v-4.56h-7.16v-.58l-1.98.51v7.49h-2.56v-6.87c-.91.22-1.76.42-2.45.58-.04.22-.22.36-.4.38l-.87-2.98c1-.16,2.29-.38,3.71-.64v-4.6h-1.31c-.27,1.2-.58,2.31-.96,3.2-.36-.4-1.13-1.07-1.6-1.4.62-1.73.98-4.74,1.18-7.49l2.65.62c-.07.16-.22.29-.53.27-.07.73-.18,1.51-.29,2.27h.87v-4.29l3.13.18c-.02.2-.18.33-.58.4v3.71h2.31v2.31h4.45v-1.98h-3.98v-2.42h3.98v-2.22l3.25.18c-.02.22-.2.36-.6.44v1.6h4.13v2.42h-4.13v1.98h5.38v2.47ZM116.79,76.79c-.36-.96-1.31-2.45-2.13-3.51l2.07-1.07c.84,1.02,1.84,2.42,2.25,3.38l-2.18,1.2Z"/>
          <path class="cls-2" d="M151.4,71.52v2.51h-6.29c2.27,1.09,4.69,2.42,6.14,3.33l-2.56,1.87c-1.4-1.02-3.91-2.58-6.2-3.69l1.64-1.51h-6.71l2.29,1.49c-.07.09-.22.13-.44.16-1.45,1.18-4.27,2.73-6.6,3.56-.51-.56-1.47-1.44-2.16-1.98,2.22-.71,4.85-2.09,6.31-3.22h-6.34v-2.51h2.22v-10.72h4.6v-2.65l3.07.18c-.02.22-.18.33-.58.4v2.07h2.16v-2.65l3.11.18c-.02.22-.18.33-.58.4v2.07h4.89v10.72h2.02ZM137.31,63.27h-2.02v2.87h2.02v-2.87ZM135.28,68.61v2.91h2.02v-2.91h-2.02ZM141.95,63.27h-2.16v2.87h2.16v-2.87ZM141.95,71.52v-2.91h-2.16v2.91h2.16ZM146.69,63.27h-2.2v2.87h2.2v-2.87ZM144.49,68.61v2.91h2.2v-2.91h-2.2Z"/>
          <path class="cls-2" d="M168.23,56.58c6.72,0,12.15,5.43,12.15,12.15s-5.43,12.15-12.15,12.15-12.15-5.43-12.15-12.15,5.48-12.15,12.15-12.15Z"/>
          <path class="cls-2" d="M196.29,72.81l2.11.82c-.11.18-.33.22-.56.2-1.11.82-2.87,1.71-4.45,2.31.6.16,1.25.24,1.98.27.91.04,2.13.07,3.49.07,2.67,0,5.8-.09,7.91-.27-.29.6-.67,1.76-.8,2.49-1.69.09-4.14.16-6.4.16-5.38,0-8.07,0-10.09-2.6-.84.89-1.73,1.73-2.47,2.42,0,.24-.09.36-.29.44l-1.31-2.67c.82-.58,1.78-1.33,2.65-2.09v-4.96h-2.31v-2.47h4.8v7.2c.58,1.02,1.51,1.65,2.76,1.98-.42-.44-1.22-1.13-1.73-1.49,1.4-.42,2.93-1.11,3.94-1.82h-4.25v-1.96h3.65v-1.4h-2.82v-1.96h2.82v-1.31l3.07.18c-.02.2-.18.33-.58.38v.76h2.56v-1.31l3.11.18c-.02.2-.18.33-.58.4v.73h2.93v1.96h-2.93v1.4h3.8v1.96h-4.31c1.56.76,3.31,1.69,4.33,2.38l-2.76,1c-.87-.71-2.51-1.76-4.07-2.51l1.53-.87h-4.74ZM187.71,58.72c1.18,1.07,2.58,2.6,3.16,3.69l-2.27,1.51c-.51-1.11-1.85-2.73-3-3.87l2.11-1.33ZM195.42,61.54v-.93h-3.94v-1.69h6.18v4.33h-3.6c0,.89,0,1,.69,1h1.76c.45,0,.56-.13.62-.87.42.29,1.27.56,1.84.69-.22,1.51-.8,1.93-2.2,1.93h-2.36c-2,0-2.56-.49-2.56-2.29v-2.18h3.56ZM197.4,69.45v1.4h2.56v-1.4h-2.56ZM202.96,61.54v-.91h-4.2v-1.71h6.47v4.33h-3.82c0,.89,0,1,.73,1h1.85c.44,0,.56-.13.62-.89.42.29,1.29.56,1.87.67-.24,1.56-.8,1.98-2.22,1.98h-2.45c-2.05,0-2.58-.49-2.58-2.31v-2.16h3.73Z"/>
          <path class="cls-2" d="M218.26,67.88l.27,2.29c-.8.27-1.6.53-2.4.78v5.38c0,2.4-.91,2.85-4.38,2.85-.09-.67-.42-1.76-.76-2.45.87.04,1.8.04,2.09.04.31-.02.42-.11.42-.42v-4.6l-1.98.6c-.02.22-.2.36-.38.4l-.82-3.02c.87-.18,1.96-.42,3.18-.71v-4.16h-2.85v-2.47h2.85v-4.14l3.22.13c-.02.24-.18.38-.6.44v3.56h2.22v2.47h-2.22v3.53l2.13-.51ZM230.46,69.01h-3.8c.78,3.54,2.27,6.51,5.02,7.89-.62.53-1.45,1.6-1.84,2.33-3.33-1.89-4.91-5.51-5.83-10.23h-1.82c-.2,3.49-.98,7.63-3.51,10.27-.4-.53-1.49-1.49-2.07-1.82,2.71-2.89,2.96-7.18,2.96-10.52v-7.76h10.89v9.83ZM227.79,61.7h-5.56v4.8h5.56v-4.8Z"/>
          <path class="cls-2" d="M237.4,62.1c1.51-.18,13.61-1.82,15.72-1.82.29.69.44,1.89.44,2.69-.82-.04-2.33,0-3.67.44-3.45,1.09-4.96,4.22-4.96,6.71,0,3.89,3.25,5.16,6.83,5.16-.07.91-.58,2.38-1.07,3-4.25-.02-8.8-2.22-8.8-7.56,0-3.31,1.6-5.69,3.4-7.09-2.2.27-6.96,1.22-9.29,1.56-.4-.62-.91-2.2-1.02-2.93.91-.02,2.02-.11,2.42-.16ZM252.12,67.94c-.29.24-.91.58-1.42.69-.36-.82-.93-2.02-1.4-2.78.4-.27,1.04-.53,1.4-.65.42.62,1.18,2.07,1.42,2.73ZM254.72,66.88c-.31.24-.96.56-1.45.71-.36-.8-.98-2-1.44-2.76.4-.27,1.02-.56,1.42-.67.44.67,1.16,2,1.47,2.71Z"/>
        </g>
        <path class="cls-1" d="M168.45,61.12c3.57,0,5.41,1.32,5.41,3.95,0,1.57-.9,2.82-2.23,3.31,1.72.49,2.71,1.68,2.71,3.6,0,2.29-1.46,4.37-5.41,4.37h-5.38v-15.22h4.9ZM166.12,67.34h2.49c1.9,0,2.69-.86,2.69-2.12,0-1.19-.6-1.9-3.02-1.9h-2.16v4.02ZM166.12,74.14h2.67c2.05,0,3-.84,3-2.29,0-1.61-1.06-2.29-3.31-2.29h-2.36v4.59Z"/>
      </g>
    </g>
  </g>
</svg>