<?xml version="1.0" encoding="UTF-8"?>
<svg id="_レイヤー_2" data-name="レイヤー 2" xmlns="http://www.w3.org/2000/svg" viewBox="0 0 189.84 52.17">
  <defs>
    <style>
      .cls-1 {
        fill: #213b33;
      }
    </style>
  </defs>
  <g id="_レイヤー_4" data-name="レイヤー 4">
    <g>
      <path class="cls-1" d="M166.8,11.76c-3.45,2.34-6.28,4.31-6.3,8.93h14.66v-3.48h-9.44c1.45-2.05,3.79-3.19,5.76-4.59,1.97-1.4,3.57-3.05,3.57-6.05,0-3.91-3.2-6.25-6.85-6.25-4.3,0-6.83,2.84-7.19,6.73h3.94c.28-1.69,1.16-3.25,3.05-3.25,1.74,0,2.99,1.2,2.99,3.08-.02,2.45-2.42,3.68-4.19,4.88Z"/>
      <path class="cls-1" d="M187.18,13.04V.72h-3.62l-9.2,12.32-.14.19v3.15h9.11v4.3h3.85v-4.3h2.65v-3.34h-2.65ZM183.33,13.04h-4.7l4.7-6.28v6.28Z"/>
      <rect class="cls-1" x="26.73" y=".5" width="7.6" height="33.16"/>
      <polygon class="cls-1" points="36.62 7.56 44.91 7.56 44.91 33.67 52.5 33.67 52.5 7.56 60.79 7.56 60.79 .5 36.62 .5 36.62 7.56"/>
      <polygon class="cls-1" points="112.04 26.61 99.04 26.61 99.04 19.75 109.75 19.75 109.75 12.95 99.04 12.95 99.04 7.56 112.04 7.56 112.04 .5 91.44 .5 91.44 33.67 112.04 33.67 112.04 26.61"/>
      <polygon class="cls-1" points="79.85 17.86 73.04 .5 63.09 .5 63.09 33.67 70.42 33.67 70.42 12.55 78.7 33.67 87.18 33.67 87.18 .5 79.85 .5 79.85 17.86"/>
      <path class="cls-1" d="M123.06,20.25c1.77.79,2.94,1.53,3.55,2.22,0,0,1.7,1.74.41,3.87-.79,1.3-3.03,1.29-3.49,1.26-3.57-.2-7.1-4.13-8.79-6.59v8.91c1.07,1.18,2.16,2.09,3.26,2.72,1.77,1.01,3.88,1.51,6.33,1.51,3.15,0,5.73-.87,7.73-2.6,2-1.73,3-4.11,3-7.14,0-2.74-.68-4.93-2.03-6.55-1.36-1.62-3.72-3.18-7.09-4.66-1.64-.73-2.75-1.39-3.33-1.99-.58-.6-.87-1.34-.87-2.22,0-.66.21-1.22.64-1.68,0,0,3.3-4.09,11.06,4.2V3.71C130-.18,124.33.02,124.33.02c-3.09,0-5.57.91-7.44,2.74-1.88,1.83-2.81,4.13-2.81,6.9,0,2.55.66,4.58,1.99,6.1,1.32,1.51,3.65,3.01,7,4.49Z"/>
      <path class="cls-1" d="M155.72,17.85c-1.36-1.62-3.72-3.18-7.09-4.66-1.64-.73-2.75-1.39-3.33-1.99-.58-.6-.87-1.34-.87-2.22,0-.66.21-1.22.64-1.68,0,0,3.3-4.09,11.06,4.2V3.7C152.69-.19,147.02,0,147.02,0c-3.09,0-5.57.91-7.45,2.74-1.88,1.83-2.81,4.13-2.81,6.9,0,2.55.66,4.59,1.99,6.1,1.32,1.51,3.65,3.01,7,4.49,1.76.79,2.95,1.53,3.54,2.22,0,0,1.7,1.75.41,3.87-.79,1.3-3.03,1.29-3.49,1.26-3.56-.2-7.1-4.13-8.79-6.59v8.91c1.07,1.18,2.16,2.09,3.27,2.72,1.76,1.01,3.87,1.51,6.33,1.51,3.15,0,5.73-.87,7.73-2.6,2-1.73,3-4.11,3-7.14,0-2.74-.68-4.93-2.03-6.55Z"/>
      <polygon class="cls-1" points="0 33.67 7.59 33.67 7.59 20.75 21.58 20.75 21.58 13.69 0 13.69 0 33.67"/>
      <rect class="cls-1" x="0" y=".5" width="24.18" height="7.06"/>
      <path class="cls-1" d="M106.61,40.5c-.35-.38-.81-.69-1.37-.92-.56-.23-1.24-.35-2.03-.35h-5.72v12.66h2.96v-4.46h2.76c.79,0,1.47-.12,2.03-.35.56-.23,1.02-.54,1.37-.92.35-.38.61-.83.77-1.32.16-.49.24-1,.24-1.51s-.08-1.03-.24-1.52c-.16-.49-.42-.93-.77-1.31ZM104.57,44.23c-.12.23-.29.4-.49.52-.21.13-.45.21-.73.25-.28.05-.58.07-.89.07h-2.01v-3.5h2.01c.31,0,.6.02.89.07.27.04.52.13.73.25.2.12.37.3.49.52.12.23.19.53.19.9s-.06.68-.19.9Z"/>
      <polygon class="cls-1" points="111.72 46.54 117.74 46.54 117.74 44.19 111.72 44.19 111.72 41.75 118.28 41.75 118.28 39.23 108.76 39.23 108.76 51.89 118.42 51.89 118.42 49.36 111.72 49.36 111.72 46.54"/>
      <path class="cls-1" d="M130.34,51.11c-.06-.24-.11-.5-.14-.78-.03-.28-.05-.55-.06-.81-.01-.27-.02-.5-.03-.7-.02-.31-.07-.64-.13-.95-.07-.32-.17-.62-.32-.89-.14-.27-.33-.51-.56-.71-.18-.15-.39-.28-.64-.37.6-.28,1.05-.67,1.33-1.17.32-.55.48-1.21.48-1.95,0-.49-.09-.95-.26-1.37-.17-.42-.43-.8-.76-1.13s-.73-.58-1.19-.76c-.46-.18-.98-.28-1.55-.28h-6.82v12.66h2.96v-4.86h2.62c.65,0,1.12.14,1.4.42.28.28.47.74.56,1.36.07.48.12,1.01.16,1.56.04.55.13,1.04.29,1.44l.03.07h3.03l-.13-.18c-.12-.16-.21-.36-.27-.6ZM122.65,41.58h2.88c.6,0,1.05.13,1.34.38.29.25.43.66.43,1.23s-.15,1.02-.43,1.27c-.29.26-.74.39-1.34.39h-2.88v-3.28Z"/>
      <path class="cls-1" d="M140.27,45.2c-.41-.27-.84-.47-1.26-.6-.42-.12-.74-.21-.97-.25-.78-.2-1.41-.36-1.89-.49-.47-.13-.85-.25-1.11-.38-.25-.12-.42-.24-.5-.38-.08-.13-.12-.31-.12-.53,0-.24.05-.45.16-.6.11-.16.25-.3.41-.4.17-.11.36-.18.56-.23.54-.11,1.09-.08,1.55.02.27.05.51.15.72.28.2.13.37.31.49.53.12.23.2.52.22.88v.1h2.87v-.11c0-.73-.14-1.37-.42-1.89-.28-.52-.66-.95-1.14-1.28-.47-.33-1.02-.57-1.63-.72-1.13-.27-2.38-.32-3.6,0-.57.15-1.08.39-1.53.71-.45.32-.82.73-1.1,1.21-.28.48-.42,1.06-.42,1.72,0,.59.11,1.09.34,1.51.22.41.52.76.87,1.04.36.27.76.5,1.21.67.44.17.91.31,1.37.43.45.13.9.24,1.34.35.44.1.83.22,1.17.36.33.13.6.3.81.5.19.19.29.43.29.74,0,.29-.07.52-.22.71-.15.19-.34.34-.57.45-.23.11-.49.19-.75.23-.67.1-1.24.08-1.78-.07-.32-.08-.6-.21-.84-.38-.23-.17-.43-.39-.57-.67-.14-.27-.21-.61-.21-1.01v-.11h-2.87v.11c-.01.78.13,1.47.43,2.04.3.57.7,1.05,1.21,1.41.5.37,1.09.64,1.74.81.65.17,1.33.26,2.02.26.85,0,1.62-.1,2.27-.3.66-.2,1.21-.49,1.66-.85.45-.36.79-.8,1.01-1.3.23-.5.34-1.05.34-1.63,0-.71-.16-1.31-.46-1.78-.3-.46-.67-.83-1.09-1.1Z"/>
      <path class="cls-1" d="M153.13,40.87c-.53-.6-1.19-1.08-1.95-1.42-.77-.34-1.65-.51-2.62-.51s-1.84.17-2.61.51c-.77.34-1.43.82-1.96,1.42-.53.6-.94,1.31-1.22,2.12-.28.8-.42,1.68-.42,2.62s.14,1.78.42,2.57c.28.79.69,1.49,1.22,2.08.53.59,1.19,1.06,1.96,1.4.77.34,1.65.51,2.61.51s1.86-.17,2.62-.51c.77-.34,1.42-.8,1.95-1.4.53-.59.94-1.29,1.22-2.08.28-.79.42-1.66.42-2.57s-.14-1.82-.42-2.62c-.28-.81-.69-1.52-1.22-2.12ZM150.06,49.32c-.41.23-.92.34-1.51.34s-1.1-.12-1.51-.34-.75-.54-1.01-.91c-.26-.38-.45-.82-.57-1.3-.12-.48-.18-.98-.18-1.5s.06-1.06.18-1.56c.12-.5.31-.94.57-1.33.26-.38.59-.69,1-.92.41-.23.92-.34,1.51-.34s1.1.12,1.51.34c.41.23.75.54,1.01.92.26.39.45.84.57,1.33.12.5.18,1.02.18,1.56s-.06,1.02-.18,1.5c-.12.48-.31.91-.57,1.3-.26.38-.59.69-1.01.91Z"/>
      <polygon class="cls-1" points="163.66 47.35 158.64 39.28 158.61 39.23 155.72 39.23 155.72 51.89 158.5 51.89 158.5 43.79 163.5 51.83 163.53 51.89 166.44 51.89 166.44 39.23 163.66 39.23 163.66 47.35"/>
      <path class="cls-1" d="M174.66,39.23h-2.96l-4.79,12.66h2.99l.98-2.77h4.49l.94,2.77h3.08l-4.71-12.58-.03-.07ZM174.58,46.86h-2.91l1.48-4.16,1.43,4.16Z"/>
      <polygon class="cls-1" points="182.81 39.23 179.85 39.23 179.85 51.89 188.87 51.89 188.87 49.36 182.81 49.36 182.81 39.23"/>
    </g>
  </g>
</svg>