<?xml version="1.0" encoding="UTF-8"?>
<svg id="_レイヤー_2" data-name="レイヤー 2" xmlns="http://www.w3.org/2000/svg" viewBox="0 0 250.07 37.82">
  <defs>
    <style>
      .cls-1 {
        fill: #0c3b2c;
      }
    </style>
  </defs>
  <g id="_レイヤー_4" data-name="レイヤー 4">
    <g>
      <g>
        <path class="cls-1" d="M73.88,20.46h-5.61V.48h19.98v5.82h-13.94v7.8c1.12-1.12,2.83-2.14,5.66-2.14,6.14,0,9.72,4.75,9.72,13.3,0,8.07-3.85,12.55-11.22,12.55-5.98,0-10.68-3.74-11.22-9.62h6.09c.64,2.67,2.35,4.22,5.02,4.22,3.15,0,5.13-2.08,5.13-6.95s-1.5-7.75-5.13-7.75c-2.19,0-3.58,1.18-4.49,2.72Z"/>
        <path class="cls-1" d="M105.72,37.82c-6.14,0-11.59-3.63-11.59-11.27v-15.22c0-7.85,5.45-11.33,11.59-11.33s11.59,3.47,11.59,11.27v15.28c0,7.64-5.45,11.27-11.59,11.27ZM105.72,5.4c-3.37,0-5.45,2.3-5.45,6.25v14.53c0,3.95,2.08,6.25,5.45,6.25s5.4-2.3,5.4-6.25v-14.53c0-3.95-2.08-6.25-5.4-6.25Z"/>
        <path class="cls-1" d="M130.51,22.82c0,2.46-1.17,4.18-4.07,4.18-2.59,0-4.01-1.53-4.01-4.18v-1.42c0-2.65,1.47-4.15,4.01-4.15s4.07,1.47,4.07,4.15v1.42ZM128.16,22.79v-1.34c0-1.45-.57-2.13-1.72-2.13-1.06,0-1.64.71-1.64,2.13v1.34c0,1.34.44,2.16,1.64,2.16s1.72-.85,1.72-2.16ZM138.62,17.49l-10.51,18.83h-2.92l10.54-18.83h2.89ZM141.57,32.4c0,2.46-1.17,4.18-4.07,4.18-2.57,0-3.99-1.53-3.99-4.18v-1.42c0-2.65,1.47-4.15,3.99-4.15s4.07,1.47,4.07,4.15v1.42ZM139.25,32.37v-1.34c0-1.45-.6-2.13-1.72-2.13s-1.67.71-1.67,2.13v1.34c0,1.34.44,2.16,1.67,2.16s1.72-.85,1.72-2.16Z"/>
        <path class="cls-1" d="M159.83,37.82c-8.23,0-13.78-4.97-13.78-16.56v-4.7c0-11.59,5.56-16.56,13.78-16.56s13.84,4.97,13.84,16.56v4.7c0,11.59-5.56,16.56-13.84,16.56ZM152.24,21.26c0,7.96,2.67,11.17,7.59,11.17s7.64-3.21,7.64-11.17v-4.7c0-7.96-2.72-11.17-7.64-11.17s-7.59,3.21-7.59,11.17v4.7Z"/>
        <path class="cls-1" d="M201.29.48v5.4h-16.4v10.58h14.8v5.34h-14.8v15.54h-6.2V.48h22.6Z"/>
        <path class="cls-1" d="M227.73.48v5.4h-16.4v10.58h14.8v5.34h-14.8v15.54h-6.2V.48h22.6Z"/>
        <path class="cls-1" d="M238.05,37.34h-6.36v-6.3h6.36v6.3ZM237.78.48h-5.82v26.76h5.82V.48Z"/>
        <path class="cls-1" d="M250.07,37.34h-6.36v-6.3h6.36v6.3ZM249.8.48h-5.82v26.76h5.82V.48Z"/>
      </g>
      <g>
        <path class="cls-1" d="M12.95,17.57c-.14.14-.44.19-.74.14-.5.63-1.38,1.6-2.12,2.34.83.77,1.57,1.49,1.87,1.82l-1.96,2.51c-.55-.8-1.46-1.96-2.37-3.03v10h-3.25v-9.09c-.88.94-1.79,1.79-2.67,2.48-.3-.83-1.19-2.42-1.71-3.03,2.73-1.87,5.43-5.13,7.14-8.46H.77v-2.98h3.61v-4.91l4,.22c-.03.28-.25.44-.74.52v4.16h1.24l.52-.14,2.2,1.29c-.11.17-.28.33-.5.39-.83,2.07-1.98,4.16-3.31,6.15.22.17.47.39.74.63.69-.94,1.54-2.15,2.01-3.06l2.4,2.04ZM24,7.45l1.85.11c0,.25-.03.74-.05,1.16-.28,14.36-.52,19.21-1.6,20.7-1.13,1.76-2.31,1.9-6.5,1.82-.06-.96-.47-2.45-1.05-3.42,1.46.11,2.76.11,3.42.11.47,0,.74-.11,1.05-.55.77-.91,1.07-5.4,1.29-16.78h-4.08c-.22,7.55-.77,15.93-7.17,20.78-.55-.88-1.57-1.96-2.45-2.59,5.73-4.02,6.15-11.08,6.28-18.19h-4.02v-3.11h12.26l.77-.03Z"/>
        <path class="cls-1" d="M52.83,6.65v20.53c0,3.69-1.74,4.13-7.91,4.13-.19-.96-.85-2.59-1.38-3.47,1.3.08,2.76.08,3.78.08,1.82,0,2.01,0,2.01-.8v-4.27h-11.63c-.77,3.2-2.29,6.34-5.18,8.54-.5-.69-1.79-1.96-2.51-2.45,4.66-3.55,5.04-8.87,5.04-13.14V6.65h17.77ZM38.45,16.35c-.03,1.05-.08,2.15-.19,3.31h11.08v-3.31h-10.88ZM49.33,9.88h-10.88v3.33h10.88v-3.33Z"/>
      </g>
    </g>
  </g>
</svg>