<?xml version="1.0" encoding="UTF-8"?>
<svg id="_レイヤー_2" data-name="レイヤー 2" xmlns="http://www.w3.org/2000/svg" viewBox="0 0 340 45.74">
  <defs>
    <style>
      .cls-1 {
        stroke-width: .85px;
      }

      .cls-1, .cls-2 {
        fill: none;
        stroke: #0c3b2c;
        stroke-miterlimit: 10;
      }

      .cls-2 {
        stroke-width: .85px;
      }

      .cls-3 {
        fill: #0c3b2c;
      }
    </style>
  </defs>
  <g id="_レイヤー_4" data-name="レイヤー 4">
    <g>
      <line class="cls-1" y1="45.31" x2="340" y2="45.31"/>
      <g>
        <path class="cls-2" d="M92.19,9.52h9.59V.75h4.42v22.68h-4.42v-10.1h-9.59v10.1h-4.42V.75h4.42v8.77Z"/>
        <path class="cls-2" d="M124.05,10.3c1.46,1.33,2.48,3.37,2.48,5.78s-1.02,4.42-2.48,5.75c-1.26,1.16-3.16,2.07-5.95,2.07s-4.69-.92-5.95-2.07c-1.46-1.33-2.48-3.37-2.48-5.75s1.02-4.45,2.48-5.78c1.26-1.16,3.16-2.07,5.95-2.07s4.69.92,5.95,2.07ZM122.25,16.08c0-2.31-1.77-4.18-4.15-4.18s-4.15,1.87-4.15,4.18,1.73,4.15,4.15,4.15,4.15-1.9,4.15-4.15Z"/>
        <path class="cls-2" d="M138.02,23.42h-2.04l-7.48-14.72h4.62l3.88,8.5,3.94-8.5h1.9l3.94,8.5,3.88-8.5h4.62l-7.48,14.72h-2.04l-3.88-8.67-3.88,8.67Z"/>
        <path class="cls-3" d="M168.73,12.24v11.19h-4.15v-11.19h-1.63v-3.54h1.63V3.67h4.15v5.03h2.86v3.54h-2.86Z"/>
        <path class="cls-3" d="M187.05,10.3c1.46,1.33,2.48,3.37,2.48,5.78s-1.02,4.42-2.48,5.75c-1.26,1.16-3.16,2.07-5.95,2.07s-4.69-.92-5.95-2.07c-1.46-1.33-2.48-3.37-2.48-5.75s1.02-4.45,2.48-5.78c1.26-1.16,3.16-2.07,5.95-2.07s4.69.92,5.95,2.07ZM185.25,16.08c0-2.31-1.77-4.18-4.15-4.18s-4.15,1.87-4.15,4.18,1.73,4.15,4.15,4.15,4.15-1.9,4.15-4.15Z"/>
        <path class="cls-3" d="M208.67.75v15.3c0,2.01-.14,5.17-2.65,6.87-.99.65-2.35,1.02-3.71,1.02-1.63,0-3.57-.54-5.2-2.11l2.69-3.23c.44.65,1.16,1.22,2.21,1.22.95,0,1.5-.41,1.73-.78.54-.78.51-2.28.51-3.67V.75h4.42Z"/>
        <path class="cls-3" d="M226.52,10.3c1.46,1.33,2.48,3.37,2.48,5.78s-1.02,4.42-2.48,5.75c-1.26,1.16-3.16,2.07-5.95,2.07s-4.69-.92-5.95-2.07c-1.46-1.33-2.48-3.37-2.48-5.75s1.02-4.45,2.48-5.78c1.26-1.16,3.16-2.07,5.95-2.07s4.69.92,5.95,2.07ZM224.72,16.08c0-2.31-1.77-4.18-4.15-4.18s-4.15,1.87-4.15,4.18,1.73,4.15,4.15,4.15,4.15-1.9,4.15-4.15Z"/>
        <path class="cls-3" d="M233.94,0c1.36,0,2.48,1.12,2.48,2.48s-1.12,2.48-2.48,2.48-2.48-1.12-2.48-2.48,1.12-2.48,2.48-2.48ZM236.01,8.7v14.72h-4.15v-14.72h4.15Z"/>
        <path class="cls-3" d="M239.61,8.7h4.15v1.9c.78-1.09,2.18-2.38,4.56-2.38,1.29,0,3.2.37,4.35,1.8,1.02,1.26,1.16,2.72,1.16,4.15v9.25h-4.15v-8.02c0-.82-.03-2.11-.78-2.89-.65-.68-1.53-.75-1.94-.75-1.09,0-1.94.37-2.55,1.29-.61.95-.65,2.01-.65,2.86v7.51h-4.15v-14.72Z"/>
      </g>
    </g>
  </g>
</svg>