<?xml version="1.0" encoding="UTF-8"?>
<svg id="_レイヤー_2" data-name="レイヤー 2" xmlns="http://www.w3.org/2000/svg" viewBox="0 0 340 45.1">
  <defs>
    <style>
      .cls-1 {
        stroke-width: .85px;
      }

      .cls-1, .cls-2 {
        fill: none;
        stroke: #0c3b2c;
        stroke-miterlimit: 10;
      }

      .cls-2 {
        stroke-width: .85px;
      }

      .cls-3 {
        fill: #0c3b2c;
      }
    </style>
  </defs>
  <g id="_レイヤー_4" data-name="レイヤー 4">
    <g>
      <line class="cls-1" y1="44.68" x2="340" y2="44.68"/>
      <g>
        <path class="cls-2" d="M94.61,12.65h10.4v.27c0,1.53-.2,6.29-3.33,9.38-2.35,2.35-5.24,2.99-8.06,2.99s-5.75-.58-8.23-3.06c-.78-.78-3.37-3.64-3.37-8.74,0-4.38,1.97-7.07,3.33-8.43,1.7-1.73,4.56-3.47,8.94-3.47,1.7,0,3.5.27,5.24,1.19,1.46.75,3.06,2.11,4.25,4.15l-3.84,2.07c-.78-1.53-1.94-2.31-2.65-2.69-.95-.48-2.14-.71-3.2-.71-1.8,0-3.84.65-5.24,2.01-1.29,1.26-2.28,3.43-2.28,5.98,0,3.03,1.29,4.83,2.24,5.75,1.02.99,2.62,1.94,5.03,1.94,1.5,0,3.2-.41,4.45-1.36.88-.68,1.77-1.84,2.14-3.47h-5.85v-3.81Z"/>
        <path class="cls-2" d="M114.26,22.57l-7-12.51h4.83l4.56,8.36,4.08-8.36h4.69l-11.87,22.51h-4.69l5.41-10Z"/>
        <path class="cls-2" d="M127.11,10.06h4.15v1.67c1.56-1.97,3.5-2.14,4.39-2.14,3.09,0,4.28,1.94,4.66,2.69.71-1.16,2.18-2.69,4.73-2.69,2.28,0,3.4,1.05,3.98,1.8.95,1.26,1.02,2.52,1.02,4.15v9.25h-4.15v-8.02c0-1.73-.37-2.52-.68-2.89-.54-.68-1.29-.75-1.7-.75-1.12,0-1.84.51-2.28,1.29-.54.88-.58,2.07-.58,2.86v7.51h-4.15v-8.02c0-1.73-.37-2.52-.68-2.89-.54-.68-1.29-.75-1.7-.75-1.12,0-1.84.51-2.28,1.29-.54.88-.58,2.07-.58,2.86v7.51h-4.15v-14.72Z"/>
        <path class="cls-3" d="M174.68,12.65h10.4v.27c0,1.53-.2,6.29-3.33,9.38-2.35,2.35-5.24,2.99-8.06,2.99s-5.75-.58-8.23-3.06c-.78-.78-3.37-3.64-3.37-8.74,0-4.38,1.97-7.07,3.33-8.43,1.7-1.73,4.56-3.47,8.94-3.47,1.7,0,3.5.27,5.24,1.19,1.46.75,3.06,2.11,4.25,4.15l-3.84,2.07c-.78-1.53-1.94-2.31-2.65-2.69-.95-.48-2.14-.71-3.2-.71-1.8,0-3.84.65-5.24,2.01-1.29,1.26-2.28,3.43-2.28,5.98,0,3.03,1.29,4.83,2.24,5.75,1.02.99,2.62,1.94,5.03,1.94,1.5,0,3.2-.41,4.45-1.36.88-.68,1.77-1.84,2.14-3.47h-5.85v-3.81Z"/>
        <path class="cls-3" d="M199.5,10.06h4.15v14.72h-4.15v-1.9c-1.5,2.14-3.47,2.38-4.52,2.38-4.52,0-7.51-3.54-7.51-7.85s2.96-7.82,7.31-7.82c1.12,0,3.33.2,4.73,2.38v-1.9ZM191.75,17.41c0,2.35,1.7,4.18,4.08,4.18s4.08-1.84,4.08-4.18-1.7-4.15-4.08-4.15-4.08,1.8-4.08,4.15Z"/>
        <path class="cls-3" d="M211.4,0v24.78h-4.15V0h4.15Z"/>
        <path class="cls-3" d="M219.15,0v24.78h-4.15V0h4.15Z"/>
        <path class="cls-3" d="M237.2,20.67c-.44,1.09-2.11,4.59-7.24,4.59-2.38,0-4.18-.68-5.64-2.07-1.63-1.53-2.31-3.43-2.31-5.75,0-2.92,1.19-4.72,2.24-5.78,1.73-1.7,3.77-2.07,5.54-2.07,2.99,0,4.73,1.19,5.75,2.41,1.56,1.87,1.77,4.18,1.77,5.78v.34h-11.01c0,.88.24,1.83.71,2.48.44.61,1.36,1.39,2.96,1.39s2.75-.75,3.43-1.94l3.81.61ZM233.4,15.47c-.34-2.01-1.97-2.96-3.5-2.96s-3.13.99-3.47,2.96h6.97Z"/>
        <path class="cls-3" d="M240.16,10.06h4.15v2.21c.65-1.26,1.53-1.87,1.84-2.04.65-.41,1.46-.65,2.45-.65.71,0,1.29.17,1.77.34l-.54,3.88c-.54-.38-1.09-.54-1.94-.54-.78,0-1.94.17-2.75,1.19-.78.99-.82,2.24-.82,3.26v7.07h-4.15v-14.72Z"/>
        <path class="cls-3" d="M257.16,22.57l-7-12.51h4.83l4.56,8.36,4.08-8.36h4.69l-11.87,22.51h-4.69l5.41-10Z"/>
      </g>
    </g>
  </g>
</svg>