<?xml version="1.0" encoding="UTF-8"?>
<svg id="_レイヤー_2" data-name="レイヤー 2" xmlns="http://www.w3.org/2000/svg" viewBox="0 0 96.19 21.82">
  <defs>
    <style>
      .cls-1 {
        fill: #0c3b2c;
      }
    </style>
  </defs>
  <g id="_レイヤー_5" data-name="レイヤー 5">
    <g id="campaign">
      <path class="cls-1" d="M12.62,4.03c-1.78-1.61-3.43-1.78-4.34-1.78-3.48,0-5.83,2.57-5.83,6.1s2.45,6,5.86,6c1.92,0,3.41-.98,4.32-1.85v2.9c-1.61.96-3.29,1.2-4.39,1.2-2.9,0-4.73-1.32-5.66-2.21-1.87-1.75-2.57-3.79-2.57-6.05C0,5.4,1.22,3.36,2.57,2.09,4.22.53,6.14,0,8.35,0c1.46,0,2.88.26,4.27,1.15v2.88Z"/>
      <path class="cls-1" d="M22.54,6.19h2.35v10.1h-2.35v-1.06c-1.03,1.2-2.3,1.37-3.02,1.37-3.12,0-4.9-2.59-4.9-5.38,0-3.29,2.26-5.3,4.92-5.3.74,0,2.04.19,3,1.44v-1.18ZM17.02,11.28c0,1.75,1.1,3.22,2.81,3.22,1.49,0,2.86-1.08,2.86-3.19s-1.37-3.26-2.86-3.26c-1.7,0-2.81,1.44-2.81,3.24Z"/>
      <path class="cls-1" d="M27.79,6.19h2.35v.94c.79-.96,1.73-1.2,2.5-1.2,1.06,0,2.04.5,2.62,1.49.84-1.2,2.11-1.49,3-1.49,1.22,0,2.3.58,2.88,1.58.19.34.53,1.08.53,2.54v6.24h-2.35v-5.57c0-1.13-.12-1.58-.22-1.8-.14-.38-.5-.89-1.34-.89-.58,0-1.08.31-1.39.74-.41.58-.46,1.44-.46,2.3v5.21h-2.35v-5.57c0-1.13-.12-1.58-.22-1.8-.14-.38-.5-.89-1.34-.89-.58,0-1.08.31-1.39.74-.41.58-.46,1.44-.46,2.3v5.21h-2.35V6.19Z"/>
      <path class="cls-1" d="M46.92,21.79h-2.35V6.19h2.35v1.1c.86-1.03,1.99-1.37,3-1.37,2.66,0,4.92,2.04,4.92,5.26,0,3.41-2.5,5.42-4.9,5.42-.55,0-1.97-.19-3.02-1.49v6.67ZM46.78,11.3c0,2.11,1.37,3.19,2.86,3.19,1.7,0,2.81-1.46,2.81-3.22s-1.1-3.24-2.81-3.24c-1.49,0-2.86,1.06-2.86,3.26Z"/>
      <path class="cls-1" d="M64.61,6.19h2.35v10.1h-2.35v-1.06c-1.03,1.2-2.3,1.37-3.02,1.37-3.12,0-4.9-2.59-4.9-5.38,0-3.29,2.26-5.3,4.92-5.3.74,0,2.04.19,3,1.44v-1.18ZM59.09,11.28c0,1.75,1.1,3.22,2.81,3.22,1.49,0,2.86-1.08,2.86-3.19s-1.37-3.26-2.86-3.26c-1.7,0-2.81,1.44-2.81,3.24Z"/>
      <path class="cls-1" d="M71.04.5c.86,0,1.51.65,1.51,1.51s-.65,1.51-1.51,1.51-1.51-.65-1.51-1.51.65-1.51,1.51-1.51ZM72.22,6.19v10.1h-2.35V6.19h2.35Z"/>
      <path class="cls-1" d="M82.51,6.19h2.35v9.29c0,2.38-.26,4.08-1.66,5.26-.65.53-1.7,1.08-3.36,1.08-1.18,0-2.35-.29-3.31-1.25-.74-.74-1.32-1.92-1.49-3.14h2.28c.1.55.38,1.2.74,1.58.29.31.86.7,1.82.7s1.56-.38,1.85-.67c.77-.74.77-1.8.77-2.54v-1.32c-1.08,1.37-2.4,1.44-3.07,1.44-1.3,0-2.38-.36-3.34-1.37-.91-.96-1.51-2.33-1.51-4.01,0-1.85.7-3.12,1.49-3.91,1.01-1.03,2.21-1.39,3.43-1.39,1.01,0,2.14.34,3,1.37v-1.1ZM78.02,8.71c-.6.55-1.03,1.49-1.03,2.57,0,1.01.38,1.99,1.01,2.54.43.38,1.08.67,1.8.67s1.39-.22,1.97-.82c.7-.74.89-1.61.89-2.38,0-1.13-.36-1.97-.96-2.54-.58-.58-1.22-.72-1.9-.72s-1.25.17-1.78.67Z"/>
      <path class="cls-1" d="M87.5,6.19h2.35v.94c1.01-1.13,2.16-1.2,2.74-1.2,1.87,0,2.66.94,2.98,1.37.38.55.62,1.25.62,2.81v6.19h-2.35v-5.62c0-2.57-.96-2.64-1.85-2.64-1.06,0-2.14.14-2.14,3.41v4.85h-2.35V6.19Z"/>
    </g>
  </g>
</svg>