<?xml version="1.0" encoding="UTF-8"?>
<svg id="_レイヤー_2" data-name="レイヤー 2" xmlns="http://www.w3.org/2000/svg" viewBox="0 0 100.97 23.26">
  <defs>
    <style>
      .cls-1 {
        fill: #0c3b2c;
      }
    </style>
  </defs>
  <g id="_レイヤー_5" data-name="レイヤー 5">
    <g id="features">
      <path class="cls-1" d="M2.45,8.14L8.64,1.75h3.22l-7.22,7.25,7.27,8.76h-3.26l-5.71-7.1-.48.48v6.62H0V1.75h2.45v6.38Z"/>
      <path class="cls-1" d="M21.87,15.46c-.43.77-1.06,1.44-1.7,1.85-.82.53-1.9.77-2.98.77-1.34,0-2.45-.34-3.41-1.3s-1.49-2.35-1.49-3.86.55-3.07,1.61-4.15c.84-.84,1.94-1.37,3.38-1.37,1.61,0,2.64.7,3.24,1.32,1.3,1.34,1.42,3.22,1.42,4.27v.29h-7.25c.05.72.36,1.54.86,2.04.55.55,1.22.65,1.8.65.65,0,1.13-.14,1.61-.5.41-.31.72-.72.94-1.1l1.97,1.1ZM19.54,11.35c-.1-.55-.36-1.03-.72-1.37-.31-.29-.82-.58-1.58-.58-.82,0-1.34.34-1.66.65-.34.31-.6.79-.72,1.3h4.68Z"/>
      <path class="cls-1" d="M27.29,16.18l-4.32-8.52h2.83l2.88,5.9,2.93-5.9h2.64l-8.04,15.6h-2.64l3.72-7.08Z"/>
      <path class="cls-1" d="M43.92,9.82v7.94h-2.35v-7.94h-1.01v-2.16h1.01v-3.5c0-1.56.41-2.54.98-3.17.43-.46,1.18-.98,2.4-.98.5,0,1.01.07,1.51.29v2.33c-.48-.29-.79-.36-1.13-.36-.29,0-.72.05-1.03.38-.12.12-.38.48-.38,1.2v3.82h2.54v2.16h-2.54Z"/>
      <path class="cls-1" d="M56.78,15.46c-.43.77-1.06,1.44-1.7,1.85-.82.53-1.9.77-2.98.77-1.34,0-2.45-.34-3.41-1.3s-1.49-2.35-1.49-3.86.55-3.07,1.61-4.15c.84-.84,1.94-1.37,3.38-1.37,1.61,0,2.64.7,3.24,1.32,1.3,1.34,1.42,3.22,1.42,4.27v.29h-7.25c.05.72.36,1.54.86,2.04.55.55,1.22.65,1.8.65.65,0,1.13-.14,1.61-.5.41-.31.72-.72.94-1.1l1.97,1.1ZM54.46,11.35c-.1-.55-.36-1.03-.72-1.37-.31-.29-.82-.58-1.58-.58-.82,0-1.34.34-1.66.65-.34.31-.6.79-.72,1.3h4.68Z"/>
      <path class="cls-1" d="M61.66,9.82v7.94h-2.35v-7.94h-.98v-2.16h.98v-3.7h2.35v3.7h1.8v2.16h-1.8Z"/>
      <path class="cls-1" d="M67.32,7.66v5.78c0,.6.02,1.3.43,1.82.31.41.86.7,1.54.7s1.22-.29,1.54-.7c.41-.53.43-1.22.43-1.82v-5.78h2.35v5.86c0,1.3-.14,2.38-1.08,3.31-.91.91-2.16,1.25-3.29,1.25-1.03,0-2.28-.31-3.19-1.25-.94-.94-1.08-2.02-1.08-3.31v-5.86h2.35Z"/>
      <path class="cls-1" d="M75.79,7.66h2.35v.91c.26-.31.65-.65.98-.84.46-.26.91-.34,1.44-.34.58,0,1.2.1,1.85.48l-.96,2.14c-.53-.34-.96-.36-1.2-.36-.5,0-1.01.07-1.46.55-.65.7-.65,1.66-.65,2.33v5.23h-2.35V7.66Z"/>
      <path class="cls-1" d="M91.99,15.46c-.43.77-1.06,1.44-1.7,1.85-.82.53-1.9.77-2.98.77-1.34,0-2.45-.34-3.41-1.3s-1.49-2.35-1.49-3.86.55-3.07,1.61-4.15c.84-.84,1.94-1.37,3.38-1.37,1.61,0,2.64.7,3.24,1.32,1.3,1.34,1.42,3.22,1.42,4.27v.29h-7.25c.05.72.36,1.54.86,2.04.55.55,1.22.65,1.8.65.65,0,1.13-.14,1.61-.5.41-.31.72-.72.94-1.1l1.97,1.1ZM89.66,11.35c-.1-.55-.36-1.03-.72-1.37-.31-.29-.82-.58-1.58-.58-.82,0-1.34.34-1.66.65-.34.31-.6.79-.72,1.3h4.68Z"/>
      <path class="cls-1" d="M98.85,10.32c-.24-.38-.7-.86-1.44-.86-.34,0-.58.12-.72.26-.12.12-.22.31-.22.53,0,.26.12.43.34.58.14.1.29.14.79.41l1.2.6c.53.26,1.03.53,1.42.94.55.55.74,1.18.74,1.87,0,.91-.34,1.7-.89,2.3-.79.86-1.78,1.13-2.83,1.13-.65,0-1.46-.1-2.18-.65-.58-.43-1.06-1.13-1.3-1.85l1.92-.91c.12.34.34.77.55.96.14.14.48.38,1.03.38.36,0,.74-.12.96-.34.19-.19.34-.5.34-.79s-.1-.53-.31-.77c-.29-.29-.62-.46-1.01-.62l-.86-.41c-.46-.22-1.01-.48-1.39-.86-.53-.5-.72-1.06-.72-1.7,0-.82.31-1.61.84-2.16.46-.48,1.22-.96,2.47-.96.72,0,1.3.14,1.87.53.34.22.79.6,1.15,1.25l-1.75,1.15Z"/>
    </g>
  </g>
</svg>