<?xml version="1.0" encoding="UTF-8"?>
<svg id="_レイヤー_2" data-name="レイヤー 2" xmlns="http://www.w3.org/2000/svg" viewBox="0 0 123.12 22.99">
  <defs>
    <style>
      .cls-1 {
        fill: #0c3b2c;
      }
    </style>
  </defs>
  <g id="_レイヤー_5" data-name="レイヤー 5">
    <g id="gallery">
      <path class="cls-1" d="M9.05,9.17h6.6v.12c0,2.74-.82,4.97-2.38,6.48-1.66,1.61-3.62,2.04-5.45,2.04-2.33,0-3.98-.67-5.45-2.18-1.56-1.61-2.38-3.74-2.38-6.05,0-2.5,1.01-4.66,2.33-5.98,1.37-1.39,3.55-2.4,6.02-2.4,1.44,0,2.93.31,4.18,1.01,1.32.74,2.14,1.68,2.59,2.4l-1.94,1.37c-.48-.67-1.2-1.39-1.97-1.82-.89-.53-1.85-.7-2.83-.7-2.09,0-3.43.86-4.22,1.66-1.06,1.06-1.7,2.76-1.7,4.49,0,1.61.6,3.22,1.66,4.34,1.1,1.18,2.47,1.61,4.01,1.61,1.39,0,2.54-.41,3.58-1.42.89-.86,1.25-1.8,1.34-2.71h-3.98v-2.26Z"/>
      <path class="cls-1" d="M21.19,15.91l-4.32-8.52h2.83l2.88,5.9,2.93-5.9h2.64l-8.04,15.6h-2.64l3.72-7.08Z"/>
      <path class="cls-1" d="M29.71,7.39h2.35v.94c.79-.96,1.73-1.2,2.5-1.2,1.06,0,2.04.5,2.62,1.49.84-1.2,2.11-1.49,3-1.49,1.22,0,2.3.58,2.88,1.58.19.34.53,1.08.53,2.54v6.24h-2.35v-5.57c0-1.13-.12-1.58-.22-1.8-.14-.38-.5-.89-1.34-.89-.58,0-1.08.31-1.39.74-.41.58-.46,1.44-.46,2.3v5.21h-2.35v-5.57c0-1.13-.12-1.58-.22-1.8-.14-.38-.5-.89-1.34-.89-.58,0-1.08.31-1.39.74-.41.58-.46,1.44-.46,2.3v5.21h-2.35V7.39Z"/>
      <path class="cls-1" d="M60.72,9.17h6.6v.12c0,2.74-.82,4.97-2.38,6.48-1.66,1.61-3.62,2.04-5.45,2.04-2.33,0-3.98-.67-5.45-2.18-1.56-1.61-2.38-3.74-2.38-6.05,0-2.5,1.01-4.66,2.33-5.98,1.37-1.39,3.55-2.4,6.02-2.4,1.44,0,2.93.31,4.18,1.01,1.32.74,2.14,1.68,2.59,2.4l-1.94,1.37c-.48-.67-1.2-1.39-1.97-1.82-.89-.53-1.85-.7-2.83-.7-2.09,0-3.43.86-4.22,1.66-1.06,1.06-1.7,2.76-1.7,4.49,0,1.61.6,3.22,1.66,4.34,1.1,1.18,2.47,1.61,4.01,1.61,1.39,0,2.54-.41,3.58-1.42.89-.86,1.25-1.8,1.34-2.71h-3.98v-2.26Z"/>
      <path class="cls-1" d="M77.28,7.39h2.35v10.1h-2.35v-1.06c-1.03,1.2-2.3,1.37-3.02,1.37-3.12,0-4.9-2.59-4.9-5.38,0-3.29,2.26-5.3,4.92-5.3.74,0,2.04.19,3,1.44v-1.18ZM71.76,12.48c0,1.75,1.1,3.22,2.81,3.22,1.49,0,2.86-1.08,2.86-3.19s-1.37-3.26-2.86-3.26c-1.7,0-2.81,1.44-2.81,3.24Z"/>
      <path class="cls-1" d="M84.89,0v17.5h-2.35V0h2.35Z"/>
      <path class="cls-1" d="M90.14,0v17.5h-2.35V0h2.35Z"/>
      <path class="cls-1" d="M102.09,15.19c-.43.77-1.06,1.44-1.7,1.85-.82.53-1.9.77-2.98.77-1.34,0-2.45-.34-3.41-1.3-.96-.96-1.49-2.35-1.49-3.86s.55-3.07,1.61-4.15c.84-.84,1.94-1.37,3.38-1.37,1.61,0,2.64.7,3.24,1.32,1.3,1.34,1.42,3.22,1.42,4.27v.29h-7.25c.05.72.36,1.54.86,2.04.55.55,1.22.65,1.8.65.65,0,1.13-.14,1.61-.5.41-.31.72-.72.94-1.1l1.97,1.1ZM99.77,11.09c-.1-.55-.36-1.03-.72-1.37-.31-.29-.82-.58-1.58-.58-.82,0-1.34.34-1.66.65-.34.31-.6.79-.72,1.3h4.68Z"/>
      <path class="cls-1" d="M104.54,7.39h2.35v.91c.26-.31.65-.65.98-.84.46-.26.91-.34,1.44-.34.58,0,1.2.1,1.85.48l-.96,2.14c-.53-.34-.96-.36-1.2-.36-.5,0-1.01.07-1.46.55-.65.7-.65,1.66-.65,2.33v5.23h-2.35V7.39Z"/>
      <path class="cls-1" d="M116.16,15.91l-4.32-8.52h2.83l2.88,5.9,2.93-5.9h2.64l-8.04,15.6h-2.64l3.72-7.08Z"/>
    </g>
  </g>
</svg>