<?xml version="1.0" encoding="UTF-8"?>
<svg id="_レイヤー_2" data-name="レイヤー 2" xmlns="http://www.w3.org/2000/svg" viewBox="0 0 104.18 21.51">
  <defs>
    <style>
      .cls-1 {
        fill: #0c3b2c;
      }
    </style>
  </defs>
  <g id="_レイヤー_5" data-name="レイヤー 5">
    <g id="how">
      <path class="cls-1" d="M2.45,6.34h6.87V0h2.45v16.01h-2.45v-7.37H2.45v7.37H0V0h2.45v6.34Z"/>
      <path class="cls-1" d="M24.65,10.97c0,3.1-2.35,5.35-5.4,5.35s-5.4-2.26-5.4-5.35,2.35-5.33,5.4-5.33,5.4,2.21,5.4,5.33ZM22.25,10.99c0-2.3-1.51-3.24-3-3.24s-3,.94-3,3.24c0,1.94,1.15,3.22,3,3.22s3-1.27,3-3.22Z"/>
      <path class="cls-1" d="M28.32,5.9l2.62,5.78,2.83-6.65,2.83,6.65,2.62-5.78h2.64l-5.26,10.82-2.83-6.46-2.83,6.46-5.26-10.82h2.64Z"/>
      <path class="cls-1" d="M51.36,8.06v7.94h-2.35v-7.94h-.98v-2.16h.98v-3.7h2.35v3.7h1.8v2.16h-1.8Z"/>
      <path class="cls-1" d="M64.94,10.97c0,3.1-2.35,5.35-5.4,5.35s-5.4-2.26-5.4-5.35,2.35-5.33,5.4-5.33,5.4,2.21,5.4,5.33ZM62.54,10.99c0-2.3-1.51-3.24-3-3.24s-3,.94-3,3.24c0,1.94,1.15,3.22,3,3.22s3-1.27,3-3.22Z"/>
      <path class="cls-1" d="M74.01.22c.86,0,1.51.65,1.51,1.51s-.65,1.51-1.51,1.51-1.51-.65-1.51-1.51.65-1.51,1.51-1.51ZM75.19,5.9v15.6h-2.35V5.9h2.35Z"/>
      <path class="cls-1" d="M87.89,10.97c0,3.1-2.35,5.35-5.4,5.35s-5.4-2.26-5.4-5.35,2.35-5.33,5.4-5.33,5.4,2.21,5.4,5.33ZM85.49,10.99c0-2.3-1.51-3.24-3-3.24s-3,.94-3,3.24c0,1.94,1.15,3.22,3,3.22s3-1.27,3-3.22Z"/>
      <path class="cls-1" d="M91.44.22c.86,0,1.51.65,1.51,1.51s-.65,1.51-1.51,1.51-1.51-.65-1.51-1.51.65-1.51,1.51-1.51ZM92.62,5.9v10.1h-2.35V5.9h2.35Z"/>
      <path class="cls-1" d="M95.49,5.9h2.35v.94c1.01-1.13,2.16-1.2,2.74-1.2,1.87,0,2.66.94,2.98,1.37.38.55.62,1.25.62,2.81v6.19h-2.35v-5.62c0-2.57-.96-2.64-1.85-2.64-1.06,0-2.14.14-2.14,3.41v4.85h-2.35V5.9Z"/>
    </g>
  </g>
</svg>