<?xml version="1.0" encoding="UTF-8"?>
<svg id="_レイヤー_2" data-name="レイヤー 2" xmlns="http://www.w3.org/2000/svg" viewBox="0 0 28.6 28.6">
  <defs>
    <style>
      .cls-1 {
        fill: #0c3b2c;
      }
    </style>
  </defs>
  <g id="_レイヤー_5" data-name="レイヤー 5">
    <g>
      <path class="cls-1" d="M22.15,28.6H6.45c-3.56,0-6.45-2.89-6.45-6.45V6.45C0,2.89,2.89,0,6.45,0h15.7c3.56,0,6.45,2.89,6.45,6.45v15.7c0,3.56-2.89,6.45-6.45,6.45ZM23.83,12.95c0-4.27-4.28-7.74-9.53-7.74s-9.53,3.47-9.53,7.74c0,3.82,3.39,7.03,7.97,7.63.31.07.73.2.84.47.1.24.06.62.03.86,0,0-.11.67-.14.82-.04.24-.19.94.83.51,1.02-.43,5.49-3.23,7.49-5.54h0c1.38-1.52,2.04-3.05,2.04-4.76Z"/>
      <g>
        <path class="cls-1" d="M20.66,15.41h-2.68c-.1,0-.18-.08-.18-.18h0v-4.16h0c0-.1.08-.19.18-.19h2.68c.1,0,.18.08.18.18v.68c0,.1-.08.18-.18.18h-1.82v.7h1.82c.1,0,.18.08.18.18v.68c0,.1-.08.18-.18.18h-1.82v.7h1.82c.1,0,.18.08.18.18v.68c0,.1-.08.18-.18.18Z"/>
        <path class="cls-1" d="M10.75,15.41c.1,0,.18-.08.18-.18v-.68c0-.1-.08-.18-.18-.18h-1.82v-3.3c0-.1-.08-.18-.18-.18h-.68c-.1,0-.18.08-.18.18v4.16h0c0,.1.08.19.18.19h2.68Z"/>
        <rect class="cls-1" x="11.5" y="10.89" width="1.04" height="4.52" rx=".18" ry=".18"/>
        <path class="cls-1" d="M16.96,10.89h-.68c-.1,0-.18.08-.18.18v2.47l-1.9-2.57s0-.01-.01-.02c0,0,0,0,0,0,0,0,0,0-.01-.01,0,0,0,0,0,0,0,0,0,0,0,0,0,0,0,0,0,0,0,0,0,0,0,0,0,0,0,0,0,0,0,0,0,0-.01,0,0,0,0,0,0,0,0,0,0,0-.01,0,0,0,0,0,0,0,0,0,0,0-.01,0,0,0,0,0,0,0,0,0,0,0-.01,0,0,0,0,0,0,0,0,0,0,0,0,0,0,0,0,0,0,0,0,0,0,0,0,0h-.67c-.1,0-.18.08-.18.18v4.16c0,.1.08.18.18.18h.68c.1,0,.18-.08.18-.18v-2.47l1.91,2.57s.03.03.05.05c0,0,0,0,0,0,0,0,0,0,.01,0,0,0,0,0,0,0,0,0,0,0,0,0,0,0,0,0,0,0,0,0,0,0,0,0,0,0,0,0,.01,0,0,0,0,0,0,0,.02,0,.03,0,.05,0h.67c.1,0,.18-.08.18-.18v-4.16c0-.1-.08-.18-.18-.18Z"/>
      </g>
    </g>
  </g>
</svg>