<?xml version="1.0" encoding="UTF-8"?>
<svg id="_レイヤー_2" data-name="レイヤー 2" xmlns="http://www.w3.org/2000/svg" viewBox="0 0 28.6 28.6">
  <defs>
    <style>
      .cls-1 {
        fill: #0c3b2c;
      }
    </style>
  </defs>
  <g id="_レイヤー_5" data-name="レイヤー 5">
    <path class="cls-1" d="M14.3,9.53c-2.63,0-4.77,2.13-4.77,4.77s2.13,4.77,4.77,4.77,4.77-2.13,4.77-4.77-2.13-4.77-4.77-4.77ZM14.3,21.64c-4.05,0-7.34-3.29-7.34-7.34s3.29-7.34,7.34-7.34,7.34,3.29,7.34,7.34-3.29,7.34-7.34,7.34ZM21.92,8.39c-.95,0-1.72-.76-1.72-1.72s.76-1.72,1.72-1.72,1.72.76,1.72,1.72-.76,1.72-1.72,1.72ZM25.93,8.48c-.02-.91-.18-1.81-.48-2.67-.24-.61-.59-1.16-1.05-1.62-.48-.48-.95-.86-1.62-1.05-.48-.19-1.24-.48-2.67-.48l-5.81-.1-5.81.1c-1.33.1-2.1.29-2.57.48-.67.29-1.14.57-1.72,1.05-.48.57-.76,1.05-1.05,1.72-.19.48-.38,1.24-.48,2.57l-.1,5.81.1,5.81c.1,1.43.29,2.19.48,2.67.24.61.59,1.16,1.05,1.62.48.48.95.86,1.62,1.05.48.19,1.24.48,2.67.48l5.81.1,5.81-.1c1.43-.1,2.19-.29,2.67-.48.61-.24,1.16-.59,1.62-1.05.48-.48.76-.95,1.05-1.62.19-.48.38-1.24.48-2.67l.1-5.81-.1-5.81ZM28.5,20.21c-.1,1.53-.29,2.57-.67,3.43-.38.95-.86,1.72-1.62,2.57-.76.76-1.62,1.24-2.57,1.62-.95.38-1.91.57-3.43.67l-5.91.1-5.91-.1c-1.53-.1-2.57-.29-3.43-.67-.95-.38-1.72-.86-2.57-1.62-.71-.74-1.27-1.61-1.62-2.57-.38-.95-.57-1.91-.67-3.43l-.1-5.91.1-5.91c.1-1.53.29-2.57.67-3.43.38-.95.86-1.72,1.62-2.57.76-.76,1.62-1.24,2.57-1.62.95-.38,1.91-.57,3.43-.67l5.91-.1,5.91.1c1.53.1,2.57.29,3.43.67.95.38,1.72.86,2.57,1.62.76.76,1.24,1.62,1.62,2.57.38.95.57,1.91.67,3.43l.1,5.91-.1,5.91Z"/>
  </g>
</svg>