<?xml version="1.0" encoding="UTF-8"?>
<svg id="_レイヤー_2" data-name="レイヤー 2" xmlns="http://www.w3.org/2000/svg" viewBox="0 0 134.3 22.99">
  <defs>
    <style>
      .cls-1 {
        fill: #0c3b2c;
      }
    </style>
  </defs>
  <g id="_レイヤー_5" data-name="レイヤー 5">
    <g id="locations">
      <path class="cls-1" d="M9.05,9.17h6.6v.12c0,2.74-.82,4.97-2.38,6.48-1.66,1.61-3.62,2.04-5.45,2.04-2.33,0-3.98-.67-5.45-2.18-1.56-1.61-2.38-3.74-2.38-6.05,0-2.5,1.01-4.66,2.33-5.98,1.37-1.39,3.55-2.4,6.02-2.4,1.44,0,2.93.31,4.18,1.01,1.32.74,2.14,1.68,2.59,2.4l-1.94,1.37c-.48-.67-1.2-1.39-1.97-1.82-.89-.53-1.85-.7-2.83-.7-2.09,0-3.43.86-4.22,1.66-1.06,1.06-1.7,2.76-1.7,4.49,0,1.61.6,3.22,1.66,4.34,1.1,1.18,2.47,1.61,4.01,1.61,1.39,0,2.54-.41,3.58-1.42.89-.86,1.25-1.8,1.34-2.71h-3.98v-2.26Z"/>
      <path class="cls-1" d="M21.19,15.91l-4.32-8.52h2.83l2.88,5.9,2.93-5.9h2.64l-8.04,15.6h-2.64l3.72-7.08Z"/>
      <path class="cls-1" d="M29.71,7.39h2.35v.94c.79-.96,1.73-1.2,2.5-1.2,1.06,0,2.04.5,2.62,1.49.84-1.2,2.11-1.49,3-1.49,1.22,0,2.3.58,2.88,1.58.19.34.53,1.08.53,2.54v6.24h-2.35v-5.57c0-1.13-.12-1.58-.22-1.8-.14-.38-.5-.89-1.34-.89-.58,0-1.08.31-1.39.74-.41.58-.46,1.44-.46,2.3v5.21h-2.35v-5.57c0-1.13-.12-1.58-.22-1.8-.14-.38-.5-.89-1.34-.89-.58,0-1.08.31-1.39.74-.41.58-.46,1.44-.46,2.3v5.21h-2.35V7.39Z"/>
      <path class="cls-1" d="M54.36,0v17.5h-2.35V0h2.35Z"/>
      <path class="cls-1" d="M67.54,12.46c0,3.1-2.35,5.35-5.4,5.35s-5.4-2.26-5.4-5.35,2.35-5.33,5.4-5.33,5.4,2.21,5.4,5.33ZM65.13,12.48c0-2.3-1.51-3.24-3-3.24s-3,.94-3,3.24c0,1.94,1.15,3.22,3,3.22s3-1.27,3-3.22Z"/>
      <path class="cls-1" d="M77.74,10.49c-1.08-1.06-2.14-1.25-2.86-1.25-1.1,0-1.8.46-2.23.89-.43.43-.86,1.2-.86,2.33s.46,1.97.91,2.42c.53.5,1.27.82,2.14.82.96,0,2.09-.38,2.9-1.3v2.62c-.58.36-1.51.79-3.07.79-1.68,0-2.88-.48-3.84-1.49-.72-.74-1.44-1.94-1.44-3.79s.79-3.17,1.54-3.91c.79-.79,2.06-1.49,4.06-1.49.77,0,1.68.12,2.76.72v2.64Z"/>
      <path class="cls-1" d="M87.31,7.39h2.35v10.1h-2.35v-1.06c-1.03,1.2-2.3,1.37-3.02,1.37-3.12,0-4.9-2.59-4.9-5.38,0-3.29,2.26-5.3,4.92-5.3.74,0,2.04.19,3,1.44v-1.18ZM81.79,12.48c0,1.75,1.1,3.22,2.81,3.22,1.49,0,2.86-1.08,2.86-3.19s-1.37-3.26-2.86-3.26c-1.7,0-2.81,1.44-2.81,3.24Z"/>
      <path class="cls-1" d="M94.99,9.55v7.94h-2.35v-7.94h-.98v-2.16h.98v-3.7h2.35v3.7h1.8v2.16h-1.8Z"/>
      <path class="cls-1" d="M99.48,1.7c.86,0,1.51.65,1.51,1.51s-.65,1.51-1.51,1.51-1.51-.65-1.51-1.51.65-1.51,1.51-1.51ZM100.65,7.39v10.1h-2.35V7.39h2.35Z"/>
      <path class="cls-1" d="M113.83,12.46c0,3.1-2.35,5.35-5.4,5.35s-5.4-2.26-5.4-5.35,2.35-5.33,5.4-5.33,5.4,2.21,5.4,5.33ZM111.43,12.48c0-2.3-1.51-3.24-3-3.24s-3,.94-3,3.24c0,1.94,1.15,3.22,3,3.22s3-1.27,3-3.22Z"/>
      <path class="cls-1" d="M116.18,7.39h2.35v.94c1.01-1.13,2.16-1.2,2.74-1.2,1.87,0,2.66.94,2.98,1.37.38.55.62,1.25.62,2.81v6.19h-2.35v-5.62c0-2.57-.96-2.64-1.85-2.64-1.06,0-2.14.14-2.14,3.41v4.85h-2.35V7.39Z"/>
      <path class="cls-1" d="M132.19,10.06c-.24-.38-.7-.86-1.44-.86-.34,0-.58.12-.72.26-.12.12-.22.31-.22.53,0,.26.12.43.34.58.14.1.29.14.79.41l1.2.6c.53.26,1.03.53,1.42.94.55.55.74,1.18.74,1.87,0,.91-.34,1.7-.89,2.3-.79.86-1.78,1.13-2.83,1.13-.65,0-1.46-.1-2.18-.65-.58-.43-1.06-1.13-1.3-1.85l1.92-.91c.12.34.34.77.55.96.14.14.48.38,1.03.38.36,0,.74-.12.96-.34.19-.19.34-.5.34-.79s-.1-.53-.31-.77c-.29-.29-.62-.46-1.01-.62l-.86-.41c-.46-.22-1.01-.48-1.39-.86-.53-.5-.72-1.06-.72-1.7,0-.82.31-1.61.84-2.16.46-.48,1.22-.96,2.47-.96.72,0,1.3.14,1.87.53.34.22.79.6,1.15,1.25l-1.75,1.15Z"/>
    </g>
  </g>
</svg>