<?xml version="1.0" encoding="UTF-8"?>
<svg id="_レイヤー_2" data-name="レイヤー 2" xmlns="http://www.w3.org/2000/svg" viewBox="0 0 180.81 46.82">
  <defs>
    <style>
      .cls-1 {
        fill: #0c3b2c;
      }
    </style>
  </defs>
  <g id="_レイヤー_5" data-name="レイヤー 5">
    <g>
      <g id="one-on-one">
        <path class="cls-1" d="M48.72,8.3c0,4.7-3.53,8.3-8.33,8.3s-8.33-3.6-8.33-8.3S35.59,0,40.39,0s8.33,3.6,8.33,8.3ZM46.27,8.3c0-3.55-2.45-6.05-5.88-6.05s-5.88,2.5-5.88,6.05,2.45,6.05,5.88,6.05,5.88-2.5,5.88-6.05Z"/>
        <path class="cls-1" d="M51.26,6.19h2.35v.94c1.01-1.13,2.16-1.2,2.74-1.2,1.87,0,2.66.94,2.98,1.37.38.55.62,1.25.62,2.81v6.19h-2.35v-5.62c0-2.57-.96-2.64-1.85-2.64-1.06,0-2.14.14-2.14,3.41v4.85h-2.35V6.19Z"/>
        <path class="cls-1" d="M71.9,13.99c-.43.77-1.06,1.44-1.7,1.85-.82.53-1.9.77-2.98.77-1.34,0-2.45-.34-3.41-1.3s-1.49-2.35-1.49-3.86.55-3.07,1.61-4.15c.84-.84,1.94-1.37,3.38-1.37,1.61,0,2.64.7,3.24,1.32,1.3,1.34,1.42,3.22,1.42,4.27v.29h-7.25c.05.72.36,1.54.86,2.04.55.55,1.22.65,1.8.65.65,0,1.13-.14,1.61-.5.41-.31.72-.72.94-1.1l1.97,1.1ZM69.58,9.89c-.1-.55-.36-1.03-.72-1.37-.31-.29-.82-.58-1.58-.58-.82,0-1.34.34-1.66.65-.34.31-.6.79-.72,1.3h4.68Z"/>
        <path class="cls-1" d="M75.31,9.96h5.76v2.45h-5.76v-2.45Z"/>
        <path class="cls-1" d="M93.96,11.26c0,3.1-2.35,5.35-5.4,5.35s-5.4-2.26-5.4-5.35,2.35-5.33,5.4-5.33,5.4,2.21,5.4,5.33ZM91.56,11.28c0-2.3-1.51-3.24-3-3.24s-3,.94-3,3.24c0,1.94,1.15,3.22,3,3.22s3-1.27,3-3.22Z"/>
        <path class="cls-1" d="M96.31,6.19h2.35v.94c1.01-1.13,2.16-1.2,2.74-1.2,1.87,0,2.66.94,2.98,1.37.38.55.62,1.25.62,2.81v6.19h-2.35v-5.62c0-2.57-.96-2.64-1.85-2.64-1.06,0-2.14.14-2.14,3.41v4.85h-2.35V6.19Z"/>
        <path class="cls-1" d="M107.61,9.96h5.76v2.45h-5.76v-2.45Z"/>
        <path class="cls-1" d="M126.26,11.26c0,3.1-2.35,5.35-5.4,5.35s-5.4-2.26-5.4-5.35,2.35-5.33,5.4-5.33,5.4,2.21,5.4,5.33ZM123.86,11.28c0-2.3-1.51-3.24-3-3.24s-3,.94-3,3.24c0,1.94,1.15,3.22,3,3.22s3-1.27,3-3.22Z"/>
        <path class="cls-1" d="M128.61,6.19h2.35v.94c1.01-1.13,2.16-1.2,2.74-1.2,1.87,0,2.66.94,2.98,1.37.38.55.62,1.25.62,2.81v6.19h-2.35v-5.62c0-2.57-.96-2.64-1.85-2.64-1.06,0-2.14.14-2.14,3.41v4.85h-2.35V6.19Z"/>
        <path class="cls-1" d="M149.25,13.99c-.43.77-1.06,1.44-1.7,1.85-.82.53-1.9.77-2.98.77-1.34,0-2.45-.34-3.41-1.3s-1.49-2.35-1.49-3.86.55-3.07,1.61-4.15c.84-.84,1.94-1.37,3.38-1.37,1.61,0,2.64.7,3.24,1.32,1.3,1.34,1.42,3.22,1.42,4.27v.29h-7.25c.05.72.36,1.54.86,2.04.55.55,1.22.65,1.8.65.65,0,1.13-.14,1.61-.5.41-.31.72-.72.94-1.1l1.97,1.1ZM146.93,9.89c-.1-.55-.36-1.03-.72-1.37-.31-.29-.82-.58-1.58-.58-.82,0-1.34.34-1.66.65-.34.31-.6.79-.72,1.3h4.68Z"/>
      </g>
      <g id="training">
        <path class="cls-1" d="M3.34,33.35v7.94H.98v-7.94h-.98v-2.16h.98v-3.7h2.35v3.7h1.8v2.16h-1.8Z"/>
        <path class="cls-1" d="M6.65,31.19h2.35v.91c.26-.31.65-.65.98-.84.46-.26.91-.34,1.44-.34.58,0,1.2.1,1.85.48l-.96,2.14c-.53-.34-.96-.36-1.2-.36-.5,0-1.01.07-1.46.55-.65.7-.65,1.66-.65,2.33v5.23h-2.35v-10.1Z"/>
        <path class="cls-1" d="M21.43,31.19h2.35v10.1h-2.35v-1.06c-1.03,1.2-2.3,1.37-3.02,1.37-3.12,0-4.9-2.59-4.9-5.38,0-3.29,2.26-5.3,4.92-5.3.74,0,2.04.19,3,1.44v-1.18ZM15.91,36.28c0,1.75,1.1,3.22,2.81,3.22,1.49,0,2.86-1.08,2.86-3.19s-1.37-3.26-2.86-3.26c-1.7,0-2.81,1.44-2.81,3.24Z"/>
        <path class="cls-1" d="M27.86,25.5c.86,0,1.51.65,1.51,1.51s-.65,1.51-1.51,1.51-1.51-.65-1.51-1.51.65-1.51,1.51-1.51ZM29.04,31.19v10.1h-2.35v-10.1h2.35Z"/>
        <path class="cls-1" d="M31.92,31.19h2.35v.94c1.01-1.13,2.16-1.2,2.74-1.2,1.87,0,2.66.94,2.98,1.37.38.55.62,1.25.62,2.81v6.19h-2.35v-5.62c0-2.57-.96-2.64-1.85-2.64-1.06,0-2.14.14-2.14,3.41v4.85h-2.35v-10.1Z"/>
        <path class="cls-1" d="M44.69,25.5c.86,0,1.51.65,1.51,1.51s-.65,1.51-1.51,1.51-1.51-.65-1.51-1.51.65-1.51,1.51-1.51ZM45.86,31.19v10.1h-2.35v-10.1h2.35Z"/>
        <path class="cls-1" d="M48.74,31.19h2.35v.94c1.01-1.13,2.16-1.2,2.74-1.2,1.87,0,2.66.94,2.98,1.37.38.55.62,1.25.62,2.81v6.19h-2.35v-5.62c0-2.57-.96-2.64-1.85-2.64-1.06,0-2.14.14-2.14,3.41v4.85h-2.35v-10.1Z"/>
        <path class="cls-1" d="M67.73,31.19h2.35v9.29c0,2.38-.26,4.08-1.66,5.26-.65.53-1.7,1.08-3.36,1.08-1.18,0-2.35-.29-3.31-1.25-.74-.74-1.32-1.92-1.49-3.14h2.28c.1.55.38,1.2.74,1.58.29.31.86.7,1.82.7s1.56-.38,1.85-.67c.77-.74.77-1.8.77-2.54v-1.32c-1.08,1.37-2.4,1.44-3.07,1.44-1.3,0-2.38-.36-3.34-1.37-.91-.96-1.51-2.33-1.51-4.01,0-1.85.7-3.12,1.49-3.91,1.01-1.03,2.21-1.39,3.43-1.39,1.01,0,2.14.34,3,1.37v-1.1ZM63.24,33.71c-.6.55-1.03,1.49-1.03,2.57,0,1.01.38,1.99,1.01,2.54.43.38,1.08.67,1.8.67s1.39-.22,1.97-.82c.7-.74.89-1.61.89-2.38,0-1.13-.36-1.97-.96-2.54-.58-.58-1.22-.72-1.9-.72s-1.25.17-1.78.67Z"/>
        <path class="cls-1" d="M87.55,38.99c-.43.77-1.06,1.44-1.7,1.85-.82.53-1.9.77-2.98.77-1.34,0-2.45-.34-3.41-1.3s-1.49-2.35-1.49-3.86.55-3.07,1.61-4.15c.84-.84,1.94-1.37,3.38-1.37,1.61,0,2.64.7,3.24,1.32,1.3,1.34,1.42,3.22,1.42,4.27v.29h-7.25c.05.72.36,1.54.86,2.04.55.55,1.22.65,1.8.65.65,0,1.13-.14,1.61-.5.41-.31.72-.72.94-1.1l1.97,1.1ZM85.22,34.89c-.1-.55-.36-1.03-.72-1.37-.31-.29-.82-.58-1.58-.58-.82,0-1.34.34-1.66.65-.34.31-.6.79-.72,1.3h4.68Z"/>
        <path class="cls-1" d="M92.61,35.82l-3.6-4.63h2.78l2.23,2.95,2.26-2.95h2.88l-3.72,4.63,4.32,5.47h-2.83l-2.9-3.77-3,3.77h-2.88l4.46-5.47Z"/>
        <path class="cls-1" d="M103.68,46.79h-2.35v-15.6h2.35v1.1c.86-1.03,1.99-1.37,3-1.37,2.66,0,4.92,2.04,4.92,5.26,0,3.41-2.5,5.42-4.9,5.42-.55,0-1.97-.19-3.02-1.49v6.67ZM103.53,36.3c0,2.11,1.37,3.19,2.86,3.19,1.7,0,2.81-1.46,2.81-3.22s-1.1-3.24-2.81-3.24c-1.49,0-2.86,1.06-2.86,3.26Z"/>
        <path class="cls-1" d="M123.02,38.99c-.43.77-1.06,1.44-1.7,1.85-.82.53-1.9.77-2.98.77-1.34,0-2.45-.34-3.41-1.3s-1.49-2.35-1.49-3.86.55-3.07,1.61-4.15c.84-.84,1.94-1.37,3.38-1.37,1.61,0,2.64.7,3.24,1.32,1.3,1.34,1.42,3.22,1.42,4.27v.29h-7.25c.05.72.36,1.54.86,2.04.55.55,1.22.65,1.8.65.65,0,1.13-.14,1.61-.5.41-.31.72-.72.94-1.1l1.97,1.1ZM120.69,34.89c-.1-.55-.36-1.03-.72-1.37-.31-.29-.82-.58-1.58-.58-.82,0-1.34.34-1.66.65-.34.31-.6.79-.72,1.3h4.68Z"/>
        <path class="cls-1" d="M125.47,31.19h2.35v.91c.26-.31.65-.65.98-.84.46-.26.91-.34,1.44-.34.58,0,1.2.1,1.85.48l-.96,2.14c-.53-.34-.96-.36-1.2-.36-.5,0-1.01.07-1.46.55-.65.7-.65,1.66-.65,2.33v5.23h-2.35v-10.1Z"/>
        <path class="cls-1" d="M134.54,25.5c.86,0,1.51.65,1.51,1.51s-.65,1.51-1.51,1.51-1.51-.65-1.51-1.51.65-1.51,1.51-1.51ZM135.72,31.19v10.1h-2.35v-10.1h2.35Z"/>
        <path class="cls-1" d="M147.67,38.99c-.43.77-1.06,1.44-1.7,1.85-.82.53-1.9.77-2.98.77-1.34,0-2.45-.34-3.41-1.3s-1.49-2.35-1.49-3.86.55-3.07,1.61-4.15c.84-.84,1.94-1.37,3.38-1.37,1.61,0,2.64.7,3.24,1.32,1.3,1.34,1.42,3.22,1.42,4.27v.29h-7.25c.05.72.36,1.54.86,2.04.55.55,1.22.65,1.8.65.65,0,1.13-.14,1.61-.5.41-.31.72-.72.94-1.1l1.97,1.1ZM145.34,34.89c-.1-.55-.36-1.03-.72-1.37-.31-.29-.82-.58-1.58-.58-.82,0-1.34.34-1.66.65-.34.31-.6.79-.72,1.3h4.68Z"/>
        <path class="cls-1" d="M150.09,31.19h2.35v.94c1.01-1.13,2.16-1.2,2.74-1.2,1.87,0,2.66.94,2.98,1.37.38.55.62,1.25.62,2.81v6.19h-2.35v-5.62c0-2.57-.96-2.64-1.85-2.64-1.06,0-2.14.14-2.14,3.41v4.85h-2.35v-10.1Z"/>
        <path class="cls-1" d="M169.51,34.29c-1.08-1.06-2.14-1.25-2.86-1.25-1.1,0-1.8.46-2.23.89-.43.43-.86,1.2-.86,2.33s.46,1.97.91,2.42c.53.5,1.27.82,2.14.82.96,0,2.09-.38,2.9-1.3v2.62c-.58.36-1.51.79-3.07.79-1.68,0-2.88-.48-3.84-1.49-.72-.74-1.44-1.94-1.44-3.79s.79-3.17,1.54-3.91c.79-.79,2.06-1.49,4.06-1.49.77,0,1.68.12,2.76.72v2.64Z"/>
        <path class="cls-1" d="M180.74,38.99c-.43.77-1.06,1.44-1.7,1.85-.82.53-1.9.77-2.98.77-1.34,0-2.45-.34-3.41-1.3s-1.49-2.35-1.49-3.86.55-3.07,1.61-4.15c.84-.84,1.94-1.37,3.38-1.37,1.61,0,2.64.7,3.24,1.32,1.3,1.34,1.42,3.22,1.42,4.27v.29h-7.25c.05.72.36,1.54.86,2.04.55.55,1.22.65,1.8.65.65,0,1.13-.14,1.61-.5.41-.31.72-.72.94-1.1l1.97,1.1ZM178.41,34.89c-.1-.55-.36-1.03-.72-1.37-.31-.29-.82-.58-1.58-.58-.82,0-1.34.34-1.66.65-.34.31-.6.79-.72,1.3h4.68Z"/>
      </g>
    </g>
  </g>
</svg>