<?xml version="1.0" encoding="UTF-8"?>
<svg id="_レイヤー_2" data-name="レイヤー 2" xmlns="http://www.w3.org/2000/svg" viewBox="0 0 188.93 18.53">
  <defs>
    <style>
      .cls-1 {
        fill: #0c3b2c;
      }
    </style>
  </defs>
  <g id="_レイヤー_5" data-name="レイヤー 5">
    <g id="what">
      <path class="cls-1" d="M2.64,1.49l4.22,10.7L11.19.72l4.18,11.47L19.73,1.49h2.64l-7.15,17.04-4.18-11.35-4.22,11.35L0,1.49h2.64Z"/>
      <path class="cls-1" d="M23.88,0h2.35v8.26c1.01-1.03,2.11-1.13,2.71-1.13,1.85,0,2.69.96,2.98,1.37.62.91.65,2.09.65,2.81v6.19h-2.35v-5.98c0-.6,0-1.25-.46-1.75-.26-.29-.72-.53-1.32-.53-.79,0-1.42.38-1.73.84-.34.48-.48,1.25-.48,2.54v4.87h-2.35V0Z"/>
      <path class="cls-1" d="M42.38,7.39h2.35v10.1h-2.35v-1.06c-1.03,1.2-2.3,1.37-3.02,1.37-3.12,0-4.9-2.59-4.9-5.38,0-3.29,2.26-5.3,4.92-5.3.74,0,2.04.19,3,1.44v-1.18ZM36.86,12.48c0,1.75,1.1,3.22,2.81,3.22,1.49,0,2.86-1.08,2.86-3.19s-1.37-3.26-2.86-3.26c-1.7,0-2.81,1.44-2.81,3.24Z"/>
      <path class="cls-1" d="M50.06,9.55v7.94h-2.35v-7.94h-.98v-2.16h.98v-3.7h2.35v3.7h1.8v2.16h-1.8Z"/>
      <path class="cls-1" d="M55.42.67l2.11.82-2.98,5.93-1.58-.65,2.45-6.1Z"/>
      <path class="cls-1" d="M63.05,10.06c-.24-.38-.7-.86-1.44-.86-.34,0-.58.12-.72.26-.12.12-.22.31-.22.53,0,.26.12.43.34.58.14.1.29.14.79.41l1.2.6c.53.26,1.03.53,1.42.94.55.55.74,1.18.74,1.87,0,.91-.34,1.7-.89,2.3-.79.86-1.78,1.13-2.83,1.13-.65,0-1.46-.1-2.18-.65-.58-.43-1.06-1.13-1.3-1.85l1.92-.91c.12.34.34.77.55.96.14.14.48.38,1.03.38.36,0,.74-.12.96-.34.19-.19.34-.5.34-.79s-.1-.53-.31-.77c-.29-.29-.62-.46-1.01-.62l-.86-.41c-.46-.22-1.01-.48-1.39-.86-.53-.5-.72-1.06-.72-1.7,0-.82.31-1.61.84-2.16.46-.48,1.22-.96,2.47-.96.72,0,1.3.14,1.87.53.34.22.79.6,1.15,1.25l-1.75,1.15Z"/>
      <path class="cls-1" d="M81.17,3.79h-5.57v4.06h5.38v2.3h-5.38v7.34h-2.45V1.49h8.02v2.3Z"/>
      <path class="cls-1" d="M86.33,1.49v16.01h-2.45V1.49h2.45Z"/>
      <path class="cls-1" d="M94.54,3.79v13.71h-2.45V3.79h-3.67V1.49h9.79v2.3h-3.67Z"/>
      <path class="cls-1" d="M100.29,17.5V.41l11.62,12.17V1.49h2.45v16.99l-11.62-12.17v11.18h-2.45Z"/>
      <path class="cls-1" d="M126,3.79h-6.38v4.06h6.19v2.3h-6.19v5.04h6.38v2.3h-8.83V1.49h8.83v2.3Z"/>
      <path class="cls-1" d="M136.01,5.04c-.14-.36-.36-.7-.72-1.01-.5-.41-1.03-.58-1.73-.58-1.49,0-2.26.89-2.26,1.92,0,.48.17,1.32,1.73,1.94l1.61.65c2.95,1.2,3.77,2.88,3.77,4.7,0,3.05-2.16,5.14-5.16,5.14-1.85,0-2.95-.7-3.77-1.61-.86-.96-1.25-2.02-1.34-3.12l2.42-.53c0,.79.29,1.54.67,2.04.46.58,1.13.96,2.09.96,1.49,0,2.64-1.08,2.64-2.69s-1.25-2.3-2.3-2.74l-1.54-.65c-1.32-.55-3.26-1.66-3.26-4.06,0-2.16,1.68-4.22,4.68-4.22,1.73,0,2.71.65,3.22,1.08.43.38.89.94,1.22,1.61l-1.97,1.15Z"/>
      <path class="cls-1" d="M147.82,5.04c-.14-.36-.36-.7-.72-1.01-.5-.41-1.03-.58-1.73-.58-1.49,0-2.26.89-2.26,1.92,0,.48.17,1.32,1.73,1.94l1.61.65c2.95,1.2,3.77,2.88,3.77,4.7,0,3.05-2.16,5.14-5.16,5.14-1.85,0-2.95-.7-3.77-1.61-.86-.96-1.25-2.02-1.34-3.12l2.42-.53c0,.79.29,1.54.67,2.04.46.58,1.13.96,2.09.96,1.49,0,2.64-1.08,2.64-2.69s-1.25-2.3-2.3-2.74l-1.54-.65c-1.32-.55-3.26-1.66-3.26-4.06,0-2.16,1.68-4.22,4.68-4.22,1.73,0,2.71.65,3.22,1.08.43.38.89.94,1.22,1.61l-1.97,1.15Z"/>
      <path class="cls-1" d="M162.86,17.5h-10.75l5.54-6.72c.55-.67,1.39-1.73,1.92-2.5.46-.67.84-1.37.84-2.3,0-1.34-.89-2.59-2.66-2.59s-2.74,1.39-2.83,2.9h-2.35c.07-1.56.72-2.81,1.34-3.5.58-.65,1.73-1.56,3.74-1.56,3.41,0,5.16,2.33,5.16,4.82,0,1.32-.5,2.4-1.15,3.36-.58.86-1.32,1.75-2.28,2.88l-2.5,2.95h5.98v2.26Z"/>
      <path class="cls-1" d="M173.95,12.22h1.73v2.26h-1.73v3.02h-2.35v-3.02h-7.92L173.95.31v11.91ZM171.6,12.27v-5.16l-3.65,5.16h3.65Z"/>
      <path class="cls-1" d="M185.91,4.36c-.26-.42-.63-.74-1.1-.96-.47-.22-1.04-.34-1.72-.34-.77,0-1.46.18-2.06.54s-1.11.86-1.51,1.5l-1.92-1.42c.45-.59.93-1.11,1.45-1.55.52-.44,1.13-.78,1.82-1.02.7-.24,1.52-.36,2.46-.36.77,0,1.49.12,2.16.37.67.25,1.27.6,1.79,1.06.52.46.92,1,1.21,1.62s.43,1.32.43,2.09c0,.93-.24,1.76-.73,2.5-.49.74-1.12,1.33-1.88,1.79-.77.46-1.6.72-2.5.8l-.14,2.54h-2.04l-.48-4.25h.7c.96,0,1.77-.17,2.44-.52.66-.34,1.17-.78,1.51-1.3.34-.52.52-1.04.52-1.57,0-.61-.13-1.12-.4-1.54ZM181.5,15.63c.33-.31.72-.47,1.19-.47.5,0,.9.16,1.22.47.32.31.48.69.48,1.14,0,.42-.16.78-.48,1.1-.32.32-.73.48-1.22.48-.46,0-.86-.16-1.19-.48-.33-.32-.49-.69-.49-1.1,0-.45.16-.83.49-1.14Z"/>
    </g>
  </g>
</svg>