<svg xmlns="http://www.w3.org/2000/svg" xmlns:xlink="http://www.w3.org/1999/xlink" width="77.284" height="208.073" viewBox="0 0 77.284 208.073">
  <defs>
    <clipPath id="clip-path">
      <rect id="長方形_122" data-name="長方形 122" width="77.284" height="208.073" transform="translate(507.284 691.835) rotate(-180)" fill="none"/>
    </clipPath>
  </defs>
  <g id="グループ_342" data-name="グループ 342" transform="translate(-430 -483.762)">
    <g id="グループ_338" data-name="グループ 338">
      <g id="グループ_337" data-name="グループ 337" clip-path="url(#clip-path)">
        <rect id="長方形_121" data-name="長方形 121" width="74.906" height="152.435" rx="14.4" transform="translate(406.03 494.777)" fill="#ee780c"/>
      </g>
    </g>
    <g id="グループ_339" data-name="グループ 339">
      <path id="パス_2304" data-name="パス 2304" d="M462.354,537.777l-12.245-3.136V532.7l5.907-1.328a34.973,34.973,0,0,1,3.969-.7v-.049a38.12,38.12,0,0,1-3.969-.832l-5.907-1.456v-1.953l12.245-2.865v1.968l-5.827,1.217c-1.5.3-3.008.576-4.273.784v.033c1.312.191,2.753.544,4.306.9l5.794,1.393v1.856l-5.827,1.28c-1.44.3-2.848.593-4.257.769v.048c1.441.208,2.817.5,4.306.816l5.778,1.313Z" fill="#0c3b2c"/>
      <path id="パス_2305" data-name="パス 2305" d="M450.109,547.215V540.54h12.245v6.4H460.8V542.4h-3.537v4.29h-1.536V542.4h-4.066v4.818Z" fill="#0c3b2c"/>
      <path id="パス_2306" data-name="パス 2306" d="M456.672,555.6a3.08,3.08,0,0,1-3.058,2.448,3.213,3.213,0,0,1-2.465-1.056c-.784-.816-1.152-2.161-1.152-4.177a19.849,19.849,0,0,1,.144-2.434h12.052a15.187,15.187,0,0,1,.257,2.865c0,3.73-1.825,4.37-3.057,4.37a2.866,2.866,0,0,1-2.673-2.016Zm-5.187-3.378a7.04,7.04,0,0,0-.063,1.121c0,1.488.624,2.768,2.24,2.768s2.209-1.392,2.209-2.817v-1.072Zm5.763,1.136c0,1.473.816,2.4,1.953,2.4,1.473,0,1.84-1.185,1.84-2.338a5.838,5.838,0,0,0-.1-1.2h-3.7Z" fill="#0c3b2c"/>
      <path id="パス_2307" data-name="パス 2307" d="M458.039,573.48l-.24,1.05a19.514,19.514,0,0,1-4.35-3.615l.75-1.17a16.554,16.554,0,0,0,2.46,2.266V568.53a.409.409,0,0,1-.165-.314h-5.235c-1.53,0-1.605-.811-1.605-3.675a5.931,5.931,0,0,0,1.366-.54c-.016.585-.031,1.2-.031,1.664,0,1.006,0,1.065.315,1.065h5.355v-6.014h1.364v7.47a27.9,27.9,0,0,0,1.861-4.156l.99.976c-.27.84-.645,1.8-1.051,2.729a16.963,16.963,0,0,0,1.681,2.326v-7.906h1.319v9.361l.091.269-.81,1.26a.478.478,0,0,1-.18-.345,24.726,24.726,0,0,1-2.776-3.554,14.408,14.408,0,0,1-.734,1.274l-.391-.359v3.1Z" fill="#0c3b2c"/>
      <path id="パス_2308" data-name="パス 2308" d="M461.323,582.525c-.1-.059-.149-.179-.149-.375a38.356,38.356,0,0,1-4.111-3.134l.045,2.415c.436-.255.871-.54,1.261-.81.239.449.375.734.525,1.02a12.688,12.688,0,0,1-3.09,1.8c-.27-.464-.435-.779-.6-1.094a5.933,5.933,0,0,0,.825-.345l-.091-1.41h-6.284v-1.32h6.225c-.045-.825-.09-1.575-.106-2.175a.272.272,0,0,1-.21-.241l1.471-.314.015,1.095c.345.315.734.645,1.155.96a13.5,13.5,0,0,0,1.994-1.95l.946.675c-.105.119-.21.255-.316.39a18.9,18.9,0,0,0,2.881,1.5l-.615,1.47a.374.374,0,0,1-.135-.375,24.177,24.177,0,0,1-2.851-1.77,10.387,10.387,0,0,1-.884.824,31.182,31.182,0,0,0,2.759,1.741Zm-.389,7.066-.06.75c-.1,0-.3-.016-.466-.016-6.9-.21-9.239-.42-10-1.019-.63-.481-.75-.96-.75-2.3,0-.436.015-.931.045-1.41a2.947,2.947,0,0,0,1.35-.451c-.075.991-.075,1.89-.075,2.265a.774.774,0,0,0,.24.66c.5.45,2.745.675,8.354.856v-4.215a12.258,12.258,0,0,1-2.25-1.26,8.247,8.247,0,0,0,.8-1.17,15.771,15.771,0,0,0,5.6,2.295l-.436,1.725a.35.35,0,0,1-.179-.375,20.284,20.284,0,0,1-2.175-.675v4.019Zm-6.36-10.635c-.105-.045-.165-.135-.15-.315a13.034,13.034,0,0,1-3.6-1.08,5.861,5.861,0,0,0,.525-1.065,11.9,11.9,0,0,0,3.585.975Zm-3.03,3.074a16.3,16.3,0,0,0,3.045-1.05l.375,1.111a16.419,16.419,0,0,1-2.97,1.125ZM457.529,585a14.778,14.778,0,0,1-3.45,2.069l-.66-1.245a14.831,14.831,0,0,0,3.54-1.965Z" fill="#0c3b2c"/>
    </g>
    <g id="グループ_341" data-name="グループ 341">
      <circle id="楕円形_46" data-name="楕円形 46" cx="9" cy="9" r="9" transform="translate(447.545 602.824)" fill="#004639"/>
      <g id="グループ_340" data-name="グループ 340">
        <path id="パス_2309" data-name="パス 2309" d="M457.835,609.333l2.491,2.492-2.491,2.49" fill="none" stroke="#fff" stroke-linecap="round" stroke-linejoin="round" stroke-width="1.125"/>
        <line id="線_43" data-name="線 43" x1="7.562" transform="translate(452.764 611.825)" fill="none" stroke="#fff" stroke-linecap="round" stroke-linejoin="round" stroke-width="1.125"/>
      </g>
    </g>
  </g>
</svg>
