<?xml version="1.0" encoding="UTF-8"?>
<svg xmlns="http://www.w3.org/2000/svg" xmlns:xlink="http://www.w3.org/1999/xlink" viewBox="0 0 430 333.01">
  <defs>
    <style>
      .cls-1 {
        isolation: isolate;
      }

      .cls-2 {
        fill: none;
        stroke: #fff;
        stroke-miterlimit: 10;
        stroke-width: .67px;
      }

      .cls-3 {
        fill: #fff;
      }

      .cls-4 {
        fill: url(#_名称未設定グラデーション_15);
        mix-blend-mode: multiply;
      }
    </style>
    <linearGradient id="_名称未設定グラデーション_15" data-name="名称未設定グラデーション 15" x1="-1443.28" y1="16794.55" x2="-1443.28" y2="16945.56" gradientTransform="translate(1657.98 -37035.2) scale(1 2.21)" gradientUnits="userSpaceOnUse">
      <stop offset="0" stop-color="#231815" stop-opacity=".6"/>
      <stop offset=".52" stop-color="#7c7674" stop-opacity=".36"/>
      <stop offset="1" stop-color="#fff" stop-opacity="0"/>
    </linearGradient>
  </defs>
  <g class="cls-1">
    <g id="_レイヤー_2" data-name="レイヤー 2">
      <g id="_レイヤー_5" data-name="レイヤー 5">
        <g>
          <rect class="cls-4" x="0" y="0" width="430" height="333.01" transform="translate(430 333.01) rotate(-180)"/>
          <g>
            <g>
              <g>
                <g>
                  <path class="cls-3" d="M226.72,136.77c.83-1.18,2.18-1.83,3.31-2.64,1.13-.8,2.05-1.75,2.05-3.47,0-2.24-1.83-3.59-3.93-3.59-2.47,0-3.92,1.63-4.13,3.86h2.26c.16-.97.66-1.86,1.75-1.86,1,0,1.72.69,1.72,1.77-.01,1.41-1.39,2.11-2.41,2.8-1.98,1.34-3.6,2.47-3.62,5.13h8.42v-2h-5.42Z"/>
                  <path class="cls-3" d="M239.04,134.38v-7.07h-2.08l-5.28,7.07-.08.11v1.81h5.23v2.47h2.21v-2.47h1.52v-1.92h-1.52ZM234.27,134.38h-.14l2.7-3.61v3.61h-2.56Z"/>
                  <rect class="cls-3" x="146.92" y="127.18" width="4.36" height="19.04"/>
                  <polygon class="cls-3" points="152.6 127.18 152.6 131.23 157.36 131.23 157.36 146.22 161.72 146.22 161.72 131.23 166.48 131.23 166.48 127.18 152.6 127.18"/>
                  <polygon class="cls-3" points="195.9 131.23 195.9 127.18 184.08 127.18 184.08 146.22 195.9 146.22 195.9 142.17 188.43 142.17 188.43 138.23 194.58 138.23 194.58 134.33 188.43 134.33 188.43 131.23 195.9 131.23"/>
                  <polygon class="cls-3" points="177.42 127.18 177.42 137.15 173.51 127.18 167.8 127.18 167.8 146.22 172.01 146.22 172.01 134.1 176.76 146.22 181.63 146.22 181.63 127.18 177.42 127.18"/>
                  <path class="cls-3" d="M202.5,142.74c-2.05-.11-4.08-2.37-5.05-3.79v5.12c.61.68,1.24,1.2,1.87,1.56,1.01.58,2.23.87,3.64.87,1.81,0,3.29-.5,4.44-1.49,1.15-1,1.72-2.36,1.72-4.1,0-1.57-.39-2.83-1.17-3.76-.78-.93-2.14-1.82-4.07-2.67-.94-.42-1.58-.8-1.91-1.14-.33-.34-.5-.77-.5-1.28,0-.38.12-.7.37-.96,0,0,1.89-2.35,6.35,2.41v-4.48c-1.97-2.23-5.22-2.12-5.22-2.12-1.77,0-3.2.52-4.27,1.57-1.08,1.05-1.62,2.37-1.62,3.96,0,1.47.38,2.63,1.14,3.5.76.87,2.1,1.73,4.02,2.58,1.01.45,1.69.88,2.04,1.28,0,0,.98,1,.24,2.22-.45.75-1.74.74-2,.72"/>
                  <path class="cls-3" d="M215.52,142.73c-2.05-.11-4.08-2.37-5.05-3.79v5.12c.62.68,1.24,1.2,1.87,1.56,1.01.58,2.22.87,3.64.87,1.81,0,3.29-.5,4.44-1.49,1.15-.99,1.72-2.36,1.72-4.1,0-1.57-.39-2.83-1.17-3.76-.78-.93-2.14-1.82-4.07-2.67-.94-.42-1.58-.8-1.91-1.14-.33-.34-.5-.77-.5-1.28,0-.38.12-.7.37-.96,0,0,1.89-2.35,6.35,2.41v-4.48c-1.97-2.23-5.22-2.12-5.22-2.12-1.77,0-3.2.52-4.27,1.57-1.08,1.05-1.62,2.37-1.62,3.96,0,1.46.38,2.63,1.14,3.5.76.87,2.1,1.73,4.02,2.58,1.01.45,1.69.88,2.04,1.28,0,0,.98,1,.24,2.22-.45.75-1.74.74-2,.73"/>
                  <polygon class="cls-3" points="131.58 146.22 135.94 146.22 135.94 138.81 143.96 138.81 143.96 134.76 131.58 134.76 131.58 146.22"/>
                </g>
                <rect class="cls-3" x="131.58" y="127.18" width="13.88" height="4.05"/>
              </g>
              <rect class="cls-2" x="249.77" y="127.77" width="52.36" height="19.29" rx="9.65" ry="9.65"/>
              <g>
                <path class="cls-3" d="M261.96,133.34l-.52,2.8.03.03c.21-.24.48-.41.82-.53.33-.11.67-.17,1-.17.43,0,.84.07,1.22.21.38.14.72.35,1,.62.28.28.51.63.67,1.04.17.42.25.9.25,1.46,0,.41-.07.81-.21,1.2-.14.39-.35.73-.64,1.04-.28.3-.64.54-1.06.72-.43.18-.92.27-1.49.27-.42,0-.82-.06-1.19-.19-.37-.12-.7-.3-.98-.54-.28-.23-.51-.52-.67-.87-.16-.35-.25-.74-.26-1.18h1.17c.02.25.08.48.19.69.1.22.25.4.42.56.18.16.39.28.63.37.24.09.51.13.8.13.27,0,.54-.05.79-.14.25-.1.47-.24.66-.43.19-.19.34-.43.45-.72.11-.29.17-.62.17-1.01,0-.32-.05-.62-.16-.89-.11-.27-.25-.5-.45-.7-.19-.2-.42-.35-.69-.46-.27-.11-.57-.16-.9-.16-.38,0-.73.08-1.02.25-.3.17-.56.39-.79.67l-1-.05.91-5.05h4.81v1.03h-3.93Z"/>
                <path class="cls-3" d="M275.28,133.11h4.3v1.03h-8.5v1.9c0,1.8-.17,4.48-1.18,6.24-.19-.18-.67-.5-.92-.61.94-1.64,1.02-3.98,1.02-5.63v-2.93h4.16v-1.41l1.38.08c-.01.1-.08.16-.26.19v1.14ZM275.94,134.43c-.01.1-.09.16-.27.18v.97h3.74v.96h-3.74v1.47h3.02v4.26h-1.1v-.42h-4.59v.43h-1.05v-4.27h2.63v-3.66l1.36.08ZM277.6,140.9v-1.93h-4.59v1.93h4.59Z"/>
                <path class="cls-3" d="M292.32,134.23h-2.51v1.11h2.15v5.88c0,.98-.46,1.06-1.59,1.06-.03-.26-.16-.67-.29-.93.35.01.67.01.77.01.1-.01.15-.05.15-.16v-1.26h-1.18v2.24h-.98v-2.24h-1.1v2.33h-.94v-6.94h2.04v-1.11h-2.35v-.32l-.58.68c-.34-.47-1.04-1.15-1.72-1.7-.45.75-1.05,1.55-1.81,2.26h1.3v-1.1l1.24.07c-.01.09-.08.16-.26.18v.85h1.36v.86h-1.36v.9h1.76v.88h-4.59v-.88h1.84v-.9h-1.37v-.8l-.06.06c-.15-.23-.47-.59-.69-.73,1-.85,1.73-1.97,2.14-2.85l1.22.2c-.02.09-.11.16-.26.16h-.01c.68.51,1.41,1.15,1.83,1.65v-.42h2.35v-1.59l1.24.08c-.01.09-.09.15-.26.17v1.35h1.8c-.31-.33-.94-.78-1.46-1.09l.61-.51c.52.28,1.18.71,1.49,1.04l-.62.55h.69v.95ZM282.29,142.17v-3.72h3.81v3.52h-.97v-.36h-1.9v.57h-.94ZM285.13,139.33h-1.9v1.41h1.9v-1.41ZM288.83,136.25h-1.1v.96h1.1v-.96ZM287.73,139.07h1.1v-.98h-1.1v.98ZM290.99,136.25h-1.18v.96h1.18v-.96ZM289.81,139.07h1.18v-.98h-1.18v.98Z"/>
              </g>
            </g>
            <g>
              <g>
                <path class="cls-3" d="M147.43,175.45l-3.58-1.45c-2.51-1.01-3.79-2.43-3.79-4.24,0-2.89,2.48-4.18,4.93-4.18,1.56,0,2.7.38,3.79,1.26.73.63,1.23,1.33,1.58,2.21l.04.11,4.57-2.68-.04-.08c-.68-1.36-1.66-2.64-2.75-3.62-1.88-1.61-4.32-2.43-7.24-2.43-6.92,0-10.54,4.79-10.54,9.52,0,4.08,2.4,7.07,7.34,9.14l3.43,1.45c2.51,1.03,5.07,2.54,5.07,6.01s-2.43,5.89-5.78,5.89c-1.93,0-3.47-.71-4.57-2.1-.93-1.21-1.48-2.89-1.48-4.49v-.13l-5.61,1.22v.09c.24,2.72,1.23,5.02,3.03,7.02,2.21,2.47,4.9,3.62,8.48,3.62,6.83,0,11.61-4.75,11.61-11.55,0-4.87-2.69-8.24-8.46-10.58Z"/>
                <path class="cls-3" d="M177.09,162.94c-2.61-1.74-5.74-1.94-7.87-1.94h-7.97v35.89h5.66v-14.5h2.36c2.35,0,5.83-.29,8.79-2.81,2.9-2.48,3.51-5.66,3.51-7.89,0-3.63-1.68-6.9-4.49-8.75ZM166.92,166.23h2.31c6.01,0,6.91,3.39,6.91,5.41,0,3.51-2.5,5.52-6.85,5.52h-2.36v-10.93Z"/>
                <path class="cls-3" d="M206.67,171.59c0-1.69-.42-5.9-4.27-8.49-2.22-1.49-4.96-2.1-9.47-2.1h-6.47v35.89h5.66v-14.61h.81l10.22,14.61h6.84l-11.16-15.29c4.85-1.15,7.85-4.98,7.85-10.02ZM201.22,171.64c0,2.14-.97,5.73-7.5,5.73h-1.61v-11.14h1.77c4.87,0,7.34,1.82,7.34,5.41Z"/>
                <rect class="cls-3" x="213.91" y="161" width="5.66" height="35.89"/>
                <polygon class="cls-3" points="251.57 161 251.57 185.57 228.12 161 225.67 161 225.67 196.89 231.34 196.89 231.34 172.11 255 196.89 257.24 196.89 257.24 161 251.57 161"/>
                <path class="cls-3" d="M280.79,160.36c-1.68,0-3.35.23-4.95.64h10.18c-1.65-.42-3.4-.64-5.23-.64Z"/>
                <path class="cls-3" d="M279.61,197.59c1.97,0,3.77-.24,5.44-.7h-10.82c1.62.47,3.4.7,5.39.7Z"/>
                <path class="cls-3" d="M297.16,178.49v-.37h-14.92v5.23h8.87c-.26,2.27-1.23,4.2-2.95,5.87-2.18,2.13-4.7,3.13-7.9,3.13-3.72,0-6.62-1.16-8.86-3.55-2.33-2.49-3.67-5.99-3.67-9.62,0-3.8,1.44-7.61,3.77-9.93,1.67-1.67,4.65-3.66,9.35-3.66,2.51,0,4.5.49,6.26,1.54,1.54.87,3.17,2.38,4.35,4.04l.06.08,4.5-3.16-.05-.08c-.95-1.5-2.72-3.64-5.81-5.39-1.26-.7-2.65-1.24-4.13-1.62h-10.18c-3.3.84-6.33,2.47-8.55,4.74-3.27,3.27-5.22,8.28-5.22,13.4s1.89,10.02,5.33,13.56c2.02,2.09,4.23,3.46,6.83,4.2h10.82c2.6-.72,4.85-2,6.78-3.88,3.49-3.38,5.33-8.4,5.33-14.52Z"/>
              </g>
              <g>
                <path class="cls-3" d="M108.93,209.5c-5.45,0-9.57,1.49-12.97,4.68-2.63,2.49-5.76,6.94-5.76,14.04,0,5.5,1.88,9.93,5.76,13.56,2.38,2.26,6.52,4.95,12.7,4.95,1.99,0,5.92-.35,9.84-2.69l.05-.03v-6.77l-.17.16c-1.97,1.87-5.23,4.09-9.56,4.09-7.39,0-12.96-5.71-12.96-13.28,0-7.94,5.31-13.49,12.9-13.49,3.55,0,6.69,1.29,9.62,3.93l.17.15v-6.71l-.05-.03c-2.76-1.76-5.81-2.58-9.58-2.58Z"/>
                <path class="cls-3" d="M218.11,211.97c-2.61-1.74-5.74-1.94-7.87-1.94h-7.97v35.89h5.66v-14.5h2.36c2.35,0,5.83-.29,8.79-2.81,2.9-2.48,3.51-5.66,3.51-7.89,0-3.62-1.68-6.9-4.49-8.75ZM207.93,215.26h2.31c6.01,0,6.91,3.39,6.91,5.41,0,3.51-2.5,5.52-6.85,5.52h-2.36v-10.93Z"/>
                <rect class="cls-3" x="258.24" y="210.15" width="5.66" height="35.89"/>
                <path class="cls-3" d="M289.12,232.5h8.87c-.26,2.27-1.23,4.2-2.95,5.87-2.18,2.13-4.7,3.13-7.9,3.13-3.72,0-6.62-1.16-8.86-3.55-2.33-2.49-3.67-5.99-3.67-9.62,0-3.8,1.44-7.61,3.77-9.93,1.67-1.67,4.65-3.66,9.35-3.66,2.51,0,4.5.49,6.26,1.54,1.54.87,3.17,2.38,4.35,4.04l.06.08,4.5-3.16-.05-.08c-.95-1.5-2.72-3.64-5.81-5.39-2.65-1.48-5.89-2.26-9.36-2.26-5.14,0-10.19,2.01-13.5,5.38-3.27,3.27-5.22,8.28-5.22,13.4s1.89,10.01,5.33,13.56c3.28,3.39,7.05,4.9,12.22,4.9s9.05-1.5,12.22-4.58c3.49-3.38,5.33-8.4,5.33-14.52v-.37h-14.92v5.23Z"/>
                <path class="cls-3" d="M120.72,245.89l-.07.14h6.11l3.91-8.62h15.12l3.72,8.55.03.06h6.11l-16.07-35.89h-2.05l-16.81,35.75ZM133.01,232.08l5.35-11.74,5.14,11.74h-10.5Z"/>
                <polygon class="cls-3" points="190.82 245.95 190.83 246.04 196.6 246.04 190.3 210.15 188.47 210.15 177.22 235.04 166.07 210.15 164.2 210.15 157.19 246.04 162.96 246.04 166.67 224.72 176.1 246.04 177.71 246.04 187.23 224.77 190.82 245.95"/>
                <path class="cls-3" d="M219.71,246.04h6.11l3.91-8.62h15.12l3.72,8.55.03.06h6.11l-16.07-35.89h-2.05l-16.81,35.75-.07.14ZM237.42,220.34l5.14,11.74h-10.5l5.35-11.74Z"/>
                <polygon class="cls-3" points="334.07 210.15 334.07 234.71 310.61 210.15 308.17 210.15 308.17 246.04 313.83 246.04 313.83 221.26 337.49 246.04 339.73 246.04 339.73 210.15 334.07 210.15"/>
              </g>
            </g>
            <g>
              <g>
                <g>
                  <path class="cls-3" d="M149.1,281.73c.47-.55,3.54-4.06,4.49-5.47.71-1.06,1.54-2.68,1.54-4.21,0-2.36-1.69-3.98-3.9-3.98-2.68,0-4.1,2.13-4.17,4.37h-5.28c.24-5.36,4.02-8.78,9.22-8.78,6.1,0,9.25,4.17,9.25,8.35s-2.72,6.97-4.77,9.18l-4.53,4.92h9.49v4.41h-19.06l7.72-8.78Z"/>
                  <path class="cls-3" d="M168,284.88c1.73,0,3.07,1.34,3.07,3.07s-1.34,3.07-3.07,3.07-3.07-1.34-3.07-3.07,1.34-3.07,3.07-3.07Z"/>
                  <path class="cls-3" d="M182.57,281.73c.47-.55,3.54-4.06,4.49-5.47.71-1.06,1.54-2.68,1.54-4.21,0-2.36-1.69-3.98-3.9-3.98-2.68,0-4.1,2.13-4.17,4.37h-5.28c.24-5.36,4.02-8.78,9.22-8.78,6.1,0,9.25,4.17,9.25,8.35s-2.72,6.97-4.77,9.18l-4.53,4.92h9.49v4.41h-19.06l7.72-8.78Z"/>
                  <path class="cls-3" d="M202.35,268.65h-3.78v-4.41h8.9v26.27h-5.12v-21.86Z"/>
                  <path class="cls-3" d="M233.69,276.45h13.75v3.9h-13.75v-3.9Z"/>
                  <path class="cls-3" d="M256.67,271.1c.47-4.77,4.06-7.44,8.55-7.44,5.04,0,8.23,2.84,8.23,7.25,0,1.38-.28,3.98-3.03,5.51,1.06.43,4.02,1.93,4.02,6.26,0,5.4-4.17,8.43-9.37,8.43s-9.02-3.11-9.45-8.15h5.12c.31,2.17,1.85,3.74,4.37,3.74,2.95,0,4.21-2.17,4.21-4.17s-1.18-4.1-4.37-4.1h-.67v-3.7h.71c2.52,0,3.58-1.77,3.58-3.58,0-2.09-1.38-3.47-3.47-3.47-1.81,0-3.5,1.18-3.62,3.43h-4.8Z"/>
                  <path class="cls-3" d="M281.99,284.88c1.73,0,3.07,1.34,3.07,3.07s-1.34,3.07-3.07,3.07-3.07-1.34-3.07-3.07,1.34-3.07,3.07-3.07Z"/>
                  <path class="cls-3" d="M292.12,271.1c.47-4.77,4.06-7.44,8.55-7.44,5.04,0,8.23,2.84,8.23,7.25,0,1.38-.28,3.98-3.03,5.51,1.06.43,4.02,1.93,4.02,6.26,0,5.4-4.17,8.43-9.37,8.43s-9.02-3.11-9.45-8.15h5.12c.31,2.17,1.85,3.74,4.37,3.74,2.95,0,4.21-2.17,4.21-4.17s-1.18-4.1-4.37-4.1h-.67v-3.7h.71c2.52,0,3.58-1.77,3.58-3.58,0-2.09-1.38-3.47-3.47-3.47-1.81,0-3.5,1.18-3.62,3.43h-4.8Z"/>
                  <path class="cls-3" d="M318.31,268.65h-3.78v-4.41h8.9v26.27h-5.12v-21.86Z"/>
                </g>
                <g>
                  <path class="cls-3" d="M222.19,270.66c.31-.15.64-.41.85-.66.17-.22.39-.63.39-1.27,0-1.12-.7-1.9-1.75-1.9-.44,0-.69.12-.98.42-.34.34-.53.76-.71,1.19l-.48,1.08c-.29.66-.59,1.27-1.07,1.75-.58.58-1.24.81-2.05.81-2.08,0-3.47-1.54-3.47-3.58,0-.75.15-1.68.92-2.46.54-.56,1.32-.9,2-1.05l.34,1.22c-.59.08-1.1.36-1.44.68-.49.49-.63,1.05-.63,1.63,0,1.54,1.1,2.27,2.24,2.27.51,0,.95-.15,1.32-.56.31-.32.51-.76.78-1.36l.47-1.02c.2-.44.44-1,.93-1.51.47-.49,1-.78,1.85-.78,1.75,0,2.92,1.34,2.92,3.17,0,.69-.14,1.25-.51,1.81-.31.46-.76.85-1.25,1.1l-.66-1Z"/>
                  <path class="cls-3" d="M216.31,280.63v-4.81l-3.19-1.36v-1.39l11.85,5.2-11.85,5.07v-1.39l3.19-1.32ZM217.5,280.13l4.53-1.9-4.53-1.93v3.83Z"/>
                  <path class="cls-3" d="M223.24,287.71h-10.12v-1.25h10.12v-2.75h1.19v6.75h-1.19v-2.75Z"/>
                </g>
                <g>
                  <path class="cls-3" d="M338.66,268.49h-10.12v-1.25h10.12v-2.75h1.19v6.75h-1.19v-2.75Z"/>
                  <path class="cls-3" d="M332.92,274.18c-.95,0-1.98,0-2.75.9-.39.46-.64,1.24-.64,1.86s.25,1.41.64,1.86c.76.9,1.8.9,2.75.9h6.93v1.25h-7.27c-.95,0-1.87-.1-2.71-.71-.93-.68-1.53-1.86-1.53-3.31s.59-2.63,1.53-3.31c.85-.61,1.76-.71,2.71-.71h7.27v1.25h-6.93Z"/>
                  <path class="cls-3" d="M338.66,289.74v-4.61h-3.36v4.48h-1.19v-4.48h-4.39v4.61h-1.19v-5.87h11.31v5.87h-1.19Z"/>
                </g>
              </g>
              <g>
                <path class="cls-3" d="M99.43,291.04h-8.35l4.31-5.22c.43-.52,1.08-1.34,1.49-1.94.35-.52.65-1.06.65-1.79,0-1.04-.69-2.01-2.07-2.01s-2.12,1.08-2.2,2.26h-1.83c.06-1.21.56-2.18,1.04-2.72.45-.5,1.34-1.21,2.91-1.21,2.65,0,4.01,1.81,4.01,3.75,0,1.03-.39,1.86-.89,2.61-.45.67-1.03,1.36-1.77,2.24l-1.94,2.29h4.64v1.75Z"/>
                <path class="cls-3" d="M103.51,289.9c-1.3-1.49-1.58-3.45-1.58-5.07s.28-3.6,1.58-5.09c.78-.9,1.72-1.34,2.82-1.34s2.03.45,2.82,1.34c1.3,1.49,1.58,3.49,1.58,5.09s-.28,3.58-1.58,5.07c-.78.9-1.7,1.34-2.82,1.34s-2.03-.45-2.82-1.34ZM104.65,281.1c-.69,1.03-.86,2.63-.86,3.71s.17,2.69.86,3.73c.54.82,1.19,1.03,1.68,1.03s1.14-.21,1.68-1.03c.69-1.04.86-2.63.86-3.73s-.17-2.69-.86-3.71c-.54-.82-1.19-1.03-1.68-1.03s-1.14.21-1.68,1.03Z"/>
                <path class="cls-3" d="M120.61,291.04h-8.35l4.31-5.22c.43-.52,1.08-1.34,1.49-1.94.35-.52.65-1.06.65-1.79,0-1.04-.69-2.01-2.07-2.01s-2.12,1.08-2.2,2.26h-1.83c.06-1.21.56-2.18,1.04-2.72.45-.5,1.34-1.21,2.91-1.21,2.65,0,4.01,1.81,4.01,3.75,0,1.03-.39,1.86-.89,2.61-.45.67-1.03,1.36-1.77,2.24l-1.94,2.29h4.64v1.75Z"/>
                <path class="cls-3" d="M130.08,279.2l-2.96,3.75c.28-.06.52-.07.78-.07,1.45,0,2.37.63,2.87,1.16.67.71,1.1,1.77,1.1,2.91s-.39,2.31-1.23,3.13c-1.04,1.03-2.39,1.17-3.21,1.17-1.08,0-2.26-.22-3.21-1.21-.65-.69-1.08-1.6-1.08-2.82,0-.91.21-1.62.6-2.39.47-.93.95-1.49,1.51-2.22l3.45-4.44,1.38,1.03ZM125.74,285.18c-.41.39-.73,1.06-.73,1.85,0,.63.24,1.38.73,1.85.39.37,1.14.69,1.79.69.58,0,1.29-.22,1.75-.69.47-.47.73-1.21.73-1.85s-.26-1.38-.73-1.85c-.43-.43-1.12-.69-1.75-.69s-1.34.26-1.79.69Z"/>
                <path class="cls-3" d="M135.04,289.02c.62,0,1.12.5,1.12,1.12s-.5,1.12-1.12,1.12-1.12-.5-1.12-1.12.5-1.12,1.12-1.12Z"/>
              </g>
            </g>
          </g>
        </g>
      </g>
    </g>
  </g>
</svg>