<?xml version="1.0" encoding="UTF-8"?>
<svg id="_レイヤー_2" data-name="レイヤー 2" xmlns="http://www.w3.org/2000/svg" viewBox="0 0 352 230.35">
  <defs>
    <style>
      .cls-1 {
        fill: #ee780c;
      }

      .cls-2 {
        fill: none;
        stroke: #fff;
        stroke-miterlimit: 10;
        stroke-width: .85px;
      }

      .cls-3 {
        fill: #fff;
      }

      .cls-4 {
        fill: #004639;
      }
    </style>
  </defs>
  <g id="_レイヤー_4" data-name="レイヤー 4">
    <g>
      <rect class="cls-1" y="20.43" width="352" height="209.93" rx="18.53" ry="18.53"/>
      <g>
        <rect class="cls-4" x="52.83" y="0" width="245.12" height="39.83" rx="19.3" ry="19.3"/>
        <polygon class="cls-4" points="175.8 47.64 192.54 27.51 159.07 27.51 175.8 47.64"/>
        <g>
          <path class="cls-3" d="M75.18,15.58c-.13-.32-.32-.62-.65-.9-.45-.37-.93-.52-1.55-.52-1.33,0-2.02.8-2.02,1.72,0,.43.15,1.18,1.55,1.74l1.44.58c2.65,1.08,3.38,2.58,3.38,4.22,0,2.73-1.94,4.6-4.63,4.6-1.66,0-2.65-.62-3.38-1.44-.77-.86-1.12-1.81-1.21-2.8l2.17-.47c0,.71.26,1.38.6,1.83.41.52,1.01.86,1.87.86,1.33,0,2.37-.97,2.37-2.41s-1.12-2.07-2.07-2.45l-1.38-.58c-1.18-.49-2.93-1.48-2.93-3.64,0-1.94,1.51-3.79,4.2-3.79,1.55,0,2.43.58,2.88.97.39.34.8.84,1.1,1.44l-1.76,1.03Z"/>
          <path class="cls-3" d="M83.25,12.39c.88,0,2.11.09,3.14.77,1.2.8,1.79,2.17,1.79,3.49,0,.84-.21,2.13-1.4,3.14-1.14.97-2.45,1.12-3.51,1.12h-.99v5.83h-2.2v-14.35h3.16ZM82.28,18.89h.99c1.89,0,2.8-.92,2.8-2.26,0-.8-.32-2.22-2.82-2.22h-.97v4.48Z"/>
          <path class="cls-3" d="M92.97,12.39c1.74,0,2.86.22,3.79.84,1.57,1.05,1.7,2.75,1.7,3.38,0,2.07-1.27,3.57-3.18,4l4.47,6.13h-2.65l-4.11-5.87h-.39v5.87h-2.19v-14.35h2.56ZM92.61,18.98h.69c.6,0,3.05-.06,3.05-2.34,0-2.02-1.92-2.22-2.99-2.22h-.75v4.56Z"/>
          <path class="cls-3" d="M104.09,12.39v14.35h-2.19v-14.35h2.19Z"/>
          <path class="cls-3" d="M107.53,26.74v-15.32l10.41,10.91v-9.94h2.19v15.23l-10.41-10.91v10.03h-2.2Z"/>
          <path class="cls-3" d="M131,19.28h5.92v.11c0,2.45-.73,4.45-2.13,5.81-1.48,1.44-3.25,1.83-4.88,1.83-2.09,0-3.57-.6-4.88-1.96-1.4-1.44-2.13-3.36-2.13-5.42,0-2.24.9-4.17,2.09-5.36,1.23-1.25,3.18-2.15,5.4-2.15,1.29,0,2.62.28,3.74.9,1.18.67,1.92,1.51,2.32,2.15l-1.74,1.23c-.43-.6-1.08-1.25-1.76-1.64-.8-.47-1.66-.62-2.54-.62-1.87,0-3.08.77-3.79,1.48-.95.95-1.53,2.47-1.53,4.02,0,1.44.54,2.88,1.48,3.89.99,1.05,2.22,1.44,3.59,1.44,1.25,0,2.28-.37,3.21-1.27.8-.77,1.12-1.61,1.2-2.43h-3.57v-2.02Z"/>
          <path class="cls-3" d="M155.31,15.75c-1.59-1.44-3.08-1.59-3.89-1.59-3.12,0-5.23,2.3-5.23,5.46s2.19,5.38,5.25,5.38c1.72,0,3.06-.88,3.87-1.66v2.6c-1.44.86-2.95,1.08-3.94,1.08-2.6,0-4.24-1.18-5.08-1.98-1.68-1.57-2.3-3.4-2.3-5.42,0-2.65,1.1-4.48,2.3-5.62,1.48-1.4,3.21-1.87,5.18-1.87,1.31,0,2.58.24,3.83,1.03v2.58Z"/>
          <path class="cls-3" d="M166.24,23.28h-6.13l-1.57,3.46h-2.37l7.14-15.19,6.8,15.19h-2.37l-1.51-3.46ZM165.36,21.21l-2.13-4.86-2.22,4.86h4.35Z"/>
          <path class="cls-3" d="M171.49,26.74l3.01-15.43,4.99,11.15,5.04-11.15,2.71,15.43h-2.24l-1.46-8.65-4.17,9.32-4.13-9.34-1.51,8.67h-2.24Z"/>
          <path class="cls-3" d="M193.41,12.39c.88,0,2.11.09,3.14.77,1.2.8,1.79,2.17,1.79,3.49,0,.84-.21,2.13-1.4,3.14-1.14.97-2.45,1.12-3.51,1.12h-.99v5.83h-2.2v-14.35h3.16ZM192.44,18.89h.99c1.89,0,2.8-.92,2.8-2.26,0-.8-.32-2.22-2.82-2.22h-.97v4.48Z"/>
          <path class="cls-3" d="M208.36,23.28h-6.13l-1.57,3.46h-2.37l7.14-15.19,6.8,15.19h-2.37l-1.51-3.46ZM207.48,21.21l-2.13-4.86-2.22,4.86h4.35Z"/>
          <path class="cls-3" d="M216.23,12.39v14.35h-2.2v-14.35h2.2Z"/>
          <path class="cls-3" d="M227.09,19.28h5.92v.11c0,2.45-.73,4.45-2.13,5.81-1.48,1.44-3.25,1.83-4.88,1.83-2.09,0-3.57-.6-4.88-1.96-1.4-1.44-2.13-3.36-2.13-5.42,0-2.24.9-4.17,2.09-5.36,1.23-1.25,3.18-2.15,5.4-2.15,1.29,0,2.62.28,3.74.9,1.18.67,1.92,1.51,2.32,2.15l-1.74,1.23c-.43-.6-1.08-1.25-1.76-1.64-.8-.47-1.66-.62-2.54-.62-1.87,0-3.08.77-3.79,1.48-.95.95-1.53,2.47-1.53,4.02,0,1.44.54,2.88,1.48,3.89.99,1.05,2.22,1.44,3.59,1.44,1.25,0,2.28-.37,3.21-1.27.8-.77,1.12-1.61,1.2-2.43h-3.57v-2.02Z"/>
          <path class="cls-3" d="M235.76,26.74v-15.32l10.41,10.91v-9.94h2.19v15.23l-10.41-10.91v10.03h-2.2Z"/>
          <path class="cls-3" d="M266.71,18.5h-10.19v-1.73h-1.18v3.18l1.8-.34.03.44h5.2v-1.44l2.48.1c-.02.17-.14.27-.44.32v1.01h2.09v1.88h-2.09v3.54c0,1.92-.74,2.17-3.71,2.17-.07-.56-.34-1.4-.6-1.95.79.03,1.68.03,1.93.03.26-.02.34-.07.34-.29v-3.51h-5.51v-.44l-1.52.39v5.76h-1.97v-5.29c-.7.17-1.35.33-1.88.44-.03.17-.17.27-.31.29l-.67-2.29c.77-.12,1.76-.29,2.86-.5v-3.54h-1.01c-.21.92-.45,1.78-.74,2.46-.27-.31-.87-.82-1.23-1.08.48-1.33.75-3.64.91-5.76l2.04.48c-.05.12-.17.22-.41.21-.05.56-.14,1.16-.22,1.74h.67v-3.3l2.41.14c-.02.15-.14.26-.45.31v2.86h1.78v1.78h3.42v-1.52h-3.06v-1.86h3.06v-1.71l2.5.14c-.02.17-.15.27-.46.34v1.23h3.18v1.86h-3.18v1.52h4.14v1.9ZM259.2,25.78c-.27-.74-1.01-1.88-1.64-2.7l1.59-.82c.65.79,1.42,1.86,1.73,2.6l-1.68.92Z"/>
          <path class="cls-3" d="M283.79,21.73v1.93h-4.84c1.75.84,3.61,1.86,4.72,2.57l-1.97,1.44c-1.08-.79-3.01-1.98-4.77-2.84l1.27-1.16h-5.17l1.76,1.15c-.05.07-.17.1-.34.12-1.11.91-3.28,2.1-5.08,2.74-.39-.43-1.13-1.11-1.66-1.52,1.71-.55,3.73-1.61,4.86-2.48h-4.88v-1.93h1.71v-8.24h3.54v-2.04l2.36.14c-.02.17-.14.26-.44.31v1.59h1.66v-2.04l2.39.14c-.02.17-.14.26-.44.31v1.59h3.76v8.24h1.56ZM272.94,15.38h-1.56v2.21h1.56v-2.21ZM271.39,19.49v2.24h1.56v-2.24h-1.56ZM276.52,15.38h-1.66v2.21h1.66v-2.21ZM276.52,21.73v-2.24h-1.66v2.24h1.66ZM280.16,15.38h-1.69v2.21h1.69v-2.21ZM278.47,19.49v2.24h1.69v-2.24h-1.69Z"/>
        </g>
      </g>
      <g>
        <g>
          <g>
            <path class="cls-3" d="M122.14,68.29h-13.25v-2.25h-1.53v4.14l2.33-.44.04.58h6.76v-1.87l3.22.13c-.02.22-.18.36-.58.42v1.31h2.71v2.45h-2.71v4.6c0,2.49-.96,2.82-4.82,2.82-.09-.73-.45-1.82-.78-2.53,1.02.04,2.18.04,2.51.04.33-.02.45-.09.45-.38v-4.56h-7.16v-.58l-1.98.51v7.49h-2.56v-6.87c-.91.22-1.76.42-2.45.58-.04.22-.22.36-.4.38l-.87-2.98c1-.16,2.29-.38,3.71-.64v-4.6h-1.31c-.27,1.2-.58,2.31-.96,3.2-.36-.4-1.13-1.07-1.6-1.4.62-1.73.98-4.74,1.18-7.49l2.65.62c-.07.16-.22.29-.53.27-.07.73-.18,1.51-.29,2.27h.87v-4.29l3.13.18c-.02.2-.18.33-.58.4v3.71h2.31v2.31h4.45v-1.98h-3.98v-2.42h3.98v-2.22l3.25.18c-.02.22-.2.36-.6.44v1.6h4.13v2.42h-4.13v1.98h5.38v2.47ZM112.38,77.76c-.36-.96-1.31-2.45-2.13-3.51l2.07-1.07c.84,1.02,1.84,2.42,2.25,3.38l-2.18,1.2Z"/>
            <path class="cls-3" d="M147,72.49v2.51h-6.29c2.27,1.09,4.69,2.42,6.14,3.33l-2.56,1.87c-1.4-1.02-3.91-2.58-6.2-3.69l1.64-1.51h-6.71l2.29,1.49c-.07.09-.22.13-.44.16-1.45,1.18-4.27,2.73-6.6,3.56-.51-.56-1.47-1.44-2.16-1.98,2.22-.71,4.85-2.09,6.31-3.22h-6.34v-2.51h2.22v-10.72h4.6v-2.65l3.07.18c-.02.22-.18.33-.58.4v2.07h2.16v-2.65l3.11.18c-.02.22-.18.33-.58.4v2.07h4.89v10.72h2.02ZM132.9,64.25h-2.02v2.87h2.02v-2.87ZM130.88,69.58v2.91h2.02v-2.91h-2.02ZM137.55,64.25h-2.16v2.87h2.16v-2.87ZM137.55,72.49v-2.91h-2.16v2.91h2.16ZM142.28,64.25h-2.2v2.87h2.2v-2.87ZM140.08,69.58v2.91h2.2v-2.91h-2.2Z"/>
            <path class="cls-3" d="M163.83,57.55c6.72,0,12.15,5.43,12.15,12.15s-5.43,12.15-12.15,12.15-12.15-5.43-12.15-12.15,5.48-12.15,12.15-12.15Z"/>
            <path class="cls-3" d="M191.89,73.78l2.11.82c-.11.18-.33.22-.56.2-1.11.82-2.87,1.71-4.45,2.31.6.16,1.25.24,1.98.27.91.04,2.13.07,3.49.07,2.67,0,5.8-.09,7.91-.27-.29.6-.67,1.76-.8,2.49-1.69.09-4.14.16-6.4.16-5.38,0-8.07,0-10.09-2.6-.84.89-1.73,1.73-2.47,2.42,0,.24-.09.36-.29.44l-1.31-2.67c.82-.58,1.78-1.33,2.65-2.09v-4.96h-2.31v-2.47h4.8v7.2c.58,1.02,1.51,1.65,2.76,1.98-.42-.44-1.22-1.13-1.73-1.49,1.4-.42,2.93-1.11,3.94-1.82h-4.25v-1.96h3.65v-1.4h-2.82v-1.96h2.82v-1.31l3.07.18c-.02.2-.18.33-.58.38v.76h2.56v-1.31l3.11.18c-.02.2-.18.33-.58.4v.73h2.93v1.96h-2.93v1.4h3.8v1.96h-4.31c1.56.76,3.31,1.69,4.33,2.38l-2.76,1c-.87-.71-2.51-1.76-4.07-2.51l1.53-.87h-4.74ZM183.3,59.69c1.18,1.07,2.58,2.6,3.16,3.69l-2.27,1.51c-.51-1.11-1.85-2.73-3-3.87l2.11-1.33ZM191.02,62.51v-.93h-3.94v-1.69h6.18v4.33h-3.6c0,.89,0,1,.69,1h1.76c.45,0,.56-.13.62-.87.42.29,1.27.56,1.84.69-.22,1.51-.8,1.93-2.2,1.93h-2.36c-2,0-2.56-.49-2.56-2.29v-2.18h3.56ZM193,70.43v1.4h2.56v-1.4h-2.56ZM198.56,62.51v-.91h-4.2v-1.71h6.47v4.33h-3.82c0,.89,0,1,.73,1h1.85c.44,0,.56-.13.62-.89.42.29,1.29.56,1.87.67-.24,1.56-.8,1.98-2.22,1.98h-2.45c-2.05,0-2.58-.49-2.58-2.31v-2.16h3.73Z"/>
            <path class="cls-3" d="M213.85,68.85l.27,2.29c-.8.27-1.6.53-2.4.78v5.38c0,2.4-.91,2.85-4.38,2.85-.09-.67-.42-1.76-.76-2.45.87.04,1.8.04,2.09.04.31-.02.42-.11.42-.42v-4.6l-1.98.6c-.02.22-.2.36-.38.4l-.82-3.02c.87-.18,1.96-.42,3.18-.71v-4.16h-2.85v-2.47h2.85v-4.14l3.22.13c-.02.24-.18.38-.6.44v3.56h2.22v2.47h-2.22v3.53l2.13-.51ZM226.06,69.98h-3.8c.78,3.54,2.27,6.51,5.02,7.89-.62.53-1.45,1.6-1.84,2.33-3.33-1.89-4.91-5.51-5.83-10.23h-1.82c-.2,3.49-.98,7.63-3.51,10.27-.4-.53-1.49-1.49-2.07-1.82,2.71-2.89,2.96-7.18,2.96-10.52v-7.76h10.89v9.83ZM223.39,62.67h-5.56v4.8h5.56v-4.8Z"/>
            <path class="cls-3" d="M232.99,63.07c1.51-.18,13.61-1.82,15.72-1.82.29.69.44,1.89.44,2.69-.82-.04-2.33,0-3.67.44-3.45,1.09-4.96,4.22-4.96,6.71,0,3.89,3.25,5.16,6.83,5.16-.07.91-.58,2.38-1.07,3-4.25-.02-8.8-2.22-8.8-7.56,0-3.31,1.6-5.69,3.4-7.09-2.2.27-6.96,1.22-9.29,1.56-.4-.62-.91-2.2-1.02-2.93.91-.02,2.02-.11,2.42-.16ZM247.71,68.92c-.29.24-.91.58-1.42.69-.36-.82-.93-2.02-1.4-2.78.4-.27,1.04-.53,1.4-.65.42.62,1.18,2.07,1.42,2.73ZM250.31,67.85c-.31.24-.96.56-1.45.71-.36-.8-.98-2-1.44-2.76.4-.27,1.02-.56,1.42-.67.44.67,1.16,2,1.47,2.71Z"/>
          </g>
          <g>
            <path class="cls-3" d="M105.73,100.26v4.83c.99,1.63,2.96,1.63,5.57,1.63,1.7,0,3.73-.04,5.05-.15-.16.33-.39.98-.46,1.38-1.1.04-2.77.07-4.31.07-3.23,0-5.05,0-6.46-1.76-.73.62-1.48,1.23-2.1,1.7,0,.15-.04.22-.18.28l-.71-1.5c.68-.41,1.53-1.01,2.25-1.57v-3.62h-2.07v-1.3h3.42ZM103.53,94.71c.95.65,2.07,1.64,2.59,2.37l-1.05,1.01c-.47-.74-1.57-1.79-2.52-2.49l.98-.89ZM108.49,103.5v2.39h-1.32v-7.75h3.88c-.8-.38-1.72-.79-2.49-1.08l.9-.76c.59.21,1.29.47,1.96.77.58-.3,1.17-.65,1.66-1.02h-5.85v-1.1h7.21l.21-.07,1.04.67c-.06.09-.16.13-.28.15-.71.62-1.73,1.35-2.77,1.91.39.19.74.37,1.02.53h1.87v6.45c0,1.21-.5,1.35-2.58,1.35-.04-.36-.21-.81-.37-1.14.37.01.71.03.98.03.58,0,.64,0,.64-.25v-1.07h-2.25v2.33h-1.27v-2.33h-2.18ZM110.67,99.19h-2.18v1.1h2.18v-1.1ZM108.49,102.45h2.18v-1.14h-2.18v1.14ZM114.2,100.29v-1.1h-2.25v1.1h2.25ZM111.94,102.45h2.25v-1.14h-2.25v1.14Z"/>
            <path class="cls-3" d="M130.31,95.11c-.06.1-.18.13-.36.13-.25.37-.64.87-.99,1.29h2.43v3.23h-1.38v-2h-10v2h-1.32v-3.23h2.19c-.27-.49-.65-1.07-1.01-1.51l1.25-.5c.49.56,1.01,1.32,1.26,1.84l-.4.18h2.22v-2.15l1.76.09c-.01.13-.1.21-.36.25v1.81h2.24c-.12-.06-.24-.1-.34-.15.4-.5.9-1.33,1.18-1.9l1.62.62ZM130.41,103.22v2.99c0,1.35-.67,1.44-3.11,1.44-.06-.37-.28-.87-.46-1.23.49.01.96.03,1.33.03.73,0,.84,0,.84-.24v-1.73h-3.41v3.79h-1.41v-3.79h-3.16v3.2h-1.38v-4.46h4.53v-1.05h-3.11v-3.42h7.9v3.42h-3.07c-.06.06-.15.1-.31.12v.93h4.8ZM122.39,99.77v1.36h5.2v-1.36h-5.2Z"/>
            <path class="cls-3" d="M149.34,95.14v11.25c0,1.69-.73,1.9-4.09,1.87-.09-.4-.36-1.08-.59-1.47.65.03,1.3.04,1.82.04,1.29,0,1.38,0,1.38-.46v-2.77h-6.76c-.4,1.72-1.21,3.44-2.77,4.68-.21-.28-.74-.83-1.05-1.04,2.52-2.02,2.76-4.99,2.76-7.36v-4.74h9.3ZM141.47,100.05c0,.68-.04,1.42-.13,2.19h6.52v-2.19h-6.39ZM147.86,96.51h-6.39v2.19h6.39v-2.19Z"/>
            <path class="cls-3" d="M158.59,106.95h-1.62v-2.95h-4.67v-1.11l4.37-7.1h1.91v6.9h1.39v1.3h-1.39v2.95ZM153.92,102.7h3.05v-3.35c0-.64.03-1.3.07-1.94h-.06c-.34.71-.62,1.26-.93,1.85l-2.13,3.41v.03Z"/>
            <path class="cls-3" d="M162.44,95.28h12.42v12.88h-1.48v-.99h-9.53v.99h-1.41v-12.88ZM163.85,105.78h9.53v-9.13h-9.53v9.13ZM165.75,98.66h5.66v5.07h-5.66v-5.07ZM170.1,102.57v-2.74h-3.1v2.74h3.1Z"/>
            <path class="cls-3" d="M185.99,106.95h-1.62v-2.98h-2.49v-.87h2.49v-1.3h-2.49v-.89h2.07l-2.65-5.11h1.82l1.47,3.36c.27.64.47,1.2.65,1.7h.04c.16-.49.39-1.1.65-1.72l1.51-3.35h1.78l-2.8,5.11h2.07v.89h-2.52v1.3h2.52v.87h-2.52v2.98Z"/>
            <path class="cls-3" d="M196.94,106.95h-1.62v-2.95h-4.67v-1.11l4.37-7.1h1.91v6.9h1.39v1.3h-1.39v2.95ZM192.28,102.7h3.05v-3.35c0-.64.03-1.3.07-1.94h-.06c-.34.71-.62,1.26-.93,1.85l-2.13,3.41v.03Z"/>
            <path class="cls-3" d="M202.69,104.66c-.43,1.48-1.17,3.32-1.73,4.25l-1.18.12c.41-1.13.86-2.9,1.05-4.21l1.87-.16Z"/>
            <path class="cls-3" d="M210.71,106.95h-1.62v-2.95h-4.67v-1.11l4.37-7.1h1.91v6.9h1.39v1.3h-1.39v2.95ZM206.05,102.7h3.05v-3.35c0-.64.03-1.3.07-1.94h-.06c-.34.71-.62,1.26-.93,1.85l-2.13,3.41v.03Z"/>
            <path class="cls-3" d="M213.87,101.4c0-3.64,1.38-5.78,3.69-5.78s3.54,2.28,3.54,5.66c0,3.78-1.36,5.84-3.66,5.84s-3.57-2.3-3.57-5.72ZM219.37,101.34c0-2.65-.56-4.36-1.87-4.36-1.13,0-1.9,1.57-1.9,4.36s.68,4.4,1.87,4.4c1.45,0,1.9-2.09,1.9-4.4Z"/>
            <path class="cls-3" d="M223.09,101.4c0-3.64,1.38-5.78,3.69-5.78s3.54,2.28,3.54,5.66c0,3.78-1.36,5.84-3.66,5.84s-3.57-2.3-3.57-5.72ZM228.59,101.34c0-2.65-.56-4.36-1.87-4.36-1.13,0-1.9,1.57-1.9,4.36s.68,4.4,1.87,4.4c1.45,0,1.9-2.09,1.9-4.4Z"/>
            <path class="cls-3" d="M246.95,105.84c.07.5,0,1.19-.13,1.63-.53.18-2.01.42-3.33.42-1.88,0-4.07-.55-4.07-2.56,0-1.81,1.6-2.65,3.36-3.56-.03-.55-.49-.98-1.24-.98-1.17,0-2.15.96-3.29,2.39-.38-.28-.84-.76-1.07-1.16,1.66-1.53,2.67-2.96,3.27-4.06-.79.06-1.54.09-2.22.09-.15-.36-.27-1.01-.28-1.47.44.07.9.1,1.24.1.49,0,1.16-.02,1.88-.07.25-.65.44-1.38.52-1.97.43.04,1.17.25,1.51.43-.09.28-.28.86-.5,1.39.99-.12,1.94-.28,2.64-.53.15.34.21.95.18,1.32-.92.24-2.15.43-3.44.58-.36.64-.9,1.51-1.41,2.21.58-.28,1.11-.4,1.56-.4.89,0,1.7.47,1.93,1.5,1.16-.59,2.22-1.13,3.04-1.62.33-.21.68-.44,1.01-.71.25.31.5,1.01.55,1.41-.46.37-2.99,1.56-4.53,2.3.01.74.01,1.75.01,2.42-.37.07-.99.06-1.41-.01.04-.31.06-1.05.07-1.75-1.17.61-1.91,1.16-1.91,2.03,0,1.01,1.16,1.3,2.65,1.3,1.33,0,2.65-.36,3.42-.65Z"/>
          </g>
        </g>
        <path class="cls-1" d="M157.15,76.24l5.3-15.22h2.43l5.3,15.22h-2.71l-1.04-3.16h-5.49l-1.04,3.16h-2.74ZM161.63,70.88h4.06l-2.03-6.16-2.03,6.16Z"/>
      </g>
      <g>
        <g>
          <g>
            <path class="cls-3" d="M57.34,152.19h-14.77v-2.91l8.4-9.85c1.59-1.84,2.48-3.44,2.48-5.14,0-2.23-1.67-3.37-3.47-3.37-1.91,0-3.37,1.17-3.47,3.37h-3.76c0-4.15,3.33-6.87,7.37-6.87s7.4,2.83,7.4,6.94c0,3.08-2.13,5.49-3.68,7.37l-5.78,6.91h9.28v3.54Z"/>
            <path class="cls-3" d="M77.86,133.13v16.74c0,2.51-1.08,2.82-6.09,2.78-.13-.6-.53-1.61-.88-2.18.97.04,1.94.07,2.71.07,1.92,0,2.05,0,2.05-.68v-4.12h-10.05c-.6,2.56-1.81,5.12-4.12,6.97-.31-.42-1.1-1.23-1.57-1.54,3.75-3,4.1-7.43,4.1-10.96v-7.06h13.85ZM66.15,140.43c0,1.01-.07,2.12-.2,3.26h9.7v-3.26h-9.5ZM75.65,135.16h-9.5v3.26h9.5v-3.26Z"/>
            <path class="cls-3" d="M88.53,142.33c0,1.41-1.15,2.56-2.56,2.56s-2.56-1.15-2.56-2.56,1.15-2.56,2.56-2.56,2.56,1.19,2.56,2.56Z"/>
            <path class="cls-3" d="M98.21,137.81h1.7c2.55,0,3.93-1.35,3.93-3.65,0-1.77-1.38-3.22-3.47-3.22s-3.3,1.31-3.47,3.01h-3.76c.11-3.93,3.44-6.52,7.37-6.52,4.29,0,7.4,2.94,7.4,6.63,0,2.66-1.56,4.5-3.47,5.46,2.23.99,3.83,2.91,3.83,5.92,0,3.86-2.76,7.09-7.48,7.09-4.96,0-7.76-2.83-7.97-6.7h3.75c.28,1.77,1.52,3.12,4.04,3.12,2.12,0,3.58-1.56,3.58-3.61,0-2.48-1.45-3.97-4.29-3.97h-1.7v-3.54Z"/>
            <path class="cls-3" d="M127.66,133.13v16.74c0,2.51-1.08,2.82-6.09,2.78-.13-.6-.53-1.61-.88-2.18.97.04,1.94.07,2.71.07,1.92,0,2.05,0,2.05-.68v-4.12h-10.05c-.6,2.56-1.81,5.12-4.12,6.97-.31-.42-1.1-1.23-1.57-1.54,3.75-3,4.1-7.43,4.1-10.96v-7.06h13.85ZM115.95,140.43c0,1.01-.07,2.12-.2,3.26h9.7v-3.26h-9.5ZM125.45,135.16h-9.5v3.26h9.5v-3.26Z"/>
          </g>
          <g>
            <path class="cls-3" d="M60.47,202.1h-3.42v-6.3h-5.27v-1.85h5.27v-2.76h-5.27v-1.88h4.39l-5.61-10.82h3.86l3.1,7.12c.56,1.35,1,2.54,1.38,3.61h.09c.34-1.03.82-2.32,1.38-3.64l3.2-7.09h3.76l-5.93,10.82h4.39v1.88h-5.33v2.76h5.33v1.85h-5.33v6.3Z"/>
            <path class="cls-3" d="M83.39,204.34c-6.88,0-12.98-4.07-12.98-12.62v-17.05c0-8.79,6.1-12.68,12.98-12.68s12.98,3.89,12.98,12.62v17.11c0,8.55-6.1,12.62-12.98,12.62ZM83.39,168.03c-3.77,0-6.1,2.57-6.1,7v16.27c0,4.43,2.33,7,6.1,7s6.04-2.57,6.04-7v-16.27c0-4.43-2.33-7-6.04-7Z"/>
          </g>
        </g>
        <g>
          <path class="cls-3" d="M246.93,127.74l-7.83,17.18h5.74v-6.66h4.11v6.66h2.23v3.58h-2.23v3.68h-4.11v-3.68h-10.74v-2.91l8.47-17.86h4.36Z"/>
          <path class="cls-3" d="M269.79,133.13v16.74c0,2.51-1.08,2.82-6.09,2.78-.13-.6-.53-1.61-.88-2.18.97.04,1.94.07,2.71.07,1.92,0,2.05,0,2.05-.68v-4.12h-10.05c-.6,2.56-1.81,5.12-4.12,6.97-.31-.42-1.1-1.23-1.57-1.54,3.75-3,4.1-7.43,4.1-10.96v-7.06h13.85ZM258.08,140.43c0,1.01-.07,2.12-.2,3.26h9.7v-3.26h-9.5ZM267.58,135.16h-9.5v3.26h9.5v-3.26Z"/>
        </g>
        <g>
          <path class="cls-3" d="M184.18,184.97h-5.09v-18.12h18.12v5.28h-12.64v7.07c1.02-1.02,2.57-1.94,5.13-1.94,5.57,0,8.82,4.31,8.82,12.06,0,7.32-3.49,11.38-10.17,11.38-5.43,0-9.69-3.39-10.17-8.72h5.52c.58,2.42,2.13,3.83,4.55,3.83,2.86,0,4.65-1.89,4.65-6.3s-1.36-7.02-4.65-7.02c-1.99,0-3.25,1.07-4.07,2.47Z"/>
          <path class="cls-3" d="M213.06,200.72c-5.57,0-10.51-3.29-10.51-10.22v-13.81c0-7.12,4.94-10.27,10.51-10.27s10.51,3.15,10.51,10.22v13.86c0,6.93-4.94,10.22-10.51,10.22ZM213.06,171.31c-3.05,0-4.94,2.08-4.94,5.67v13.18c0,3.58,1.89,5.67,4.94,5.67s4.89-2.08,4.89-5.67v-13.18c0-3.58-1.89-5.67-4.89-5.67Z"/>
          <path class="cls-3" d="M235.54,185.63c0,2.23-1.07,3.79-3.69,3.79-2.35,0-3.64-1.39-3.64-3.79v-1.29c0-2.4,1.34-3.76,3.64-3.76s3.69,1.34,3.69,3.76v1.29ZM233.41,185.6v-1.21c0-1.31-.52-1.93-1.56-1.93-.97,0-1.49.64-1.49,1.93v1.21c0,1.21.4,1.96,1.49,1.96s1.56-.77,1.56-1.96ZM242.9,180.8l-9.53,17.09h-2.65l9.56-17.09h2.62ZM245.57,194.32c0,2.23-1.06,3.79-3.69,3.79-2.33,0-3.62-1.39-3.62-3.79v-1.29c0-2.4,1.34-3.76,3.62-3.76s3.69,1.34,3.69,3.76v1.29ZM243.47,194.3v-1.21c0-1.31-.54-1.93-1.56-1.93s-1.51.64-1.51,1.93v1.21c0,1.21.4,1.96,1.51,1.96s1.56-.77,1.56-1.96Z"/>
          <path class="cls-3" d="M261.63,200.72c-7.46,0-12.5-4.51-12.5-15.02v-4.26c0-10.51,5.04-15.02,12.5-15.02s12.55,4.51,12.55,15.02v4.26c0,10.51-5.04,15.02-12.55,15.02ZM254.75,185.7c0,7.22,2.42,10.13,6.88,10.13s6.93-2.91,6.93-10.13v-4.26c0-7.22-2.47-10.13-6.93-10.13s-6.88,2.91-6.88,10.13v4.26Z"/>
          <path class="cls-3" d="M299.23,166.85v4.89h-14.87v9.59h13.42v4.84h-13.42v14.1h-5.62v-33.43h20.49Z"/>
          <path class="cls-3" d="M323.21,166.85v4.89h-14.87v9.59h13.42v4.84h-13.42v14.1h-5.62v-33.43h20.49Z"/>
        </g>
        <g>
          <line class="cls-2" x1="156.32" y1="122.88" x2="156.32" y2="204.57"/>
          <circle class="cls-3" cx="156.32" cy="160.95" r="8.55"/>
          <path class="cls-1" d="M155.81,156.06h1.21v3.94h3.78v1.16h-3.78v3.97h-1.21v-3.97h-3.79v-1.16h3.79v-3.94Z"/>
        </g>
      </g>
    </g>
  </g>
</svg>