<?xml version="1.0" encoding="UTF-8"?>
<svg id="_レイヤー_2" data-name="レイヤー 2" xmlns="http://www.w3.org/2000/svg" viewBox="0 0 191.69 144.89">
  <defs>
    <style>
      .cls-1 {
        fill: #fff;
      }

      .cls-2 {
        fill: #213b33;
      }
    </style>
  </defs>
  <g id="_レイヤー_4" data-name="レイヤー 4">
    <g>
      <polygon class="cls-2" points="182.28 92.45 0 144.89 5.96 86.36 191.69 0 182.28 92.45"/>
      <g>
        <polygon class="cls-1" points="32.97 87.45 26.29 90.23 22.86 123.86 29.48 121.67 31.12 105.59 41.59 101.67 42.33 94.21 31.86 98.33 32.97 87.45"/>
        <polygon class="cls-1" points="65.51 73.58 58.08 76.74 54.33 113.45 61.7 111.01 61.7 111.01 72.91 107.33 73.7 99.55 62.47 103.47 65.51 73.58"/>
        <polygon class="cls-1" points="108.66 55.17 101.38 58.3 100.27 69.2 94.35 71.57 95.44 60.85 88.58 63.74 87.51 74.31 81.51 76.71 80.71 84.59 86.69 82.3 85.63 92.72 92.45 90.35 93.53 79.69 99.43 77.43 97.21 99.33 104.41 96.96 106.68 74.66 115.34 71.35 116.21 62.81 107.53 66.29 108.66 55.17"/>
        <polygon class="cls-1" points="150.32 37.46 142.23 40.9 141 53.05 127.66 58.38 126.76 67.17 140.07 62.11 137.65 85.93 145.66 83.3 148.12 59.05 162.82 53.47 163.79 43.93 149.06 49.82 150.32 37.46"/>
        <polygon class="cls-1" points="124.42 90.35 131.95 87.87 133.45 73.09 125.89 75.83 124.42 90.35"/>
        <polygon class="cls-1" points="151.71 81.4 160.25 78.53 161.85 62.79 153.29 65.9 151.71 81.4"/>
        <path class="cls-1" d="M164.76,25.44c-.2.01-.4.03-.6.06-3.68.53-6.98,4.05-7.37,7.86-.37,3.6,2,6.18,5.36,6,.2-.01.4-.03.6-.06,3.68-.53,6.98-4.05,7.37-7.86.37-3.6-2-6.18-5.36-6ZM162.9,35.28c-.08.02-.15.05-.22.06-.3.07-.73.1-1.04-.12-.32-.22-.52-.69-.56-1.27-.12-1.77,1.29-3.87,2.96-4.42.08-.02.15-.05.22-.06.3-.07.73-.1,1.04.12.32.22.52.69.56,1.27.12,1.77-1.29,3.87-2.96,4.42Z"/>
      </g>
    </g>
  </g>
</svg>