<?xml version="1.0" encoding="UTF-8"?>
<svg id="_レイヤー_2" data-name="レイヤー 2" xmlns="http://www.w3.org/2000/svg" viewBox="0 0 213.27 149.42">
  <defs>
    <style>
      .cls-1 {
        fill: #e95513;
      }

      .cls-2 {
        fill: #fff;
      }

      .cls-3 {
        fill: #004639;
      }
    </style>
  </defs>
  <g id="_レイヤー_4" data-name="レイヤー 4">
    <g>
      <path class="cls-2" d="M158.96,67.42s4.41-1.99,8.19-8.17c.78-1.28,1.34-2.61,1.75-3.91v-.1c-8.85-5.11-14.83-14.68-14.83-25.65,0-.69.03-1.38.08-2.06L5.36,96.72,0,149.42l164.13-47.22,3.65-35.83c-4.74,1.24-8.81,1.05-8.81,1.05Z"/>
      <g>
        <polygon class="cls-3" points="29.69 97.7 23.67 100.21 20.59 130.49 26.55 128.52 28.02 114.03 37.45 110.51 38.11 103.79 28.69 107.5 29.69 97.7"/>
        <polygon class="cls-3" points="58.99 85.22 52.3 88.05 48.92 121.11 55.56 118.92 55.56 118.92 65.65 115.6 66.36 108.6 56.25 112.12 58.99 85.22"/>
        <polygon class="cls-3" points="97.84 68.63 91.29 71.46 90.29 81.27 84.96 83.4 85.93 73.75 79.76 76.36 78.79 85.87 73.39 88.03 72.67 95.13 78.06 93.07 77.11 102.45 83.24 100.31 84.22 90.72 89.53 88.68 87.53 108.4 94.01 106.26 96.05 86.19 103.86 83.21 104.64 75.52 96.82 78.65 97.84 68.63"/>
        <polygon class="cls-3" points="135.35 52.69 128.07 55.79 126.96 66.72 114.94 71.53 114.14 79.44 126.13 74.89 123.94 96.33 131.15 93.96 133.37 72.13 146.61 67.1 147.48 58.52 134.22 63.82 135.35 52.69"/>
        <polygon class="cls-3" points="112.03 100.32 118.81 98.08 120.16 84.77 113.36 87.24 112.03 100.32"/>
        <polygon class="cls-3" points="136.6 92.26 144.29 89.67 145.74 75.5 138.03 78.3 136.6 92.26"/>
        <path class="cls-3" d="M148.36,41.87c-.18,0-.36.03-.54.05-3.31.48-6.28,3.65-6.63,7.08-.33,3.24,1.8,5.56,4.83,5.41.18,0,.36-.03.54-.05,3.31-.48,6.28-3.65,6.63-7.08.33-3.24-1.8-5.56-4.83-5.41ZM146.68,50.73c-.07.02-.14.04-.2.06-.27.06-.65.09-.94-.11-.28-.2-.47-.62-.5-1.15-.11-1.59,1.16-3.49,2.66-3.98.07-.02.14-.04.2-.06.27-.06.65-.09.94.11.28.2.47.62.5,1.15.11,1.59-1.16,3.49-2.66,3.98Z"/>
      </g>
      <g>
        <path class="cls-1" d="M183.67,0c-16.35,0-29.6,13.25-29.6,29.6,0,10.98,5.98,20.55,14.85,25.66-.41,1.32-.98,2.68-1.78,3.99-3.78,6.19-8.19,8.17-8.19,8.17,0,0,11.87.55,18.62-6.39.68-.7,1.3-1.41,1.87-2.14,1.38.2,2.79.3,4.22.3,16.35,0,29.6-13.25,29.6-29.6S200.02,0,183.67,0Z"/>
        <path class="cls-1" d="M183.67,0c-16.35,0-29.6,13.25-29.6,29.6,0,10.98,5.98,20.55,14.85,25.66-.41,1.32-.98,2.68-1.78,3.99-3.78,6.19-8.19,8.17-8.19,8.17,0,0,11.87.55,18.62-6.39.68-.7,1.3-1.41,1.87-2.14,1.38.2,2.79.3,4.22.3,16.35,0,29.6-13.25,29.6-29.6S200.02,0,183.67,0Z"/>
        <polygon class="cls-2" points="200.35 24.49 188.78 24.49 188.78 12.92 178.56 12.92 178.56 24.49 166.99 24.49 166.99 34.7 178.56 34.7 178.56 46.28 188.78 46.28 188.78 34.7 200.35 34.7 200.35 24.49"/>
      </g>
      <g>
        <path class="cls-2" d="M130.69,119.07c-1.01-.45-2.22-.59-3.62-.44l-8.1.89-1.06,19.14,5.1-.56.31-5.68,2.82-.31c1.43-.16,2.7-.57,3.8-1.23,1.11-.66,1.99-1.52,2.64-2.59.65-1.06,1.02-2.28,1.09-3.65.08-1.36-.14-2.52-.67-3.48-.53-.96-1.3-1.66-2.32-2.1ZM127.94,126.67c-.25.42-.6.76-1.04,1.03-.44.27-.96.43-1.57.5l-1.79.2.29-5.27,1.79-.2c.61-.07,1.12-.02,1.53.14.42.16.73.42.93.79s.29.83.26,1.38c-.03.54-.17,1.02-.42,1.44Z"/>
        <polygon class="cls-2" points="141.92 117.01 136.83 117.56 135.77 136.7 148.46 135.31 148.69 131.13 141.09 131.96 141.92 117.01"/>
        <path class="cls-2" d="M162.44,126.34c-.03.59-.2,1.15-.51,1.67-.31.52-.73.95-1.24,1.3-.51.35-1.08.55-1.71.62-.54.06-1.01,0-1.41-.2-.4-.19-.7-.49-.91-.9-.21-.41-.29-.91-.27-1.5l.65-11.98-5.1.56-.67,12.09c-.08,1.46.2,2.69.84,3.71.64,1.02,1.57,1.76,2.8,2.23s2.67.61,4.32.43c1.57-.17,2.97-.6,4.18-1.28,1.21-.68,2.17-1.57,2.89-2.68.71-1.11,1.11-2.4,1.19-3.85l.68-12.42-5.1.56-.64,11.65Z"/>
        <path class="cls-2" d="M185.23,122.02c-.44-.44-1.03-.81-1.75-1.09-.73-.28-1.6-.48-2.63-.6l-1.51-.17c-.59-.06-1.06-.16-1.42-.28-.36-.13-.63-.29-.79-.5-.16-.21-.23-.46-.22-.76.02-.28.12-.54.28-.78.17-.24.43-.44.77-.6.34-.16.78-.27,1.3-.33.82-.09,1.43.02,1.82.32.39.3.59.76.6,1.38l4.89-.54c.06-1.25-.21-2.31-.81-3.17-.6-.87-1.47-1.5-2.59-1.89-1.13-.39-2.45-.5-3.98-.34-1.49.16-2.79.56-3.91,1.19-1.12.63-2,1.43-2.65,2.41-.65.98-1,2.07-1.06,3.29-.08,1.5.33,2.63,1.23,3.4.91.76,2.18,1.24,3.81,1.41l1.87.2c.69.07,1.23.17,1.64.31.4.13.69.3.86.5.17.2.25.44.23.73-.02.32-.13.61-.33.87-.21.26-.5.49-.87.66-.38.18-.84.3-1.38.36-.66.07-1.21.03-1.67-.12-.46-.15-.8-.42-1.04-.79-.24-.37-.35-.85-.35-1.43l-4.85.53c-.08,1.6.21,2.87.88,3.82.67.95,1.62,1.6,2.86,1.95,1.24.35,2.67.44,4.31.26,1.59-.17,2.94-.55,4.05-1.12,1.11-.57,1.97-1.33,2.58-2.27.61-.94.95-2.04,1.01-3.3.04-.73-.04-1.39-.23-1.97-.19-.59-.51-1.1-.95-1.55Z"/>
      </g>
    </g>
  </g>
</svg>