<?xml version="1.0" encoding="UTF-8"?>
<svg id="_レイヤー_2" data-name="レイヤー 2" xmlns="http://www.w3.org/2000/svg" viewBox="0 0 98.29 21">
  <defs>
    <style>
      .cls-1 {
        fill: none;
        stroke: #0c3b2c;
        stroke-linecap: round;
        stroke-linejoin: round;
        stroke-width: 1.7px;
      }

      .cls-2 {
        fill: #fff;
      }
    </style>
  </defs>
  <g id="_レイヤー_4" data-name="レイヤー 4">
    <g>
      <g>
        <path class="cls-2" d="M3.11,4.94c1.2,0,2.03.13,2.82.82.86.77,1.09,1.81,1.09,2.58,0,.42-.06,1.57-.88,2.38-.59.59-1.47.95-2.71.95h-1.34v3.95H0V4.94h3.11ZM2.08,9.87h.85c.4,0,.91,0,1.36-.34.38-.3.58-.79.58-1.25,0-.59-.29-.99-.59-1.22-.43-.3-.98-.34-1.47-.34h-.72v3.14Z"/>
        <path class="cls-2" d="M14.39,13.38h-4.31l-.94,2.24h-2.26l4.59-10.68h1.63l4.47,10.68h-2.24l-.94-2.24ZM13.78,11.68l-1.52-3.84-1.52,3.84h3.04Z"/>
        <path class="cls-2" d="M24.23,9.9h4.9v.13c0,.72-.1,2.96-1.57,4.42-1.1,1.1-2.46,1.41-3.79,1.41s-2.71-.27-3.87-1.44c-.37-.37-1.58-1.71-1.58-4.11,0-2.06.93-3.33,1.57-3.97.8-.82,2.14-1.63,4.21-1.63.8,0,1.65.13,2.47.56.69.35,1.44.99,2,1.95l-1.81.98c-.37-.72-.91-1.09-1.25-1.26-.45-.22-1.01-.34-1.5-.34-.85,0-1.81.3-2.46.94-.61.59-1.07,1.62-1.07,2.82,0,1.42.61,2.27,1.06,2.71.48.46,1.23.91,2.37.91.71,0,1.5-.19,2.1-.64.42-.32.83-.86,1.01-1.63h-2.75v-1.79Z"/>
        <path class="cls-2" d="M36.96,6.73h-3.84v2.38h3.68v1.79h-3.68v2.91h3.84v1.79h-5.92V4.94h5.92v1.79Z"/>
        <path class="cls-2" d="M46.06,6.73v8.88h-2.08V6.73h-2.4v-1.79h6.88v1.79h-2.4Z"/>
        <path class="cls-2" d="M60.66,10.29c0,3.25-2.34,5.57-5.7,5.57s-5.7-2.32-5.7-5.57,2.34-5.59,5.7-5.59,5.7,2.34,5.7,5.59ZM58.51,10.29c0-2.16-1.47-3.7-3.55-3.7s-3.55,1.54-3.55,3.7,1.47,3.68,3.55,3.68,3.55-1.52,3.55-3.68Z"/>
        <path class="cls-2" d="M65.68,4.94c1.2,0,2.03.13,2.82.82.87.77,1.09,1.81,1.09,2.58,0,.42-.06,1.57-.88,2.38-.59.59-1.47.95-2.71.95h-1.34v3.95h-2.08V4.94h3.11ZM64.66,9.87h.85c.4,0,.91,0,1.36-.34.38-.3.58-.79.58-1.25,0-.59-.29-.99-.59-1.22-.43-.3-.98-.34-1.47-.34h-.72v3.14Z"/>
      </g>
      <g>
        <circle class="cls-2" cx="87.79" cy="10.5" r="10.5"/>
        <g>
          <polyline class="cls-1" points="84.89 8.99 87.79 6.09 90.7 8.99"/>
          <line class="cls-1" x1="87.79" y1="6.09" x2="87.79" y2="14.91"/>
        </g>
      </g>
    </g>
  </g>
</svg>