<?xml version="1.0" encoding="UTF-8"?>
<svg id="_レイヤー_2" data-name="レイヤー 2" xmlns="http://www.w3.org/2000/svg" viewBox="0 0 100.57 9.84">
  <defs>
    <style>
      .cls-1 {
        fill: #fff;
      }
    </style>
  </defs>
  <g id="_レイヤー_4" data-name="レイヤー 4">
    <g>
      <path class="cls-1" d="M4.5.47c2.6,0,4.5,1.92,4.5,4.51s-1.9,4.51-4.5,4.51S0,7.57,0,4.98,1.9.47,4.5.47ZM4.5,1.12C2.3,1.12.73,2.82.73,4.98s1.59,3.86,3.77,3.86,3.77-1.69,3.77-3.86-1.57-3.86-3.77-3.86ZM6.23,3.81c-.46-.44-1.04-.65-1.53-.65-.83,0-1.81.58-1.81,1.83,0,1.05.74,1.79,1.82,1.79.4,0,.95-.13,1.52-.66v1.14c-.44.25-.96.4-1.53.4-1.6,0-2.79-1.14-2.79-2.68s1.22-2.72,2.85-2.72c.35,0,.86.04,1.48.4v1.13Z"/>
      <path class="cls-1" d="M15.69,9.31h-5.82l3-3.64c.3-.36.75-.94,1.04-1.35.25-.36.46-.74.46-1.25,0-.73-.48-1.4-1.44-1.4s-1.48.75-1.53,1.57h-1.27c.04-.84.39-1.52.73-1.9.31-.35.94-.84,2.03-.84,1.85,0,2.79,1.26,2.79,2.61,0,.71-.27,1.3-.62,1.82-.31.47-.71.95-1.24,1.56l-1.35,1.6h3.24v1.22Z"/>
      <path class="cls-1" d="M18.54,8.52c-.91-1.04-1.11-2.41-1.11-3.54s.2-2.51,1.11-3.55c.55-.62,1.2-.94,1.96-.94s1.42.31,1.96.94c.91,1.04,1.1,2.43,1.1,3.55s-.19,2.5-1.1,3.54c-.55.62-1.18.94-1.96.94s-1.42-.31-1.96-.94ZM19.33,2.38c-.48.72-.6,1.83-.6,2.59s.12,1.87.6,2.6c.38.57.83.71,1.17.71s.79-.14,1.17-.71c.48-.73.6-1.83.6-2.6s-.12-1.87-.6-2.59c-.38-.57-.83-.71-1.17-.71s-.79.14-1.17.71Z"/>
      <path class="cls-1" d="M30.46,9.31h-5.82l3-3.64c.3-.36.75-.94,1.04-1.35.25-.36.46-.74.46-1.25,0-.73-.48-1.4-1.44-1.4s-1.48.75-1.53,1.57h-1.27c.04-.84.39-1.52.73-1.9.31-.35.94-.84,2.03-.84,1.85,0,2.79,1.26,2.79,2.61,0,.71-.27,1.3-.62,1.82-.31.47-.71.95-1.24,1.56l-1.35,1.6h3.24v1.22Z"/>
      <path class="cls-1" d="M37.06,1.05l-2.07,2.61c.2-.04.36-.05.55-.05,1.01,0,1.65.44,2,.81.47.49.77,1.24.77,2.03s-.27,1.61-.86,2.18c-.73.71-1.66.82-2.24.82-.75,0-1.57-.16-2.24-.84-.46-.48-.75-1.12-.75-1.96,0-.64.14-1.13.42-1.66.32-.65.66-1.04,1.05-1.55l2.41-3.09.96.72ZM34.03,5.23c-.29.27-.51.74-.51,1.29,0,.44.17.96.51,1.29.27.26.79.48,1.25.48.4,0,.9-.16,1.22-.48.33-.33.51-.85.51-1.29s-.18-.96-.51-1.29c-.3-.3-.78-.48-1.22-.48s-.94.18-1.25.48Z"/>
      <path class="cls-1" d="M47.37,1.89h-3.02v2.2h2.91v1.25h-2.91v3.98h-1.33V.64h4.34v1.25Z"/>
      <path class="cls-1" d="M50.21.64v8.67h-1.33V.64h1.33Z"/>
      <path class="cls-1" d="M54.69,1.89v7.42h-1.33V1.89h-1.99V.64h5.3v1.25h-1.99Z"/>
      <path class="cls-1" d="M57.85,9.31V.05l6.29,6.59V.64h1.33v9.2l-6.29-6.59v6.06h-1.33Z"/>
      <path class="cls-1" d="M72.33,1.89h-3.46v2.2h3.35v1.25h-3.35v2.73h3.46v1.25h-4.78V.64h4.78v1.25Z"/>
      <path class="cls-1" d="M77.79,2.56c-.08-.2-.2-.38-.39-.55-.27-.22-.56-.31-.94-.31-.81,0-1.22.48-1.22,1.04,0,.26.09.71.94,1.05l.87.35c1.6.65,2.04,1.56,2.04,2.55,0,1.65-1.17,2.78-2.79,2.78-1,0-1.6-.38-2.04-.87-.47-.52-.68-1.09-.73-1.69l1.31-.29c0,.43.16.83.36,1.1.25.31.61.52,1.13.52.81,0,1.43-.58,1.43-1.46s-.68-1.25-1.25-1.48l-.83-.35c-.71-.3-1.77-.9-1.77-2.2,0-1.17.91-2.29,2.54-2.29.94,0,1.47.35,1.74.58.23.21.48.51.66.87l-1.07.62Z"/>
      <path class="cls-1" d="M84.5,2.56c-.08-.2-.2-.38-.39-.55-.27-.22-.56-.31-.94-.31-.81,0-1.22.48-1.22,1.04,0,.26.09.71.94,1.05l.87.35c1.6.65,2.04,1.56,2.04,2.55,0,1.65-1.17,2.78-2.79,2.78-1,0-1.6-.38-2.04-.87-.47-.52-.68-1.09-.73-1.69l1.31-.29c0,.43.16.83.36,1.1.25.31.61.52,1.13.52.81,0,1.43-.58,1.43-1.46s-.68-1.25-1.25-1.48l-.83-.35c-.71-.3-1.77-.9-1.77-2.2,0-1.17.91-2.29,2.54-2.29.94,0,1.47.35,1.74.58.23.21.48.51.66.87l-1.07.62Z"/>
      <path class="cls-1" d="M92.69,9.31h-5.82l3-3.64c.3-.36.75-.94,1.04-1.35.25-.36.46-.74.46-1.25,0-.73-.48-1.4-1.44-1.4s-1.48.75-1.53,1.57h-1.27c.04-.84.39-1.52.73-1.9.31-.35.94-.84,2.03-.84,1.85,0,2.79,1.26,2.79,2.61,0,.71-.27,1.3-.62,1.82-.31.47-.71.95-1.24,1.56l-1.35,1.6h3.24v1.22Z"/>
      <path class="cls-1" d="M99.63,6.45h.94v1.22h-.94v1.64h-1.27v-1.64h-4.29l5.56-7.67v6.45ZM98.36,6.47v-2.79l-1.98,2.79h1.98Z"/>
    </g>
  </g>
</svg>