<?xml version="1.0" encoding="UTF-8"?>
<svg id="_レイヤー_2" data-name="レイヤー 2" xmlns="http://www.w3.org/2000/svg" viewBox="0 0 172.98 31.12">
  <defs>
    <style>
      .cls-1 {
        fill: #fff;
      }
    </style>
  </defs>
  <g id="_レイヤー_4" data-name="レイヤー 4">
    <g>
      <g>
        <path class="cls-1" d="M151.01,15.68c1.32-1.87,3.45-2.91,5.25-4.18,1.79-1.27,3.25-2.78,3.25-5.51,0-3.56-2.91-5.69-6.24-5.69-3.92,0-6.22,2.59-6.56,6.13h3.59c.26-1.54,1.05-2.96,2.78-2.96,1.58,0,2.73,1.09,2.73,2.81-.02,2.23-2.21,3.35-3.82,4.44-3.15,2.13-5.72,3.92-5.74,8.13h13.36v-3.17h-8.6Z"/>
        <path class="cls-1" d="M170.56,11.89V.66h-3.3l-8.38,11.23-.13.17v2.87h8.3v3.92h3.51v-3.92h2.42v-3.04h-2.42ZM163,11.89h-.23l4.28-5.73v5.73h-4.06Z"/>
        <rect class="cls-1" x="24.35" y=".46" width="6.92" height="30.22"/>
        <polygon class="cls-1" points="33.36 .46 33.36 6.89 40.92 6.89 40.92 30.68 47.84 30.68 47.84 6.89 55.4 6.89 55.4 .46 33.36 .46"/>
        <polygon class="cls-1" points="102.1 6.89 102.1 .46 83.32 .46 83.32 30.68 102.1 30.68 102.1 24.25 90.24 24.25 90.24 18 100 18 100 11.8 90.24 11.8 90.24 6.89 102.1 6.89"/>
        <polygon class="cls-1" points="72.76 .46 72.76 16.28 66.55 .46 57.48 .46 57.48 30.68 64.17 30.68 64.17 11.44 71.71 30.68 79.44 30.68 79.44 .46 72.76 .46"/>
        <path class="cls-1" d="M112.56,25.15c-3.25-.18-6.47-3.76-8.01-6.01v8.12c.98,1.08,1.97,1.9,2.97,2.48,1.61.92,3.53,1.38,5.77,1.38,2.87,0,5.22-.79,7.04-2.37,1.82-1.58,2.74-3.75,2.74-6.51,0-2.5-.62-4.49-1.85-5.97-1.24-1.48-3.39-2.89-6.46-4.24-1.49-.66-2.51-1.27-3.04-1.81-.53-.54-.8-1.22-.8-2.02,0-.6.2-1.11.58-1.53,0,0,3.01-3.73,10.08,3.83V3.38C118.46-.16,113.29.02,113.29.02c-2.81,0-5.08.83-6.78,2.5-1.71,1.66-2.56,3.76-2.56,6.29,0,2.33.6,4.18,1.81,5.56,1.2,1.38,3.33,2.74,6.38,4.09,1.61.72,2.68,1.39,3.23,2.02,0,0,1.55,1.59.38,3.52-.72,1.19-2.76,1.17-3.18,1.15"/>
        <path class="cls-1" d="M133.23,25.14c-3.25-.18-6.47-3.77-8.01-6.01v8.12c.98,1.07,1.97,1.9,2.98,2.48,1.61.92,3.53,1.38,5.77,1.38,2.87,0,5.22-.79,7.04-2.37,1.82-1.58,2.73-3.75,2.73-6.5,0-2.5-.62-4.49-1.85-5.97-1.24-1.48-3.39-2.9-6.46-4.24-1.49-.66-2.51-1.26-3.04-1.81-.53-.55-.8-1.22-.8-2.03,0-.6.19-1.11.58-1.53,0,0,3-3.73,10.08,3.83V3.37C139.13-.18,133.96,0,133.96,0c-2.82,0-5.08.83-6.78,2.5-1.71,1.66-2.56,3.76-2.56,6.29,0,2.33.6,4.18,1.81,5.56,1.21,1.38,3.33,2.74,6.37,4.09,1.61.72,2.69,1.39,3.23,2.02,0,0,1.55,1.59.38,3.52-.72,1.19-2.76,1.17-3.18,1.15"/>
        <polygon class="cls-1" points="0 30.68 6.92 30.68 6.92 18.91 19.66 18.91 19.66 12.48 0 12.48 0 30.68"/>
      </g>
      <rect class="cls-1" x="0" y=".46" width="22.03" height="6.43"/>
    </g>
  </g>
</svg>