<?xml version="1.0" encoding="UTF-8"?>
<svg id="_レイヤー_2" data-name="レイヤー 2" xmlns="http://www.w3.org/2000/svg" viewBox="0 0 117.17 21.08">
  <defs>
    <style>
      .cls-1 {
        fill: #004639;
      }
    </style>
  </defs>
  <g id="_レイヤー_5" data-name="レイヤー 5">
    <g>
      <g>
        <path class="cls-1" d="M102.29,10.62c.9-1.27,2.34-1.97,3.55-2.83,1.22-.86,2.2-1.88,2.2-3.73,0-2.41-1.97-3.85-4.23-3.85-2.66,0-4.22,1.75-4.44,4.15h2.43c.17-1.04.71-2,1.89-2,1.07,0,1.85.74,1.85,1.9-.02,1.51-1.49,2.27-2.59,3.01-2.13,1.44-3.87,2.66-3.89,5.51h9.05v-2.15h-5.83Z"/>
        <path class="cls-1" d="M115.54,8.05V.45h-2.24l-5.68,7.61-.08.11v1.95h5.62v2.66h2.38v-2.66h1.64v-2.06h-1.64ZM110.41,8.05h-.15l2.9-3.88v3.88h-2.75Z"/>
        <rect class="cls-1" x="16.5" y=".31" width="4.69" height="20.47"/>
        <polygon class="cls-1" points="22.6 .31 22.6 4.67 27.72 4.67 27.72 20.78 32.41 20.78 32.41 4.67 37.52 4.67 37.52 .31 22.6 .31"/>
        <polygon class="cls-1" points="69.16 4.67 69.16 .31 56.44 .31 56.44 20.78 69.16 20.78 69.16 16.42 61.13 16.42 61.13 12.19 67.74 12.19 67.74 7.99 61.13 7.99 61.13 4.67 69.16 4.67"/>
        <polygon class="cls-1" points="49.28 .31 49.28 11.03 45.08 .31 38.94 .31 38.94 20.78 43.47 20.78 43.47 7.75 48.58 20.78 53.81 20.78 53.81 .31 49.28 .31"/>
        <path class="cls-1" d="M76.25,17.04c-2.2-.12-4.38-2.55-5.43-4.07v5.5c.66.73,1.33,1.29,2.01,1.68,1.09.62,2.39.93,3.91.93,1.95,0,3.54-.54,4.77-1.6,1.24-1.07,1.85-2.54,1.85-4.41,0-1.69-.42-3.04-1.25-4.04-.84-1-2.3-1.96-4.38-2.87-1.01-.45-1.7-.86-2.06-1.23-.36-.37-.54-.83-.54-1.37,0-.41.13-.75.39-1.04,0,0,2.04-2.53,6.83,2.59V2.29C80.24-.11,76.74.01,76.74.01c-1.91,0-3.44.56-4.6,1.69-1.16,1.13-1.74,2.55-1.74,4.26,0,1.58.41,2.83,1.23,3.76.82.93,2.26,1.86,4.32,2.77,1.09.49,1.82.94,2.19,1.37,0,0,1.05,1.08.25,2.39-.49.8-1.87.8-2.15.78"/>
        <path class="cls-1" d="M90.25,17.03c-2.2-.12-4.38-2.55-5.43-4.07v5.5c.66.73,1.33,1.29,2.02,1.68,1.09.62,2.39.93,3.91.93,1.94,0,3.54-.54,4.77-1.61,1.23-1.07,1.85-2.54,1.85-4.41,0-1.69-.42-3.04-1.25-4.04-.84-1-2.3-1.96-4.38-2.87-1.01-.45-1.7-.86-2.06-1.23-.36-.37-.54-.83-.54-1.37,0-.41.13-.75.39-1.04,0,0,2.03-2.53,6.83,2.59V2.28C94.24-.12,90.74,0,90.74,0c-1.91,0-3.44.56-4.6,1.69-1.16,1.13-1.74,2.55-1.74,4.26,0,1.57.41,2.83,1.23,3.76.82.93,2.26,1.86,4.32,2.77,1.09.49,1.82.94,2.19,1.37,0,0,1.05,1.08.26,2.39-.49.8-1.87.8-2.15.78"/>
        <polygon class="cls-1" points="0 20.78 4.69 20.78 4.69 12.81 13.32 12.81 13.32 8.45 0 8.45 0 20.78"/>
      </g>
      <rect class="cls-1" x="0" y=".31" width="14.92" height="4.36"/>
    </g>
  </g>
</svg>