<svg xmlns="http://www.w3.org/2000/svg" width="380" height="54.467" viewBox="0 0 380 54.467">
  <g id="グループ_485" data-name="グループ 485" transform="translate(-25 -11145.533)">
    <path id="パス_2147" data-name="パス 2147" d="M405,11165.3a19.827,19.827,0,0,0-19.769-19.769H44.769A19.827,19.827,0,0,0,25,11165.3v34.7H405Z" fill="#ee780c"/>
    <g id="グループ_310" data-name="グループ 310">
      <g id="グループ_307" data-name="グループ 307">
        <g id="グループ_306" data-name="グループ 306">
          <path id="パス_2148" data-name="パス 2148" d="M170.081,11164.706l-4.312,16.832H163.1l-1.826-8.12a48.629,48.629,0,0,1-.967-5.457h-.067a52.945,52.945,0,0,1-1.143,5.457l-2,8.12h-2.684l-3.938-16.832h2.706l1.671,8.008c.418,2.069.792,4.137,1.079,5.875h.044c.264-1.8.748-3.785,1.232-5.919l1.914-7.964h2.553l1.76,8.008c.418,1.981.814,3.917,1.056,5.854h.067c.285-1.981.681-3.872,1.122-5.919l1.8-7.942Z" fill="#0c3b2c"/>
          <path id="パス_2149" data-name="パス 2149" d="M183.06,11181.538h-9.175v-16.832h8.8v2.133h-6.249v4.864h5.9v2.112h-5.9v5.588h6.623Z" fill="#0c3b2c"/>
          <path id="パス_2150" data-name="パス 2150" d="M194.587,11172.516a4.235,4.235,0,0,1,3.366,4.2,4.415,4.415,0,0,1-1.452,3.389c-1.122,1.077-2.971,1.585-5.743,1.585a27.267,27.267,0,0,1-3.344-.2v-16.569a20.969,20.969,0,0,1,3.939-.352c5.126,0,6.006,2.509,6.006,4.2a3.94,3.94,0,0,1-2.772,3.675Zm-3.081-.792c2.024,0,3.3-1.122,3.3-2.684,0-2.025-1.628-2.531-3.213-2.531a8.135,8.135,0,0,0-1.65.132v5.083Zm-1.562,7.921a9.419,9.419,0,0,0,1.54.089c2.046,0,3.807-.857,3.807-3.08s-1.915-3.036-3.873-3.036h-1.474Z" fill="#0c3b2c"/>
          <path id="パス_2151" data-name="パス 2151" d="M218.621,11170.661l1.4.32a26.031,26.031,0,0,1-4.821,5.8l-1.56-1a22.015,22.015,0,0,0,3.02-3.281h-4.64a.554.554,0,0,1-.42.22v6.982c0,2.041-1.08,2.14-4.9,2.14a7.831,7.831,0,0,0-.719-1.819c.78.02,1.6.04,2.22.04,1.34,0,1.42,0,1.42-.421v-7.142H201.6v-1.82h9.962a37.551,37.551,0,0,0-5.541-2.479l1.3-1.321c1.12.361,2.4.861,3.641,1.4a22.649,22.649,0,0,0,3.1-2.241H203.518v-1.76H216l.359-.12,1.681,1.08a.647.647,0,0,1-.46.24,32.912,32.912,0,0,1-4.741,3.7c.66.341,1.24.681,1.7.98l-.479.52h4.14Z" fill="#0c3b2c"/>
          <path id="パス_2152" data-name="パス 2152" d="M225.919,11175.282c-.061.14-.181.22-.421.2a17.384,17.384,0,0,1-1.439,4.8,7.854,7.854,0,0,0-1.421-.7,15.891,15.891,0,0,0,1.3-4.781Zm4.761-9c-.08.14-.241.2-.5.2a51.192,51.192,0,0,1-4.181,5.48l3.221-.06c-.341-.58-.721-1.16-1.081-1.681.6-.319.98-.5,1.36-.7a16.869,16.869,0,0,1,2.4,4.12c-.62.359-1.04.58-1.46.8a7.527,7.527,0,0,0-.46-1.1l-1.88.12v8.382h-1.76v-8.3c-1.1.06-2.1.12-2.9.139a.354.354,0,0,1-.32.28l-.42-1.96,1.46-.02c.42-.46.861-.98,1.28-1.54a17.988,17.988,0,0,0-2.6-2.66l.9-1.262c.16.141.34.28.52.421a25.22,25.22,0,0,0,2-3.842l1.96.82a.5.5,0,0,1-.5.18,32.045,32.045,0,0,1-2.361,3.8,14.2,14.2,0,0,1,1.1,1.181,41.444,41.444,0,0,0,2.32-3.681Zm-.66,13.043a21.838,21.838,0,0,0-1.4-4.062l1.481-.5a21.894,21.894,0,0,1,1.5,3.961ZM240.1,11166.8l1,.08c0,.14-.02.4-.02.621-.28,9.2-.561,12.322-1.36,13.342-.641.84-1.281,1-3.061,1-.58,0-1.24-.019-1.881-.059a3.91,3.91,0,0,0-.6-1.8c1.32.1,2.52.1,3.02.1a1.028,1.028,0,0,0,.88-.32c.6-.66.9-3.661,1.141-11.142H233.6a16.246,16.246,0,0,1-1.681,3,11.19,11.19,0,0,0-1.561-1.062,20.986,20.986,0,0,0,3.061-7.462l2.3.58a.466.466,0,0,1-.5.24,26.866,26.866,0,0,1-.9,2.9h5.362Zm-6.122,4.541a19.751,19.751,0,0,1,2.761,4.6l-1.661.881a19.868,19.868,0,0,0-2.62-4.723Z" fill="#0c3b2c"/>
        </g>
      </g>
      <g id="グループ_309" data-name="グループ 309">
        <circle id="楕円形_42" data-name="楕円形 42" cx="13" cy="13" r="13" transform="translate(262.424 11160.741)" fill="#004639"/>
        <g id="グループ_308" data-name="グループ 308">
          <path id="パス_2153" data-name="パス 2153" d="M277.287,11170.144l3.6,3.6-3.6,3.6" fill="none" stroke="#fff" stroke-linecap="round" stroke-linejoin="round" stroke-width="1.625"/>
          <line id="線_36" data-name="線 36" x1="10.922" transform="translate(269.963 11173.743)" fill="none" stroke="#fff" stroke-linecap="round" stroke-linejoin="round" stroke-width="1.625"/>
        </g>
      </g>
    </g>
  </g>
</svg>
