<svg width="160" height="23" viewBox="0 0 160 23" fill="none" xmlns="http://www.w3.org/2000/svg">
<path d="M2.45 7.81999H9.31V1.48999H11.76V17.5H9.31V10.13H2.45V17.5H0V1.48999H2.45V7.82999V7.81999Z" fill="white"/>
<path d="M22.8502 7.39012H25.2002V17.4901H22.8502V16.4301C21.8202 17.6301 20.5502 17.8001 19.8302 17.8001C16.7102 17.8001 14.9302 15.2101 14.9302 12.4201C14.9302 9.13012 17.1902 7.12012 19.8502 7.12012C20.5902 7.12012 21.8902 7.31012 22.8502 8.56012V7.38012V7.39012ZM17.3302 12.4801C17.3302 14.2301 18.4302 15.7001 20.1402 15.7001C21.6302 15.7001 23.0002 14.6201 23.0002 12.5101C23.0002 10.4001 21.6302 9.25012 20.1402 9.25012C18.4402 9.25012 17.3302 10.6901 17.3302 12.4901V12.4801Z" fill="white"/>
<path d="M28.46 7.39012H30.81V8.30012C31.07 7.99012 31.46 7.65012 31.79 7.46012C32.25 7.20012 32.7 7.12012 33.23 7.12012C33.81 7.12012 34.43 7.22012 35.08 7.60012L34.12 9.74012C33.59 9.40012 33.16 9.38012 32.92 9.38012C32.42 9.38012 31.91 9.45012 31.46 9.93012C30.81 10.6301 30.81 11.5901 30.81 12.2601V17.4901H28.46V7.39012Z" fill="white"/>
<path d="M39.0702 7.38989V13.1699C39.0702 13.7699 39.0902 14.4699 39.5002 14.9899C39.8102 15.3999 40.3602 15.6899 41.0402 15.6899C41.7202 15.6899 42.2602 15.3999 42.5802 14.9899C42.9902 14.4599 43.0102 13.7699 43.0102 13.1699V7.38989H45.3602V13.2499C45.3602 14.5499 45.2202 15.6299 44.2802 16.5599C43.3702 17.4699 42.1202 17.8099 40.9902 17.8099C39.9602 17.8099 38.7102 17.4999 37.8002 16.5599C36.8602 15.6199 36.7202 14.5399 36.7202 13.2499V7.38989H39.0702Z" fill="white"/>
<path d="M51.5998 15.9099L47.2798 7.38989H50.1098L52.9898 13.2899L55.9198 7.38989H58.5598L50.5198 22.9899H47.8798L51.5998 15.9099Z" fill="white"/>
<path d="M67.8702 7.39012H70.2202V17.4901H67.8702V16.4301C66.8402 17.6301 65.5702 17.8001 64.8502 17.8001C61.7302 17.8001 59.9502 15.2101 59.9502 12.4201C59.9502 9.13012 62.2102 7.12012 64.8702 7.12012C65.6102 7.12012 66.9102 7.31012 67.8702 8.56012V7.38012V7.39012ZM62.3502 12.4801C62.3502 14.2301 63.4502 15.7001 65.1602 15.7001C66.6502 15.7001 68.0202 14.6201 68.0202 12.5101C68.0202 10.4001 66.6502 9.25012 65.1602 9.25012C63.4602 9.25012 62.3502 10.6901 62.3502 12.4901V12.4801Z" fill="white"/>
<path d="M82.2501 7.86999L88.4401 1.48999H91.6601L84.4401 8.73999L91.7101 17.5H88.4501L82.7401 10.4L82.2601 10.88V17.5H79.8101V1.48999H82.2601V7.86999H82.2501Z" fill="white"/>
<path d="M103.99 12.4599C103.99 15.5599 101.64 17.8099 98.5899 17.8099C95.5399 17.8099 93.1899 15.5499 93.1899 12.4599C93.1899 9.36988 95.5399 7.12988 98.5899 7.12988C101.64 7.12988 103.99 9.33988 103.99 12.4599ZM101.59 12.4799C101.59 10.1799 100.08 9.23988 98.5899 9.23988C97.0999 9.23988 95.5899 10.1799 95.5899 12.4799C95.5899 14.4199 96.7399 15.6999 98.5899 15.6999C100.44 15.6999 101.59 14.4299 101.59 12.4799Z" fill="white"/>
<path d="M114.12 0H116.47V17.5H114.12V16.44C113.09 17.64 111.82 17.81 111.1 17.81C107.98 17.81 106.2 15.22 106.2 12.43C106.2 9.14 108.46 7.13 111.12 7.13C111.86 7.13 113.16 7.32 114.12 8.57V0ZM108.6 12.48C108.6 14.23 109.7 15.7 111.41 15.7C112.9 15.7 114.27 14.62 114.27 12.51C114.27 10.4 112.9 9.25 111.41 9.25C109.71 9.25 108.6 10.69 108.6 12.49V12.48Z" fill="white"/>
<path d="M127.13 7.39012H129.48V17.4901H127.13V16.4301C126.1 17.6301 124.83 17.8001 124.11 17.8001C120.99 17.8001 119.21 15.2101 119.21 12.4201C119.21 9.13012 121.47 7.12012 124.13 7.12012C124.87 7.12012 126.17 7.31012 127.13 8.56012V7.38012V7.39012ZM121.61 12.4801C121.61 14.2301 122.71 15.7001 124.42 15.7001C125.91 15.7001 127.28 14.6201 127.28 12.5101C127.28 10.4001 125.91 9.25012 124.42 9.25012C122.72 9.25012 121.61 10.6901 121.61 12.4901V12.4801Z" fill="white"/>
<path d="M132.74 7.38988H135.09V8.32988C135.88 7.36988 136.82 7.12988 137.59 7.12988C138.65 7.12988 139.63 7.62988 140.21 8.61988C141.05 7.41988 142.32 7.12988 143.21 7.12988C144.43 7.12988 145.51 7.70988 146.09 8.70988C146.28 9.04988 146.62 9.78988 146.62 11.2499V17.4899H144.27V11.9199C144.27 10.7899 144.15 10.3399 144.05 10.1199C143.91 9.73988 143.55 9.22988 142.71 9.22988C142.13 9.22988 141.63 9.53988 141.32 9.96988C140.91 10.5499 140.86 11.4099 140.86 12.2699V17.4799H138.51V11.9099C138.51 10.7799 138.39 10.3299 138.29 10.1099C138.15 9.72988 137.79 9.21988 136.95 9.21988C136.37 9.21988 135.87 9.52988 135.56 9.95988C135.15 10.5399 135.1 11.3999 135.1 12.2599V17.4699H132.75V7.38988H132.74Z" fill="white"/>
<path d="M157.27 7.39012H159.62V17.4901H157.27V16.4301C156.24 17.6301 154.97 17.8001 154.25 17.8001C151.13 17.8001 149.35 15.2101 149.35 12.4201C149.35 9.13012 151.61 7.12012 154.27 7.12012C155.01 7.12012 156.31 7.31012 157.27 8.56012V7.38012V7.39012ZM151.75 12.4801C151.75 14.2301 152.85 15.7001 154.56 15.7001C156.05 15.7001 157.42 14.6201 157.42 12.5101C157.42 10.4001 156.05 9.25012 154.56 9.25012C152.86 9.25012 151.75 10.6901 151.75 12.4901V12.4801Z" fill="white"/>
</svg>
