<svg width="113" height="18" viewBox="0 0 113 18" fill="none" xmlns="http://www.w3.org/2000/svg">
<path d="M8.34381 4.07119C8.19538 3.68951 7.96214 3.32904 7.58046 3.00038C7.05036 2.5657 6.48845 2.38546 5.74631 2.38546C4.1666 2.38546 3.35025 3.32904 3.35025 4.42105C3.35025 4.92995 3.53048 5.82052 5.1844 6.47785L6.89133 7.16698C10.0189 8.43923 10.8883 10.2204 10.8883 12.1605C10.8883 15.3942 8.59826 17.61 5.41765 17.61C3.45627 17.61 2.29004 16.8679 1.42067 15.9031C0.508898 14.8853 0.0954184 13.7615 0 12.5952L2.5657 12.0333C2.5657 12.8709 2.87315 13.666 3.27603 14.1961C3.76373 14.8111 4.47406 15.2139 5.49186 15.2139C7.07157 15.2139 8.2908 14.0689 8.2908 12.362C8.2908 10.6551 6.96555 9.92352 5.85233 9.45703L4.21961 8.76789C2.82014 8.18478 0.763347 7.00795 0.763347 4.46346C0.763347 2.18402 2.54449 0 5.72511 0C7.55926 0 8.59826 0.689133 9.13896 1.14502C9.59485 1.5479 10.0825 2.14161 10.4324 2.85195L8.34381 4.07119Z" fill="white"/>
<path d="M23.5894 14.8324C23.1335 15.6487 22.4656 16.3591 21.787 16.7937C20.9177 17.3556 19.7726 17.6101 18.6276 17.6101C17.2069 17.6101 16.0301 17.2496 15.0123 16.2318C13.9945 15.214 13.4326 13.7403 13.4326 12.1394C13.4326 10.5385 14.0157 8.88461 15.1395 7.73959C16.0301 6.84902 17.1963 6.28711 18.723 6.28711C20.43 6.28711 21.522 7.02925 22.1581 7.68658C23.5364 9.10725 23.6636 11.1004 23.6636 12.2137V12.5211H15.9771C16.0301 13.2845 16.3588 14.1538 16.8889 14.6839C17.472 15.267 18.1823 15.3731 18.7973 15.3731C19.4864 15.3731 19.9953 15.2246 20.5042 14.843C20.9389 14.5143 21.2675 14.0796 21.5008 13.6767L23.5894 14.843V14.8324ZM21.1191 10.4855C21.0131 9.90241 20.7374 9.39351 20.3558 9.03304C20.0271 8.72558 19.4864 8.41812 18.6806 8.41812C17.8113 8.41812 17.26 8.77859 16.9207 9.10725C16.5602 9.43592 16.2846 9.94482 16.1573 10.4855H21.1191Z" fill="white"/>
<path d="M26.5371 6.56276H29.0286V7.55936C30.0994 6.36132 31.3186 6.28711 31.9336 6.28711C33.9161 6.28711 34.7537 7.2837 35.093 7.73959C35.4958 8.3227 35.7503 9.06485 35.7503 10.7188V17.2814H33.2588V11.3231C33.2588 8.59836 32.241 8.52414 31.2974 8.52414C30.1736 8.52414 29.0286 8.67257 29.0286 12.1394V17.2814H26.5371V6.56276Z" fill="white"/>
<path d="M47.0521 6.56262H49.5436V17.2707H47.0521V16.1469C45.9601 17.4191 44.6136 17.5994 43.8503 17.5994C40.5424 17.5994 38.6553 14.8534 38.6553 11.8955C38.6553 8.40738 41.0513 6.27637 43.8715 6.27637C44.656 6.27637 46.0343 6.47781 47.0521 7.80306V6.55202V6.56262ZM41.1998 11.9591C41.1998 13.8144 42.366 15.3729 44.1789 15.3729C45.7586 15.3729 47.2111 14.2279 47.2111 11.9909C47.2111 9.75384 45.7586 8.5346 44.1789 8.5346C42.3766 8.5346 41.1998 10.0613 41.1998 11.9697V11.9591Z" fill="white"/>
<path d="M62.287 0.307373V10.5383C62.287 11.4501 62.3082 12.5739 62.8171 13.4645C63.326 14.3339 64.471 15.2245 65.9765 15.2245C67.482 15.2245 68.627 14.3339 69.1359 13.4645C69.6448 12.5739 69.666 11.4501 69.666 10.5383V0.307373H72.2635V11.2275C72.2635 12.5739 71.9878 14.2067 70.6838 15.6273C69.7932 16.5921 68.2877 17.6099 65.9765 17.6099C63.6652 17.6099 62.1597 16.5921 61.2692 15.6273C59.9757 14.2067 59.6895 12.5739 59.6895 11.2275V0.307373H62.287Z" fill="white"/>
<path d="M85.7705 14.8324C85.3146 15.6487 84.6467 16.3591 83.9682 16.7937C83.0988 17.3556 81.9538 17.6101 80.8088 17.6101C79.3881 17.6101 78.2113 17.2496 77.1935 16.2318C76.1757 15.214 75.6138 13.7403 75.6138 12.1394C75.6138 10.5385 76.1969 8.88461 77.3207 7.73959C78.2113 6.84902 79.3775 6.28711 80.9042 6.28711C82.6111 6.28711 83.7031 7.02925 84.3393 7.68658C85.7175 9.10725 85.8447 11.1004 85.8447 12.2137V12.5211H78.1583C78.2113 13.2845 78.5399 14.1538 79.07 14.6839C79.6532 15.267 80.3635 15.3731 80.9784 15.3731C81.6675 15.3731 82.1764 15.2246 82.6853 14.843C83.12 14.5143 83.4487 14.0796 83.6819 13.6767L85.7705 14.843V14.8324ZM83.3109 10.4855C83.2048 9.90241 82.9292 9.39351 82.5475 9.03304C82.2188 8.72558 81.6781 8.41812 80.8724 8.41812C80.003 8.41812 79.4517 8.77859 79.1124 9.10725C78.752 9.43592 78.4763 9.94482 78.3491 10.4855H83.3109Z" fill="white"/>
<path d="M88.7285 6.56276H91.22V7.55936C92.2908 6.36132 93.51 6.28711 94.125 6.28711C96.1075 6.28711 96.9451 7.2837 97.2844 7.73959C97.6872 8.3227 97.9417 9.06485 97.9417 10.7188V17.2814H95.4502V11.3231C95.4502 8.59836 94.4324 8.52414 93.4888 8.52414C92.365 8.52414 91.22 8.67257 91.22 12.1394V17.2814H88.7285V6.56276Z" fill="white"/>
<path d="M112.286 11.938C112.286 15.2246 109.795 17.6101 106.561 17.6101C103.327 17.6101 100.836 15.214 100.836 11.938C100.836 8.66197 103.327 6.28711 106.561 6.28711C109.795 6.28711 112.286 8.63016 112.286 11.938ZM109.742 11.9592C109.742 9.52073 108.141 8.52414 106.561 8.52414C104.981 8.52414 103.38 9.52073 103.38 11.9592C103.38 14.016 104.6 15.3731 106.561 15.3731C108.522 15.3731 109.742 14.0266 109.742 11.9592Z" fill="white"/>
</svg>
