<svg width="107" height="19" viewBox="0 0 107 19" fill="none" xmlns="http://www.w3.org/2000/svg">
<path d="M0 17.5L3.36 0.290039L8.93 12.72L14.54 0.290039L17.56 17.5H15.06L13.43 7.85004L8.77 18.24L4.18 7.82004L2.5 17.49H0V17.5Z" fill="white"/>
<path d="M21.9602 1.69995C22.8202 1.69995 23.4702 2.34995 23.4702 3.20995C23.4702 4.06995 22.8202 4.71995 21.9602 4.71995C21.1002 4.71995 20.4502 4.06995 20.4502 3.20995C20.4502 2.34995 21.1002 1.69995 21.9602 1.69995ZM23.1402 7.38995V17.49H20.7902V7.38995H23.1402Z" fill="white"/>
<path d="M26.3999 0H28.7499V8.26C29.7599 7.23 30.8599 7.13 31.4599 7.13C33.3099 7.13 34.1499 8.09 34.4399 8.5C35.0599 9.41 35.0899 10.59 35.0899 11.31V17.5H32.7399V11.52C32.7399 10.92 32.7399 10.27 32.2799 9.77C32.0199 9.48 31.5599 9.24 30.9599 9.24C30.1699 9.24 29.5399 9.62 29.2299 10.08C28.8899 10.56 28.7499 11.33 28.7499 12.62V17.49H26.3999V0Z" fill="white"/>
<path d="M48.6198 12.4599C48.6198 15.5599 46.2698 17.8099 43.2198 17.8099C40.1698 17.8099 37.8198 15.5499 37.8198 12.4599C37.8198 9.36988 40.1698 7.12988 43.2198 7.12988C46.2698 7.12988 48.6198 9.33988 48.6198 12.4599ZM46.2198 12.4799C46.2198 10.1799 44.7098 9.23988 43.2198 9.23988C41.7298 9.23988 40.2198 10.1799 40.2198 12.4799C40.2198 14.4199 41.3698 15.6999 43.2198 15.6999C45.0698 15.6999 46.2198 14.4299 46.2198 12.4799Z" fill="white"/>
<path d="M60.1202 7.86999L66.3102 1.48999H69.5302L62.3102 8.73999L69.5802 17.5H66.3202L60.6102 10.4L60.1302 10.88V17.5H57.6802V1.48999H60.1302V7.86999H60.1202Z" fill="white"/>
<path d="M73.9398 7.38989V13.1699C73.9398 13.7699 73.9599 14.4699 74.3699 14.9899C74.6799 15.3999 75.2299 15.6899 75.9099 15.6899C76.5899 15.6899 77.1298 15.3999 77.4498 14.9899C77.8598 14.4599 77.8798 13.7699 77.8798 13.1699V7.38989H80.2299V13.2499C80.2299 14.5499 80.0898 15.6299 79.1498 16.5599C78.2098 17.4899 76.9898 17.8099 75.8598 17.8099C74.8298 17.8099 73.5798 17.4999 72.6698 16.5599C71.7298 15.6199 71.5898 14.5399 71.5898 13.2499V7.38989H73.9398Z" fill="white"/>
<path d="M83.4902 7.39012H85.8402V8.30012C86.1002 7.99012 86.4902 7.65012 86.8202 7.46012C87.2802 7.20012 87.7302 7.12012 88.2602 7.12012C88.8402 7.12012 89.4602 7.22012 90.1102 7.60012L89.1502 9.74012C88.6202 9.40012 88.1902 9.38012 87.9502 9.38012C87.4502 9.38012 86.9402 9.45012 86.4902 9.93012C85.8402 10.6301 85.8402 11.5901 85.8402 12.2601V17.4901H83.4902V7.39012Z" fill="white"/>
<path d="M92.9299 1.69995C93.7899 1.69995 94.4399 2.34995 94.4399 3.20995C94.4399 4.06995 93.7899 4.71995 92.9299 4.71995C92.0699 4.71995 91.4199 4.06995 91.4199 3.20995C91.4199 2.34995 92.0699 1.69995 92.9299 1.69995ZM94.0999 7.38995V17.49H91.7499V7.38995H94.0999Z" fill="white"/>
<path d="M99.7201 7.38989V13.1699C99.7201 13.7699 99.7401 14.4699 100.15 14.9899C100.46 15.3999 101.01 15.6899 101.69 15.6899C102.37 15.6899 102.91 15.3999 103.23 14.9899C103.64 14.4599 103.66 13.7699 103.66 13.1699V7.38989H106.01V13.2499C106.01 14.5499 105.87 15.6299 104.93 16.5599C104.02 17.4699 102.77 17.8099 101.64 17.8099C100.61 17.8099 99.3601 17.4999 98.4501 16.5599C97.5101 15.6199 97.3701 14.5399 97.3701 13.2499V7.38989H99.7201Z" fill="white"/>
</svg>
