<svg width="158" height="19" viewBox="0 0 158 19" fill="none" xmlns="http://www.w3.org/2000/svg">
<path d="M2.45 1.48999V17.5H0V1.48999H2.45Z" fill="white"/>
<path d="M8.57023 9.54994V17.4899H6.22023V9.54994H5.24023V7.38994H6.22023V3.68994H8.57023V7.38994H10.3702V9.54994H8.57023Z" fill="white"/>
<path d="M16.6598 10.0599C16.4198 9.67989 15.9598 9.19989 15.2198 9.19989C14.8798 9.19989 14.6398 9.31989 14.4998 9.45989C14.3798 9.57989 14.2798 9.76989 14.2798 9.98989C14.2798 10.2499 14.3998 10.4199 14.6198 10.5699C14.7598 10.6699 14.9098 10.7099 15.4098 10.9799L16.6098 11.5799C17.1398 11.8399 17.6398 12.1099 18.0298 12.5199C18.5798 13.0699 18.7698 13.6999 18.7698 14.3899C18.7698 15.2999 18.4298 16.0899 17.8798 16.6899C17.0898 17.5499 16.0998 17.8199 15.0498 17.8199C14.3998 17.8199 13.5898 17.7199 12.8698 17.1699C12.2898 16.7399 11.8098 16.0399 11.5698 15.3199L13.4898 14.4099C13.6098 14.7499 13.8298 15.1799 14.0398 15.3699C14.1798 15.5099 14.5198 15.7499 15.0698 15.7499C15.4298 15.7499 15.8098 15.6299 16.0298 15.4099C16.2198 15.2199 16.3698 14.9099 16.3698 14.6199C16.3698 14.3299 16.2698 14.0899 16.0598 13.8499C15.7698 13.5599 15.4398 13.3899 15.0498 13.2299L14.1898 12.8199C13.7298 12.5999 13.1798 12.3399 12.7998 11.9599C12.2698 11.4599 12.0798 10.8999 12.0798 10.2599C12.0798 9.43989 12.3898 8.64989 12.9198 8.09989C13.3798 7.61989 14.1398 7.13989 15.3898 7.13989C16.1098 7.13989 16.6898 7.27989 17.2598 7.66989C17.5998 7.88989 18.0498 8.26989 18.4098 8.91989L16.6598 10.0699V10.0599Z" fill="white"/>
<path d="M23.5199 7.38989V13.1699C23.5199 13.7699 23.5399 14.4699 23.9499 14.9899C24.2599 15.3999 24.8099 15.6899 25.4899 15.6899C26.1699 15.6899 26.7099 15.3999 27.0299 14.9899C27.4399 14.4599 27.4599 13.7699 27.4599 13.1699V7.38989H29.8099V13.2499C29.8099 14.5499 29.6699 15.6299 28.7299 16.5599C27.8199 17.4699 26.5699 17.8099 25.4399 17.8099C24.4099 17.8099 23.1599 17.4999 22.2499 16.5599C21.3099 15.6199 21.1699 14.5399 21.1699 13.2499V7.38989H23.5199Z" fill="white"/>
<path d="M35.4201 0V10.78L38.7101 7.4H41.8301L37.4901 11.6L42.1501 17.5H39.1701L35.8601 13.18L35.4301 13.61V17.5H33.0801V0H35.4301H35.4201Z" fill="white"/>
<path d="M45.1399 1.69995C45.9999 1.69995 46.6499 2.34995 46.6499 3.20995C46.6499 4.06995 45.9999 4.71995 45.1399 4.71995C44.2799 4.71995 43.6299 4.06995 43.6299 3.20995C43.6299 2.34995 44.2799 1.69995 45.1399 1.69995ZM46.3199 7.38995V17.49H43.9699V7.38995H46.3199Z" fill="white"/>
<path d="M55.8901 17.4999V0.409912L67.5101 12.5799V1.48991H69.9601V18.4799L58.3401 6.30991V17.4899H55.8901V17.4999Z" fill="white"/>
<path d="M81.0499 7.39012H83.3999V17.4901H81.0499V16.4301C80.0199 17.6301 78.7499 17.8001 78.0299 17.8001C74.9099 17.8001 73.1299 15.2101 73.1299 12.4201C73.1299 9.13012 75.3899 7.12012 78.0499 7.12012C78.7899 7.12012 80.0899 7.31012 81.0499 8.56012V7.38012V7.39012ZM75.5299 12.4801C75.5299 14.2301 76.6299 15.7001 78.3399 15.7001C79.8299 15.7001 81.1999 14.6201 81.1999 12.5101C81.1999 10.4001 79.8299 9.25012 78.3399 9.25012C76.6399 9.25012 75.5299 10.6901 75.5299 12.4901V12.4801Z" fill="white"/>
<path d="M89.0099 0V10.78L92.2999 7.4H95.4199L91.0799 11.6L95.7399 17.5H92.7599L89.4499 13.18L89.0199 13.61V17.5H86.6699V0H89.0199H89.0099Z" fill="white"/>
<path d="M104.95 7.39012H107.3V17.4901H104.95V16.4301C103.92 17.6301 102.65 17.8001 101.93 17.8001C98.8098 17.8001 97.0298 15.2101 97.0298 12.4201C97.0298 9.13012 99.2898 7.12012 101.95 7.12012C102.69 7.12012 103.99 7.31012 104.95 8.56012V7.38012V7.39012ZM99.4298 12.4801C99.4298 14.2301 100.53 15.7001 102.24 15.7001C103.73 15.7001 105.1 14.6201 105.1 12.5101C105.1 10.4001 103.73 9.25012 102.24 9.25012C100.54 9.25012 99.4298 10.6901 99.4298 12.4901V12.4801Z" fill="white"/>
<path d="M110.57 7.38988H112.92V8.32988C113.71 7.36988 114.65 7.12988 115.42 7.12988C116.48 7.12988 117.46 7.62988 118.04 8.61988C118.88 7.41988 120.15 7.12988 121.04 7.12988C122.26 7.12988 123.34 7.70988 123.92 8.70988C124.11 9.04988 124.45 9.78988 124.45 11.2499V17.4899H122.1V11.9199C122.1 10.7899 121.98 10.3399 121.88 10.1199C121.74 9.73988 121.38 9.22988 120.54 9.22988C119.96 9.22988 119.46 9.53988 119.15 9.96988C118.74 10.5499 118.69 11.4099 118.69 12.2699V17.4799H116.34V11.9099C116.34 10.7799 116.22 10.3299 116.12 10.1099C115.98 9.72988 115.62 9.21988 114.78 9.21988C114.2 9.21988 113.7 9.52988 113.39 9.95988C112.98 10.5399 112.93 11.3999 112.93 12.2599V17.4699H110.58V7.38988H110.57Z" fill="white"/>
<path d="M130.05 7.38989V13.1699C130.05 13.7699 130.07 14.4699 130.48 14.9899C130.79 15.3999 131.34 15.6899 132.02 15.6899C132.7 15.6899 133.24 15.3999 133.56 14.9899C133.97 14.4599 133.99 13.7699 133.99 13.1699V7.38989H136.34V13.2499C136.34 14.5499 136.2 15.6299 135.26 16.5599C134.32 17.4899 133.1 17.8099 131.97 17.8099C130.94 17.8099 129.69 17.4999 128.78 16.5599C127.84 15.6199 127.7 14.5399 127.7 13.2499V7.38989H130.05Z" fill="white"/>
<path d="M139.6 7.39012H141.95V8.30012C142.21 7.99012 142.6 7.65012 142.93 7.46012C143.39 7.20012 143.84 7.12012 144.37 7.12012C144.95 7.12012 145.57 7.22012 146.22 7.60012L145.26 9.74012C144.73 9.40012 144.3 9.38012 144.06 9.38012C143.56 9.38012 143.05 9.45012 142.6 9.93012C141.95 10.6301 141.95 11.5901 141.95 12.2601V17.4901H139.6V7.39012Z" fill="white"/>
<path d="M155.25 7.39012H157.6V17.4901H155.25V16.4301C154.22 17.6301 152.95 17.8001 152.23 17.8001C149.11 17.8001 147.33 15.2101 147.33 12.4201C147.33 9.13012 149.59 7.12012 152.25 7.12012C152.99 7.12012 154.29 7.31012 155.25 8.56012V7.38012V7.39012ZM149.73 12.4801C149.73 14.2301 150.83 15.7001 152.54 15.7001C154.03 15.7001 155.4 14.6201 155.4 12.5101C155.4 10.4001 154.03 9.25012 152.54 9.25012C150.84 9.25012 149.73 10.6901 149.73 12.4901V12.4801Z" fill="white"/>
</svg>
