<?xml version="1.0" encoding="UTF-8"?>
<svg id="_レイヤー_2" data-name="レイヤー 2" xmlns="http://www.w3.org/2000/svg" viewBox="0 0 340 43.93">
  <defs>
    <style>
      .cls-1 {
        stroke-width: .85px;
      }

      .cls-1, .cls-2 {
        fill: none;
        stroke: #fff;
        stroke-miterlimit: 10;
      }

      .cls-2 {
        stroke-width: .85px;
      }

      .cls-3 {
        fill: #fff;
      }
    </style>
  </defs>
  <g id="_レイヤー_4" data-name="レイヤー 4">
    <g>
      <line class="cls-2" y1="43.5" x2="340" y2="43.5"/>
      <g>
        <path class="cls-1" d="M85.7,6.1c-1.33-1.77-2.89-1.94-3.71-1.94-2.38,0-3.13,1.5-3.13,2.65,0,.54.17,1.05.71,1.53.54.51,1.29.78,2.72,1.29,1.77.61,3.43,1.22,4.59,2.28,1.02.92,1.94,2.45,1.94,4.76,0,4.42-3.2,7.45-7.89,7.45-4.18,0-6.63-2.55-7.82-4.28l2.89-2.75c1.09,2.21,3.16,3.03,4.76,3.03,2.01,0,3.5-1.22,3.5-3.13,0-.82-.27-1.46-.88-2.04-.85-.78-2.21-1.22-3.5-1.67-1.19-.41-2.62-.95-3.77-1.97-.75-.65-1.8-1.9-1.8-4.21,0-3.33,2.24-6.66,7.28-6.66,1.43,0,4.11.27,6.42,2.65l-2.31,3.03Z"/>
        <path class="cls-1" d="M96.92,8.89v8.33c0,.78.07,1.84.88,2.58.51.44,1.33.75,2.11.75s1.6-.31,2.11-.75c.82-.75.88-1.8.88-2.58v-8.33h4.15v9.01c0,1.33-.17,3.09-1.8,4.52-1.36,1.19-3.54,1.67-5.34,1.67s-3.98-.48-5.34-1.67c-1.63-1.43-1.8-3.2-1.8-4.52v-9.01h4.15Z"/>
        <path class="cls-1" d="M115.83,31.4h-4.15V8.89h4.15v1.9c.65-.92,2.07-2.38,4.79-2.38,1.29,0,3.37.31,5.03,1.97,1.09,1.09,2.21,2.92,2.21,5.85,0,3.33-1.46,5.13-2.31,5.95-1.12,1.05-2.82,1.9-5,1.9-1.02,0-3.09-.17-4.73-2.38v9.69ZM116.81,13.07c-.92.78-1.39,1.8-1.39,3.16s.54,2.48,1.36,3.2c.54.48,1.43.99,2.72.99,1.36,0,2.24-.54,2.79-1.05.88-.82,1.29-2.04,1.29-3.13s-.44-2.31-1.26-3.09c-.75-.68-1.83-1.05-2.82-1.05-1.09,0-1.94.31-2.69.99Z"/>
        <path class="cls-1" d="M135.89,31.4h-4.15V8.89h4.15v1.9c.65-.92,2.07-2.38,4.79-2.38,1.29,0,3.37.31,5.03,1.97,1.09,1.09,2.21,2.92,2.21,5.85,0,3.33-1.46,5.13-2.31,5.95-1.12,1.05-2.82,1.9-5,1.9-1.02,0-3.09-.17-4.73-2.38v9.69ZM136.87,13.07c-.92.78-1.39,1.8-1.39,3.16s.54,2.48,1.36,3.2c.54.48,1.43.99,2.72.99,1.36,0,2.24-.54,2.79-1.05.88-.82,1.29-2.04,1.29-3.13s-.44-2.31-1.26-3.09c-.75-.68-1.83-1.05-2.82-1.05-1.09,0-1.94.31-2.69.99Z"/>
        <path class="cls-1" d="M165.43,10.49c1.46,1.33,2.48,3.37,2.48,5.78s-1.02,4.42-2.48,5.75c-1.26,1.16-3.16,2.07-5.95,2.07s-4.69-.92-5.95-2.07c-1.46-1.33-2.48-3.37-2.48-5.75s1.02-4.45,2.48-5.78c1.26-1.16,3.16-2.07,5.95-2.07s4.69.92,5.95,2.07ZM163.63,16.27c0-2.31-1.77-4.18-4.15-4.18s-4.15,1.87-4.15,4.18,1.73,4.15,4.15,4.15,4.15-1.9,4.15-4.15Z"/>
        <path class="cls-1" d="M171.79,8.89h4.15v2.21c.65-1.26,1.53-1.87,1.84-2.04.65-.41,1.46-.65,2.45-.65.71,0,1.29.17,1.77.34l-.54,3.88c-.54-.37-1.09-.54-1.94-.54-.78,0-1.94.17-2.75,1.19-.78.99-.82,2.24-.82,3.26v7.07h-4.15v-14.72Z"/>
        <path class="cls-1" d="M188.86,12.43v11.18h-4.15v-11.18h-1.63v-3.54h1.63V3.86h4.15v5.03h2.86v3.54h-2.86Z"/>
        <path class="cls-3" d="M219.56,22.8c-1.36.71-3.16,1.33-5.61,1.33-3.98,0-6.39-1.36-8.29-3.16-2.62-2.52-3.64-5.34-3.64-8.67,0-4.11,1.7-7.07,3.64-8.87,2.28-2.14,5.1-2.99,8.33-2.99,1.6,0,3.5.27,5.58,1.39v5.17c-2.07-2.38-4.66-2.55-5.47-2.55-4.56,0-7.51,3.74-7.51,7.92,0,5.03,3.88,7.75,7.68,7.75,2.11,0,3.98-.92,5.3-2.48v5.17Z"/>
        <path class="cls-3" d="M222.69,8.89h4.15v2.21c.65-1.26,1.53-1.87,1.84-2.04.65-.41,1.46-.65,2.45-.65.71,0,1.29.17,1.77.34l-.54,3.88c-.54-.37-1.09-.54-1.94-.54-.78,0-1.94.17-2.75,1.19-.78.99-.82,2.24-.82,3.26v7.07h-4.15v-14.72Z"/>
        <path class="cls-3" d="M249.03,19.5c-.44,1.09-2.11,4.59-7.24,4.59-2.38,0-4.18-.68-5.64-2.07-1.63-1.53-2.31-3.43-2.31-5.75,0-2.92,1.19-4.73,2.24-5.78,1.73-1.7,3.77-2.07,5.54-2.07,2.99,0,4.73,1.19,5.75,2.41,1.56,1.87,1.77,4.18,1.77,5.78v.34h-11.01c0,.88.24,1.84.71,2.48.44.61,1.36,1.39,2.96,1.39s2.75-.75,3.43-1.94l3.81.61ZM245.23,14.3c-.34-2.01-1.97-2.96-3.5-2.96s-3.13.99-3.47,2.96h6.97Z"/>
        <path class="cls-3" d="M259.61,23.61h-2.04l-7.48-14.72h4.62l3.88,8.5,3.94-8.5h1.9l3.94,8.5,3.88-8.5h4.62l-7.48,14.72h-2.04l-3.88-8.67-3.88,8.67Z"/>
      </g>
    </g>
  </g>
</svg>