<?xml version="1.0" encoding="UTF-8"?>
<svg id="_レイヤー_2" data-name="レイヤー 2" xmlns="http://www.w3.org/2000/svg" viewBox="0 0 297.69 231.67">
  <defs>
    <style>
      .cls-1 {
        stroke-dasharray: 0 3.23;
      }

      .cls-1, .cls-2, .cls-3, .cls-4, .cls-5, .cls-6, .cls-7, .cls-8, .cls-9, .cls-10, .cls-11 {
        fill: none;
      }

      .cls-1, .cls-2, .cls-3, .cls-4, .cls-8, .cls-9, .cls-11 {
        stroke-linecap: round;
        stroke-linejoin: round;
      }

      .cls-1, .cls-2, .cls-5, .cls-6, .cls-7, .cls-9, .cls-10, .cls-11 {
        stroke: #ccc;
      }

      .cls-1, .cls-9, .cls-11 {
        stroke-width: 1.42px;
      }

      .cls-2 {
        stroke-width: 3.23px;
      }

      .cls-3 {
        stroke: #004639;
        stroke-width: .75px;
      }

      .cls-12 {
        fill: #4d4d4d;
      }

      .cls-4 {
        stroke: #fff;
        stroke-width: .43px;
      }

      .cls-13, .cls-14, .cls-15 {
        fill: #fff;
      }

      .cls-5 {
        stroke-width: .69px;
      }

      .cls-6 {
        stroke-width: .92px;
      }

      .cls-16 {
        fill: #004639;
      }

      .cls-7 {
        stroke-width: .82px;
      }

      .cls-7, .cls-14, .cls-15 {
        stroke-miterlimit: 10;
      }

      .cls-8 {
        stroke-width: .44px;
      }

      .cls-8, .cls-14, .cls-15 {
        stroke: #231815;
      }

      .cls-14 {
        stroke-linecap: square;
        stroke-width: .31px;
      }

      .cls-10 {
        stroke-width: 2.19px;
      }

      .cls-15 {
        stroke-width: .47px;
      }

      .cls-11 {
        stroke-dasharray: 0 3.25;
      }
    </style>
  </defs>
  <g id="_レイヤー_3" data-name="レイヤー 3">
    <g>
      <g>
        <path class="cls-2" d="M1.93,25.39s1.64,1.9,3.65,4.22c2.01,2.32,3.65,7.12,3.65,10.67v47.41c0,3.55,2.9,6.45,6.45,6.45h170.3c3.55,0,6.45,2.9,6.45,6.45v71.95c0,3.55,2.42,6.45,5.38,6.45h5.38"/>
        <rect class="cls-14" x="203.11" y="112.46" width="94.19" height="84.41"/>
        <rect class="cls-16" x="44.62" y="65.48" width="46.09" height="14.03" rx="3" ry="3"/>
        <line class="cls-2" x1="117.5" y1="1.96" x2="117.5" y2="197.75"/>
        <circle class="cls-12" cx="192.42" cy="163.9" r="1.04"/>
        <circle class="cls-12" cx="117.5" cy="167.03" r="1.04"/>
        <path class="cls-1" d="M36.93,171.04v-63.73c0-3.55,2.9-6.45,6.45-6.45h62.2c3.55,0,6.45,2.9,6.45,6.45v18.58c0,3.55-2.9,6.45-6.45,6.45h-7.58c-3.55,0-6.45,2.9-6.45,6.45v34.38"/>
        <path class="cls-2" d="M184.48,1.61v29.18c0,3.55-2.9,6.45-6.45,6.45h-40.2c-3.55,0-6.45,2.9-6.45,6.45v76.99c0,3.55,2.05,8.5,4.56,11.01l13.26,13.26c2.51,2.51,4.56,7.46,4.56,11.01v14.03"/>
        <circle class="cls-12" cx="139.91" cy="37.05" r="1.04"/>
        <circle class="cls-12" cx="159.82" cy="37.05" r="1.04"/>
        <rect class="cls-15" x="106.78" y="70.82" width="34.87" height="10.26" rx="5.13" ry="5.13"/>
        <rect class="cls-15" x="106.78" y="88.77" width="34.87" height="10.26" rx="5.13" ry="5.13"/>
        <circle class="cls-12" cx="131.47" cy="120.78" r="1.04"/>
        <circle class="cls-12" cx="136.92" cy="132.73" r="1.04"/>
        <circle class="cls-12" cx="147.83" cy="143.64" r="1.04"/>
        <circle class="cls-12" cx="153.09" cy="151.51" r="1.04"/>
        <circle class="cls-12" cx="153.66" cy="162.03" r="1.04"/>
        <circle class="cls-12" cx="153" cy="94.04" r="1.04"/>
        <circle class="cls-12" cx="192.42" cy="104.47" r="1.04"/>
        <circle class="cls-12" cx="192.42" cy="119.55" r="1.04"/>
        <circle class="cls-12" cx="192.42" cy="149.61" r="1.04"/>
        <circle class="cls-12" cx="44.42" cy="94.09" r="1.04"/>
        <circle class="cls-12" cx="9.24" cy="74.41" r="1.04"/>
        <circle class="cls-12" cx="9.24" cy="52.51" r="1.04"/>
        <circle class="cls-12" cx="8.76" cy="37.33" r="1.04"/>
        <circle class="cls-12" cx="117.51" cy="12.29" r="1.06"/>
        <circle class="cls-12" cx="117.5" cy="27.38" r="1.04"/>
        <circle class="cls-12" cx="117.5" cy="41.22" r="1.04"/>
        <circle class="cls-12" cx="117.5" cy="128.65" r="1.04"/>
        <line class="cls-3" x1="60.69" y1="79.58" x2="72.07" y2="92.8"/>
        <line class="cls-3" x1="180.85" y1="121.72" x2="193.52" y2="135.53"/>
        <line class="cls-3" x1="158.7" y1="79.53" x2="170.92" y2="92.8"/>
        <line class="cls-3" x1="14.33" y1="79.02" x2="26.05" y2="92.27"/>
        <circle class="cls-16" cx="26.69" cy="94.34" r="2.47"/>
        <circle class="cls-16" cx="72.77" cy="94.34" r="2.47"/>
        <circle class="cls-16" cx="172.34" cy="94.63" r="2.47"/>
        <circle class="cls-16" cx="192.25" cy="134.74" r="2.47"/>
        <line class="cls-10" x1="202.95" y1="128.26" x2="297.31" y2="128.26"/>
        <line class="cls-6" x1="208.42" y1="127.55" x2="208.42" y2="184.64"/>
        <line class="cls-6" x1="281" y1="127.55" x2="281" y2="184.64"/>
        <line class="cls-6" x1="267.54" y1="127.55" x2="267.54" y2="184.64"/>
        <line class="cls-6" x1="248.78" y1="127.55" x2="248.78" y2="184.64"/>
        <g>
          <line class="cls-9" x1="204.75" y1="184.17" x2="204.75" y2="184.17"/>
          <line class="cls-11" x1="207.99" y1="184.17" x2="294.05" y2="184.17"/>
          <line class="cls-9" x1="295.68" y1="184.17" x2="295.68" y2="184.17"/>
        </g>
        <rect class="cls-15" x="250.82" y="179.04" width="42.23" height="10.26" rx="5.13" ry="5.13"/>
        <line class="cls-3" x1="217.41" y1="135.02" x2="225.25" y2="143.77"/>
        <path class="cls-12" d="M295.13,164.88c0,.58-.63.72-1.39.32s-2.02-.4-2.78,0-2.02.4-2.78,0-2.02-.4-2.78,0-2.02.4-2.78,0-2.02-.4-2.78,0-2.02.4-2.78,0-2.02-.4-2.78,0-2.02.4-2.78,0-2.02-.4-2.78,0-2.02.4-2.78,0-2.02-.4-2.78,0-2.02.4-2.78,0-2.02-.4-2.78,0-2.02.4-2.78,0-2.02-.4-2.78,0-2.02.4-2.78,0-2.02-.4-2.78,0-2.02.4-2.78,0-2.02-.4-2.78,0-2.02.4-2.78,0-2.02-.4-2.78,0-2.02.4-2.78,0-2.02-.4-2.78,0-2.02.4-2.78,0-2.02-.4-2.78,0-2.02.4-2.78,0-2.02-.4-2.78,0-2.02.4-2.78,0-2.02-.4-2.78,0-2.02.4-2.78,0-2.02-.4-2.78,0-1.39.25-1.39-.32.19-1.15.43-1.27l1.39-.73c.53-.28,1.59-.17,2.35.22s2.02.4,2.78,0,2.02-.4,2.78,0,2.02.4,2.78,0,2.02-.4,2.78,0,2.02.4,2.78,0,2.02-.4,2.78,0,2.02.4,2.78,0,2.02-.4,2.78,0,2.02.4,2.78,0,2.02-.4,2.78,0,2.02.4,2.78,0,2.02-.4,2.78,0,2.02.4,2.78,0,2.02-.4,2.78,0,2.02.4,2.78,0,2.02-.4,2.78,0,2.02.4,2.78,0,2.02-.4,2.78,0,2.02.4,2.78,0,2.02-.4,2.78,0,2.02.4,2.78,0,2.02-.4,2.78,0,2.02.4,2.78,0,2.02-.4,2.78,0,2.02.4,2.78,0,2.02-.4,2.78,0,2.02.4,2.78,0,2.02-.4,2.78,0,2.02.4,2.78,0,2.02-.4,2.78,0,1.39,1.2,1.39,1.78Z"/>
        <g>
          <path class="cls-4" d="M206.13,165.93l1.39-.73c.76-.4,2.02-.4,2.78,0s2.02.4,2.78,0,2.02-.4,2.78,0,2.02.4,2.78,0,2.02-.4,2.78,0,2.02.4,2.78,0,2.02-.4,2.78,0,2.02.4,2.78,0,2.02-.4,2.78,0,2.02.4,2.78,0,2.02-.4,2.78,0,2.02.4,2.78,0,2.02-.4,2.78,0,2.02.4,2.78,0,2.02-.4,2.78,0,2.02.4,2.78,0,2.02-.4,2.78,0,2.02.4,2.78,0,2.02-.4,2.78,0,2.02.4,2.78,0,2.02-.4,2.78,0,2.02.4,2.78,0,2.02-.4,2.78,0,2.02.4,2.78,0,2.02-.4,2.78,0,2.02.4,2.78,0,2.02-.4,2.78,0,2.02.4,2.78,0,2.02-.4,2.78,0,2.02.4,2.78,0,2.02-.4,2.78,0l1.39.73"/>
          <path class="cls-4" d="M206.13,163.83l.43-.22,1.39-.73c.53-.28,1.59-.17,2.35.22s2.02.4,2.78,0,2.02-.4,2.78,0,2.02.4,2.78,0,2.02-.4,2.78,0,2.02.4,2.78,0,2.02-.4,2.78,0,2.02.4,2.78,0,2.02-.4,2.78,0,2.02.4,2.78,0,2.02-.4,2.78,0,2.02.4,2.78,0,2.02-.4,2.78,0,2.02.4,2.78,0,2.02-.4,2.78,0,2.02.4,2.78,0,2.02-.4,2.78,0,2.02.4,2.78,0,2.02-.4,2.78,0,2.02.4,2.78,0,2.02-.4,2.78,0,2.02.4,2.78,0,2.02-.4,2.78,0,2.02.4,2.78,0,2.02-.4,2.78,0,2.02.4,2.78,0,2.02-.4,2.78,0,2.02.4,2.78,0,2.02-.4,2.78,0,2.02.4,2.78,0,2.02-.4,2.78,0l1.39.73"/>
        </g>
        <line class="cls-5" x1="241.04" y1="128.36" x2="241.04" y2="138.15"/>
        <line class="cls-5" x1="249.19" y1="171.59" x2="296.49" y2="171.59"/>
        <polyline class="cls-1" points="295.56 60.16 83.86 60.16 6.86 12.88"/>
        <rect class="cls-15" x="103.96" y="55.19" width="42.23" height="10.26" rx="5.13" ry="5.13"/>
        <line class="cls-3" x1="42.35" y1="28.31" x2="50.24" y2="37.9"/>
        <circle class="cls-16" cx="50.82" cy="39.63" r="2.47"/>
        <rect class="cls-16" x="12.68" y="65.48" width="26.88" height="14.03" rx="3" ry="3"/>
        <rect class="cls-16" x="36.13" y="14.34" width="26.88" height="14.03" rx="3" ry="3"/>
        <rect class="cls-16" x="146.4" y="65.48" width="26.88" height="14.03" rx="3" ry="3"/>
        <rect class="cls-16" x="141.91" y="112.88" width="46.09" height="14.03" rx="3" ry="3"/>
        <rect class="cls-16" x="216.22" y="141.97" width="41.63" height="14.03" rx="3" ry="3"/>
        <g>
          <path class="cls-13" d="M126.45,179.21c-5.29,3.42-10.58-3.42-15.87,0v-3.29c5.29-3.42,10.58,3.42,15.87,0v3.29Z"/>
          <path class="cls-8" d="M126.45,179.21c-5.29,3.42-10.58-3.42-15.87,0M110.59,175.92c5.29-3.42,10.58,3.42,15.87,0"/>
        </g>
        <line class="cls-3" x1="105.33" y1="176.89" x2="117.2" y2="189.8"/>
        <line class="cls-7" x1=".65" y1="207.71" x2="297.69" y2="207.71"/>
        <circle class="cls-12" cx="184.54" cy="30.61" r="1.04"/>
        <circle class="cls-12" cx="184.54" cy="15.46" r="1.04"/>
        <circle class="cls-16" cx="216.16" cy="134.21" r="2.47"/>
        <circle class="cls-16" cx="117.57" cy="190.4" r="2.47"/>
        <rect class="cls-16" x="74.13" y="168.7" width="32.64" height="14.03" rx="3" ry="3"/>
        <g>
          <path class="cls-12" d="M8.08,100.58v5.26c0,.76-.35.83-1.66.83-.03-.19-.14-.49-.25-.67.23,0,.46.01.64.01.57,0,.59,0,.59-.18v-1.98H2.84v2.82h-.67v-6.09h5.9ZM2.84,101.24v1.95h1.91v-1.95h-1.91ZM5.41,103.2h2v-1.95h-2v1.95Z"/>
          <path class="cls-12" d="M14.2,101.8l.85.06c0,.06-.05.1-.17.11v4.59h-.69v-.51h-4.31v.53h-.68v-4.77l.85.05c0,.06-.06.1-.17.11v3.4h1.77v-5.09l.87.05c0,.06-.06.1-.18.12v4.92h1.85v-3.57Z"/>
          <path class="cls-12" d="M18.53,100.58c-.03.06-.11.08-.19.08-.46,1.02-1.16,2.07-1.9,2.75-.14-.13-.41-.36-.59-.46.71-.6,1.42-1.62,1.81-2.64l.86.28ZM19.3,102.93c-.03.06-.1.1-.2.11-.32.79-.79,1.8-1.24,2.6.88-.03,1.88-.06,2.86-.1-.3-.45-.64-.91-.95-1.3l.64-.29c.64.76,1.34,1.74,1.69,2.4l-.68.36c-.08-.17-.19-.36-.31-.57-1.7.1-3.47.19-4.61.24-.01.06-.06.1-.13.1l-.27-.79c.29,0,.63-.01,1.01-.03.48-.85,1.01-2.06,1.3-2.97l.9.25ZM20.33,100.3c.45.88,1.3,1.95,1.95,2.54-.17.13-.43.39-.56.57-.66-.69-1.51-1.86-2.05-2.84l.66-.27Z"/>
          <path class="cls-12" d="M23.05,100.41h5.97v6.27h-.65v-.28h-4.69v.28h-.62v-6.27ZM23.67,105.79h4.69v-4.78h-4.69v4.78ZM27.62,103.94l.48.32s-.1.05-.15.04c-.19.13-.47.31-.73.46.31.16.66.29.99.38-.12.1-.27.3-.35.43-.6-.19-1.21-.55-1.66-.97v1.01h-.59v-.9c-.44.28-.95.52-1.44.69-.07-.11-.23-.31-.34-.41.62-.19,1.3-.5,1.79-.89h-1.13v-1.17h3.02v1.1l.1-.09ZM28.05,102.26v.4h-4.07v-.4h1.72v-.36h-1.32v-.39h1.32v-.38l.76.05c0,.06-.05.09-.16.11v.22h1.37v.39h-1.37v.36h1.74ZM25.06,103.29v.47h1.88v-.47h-1.88ZM26.4,104.11l-.03.03c.13.14.29.27.47.4.2-.13.42-.29.6-.43h-1.04Z"/>
        </g>
        <g>
          <path class="cls-12" d="M52.83,114.63c-.18-.1-.51-.24-.95-.24-.64,0-.9.37-.9.71,0,.46.3.68.98.97.86.38,1.27.85,1.27,1.58,0,.9-.67,1.57-1.87,1.57-.5,0-1.04-.15-1.3-.32l.18-.68c.29.18.72.32,1.16.32.64,0,.99-.33.99-.81,0-.46-.27-.74-.91-1-.8-.32-1.34-.81-1.34-1.53,0-.85.68-1.49,1.74-1.49.51,0,.9.13,1.13.25l-.2.67Z"/>
          <path class="cls-12" d="M56.76,118.24c0,.33,0,.67.06.92h-.74l-.06-.45h-.02c-.22.3-.6.53-1.08.53-.72,0-1.13-.53-1.13-1.13,0-.96.83-1.44,2.16-1.44,0-.29,0-.86-.78-.86-.34,0-.69.1-.94.27l-.17-.54c.27-.17.73-.32,1.25-.32,1.13,0,1.45.75,1.45,1.57v1.46ZM55.97,117.22c-.64,0-1.37.12-1.37.81,0,.43.27.62.57.62.44,0,.81-.34.81-.78v-.64Z"/>
          <path class="cls-12" d="M58.52,115.88c.27-.43.69-.67,1.23-.67.87,0,1.52.77,1.52,1.97,0,1.41-.82,2.05-1.63,2.05-.46,0-.84-.22-1.03-.53h-.01v2.02h-.81v-4.17c0-.5-.01-.9-.03-1.25h.71l.04.59h.01ZM58.59,117.6c0,.69.48.99.88.99.63,0,.97-.58.97-1.38,0-.74-.33-1.34-.95-1.34-.48,0-.9.46-.9,1.02v.71Z"/>
          <path class="cls-12" d="M62.81,115.88c.27-.43.69-.67,1.23-.67.87,0,1.52.77,1.52,1.97,0,1.41-.82,2.05-1.63,2.05-.46,0-.84-.22-1.03-.53h-.01v2.02h-.81v-4.17c0-.5-.01-.9-.03-1.25h.71l.04.59h.01ZM62.88,117.6c0,.69.48.99.88.99.63,0,.97-.58.97-1.38,0-.74-.33-1.34-.95-1.34-.48,0-.9.46-.9,1.02v.71Z"/>
          <path class="cls-12" d="M69.68,117.19c0,1.44-.94,2.04-1.81,2.04-1,0-1.77-.74-1.77-1.98s.8-2.04,1.82-2.04,1.75.8,1.75,1.98ZM67.9,115.82c-.69,0-.96.74-.96,1.41,0,.76.36,1.39.95,1.39s.95-.64.95-1.41c0-.64-.27-1.39-.95-1.39Z"/>
          <path class="cls-12" d="M72.42,116.01c-.07-.01-.15-.02-.24-.02-.55,0-.89.45-.89,1.12v2.04h-.81v-2.68c0-.45,0-.82-.03-1.18h.71l.03.71h.03c.17-.49.58-.79,1-.79.08,0,.13,0,.2.02v.78Z"/>
          <path class="cls-12" d="M76.37,117.19c0,1.44-.94,2.04-1.81,2.04-1,0-1.77-.74-1.77-1.98s.8-2.04,1.82-2.04,1.75.8,1.75,1.98ZM74.6,115.82c-.69,0-.96.74-.96,1.41,0,.76.36,1.39.95,1.39s.95-.64.95-1.41c0-.64-.27-1.39-.95-1.39Z"/>
          <path class="cls-12" d="M81.3,114.63c-.18-.1-.51-.24-.95-.24-.64,0-.9.37-.9.71,0,.46.3.68.98.97.86.38,1.27.85,1.27,1.58,0,.9-.67,1.57-1.87,1.57-.5,0-1.04-.15-1.3-.32l.18-.68c.29.18.72.32,1.16.32.64,0,.99-.33.99-.81,0-.46-.27-.74-.91-1-.8-.32-1.34-.81-1.34-1.53,0-.85.68-1.49,1.74-1.49.51,0,.9.13,1.13.25l-.2.67Z"/>
          <path class="cls-12" d="M85.71,119.16h-.81v-2.25c0-.55-.19-1.02-.74-1.02-.4,0-.83.33-.83.91v2.36h-.81v-5.62h.81v2.28h.01c.25-.4.69-.61,1.11-.61.58,0,1.25.39,1.25,1.61v2.33Z"/>
          <path class="cls-12" d="M87.13,114.7c-.28,0-.47-.21-.47-.47,0-.27.2-.48.48-.48s.47.2.47.48-.18.47-.48.47ZM87.54,119.16h-.81v-3.87h.81v3.87Z"/>
          <path class="cls-12" d="M91.8,118.13c0,.35.01.76.03,1.03h-.71l-.04-.6h-.02c-.2.39-.62.68-1.17.68-.88,0-1.54-.78-1.54-1.97,0-1.31.75-2.05,1.61-2.05.5,0,.85.22,1.02.52h.01v-2.19h.81v4.59ZM90.99,116.86c0-.63-.4-1-.85-1-.62,0-.97.62-.97,1.38s.34,1.34.95,1.34c.53,0,.87-.46.87-1v-.71Z"/>
          <path class="cls-12" d="M95.66,119c-.27.13-.7.23-1.23.23-1.16,0-1.83-.78-1.83-1.95s.64-2.07,1.74-2.07,1.52.9,1.52,1.86c0,.13,0,.25-.02.34h-2.45c.02.87.56,1.2,1.17,1.2.43,0,.72-.08.97-.18l.13.57ZM95.08,116.83c0-.46-.18-1.04-.81-1.04s-.85.59-.89,1.04h1.69Z"/>
          <path class="cls-12" d="M99.82,119.16h-.81v-2.26c0-.55-.18-1.01-.74-1.01-.4,0-.83.33-.83.95v2.33h-.81v-2.77c0-.43-.01-.76-.03-1.09h.71l.04.57h.02c.18-.33.59-.66,1.17-.66s1.27.39,1.27,1.58v2.36Z"/>
        </g>
        <g>
          <path class="cls-12" d="M107.4,132.16c0-.24-.02-.48-.06-.73.21-.02.57,0,.76.05,0,.13-.01.43-.01.8.95-.02,1.85-.05,2.18-.05.04.18.05.48.03.66-.43-.02-1.29-.01-2.22,0v.97c.22.29.32.7.32,1.2,0,.99-.53,2.11-1.69,2.56-.2-.07-.51-.33-.62-.5.62-.15,1.21-.55,1.48-1.21-.14.08-.31.13-.49.13-.64,0-1.2-.5-1.2-1.32s.56-1.3,1.22-1.3c.12,0,.23.01.34.04v-.54c-1.25.04-2.5.08-2.98.11-.05-.17-.1-.49-.1-.7.23.02.63.03.9.02.35,0,1.23-.02,2.16-.05v-.13ZM107.62,134.44c-.1-.32-.29-.44-.56-.44-.3,0-.57.27-.57.72,0,.39.25.69.57.69.41,0,.63-.3.56-.97Z"/>
          <path class="cls-12" d="M113.77,132.16c0-.24-.02-.48-.06-.73.21-.02.57,0,.76.05,0,.13-.01.43-.01.8.95-.02,1.85-.05,2.18-.05.04.18.05.48.03.66-.43-.02-1.29-.01-2.22,0v.97c.22.29.32.7.32,1.2,0,.99-.53,2.11-1.69,2.56-.2-.07-.51-.33-.62-.5.62-.15,1.21-.55,1.48-1.21-.14.08-.31.13-.49.13-.64,0-1.2-.5-1.2-1.32s.56-1.3,1.22-1.3c.12,0,.23.01.34.04v-.54c-1.25.04-2.5.08-2.98.11-.05-.17-.1-.49-.1-.7.23.02.63.03.9.02.35,0,1.23-.02,2.16-.05v-.13ZM113.99,134.44c-.1-.32-.29-.44-.56-.44-.3,0-.57.27-.57.72,0,.39.25.69.57.69.41,0,.63-.3.56-.97Z"/>
          <path class="cls-12" d="M120.76,136.68c.01.19-.04.57-.1.72-.31.08-.64.13-1.06.13-1.43,0-2.18-.59-2.18-1.36,0-.4.2-.69.38-.88.2.06.46.2.57.32-.13.11-.25.3-.25.5,0,.47.5.76,1.41.76.53,0,.92-.1,1.22-.19ZM121.23,134.18c.27.67.49,1.32.55,1.58-.07.11-.25.28-.4.35-.27-.11-1.05-.36-1.53-.49.04-.13.17-.42.24-.53.36.1.77.25.96.31-.07-.25-.24-.68-.4-1.07-.1.03-.21.05-.3.06-.44.08-1.18.19-1.79.2-.09-.11-.24-.48-.28-.67.43.02,1.18-.01,1.78-.11.11-.02.22-.04.34-.06-.13-.29-.25-.58-.38-.85-.57.11-1.2.2-1.78.2-.1-.12-.25-.5-.29-.66.25.01.5.04.83.01.3-.01.64-.06.97-.11-.04-.08-.08-.16-.11-.22-.11-.22-.25-.47-.39-.66.17-.07.5-.15.69-.17.09.17.25.51.43.91.37-.09.71-.2.97-.33.09.12.22.45.26.6-.25.1-.59.2-.97.3.12.28.25.57.36.84.41-.11.79-.25,1.06-.37.09.13.22.48.26.6-.25.11-.66.25-1.08.36Z"/>
          <path class="cls-12" d="M129.57,134.6c0,1.53-.87,2.55-2.4,2.79-.15-.15-.35-.5-.41-.72.24-.01.44-.05.62-.09.73-.17,1.44-.76,1.44-1.98,0-1.13-.76-1.9-1.92-1.96-.03.54-.13,1.41-.28,2.04-.32,1.33-.8,2.28-1.65,2.28-.7,0-1.39-.93-1.39-2.07,0-1.65,1.32-2.91,3.15-2.91,1.64,0,2.84,1.04,2.84,2.63ZM125.93,134.52c.13-.53.23-1.3.25-1.85-1.25.24-1.88,1.26-1.88,2.15,0,.82.4,1.3.71,1.3.37,0,.69-.57.93-1.6Z"/>
        </g>
        <g>
          <path class="cls-12" d="M80.91,83.58h-2.17v.93h1.84v4.53h-.68v-.41h-4.38v.42h-.64v-4.55h1.64v-.93h-2.01v-.64h6.4v.64ZM75.52,88.02h4.38v-1.17c-.1.12-.25.16-.46.16h-.65c-.6,0-.72-.18-.72-.78v-1.11h-.9v.11c0,.69-.2,1.6-1.06,2.19-.09-.11-.35-.34-.49-.42.94-.62.94-1.46.94-1.88h-1.03v2.89ZM78.08,84.51v-.93h-.91v.93h.91ZM79.36,86.43c.14,0,.17-.06.19-.47.07.06.21.13.35.17v-1h-1.2v1.11c0,.17.03.19.18.19h.48Z"/>
          <path class="cls-12" d="M83.15,88.72v-4.99h-.02l-.98.54-.2-.66,1.31-.7h.76v5.8h-.87Z"/>
          <path class="cls-12" d="M87.48,88.72v-4.99h-.02l-.98.54-.2-.66,1.31-.7h.76v5.8h-.87Z"/>
          <path class="cls-12" d="M96.48,83.11v.68h-2.75v4.41c0,.81-.35.88-1.98.88-.04-.2-.18-.51-.29-.7.37.01.74.02.99.02.49,0,.56,0,.56-.21v-4.39h-2.79v-.68h6.25Z"/>
          <path class="cls-12" d="M97.79,82.98h4.84v6.09h-.7v-.46h-3.47v.46h-.67v-6.09ZM101.93,83.63h-3.47v1.01h3.47v-1.01ZM101.93,85.27h-3.47v1.03h3.47v-1.03ZM98.46,87.95h3.47v-1.03h-3.47v1.03Z"/>
        </g>
        <g>
          <path class="cls-12" d="M59.56,39.65c0,1.56-.74,2.04-1.77,2.04-.27,0-.59-.05-.77-.12l.11-.74c.15.05.35.09.59.09.59,0,.96-.26.96-1.31v-3.91h.89v3.95Z"/>
          <path class="cls-12" d="M63.26,38.8c.44.16.69.58.82,1.2.18.77.32,1.38.44,1.6h-.92c-.08-.17-.22-.69-.37-1.41-.16-.79-.45-1.09-1.07-1.09h-.54v2.5h-.89v-5.82c.38-.07.9-.12,1.43-.12.77,0,1.31.14,1.68.47.31.27.47.68.47,1.16,0,.76-.46,1.27-1.06,1.5v.02ZM62.22,38.44c.74,0,1.2-.42,1.2-1.06,0-.76-.54-1.03-1.18-1.03-.3,0-.52.02-.62.05v2.03h.6Z"/>
          <path class="cls-12" d="M71.35,40.26h-2.2c.61.48,1.51.87,2.35,1.06-.15.13-.34.39-.43.55-.91-.27-1.88-.79-2.56-1.42v1.51h-.67v-1.5c-.67.63-1.64,1.16-2.53,1.44-.1-.16-.29-.41-.42-.53.82-.22,1.71-.62,2.32-1.11h-2.16v-.56h2.79v-.5l.4.02c-.06-.09-.13-.18-.19-.24.35-.06.69-.14,1.02-.26-.22-.07-.45-.14-.67-.2l.3-.39c.34.08.68.19,1.01.3.21-.12.39-.25.55-.4h-2v-.48h2.46l.1-.02.41.18s-.04.06-.06.08c-.2.34-.48.62-.82.85.39.15.74.31,1.01.46l-.39.42c-.3-.18-.71-.38-1.18-.56-.39.18-.81.31-1.25.41v.32h2.83v.56ZM68.04,37.7s-.04.06-.07.08c-.18.35-.44.65-.76.9.23.1.44.21.61.31l-.38.41c-.2-.13-.44-.27-.73-.4-.43.25-.91.43-1.41.55-.06-.13-.2-.34-.3-.46.38-.08.76-.2,1.11-.36-.25-.1-.51-.19-.77-.27l.29-.39c.34.1.69.22,1.03.35.18-.13.35-.27.49-.42h-1.93v-.48h2.35l.1-.02.38.17ZM70.38,35.84s-.06.05-.09.06c-.29.33-.69.59-1.16.82.48.13.9.27,1.23.41l-.42.4c-.4-.18-.93-.36-1.53-.53-.75.25-1.6.42-2.41.52-.05-.14-.17-.34-.27-.46.58-.06,1.18-.15,1.75-.29-.4-.1-.81-.18-1.23-.25l.34-.38c.59.1,1.19.22,1.76.36.32-.12.61-.25.85-.41h-3.2v-.49h3.83l.1-.02s.04.02.04.02l.4.22Z"/>
          <path class="cls-12" d="M72.21,35.7h5.97v6.27h-.65v-.28h-4.69v.28h-.62v-6.27ZM72.84,41.08h4.69v-4.78h-4.69v4.78ZM76.79,39.23l.48.32s-.1.05-.15.04c-.19.13-.47.31-.73.46.31.16.66.29.99.38-.12.1-.27.3-.35.43-.6-.19-1.21-.55-1.66-.97v1.01h-.59v-.9c-.44.28-.95.52-1.44.69-.07-.11-.23-.31-.34-.41.62-.19,1.3-.5,1.79-.89h-1.13v-1.17h3.02v1.1l.1-.09ZM77.22,37.55v.4h-4.07v-.4h1.72v-.36h-1.32v-.39h1.32v-.38l.76.05c0,.06-.05.09-.16.11v.22h1.37v.39h-1.37v.36h1.74ZM74.22,38.58v.47h1.88v-.47h-1.88ZM75.56,39.4l-.03.03c.13.14.29.27.47.4.2-.13.42-.29.6-.43h-1.04Z"/>
          <path class="cls-12" d="M79.59,39.85c-.04.66-.11,1.34-.4,1.74l-.36-.2c.25-.36.34-.99.37-1.61l.39.07ZM81.69,38.88l.31.04s0,.12-.02.18c-.08,1.77-.16,2.42-.34,2.63-.13.17-.27.22-.71.22-.1,0-.22,0-.34,0,0-.16-.06-.39-.14-.53.22.03.42.03.51.03s.15-.01.2-.08c.07-.08.13-.31.17-.79l-.23.09c-.06-.25-.21-.64-.37-.92l.29-.1c.13.22.25.5.33.72h0c.02-.25.04-.57.06-.95h-1.6v.17h-.56v-3.92h2.65v.55h-.96v.53h.83v.52h-.83v.55h.83v.52h-.83v.55h.74ZM79.8,41.24c.01-.36-.02-.89-.08-1.31l.32-.04c.07.41.1.95.1,1.3l-.34.05ZM80.4,36.22h-.59v.53h.59v-.53ZM80.4,37.82v-.55h-.59v.55h.59ZM79.81,38.34v.55h.59v-.55h-.59ZM80.54,39.8c.13.36.25.83.27,1.14l-.33.07c-.02-.31-.13-.78-.25-1.15l.31-.06ZM85.24,38.68h-1.09c.22,1.23.62,2.26,1.41,2.77-.15.12-.34.36-.43.54-.9-.64-1.33-1.82-1.56-3.31h-.51c-.02,1.07-.15,2.42-.77,3.3-.11-.11-.39-.28-.54-.34.64-.91.69-2.23.69-3.26v-2.7h2.81v3ZM84.64,36.29h-1.59v1.79h1.59v-1.79Z"/>
        </g>
        <g>
          <path class="cls-12" d="M124.99,164.44h2.57v3.42h-.69v-.38h-1.88v2.28h-.69v-2.28h-1.83v.42h-.67v-3.45h2.5v-1.25l.86.05c0,.06-.06.1-.18.12v1.08ZM122.46,166.83h1.83v-1.73h-1.83v1.73ZM124.99,166.83h1.88v-1.73h-1.88v1.73Z"/>
          <path class="cls-12" d="M132.08,168.04l.77.05c0,.06-.05.09-.15.11v1.07h-3.29v.32h-.61v-1.53l.76.04c0,.06-.05.09-.15.11v.53h1.03v-.84l.78.05c0,.05-.05.1-.16.11v.68h1.03v-.71ZM134.86,166.95h-4.81v.44h4.21s.37.05.37.05c0,.06-.02.12-.04.18-.1,1.21-.2,1.72-.39,1.92-.16.17-.36.22-.81.22-.15,0-.31,0-.49-.01,0-.18-.08-.42-.17-.57.31.04.59.04.7.04s.18-.02.24-.07c.1-.11.18-.44.26-1.25h-4.54v-4.14h1.6c.08-.2.16-.41.2-.58l.85.15c-.02.05-.07.08-.16.08-.05.1-.12.22-.19.34h2.11v2.28h-3.75v.41h4.81v.5ZM133.14,164.23h-3.09v.45h3.09v-.45ZM130.05,165.57h3.09v-.46h-3.09v.46Z"/>
          <path class="cls-12" d="M138.18,163.67c-.03.06-.11.08-.19.08-.46,1.02-1.16,2.07-1.9,2.74-.14-.13-.41-.36-.59-.46.71-.6,1.42-1.62,1.81-2.64l.86.28ZM138.94,166.01c-.03.06-.1.1-.2.11-.31.79-.79,1.8-1.24,2.6.88-.03,1.88-.06,2.86-.1-.3-.45-.64-.91-.95-1.3l.64-.29c.64.76,1.34,1.74,1.69,2.4l-.68.36c-.08-.17-.19-.36-.31-.57-1.7.11-3.47.19-4.61.24-.01.06-.06.1-.13.11l-.27-.79c.29,0,.63-.01,1.01-.03.48-.85,1.01-2.06,1.3-2.97l.9.24ZM139.98,163.39c.45.88,1.3,1.95,1.95,2.54-.17.13-.43.39-.56.57-.66-.69-1.51-1.86-2.04-2.84l.66-.27Z"/>
          <path class="cls-12" d="M142.69,163.49h5.97v6.27h-.65v-.28h-4.69v.28h-.62v-6.27ZM143.32,168.88h4.69v-4.78h-4.69v4.78ZM147.27,167.03l.48.32s-.1.05-.15.04c-.19.12-.47.31-.73.46.31.16.66.29,1,.38-.12.1-.27.3-.35.43-.6-.19-1.21-.55-1.66-.97v1.01h-.59v-.9c-.44.28-.95.52-1.44.69-.07-.11-.23-.31-.34-.41.62-.19,1.3-.5,1.79-.89h-1.13v-1.17h3.02v1.1l.1-.09ZM147.69,165.34v.4h-4.07v-.4h1.72v-.36h-1.32v-.39h1.32v-.38l.76.05c0,.06-.05.09-.16.11v.22h1.37v.39h-1.37v.36h1.74ZM144.7,166.37v.47h1.88v-.47h-1.88ZM146.04,167.19l-.03.03c.13.14.29.27.47.4.2-.13.42-.29.6-.43h-1.04Z"/>
        </g>
        <g>
          <path class="cls-12" d="M127.84,188.33h-2.83v.64h2.49v3.86c0,.65-.27.72-1.58.72-.04-.18-.14-.42-.22-.57.23,0,.48.01.67.01.41,0,.45,0,.45-.16v-3.25h-4.24v3.96h-.67v-4.57h2.41v-.64h-2.79v-.62h2.79v-.73l.86.05c0,.06-.05.1-.17.12v.56h2.83v.62ZM126.45,192.26h-1.47v1.25h-.63v-1.25h-1.4v-.55h1.4v-.63h-1.3v-.53h.65c-.07-.22-.2-.5-.32-.72l.53-.13c.16.24.31.57.37.78l-.24.07h1.21c-.07-.02-.13-.05-.19-.06.13-.24.28-.58.35-.83l.7.2s-.08.07-.16.07c-.09.18-.22.42-.36.62h.79v.53h-1.4v.63h1.47v.55Z"/>
          <path class="cls-12" d="M134.87,190.43v.67h-2.86v2.43h-.69v-2.43h-2.83v-.67h2.83v-2.34h-2.46v-.65h5.6v.65h-2.45v2.34h2.86ZM129.93,190.14c-.08-.41-.33-1.07-.6-1.57l.62-.18c.27.48.55,1.11.63,1.53l-.65.22ZM134.21,188.61s-.08.08-.18.08c-.19.46-.51,1.09-.77,1.49,0,0-.57-.22-.58-.22.26-.43.56-1.11.72-1.6l.81.26Z"/>
          <path class="cls-12" d="M141.77,189.86h-5.13v.76c0,.87-.12,2.09-.76,2.88-.1-.13-.39-.36-.53-.43.57-.71.63-1.72.63-2.46v-1.35h5.79v.6ZM141.59,187.29c0,.06-.06.1-.17.12v1.35h-5.41v-1.52l.84.05c0,.06-.06.1-.17.12v.76h1.65v-1.2l.84.06c0,.06-.05.1-.16.11v1.03h1.72v-.92l.87.05ZM141.88,191.59v.6h-2.25v1.36h-.68v-1.36h-2.13v-.6h2.13v-.68h-1.79v-.57h4.36v.57h-1.9v.68h2.25Z"/>
        </g>
        <g>
          <path class="cls-12" d="M171.24,100.93h-.64v-.49h-1.79v.49h-.34c-.05.12-.1.25-.17.38h3.84s.37.02.37.02c0,.06,0,.14-.01.22-.09,2.77-.18,3.71-.41,4-.19.27-.4.31-.88.31-.15,0-.31,0-.48-.01,0-.18-.08-.45-.17-.62h.13c-.24-.2-.69-.54-1.05-.8v1.3h-.64v-1.44c-.48.56-1.12,1.07-1.7,1.37-.1-.15-.3-.38-.44-.5.61-.26,1.28-.74,1.75-1.25h-1.39v-.58h.84c-.06-.25-.24-.63-.43-.9-.22.29-.46.56-.74.81-.11-.14-.33-.34-.49-.43.74-.62,1.21-1.45,1.46-2.14l.3.04v-.28h-1.55v-.59h1.55v-.55l.81.05c0,.06-.05.1-.16.11v.39h1.79v-.55l.81.05c0,.06-.06.1-.17.11v.39h1.61v.59h-1.61v.49ZM170.77,105.25c.21.01.39.01.49.01.11,0,.18-.02.25-.11.15-.19.24-1.01.31-3.24h-3.84c-.11.17-.22.34-.34.51l.5-.15c.22.27.41.64.49.9l-.52.17h.89v-1.23l.8.05c0,.06-.05.09-.16.11v1.06h.8c-.13-.05-.29-.12-.41-.16.18-.27.39-.67.5-.95l.68.22s-.08.07-.16.07c-.13.24-.36.58-.55.82h.88v.58h-1.68c.36.2,1.23.72,1.44.88l-.37.46Z"/>
          <path class="cls-12" d="M175.7,101.08l.46.2s-.05.08-.08.1c-.34,1.77-1.15,3.13-2.17,3.85-.11-.15-.38-.42-.55-.52.89-.58,1.58-1.6,1.92-2.95h-1.71v-.67h2l.12-.03ZM177.09,100.58c.14.54.32,1.06.55,1.54.55-.48,1.18-1.15,1.58-1.69l.69.53s-.11.05-.2.04c-.45.52-1.21,1.21-1.79,1.67.53.91,1.23,1.65,2.15,2.06-.17.13-.4.41-.52.61-1.14-.6-1.93-1.68-2.47-3v2.63c0,.81-.35.9-1.72.9-.03-.2-.15-.53-.26-.74.31.01.61.02.82.02.41,0,.46,0,.46-.19v-5.65l.87.05c0,.06-.05.1-.17.12v1.1Z"/>
        </g>
        <g>
          <path class="cls-12" d="M162.92,132.43h-2.83v.64h2.49v3.86c0,.65-.27.72-1.58.72-.04-.18-.14-.42-.22-.57.23,0,.48.01.67.01.41,0,.45,0,.45-.16v-3.25h-4.24v3.96h-.67v-4.57h2.41v-.64h-2.79v-.62h2.79v-.73l.86.05c0,.06-.05.1-.17.12v.56h2.83v.62ZM161.53,136.35h-1.47v1.25h-.63v-1.25h-1.4v-.55h1.4v-.63h-1.3v-.53h.65c-.07-.22-.2-.5-.32-.72l.53-.13c.16.24.31.57.37.78l-.24.07h1.21c-.07-.02-.13-.05-.19-.06.13-.24.28-.58.35-.83l.7.2s-.08.07-.16.07c-.09.18-.22.42-.36.62h.79v.53h-1.4v.63h1.47v.55Z"/>
          <path class="cls-12" d="M169.67,131.38l.38.13s-.03.07-.06.09c-.17.62-.4,1.4-.66,2.21.62.92.69,1.38.69,1.74,0,1.08-.56,1.13-1.06,1.13-.06,0-.13,0-.19,0,0-.17-.08-.43-.19-.6.13,0,.26.01.36.01.29,0,.47,0,.47-.61,0-.41-.19-.87-.69-1.58.2-.69.38-1.34.5-1.91h-.73v5.63h-.59v-.53l-.53.2c-.03-.2-.08-.43-.15-.68-.58.22-1.16.45-1.55.59,0,.06-.04.1-.09.12l-.25-.68.4-.11v-2.3h-.01c-.25,1.53-.81,2.71-1.92,3.34-.07-.13-.23-.36-.34-.47.67-.36,1.11-.95,1.39-1.74l-1.19.2c0,.06-.06.09-.11.1l-.2-.69.37-.04c.21-.29.43-.66.64-1.04-.25-.33-.62-.71-.95-.99l.29-.5c.07.06.15.11.22.18.24-.46.48-1.07.63-1.51l.69.26s-.08.07-.17.07c-.19.45-.5,1.08-.77,1.53.14.13.27.27.37.4.15-.29.29-.57.39-.83l.65.27s-.09.07-.18.08c-.29.6-.76,1.39-1.18,2.02l.67-.08c.06-.24.1-.5.14-.76l.57.1v-2.7h1.84v3.1h-1.27v1.84l.77-.25c-.11-.33-.25-.66-.38-.95l.53-.18c.3.59.58,1.32.7,1.88v-5.45h1.62l.13-.03ZM167.03,131.98h-.71v.71h.71v-.71ZM166.32,133.95h.71v-.72h-.71v.72Z"/>
          <path class="cls-12" d="M170.7,131.48h3.51v.56l-2.3,5.24h-.92l2.3-5.05v-.02h-2.59v-.74Z"/>
          <path class="cls-12" d="M181.21,131.68v.68h-2.75v4.41c0,.81-.35.88-1.97.88-.04-.2-.18-.51-.29-.7.37.01.74.02.99.02.49,0,.56,0,.56-.21v-4.39h-2.79v-.68h6.25Z"/>
          <path class="cls-12" d="M182.52,131.54h4.84v6.09h-.7v-.46h-3.47v.46h-.67v-6.09ZM186.66,132.19h-3.47v1.01h3.47v-1.01ZM186.66,133.83h-3.47v1.03h3.47v-1.03ZM183.19,136.52h3.47v-1.03h-3.47v1.03Z"/>
        </g>
        <g>
          <path class="cls-12" d="M213.71,55.06c0,1.42-.67,1.86-1.61,1.86-.25,0-.53-.04-.7-.11l.1-.67c.13.05.31.08.53.08.54,0,.87-.24.87-1.19v-3.56h.81v3.59Z"/>
          <path class="cls-12" d="M217.07,54.29c.4.15.62.53.75,1.09.16.7.29,1.25.4,1.46h-.84c-.08-.15-.2-.62-.34-1.28-.15-.71-.41-.99-.97-.99h-.49v2.27h-.8v-5.29c.34-.06.82-.11,1.3-.11.7,0,1.19.13,1.53.43.28.25.43.62.43,1.05,0,.69-.42,1.16-.96,1.36h0ZM216.12,53.97c.67,0,1.09-.38,1.09-.96,0-.69-.49-.93-1.07-.93-.27,0-.47.02-.57.05v1.84h.55Z"/>
          <path class="cls-12" d="M223.38,56.84h-2.88v-5.36h.81v4.67h2.07v.69Z"/>
          <path class="cls-12" d="M224.47,52.39c-.28,0-.47-.21-.47-.47,0-.27.2-.48.48-.48s.47.2.47.48-.18.47-.48.47ZM224.87,56.84h-.81v-3.87h.81v3.87Z"/>
          <path class="cls-12" d="M229.1,56.84h-.81v-2.26c0-.55-.18-1.01-.74-1.01-.4,0-.83.33-.83.95v2.33h-.81v-2.77c0-.43-.01-.76-.03-1.09h.71l.04.57h.02c.18-.33.59-.66,1.17-.66s1.28.39,1.28,1.58v2.36Z"/>
          <path class="cls-12" d="M232.95,56.69c-.27.13-.7.23-1.23.23-1.16,0-1.83-.78-1.83-1.95s.64-2.07,1.74-2.07,1.52.9,1.52,1.86c0,.13,0,.25-.02.34h-2.45c.02.87.56,1.2,1.17,1.2.43,0,.72-.08.97-.18l.13.57ZM232.37,54.52c0-.46-.18-1.04-.81-1.04s-.85.59-.89,1.04h1.7Z"/>
        </g>
        <g>
          <path class="cls-12" d="M248.66,122c.4.15.62.53.75,1.09.16.7.29,1.25.4,1.46h-.84c-.08-.15-.2-.62-.34-1.28-.15-.71-.41-.99-.97-.99h-.49v2.27h-.8v-5.29c.34-.06.82-.11,1.3-.11.7,0,1.19.13,1.53.43.28.25.43.62.43,1.05,0,.69-.42,1.16-.96,1.36h0ZM247.71,121.67c.67,0,1.09-.38,1.09-.96,0-.69-.49-.93-1.07-.93-.27,0-.47.02-.57.05v1.84h.55Z"/>
          <path class="cls-12" d="M251.74,124.55v-4.53h-.01l-.89.49-.18-.6,1.19-.64h.69v5.27h-.79Z"/>
          <path class="cls-12" d="M257.43,124.55h-3.21v-.5l.55-.58c1.11-1.14,1.73-1.87,1.73-2.66,0-.51-.25-.96-.91-.96-.41,0-.77.22-1.02.41l-.25-.58c.32-.27.83-.49,1.42-.49,1.09,0,1.56.74,1.56,1.53,0,.97-.66,1.77-1.58,2.7l-.43.44h0s2.12.01,2.12.01v.67Z"/>
        </g>
        <g>
          <path class="cls-12" d="M193.26,4.77v-1.45h-4.66v-.81h4.66v-1.44h.69v3.71h-.69Z"/>
          <path class="cls-12" d="M190.56,8.66c-1.44,0-2.04-.94-2.04-1.81,0-1,.74-1.76,1.98-1.76s2.04.8,2.04,1.82-.8,1.75-1.98,1.75ZM191.93,6.88c0-.69-.74-.96-1.41-.96-.76,0-1.39.36-1.39.95s.64.95,1.41.95c.64,0,1.39-.27,1.39-.95Z"/>
          <path class="cls-12" d="M188.6,12.65v-.81h2.25c.55,0,1.02-.19,1.02-.74,0-.4-.33-.83-.91-.83h-2.36v-.81h5.62v.81h-2.28c.4.27.61.7.61,1.12,0,.58-.39,1.25-1.61,1.25h-2.33Z"/>
          <path class="cls-12" d="M190.56,17c-1.44,0-2.04-.94-2.04-1.81,0-1,.74-1.76,1.98-1.76s2.04.8,2.04,1.82-.8,1.75-1.98,1.75ZM191.93,15.22c0-.69-.74-.96-1.41-.96-.76,0-1.39.36-1.39.95s.64.95,1.41.95c.64,0,1.39-.27,1.39-.95Z"/>
          <path class="cls-12" d="M188.6,22.29v-2.88h5.36v.81h-4.67v2.07h-.69Z"/>
          <path class="cls-12" d="M188.6,23.78v-.81h3.87v.81h-3.87ZM193.05,23.37c0-.28.21-.47.47-.47.27,0,.48.2.48.48s-.2.47-.48.47-.47-.18-.47-.48Z"/>
          <path class="cls-12" d="M188.6,28.01v-.81h2.26c.55,0,1.01-.18,1.01-.74,0-.4-.33-.83-.95-.83h-2.33v-.81h2.77c.43,0,.76-.01,1.09-.03v.71l-.57.04v.02c.33.18.66.59.66,1.17s-.39,1.28-1.58,1.28h-2.36Z"/>
          <path class="cls-12" d="M188.75,31.85c-.13-.27-.23-.7-.23-1.23,0-1.16.78-1.83,1.95-1.83s2.07.64,2.07,1.74-.9,1.52-1.86,1.52c-.13,0-.25,0-.34-.02v-2.45c-.87.02-1.2.56-1.2,1.17,0,.43.08.72.18.97l-.57.13ZM190.92,31.28c.46,0,1.04-.18,1.04-.81s-.59-.85-1.04-.89v1.7Z"/>
        </g>
        <g>
          <path class="cls-12" d="M121.88,5.43v-.82l2.51-1.41c.58-.32,1.21-.64,1.81-.89v-.03c-.69.04-1.38.06-2.32.06h-2v-.75h5.36v.88l-2.48,1.4c-.59.34-1.21.64-1.77.87v.02c.74-.06,1.42-.08,2.28-.08h1.97v.75h-5.36Z"/>
          <path class="cls-12" d="M122.8,9.21c-.33,0-.67,0-.92.06v-.74l.45-.06v-.02c-.3-.22-.53-.6-.53-1.08,0-.72.53-1.13,1.13-1.13.96,0,1.44.83,1.44,2.16.29,0,.86,0,.86-.78,0-.34-.1-.69-.27-.94l.54-.17c.17.27.32.73.32,1.25,0,1.13-.75,1.45-1.57,1.45h-1.46ZM123.82,8.41c0-.64-.12-1.37-.81-1.37-.43,0-.62.27-.62.57,0,.44.34.81.78.81h.64Z"/>
          <path class="cls-12" d="M121.88,13.41v-.81h2.26c.55,0,1.01-.18,1.01-.74,0-.4-.33-.83-.95-.83h-2.33v-.81h2.77c.43,0,.76-.01,1.09-.03v.71l-.57.04v.02c.33.18.66.59.66,1.17s-.39,1.27-1.58,1.27h-2.36Z"/>
          <path class="cls-12" d="M125.2,15.26c.39.23.62.63.62,1.17,0,.88-.78,1.49-1.95,1.49-1.41,0-2.07-.82-2.07-1.62,0-.5.2-.88.66-1.14v-.02l-.58-.04v-.69c.26.01.68.03,1.03.03h4.59v.81h-2.3ZM123.41,15.25c-.49,0-.95.35-.95.88,0,.62.55.97,1.38.97.73,0,1.34-.31,1.34-.96,0-.51-.5-.89-1.01-.89h-.76Z"/>
          <path class="cls-12" d="M123.84,22.04c-1.44,0-2.04-.94-2.04-1.81,0-1,.74-1.76,1.98-1.76s2.04.8,2.04,1.82-.8,1.75-1.98,1.75ZM125.22,20.26c0-.69-.74-.96-1.41-.96-.76,0-1.39.36-1.39.95s.64.95,1.41.95c.64,0,1.39-.27,1.39-.95Z"/>
          <path class="cls-12" d="M121.88,26.06v-.98l1.77-1.11-.38-.32h-1.39v-.81h5.62v.81h-3.5c.15.1.32.21.45.31l1.29.96v.96l-1.59-1.36-2.27,1.53Z"/>
          <path class="cls-12" d="M122.99,29.65c-.43,0-.8.02-1.11.04v-.71l.56-.04v-.02c-.27-.16-.64-.54-.64-1.16,0-.67.41-1.25,1.65-1.25h2.3v.81h-2.16c-.67,0-1.11.19-1.11.72,0,.37.29.81.88.81h2.39v.81h-2.75Z"/>
          <path class="cls-12" d="M121.88,35.18v-2.88h5.36v.81h-4.67v2.07h-.69Z"/>
          <path class="cls-12" d="M121.88,36.67v-.81h3.87v.81h-3.87ZM126.34,36.27c0-.28.21-.47.47-.47.27,0,.48.2.48.48s-.2.47-.48.47-.47-.18-.47-.48Z"/>
          <path class="cls-12" d="M121.88,40.9v-.81h2.26c.55,0,1.01-.18,1.01-.74,0-.4-.33-.83-.95-.83h-2.33v-.81h2.77c.43,0,.76-.01,1.09-.03v.71l-.57.04v.02c.33.18.66.59.66,1.17s-.39,1.28-1.58,1.28h-2.36Z"/>
          <path class="cls-12" d="M122.04,44.74c-.13-.27-.23-.7-.23-1.23,0-1.16.78-1.83,1.95-1.83s2.07.64,2.07,1.74-.9,1.52-1.86,1.52c-.13,0-.25,0-.34-.02v-2.45c-.87.02-1.2.56-1.2,1.17,0,.43.08.72.18.97l-.57.13ZM124.21,44.17c.46,0,1.04-.18,1.04-.81s-.59-.85-1.04-.89v1.7Z"/>
        </g>
        <g>
          <path class="cls-12" d="M4.74,46.96v-1.45H.08v-.81h4.66v-1.44h.69v3.71h-.69Z"/>
          <path class="cls-12" d="M2.04,50.85c-1.44,0-2.04-.94-2.04-1.81,0-1,.74-1.77,1.98-1.77s2.04.8,2.04,1.82-.8,1.75-1.98,1.75ZM3.41,49.07c0-.69-.74-.96-1.41-.96-.76,0-1.39.36-1.39.95s.64.95,1.41.95c.64,0,1.39-.27,1.39-.95Z"/>
          <path class="cls-12" d="M3.94,54.23h-.51l-2.05-1.46c-.22-.16-.43-.32-.62-.49h-.01v1.99H.08v-2.98h.48l2.09,1.49c.22.17.41.32.62.49h.01v-1.83h.66v2.8Z"/>
          <path class="cls-12" d="M1,57.63c-.33,0-.67,0-.92.06v-.74l.45-.06v-.02c-.3-.22-.53-.6-.53-1.08,0-.72.53-1.13,1.13-1.13.96,0,1.44.83,1.44,2.16.29,0,.86,0,.86-.78,0-.34-.1-.69-.27-.94l.54-.17c.17.27.32.73.32,1.25,0,1.13-.75,1.45-1.57,1.45H1ZM2.02,56.84c0-.64-.12-1.37-.81-1.37-.43,0-.62.27-.62.57,0,.44.34.81.78.81h.64Z"/>
          <path class="cls-12" d="M.08,59.46v-.81h3.87v.81H.08ZM4.53,59.06c0-.28.21-.47.47-.47.27,0,.48.2.48.48s-.2.47-.48.47-.47-.18-.47-.48Z"/>
          <path class="cls-12" d="M.08,64.99v-2.88h5.36v.81H.76v2.07H.08Z"/>
          <path class="cls-12" d="M.08,66.48v-.81h3.87v.81H.08ZM4.53,66.08c0-.28.21-.47.47-.47.27,0,.48.2.48.48s-.2.47-.48.47-.47-.18-.47-.48Z"/>
          <path class="cls-12" d="M.08,70.71v-.81h2.26c.55,0,1.01-.18,1.01-.74,0-.4-.33-.83-.95-.83H.08v-.81h2.77c.43,0,.76-.01,1.09-.03v.71l-.57.04v.02c.33.18.66.59.66,1.17s-.39,1.27-1.58,1.27H.08Z"/>
          <path class="cls-12" d="M.23,74.56c-.13-.27-.23-.7-.23-1.23,0-1.16.78-1.83,1.95-1.83s2.07.64,2.07,1.74-.9,1.52-1.86,1.52c-.13,0-.25,0-.34-.02v-2.45c-.87.02-1.2.56-1.2,1.17,0,.43.08.72.18.97l-.57.13ZM2.4,73.98c.46,0,1.04-.18,1.04-.81s-.59-.85-1.04-.89v1.69Z"/>
        </g>
        <g>
          <path class="cls-13" d="M47.53,22.89h-2.21c.67.42,1.57.77,2.42.96-.2.18-.48.55-.62.78-.94-.28-1.95-.8-2.7-1.42v1.51h-.98v-1.51c-.74.63-1.73,1.14-2.69,1.43-.14-.22-.41-.58-.61-.76.86-.2,1.74-.57,2.41-1h-2.19v-.8h3.09v-.57l.55.03c-.07-.1-.15-.2-.22-.27.34-.06.66-.14.97-.23-.21-.06-.41-.13-.62-.18l.43-.54c.36.1.73.2,1.09.32.16-.1.31-.21.45-.33h-2.07v-.66h1.64c-.41-.17-.93-.34-1.5-.51-.71.24-1.5.39-2.29.5h0s1.33,0,1.33,0l.14-.03.53.23s-.05.07-.08.1c-.2.4-.48.74-.82,1.02.23.1.44.22.62.31l-.54.58c-.22-.14-.49-.28-.79-.42-.47.26-1,.45-1.57.58-.08-.19-.27-.48-.42-.64.38-.07.76-.18,1.1-.31-.24-.1-.49-.18-.73-.25l.39-.52h-.5v-.66h.97c-.08-.19-.22-.45-.35-.61.57-.05,1.14-.14,1.69-.25-.36-.09-.74-.17-1.1-.24l.43-.46h-.69v-.68h4.26l.14-.02.05.02h.04v.02l.54.28s-.07.07-.12.09c-.31.38-.74.68-1.23.93.5.14.94.3,1.3.43l-.53.49h.82l.14-.03.58.26s-.05.07-.09.1c-.2.38-.5.7-.85.98.42.15.78.31,1.07.46l-.56.58c-.33-.18-.78-.39-1.29-.59-.41.19-.86.34-1.34.45v.23h3.11v.8ZM41.13,20.32c.35.1.7.22,1.05.34.15-.1.3-.22.42-.34h-1.47ZM42.47,18.09c.54.1,1.08.22,1.6.35.28-.1.54-.22.77-.35h-2.37Z"/>
          <path class="cls-13" d="M51.95,17.49h6.88v7.24h-.94v-.29h-5.05v.29h-.9v-7.24ZM52.85,23.58h5.05v-5.22h-5.05v5.22ZM57.09,21.55l.66.44s-.1.06-.2.05c-.18.12-.46.29-.7.43.3.14.62.26.95.34-.17.14-.38.42-.5.6-.59-.18-1.17-.51-1.63-.91v.91h-.84v-.82c-.44.26-.93.48-1.4.64-.1-.15-.34-.43-.47-.58.65-.19,1.33-.5,1.86-.87h-1.17v-1.33h3.38v1.15l.06-.05ZM57.61,19.65v.54h-4.49v-.54h1.8v-.3h-1.38v-.53h1.38v-.37l1.08.06c0,.06-.06.11-.21.14v.17h1.41v.53h-1.41v.3h1.81ZM54.46,20.91v.39h1.74v-.39h-1.74ZM55.92,21.77l-.05.05c.11.12.26.23.41.34.18-.11.37-.26.54-.38h-.9Z"/>
        </g>
        <g>
          <path class="cls-13" d="M23.75,69.01v5.91c0,1.01-.49,1.12-1.98,1.12-.05-.26-.21-.71-.35-.96.31.02.65.02.89.02.42,0,.47,0,.47-.2v-1.95h-4.88v3.09h-.97v-7.03h6.81ZM17.91,69.96v2.04h1.9v-2.04h-1.9ZM20.77,72h2.01v-2.04h-2.01v2.04Z"/>
          <path class="cls-13" d="M33.99,70.44l1.21.06c0,.08-.07.13-.22.16v5.26h-1v-.51h-4.59v.54h-.98v-5.49l1.2.07c0,.07-.06.13-.22.14v3.75h1.75v-5.7l1.23.07c0,.07-.07.13-.22.15v5.48h1.83v-3.98Z"/>
        </g>
        <g>
          <path class="cls-13" d="M156.1,70.39h-.93v-.48h-1.85v.48h-.22s-.06.02-.11.02c-.05.11-.1.23-.16.35h4.15s.54.03.54.03c-.06.49-.04,4.24-.47,4.82-.28.4-.58.45-1.57.42,0-.19-.06-.43-.14-.65l-.06.07c-.22-.22-.62-.57-1-.86v1.32h-.92v-1.42c-.52.57-1.15,1.06-1.77,1.37-.14-.22-.42-.56-.62-.74.66-.26,1.34-.71,1.85-1.21h-1.38v-.82h.82c-.06-.24-.2-.55-.36-.81-.22.26-.46.53-.74.78-.15-.21-.48-.5-.7-.64.83-.66,1.36-1.56,1.63-2.33l.31.05v-.25h-1.68v-.85h1.68v-.56l1.14.06c0,.08-.06.13-.21.15v.35h1.85v-.56l1.15.06c0,.08-.06.13-.22.15v.35h1.75v.85h-1.75v.48ZM155.51,75.17c.18,0,.32,0,.42,0,.11,0,.19-.02.26-.13.15-.22.26-1.09.33-3.43h-4.16c-.1.16-.22.33-.34.49l.53-.14c.22.29.43.69.51.97l-.55.18h.83v-1.29l1.12.06c0,.08-.06.13-.2.15v1.07h.74l-.44-.16c.18-.3.38-.73.5-1.03l.95.29c-.03.06-.1.09-.21.09-.13.24-.34.57-.53.81h.83v.82h-1.56c.44.26,1.11.67,1.3.82l-.35.42Z"/>
          <path class="cls-13" d="M164.47,70.45l.66.29c-.02.06-.06.12-.1.15-.37,2.02-1.22,3.64-2.37,4.49-.17-.23-.56-.62-.8-.76.94-.63,1.65-1.74,2.01-3.16h-1.74v-.97h2.17l.18-.04ZM166.27,69.93c.15.57.34,1.11.57,1.62.58-.52,1.21-1.21,1.62-1.78l1,.74c-.06.06-.16.07-.26.06-.48.55-1.3,1.28-1.94,1.78.57.96,1.34,1.74,2.33,2.21-.24.2-.58.61-.74.9-1.17-.66-1.98-1.73-2.57-3.05v2.38c0,.99-.36,1.25-2.07,1.25-.04-.3-.22-.79-.38-1.07.32.02.62.02.86.02.53,0,.56,0,.56-.2v-6.29l1.24.06c0,.09-.06.14-.22.16v1.21Z"/>
        </g>
        <g>
          <path class="cls-13" d="M56.59,69.94h-3.14v.6h2.79v4.34c0,.8-.36.98-1.89.96-.05-.24-.19-.59-.32-.81.4.02.9.02,1.02.02.15,0,.19-.05.19-.18v-3.45h-4.53v4.4h-.97v-5.29h2.69v-.6h-3.09v-.9h3.09v-.76l1.23.06c0,.08-.07.13-.22.16v.54h3.14v.9ZM54.9,74.48h-1.5v1.33h-.92v-1.33h-1.43v-.77h1.43v-.56h-1.35v-.75h.61c-.06-.22-.18-.49-.28-.7l.76-.18c.15.26.3.62.36.86l-.09.02h.91l-.1-.03c.12-.26.26-.62.34-.88l.98.26c-.02.06-.09.09-.2.09-.08.17-.21.38-.32.57h.74v.75h-1.44v.56h1.5v.77Z"/>
          <path class="cls-13" d="M61.13,75.47h-1.23v-1.68h-2.75v-.86l2.48-4.26h1.5v4.11h.78v1.01h-.78v1.68ZM58.34,72.78h1.56v-1.69c0-.4.03-.83.05-1.23h-.04c-.21.43-.37.81-.58,1.2l-1,1.71v.02Z"/>
          <path class="cls-13" d="M69.92,69.78h-3.65c-.04.06-.12.09-.22.09-.2.54-.45,1.11-.77,1.67h4.16v4.26h-1.02v-.43h-3.25v.46h-.98v-2.73c-.3.34-.64.66-1.01.93-.16-.22-.5-.58-.7-.77,1.18-.8,2.02-2.2,2.48-3.49h-2.14v-.94h7.09v.94ZM68.42,74.44v-1.98h-3.25v1.98h3.25Z"/>
          <path class="cls-13" d="M76.67,70.22l1.21.06c0,.08-.07.13-.22.16v5.26h-1v-.51h-4.59v.54h-.98v-5.49l1.2.07c0,.07-.06.13-.22.14v3.75h1.75v-5.7l1.23.07c0,.07-.07.13-.22.15v5.48h1.83v-3.98Z"/>
          <path class="cls-13" d="M80.56,71.42v2.58c.48.82,1.34.82,2.82.82.95,0,2.09-.02,2.85-.09-.11.22-.26.66-.3.94-.61.03-1.48.05-2.29.05-1.86,0-2.77,0-3.49-.92-.37.31-.74.62-1.06.86,0,.1-.03.14-.11.17l-.47-1.02c.35-.2.77-.46,1.14-.74v-1.76h-1.03v-.89h1.95ZM79.4,68.46c.5.34,1.12.86,1.41,1.24l-.72.69c-.25-.38-.86-.94-1.35-1.32l.66-.61ZM82.16,73.25v1.21h-.9v-4.16h1.81c-.37-.17-.75-.33-1.08-.46l.62-.51c.29.1.62.23.95.38.22-.13.45-.27.64-.42h-2.86v-.73h3.75l.14-.05.7.44c-.03.06-.1.08-.18.1-.36.32-.86.7-1.38,1.02.18.09.35.17.49.25h.98v3.33c0,.78-.39.86-1.42.86-.04-.23-.14-.54-.24-.75.26,0,.54,0,.62,0,.1,0,.12-.04.12-.12v-.37h-.95v1.17h-.86v-1.17h-.93ZM83.08,71h-.93v.43h.93v-.43ZM82.16,72.56h.93v-.46h-.93v.46ZM84.89,71.43v-.43h-.95v.43h.95ZM83.94,72.56h.95v-.46h-.95v.46Z"/>
        </g>
        <g>
          <path class="cls-13" d="M154.18,117.52h-3.14v.6h2.79v4.34c0,.8-.36.98-1.89.96-.05-.24-.19-.59-.32-.81.4.02.9.02,1.02.02.15,0,.19-.05.19-.18v-3.45h-4.53v4.4h-.97v-5.29h2.69v-.6h-3.09v-.9h3.09v-.76l1.23.06c0,.08-.07.13-.22.16v.54h3.14v.9ZM152.49,122.05h-1.5v1.33h-.92v-1.33h-1.43v-.77h1.43v-.56h-1.35v-.75h.61c-.06-.22-.18-.49-.28-.7l.76-.18c.15.26.3.62.36.86l-.09.02h.91l-.1-.03c.12-.26.26-.62.34-.88l.98.26c-.02.06-.09.09-.2.09-.08.17-.21.38-.32.57h.74v.75h-1.44v.56h1.5v.77Z"/>
          <path class="cls-13" d="M161.96,116.22l.54.16c0,.06-.02.1-.06.13-.16.72-.39,1.6-.66,2.54.5.84.7,1.39.7,1.89,0,1.46-.78,1.46-1.44,1.43,0-.24-.1-.62-.26-.86.18.02.34.02.44.02.3,0,.38-.18.38-.63s-.17-.9-.66-1.71c.18-.76.34-1.47.45-2.09h-.61v6.32h-.83v-.6l-.69.26c-.02-.2-.06-.44-.13-.7-.62.23-1.22.46-1.65.6,0,.07-.06.13-.13.14l-.32-.96.42-.11v-1.75c-.34,1.38-.98,2.46-2.08,3.09-.1-.18-.32-.52-.47-.68.68-.37,1.16-.96,1.47-1.74-.46.08-.88.14-1.18.19-.02.07-.08.11-.14.12l-.26-.97.41-.03c.22-.32.46-.71.69-1.12-.29-.34-.69-.74-1.03-1.03l.39-.74.19.15c.25-.52.5-1.15.65-1.64l.96.36c-.03.06-.11.1-.22.1-.2.49-.53,1.17-.83,1.67.11.11.22.22.32.33.14-.3.27-.58.38-.84l.77.32v-1.54h2.16v3.63h-1.34v1.91l.65-.19c-.1-.35-.23-.7-.37-1.02l.76-.26c.25.54.49,1.18.63,1.74v-5.83h1.82l.18-.03ZM156.65,120.1c.06-.26.1-.53.14-.81l.67.1v-1.46s-.06.02-.09.02c-.33.66-.82,1.52-1.3,2.21l.57-.06ZM158.84,117.07h-.55v.62h.55v-.62ZM158.29,119.08h.55v-.64h-.55v.64Z"/>
          <path class="cls-13" d="M163.35,116.24h4.24v.83l-2.58,5.98h-1.37l2.58-5.69v-.02h-2.88v-1.1Z"/>
          <path class="cls-13" d="M175.78,116.47v.98h-3.05v4.75c0,.97-.34,1.22-2.37,1.2-.06-.29-.26-.75-.42-1.02.39.02.81.02,1.11.02.58,0,.64,0,.64-.22v-4.73h-3.09v-.98h7.17Z"/>
          <path class="cls-13" d="M177.38,116.39h5.63v7.02h-1.02v-.5h-3.64v.5h-.97v-7.02ZM181.99,117.32h-3.64v.93h3.64v-.93ZM181.99,119.15h-3.64v.96h3.64v-.96ZM178.35,121.97h3.64v-.95h-3.64v.95Z"/>
        </g>
        <g>
          <path class="cls-13" d="M86.05,173.28h-3.14v.6h2.79v4.34c0,.8-.36.98-1.89.96-.05-.24-.19-.59-.32-.81.4.02.9.02,1.02.02.15,0,.19-.05.19-.18v-3.45h-4.53v4.4h-.97v-5.29h2.69v-.6h-3.09v-.9h3.09v-.76l1.23.06c0,.08-.07.13-.22.16v.54h3.14v.9ZM84.36,177.81h-1.5v1.33h-.92v-1.33h-1.43v-.77h1.43v-.56h-1.35v-.75h.61c-.06-.22-.18-.49-.28-.7l.76-.18c.15.26.3.62.36.86l-.09.02h.91l-.1-.03c.12-.26.26-.62.34-.88l.98.26c-.02.06-.09.09-.2.09-.08.17-.21.38-.32.57h.74v.75h-1.44v.56h1.5v.77Z"/>
          <path class="cls-13" d="M94.07,175.52v.97h-3.17v2.68h-1v-2.68h-3.14v-.97h3.14v-2.45h-2.72v-.95h6.42v.95h-2.7v2.45h3.17ZM88.27,175.27c-.07-.45-.32-1.14-.59-1.68l.9-.27c.28.52.57,1.19.65,1.65l-.95.3ZM93.4,173.65c-.03.06-.1.09-.22.1-.2.48-.54,1.14-.81,1.55l-.84-.3c.26-.46.57-1.18.73-1.71l1.14.37Z"/>
          <path class="cls-13" d="M101.96,175.04h-5.69v.67c0,1.02-.14,2.5-.92,3.41-.16-.18-.56-.51-.78-.62.67-.81.74-1.94.74-2.8v-1.5h6.65v.85ZM101.8,171.98c0,.08-.07.13-.22.15v1.59h-6.24v-1.82l1.18.07c0,.08-.07.13-.22.15v.74h1.6v-1.26l1.21.07c0,.07-.06.13-.22.14v1.05h1.68v-.97l1.23.07ZM102.07,176.88v.85h-2.41v1.44h-.98v-1.44h-2.28v-.85h2.28v-.62h-1.93v-.81h4.96v.81h-2.05v.62h2.41Z"/>
        </g>
        <g>
          <path class="cls-12" d="M113.23,61.12c0,1.56-.74,2.04-1.77,2.04-.27,0-.59-.05-.77-.12l.11-.74c.15.05.35.09.59.09.59,0,.96-.26.96-1.31v-3.91h.89v3.95Z"/>
          <path class="cls-12" d="M116.93,60.27c.44.16.69.58.82,1.2.18.77.32,1.38.44,1.6h-.92c-.08-.17-.22-.69-.37-1.41-.16-.79-.45-1.09-1.07-1.09h-.54v2.5h-.89v-5.82c.38-.07.9-.12,1.43-.12.77,0,1.31.14,1.68.47.31.27.47.68.47,1.16,0,.76-.46,1.27-1.06,1.5v.02ZM115.89,59.91c.74,0,1.2-.42,1.2-1.06,0-.76-.54-1.03-1.18-1.03-.3,0-.52.02-.62.05v2.03h.6Z"/>
          <path class="cls-12" d="M120.81,56.92c0,.06-.06.1-.16.12v1.34h1.15v.63h-1.15v.51c.26.27.97,1.09,1.13,1.29l-.41.57c-.14-.26-.44-.69-.71-1.04v3.09h-.66v-3.17c-.31.78-.7,1.51-1.12,1.98-.07-.2-.25-.48-.36-.64.57-.59,1.11-1.62,1.39-2.58h-1.21v-.63h1.3v-1.51l.82.05ZM122.92,62.22c0,.39.05.45.34.45h.9c.29,0,.34-.3.39-1.44.16.13.44.25.63.3-.08,1.3-.25,1.78-.97,1.78h-1.05c-.71,0-.92-.24-.92-1.11v-5.3l.85.06c0,.06-.05.1-.17.11v5.15Z"/>
          <path class="cls-12" d="M128.18,58.2v3.07c0,.49-.16.62-.7.62-.01-.16-.08-.41-.17-.56h.32s.06-.01.06-.08v-2.47h-.46v4.64h-.57v-4.64h-.43v3.17h-.5v-3.77h.92v-1.32l.72.05c0,.06-.05.09-.15.11v1.17h.94ZM131.05,62.62c0,.18,0,.22.17.22h.25c.25,0,.27,0,.29-.74.11.1.32.21.48.26-.04.69-.05,1.02-.74,1.02h-.44c-.64,0-.64-.43-.64-.79v-1.14h-.58c-.1.97-.39,1.64-1.63,2-.06-.15-.22-.38-.34-.5,1-.25,1.27-.71,1.37-1.51h-.94v-.57h1.56v-1.46l.8.04c0,.06-.06.1-.16.12v1.3h1.65v.57h-1.09v1.18ZM131.89,57.02v2.4h-3.37v-2.4h3.37ZM129.02,60.79c-.07-.27-.27-.71-.46-1.04l.51-.18c.2.32.42.74.5,1.01l-.55.21ZM131.28,57.99v-.47h-2.16v.47h2.16ZM131.28,58.92v-.48h-2.16v.48h2.16ZM131.98,59.81s-.08.06-.16.06c-.15.27-.4.67-.6.93l-.46-.2c.19-.28.42-.74.54-1.05l.68.27Z"/>
          <path class="cls-12" d="M133.26,61.32c-.04.66-.11,1.34-.4,1.74l-.36-.2c.25-.36.34-.99.37-1.61l.39.07ZM135.36,60.35l.31.04s0,.12-.02.18c-.08,1.77-.16,2.42-.34,2.63-.13.17-.27.22-.71.22-.1,0-.22,0-.34,0,0-.16-.06-.39-.14-.53.22.03.42.03.51.03s.15-.01.2-.08c.07-.08.13-.31.17-.79l-.23.09c-.06-.25-.21-.64-.37-.92l.29-.1c.13.22.25.5.33.72h0c.02-.25.04-.57.06-.95h-1.6v.17h-.56v-3.92h2.65v.55h-.96v.53h.83v.52h-.83v.55h.83v.52h-.83v.55h.74ZM133.47,62.71c.01-.36-.02-.89-.08-1.31l.32-.04c.07.41.1.95.1,1.3l-.34.05ZM134.07,57.69h-.59v.53h.59v-.53ZM134.07,59.29v-.55h-.59v.55h.59ZM133.48,59.81v.55h.59v-.55h-.59ZM134.21,61.27c.13.36.25.83.27,1.14l-.33.07c-.02-.31-.13-.78-.25-1.15l.31-.06ZM138.91,60.15h-1.09c.22,1.23.62,2.26,1.41,2.77-.15.12-.34.36-.43.54-.9-.64-1.33-1.82-1.56-3.31h-.51c-.02,1.07-.15,2.42-.77,3.3-.11-.11-.39-.28-.54-.34.64-.91.69-2.23.69-3.26v-2.7h2.81v3ZM138.31,57.75h-1.59v1.79h1.59v-1.79Z"/>
        </g>
        <g>
          <path class="cls-12" d="M116.32,74.72c.38.68.71,1.4.78,1.67-.06.12-.26.35-.39.42-.45-.2-1.18-.4-1.75-.54.04-.16.16-.44.26-.57.36.1.88.28,1.07.36-.07-.2-.34-.71-.59-1.15-.1-.18-.21-.36-.31-.52-.74.18-1.7.32-2.54.35-.1-.15-.25-.48-.28-.71.72.04,1.7-.05,2.47-.22-.11-.18-.21-.34-.31-.48-.14-.2-.29-.43-.45-.6.16-.09.5-.22.69-.26.15.22.43.66.73,1.17.57-.18.99-.39,1.34-.6.11.16.19.5.2.67-.26.14-.71.34-1.21.5.1.17.2.34.29.51ZM116.15,77.7c.02.2-.03.58-.09.74-.34.08-.71.14-1.15.14-1.49,0-2.29-.61-2.29-1.42,0-.41.24-.8.43-1.01.2.06.42.18.55.31-.16.15-.28.41-.28.62,0,.52.57.82,1.53.82.57,0,1-.11,1.3-.2Z"/>
          <path class="cls-12" d="M119.4,75.47c.61-.2,1.47-.64,2.28-.64.94,0,1.65.64,1.65,1.59,0,1.31-1.15,2.05-2.8,2.1-.09-.11-.26-.46-.31-.68,1.36.04,2.42-.44,2.42-1.43,0-.51-.34-.96-.95-.96-.85,0-1.74.59-2.63.85-.12-.1-.3-.47-.35-.65.21-.04.46-.1.7-.18Z"/>
          <path class="cls-12" d="M126.44,76.39c-.25.48-.74,1.67-.91,2.12-.16,0-.4-.01-.57-.06-.12-.39-.2-1.28-.2-2.1,0-1.08.12-2.24.2-2.87.03-.23.06-.57.08-.78.22.02.58.08.76.17-.19.9-.32,1.99-.36,2.97,0,.44,0,.97.04,1.21,0,.06.04.07.06.01.07-.17.27-.7.41-1.04.18.08.38.22.5.37ZM129.88,73.66c0-.07.01-.15.03-.21-.18.03-.39.05-.61.06-.03.49-.03.81-.03,1.18.52-.04.94-.11,1.18-.15.03.18.02.49,0,.64-.3.06-.71.1-1.17.14.02.5.06,1,.09,1.43.59.18,1.04.45,1.3.67-.02.24-.15.55-.27.69-.27-.31-.62-.54-.99-.7v.08c0,.64-.37,1.05-1.24,1.05s-1.39-.42-1.39-1.04c0-.5.4-.93,1.36-.93.2,0,.38.01.57.04-.02-.37-.05-.83-.07-1.25-.46.02-.95.02-1.38,0-.06-.17-.11-.45-.11-.67.49.06,1,.06,1.48.04v-.04c0-.45,0-.83,0-1.15-.41.02-.81.02-1.13,0-.06-.16-.1-.41-.1-.64.83.1,2.12,0,2.63-.09.02.11.03.28.02.43.11-.13.27-.2.45-.2.34,0,.62.28.62.62s-.27.62-.62.62-.61-.28-.61-.62h0ZM128.72,77.19c-.21-.04-.41-.06-.6-.06-.44,0-.72.12-.72.36s.24.41.71.41c.52,0,.61-.27.61-.65v-.06ZM130.16,73.67c0,.17.15.32.32.32s.33-.15.33-.33-.15-.32-.33-.32-.32.15-.32.32h0Z"/>
          <path class="cls-12" d="M133.62,75.24c.39-.22.83-.34,1.25-.34,1.13,0,1.89.73,1.88,1.67-.01,1.4-1.25,2.23-3.21,2.04-.1-.13-.23-.59-.25-.78,1.55.25,2.7-.17,2.7-1.29,0-.57-.43-1.08-1.32-1.08-1.25,0-2.06.95-2.59,1.69-.15-.08-.43-.38-.53-.59.69-.79,2.4-2.58,2.99-3.18-.26.04-1.25.15-1.86.19-.1-.2-.16-.5-.18-.71.13.01.34.02.56.01.61,0,1.86-.12,2.28-.2.13.11.27.38.31.51-.55.52-1.53,1.44-2.05,2.05h0Z"/>
        </g>
        <g>
          <path class="cls-12" d="M122.03,93.2h-2.62c.43,1.55,1.28,2.75,2.75,3.26-.16.15-.38.44-.48.64-1.41-.57-2.24-1.65-2.76-3.16-.36,1.27-1.12,2.44-2.78,3.16-.1-.18-.3-.42-.48-.57,1.78-.72,2.45-1.98,2.71-3.33h-2.58v-.69h2.68c.06-.67.06-1.35.06-1.98l.9.06c0,.07-.06.12-.18.13,0,.55-.01,1.16-.08,1.79h2.86v.69Z"/>
          <path class="cls-12" d="M127.38,93.31v2.28c.47.77,1.4.77,2.63.77.81,0,1.77-.02,2.39-.07-.08.15-.18.46-.22.65-.52.02-1.31.03-2.04.03-1.53,0-2.39,0-3.05-.83-.34.29-.7.58-.99.81,0,.07-.02.1-.08.13l-.34-.71c.32-.2.72-.48,1.06-.74v-1.71h-.98v-.62h1.62ZM126.34,90.69c.45.31.98.78,1.23,1.12l-.5.48c-.22-.35-.74-.85-1.19-1.18l.46-.42ZM128.68,94.84v1.13h-.62v-3.66h1.83c-.38-.18-.81-.37-1.18-.51l.43-.36c.28.1.61.22.92.36.27-.14.55-.31.78-.48h-2.77v-.52h3.41l.1-.04.49.32s-.08.06-.13.07c-.34.29-.82.64-1.31.9.18.09.35.17.48.25h.88v3.05c0,.57-.24.64-1.22.64-.02-.17-.1-.38-.17-.54.17,0,.34.01.46.01.27,0,.3,0,.3-.12v-.5h-1.06v1.1h-.6v-1.1h-1.03ZM129.71,92.81h-1.03v.52h1.03v-.52ZM128.68,94.35h1.03v-.54h-1.03v.54ZM131.38,93.33v-.52h-1.06v.52h1.06ZM130.31,94.35h1.06v-.54h-1.06v.54Z"/>
        </g>
        <g>
          <path class="cls-12" d="M260.38,185.03c0,1.56-.74,2.04-1.77,2.04-.27,0-.59-.05-.77-.12l.11-.74c.15.05.35.09.59.09.59,0,.96-.26.96-1.31v-3.91h.89v3.95Z"/>
          <path class="cls-12" d="M264.08,184.18c.44.16.69.58.82,1.2.18.77.32,1.38.44,1.6h-.92c-.08-.17-.22-.69-.37-1.41-.16-.79-.45-1.09-1.07-1.09h-.54v2.5h-.89v-5.82c.38-.07.9-.12,1.43-.12.77,0,1.31.14,1.68.47.31.27.47.68.47,1.16,0,.76-.46,1.27-1.06,1.5v.02ZM263.04,183.82c.74,0,1.2-.42,1.2-1.06,0-.76-.54-1.03-1.18-1.03-.3,0-.52.02-.62.05v2.03h.6Z"/>
          <path class="cls-12" d="M272,183.42l.36.02-.02.11c-.15.57-.36,1.25-.57,1.69-.48-.11-.51-.12-.54-.13.11-.27.24-.67.34-1.06h-.68v2.53c0,.69-.33.76-1.45.76-.02-.19-.12-.47-.2-.66.22,0,.43.01.6.01.36,0,.39,0,.39-.13v-2.51h-1.13v.04h-1.26v.66h1.27v.6h-1.27v.85c.46-.06.92-.11,1.39-.17v.55c-1.16.2-2.4.38-3.17.5-.01.07-.07.1-.12.11l-.19-.74c.39-.04.89-.1,1.45-.17v-.92h-1.21v-.6h1.21v-.66h-1.23v-2.97h3.13v2.3h1.85c-.41-.34-.97-.71-1.47-.96l.43-.43c.23.11.48.25.71.39.22-.2.43-.46.6-.7h-1.93v-.59h2.43l.12-.04.5.29s-.07.07-.13.08c-.27.4-.68.9-1.11,1.27.22.16.42.32.57.45l-.21.23h.57ZM266.51,181.66v.69h.71v-.69h-.71ZM266.51,182.85v.69h.71v-.69h-.71ZM268.51,182.35v-.69h-.73v.69h.73ZM268.51,183.55v-.69h-.73v.69h.73Z"/>
          <path class="cls-12" d="M275.33,182.1v3.07c0,.49-.16.62-.7.62-.01-.16-.08-.41-.17-.56h.32s.06-.01.06-.08v-2.47h-.46v4.64h-.57v-4.64h-.43v3.17h-.5v-3.77h.92v-1.32l.72.05c0,.06-.05.09-.15.11v1.17h.94ZM278.2,186.53c0,.18,0,.22.17.22h.25c.25,0,.27,0,.29-.74.11.1.32.21.48.26-.04.69-.05,1.02-.74,1.02h-.44c-.64,0-.64-.43-.64-.79v-1.14h-.58c-.11.97-.39,1.64-1.63,2-.06-.15-.22-.38-.34-.5,1-.25,1.27-.71,1.37-1.51h-.94v-.57h1.56v-1.46l.8.04c0,.06-.06.1-.16.12v1.3h1.65v.57h-1.09v1.18ZM279.04,180.93v2.4h-3.37v-2.4h3.37ZM276.17,184.69c-.07-.27-.27-.71-.46-1.04l.51-.18c.2.32.42.74.5,1.01l-.55.21ZM278.43,181.89v-.47h-2.16v.47h2.16ZM278.43,182.83v-.48h-2.16v.48h2.16ZM279.13,183.72s-.08.06-.16.06c-.15.27-.4.67-.6.93l-.46-.2c.19-.28.42-.74.54-1.05l.68.27Z"/>
          <path class="cls-12" d="M280.41,185.23c-.04.66-.11,1.34-.4,1.74l-.36-.2c.25-.36.34-.99.37-1.61l.38.07ZM282.51,184.26l.31.04s0,.12-.02.18c-.08,1.77-.16,2.42-.34,2.63-.13.17-.27.22-.71.22-.11,0-.22,0-.34,0,0-.16-.06-.39-.14-.53.22.03.42.03.51.03s.15-.01.2-.08c.07-.08.13-.31.17-.79l-.23.09c-.06-.25-.21-.64-.37-.92l.29-.1c.13.22.25.5.33.72h0c.02-.25.04-.57.06-.95h-1.6v.17h-.56v-3.92h2.65v.55h-.96v.53h.83v.52h-.83v.55h.83v.52h-.83v.55h.74ZM280.62,186.61c.01-.36-.02-.89-.08-1.31l.32-.04c.07.41.11.95.1,1.3l-.34.05ZM281.22,181.6h-.59v.53h.59v-.53ZM281.22,183.2v-.55h-.59v.55h.59ZM280.63,183.71v.55h.59v-.55h-.59ZM281.36,185.18c.13.36.25.83.27,1.14l-.33.07c-.02-.31-.13-.78-.25-1.15l.31-.06ZM286.06,184.06h-1.09c.22,1.23.62,2.26,1.41,2.77-.15.12-.34.36-.43.54-.9-.64-1.33-1.82-1.56-3.31h-.51c-.02,1.07-.15,2.42-.77,3.3-.11-.11-.38-.28-.54-.34.64-.91.69-2.23.69-3.26v-2.7h2.81v3ZM285.45,181.66h-1.59v1.79h1.59v-1.79Z"/>
        </g>
        <g>
          <path class="cls-13" d="M221.42,147.29c.53.18,1.22.5,1.58.77l-.54.81c-.32-.28-1-.64-1.54-.85l.5-.73ZM221.27,151.89c.43-.61,1.05-1.61,1.53-2.54l.7.65c-.42.83-.91,1.7-1.31,2.33.03.05.05.1.05.14s-.02.1-.05.14l-.92-.71ZM221.99,145.12c.51.19,1.2.54,1.54.82l-.56.78c-.31-.29-.98-.67-1.5-.9l.53-.71ZM226.38,151.19h2.1v.94h-5.21v-.94h2.1v-4.31h-1.64v-.93h4.5v.93h-1.85v4.31Z"/>
          <path class="cls-13" d="M232.22,149h.19s.5.03.5.03l-.02.26c-.07,1.96-.16,2.72-.38,2.99-.23.29-.48.34-1.18.34-.13,0-.26,0-.4,0-.02-.26-.12-.61-.26-.83.35.03.5.03.85.03.1,0,.15-.02.22-.09.12-.14.19-.65.25-1.89h-.91c-.19,1-.55,2.04-1.35,2.78-.14-.22-.42-.52-.65-.68,1.03-.9,1.2-2.43,1.28-3.67h-.82v-2.81h3.32v2.81h-1.58c-.02.23-.05.48-.08.74h1.01ZM230.41,146.31v1.1h1.52v-1.1h-1.52ZM234.61,146.13c0,.08-.07.13-.21.15v4.33h-.94v-4.54l1.14.06ZM235.36,145.25l1.17.06c0,.08-.06.14-.22.15v6c0,.98-.31,1.17-2.05,1.17-.04-.28-.19-.72-.33-.99.53.02,1.05.02,1.22.02.15,0,.21-.05.21-.2v-6.21Z"/>
          <path class="cls-13" d="M244.37,148.1l.51.02c-.18.9-.28,1.37-.58,2.14-.74-.15-.76-.17-.78-.17.09-.28.19-.68.28-1.09h-.55v2.58c0,.9-.36,1.03-1.73,1.03-.02-.26-.14-.66-.27-.92v.14c-1.3.22-2.69.42-3.57.54,0,.08-.08.12-.14.13l-.26-1.05c.42-.03.97-.09,1.57-.15v-.88h-1.29v-.86h1.29v-.64h-1.32v-3.45h3.61v2.63h1.9c-.46-.34-1.05-.69-1.56-.93l.61-.62c.23.1.47.22.71.36.17-.18.33-.38.47-.59h-1.94v-.86h2.63l.17-.05.72.42c-.02.06-.1.1-.17.11-.29.42-.71.97-1.17,1.4.24.15.46.31.63.45l-.28.31h.51ZM238.3,146.22v.61h.6v-.61h-.6ZM238.3,147.54v.62h.6v-.62h-.6ZM239.7,146.83h.62v-.61h-.62v.61ZM239.7,148.16h.62v-.62h-.62v.62ZM241.25,151.68c.23.02.48.02.66.02.36,0,.39,0,.39-.14v-2.56h-1.17v-.09h-1.37v.64h1.38v.86h-1.38v.78l1.47-.16.02.63Z"/>
          <path class="cls-13" d="M248.49,146.56v3.45c0,.54-.1.86-.84.86,0-.22-.1-.57-.21-.78v2.55h-.81v-5.21h-.35v3.54h-.7v-4.4h1.06v-1.47l1,.06c0,.07-.06.11-.19.14v1.28h1.05ZM247.45,147.42v2.65h.3s.06-.02.06-.08v-2.57h-.36ZM251.88,151.57c0,.18,0,.22.14.22.32,0,.34,0,.38-.19,0-.1.02-.34.03-.65.15.14.46.3.68.37-.03.71-.06,1.25-.88,1.25h-.47c-.79,0-.79-.61-.79-1.02v-1.14h-.57c-.11,1.06-.38,1.82-1.78,2.25-.08-.21-.31-.55-.48-.71,1.06-.28,1.32-.74,1.41-1.54h-.91v-.81h1.66v-1.55h-1.45v-2.81h3.9v2.81h-1.61s.28.02.28.02c0,.08-.06.12-.21.15v1.38h1.78v.81h-1.1v1.17ZM249.28,149.52c-.07-.3-.26-.78-.46-1.13l.74-.26c.21.34.42.8.5,1.1l-.78.29ZM249.68,145.92v.39h2.15v-.39h-2.15ZM249.68,146.95v.4h2.15v-.4h-2.15ZM252.9,148.46c-.03.06-.11.09-.21.08-.16.3-.43.73-.65,1l-.66-.28c.2-.31.43-.81.55-1.15l.96.35Z"/>
        </g>
      </g>
      <g>
        <rect class="cls-16" x="51.43" y="217.64" width="42.87" height="14.03" rx="3" ry="3"/>
        <g>
          <path class="cls-13" d="M59.23,222.5v-1.78l1.22.07c0,.07-.07.13-.22.15v7.1h-1.01v-1.66c-.6.26-1.18.5-1.6.67,0,.07-.06.14-.12.16l-.46-1.07c.54-.16,1.37-.45,2.18-.74v-1.95h-1.9v-.96h1.9ZM62.25,226.52c0,.45.05.51.34.51h.84c.31,0,.36-.33.42-1.62.23.18.66.38.92.43-.1,1.54-.34,2.13-1.24,2.13h-1.08c-.92,0-1.19-.33-1.19-1.47v-5.77l1.23.06c0,.08-.07.13-.23.16v2.2c.62-.39,1.21-.85,1.66-1.23l.74.9s-.11.06-.21.04c-.58.42-1.39.89-2.18,1.3v2.36Z"/>
          <path class="cls-13" d="M68.66,225.69c0,.07-.08.13-.21.14-.2,1.1-.54,1.9-2.65,2.33-.09-.25-.33-.65-.52-.86,1.82-.28,2.05-.81,2.17-1.73l1.2.11ZM70.41,226.86c0,.26.05.3.35.3h.84c.28,0,.33-.14.37-1.09.2.16.62.32.88.38-.1,1.28-.36,1.61-1.16,1.61h-1.06c-.96,0-1.19-.29-1.19-1.2v-1.49h-2.99v-4.54h5.28v4.54h-1.31v1.48ZM67.37,221.63v.5h3.37v-.5h-3.37ZM67.37,222.86v.5h3.37v-.5h-3.37ZM67.37,224.1v.51h3.37v-.51h-3.37Z"/>
          <path class="cls-13" d="M80.87,222.83v.84h-1.34l.16.05c-.04.06-.11.1-.22.1-.13.23-.31.51-.49.76h1.69v.84h-2.76c-.02.06-.09.1-.21.11v.56h2.59v.83h-2.59v1.22h-1.01v-1.22h-2.45v-.83h2.45v-.67h-2.92v-.84h1.65c-.1-.27-.26-.59-.41-.86l.18-.05h-1.62v-.84h3.11v-.63h-2.29v-.83h2.29v-.73l1.22.07c0,.08-.07.13-.22.15v.5h2.37v.83h-2.37v.63h3.17ZM76,223.66c.18.3.35.66.42.9h1.54c.15-.26.32-.59.45-.9h-2.41Z"/>
          <path class="cls-13" d="M85.46,220.95v5.68h-2.76v.61h-.81v-6.28h3.57ZM83.28,221.79h-.58v1.54h.58v-1.54ZM82.7,224.16v1.63h.58v-1.63h-.58ZM84.63,223.34v-1.54h-.61v1.54h.61ZM84.02,225.79h.61v-1.63h-.61v1.63ZM89.17,221.47v.94h-1.02v4.61c0,.97-.42,1.11-2.04,1.11-.04-.27-.19-.7-.32-.96.27.02.58.02.82.02.51,0,.54,0,.54-.18v-4.59h-1.54v-.94h3.55Z"/>
        </g>
        <g>
          <path class="cls-12" d="M101.14,222.96v-1.62l.85.05c0,.06-.06.1-.17.12v6.2h-.69v-1.54c-.58.25-1.16.49-1.56.65,0,.06-.04.11-.09.13l-.34-.74c.5-.16,1.25-.43,1.99-.71v-1.87h-1.76v-.67h1.76ZM103.58,226.52c0,.38.05.45.34.45h.91c.31,0,.35-.3.4-1.46.17.13.45.27.64.31-.07,1.32-.25,1.81-.98,1.81h-1.06c-.72,0-.94-.25-.94-1.11v-5.17l.86.06c0,.06-.06.1-.17.11v2.09c.6-.37,1.2-.82,1.62-1.19l.53.62s-.08.05-.16.04c-.51.39-1.26.83-1.99,1.23v2.23Z"/>
          <path class="cls-12" d="M109.02,225.65c0,.06-.06.1-.17.11-.18.98-.53,1.67-2.28,2.03-.06-.17-.23-.46-.36-.6,1.55-.26,1.85-.76,1.97-1.63l.85.08ZM110.56,226.84c0,.22.05.25.34.25h.92c.27,0,.32-.13.35-.98.14.12.43.22.62.27-.08,1.07-.26,1.34-.9,1.34h-1.06c-.75,0-.94-.2-.94-.88v-1.45h-2.65v-3.94h4.55v3.94h-1.21v1.44ZM107.87,222v.59h3.24v-.59h-3.24ZM107.87,223.12v.6h3.24v-.6h-3.24ZM107.87,224.23v.61h3.24v-.61h-3.24Z"/>
          <path class="cls-12" d="M119.7,222.16v.64h-2.84s.12,0,.12,0c0,.06-.06.1-.17.12v.74h2.26v2.46c0,.69-.3.76-1.58.76-.04-.2-.13-.48-.23-.66.27.01.54.02.74.02.34,0,.39,0,.39-.14v-1.79h-1.58v3.47h-.69v-3.47h-1.46v2.58h-.67v-3.24h2.13v-.87h-2.84v-.64h2.83v-.98l.88.06c0,.06-.06.1-.17.12v.8h2.88Z"/>
          <path class="cls-12" d="M126.69,223.22v.59h-1.37l.23.07s-.08.08-.18.08c-.12.22-.3.53-.48.77h1.6v.59h-2.53s-.06.08-.16.1v.63h2.36v.59h-2.36v1.15h-.69v-1.15h-2.26v-.59h2.26v-.73h-2.65v-.59h1.53c-.09-.26-.25-.59-.4-.85l.22-.06h-1.54v-.59h2.83v-.7h-2.09v-.58h2.09v-.7l.85.05c0,.06-.06.1-.17.12v.53h2.16v.58h-2.16v.7h2.89ZM124.25,224.72h-.04c.15-.27.33-.62.46-.92h-2.41c.18.29.35.64.42.89l-.09.03h1.66Z"/>
          <path class="cls-12" d="M130.55,221.56v4.89h-2.53v.54h-.57v-5.43h3.1ZM128.71,222.14h-.69v1.53h.69v-1.53ZM128.02,224.25v1.62h.69v-1.62h-.69ZM129.97,223.66v-1.53h-.73v1.53h.73ZM129.24,225.86h.73v-1.62h-.73v1.62ZM133.8,222.02v.65h-.96v4.28c0,.76-.34.82-1.73.82-.03-.19-.13-.49-.23-.67.24,0,.48.01.67.01q.61,0,.61-.17v-4.27h-1.49v-.65h3.13Z"/>
          <path class="cls-12" d="M134.21,227.55l6.34-6.34.22.22-6.34,6.34-.22-.22Z"/>
          <path class="cls-12" d="M146.72,222.3l.49.25s-.06.08-.09.09c-.74,2.82-2.68,4.43-5.06,5.16-.08-.2-.26-.5-.41-.64,1.11-.3,2.14-.83,2.97-1.62-.39-.39-1.06-.88-1.62-1.21l.48-.44c.55.31,1.21.76,1.62,1.13.49-.57.88-1.25,1.14-2.04h-2.55c-.53.74-1.16,1.37-1.86,1.83-.13-.14-.38-.37-.55-.49,1.09-.65,2.06-1.83,2.59-3.13l.83.28c-.03.06-.09.09-.19.08-.12.27-.26.53-.41.78h2.47l.13-.04Z"/>
          <path class="cls-12" d="M154.48,224.75h-2.79c-.06.14-.13.28-.2.41h2.39s.34.03.34.03c0,.06,0,.13-.01.18-.11,2.35-.2,2.4-1.11,2.4-.08,0-.17,0-.27,0,0-.17-.07-.41-.15-.56.22.02.42.03.51.03s.14,0,.19-.07c.09-.11.15-.49.2-1.48h-.29c-.29.81-.78,1.59-1.37,2.07-.08-.1-.26-.29-.37-.38.48-.37.9-1,1.16-1.7h-.48c-.39.78-1.05,1.52-1.74,1.97-.08-.1-.24-.31-.34-.41.57-.34,1.13-.91,1.48-1.56h-.47c-.26.35-.56.66-.89.89-.09-.11-.27-.29-.38-.39.48-.31.92-.85,1.21-1.44h-.8c.03.12.04.24.04.35,0,1.08-.69,1.05-1.19,1.03,0-.16-.07-.41-.15-.55.14,0,.28,0,.38,0,.2,0,.36-.09.36-.54,0-.36-.17-.8-.64-1.32.18-.49.36-1.13.49-1.61h-.76v5.66h-.59v-6.26h1.62l.1-.02.43.22s-.04.08-.06.09c-.16.55-.41,1.27-.64,1.84.29.33.47.62.57.9v-.33h4.26v.53ZM153.87,221.5v2.35h-3.12v-2.35h3.12ZM153.24,222.44v-.46h-1.88v.46h1.88ZM153.24,223.37v-.47h-1.88v.47h1.88Z"/>
          <path class="cls-12" d="M156.45,224.75c-.26.39-.58.79-.89,1.03-.2-.08-.47-.26-.58-.39.46-.3.85-.79,1.05-1.18.21-.38.34-.78.42-1.18.2.05.5.17.66.25-.06.21-.19.55-.33.88.75,0,2.12-.01,2.39-.02.13,0,.34-.01.47-.03.03.15.04.46.02.63h-1.27c-.04,1.53-.63,2.39-1.72,2.93-.19-.09-.48-.34-.58-.53.17-.04.38-.13.53-.2.58-.34,1.05-.91,1.1-2.18h-1.27Z"/>
          <path class="cls-12" d="M165.3,226.84h1.66v.65h-6.43v-.65h1.1v-4.96l.58.13c1.23-.17,2.54-.43,3.35-.71l.54.59s-.06.03-.1.03c-.02,0-.04,0-.07,0-.91.29-2.31.54-3.61.7v1.09h4.27v.65h-1.28v2.49ZM162.31,224.35v2.49h2.3v-2.49h-2.3Z"/>
          <path class="cls-12" d="M169.01,223.99v2.28c.47.77,1.4.77,2.63.77.81,0,1.76-.02,2.39-.07-.08.15-.18.46-.22.65-.52.02-1.31.03-2.04.03-1.53,0-2.39,0-3.05-.83-.34.29-.7.58-.99.81,0,.07-.02.1-.08.13l-.34-.71c.32-.2.72-.48,1.06-.74v-1.71h-.98v-.62h1.62ZM167.97,221.37c.45.31.98.78,1.23,1.12l-.5.48c-.22-.35-.74-.85-1.19-1.18l.46-.42ZM170.31,225.52v1.13h-.62v-3.66h1.83c-.38-.18-.81-.37-1.18-.51l.43-.36c.28.1.61.22.92.36.27-.14.55-.31.78-.48h-2.77v-.52h3.41l.1-.04.49.32s-.08.06-.13.07c-.34.29-.82.64-1.31.9.18.09.35.17.48.25h.88v3.05c0,.58-.24.64-1.22.64-.02-.17-.1-.38-.17-.54.17,0,.34.01.46.01.27,0,.3,0,.3-.12v-.5h-1.06v1.1h-.6v-1.1h-1.03ZM171.34,223.48h-1.03v.52h1.03v-.52ZM170.31,225.02h1.03v-.54h-1.03v.54ZM173.01,224v-.52h-1.06v.52h1.06ZM171.95,225.02h1.06v-.54h-1.06v.54Z"/>
          <path class="cls-12" d="M174.72,223.17c.47.15,1.08.44,1.38.67l-.36.55c-.29-.23-.88-.55-1.37-.73l.35-.5ZM174.62,227.24c.37-.55.9-1.45,1.31-2.26l.5.43c-.36.74-.81,1.56-1.16,2.1.03.04.04.08.04.12s-.01.07-.04.1l-.65-.49ZM175.14,221.25c.47.18,1.06.48,1.36.74l-.39.55c-.28-.26-.85-.6-1.32-.79l.36-.49ZM178.35,221.45c-.02.06-.08.09-.18.09-.27,1.19-.74,2.33-1.41,3.03-.13-.13-.38-.34-.54-.44.62-.61,1.07-1.71,1.3-2.87l.83.19ZM176.87,227.77v-3.16h3.48v3.13h-.67v-.29h-2.18v.32h-.64ZM179.69,225.23h-2.18v1.6h2.18v-1.6ZM179.57,221.25c.27,1.04.81,2.12,1.45,2.68-.17.13-.41.38-.52.56-.69-.67-1.24-1.86-1.56-3.06l.63-.17Z"/>
          <path class="cls-12" d="M182.61,224.41c.11,1.1.42,1.91.79,1.91.27,0,.42-.72.51-1.5.23.07.55.25.69.38-.26,1.49-.66,1.98-1.18,1.98-.64,0-1.31-.65-1.54-2.66-.09-.87-.13-1.6-.17-2.14.2-.01.64.02.81.08-.01.31.03,1.36.09,1.96ZM187.76,225.55c-.13.13-.43.28-.7.36-.15-.95-.6-2.05-1.32-2.83.16-.13.46-.31.61-.38.75.77,1.32,2.09,1.42,2.85Z"/>
          <path class="cls-12" d="M190.73,224.49c0,.45-.36.81-.81.81s-.81-.36-.81-.81.36-.81.81-.81.81.38.81.81Z"/>
          <path class="cls-12" d="M192.19,224.25c-.11-.16-.22-.5-.25-.71.28-.02.62-.05.96-.1.12-.01.33-.05.6-.08,0-.32-.01-.67-.02-.9-.01-.23-.04-.51-.07-.73.25-.02.59,0,.83.04,0,.27-.01.81-.02,1.48,1.01-.15,2.24-.35,2.58-.43.13-.03.24-.06.31-.1.16.09.38.28.5.43-.22.45-1.12,1.78-1.71,2.3-.19-.05-.55-.25-.69-.37.55-.34,1.2-1.18,1.43-1.58-.25.04-1.35.22-2.42.4,0,.85-.02,1.7-.02,2,0,.43.22.65,1.06.65s1.75-.11,2.25-.28c.02.2-.03.61-.08.79-.37.08-1.21.16-2.1.16-1.59,0-1.83-.44-1.83-1.19,0-.47,0-1.47.01-2.01l-1.3.22Z"/>
          <path class="cls-12" d="M202.35,225.48c-.67.98-1.66,1.61-2.69,1.98-.22-.12-.49-.44-.64-.69,1.08-.25,1.92-.71,2.6-1.56.46-.57.74-1.41.83-2.05-.55,0-3.32.04-3.93.06-.04-.18-.08-.63-.08-.8.27.03.57.04.81.04.36,0,2.77-.02,3.18-.03.11,0,.25-.01.38-.04.15.11.38.35.52.55-.15.69-.38,1.64-.98,2.54ZM203.87,222.59c-.07.07-.22.16-.35.21-.13-.26-.34-.64-.53-.87.11-.08.24-.16.34-.2.17.2.43.63.54.85ZM204.57,222.24c-.07.06-.22.15-.34.2-.13-.27-.35-.62-.53-.84.11-.08.24-.15.34-.19.17.19.43.6.53.83Z"/>
          <path class="cls-12" d="M207.17,223.09c-.06.2-.29.55-.43.7-.43-.35-1.23-.83-1.85-1.1.08-.18.31-.55.4-.67.55.23,1.43.71,1.88,1.07ZM207.2,225.88c1.11-.63,1.98-1.59,2.53-2.77.21.13.48.43.57.62-.63,1.12-1.54,2.12-2.7,2.79-.76.43-1.49.71-2.09.87-.2-.19-.41-.51-.49-.75.74-.11,1.53-.4,2.18-.76Z"/>
          <path class="cls-12" d="M214.55,223.64c0,2.07,0,3.12,0,3.12,0,.24.01.55.02.76-.2.03-.62.03-.86,0,.01-.15.03-.39.04-.74.01-.49.03-1.3.02-2.61-.69.41-1.51.78-2.18,1-.18-.15-.45-.48-.54-.68.82-.15,1.79-.55,2.53-1.03.78-.5,1.57-1.24,1.9-1.8.2.14.45.41.55.6-.33.41-.83.92-1.47,1.39Z"/>
          <path class="cls-12" d="M217.87,226.58c.02-.52.03-2.58.03-3.75,0-.31-.02-.62-.03-.78.13,0,.62.04.81.08-.05.59-.06,3.77-.06,4.3,1.13-.31,2.75-1.1,3.78-2.56.15.15.36.51.41.71-.8,1.04-2.21,2.02-4.18,2.65-.11.04-.18.06-.29.1-.15-.07-.4-.25-.5-.36.02-.13.03-.27.04-.39Z"/>
          <path class="cls-12" d="M227.34,225.48c-.67.98-1.66,1.61-2.69,1.98-.22-.12-.49-.44-.64-.69,1.08-.25,1.92-.71,2.6-1.56.46-.57.74-1.41.83-2.05-.55,0-3.32.04-3.93.06-.04-.18-.08-.63-.08-.8.27.03.57.04.81.04.36,0,2.77-.02,3.18-.03.11,0,.25-.01.38-.04.15.11.38.35.52.55-.15.69-.38,1.64-.98,2.54ZM228.86,222.59c-.07.07-.22.16-.35.21-.13-.26-.34-.64-.53-.87.11-.08.24-.16.34-.2.17.2.43.63.54.85ZM229.56,222.24c-.07.06-.22.15-.34.2-.13-.27-.35-.62-.53-.84.11-.08.24-.15.34-.19.17.19.43.6.53.83Z"/>
          <path class="cls-12" d="M232.16,223.09c-.06.2-.29.55-.43.7-.43-.35-1.23-.83-1.85-1.1.08-.18.31-.55.4-.67.55.23,1.43.71,1.88,1.07ZM232.19,225.88c1.11-.63,1.98-1.59,2.53-2.77.21.13.48.43.57.62-.63,1.12-1.54,2.12-2.7,2.79-.76.43-1.49.71-2.09.87-.2-.19-.41-.51-.49-.75.74-.11,1.53-.4,2.18-.76Z"/>
          <path class="cls-12" d="M239.44,227.27h-3.34v-.52l.58-.61c1.16-1.19,1.8-1.95,1.8-2.77,0-.53-.25-1-.95-1-.42,0-.8.23-1.06.43l-.25-.61c.33-.28.87-.51,1.48-.51,1.13,0,1.63.77,1.63,1.6,0,1.01-.69,1.85-1.64,2.81l-.45.46h0s2.21.01,2.21.01v.7Z"/>
          <path class="cls-12" d="M240.45,227.27v-5.58h2.9v.71h-2.06v1.72h1.91v.7h-1.91v2.45h-.85Z"/>
        </g>
      </g>
    </g>
  </g>
</svg>