<?xml version="1.0" encoding="UTF-8"?>
<svg id="_レイヤー_2" data-name="レイヤー 2" xmlns="http://www.w3.org/2000/svg" viewBox="0 0 340 47.11">
  <defs>
    <style>
      .cls-1 {
        stroke-width: .85px;
      }

      .cls-1, .cls-2 {
        fill: none;
        stroke: #0c3b2c;
        stroke-miterlimit: 10;
      }

      .cls-2 {
        stroke-width: .85px;
      }

      .cls-3 {
        fill: #0c3b2c;
      }
    </style>
  </defs>
  <g id="_レイヤー_4" data-name="レイヤー 4">
    <g>
      <line class="cls-1" y1="46.69" x2="340" y2="46.69"/>
      <g>
        <path class="cls-2" d="M81.5,12.65h10.4v.27c0,1.53-.2,6.29-3.33,9.38-2.35,2.35-5.24,2.99-8.06,2.99s-5.75-.58-8.23-3.06c-.78-.78-3.37-3.64-3.37-8.74,0-4.39,1.97-7.07,3.33-8.43,1.7-1.73,4.56-3.47,8.94-3.47,1.7,0,3.5.27,5.24,1.19,1.46.75,3.06,2.11,4.25,4.15l-3.84,2.07c-.78-1.53-1.94-2.31-2.65-2.69-.95-.48-2.14-.71-3.2-.71-1.8,0-3.84.65-5.24,2.01-1.29,1.26-2.28,3.43-2.28,5.98,0,3.03,1.29,4.83,2.24,5.75,1.02.99,2.62,1.94,5.03,1.94,1.5,0,3.2-.41,4.45-1.36.88-.68,1.77-1.84,2.14-3.47h-5.85v-3.81Z"/>
        <path class="cls-2" d="M100.13,22.57l-7-12.51h4.83l4.56,8.36,4.08-8.36h4.69l-11.87,22.51h-4.69l5.41-10Z"/>
        <path class="cls-2" d="M114,10.06h4.15v1.67c1.56-1.97,3.5-2.14,4.39-2.14,3.09,0,4.28,1.94,4.66,2.69.71-1.16,2.18-2.69,4.73-2.69,2.28,0,3.4,1.05,3.98,1.8.95,1.26,1.02,2.52,1.02,4.15v9.25h-4.15v-8.02c0-1.73-.37-2.52-.68-2.89-.54-.68-1.29-.75-1.7-.75-1.12,0-1.84.51-2.28,1.29-.54.88-.58,2.07-.58,2.86v7.51h-4.15v-8.02c0-1.73-.37-2.52-.68-2.89-.54-.68-1.29-.75-1.7-.75-1.12,0-1.84.51-2.28,1.29-.54.88-.58,2.07-.58,2.86v7.51h-4.15v-14.72Z"/>
        <path class="cls-3" d="M152.25,0v24.78h-4.15V0h4.15Z"/>
        <path class="cls-3" d="M169.49,11.66c1.46,1.33,2.48,3.37,2.48,5.78s-1.02,4.42-2.48,5.75c-1.26,1.16-3.16,2.07-5.95,2.07s-4.69-.92-5.95-2.07c-1.46-1.33-2.48-3.37-2.48-5.75s1.02-4.45,2.48-5.78c1.26-1.16,3.16-2.07,5.95-2.07s4.69.92,5.95,2.07ZM167.69,17.44c0-2.31-1.77-4.18-4.15-4.18s-4.15,1.87-4.15,4.18,1.73,4.15,4.15,4.15,4.15-1.9,4.15-4.15Z"/>
        <path class="cls-3" d="M185.91,14.55c-.88-.82-1.97-1.29-3.4-1.29-2.75,0-4.15,2.01-4.15,4.15,0,2.41,1.8,4.18,4.28,4.18.92,0,2.14-.27,3.26-1.29v4.04c-.82.41-2.11.92-3.81.92-2.31,0-4.35-.88-5.68-2.14-1.12-1.05-2.35-2.89-2.35-5.64,0-2.58,1.05-4.66,2.55-5.98,1.8-1.6,3.88-1.9,5.3-1.9,1.53,0,2.79.31,3.98.88v4.08Z"/>
        <path class="cls-3" d="M199.99,10.06h4.15v14.72h-4.15v-1.9c-1.5,2.14-3.47,2.38-4.52,2.38-4.52,0-7.51-3.54-7.51-7.85s2.96-7.82,7.31-7.82c1.12,0,3.33.2,4.73,2.38v-1.9ZM192.24,17.41c0,2.35,1.7,4.18,4.08,4.18s4.08-1.83,4.08-4.18-1.7-4.15-4.08-4.15-4.08,1.8-4.08,4.15Z"/>
        <path class="cls-3" d="M212.57,13.6v11.18h-4.15v-11.18h-1.63v-3.54h1.63v-5.03h4.15v5.03h2.86v3.54h-2.86Z"/>
        <path class="cls-3" d="M219.33,1.36c1.36,0,2.48,1.12,2.48,2.48s-1.12,2.48-2.48,2.48-2.48-1.12-2.48-2.48,1.12-2.48,2.48-2.48ZM221.41,10.06v14.72h-4.15v-14.72h4.15Z"/>
        <path class="cls-3" d="M238.64,11.66c1.46,1.33,2.48,3.37,2.48,5.78s-1.02,4.42-2.48,5.75c-1.26,1.16-3.16,2.07-5.95,2.07s-4.69-.92-5.95-2.07c-1.46-1.33-2.48-3.37-2.48-5.75s1.02-4.45,2.48-5.78c1.26-1.16,3.16-2.07,5.95-2.07s4.69.92,5.95,2.07ZM236.84,17.44c0-2.31-1.77-4.18-4.15-4.18s-4.15,1.87-4.15,4.18,1.73,4.15,4.15,4.15,4.15-1.9,4.15-4.15Z"/>
        <path class="cls-3" d="M243.98,10.06h4.15v1.9c.78-1.09,2.18-2.38,4.56-2.38,1.29,0,3.2.37,4.35,1.8,1.02,1.26,1.16,2.72,1.16,4.15v9.25h-4.15v-8.02c0-.82-.03-2.11-.78-2.89-.65-.68-1.53-.75-1.94-.75-1.09,0-1.94.37-2.55,1.29-.61.95-.65,2.01-.65,2.86v7.51h-4.15v-14.72Z"/>
        <path class="cls-3" d="M269.82,13.56c-.99-.92-1.97-.99-2.41-.99-.99,0-1.6.48-1.6,1.19,0,.37.17.95,1.33,1.33l.99.31c1.16.37,2.89.95,3.74,2.11.44.61.75,1.5.75,2.45,0,1.33-.44,2.65-1.63,3.74-1.19,1.09-2.62,1.56-4.42,1.56-3.06,0-4.79-1.46-5.71-2.45l2.18-2.52c.82.95,2.04,1.7,3.26,1.7,1.16,0,2.04-.58,2.04-1.6,0-.92-.75-1.29-1.29-1.5l-.95-.34c-1.05-.37-2.28-.85-3.16-1.77-.68-.71-1.12-1.63-1.12-2.82,0-1.43.68-2.62,1.53-3.33,1.16-.92,2.65-1.05,3.84-1.05,1.09,0,2.82.14,4.69,1.56l-2.04,2.41Z"/>
      </g>
    </g>
  </g>
</svg>