<?xml version="1.0" encoding="UTF-8"?>
<svg id="_レイヤー_2" data-name="レイヤー 2" xmlns="http://www.w3.org/2000/svg" viewBox="0 0 287.04 108.76">
  <defs>
    <style>
      .cls-1 {
        letter-spacing: .1em;
      }

      .cls-1, .cls-2, .cls-3, .cls-4 {
        fill: #ee780c;
      }

      .cls-1, .cls-2, .cls-4 {
        font-family: RyoGothicPlusN-Heavy-83pv-RKSJ-H, 'Ryo Gothic PlusN';
        font-size: 29.89px;
        font-weight: 800;
      }

      .cls-2 {
        letter-spacing: .09em;
      }

      .cls-5 {
        fill: #fff;
        font-size: 18.68px;
      }

      .cls-5, .cls-6, .cls-7, .cls-8 {
        font-family: RyoGothicPlusN-Bold-83pv-RKSJ-H, 'Ryo Gothic PlusN';
        font-weight: 700;
      }

      .cls-6 {
        letter-spacing: .08em;
      }

      .cls-6, .cls-7, .cls-8 {
        fill: #0c3b2c;
        font-size: 24.29px;
      }

      .cls-7 {
        letter-spacing: .1em;
      }

      .cls-4 {
        letter-spacing: .13em;
      }

      .cls-8 {
        letter-spacing: -.18em;
      }

      .cls-9 {
        letter-spacing: -.05em;
      }

      .cls-10 {
        letter-spacing: -.04em;
      }

      .cls-11 {
        letter-spacing: .08em;
      }

      .cls-12 {
        letter-spacing: .06em;
      }

      .cls-13 {
        letter-spacing: .05em;
      }

      .cls-14 {
        letter-spacing: .04em;
      }

      .cls-15 {
        letter-spacing: .03em;
      }

      .cls-16 {
        letter-spacing: .03em;
      }

      .cls-17 {
        letter-spacing: .01em;
      }

      .cls-18 {
        letter-spacing: 0em;
      }
    </style>
  </defs>
  <g id="_レイヤー_4" data-name="レイヤー 4">
    <g>
      <rect class="cls-3" x="16.71" y="0" width="252.35" height="36.95" rx="18.48" ry="18.48"/>
      <text transform="translate(0 94.03)"><tspan><tspan class="cls-1" x="0" y="0">今だ</tspan><tspan class="cls-2" x="65.76" y="0">け</tspan><tspan class="cls-1" x="98.34" y="0">の特</tspan><tspan class="cls-4" x="164.1" y="0">典</tspan><tspan class="cls-6" x="196.69" y="-.64">で</tspan><tspan class="cls-7" x="222.92" y="-.64">体験</tspan></tspan></text>
      <text class="cls-8" transform="translate(269.55 93.86) scale(1 1.05)"><tspan x="0" y="0">！</tspan></text>
      <text class="cls-5" transform="translate(37.97 25.24)"><tspan class="cls-17" x="0" y="0">マ</tspan><tspan class="cls-15" x="18.87" y="0">ン</tspan><tspan class="cls-13" x="38.11" y="0">ツー</tspan><tspan class="cls-18" x="77.34" y="0">マ</tspan><tspan class="cls-16" x="96.21" y="0">ン</tspan><tspan class="cls-12" x="115.45" y="0">サ</tspan><tspan class="cls-11" x="135.26" y="0">ポ</tspan><tspan class="cls-9" x="155.43" y="0">ー</tspan><tspan class="cls-10" x="173.18" y="0">ト</tspan><tspan class="cls-14" x="191.11" y="0">を</tspan></text>
      <circle class="cls-3" cx="80.62" cy="57.75" r="3.4"/>
      <circle class="cls-3" cx="113.43" cy="57.75" r="3.4"/>
      <circle class="cls-3" cx="15.07" cy="57.43" r="3.58"/>
      <circle class="cls-3" cx="48.2" cy="57.75" r="3.4"/>
      <circle class="cls-3" cx="146.24" cy="57.75" r="3.4"/>
      <circle class="cls-3" cx="179.05" cy="57.75" r="3.4"/>
      <polygon class="cls-3" points="142.14 43.03 155.22 29.91 129.06 29.91 142.14 43.03"/>
      <g>
        <path class="cls-3" d="M183.61,107.37c.88.62,1.97,1.39,3.68,1.39s2.8-.77,3.68-1.39c.79-.55,1.53-1.08,2.69-1.08.47,0,.85-.37.85-.83s-.38-.83-.85-.83c-1.71,0-2.8.77-3.68,1.39-.79.55-1.53,1.08-2.69,1.08s-1.91-.52-2.69-1.08c-.88-.62-1.97-1.39-3.68-1.39v1.65c1.17,0,1.91.52,2.69,1.08Z"/>
        <path class="cls-3" d="M170.85,107.37c.88.62,1.97,1.39,3.68,1.39s2.8-.77,3.68-1.39c.79-.55,1.53-1.08,2.69-1.08v-1.65c-1.71,0-2.8.77-3.68,1.39-.79.55-1.53,1.08-2.69,1.08s-1.91-.52-2.69-1.08c-.88-.62-1.97-1.39-3.68-1.39v1.65c1.17,0,1.91.52,2.69,1.08Z"/>
        <path class="cls-3" d="M158.1,107.37c.88.62,1.97,1.39,3.68,1.39s2.8-.77,3.68-1.39c.79-.55,1.53-1.08,2.69-1.08v-1.65c-1.71,0-2.8.77-3.68,1.39-.79.55-1.53,1.08-2.69,1.08s-1.91-.52-2.69-1.08c-.88-.62-1.97-1.39-3.68-1.39v1.65c1.17,0,1.91.52,2.69,1.08Z"/>
        <path class="cls-3" d="M145.35,107.37c.88.62,1.97,1.39,3.68,1.39s2.8-.77,3.68-1.39c.79-.55,1.53-1.08,2.69-1.08v-1.65c-1.71,0-2.8.77-3.68,1.39-.79.55-1.53,1.08-2.69,1.08s-1.91-.52-2.69-1.08c-.88-.62-1.97-1.39-3.68-1.39v1.65c1.17,0,1.91.52,2.69,1.08Z"/>
        <path class="cls-3" d="M132.6,107.37c.88.62,1.97,1.39,3.68,1.39s2.8-.77,3.68-1.39c.79-.55,1.53-1.08,2.69-1.08v-1.65c-1.71,0-2.8.77-3.68,1.39-.79.55-1.53,1.08-2.69,1.08s-1.91-.52-2.69-1.08c-.88-.62-1.97-1.39-3.68-1.39v1.65c1.17,0,1.91.52,2.69,1.08Z"/>
        <path class="cls-3" d="M119.85,107.37c.88.62,1.97,1.39,3.68,1.39s2.8-.77,3.68-1.39c.79-.55,1.53-1.08,2.69-1.08v-1.65c-1.71,0-2.8.77-3.68,1.39-.79.55-1.53,1.08-2.69,1.08s-1.91-.52-2.69-1.08c-.88-.62-1.97-1.39-3.68-1.39v1.65c1.17,0,1.91.52,2.69,1.08Z"/>
        <path class="cls-3" d="M107.09,107.37c.88.62,1.97,1.39,3.68,1.39s2.8-.77,3.68-1.39c.79-.55,1.53-1.08,2.69-1.08v-1.65c-1.71,0-2.8.77-3.68,1.39-.79.55-1.53,1.08-2.69,1.08s-1.91-.52-2.69-1.08c-.88-.62-1.97-1.39-3.68-1.39v1.65c1.17,0,1.91.52,2.69,1.08Z"/>
        <path class="cls-3" d="M94.34,107.37c.88.62,1.97,1.39,3.68,1.39s2.8-.77,3.68-1.39c.79-.55,1.53-1.08,2.69-1.08v-1.65c-1.71,0-2.8.77-3.68,1.39-.79.55-1.53,1.08-2.69,1.08s-1.91-.52-2.69-1.08c-.88-.62-1.97-1.39-3.68-1.39v1.65c1.17,0,1.91.52,2.69,1.08Z"/>
        <path class="cls-3" d="M81.59,107.37c.88.62,1.97,1.39,3.68,1.39s2.8-.77,3.68-1.39c.79-.55,1.53-1.08,2.69-1.08v-1.65c-1.71,0-2.81.77-3.68,1.39-.79.55-1.53,1.08-2.69,1.08s-1.91-.52-2.69-1.08c-.88-.62-1.97-1.39-3.68-1.39v1.65c1.17,0,1.91.52,2.69,1.08Z"/>
        <path class="cls-3" d="M68.84,107.37c.88.62,1.97,1.39,3.68,1.39s2.8-.77,3.68-1.39c.79-.55,1.53-1.08,2.69-1.08v-1.65c-1.71,0-2.81.77-3.68,1.39-.79.55-1.53,1.08-2.69,1.08s-1.91-.52-2.69-1.08c-.88-.62-1.97-1.39-3.68-1.39v1.65c1.17,0,1.91.52,2.69,1.08Z"/>
        <path class="cls-3" d="M56.09,107.37c.88.62,1.97,1.39,3.68,1.39s2.81-.77,3.68-1.39c.79-.55,1.53-1.08,2.69-1.08v-1.65c-1.71,0-2.81.77-3.68,1.39-.79.55-1.53,1.08-2.69,1.08s-1.91-.52-2.69-1.08c-.88-.62-1.97-1.39-3.68-1.39v1.65c1.17,0,1.91.52,2.69,1.08Z"/>
        <path class="cls-3" d="M43.34,107.37c.88.62,1.97,1.39,3.68,1.39s2.8-.77,3.68-1.39c.79-.55,1.53-1.08,2.69-1.08v-1.65c-1.71,0-2.81.77-3.68,1.39-.79.55-1.53,1.08-2.69,1.08s-1.91-.52-2.69-1.08c-.88-.62-1.97-1.39-3.68-1.39v1.65c1.17,0,1.91.52,2.69,1.08Z"/>
        <path class="cls-3" d="M30.59,107.37c.88.62,1.97,1.39,3.68,1.39s2.81-.77,3.68-1.39c.79-.55,1.53-1.08,2.69-1.08v-1.65c-1.71,0-2.81.77-3.68,1.39-.79.55-1.53,1.08-2.69,1.08s-1.91-.52-2.69-1.08c-.88-.62-1.97-1.39-3.68-1.39v1.65c1.17,0,1.91.52,2.69,1.08Z"/>
        <path class="cls-3" d="M17.83,107.37c.88.62,1.97,1.39,3.68,1.39s2.81-.77,3.68-1.39c.79-.55,1.53-1.08,2.69-1.08v-1.65c-1.71,0-2.81.77-3.68,1.39-.79.55-1.53,1.08-2.69,1.08s-1.91-.52-2.69-1.08c-.88-.62-1.97-1.39-3.68-1.39v1.65c1.17,0,1.91.52,2.69,1.08Z"/>
        <path class="cls-3" d="M12.45,107.37c-.88.62-1.97,1.39-3.68,1.39s-2.8-.77-3.68-1.39c-.79-.55-1.53-1.08-2.69-1.08-.47,0-.85-.37-.85-.83s.38-.83.85-.83c1.71,0,2.8.77,3.68,1.39.79.55,1.53,1.08,2.69,1.08s1.91-.52,2.69-1.08c.88-.62,1.97-1.39,3.68-1.39v1.65c-1.17,0-1.91.52-2.69,1.08Z"/>
      </g>
    </g>
  </g>
</svg>