<svg xmlns="http://www.w3.org/2000/svg" xmlns:xlink="http://www.w3.org/1999/xlink" width="80" height="80" viewBox="0 0 80 80">
  <defs>
    <clipPath id="clip-path">
      <circle id="楕円形_5" data-name="楕円形 5" cx="40" cy="40" r="40" transform="translate(508.28 119.098)" fill="#f2f2f2"/>
    </clipPath>
  </defs>
  <g id="グループ_30" data-name="グループ 30" transform="translate(-508.28 -119.098)">
    <g id="グループ_29" data-name="グループ 29">
      <circle id="楕円形_4" data-name="楕円形 4" cx="40" cy="40" r="40" transform="translate(508.28 119.098)" fill="#f2f2f2"/>
      <g id="グループ_28" data-name="グループ 28" clip-path="url(#clip-path)">
        <g id="グループ_27" data-name="グループ 27">
          <g id="グループ_24" data-name="グループ 24">
            <path id="パス_310" data-name="パス 310" d="M585.408,217.2c-.914-12.487-2.153-25.445-9.2-36.181a2.26,2.26,0,0,0-1.106-.863,6.987,6.987,0,0,0-6.479-3.394,11.753,11.753,0,0,0-2.644-.725,27.573,27.573,0,0,1-4.458-1.759,3.907,3.907,0,0,1-.559-.305l.023.018c-.071-.054-.137-.1-.175-.127q-.535-.347-1.048-.724c-.141-.1-.278-.212-.415-.319-.546-.738-1.068-1.5-1.543-2.24a2.281,2.281,0,0,0-2.339-1.045,44.929,44.929,0,0,1,.437-4.757,20.112,20.112,0,0,0,2.987-6.783,5.129,5.129,0,0,0,5.507-3.415,4.21,4.21,0,0,0-2.031-5.377,4.631,4.631,0,0,0-1.306-.409,3.738,3.738,0,0,0-.336-1.235,38.2,38.2,0,0,0-5.985-9.228c-1.471-1.66-4.12-2.321-5.958-.773-.749.632-.336-1.937-.57-.962-.018.011-3-.955-3.021-.944-2.893,1.875-3.525,8.518-5.8,11.113-.837.955-1.637,1.937-2.381,2.963a4.313,4.313,0,0,0-5.222,2.977,6.157,6.157,0,0,0,.854,4.658,3.2,3.2,0,0,0,4.465.549q.129.546.272,1.089c.014.127.024.256.035.385.013.347.03.694.055,1.04a2.127,2.127,0,0,0,.859,1.59,20.542,20.542,0,0,0,2.374,4.609c-.043.326-.088.652-.14.977-.012.079-.026.158-.04.237-.057.022-.115.043-.172.07-1.22.575-2.213,2.243-1.468,3.583.078.141.16.28.242.419-.015.02-.028.04-.042.059-.118.156-.249.3-.372.45-.055.048-.108.1-.164.143-.1.086-.642.48-.8.61-.272.147-.562.27-.838.4-.962.441-1.956.811-2.941,1.195l-5.269,2.055a11.869,11.869,0,0,0-1.48.572,2.39,2.39,0,0,0-2.031.535l-.6.556a7.06,7.06,0,0,0-3.428,3.164c-.093.186-.173.377-.247.571a20.879,20.879,0,0,0-2.265,3.173c-1.654,2.884-2.283,6.2-2.859,9.435a129.036,129.036,0,0,0-2.225,18.445l-.768,3.287a3.58,3.58,0,0,0,.4,2.5c.008.1.019.191.036.287s.037.169.056.254H580.9a2.849,2.849,0,0,0,2.138.659A2.786,2.786,0,0,0,585.408,217.2Z" fill="#fff"/>
            <path id="パス_311" data-name="パス 311" d="M585.337,220.978a1.5,1.5,0,0,0,0-.6l-2-10.819a1.472,1.472,0,0,0-.618-.979l-.354-5.526c-.3-4.727-.709-9.34-2.5-13.777a67.432,67.432,0,0,0-3.037-6.422,13.938,13.938,0,0,0-3.94-4.917,16.522,16.522,0,0,0-12.509-2.508,20.5,20.5,0,0,0-6.268,2.374c-1.717.953-3.518,2.117-5.52,2.3-1.843.169-3.468-.851-4.933-1.837a20.25,20.25,0,0,0-5.353-2.913,15.724,15.724,0,0,0-12.274,1.6,19.217,19.217,0,0,0-8.178,9.729c-1.888,4.754-2.62,10.011-3.414,15.035q-1.332,8.42-1.932,16.93c0,.022,0,.042,0,.063a1.318,1.318,0,0,0-.355.756l-.046,0a1.56,1.56,0,0,0-.632.056v1.32l.136.136Z" fill="#428d65"/>
            <path id="パス_312" data-name="パス 312" d="M564.723,136.946a13.328,13.328,0,0,1-1.375-.126,3.277,3.277,0,0,0-1.443-1.5c-.044-.025-.091-.045-.137-.066a27.117,27.117,0,0,0-2.244-3.48,2.785,2.785,0,0,0-1.731-1.014,10.66,10.66,0,0,0-5.671-3.537,11.135,11.135,0,0,0-6.13.423,2.767,2.767,0,0,0-1.678.123,17.4,17.4,0,0,0-6.181,3.773,3.723,3.723,0,0,0-2,.917,3.649,3.649,0,0,0-.8.636,12.175,12.175,0,0,0-3.1,9.728,2.839,2.839,0,0,0,.162,3.1l2.57,3.631a2.772,2.772,0,0,0,3.839.5,2.68,2.68,0,0,0,1.038-2.306,3.967,3.967,0,0,0,.15-1.962,8.377,8.377,0,0,0-.3-1.106,1.731,1.731,0,0,0-.082-.187c.043-.059.083-.119.128-.176.3-.4.639-.776.919-1.2a9.771,9.771,0,0,0,1.371-3.616c.093-.462.166-.931.278-1.389a4.184,4.184,0,0,0,.173-.474c.028-.073.043-.119.051-.149a.756.756,0,0,0,.152-.17,2.581,2.581,0,0,0,.372-.677,11.742,11.742,0,0,1,4.155,1.378,5.919,5.919,0,0,1,.548.381c.362.514.733,1.022,1.118,1.516.039.082.069.143.066.138.106.235.2.474.3.713.212.52.419,1.043.648,1.556a11.313,11.313,0,0,0,4.7,5.639,7.138,7.138,0,0,0,1.148.5,4.083,4.083,0,0,0,6.205,1.393,3.275,3.275,0,0,0,.617-.764,2.576,2.576,0,0,0,1.831-1,2.88,2.88,0,0,0,.267-2.992,3.981,3.981,0,0,0-.093-.625,3.538,3.538,0,0,0-1.409-2.311,6.449,6.449,0,0,0-1.578-1c.036-.04.072-.079.1-.122a2.627,2.627,0,0,0,.419-.794,3.11,3.11,0,0,0,.641-.472,13.415,13.415,0,0,0,1.557.157,1.555,1.555,0,0,0,1.709-1.282A1.524,1.524,0,0,0,564.723,136.946Z" fill="#0c3b2c"/>
          </g>
          <g id="グループ_26" data-name="グループ 26">
            <g id="グループ_25" data-name="グループ 25">
              <path id="パス_313" data-name="パス 313" d="M536.712,148.766a4.432,4.432,0,0,0-3.4-.619,4.152,4.152,0,0,0-2.529,2.493,8.1,8.1,0,0,0-.149,4.485,6.258,6.258,0,0,0,1.645,3.147,4.92,4.92,0,0,0,3.907,1.334,1.013,1.013,0,0,0,.991-.991,1,1,0,0,0-.991-.991,4.946,4.946,0,0,1-.8.016c-.059,0-.118-.011-.177-.015-.153-.012.153.035.007,0-.122-.031-.247-.049-.368-.083-.105-.029-.207-.064-.31-.1-.174-.06-.017-.006.016.009-.059-.028-.118-.055-.177-.085-.092-.048-.182-.1-.269-.154-.057-.036-.319-.232-.144-.089a4.179,4.179,0,0,1-.469-.443c-.026-.029-.214-.261-.141-.163s-.018-.026-.036-.053c-.036-.052-.072-.1-.106-.158a5.5,5.5,0,0,1-.314-.568c-.014-.029-.084-.179-.028-.056s-.011-.028-.023-.059c-.044-.12-.087-.24-.126-.362a6.6,6.6,0,0,1-.327-1.745,8.1,8.1,0,0,1,.009-.961,4.054,4.054,0,0,1,.1-.72,5.624,5.624,0,0,1,.207-.708c.049-.141-.073.125,0,0,.029-.05.051-.1.079-.156s.058-.1.089-.151c.017-.027.168-.229.1-.151s.049-.049.067-.068q.062-.066.129-.126c.018-.017.166-.132.077-.069s.053-.031.08-.048a5.044,5.044,0,0,1,.465-.273c.033-.017.069-.03.1-.049.1-.061-.222.069-.062.026.085-.023.169-.052.255-.076a1,1,0,0,1,.105-.019c0,.006-.292.01-.042.014.088,0,.181.013.269.011.129,0-.2-.047-.069-.008.055.017.115.023.172.036.128.031.255.07.38.112l.166.061s.272.113.124.048c.172.075.341.157.509.241a.992.992,0,0,0,1-1.712Z" fill="#0c3b2c"/>
              <path id="パス_314" data-name="パス 314" d="M536.045,154.7a16.467,16.467,0,0,0,1.851,7.2,13.761,13.761,0,0,0,5.5,6.011,10.737,10.737,0,0,0,4.9,1.3v-1.982h-.074v1.982a10.859,10.859,0,0,0,7.866-3.443,16.452,16.452,0,0,0,3.825-7.113,15.688,15.688,0,0,0,.553-3.948.991.991,0,1,0-1.982,0,13.352,13.352,0,0,1-.094,1.494l-.015.116s.032-.22.016-.116c-.009.059-.017.119-.026.178q-.031.21-.069.42c-.049.278-.106.555-.17.829a17.362,17.362,0,0,1-.5,1.735q-.15.434-.322.858c-.025.063-.052.127-.078.19.076-.183.018-.045-.022.047-.065.148-.132.294-.2.44a15.433,15.433,0,0,1-.907,1.648q-.254.4-.533.782c-.048.066-.1.131-.147.2-.065.089.046-.06.048-.062-.022.027-.043.055-.065.083-.1.127-.206.254-.312.378a11.641,11.641,0,0,1-1.343,1.331l-.19.155c-.146.119.13-.1-.021.017-.132.1-.265.2-.4.287a9.732,9.732,0,0,1-.845.516c-.157.085-.317.166-.478.242l-.229.1c-.047.021-.175.065.037-.016-.045.017-.089.036-.134.054a9.147,9.147,0,0,1-1.048.34q-.293.076-.588.133c-.088.017-.176.033-.264.047l-.114.018c-.193.033.121-.01-.006,0-.415.037-.824.073-1.241.075a.991.991,0,0,0,0,1.982h.074a.991.991,0,0,0,0-1.982c-.347-.009-.691-.038-1.037-.075.25.027-.025-.006-.084-.015l-.228-.04q-.262-.049-.522-.114a9.472,9.472,0,0,1-.93-.282l-.242-.091c-.092-.037-.191-.081-.035-.012-.156-.069-.311-.139-.464-.214a12.09,12.09,0,0,1-1.626-1.007c-.09-.064.054.042.058.045l-.084-.067-.168-.136c-.129-.107-.255-.217-.38-.33q-.345-.313-.667-.655t-.64-.731l-.135-.169c-.117-.147.092.125-.02-.027-.1-.135-.2-.27-.3-.408a15.41,15.41,0,0,1-.99-1.62q-.217-.406-.41-.826c-.064-.138-.126-.278-.187-.418-.076-.174.062.156-.009-.021l-.1-.258a17.116,17.116,0,0,1-.57-1.708,16.458,16.458,0,0,1-.393-1.837c0-.03-.008-.061-.013-.091-.022-.13.026.215.011.085-.009-.079-.02-.158-.028-.237q-.023-.2-.039-.4-.033-.429-.035-.858a.991.991,0,1,0-1.982,0Z" fill="#0c3b2c"/>
              <path id="パス_315" data-name="パス 315" d="M560.687,150.666a5.1,5.1,0,0,1,.649-.362c-.09.036.107-.037.124-.043.048-.016.1-.032.145-.046.064-.019.129-.036.194-.051-.007,0,.266-.049.156-.034s.081-.005.107-.006c.047,0,.094,0,.141,0s.4.042.2,0a3.114,3.114,0,0,1,.354.091c.01,0,.145.062.051.018s.11.063.13.074c.054.032.106.067.159.1-.035-.023-.124-.113.018.016.078.071.149.146.222.223.106.11-.078-.117.01.007.026.036.051.072.075.109.072.111.124.231.191.344.076.128-.046-.138,0,0,.014.041.031.082.046.123.038.109.072.22.1.332s.048.2.068.295c.012.056.022.112.032.168.007.04.035.227.02.115a6.807,6.807,0,0,1-.341,3.283c-.029.084-.065.166-.094.251-.044.134.078-.149.01-.025-.025.044-.043.092-.065.138a4.866,4.866,0,0,1-.3.531c-.049.074-.1.145-.152.219.135-.2-.048.053-.084.094a5,5,0,0,1-.437.423c-.038.035-.147.1.02-.013-.042.028-.083.059-.125.088a3.457,3.457,0,0,1-.3.18c-.051.028-.374.163-.155.084-.1.037-.2.076-.3.107-.12.035-.241.065-.363.089-.03.006-.208.039-.08.017s-.13.012-.129.012a4.946,4.946,0,0,1-.843-.013,1,1,0,0,0-.991.991,1.018,1.018,0,0,0,.991.991,4.893,4.893,0,0,0,3.268-.812,5.646,5.646,0,0,0,1.966-2.61,8.494,8.494,0,0,0,.484-4.081,4.532,4.532,0,0,0-1.762-3.391,4.013,4.013,0,0,0-4.408.259.991.991,0,0,0,1,1.711Z" fill="#0c3b2c"/>
              <path id="パス_316" data-name="パス 316" d="M585.856,220.53q-.465-8.295-1.587-16.531-.552-4.095-1.268-8.165c-.4-2.281-.8-4.573-1.407-6.809-1.046-3.842-2.773-7.66-5.8-10.344a16.4,16.4,0,0,0-5.8-3.262c-2.275-.748-4.66-1.125-6.9-1.987-.13-.05-.26-.1-.388-.155.121.051-.217-.1-.243-.109-.287-.132-.57-.273-.846-.425a12.551,12.551,0,0,1-1.349-.858l-.136-.1c.029.022.147.119,0,0-.084-.067-.168-.136-.25-.206-.177-.151-.348-.308-.512-.473q-.207-.21-.4-.435c-.053-.063-.2-.255-.068-.077-.069-.094-.138-.188-.2-.284a7.136,7.136,0,0,1-.563-1.016c-.074-.158.01.025.02.049l-.051-.126c-.033-.086-.064-.171-.094-.258-.068-.2-.127-.4-.179-.6-.048-.184-.089-.37-.125-.557-.019-.1-.036-.191-.052-.288-.012-.074-.059-.434-.029-.18-.053-.446-.09-.892-.111-1.341-.023-.492-.03-.985-.031-1.478a.991.991,0,0,0-1.982,0,14.3,14.3,0,0,0,.755,5.386,9,9,0,0,0,3.706,4.169,23.236,23.236,0,0,0,6.818,2.506,32.707,32.707,0,0,1,3.428,1.015,11.744,11.744,0,0,1,1.417.626,14.545,14.545,0,0,1,1.336.775q.3.193.583.4c.094.069.188.138.281.21-.143-.11-.022-.017.005.005l.2.164a14.483,14.483,0,0,1,1.073.985q.506.513.958,1.073c.031.039.232.295.106.131.069.089.136.179.2.27q.223.306.434.622a19.08,19.08,0,0,1,1.4,2.519c.1.221.2.443.3.666.06.14-.057-.14,0,0,.021.053.044.106.065.159.049.12.1.241.143.362.184.472.353.951.51,1.433a48.463,48.463,0,0,1,1.472,6.169q.759,4.061,1.356,8.15c.774,5.3,1.346,10.755,1.7,16.168q.067,1.023.125,2.047a.991.991,0,1,0,1.982,0Z" fill="#0c3b2c"/>
              <path id="パス_317" data-name="パス 317" d="M513.021,220.587c.3-5.415.827-10.949,1.549-16.243q.558-4.093,1.278-8.164c.4-2.259.8-4.527,1.411-6.741.265-.953.569-1.9.927-2.819.041-.107.084-.214.127-.321.018-.046.146-.353.065-.162.1-.237.205-.472.313-.7q.306-.657.657-1.291t.746-1.229q.2-.3.41-.588c.066-.091.134-.18.2-.27.09-.12-.094.116,0,0,.045-.054.088-.11.132-.164A14.543,14.543,0,0,1,522.9,179.8l.134-.109c.021-.017.164-.13.071-.057s.052-.039.073-.055l.141-.1c.214-.156.433-.307.655-.452a14.487,14.487,0,0,1,1.341-.771,17.3,17.3,0,0,1,3.127-1.175,48.381,48.381,0,0,0,7-2.143,9.049,9.049,0,0,0,5.926-8.885c.023-.493.03-.986.03-1.478a.991.991,0,1,0-1.982,0,26.026,26.026,0,0,1-.142,2.819c.03-.271-.013.08-.023.144q-.024.144-.051.288c-.038.2-.081.4-.132.593s-.1.379-.168.566q-.043.131-.093.258c-.016.043-.034.084-.05.127-.029.082.089-.192-.007.014a6.947,6.947,0,0,1-.569,1.013c-.053.077-.11.15-.163.227-.078.112.115-.135.025-.033-.032.036-.061.075-.091.111q-.213.255-.448.489c-.146.146-.3.286-.454.421-.092.079-.187.155-.281.232-.03.025-.149.109,0,0-.057.042-.113.085-.171.126a12.292,12.292,0,0,1-1.36.858q-.393.215-.8.4c-.281.129-.348.156-.68.283-.569.217-1.15.4-1.735.573-1.142.332-2.3.6-3.452.906a18.584,18.584,0,0,0-6.219,2.754,19.114,19.114,0,0,0-6.645,9.952,50.856,50.856,0,0,0-1.463,6.239q-.754,4.063-1.346,8.153-1.186,8.19-1.738,16.455-.068,1.023-.125,2.047a1,1,0,0,0,.991.991,1.013,1.013,0,0,0,.991-.991Z" fill="#0c3b2c"/>
            </g>
            <path id="パス_318" data-name="パス 318" d="M542.852,139.115c.026-.147.074-.283.114-.426-.043.154-.033.074.019-.024s.1-.16.151-.242c-.077.137-.051.06.023-.022.048-.053.1-.1.151-.153s.109-.1.164-.142c-.152.127-.008.013.068-.034.126-.08.26-.141.392-.21.1-.052-.056.025-.064.027.036-.011.07-.027.106-.039.1-.031.192-.062.29-.088.074-.019.149-.034.223-.05.037-.008.076-.011.113-.02-.009,0-.188.015-.074.01.166-.006.329-.024.5-.019.077,0,.153.009.229.014.194.013-.151-.036.038.007.174.039.341.084.51.139.149.049-.078-.044.086.038.081.04.162.081.242.125a4.562,4.562,0,0,1,.493.319l-.022-.016c.035.029.07.057.1.087.081.069.159.14.235.214q.213.207.4.435c.03.035.059.07.088.106.005.005.1.126.036.045s.03.042.034.048l.081.113q.174.249.328.51a10.22,10.22,0,0,1,.557,1.081c.021.046.108.253.047.1.039.1.077.192.115.289.086.221.168.443.248.666.314.875.6,1.761.956,2.618a10.756,10.756,0,0,0,1.479,2.578,9.229,9.229,0,0,0,7.231,3.394.991.991,0,0,0,0-1.982c-.2,0-.405,0-.608-.011-.094-.006-.187-.013-.28-.022l-.139-.014c-.189-.02.052.013-.061-.009a10.632,10.632,0,0,1-1.183-.277c-.194-.061-.384-.13-.573-.2-.171-.066.058.03-.108-.046-.114-.053-.227-.1-.339-.162a8.46,8.46,0,0,1-1.043-.625c-.077-.054-.152-.109-.227-.166.129.1-.094-.078-.129-.107-.167-.14-.329-.287-.484-.44-.134-.132-.262-.268-.386-.408-.072-.082-.142-.166-.211-.25,0,0-.1-.126-.038-.047s-.053-.073-.063-.087a8.527,8.527,0,0,1-.71-1.187,10.414,10.414,0,0,1-.5-1.164,21.478,21.478,0,0,0-2.2-5.07,5.525,5.525,0,0,0-4.32-2.62,3.929,3.929,0,0,0-4.007,2.889.991.991,0,0,0,1.911.527Z" fill="#0c3b2c"/>
            <path id="パス_319" data-name="パス 319" d="M540.771,139.408a4.275,4.275,0,0,1-.17,1.322,4.914,4.914,0,0,1-.48,1.163,9.185,9.185,0,0,0-1.523,5.181c-.019.4-.032.807-.056,1.209-.011.185-.025.369-.043.553-.008.091-.019.182-.029.274.02-.185-.015.086-.025.144a6.724,6.724,0,0,1-.148.672c-.029.1-.061.206-.1.308-.016.048-.114.306-.051.156a4.619,4.619,0,0,1-.337.642c-.062.1-.128.2-.2.293,0,0-.1.128-.049.065.035-.042-.127.145-.128.146l1.657.438a5.144,5.144,0,0,0-2.457-2.952.991.991,0,1,0-1,1.711c.11.058.218.119.323.186.031.02.319.235.177.119a4.126,4.126,0,0,1,.5.487q.047.053.09.108c-.059-.078-.054-.071.014.023s.138.206.2.314.118.219.17.332c-.08-.174.057.163.069.2a1,1,0,0,0,1.656.437,6.339,6.339,0,0,0,1.391-2.574,12.506,12.506,0,0,0,.32-2.637c.018-.4.032-.811.061-1.215.014-.2.039-.406.056-.61.01-.117,0,.011-.005.03.008-.063.018-.125.028-.188q.027-.164.06-.327c.042-.2.092-.407.153-.606.028-.093.059-.186.091-.278.022-.062.045-.124.069-.185-.038.1,0,0,.018-.04.208-.452.461-.88.7-1.317a7.429,7.429,0,0,0,.973-3.583.991.991,0,1,0-1.982,0Z" fill="#0c3b2c"/>
            <path id="パス_320" data-name="パス 320" d="M534.034,147.112c-.026-.032-.171-.219-.085-.1-.068-.09-.133-.182-.2-.275q-.176-.26-.329-.531c-.1-.18-.2-.365-.284-.553l-.06-.131s-.063-.149-.025-.057-.021-.054-.022-.059c-.029-.074-.058-.149-.085-.224a9.589,9.589,0,0,1-.343-1.2c-.044-.205-.081-.411-.114-.617a.533.533,0,0,1-.018-.12c-.013-.112-.025-.224-.035-.337a12.826,12.826,0,0,1,.035-2.554c.006-.053.035-.281.012-.114.014-.1.03-.208.047-.311.041-.241.088-.481.143-.719a12.907,12.907,0,0,1,.377-1.307,12.725,12.725,0,0,1,1.12-2.373q.35-.586.747-1.143c.071-.1.144-.2.217-.3,0,0,.1-.133.048-.064l.048-.062c.149-.188.3-.372.461-.551a9.273,9.273,0,0,1,.953-.927s.128-.1.06-.049.064-.047.062-.045c.083-.06.166-.118.251-.174a4.656,4.656,0,0,1,.64-.356c-.108.049.118-.044.151-.056.114-.041.229-.077.345-.112.215-.064.433-.118.651-.17.455-.108.913-.2,1.359-.347a7.233,7.233,0,0,0,2.473-1.451c.16-.135.318-.272.477-.407l.222-.186.112-.091c.079-.064-.073.05.064-.05a5.27,5.27,0,0,1,1.1-.627c-.078.032.142-.056.174-.068.121-.047.242-.092.364-.135.227-.081.455-.156.686-.224a13.246,13.246,0,0,1,1.4-.335c.127-.023.255-.044.383-.064l.165-.024c-.025,0-.1.014.011,0,.258-.029.515-.053.774-.068a12.613,12.613,0,0,1,1.442,0q.318.018.635.052c.05,0,.284.034.122.012.112.016.223.033.335.052a12.711,12.711,0,0,1,1.278.28q.608.165,1.2.388c.09.034.181.07.271.106,0,0,.151.061.061.024s.084.037.1.046c.193.084.383.174.571.267q.587.293,1.142.64c.318.2.755.5.974.671s.621.514.894.772q.457.434.872.91a18.944,18.944,0,0,1,1.544,2.152c.515.8,1.021,1.6,1.6,2.35a6.983,6.983,0,0,0,2.146,2.011,16.561,16.561,0,0,0,2.265.865c.082.029.164.061.245.093.172.068-.077-.041.093.042a6.6,6.6,0,0,1,.585.316q-.1-.778-.2-1.557c.4-.319.1-.077,0,0l-.44.321c-.339.246-.679.492-1.024.73a2.631,2.631,0,0,1-1,.449,4.2,4.2,0,0,1-.544.113c.122-.015-.1.006-.121.007-.092.006-.184.01-.276.011a2.9,2.9,0,0,1-1.062-.17,1,1,0,0,0-1.219.693,1.012,1.012,0,0,0,.692,1.219,5.41,5.41,0,0,0,4.449-.554c.662-.45,1.323-.915,1.95-1.412a1,1,0,0,0-.2-1.557,11.672,11.672,0,0,0-2.4-.986c-.173-.059-.345-.121-.514-.19.16.066-.017-.011-.077-.04q-.159-.076-.312-.165c-.093-.054-.184-.112-.273-.172-.039-.027-.078-.054-.116-.082.017.013.1.077.006,0a5.159,5.159,0,0,1-.581-.564,9.93,9.93,0,0,1-.8-1.024c-.278-.4-.543-.8-.805-1.205-.561-.868-1.121-1.733-1.757-2.55a14.262,14.262,0,0,0-9.478-5.271,13.725,13.725,0,0,0-6.009.638,12.506,12.506,0,0,0-1.554.625,6.814,6.814,0,0,0-1.191.807c-.352.281-.686.583-1.034.868-.033.027-.218.17-.1.082-.089.067-.179.132-.271.194a4.7,4.7,0,0,1-.591.342c-.048.023-.1.047-.145.067.022-.009.1-.039-.008,0s-.23.082-.347.119c-.232.072-.467.132-.7.189-.47.113-.945.21-1.406.357a6.883,6.883,0,0,0-2.617,1.6,14.644,14.644,0,0,0-3.281,4.837c-1.474,3.435-1.753,7.752.2,11.07a9.341,9.341,0,0,0,.849,1.186.992.992,0,0,0,1.4,0,1.018,1.018,0,0,0,0-1.4Z" fill="#0c3b2c"/>
            <path id="パス_321" data-name="パス 321" d="M562.13,141.85a2.718,2.718,0,0,1,.268.058c.059.017.116.036.173.057-.084-.037-.093-.04-.03-.009.081.041.16.085.237.134.039.024.077.049.114.076-.066-.054-.072-.059-.019-.014a4.434,4.434,0,0,1,.429.427c.135.148-.046-.084.076.1.052.078.106.154.156.234a5.6,5.6,0,0,1,.274.5c.042.086.083.173.12.261-.072-.171.039.113.042.119a6.591,6.591,0,0,1,.3,1.156c.008.048.015.1.021.142-.012-.089-.014-.1-.006-.025.01.1.019.19.025.286.013.208.017.415.011.623-.006.192-.021.383-.04.574-.022.216.026-.117-.019.116-.018.094-.034.189-.054.283a6.377,6.377,0,0,1-.336,1.1c.07-.169-.038.08-.054.113-.041.087-.084.172-.129.257-.106.2-.223.387-.348.573a1,1,0,0,0,.356,1.356,1.016,1.016,0,0,0,1.356-.356,7.722,7.722,0,0,0,1.112-5.66c-.325-1.815-1.512-4.047-3.508-4.384a1.015,1.015,0,0,0-1.219.692,1,1,0,0,0,.692,1.219Z" fill="#0c3b2c"/>
            <path id="パス_322" data-name="パス 322" d="M543.069,138.579c.046-.032.347-.169.161-.108.057-.018.387-.059.176-.051.035,0,.339,0,.233-.006s.191.044.229.055c.06.018.118.038.175.06-.1-.039-.09-.034.014.016.03.02.323.211.2.119a2.988,2.988,0,0,1,.487.493c-.091-.114.12.173.14.2.055.084.108.17.159.256.138.234.263.475.379.72a8.258,8.258,0,0,1,.462,1.252,8.466,8.466,0,0,1,.367,2.834q-.009.36-.042.719c0,.035-.048.412-.025.246-.019.136-.042.271-.067.406a10.037,10.037,0,0,1-.4,1.487,1,1,0,0,0,.692,1.22,1.017,1.017,0,0,0,1.22-.693,11.3,11.3,0,0,0,.4-5.746,11.056,11.056,0,0,0-.9-2.725,5.886,5.886,0,0,0-1.793-2.319,2.933,2.933,0,0,0-3.275-.15.991.991,0,0,0,1,1.712Z" fill="#0c3b2c"/>
            <path id="パス_323" data-name="パス 323" d="M534.492,175.016l4.461,2.167,7.115,3.456,1.638.8a.992.992,0,0,0,1-1.712l-4.462-2.167L537.13,174.1l-1.638-.8a.991.991,0,1,0-1,1.711Z" fill="#0c3b2c"/>
            <path id="パス_324" data-name="パス 324" d="M561.471,173.268l-4.461,2.167-7.115,3.456-1.638.8a1,1,0,0,0-.356,1.356,1.018,1.018,0,0,0,1.356.356l4.462-2.168,7.115-3.455,1.638-.8a1,1,0,0,0,.355-1.356,1.017,1.017,0,0,0-1.356-.356Z" fill="#0c3b2c"/>
          </g>
        </g>
      </g>
    </g>
  </g>
</svg>
