<svg xmlns="http://www.w3.org/2000/svg" xmlns:xlink="http://www.w3.org/1999/xlink" width="80" height="80" viewBox="0 0 80 80">
  <defs>
    <clipPath id="clip-path">
      <circle id="楕円形_8" data-name="楕円形 8" cx="40" cy="40" r="40" transform="translate(1263.948 119.098)" fill="none"/>
    </clipPath>
  </defs>
  <g id="グループ_40" data-name="グループ 40" transform="translate(-1263.948 -119.098)">
    <g id="グループ_39" data-name="グループ 39" clip-path="url(#clip-path)">
      <circle id="楕円形_6" data-name="楕円形 6" cx="40" cy="40" r="40" transform="translate(1263.948 119.098)" fill="#f2f2f2"/>
      <path id="パス_443" data-name="パス 443" d="M1295.131,167.926l-.005.007c-.005.021-.01.041-.014.064C1295.117,167.974,1295.124,167.95,1295.131,167.926Z" fill="none"/>
      <path id="パス_444" data-name="パス 444" d="M1295.229,167.784c.139-.2.117-.276.053-.213a1.861,1.861,0,0,0-.151.355Z" fill="none"/>
      <path id="パス_445" data-name="パス 445" d="M1305.718,174.008l6.625-1.419,4.016-2.295a1.4,1.4,0,0,1-.2-.123l.023.018c-.069-.053-.133-.1-.171-.125-.346-.223-.685-.458-1.017-.7a21.4,21.4,0,0,1-2.34-2.015c-.435-.43-.008-1.848-.71-1.955.042-1.775-.955-2.389-.7-4.147a19.533,19.533,0,0,0,2.9-6.586,4.978,4.978,0,0,0,5.346-3.316,4.087,4.087,0,0,0-1.972-5.22,4.492,4.492,0,0,0-1.268-.4,3.592,3.592,0,0,0-.326-1.2,37.058,37.058,0,0,0-5.81-8.959,4.206,4.206,0,0,0-5.785-.75A4.644,4.644,0,0,0,1302.92,137a7.462,7.462,0,0,0-4.773.291,5.046,5.046,0,0,0-2.733,6.25c-.065.072-.133.142-.2.216-.814.927-1.59,1.881-2.312,2.877a4.187,4.187,0,0,0-5.07,2.89,5.98,5.98,0,0,0,.829,4.523,3.1,3.1,0,0,0,4.335.532q.126.531.264,1.057c.013.124.024.249.034.374.013.337.03.674.054,1.01a2.062,2.062,0,0,0,.834,1.544,19.864,19.864,0,0,0,2.3,4.474c-.041.317-.085.633-.135.949q-.088.56-.2,1.117-.07.345-.151.689c-.059.246-.063.342-.048.354-.118.329-.317.725-.376.866-.071.169-.193.365-.3.559.064-.063.086.017-.053.213l-.1.142h0c-.007.024-.014.048-.019.071,0-.023.009-.043.014-.064-.068.1-.137.2-.21.294-.114.151-.241.291-.361.437-.053.046-.1.1-.159.139-.1.083-.623.465-.778.592-.265.142-.547.262-.814.385-.593.272-1.2.515-1.8.752l5.491,3Z" fill="#fff"/>
      <path id="パス_446" data-name="パス 446" d="M1295.131,167.926h0a1.861,1.861,0,0,1,.151-.355.791.791,0,0,0-.156.362l.005-.007Z" fill="#fff"/>
      <path id="パス_447" data-name="パス 447" d="M1295.131,167.926h0Z" fill="#fff"/>
      <path id="パス_448" data-name="パス 448" d="M1284.833,172.935a11.63,11.63,0,0,0-1.455.564c-2.323.885-4.666,1.729-5.865,4.124a14.42,14.42,0,0,0-.945,3.209l-.788,3.37-2.987,12.77q-1.7,7.272-3.4,14.544a3.475,3.475,0,0,0,.388,2.431c.008.093.018.186.035.279s.035.165.054.246h68.6a3.528,3.528,0,0,0,.532-1.566,4.713,4.713,0,0,0-1.473-3.818c-1.247-6.269-1.689-12.677-3-18.938a37.745,37.745,0,0,0-3.818-11.3c-.005-.1-.012-.191-.024-.288a6.652,6.652,0,0,0-7.359-5.659c-.063-.008-.125-.014-.188-.017q-.693-.263-1.407-.488a30.226,30.226,0,0,1-5.032-1.932c-.095-.05-.225-.108-.345-.172l-4.016,2.295-6.625,1.419-9.228-.473-5.491-3c-.35.137-.7.272-1.051.408Z" fill="#fff"/>
      <path id="パス_449" data-name="パス 449" d="M1292.266,170.222a18.9,18.9,0,0,0,11.594,3.313,25.561,25.561,0,0,0,12.626-4.18l12.928,4.417,8.519,31.943-66.962-.947,4.969-24.608,4.5-6.862Z" fill="#428d65"/>
      <g id="グループ_36" data-name="グループ 36">
        <path id="パス_450" data-name="パス 450" d="M1297.921,138.33l-.005.027C1298.08,138.242,1298.04,138.232,1297.921,138.33Z" fill="#0c3b2c"/>
        <path id="パス_451" data-name="パス 451" d="M1297.886,138.36l-.009.024,0,0,.009-.024Z" fill="#0c3b2c"/>
        <path id="パス_452" data-name="パス 452" d="M1316.538,132.356a4.666,4.666,0,0,0-1.98-.728l-.034-.028c-.405-.334-.223-.827-.289-1.245-.157-.145-.3-.3-.447-.456-.319.061-.63-1.492-1.246-.768a.86.86,0,0,0,.086-.581,5.545,5.545,0,0,0-.811-.728c-1.074-.77-2.323-1.311-3.408-2.076a.713.713,0,0,1-.152-.147,14.1,14.1,0,0,0-12.719,4.876c-.024.027-.041.048-.058.069-.164.125-.324.252-.495.369-.389.264-.8.5-1.2.749-.155.1-.309.2-.461.3a14.972,14.972,0,0,0-3.472,4.91c0,.009-.01.016-.014.024a17.1,17.1,0,0,0-.343,1.958c.151,1.432.182,2.874.4,4.294a16.744,16.744,0,0,0,.677,2.133,3.76,3.76,0,0,0,2.125.893,4.889,4.889,0,0,0,2.37-.391,39.3,39.3,0,0,1,1.577-5.805,2.9,2.9,0,0,1,.114-.8,1.718,1.718,0,0,1,.142-.325,1.693,1.693,0,0,1,.693-.958,1.721,1.721,0,0,1,1.282-.178.677.677,0,0,1,.506.44,12.213,12.213,0,0,0,1.3,0,13.63,13.63,0,0,0,3.282-.629,11.253,11.253,0,0,0,2.8-1.293.661.661,0,0,1,.828.1l0,0,.036.04a2.845,2.845,0,0,1,2.694,1.491,3.334,3.334,0,0,1,.741.914.746.746,0,0,1,.407.418,8.413,8.413,0,0,1,.589,3.085,9.362,9.362,0,0,1,.193.917,5.759,5.759,0,0,0,.629.417l.021.021a4.159,4.159,0,0,0,1.116,1.219,4.444,4.444,0,0,0,3.047.758c.057-.009.114-.022.17-.034a.71.71,0,0,1,.068-.183,16.429,16.429,0,0,1,1.222-1.842,30.654,30.654,0,0,0,1.022-6.885A7.177,7.177,0,0,0,1316.538,132.356Z" fill="#0c3b2c"/>
      </g>
      <g id="グループ_38" data-name="グループ 38">
        <g id="グループ_37" data-name="グループ 37">
          <path id="パス_453" data-name="パス 453" d="M1292.62,145.7a4.3,4.3,0,0,0-3.3-.6,4.033,4.033,0,0,0-2.455,2.42,7.865,7.865,0,0,0-.145,4.355,6.077,6.077,0,0,0,1.6,3.055,4.776,4.776,0,0,0,3.792,1.295.982.982,0,0,0,.962-.962.972.972,0,0,0-.962-.962,4.765,4.765,0,0,1-.774.015c-.057,0-.114-.01-.172-.015-.149-.011.149.035.007,0-.119-.03-.24-.048-.358-.08-.1-.029-.2-.063-.3-.1-.169-.058-.017-.006.015.009-.057-.027-.115-.054-.171-.083-.09-.046-.177-.1-.262-.149-.055-.035-.31-.226-.139-.087a4.037,4.037,0,0,1-.456-.43c-.025-.028-.208-.253-.137-.158s-.017-.025-.035-.051c-.034-.051-.07-.1-.1-.154a5.473,5.473,0,0,1-.305-.551c-.014-.029-.081-.174-.027-.055s-.011-.027-.022-.057c-.043-.116-.085-.233-.122-.351a6.424,6.424,0,0,1-.318-1.7,7.651,7.651,0,0,1,.009-.933,3.933,3.933,0,0,1,.095-.7,5.343,5.343,0,0,1,.2-.687c.048-.137-.071.122,0,0,.028-.049.05-.1.077-.151s.056-.1.086-.147c.016-.027.163-.223.1-.146s.048-.048.065-.067c.04-.042.082-.083.125-.122.018-.016.161-.128.075-.067s.052-.03.078-.047a5.217,5.217,0,0,1,.451-.265c.032-.016.067-.029.1-.047.1-.059-.215.067-.06.025.083-.022.164-.051.247-.073a1,1,0,0,1,.1-.02c0,.007-.284.011-.041.015.086,0,.175.012.261.01.125,0-.193-.046-.067-.008.053.017.112.022.167.035.125.03.247.068.369.109l.161.059s.264.11.12.047c.167.073.331.153.495.233a.962.962,0,0,0,.971-1.661Z" fill="#0c3b2c"/>
          <path id="パス_454" data-name="パス 454" d="M1291.973,151.466a15.985,15.985,0,0,0,1.8,6.986,13.355,13.355,0,0,0,5.34,5.836,10.413,10.413,0,0,0,4.754,1.26v-1.924h-.071v1.924a10.537,10.537,0,0,0,7.636-3.343,15.967,15.967,0,0,0,3.714-6.9,15.234,15.234,0,0,0,.537-3.834.963.963,0,0,0-1.925,0,13,13,0,0,1-.091,1.451l-.014.113s.031-.214.015-.113c-.009.058-.016.115-.025.173-.02.136-.043.272-.067.408q-.072.405-.165.8a16.926,16.926,0,0,1-.486,1.684q-.144.42-.312.833c-.025.062-.05.123-.076.185.074-.178.018-.044-.021.046-.064.143-.129.285-.2.426a15.18,15.18,0,0,1-.881,1.6c-.164.258-.336.512-.517.759-.047.064-.1.126-.143.191-.063.086.045-.058.047-.06-.022.026-.042.053-.064.08-.1.124-.2.247-.3.367a11.133,11.133,0,0,1-1.3,1.292l-.184.151c-.141.116.126-.092-.021.017-.128.1-.256.189-.388.279q-.4.27-.821.5c-.152.083-.307.161-.463.235l-.223.1c-.045.02-.169.063.037-.015-.044.016-.087.035-.131.052a9.075,9.075,0,0,1-1.017.331c-.189.049-.38.092-.571.129-.086.016-.171.031-.257.045l-.11.018c-.187.031.117-.01-.006,0-.4.036-.8.071-1.2.073a.962.962,0,1,0,0,1.924h.071a.962.962,0,1,0,0-1.924c-.337-.009-.671-.037-1.007-.073.243.026-.024,0-.081-.015l-.221-.038q-.255-.048-.507-.111a8.859,8.859,0,0,1-.9-.274c-.079-.028-.157-.058-.235-.088s-.186-.079-.034-.012c-.151-.067-.3-.134-.451-.208a11.632,11.632,0,0,1-1.578-.977c-.088-.062.053.041.056.044l-.082-.065-.162-.132q-.189-.156-.369-.321-.336-.3-.648-.635t-.621-.71c-.044-.055-.088-.109-.131-.164-.115-.144.089.121-.02-.027-.1-.131-.194-.262-.288-.4a15.2,15.2,0,0,1-.961-1.573c-.14-.263-.273-.531-.4-.8q-.093-.2-.181-.4c-.074-.169.06.15-.008-.021-.034-.083-.068-.166-.1-.25a16.7,16.7,0,0,1-.553-1.658,15.965,15.965,0,0,1-.382-1.785c0-.029-.007-.058-.012-.087-.022-.126.024.208.01.082-.008-.077-.019-.153-.027-.23-.015-.131-.028-.262-.038-.394q-.033-.415-.034-.833a.962.962,0,1,0-1.924,0Z" fill="#0c3b2c"/>
          <path id="パス_455" data-name="パス 455" d="M1315.9,147.547a4.805,4.805,0,0,1,.63-.352c-.087.035.1-.036.12-.042.047-.016.094-.031.142-.045s.124-.035.187-.049c-.006,0,.259-.048.152-.033s.079-.005.1-.006c.045,0,.091,0,.137-.005s.383.041.191,0a2.95,2.95,0,0,1,.344.089c.01,0,.141.06.05.017s.107.061.126.072c.052.031.1.065.154.1-.034-.023-.12-.11.017.015.076.069.145.142.216.217.1.107-.075-.113.01.007q.037.051.072.1c.07.108.121.224.186.334s-.044-.133,0,0c.014.04.03.079.044.119.038.106.07.214.1.323s.047.19.066.285c.011.055.021.109.031.163s.034.221.019.112a6.605,6.605,0,0,1-.331,3.188c-.028.082-.063.161-.091.243-.043.13.076-.144.009-.024-.023.043-.041.09-.063.134a4.673,4.673,0,0,1-.293.516c-.047.072-.1.141-.147.212.131-.193-.047.052-.082.092a4.985,4.985,0,0,1-.424.411c-.037.033-.143.093.02-.014-.042.027-.081.058-.122.086-.094.063-.19.121-.289.175-.05.027-.363.159-.151.082-.1.035-.2.073-.3.1-.116.035-.234.063-.353.087-.029.006-.2.037-.077.017s-.126.011-.126.011a4.755,4.755,0,0,1-.818-.013.966.966,0,0,0-.962.962.989.989,0,0,0,.962.963,4.755,4.755,0,0,0,3.173-.789,5.487,5.487,0,0,0,1.909-2.533,8.246,8.246,0,0,0,.469-3.963,4.4,4.4,0,0,0-1.71-3.292,3.9,3.9,0,0,0-4.279.251.962.962,0,1,0,.971,1.662Z" fill="#0c3b2c"/>
          <path id="パス_456" data-name="パス 456" d="M1269.694,214.218c.854-4.875,1.675-9.758,2.667-14.608s2.173-9.631,3.622-14.35c.322-1.05.683-2.087,1-3.139.266-.9.507-1.8.777-2.69.136-.45.279-.9.434-1.343.074-.211.151-.422.233-.63.042-.11.086-.219.13-.328-.07.174.074-.167.092-.208a9.639,9.639,0,0,1,.615-1.163,3.836,3.836,0,0,1,.326-.475c-.152.177.2-.129.037-.02a2.828,2.828,0,0,1,.32-.186c.235-.12.478-.225.72-.332.011-.005.167-.073.053-.024l.142-.059q.214-.088.429-.171c.51-.2,1.027-.377,1.547-.547,1.042-.339,2.1-.636,3.15-.943a28.416,28.416,0,0,0,6.177-2.407,9.44,9.44,0,0,0,3.778-3.576,10.8,10.8,0,0,0,1.072-4.672c.019-.451.025-.9.026-1.354a.962.962,0,0,0-1.925,0,22.625,22.625,0,0,1-.12,2.59l-.018.147s.028-.185.01-.074c-.015.094-.028.19-.044.284q-.046.277-.109.551a7.61,7.61,0,0,1-.31,1.035c-.04.1-.093.214-.015.046-.037.08-.071.161-.11.24q-.114.238-.249.467t-.292.45c-.026.037-.167.221-.088.122s-.01.012-.032.038l-.112.134a7.8,7.8,0,0,1-.838.827c-.079.069-.161.135-.243.2-.011.009-.117.09-.029.023s-.044.032-.066.049q-.294.216-.6.412a15.163,15.163,0,0,1-1.345.77c-.231.117-.465.23-.7.337-.126.057-.252.113-.378.167-.01,0-.168.071-.055.024l-.239.1c-1,.4-2.032.732-3.066,1.041a56.3,56.3,0,0,0-6.326,2.093,5.255,5.255,0,0,0-1.427.8,4.578,4.578,0,0,0-.857,1.162,15.274,15.274,0,0,0-1.164,2.68c-.611,1.773-1.06,3.6-1.639,5.382a143.663,143.663,0,0,0-3.774,14.238c-1.033,4.822-1.872,9.682-2.717,14.539q-.161.923-.322,1.843a.984.984,0,0,0,.672,1.183.974.974,0,0,0,1.184-.672Z" fill="#0c3b2c"/>
          <path id="パス_457" data-name="パス 457" d="M1340.056,213.707c-.854-4.876-1.675-9.758-2.668-14.608-.985-4.817-2.163-9.594-3.6-14.295-.319-1.043-.677-2.073-.99-3.117-.267-.891-.507-1.79-.774-2.68a26.224,26.224,0,0,0-1.005-2.819,6.6,6.6,0,0,0-1.432-2.325,5.312,5.312,0,0,0-1.474-.82c-.548-.236-1.1-.456-1.664-.656-1.015-.362-2.05-.668-3.085-.968s-2.075-.6-3.1-.942c-.52-.174-1.036-.361-1.545-.566l-.191-.078c.021.009.094.04-.008,0-.126-.054-.252-.11-.378-.167q-.377-.171-.747-.358a15.152,15.152,0,0,1-1.382-.794q-.27-.174-.529-.364c-.045-.032-.089-.065-.133-.1.029.021.144.114,0,0-.092-.074-.183-.149-.273-.226a7.753,7.753,0,0,1-.808-.8c-.06-.071-.119-.143-.177-.215.134.164-.008-.012-.055-.079q-.156-.219-.292-.45-.126-.215-.235-.437c-.039-.08-.073-.161-.111-.24-.047-.1.032.077.033.078-.024-.062-.05-.123-.073-.185a7.628,7.628,0,0,1-.3-1q-.058-.256-.1-.516c-.016-.094-.03-.189-.045-.284-.008-.049-.02-.187.005.039-.007-.061-.015-.122-.022-.184-.045-.4-.073-.8-.09-1.2-.02-.451-.026-.9-.026-1.354a.962.962,0,0,0-1.925,0,14.62,14.62,0,0,0,.614,4.92,8.286,8.286,0,0,0,3.038,3.9c3.556,2.6,8.08,3.128,12.1,4.683.127.049.255.1.381.151l.19.079.054.024c.241.106.484.212.719.332a3.112,3.112,0,0,1,.321.186c-.174-.118.205.2.036.02a3.326,3.326,0,0,1,.347.508,9.915,9.915,0,0,1,.612,1.169l.069.158c0,.01.059.142.019.045s.026.064.035.088c.022.055.044.109.065.164.093.237.18.475.264.715.614,1.763,1.055,3.582,1.632,5.357a143.265,143.265,0,0,1,3.8,14.291c1.039,4.841,1.881,9.72,2.73,14.6l.321,1.842a.966.966,0,0,0,1.184.672.989.989,0,0,0,.672-1.183Z" fill="#0c3b2c"/>
        </g>
        <path id="パス_458" data-name="パス 458" d="M1296.669,138.174a12.862,12.862,0,0,0,5.864.058c1.832-.349,3.55-1.084,5.378-.923.045,0,.278.037.13.013.111.018.222.038.332.063a4.985,4.985,0,0,1,.6.175c.158.056-.029-.023.121.052.1.05.2.1.294.157s.162.1.241.156.009,0-.007-.009c.046.037.091.076.136.115a4.3,4.3,0,0,1,.4.414c.071.083,0-.008-.014-.022.026.035.051.071.077.107.059.085.115.171.168.259a5.53,5.53,0,0,1,.269.512c.019.041.037.082.055.123-.007-.017-.05-.125-.011-.021s.074.2.108.3a9.03,9.03,0,0,1,.3,1.147c.038.194.071.388.1.583.006.044.012.089.019.134,0-.01-.021-.171-.008-.058.011.091.023.181.034.272.08.676.134,1.358.262,2.028a4.505,4.505,0,0,0,.831,1.927,4.837,4.837,0,0,0,2.151,1.469.965.965,0,0,0,1.183-.672.99.99,0,0,0-.672-1.184c-.17-.067.057.032-.1-.042-.089-.042-.177-.084-.263-.13-.147-.079-.286-.168-.425-.26s.1.1-.028-.022c-.058-.053-.118-.1-.174-.159s-.089-.094-.133-.142c-.148-.157.059.1-.026-.027a3.8,3.8,0,0,1-.208-.34c-.029-.055-.052-.111-.08-.166-.047-.091.041.086.038.089a.959.959,0,0,0-.044-.115,5.156,5.156,0,0,1-.2-.8c-.012-.065-.023-.131-.034-.2-.007-.046-.04-.284-.022-.143s-.009-.079-.013-.116c-.01-.083-.02-.166-.029-.249-.037-.326-.07-.653-.112-.979a11.762,11.762,0,0,0-.517-2.443,6.074,6.074,0,0,0-1.323-2.249,4.878,4.878,0,0,0-2.376-1.314c-1.937-.454-3.842.1-5.716.568-.535.135-1.073.254-1.617.344-.281.046-.38.06-.6.085-.27.03-.541.053-.812.067a8.875,8.875,0,0,1-3.006-.286.963.963,0,1,0-.512,1.856Z" fill="#0c3b2c"/>
        <path id="パス_459" data-name="パス 459" d="M1295.446,137.673a21.947,21.947,0,0,1-.774,5.527c-.052.176-.107.35-.168.522-.033.093-.069.184-.1.277-.1.258.081-.172-.032.079a6.44,6.44,0,0,1-.509.938c-.016.023-.185.257-.112.162s-.109.127-.127.148a4,4,0,0,1-.334.331c-.039.034-.079.067-.12.1.092-.071.094-.074.007-.011-.067.041-.13.087-.2.127s-.14.073-.208.112c-.1.046-.1.046.011,0-.051.02-.1.039-.152.056a.963.963,0,0,0,.511,1.856,5.72,5.72,0,0,0,3.316-3.944,17.634,17.634,0,0,0,.592-2.783,31.3,31.3,0,0,0,.325-3.5.971.971,0,0,0-.963-.963.982.982,0,0,0-.962.963Z" fill="#0c3b2c"/>
        <path id="パス_460" data-name="パス 460" d="M1291.471,145.52c-.119-.637-.24-1.274-.347-1.913q-.092-.544-.169-1.091l-.015-.109c.03.209.009.072,0,.027-.012-.1-.025-.2-.037-.3q-.036-.3-.066-.6a20.057,20.057,0,0,1-.106-2.325c.007-.388.028-.776.068-1.162.01-.1.022-.2.034-.294-.024.189,0,.006.014-.079.031-.19.067-.379.11-.567a7.494,7.494,0,0,1,.312-1.039l.051-.128s-.074.158-.027.065c.036-.071.066-.144.1-.215a5.246,5.246,0,0,1,.26-.47c.047-.075.1-.15.147-.223.025-.036.053-.071.077-.108,0,0-.111.134-.043.056.116-.135.229-.271.356-.4a5.057,5.057,0,0,1,.379-.336c-.194.157.1-.066.144-.092.114-.073.231-.142.348-.209a9.472,9.472,0,0,0,1.428-.912,5.312,5.312,0,0,0,1-1.173c.256-.387.474-.795.716-1.19.116-.191.238-.378.37-.558-.084.114.08-.094.107-.125q.142-.163.3-.316a12.155,12.155,0,0,1,5.118-2.888,10.681,10.681,0,0,1,5.894-.146c.245.068.488.147.727.235a5.106,5.106,0,0,1,.612.26,14.177,14.177,0,0,1,1.326.726,8.743,8.743,0,0,1,2.22,1.846c-.109-.128.039.056.071.1.052.078.1.158.15.239.111.186.21.379.309.572a9.344,9.344,0,0,0,.615,1.1,4.112,4.112,0,0,0,1.116,1.123,4.291,4.291,0,0,0,.72.361q.2.083.39.159l.29.117a4.729,4.729,0,0,1,.6.34s.122.088.05.033.063.053.079.067a3.94,3.94,0,0,1,.288.274c.071.074.139.152.2.231.095.115-.071-.1.016.022.025.036.051.071.076.108a4.613,4.613,0,0,1,.349.61c.025.053.051.106.073.16-.016-.038-.054-.147,0,.022.034.1.068.193.1.29a5.282,5.282,0,0,1,.153.668,6.869,6.869,0,0,1-.012,1.639,15.008,15.008,0,0,1-.818,3.12c-.184.513-.339.893-.552,1.355q-.359.777-.781,1.522-.4.7-.852,1.37l1.27-.333-.453-.257a.928.928,0,0,0-.937,1.6l.453.256a.95.95,0,0,0,1.27-.333,20.866,20.866,0,0,0,2.906-6.417c.592-2.29.635-4.761-.922-6.683a4.731,4.731,0,0,0-1.213-1.052,5.654,5.654,0,0,0-.773-.371c-.124-.052-.248-.1-.373-.151-.062-.024-.125-.048-.187-.074.105.044-.069-.032-.1-.046a3.2,3.2,0,0,1-.344-.189c-.019-.012-.168-.116-.082-.052s-.052-.045-.069-.061a2.616,2.616,0,0,1-.2-.2c-.036-.04-.071-.082-.106-.124.124.15-.036-.055-.048-.073a10.745,10.745,0,0,1-.63-1.141,9.9,9.9,0,0,0-4.7-4.08c-4.177-2-9.263-1.064-12.987,1.508a9.174,9.174,0,0,0-2.461,2.357c-.267.4-.492.818-.741,1.226a7.155,7.155,0,0,1-.4.6c.095-.127-.119.136-.14.158a3.454,3.454,0,0,1-.257.257,2.942,2.942,0,0,1-.534.364c-.249.145-.506.277-.755.424a5.725,5.725,0,0,0-1.115.851,6.214,6.214,0,0,0-1.348,2.111,11.578,11.578,0,0,0-.64,4.831,35.067,35.067,0,0,0,.614,4.8c.057.311.116.622.174.934a.933.933,0,0,0,1.141.648.954.954,0,0,0,.649-1.142Z" fill="#0c3b2c"/>
        <path id="パス_461" data-name="パス 461" d="M1298.005,209.124l-.642,4.333-.091.615a.989.989,0,0,0,.672,1.184.974.974,0,0,0,1.184-.672l.642-4.333.091-.616a.988.988,0,0,0-.672-1.183.973.973,0,0,0-1.184.672Z" fill="#0c3b2c"/>
        <path id="パス_462" data-name="パス 462" d="M1308.086,209.635q.4,2.243.8,4.485l.116.647a.967.967,0,0,0,1.184.672.988.988,0,0,0,.672-1.183l-.8-4.485-.116-.647a.965.965,0,0,0-1.183-.672.987.987,0,0,0-.672,1.183Z" fill="#0c3b2c"/>
      </g>
      <path id="パス_463" data-name="パス 463" d="M1292.161,170.6s3.26,3.729,11.936,3.729,11.916-4.26,11.916-4.26" fill="none" stroke="#0c3b2c" stroke-linecap="round" stroke-linejoin="round" stroke-width="2.031"/>
      <path id="パス_464" data-name="パス 464" d="M1271.444,198.616l6.01-23.591-6.247,26.194" fill="#0c3b2c"/>
      <circle id="楕円形_7" data-name="楕円形 7" cx="40" cy="40" r="40" transform="translate(1263.948 119.098)" fill="none"/>
    </g>
  </g>
</svg>
