<svg xmlns="http://www.w3.org/2000/svg" xmlns:xlink="http://www.w3.org/1999/xlink" width="80" height="80" viewBox="0 0 80 80">
  <defs>
    <clipPath id="clip-path">
      <circle id="楕円形_10" data-name="楕円形 10" cx="40" cy="40" r="40" transform="translate(130.446 119.098)" fill="#f2f2f2"/>
    </clipPath>
  </defs>
  <g id="グループ_58" data-name="グループ 58" transform="translate(-130.446 -119.098)">
    <g id="グループ_57" data-name="グループ 57">
      <circle id="楕円形_9" data-name="楕円形 9" cx="40" cy="40" r="40" transform="translate(130.446 119.098)" fill="#f2f2f2"/>
      <g id="グループ_56" data-name="グループ 56" clip-path="url(#clip-path)">
        <g id="グループ_55" data-name="グループ 55">
          <path id="パス_606" data-name="パス 606" d="M190.56,166.1q-.513-1.773-.886-3.577a19.1,19.1,0,0,1-.76-3.594,1.975,1.975,0,0,1-.383-1.2v-8.582q-.341-2.3-.482-4.636c-1.809-1.705-4.315-1.818-6.71-1.783q-2.955.043-5.909.187-5.9.285-11.781.962a24.248,24.248,0,0,0-5.87,1.016,10,10,0,0,0-3.62,2.3c-.055,6.622-.219,13.241-.416,19.86a4.978,4.978,0,0,0,4.126,2.457c.643.064,1.286.114,1.929.158q-.15,1.486-.3,2.974a3.053,3.053,0,0,0,3.044,3.044,3.129,3.129,0,0,0,3.044-3.044q.186-1.839.373-3.678a24.776,24.776,0,0,1,8.44.186c.448-.061.9-.122,1.342-.19q.055.271.1.545a1.535,1.535,0,0,1,.8-.319c3.045-.21,3.71,2.737,4.481,5.2.063.2.681.005.739.208q.767.578,1.515,1.178c3.806.906,7.528,2.111,11.285,3.2C192.689,174.837,190.983,170.594,190.56,166.1Z" fill="#0c3b2c"/>
          <path id="パス_607" data-name="パス 607" d="M186.589,149.934a5.426,5.426,0,0,0-2.649-3.633,5.831,5.831,0,0,0-1.861-1.815,9.012,9.012,0,0,0-1.845-7.3,9.8,9.8,0,0,0-4.022-3.058c-.087-.06-.174-.121-.264-.179a14.567,14.567,0,0,0-7.146-1.867c-2.6-.133-5.422.6-6.546,3.053a11.26,11.26,0,0,0-3.338,2.652,9.161,9.161,0,0,0-1.665,2.863,13.725,13.725,0,0,0-1.592,8.3c-.041.055-.084.107-.122.165s-.083.1-.123.153a1.794,1.794,0,0,1,.317,1.208,2.424,2.424,0,0,0,.379,1.99c.013.021.021.043.033.065a1.742,1.742,0,0,1,.385.344,16.332,16.332,0,0,1,2.133,3.987,2.081,2.081,0,0,1,.174.816c.039.057.076.116.11.177.583,1.049,1.161,2.109,1.809,3.121.716-.349,1.094.271,1.6,1.159,2.607,4.6,1.538,8.891-1.164,13.007a1.439,1.439,0,0,1-1.748.606q-.406.485-.837.973c-1.117,1.269-2.29,2.487-3.5,3.662a3.253,3.253,0,0,0-.255,4.268,3.157,3.157,0,0,0,3.207,1.17q-.048.808-.067,1.62a3.243,3.243,0,0,0,2.818,3.192,3.6,3.6,0,0,0,2.621-.764,3.7,3.7,0,0,0,.946-.379c.011.173.022.346.032.519a3.3,3.3,0,0,0,3.249,3.251c.05,0,.1-.009.149-.013a3.333,3.333,0,0,0,3.8,1.838,3.268,3.268,0,0,0,5.218-1.582l1.227-4.411a4.68,4.68,0,0,0,3.5-.5,4.862,4.862,0,0,0,1.7-6.467c-.2-.441-.4-.886-.593-1.329l-.015-.036c-.07-.171-.141-.342-.21-.513q-.543-1.35-1.029-2.722-.91-2.572-1.617-5.211t-1.2-5.322a25.679,25.679,0,0,1-.468-2.872c.09,1.333-.032-.29-.062-.548-.017-.153-.031-.307-.048-.461a18.217,18.217,0,0,0,3.609-5.022,10.874,10.874,0,0,0,1.156-.731,13.674,13.674,0,0,0,1.372-1.137,4.245,4.245,0,0,0,.747-.781A6.427,6.427,0,0,0,186.589,149.934Z" fill="#fff"/>
          <path id="パス_608" data-name="パス 608" d="M143.7,194.453a114.3,114.3,0,0,0,.5,11.421h56.2a13.681,13.681,0,0,0,.74-4.8,72.4,72.4,0,0,0-1.4-14.616c.681-1.531.268-1.779-.468-2.814-1.612-2.268-3.042-4.879-5.74-5.187a9.788,9.788,0,0,0-7.282-2.4,8.684,8.684,0,0,0-1.431.269,20.549,20.549,0,0,0-3.825-1.4c0-.1-.007-.2-.011-.306a7.942,7.942,0,0,0-.895-3.957,6.1,6.1,0,0,0-3.691-2.728c-1.828-.476-3.893-.105-5.749.006-2.26.136-4.594-.848-6.475.6-1.407,1.087-2.165,3.473-2.309,5.215-.01.126-.024.264-.032.4-.144.114-.285.235-.383.3-.173.118-.348.232-.525.345l-.249.1-.063.024a3.994,3.994,0,0,0-1.791.166,36.741,36.741,0,0,0-7.767,3.422l-2.8,1.243c-.971.431-2.581,3.2-3.124,2.324-1.062-1.712-2.4,8.363-1.45,12.295C143.681,194.408,143.689,194.43,143.7,194.453Z" fill="#428d65"/>
          <path id="パス_609" data-name="パス 609" d="M187.993,142.34c-.971-3.576-1.4-7.5-4.068-10.258-.167-.267-.346-.527-.536-.773a8.7,8.7,0,0,0-4.873-3.284,7.677,7.677,0,0,0-3.915-2.215,10.433,10.433,0,0,0-2.6-.152,1.988,1.988,0,0,1-.712.242c-2.665.393-5.479.588-7.885,1.895a30.937,30.937,0,0,0-5.241,5.593,23.954,23.954,0,0,0-3.763,5.795c-.165,2.4-.212,4.8-.226,7.2a4.642,4.642,0,0,0,1.684,1.2,4.364,4.364,0,0,0,.479.168,2.146,2.146,0,0,1,2.013-1.3,8.369,8.369,0,0,0,1.081-.1c.253-.063.5-.128.753-.206a1.407,1.407,0,0,1,.552-.056c.307-.073.612-.151.915-.227.039-.071.076-.143.11-.217l.011-.024.042-.027a12.315,12.315,0,0,0,1.172-.615,3.458,3.458,0,0,0,1.986-.691c.322-.246.637-.5.95-.748l.007.009.09-.087q1.326-1.073,2.547-2.227a4.456,4.456,0,0,0,1.037-.457,12.694,12.694,0,0,0,3.8-3.524,24.319,24.319,0,0,0,3.322,3.133,20.9,20.9,0,0,0,1.6,1.418l.046.071q.285.445.526.915c.018.036.034.067.05.1.01.1.024.2.04.3a1.883,1.883,0,0,1,.749.6c1.508,1.938,3.713,2.877,5.811,4.01.06-.005.121-.009.184-.009a1.67,1.67,0,0,1,1.76,1.617,3.838,3.838,0,0,0,.945-1.843A21.337,21.337,0,0,0,187.993,142.34Z" fill="#0c3b2c"/>
          <g id="グループ_54" data-name="グループ 54">
            <g id="グループ_52" data-name="グループ 52">
              <g id="グループ_48" data-name="グループ 48">
                <g id="グループ_47" data-name="グループ 47">
                  <path id="パス_610" data-name="パス 610" d="M170.59,166.818c-.14,0-.28-.01-.42-.008-5.575.084-11.41-1.685-11.9-10.955-1.966-.439-1.945-3.02-3.261-5.345-1.239-2.189.38-4.294,3.315-4.993a.666.666,0,1,1,.337,1.289c-1.271.332-2.246,1.912-2.32,3.758-.085,2.121,1.038,3.93,2.5,4.032a.665.665,0,0,1,.6.5c1.6,6.112,5.832,10.189,10.782,10.387,5.087.207,9.8-3.835,11.761-10.048a.667.667,0,0,1,.848-.431,1.866,1.866,0,0,0,.526.1,2.349,2.349,0,0,0,1.9-1,5.161,5.161,0,0,0,.228-5.706,2.347,2.347,0,0,0-1.812-1.148.666.666,0,0,1,.053-1.331,3.642,3.642,0,0,1,2.863,1.733,6.487,6.487,0,0,1-.292,7.284,3.629,3.629,0,0,1-2.991,1.5c-.081,0-.162-.009-.242-.019C180.87,162.711,175.952,166.818,170.59,166.818Z" fill="#0c3b2c"/>
                  <path id="パス_611" data-name="パス 611" d="M183.392,146.585" fill="none" stroke="#000" stroke-linecap="round" stroke-linejoin="round" stroke-width="1.332"/>
                </g>
                <path id="パス_612" data-name="パス 612" d="M162.167,163.518a20.869,20.869,0,0,1,.5,2.049,12.269,12.269,0,0,1,.216,1.983.72.72,0,0,0,1.439,0,17.863,17.863,0,0,0-.765-4.415.72.72,0,0,0-1.388.383Z" fill="#0c3b2c"/>
                <path id="パス_613" data-name="パス 613" d="M177.793,163.072a25.755,25.755,0,0,0-.845,4.848.724.724,0,0,0,.719.719c.407-.018.386-.492.72-.719,4.038-2.743,1.476-3.3.793-4.465-.19-.324-.117-.8-.5-.885a.73.73,0,0,0-.885.5Z" fill="#0c3b2c"/>
                <path id="パス_614" data-name="パス 614" d="M144.419,208.183c-.437-6.866-1.335-13.727-.611-20.607a9.838,9.838,0,0,1,1.232-4.17,10.4,10.4,0,0,1,2.623-2.81,21.885,21.885,0,0,1,3.532-2.14c.163-.081.329-.155.495-.229s-.14.055.046-.02l.142-.058q.192-.076.387-.15c.462-.176.929-.338,1.4-.5a47.959,47.959,0,0,0,6.465-2.425,6.582,6.582,0,0,0,2.163-1.582,6.456,6.456,0,0,0,1.141-3.919c.01-.275.014-.549.016-.824,0-.376.075.067-.2.345-.215.213-.186.135-.135.1s-.231.054-.119.053a.86.86,0,0,0,.132-.027c.074-.017.186.006-.086.01a1.093,1.093,0,0,0,.125-.015c.478-.053.96-.075,1.441-.1,1.59-.077,3.183-.113,4.775-.144,3.082-.06,6.185-.154,9.267-.025.139.005.278.012.416.025v-1.439c-.624-.034-.914.593-.869,1.124a6.411,6.411,0,0,0,.391,1.559,23.515,23.515,0,0,0,1.6,3.617,4.253,4.253,0,0,0,.743,1.078,7.524,7.524,0,0,0,2.476,1.35,30.284,30.284,0,0,0,5.687,1.247,19.2,19.2,0,0,1,5.1,1.427,11.616,11.616,0,0,1,2.028,1.233c-.075-.057.1.077.132.106.073.059.144.119.215.18.14.121.278.245.411.373a10.206,10.206,0,0,1,.749.794c.058.069.116.139.172.209.029.035.057.07.084.106-.072-.093,0,0,.011.015.115.153.226.308.333.467.2.3.387.607.559.923s.331.647.477.979l.031.072c-.028-.067.015.038.017.042.035.085.069.17.1.256q.106.276.2.557a17.577,17.577,0,0,1,.585,2.213,20.521,20.521,0,0,1,.331,2.306,47.367,47.367,0,0,1,.132,5.355l-.15,7.77-.038,1.942a.72.72,0,0,0,1.439,0q.073-3.823.148-7.649c.038-2,.111-4.009.009-6.012a19.259,19.259,0,0,0-2.293-9,12.579,12.579,0,0,0-7.621-5.478c-1.8-.5-3.662-.686-5.49-1.037a19.241,19.241,0,0,1-2.809-.726,7.941,7.941,0,0,1-1.125-.491q-.276-.146-.538-.313c-.091-.059-.182-.121-.271-.184-.043-.032-.088-.063-.13-.1.014.011.1.086.044.031-.011-.012-.132-.138-.128-.142s.118.165.027.029c-.031-.046-.063-.091-.093-.138-.134-.2-.255-.419-.371-.635-.3-.548-.561-1.112-.811-1.683-.029-.068-.058-.136-.088-.2-.055-.128-.012-.029,0,0l-.049-.117q-.095-.229-.186-.462c-.113-.289-.221-.581-.32-.875-.08-.241-.155-.483-.216-.729-.023-.1-.041-.194-.062-.291-.037-.174,0,.133,0,.026,0-.04,0-.086-.008-.127-.02-.2-.052.156,0,.012a.649.649,0,0,1-.558.43.727.727,0,0,0,.72-.719.735.735,0,0,0-.72-.72c-1.031-.1-2.088-.061-3.122-.063q-2.673,0-5.346.042c-1.729.027-3.458.062-5.186.13-.6.024-1.193.05-1.788.094a4.76,4.76,0,0,0-1.039.132.784.784,0,0,0-.411.28,1.453,1.453,0,0,0-.162.916,11.209,11.209,0,0,1-.139,1.827,5.666,5.666,0,0,1-.241.907,2.374,2.374,0,0,1-.157.347c-.027.05-.055.1-.085.15-.016.026-.193.284-.11.176a3.148,3.148,0,0,1-.372.394c-.076.069-.155.134-.235.2.114-.092.033-.024.008-.006-.066.046-.129.094-.2.14a10.143,10.143,0,0,1-1.269.726c-.529.26-.9.416-1.418.619-1.1.431-2.22.8-3.339,1.174-1,.332-2.009.654-2.987,1.049a20.662,20.662,0,0,0-3.237,1.691,11.668,11.668,0,0,0-5.407,6.469,23.98,23.98,0,0,0-.651,5.031c-.1,1.737-.114,3.479-.065,5.218.1,3.464.421,6.915.687,10.369.067.877.131,1.754.187,2.632a.736.736,0,0,0,.719.72.726.726,0,0,0,.719-.72Z" fill="#0c3b2c"/>
              </g>
              <g id="グループ_51" data-name="グループ 51">
                <g id="グループ_49" data-name="グループ 49">
                  <path id="パス_615" data-name="パス 615" d="M183.828,153.793a1.685,1.685,0,1,0,1.684,1.686A1.685,1.685,0,0,0,183.828,153.793Z" fill="#fff"/>
                  <path id="パス_616" data-name="パス 616" d="M183.828,157.771h0a2.293,2.293,0,1,1,0-4.587h0a2.293,2.293,0,0,1,0,4.587Zm0-3.369a1.077,1.077,0,0,0-1.076,1.076,1.077,1.077,0,0,0,1.075,1.076h0a1.076,1.076,0,0,0,0-2.152Z" fill="#0c3b2c"/>
                </g>
                <g id="グループ_50" data-name="グループ 50">
                  <path id="パス_617" data-name="パス 617" d="M159.515,155.093a1.685,1.685,0,1,1-1.683-1.686A1.685,1.685,0,0,1,159.515,155.093Z" fill="#fff"/>
                  <path id="パス_618" data-name="パス 618" d="M157.831,157.386h0a2.294,2.294,0,0,1,0-4.587h0a2.3,2.3,0,0,1,2.292,2.294h0A2.3,2.3,0,0,1,157.831,157.386Zm0-3.37a1.076,1.076,0,0,0,0,2.152h0a1.076,1.076,0,1,0,0-2.152Z" fill="#0c3b2c"/>
                </g>
              </g>
            </g>
            <g id="グループ_53" data-name="グループ 53">
              <path id="パス_619" data-name="パス 619" d="M160.994,179.945c-.1-.48-.19-.959-.28-1.439a1.337,1.337,0,0,1-.748-1.056c-.329-5.05-.344-10.277-1.507-15.238a1.727,1.727,0,0,1-1.667-.882,8.582,8.582,0,0,1-1.16-2.689l-.671-.671a1.338,1.338,0,0,1-.37-.772,4.017,4.017,0,0,0-.715.966,5.1,5.1,0,0,0-.386.953q.118,1.654.148,3.31a4.526,4.526,0,0,0,.279.568l.009,1.6q.012,1.893.022,3.786c.008,2.18-.011,4.363-.174,6.538q-.059.795-.146,1.586l0,.017c.01-.055.021-.114.033-.173-.018.088-.031.177-.044.267-.033.281-.044.324-.037.241-.012.091-.024.182-.038.272q-.159.963-.382,1.915c-.02.035-.041.069-.06.1a5.353,5.353,0,0,0-.243.528,8.184,8.184,0,0,1-.007,1.027,1.568,1.568,0,0,1,.321,1.231,20.259,20.259,0,0,1-3.111,7.488,5.146,5.146,0,0,0,.822,1.372,53.686,53.686,0,0,0,7.448,1.14,12.48,12.48,0,0,0,2.027-3.758,2.086,2.086,0,0,1,.259-.545,29.023,29.023,0,0,0-.276-5.868A1.792,1.792,0,0,1,160.994,179.945Z" fill="#0c3b2c"/>
            </g>
            <path id="パス_620" data-name="パス 620" d="M158.784,146.758a22.635,22.635,0,0,0,7.78-2.353,17.059,17.059,0,0,0,5.282-4.83,16.659,16.659,0,0,0,1.949-3.587.724.724,0,0,0-.5-.885.738.738,0,0,0-.885.5,15.193,15.193,0,0,1-9.437,8.8,35.531,35.531,0,0,1-4.568.968.725.725,0,0,0-.5.885.736.736,0,0,0,.885.5Z" fill="#0c3b2c"/>
            <path id="パス_621" data-name="パス 621" d="M175.659,138.847a14.563,14.563,0,0,0,5.482,7.178,11.128,11.128,0,0,0,2.475,1.115c.885.28,1.263-1.108.382-1.387a9.554,9.554,0,0,1-4.311-2.828,16.031,16.031,0,0,1-2.64-4.461.743.743,0,0,0-.885-.5.724.724,0,0,0-.5.885Z" fill="#0c3b2c"/>
            <path id="パス_622" data-name="パス 622" d="M178.262,126.705a14.718,14.718,0,0,0-8.537-1.268,19.181,19.181,0,0,0-7.669,2.615,16.363,16.363,0,0,0-5.565,5.571A21.057,21.057,0,0,0,154,140.712a50.588,50.588,0,0,0-.656,7.606c-.071,2.927-.1,5.852-.231,8.778-.3,6.487-.811,12.98-.524,19.478a50.981,50.981,0,0,1,.147,6.48,7.778,7.778,0,0,1-2.279,5.275,7.007,7.007,0,0,1-1.3.915.72.72,0,0,0,.727,1.243,8.139,8.139,0,0,0,3.916-5.1,20.745,20.745,0,0,0,.361-6.469c-.156-2.815-.245-5.624-.195-8.445.055-3.212.23-6.42.4-9.627s.332-6.422.374-9.637c.032-2.471.059-4.945.291-7.407a26.376,26.376,0,0,1,1.574-7.145,14.939,14.939,0,0,1,4.181-5.918,16.8,16.8,0,0,1,6.815-3.454,15.807,15.807,0,0,1,8.034-.08,9.992,9.992,0,0,1,1.9.744c.821.424,1.55-.817.726-1.243Z" fill="#0c3b2c"/>
            <path id="パス_623" data-name="パス 623" d="M181.818,131.661a5.337,5.337,0,0,1,2.257,1.565,7.016,7.016,0,0,1,.814,1.145,12.626,12.626,0,0,1,.633,1.253,18.983,18.983,0,0,1,.925,2.9,14.875,14.875,0,0,1,.511,3.307c.024,1.414-.112,2.825-.029,4.239q.135,2.29.275,4.58c.185,3.085.376,6.167.634,9.246.287,3.434.613,6.865.874,10.3a.737.737,0,0,0,.72.719.724.724,0,0,0,.719-.719c-.24-3.157-.534-6.309-.8-9.464-.267-3.137-.476-6.277-.664-9.42l-.286-4.761c-.087-1.45,0-2.886,0-4.336a16.032,16.032,0,0,0-.475-3.694,21.362,21.362,0,0,0-.91-3.022c-.912-2.308-2.387-4.383-4.815-5.228a.719.719,0,1,0-.382,1.387Z" fill="#0c3b2c"/>
            <path id="パス_624" data-name="パス 624" d="M159.27,167.055q.342,5.144.682,10.285a40.9,40.9,0,0,1,.048,8.8,12.61,12.61,0,0,1-1.51,4.51.72.72,0,0,0,1.243.726,16.935,16.935,0,0,0,1.919-8.651c0-1.515-.1-3.027-.2-4.538l-.345-5.2-.393-5.929a.736.736,0,0,0-.719-.719.726.726,0,0,0-.72.719Z" fill="#0c3b2c"/>
          </g>
        </g>
      </g>
    </g>
  </g>
</svg>
