<svg xmlns="http://www.w3.org/2000/svg" xmlns:xlink="http://www.w3.org/1999/xlink" width="80" height="80" viewBox="0 0 80 80">
  <defs>
    <clipPath id="clip-path">
      <circle id="楕円形_3" data-name="楕円形 3" cx="40" cy="40" r="40" transform="translate(886.114 119.098)" fill="#f2f2f2"/>
    </clipPath>
  </defs>
  <g id="グループ_15" data-name="グループ 15" transform="translate(-886.114 -119.098)">
    <g id="グループ_14" data-name="グループ 14">
      <circle id="楕円形_1" data-name="楕円形 1" cx="40" cy="40" r="40" transform="translate(886.114 119.098)" fill="#f2f2f2"/>
      <g id="グループ_13" data-name="グループ 13" clip-path="url(#clip-path)">
        <g id="グループ_12" data-name="グループ 12">
          <g id="グループ_8" data-name="グループ 8">
            <path id="パス_33" data-name="パス 33" d="M942.286,147.369a4.4,4.4,0,0,0-4.89-2.323,6.918,6.918,0,0,0-2.054.81c-.035-.1-.071-.189-.106-.284-.3-.809-.6-1.619-.936-2.416a21.916,21.916,0,0,0-2.379-4.5c-2.291-3.154-6.149-5.283-9.874-3.05-3.03,1.816-5.357,3.709-6.459,8.242a6.513,6.513,0,0,1-.88,1.549,4.518,4.518,0,0,0-1.972-.214,4.008,4.008,0,0,0-3.508,2.72,3.71,3.71,0,0,0,1.624,4.22,4.395,4.395,0,0,0,3.906.254,23.973,23.973,0,0,0,.613,2.725,13.412,13.412,0,0,0,3.462,6.094,2.17,2.17,0,0,0-.569,1.428,20.232,20.232,0,0,1-.836,5.274,2.344,2.344,0,0,0,1.834,2.874,34.6,34.6,0,0,0,5.533.334c.605-.019,1.236-.038,1.869-.08a10.743,10.743,0,0,0,6.181-.807,2.287,2.287,0,0,0,1.207-2.639l-1.107-5.859a18.84,18.84,0,0,0,2.763-4.444c.444-.945.845-1.91,1.266-2.865.174-.395.349-.789.545-1.173.034-.069.072-.136.108-.205a3.493,3.493,0,0,0,.85.07,4.718,4.718,0,0,0,2.745-1.041A3.863,3.863,0,0,0,942.286,147.369Z" fill="#fff"/>
            <path id="パス_34" data-name="パス 34" d="M892.109,217.1H959.73a10.7,10.7,0,0,0,2.08-6.8,23.24,23.24,0,0,0-1.946-8.887c-1.139-2.781-2.6-5.412-3.9-8.118a35.618,35.618,0,0,1-2.64-7.686c-.573-2.56-1.278-5.083-3.077-7.075a9.767,9.767,0,0,0-2.705-2.011,21.056,21.056,0,0,0-1.926-2.047,13.383,13.383,0,0,0-3.274-2.083,14.985,14.985,0,0,0-2.518-.859,2.431,2.431,0,0,0-1.96-.322l-.058-.006a7.612,7.612,0,0,0-1.442-.584c-2.472-.714-4.77.156-7.121.838a20.274,20.274,0,0,1-12.442-.425,2.678,2.678,0,0,0-2.595.654,29.958,29.958,0,0,0-7.581,2.556,17.269,17.269,0,0,0-6.051,5.587,29.337,29.337,0,0,0-3.326,7.026c-.874,2.581-1.342,5.356-2.524,7.824a21.382,21.382,0,0,1-1.787,2.89,57.006,57.006,0,0,0-2.835,8.343,14.009,14.009,0,0,0,.209,7.844A12.856,12.856,0,0,0,892.109,217.1Z" fill="#428d65"/>
            <path id="パス_35" data-name="パス 35" d="M941.9,158.9c-.049-1.028-.088-2.056-.123-3.083a46.552,46.552,0,0,0,.073-4.667.588.588,0,0,0-.048-.208,45.668,45.668,0,0,0-.988-8.059,1.906,1.906,0,0,0-.068-.795,39.875,39.875,0,0,0-2.444-5.942,13.08,13.08,0,0,0-4.392-8.122,13.914,13.914,0,0,0-10.944-3.031,2.1,2.1,0,0,0-1.472.993,2.636,2.636,0,0,0-.524.2,18.809,18.809,0,0,0-4.749,3.516,2.324,2.324,0,0,0-.631.631c-.044.064-.087.129-.131.194a18.409,18.409,0,0,0-1.621,2.165,18.692,18.692,0,0,0-1.95,4.076,16.976,16.976,0,0,0-.822,2.494,2.351,2.351,0,0,0-.03,1.03q-.324.648-.615,1.315a2.177,2.177,0,0,0,1.162,2.541,2.792,2.792,0,0,0,3.063-.352c1.813-1.644,1.878-3.011,3.986-4.483,2.232-1.559,4.021-2.524,5.445-5.056,2.131.64,4.067,1.148,5.673,2.668a2.366,2.366,0,0,0,1.809.656q1.523,3.276,3.162,6.5a1.94,1.94,0,0,0,.792.821q1.353,5.86,3.006,11.648a.62.62,0,0,0,.679.43q.235,1.422.483,2.843c.092.525.754.552,1.105.252a.693.693,0,0,0,.6-.565l0-.028A.552.552,0,0,0,941.9,158.9Z" fill="#0c3b2c"/>
            <path id="パス_36" data-name="パス 36" d="M918.914,161.834c-.531-.941-1.271-1.763-1.849-2.676a17.365,17.365,0,0,1-1.45-2.826l-.009,0c-.08-.181-.159-.361-.246-.541a1.815,1.815,0,0,0-.967-.863c-.322-2.558-4.944-2.443-5.035.367-.062,1.88-.234,3.928.516,5.705a6.352,6.352,0,0,0,2.731,3.155,2.724,2.724,0,0,0,.659.538,5.765,5.765,0,0,0,4.015.827A2.479,2.479,0,0,0,918.914,161.834Z" fill="#0c3b2c"/>
            <path id="パス_37" data-name="パス 37" d="M943.168,156.952a1.9,1.9,0,0,0-.989-1.241c.032-.273.058-.548.072-.827.15-2.927-4.906-2.934-5.055,0a7.469,7.469,0,0,1-1.632,4.279c-.577.719-1.437,1.245-1.756,2.167a5.336,5.336,0,0,0,.115,3.311,2.665,2.665,0,0,0,3.713,1.344,7.647,7.647,0,0,0,3.108-2.521A6.55,6.55,0,0,0,943.168,156.952Z" fill="#0c3b2c"/>
          </g>
          <g id="グループ_11" data-name="グループ 11">
            <g id="グループ_9" data-name="グループ 9">
              <path id="パス_38" data-name="パス 38" d="M913.934,144.285a4.564,4.564,0,0,0-3.5-.637,4.277,4.277,0,0,0-2.6,2.568,8.342,8.342,0,0,0-.154,4.62,6.443,6.443,0,0,0,1.7,3.24,5.063,5.063,0,0,0,4.023,1.375,1.021,1.021,0,0,0,0-2.042,5.128,5.128,0,0,1-.822.017c-.06,0-.121-.011-.182-.016-.158-.012.158.037.007,0-.126-.031-.254-.05-.379-.085-.108-.03-.213-.067-.318-.1-.18-.062-.018-.007.016.009-.061-.028-.122-.057-.182-.088-.095-.049-.188-.1-.278-.158-.059-.037-.329-.239-.148-.092a4.446,4.446,0,0,1-.484-.457c-.026-.029-.22-.268-.145-.167s-.018-.027-.036-.054c-.037-.054-.075-.108-.11-.163a5.753,5.753,0,0,1-.323-.585c-.015-.03-.087-.185-.029-.058s-.011-.029-.023-.061c-.046-.123-.09-.247-.13-.372a6.816,6.816,0,0,1-.337-1.8,8.179,8.179,0,0,1,.009-.99,4.224,4.224,0,0,1,.1-.742,5.611,5.611,0,0,1,.213-.728c.051-.146-.075.128,0,0,.03-.051.053-.108.082-.16s.059-.1.091-.156c.018-.028.173-.236.1-.155s.051-.051.069-.071c.043-.045.087-.088.133-.13.019-.017.171-.135.08-.07s.054-.032.082-.05c.156-.1.314-.2.479-.281.034-.018.071-.031.1-.051.1-.062-.229.072-.064.027.088-.023.174-.054.262-.078.014,0,.108-.023.109-.02s-.3.011-.044.015c.092,0,.187.013.277.011.133,0-.2-.048-.071-.008.057.017.119.023.178.037.132.032.262.072.391.116.057.019.114.04.171.062,0,0,.28.116.128.05.177.077.351.162.524.247a1.021,1.021,0,0,0,1.031-1.763Z" fill="#0c3b2c"/>
              <path id="パス_39" data-name="パス 39" d="M893.407,216.2c-.2-.187-.392-.381-.574-.586-.094-.107-.185-.216-.275-.327.027.033.105.142-.013-.018-.055-.076-.11-.152-.163-.229a9.046,9.046,0,0,1-.772-1.375c-.083-.18-.022-.05-.006-.011-.03-.071-.058-.143-.085-.215-.044-.115-.086-.231-.125-.347q-.141-.417-.243-.845c-.058-.24-.108-.483-.149-.727-.008-.049-.057-.406-.03-.189-.019-.155-.036-.309-.048-.464a12.445,12.445,0,0,1-.024-1.684c.013-.25.034-.5.061-.748.007-.062.015-.124.022-.186.035-.3-.024.126.008-.054.024-.138.043-.277.068-.415a19.279,19.279,0,0,1,1.08-3.641c.137-.349.2-.507.334-.809s.279-.628.423-.94c.275-.591.56-1.176.849-1.76.585-1.184,1.19-2.36,1.731-3.565a34.933,34.933,0,0,0,1.915-5.882c.5-1.986.94-3.988,1.56-5.941q.23-.723.495-1.435c.086-.228.179-.454.269-.681.057-.144-.064.148,0,.006l.068-.158c.057-.131.116-.261.176-.391a15.917,15.917,0,0,1,1.49-2.589c.075-.1.152-.208.229-.312-.129.172.073-.091.107-.132q.246-.3.51-.592a12.653,12.653,0,0,1,1.119-1.078c.1-.088.21-.174.316-.26.026-.021.153-.118.011-.01l.172-.129q.387-.286.79-.552c.523-.345,1.063-.663,1.613-.962,2.229-1.212,4.612-2.1,6.912-3.166a14.141,14.141,0,0,0,3.162-1.827,7.758,7.758,0,0,0,1.917-2.411,14.271,14.271,0,0,0,1.328-6.057c.017-.472.023-.944.023-1.416a1.021,1.021,0,0,0-2.041,0,28.358,28.358,0,0,1-.131,2.973c-.014.126-.029.252-.044.377.028-.232-.012.077-.023.146-.038.248-.083.5-.135.742a10.934,10.934,0,0,1-.4,1.434c-.038.1-.077.205-.117.307-.07.178-.007.016.008-.017-.022.05-.044.1-.067.15q-.162.353-.357.689c-.118.2-.244.4-.381.585-.032.045-.065.089-.1.133.124-.164.034-.044.006-.011-.092.1-.18.213-.275.315a6.892,6.892,0,0,1-.521.505c-.044.038-.332.266-.168.144-.121.09-.243.177-.368.26a13.589,13.589,0,0,1-1.562.844c-4.365,2.127-9.459,3.52-12.64,7.44-2.689,3.313-3.684,7.5-4.674,11.556a43.924,43.924,0,0,1-1.714,5.812c-.047.116-.094.232-.142.348.084-.2-.03.067-.061.137-.127.286-.26.568-.394.85-.3.624-.6,1.243-.91,1.861-.6,1.2-1.2,2.4-1.733,3.629a19.19,19.19,0,0,0-1.869,7.446,10.9,10.9,0,0,0,1.914,6.517,9.871,9.871,0,0,0,1.209,1.382,1.021,1.021,0,1,0,1.443-1.444Z" fill="#0c3b2c"/>
              <path id="パス_40" data-name="パス 40" d="M959.83,217.311a10.16,10.16,0,0,0,3.022-6.221,15.23,15.23,0,0,0-.91-6.976,74.941,74.941,0,0,0-3.378-7.379c-.14-.293-.28-.587-.415-.883-.046-.1-.091-.2-.136-.3-.022-.051-.043-.1-.066-.152.1.225-.013-.034-.025-.064-.18-.44-.345-.887-.5-1.338-.323-.949-.595-1.915-.848-2.886-1.028-3.955-1.742-8.129-3.92-11.661a14.915,14.915,0,0,0-4.666-4.7,45.716,45.716,0,0,0-6.75-3.309c-1.159-.5-2.318-1.016-3.431-1.614-.242-.131-.481-.269-.714-.417-.115-.074-.229-.149-.341-.227-.048-.034-.1-.068-.143-.1-.021-.015-.209-.161-.1-.075s-.093-.078-.093-.078l-.124-.106c-.081-.07-.159-.141-.236-.215a6.319,6.319,0,0,1-.468-.5c-.031-.037-.061-.076-.093-.113.15.174.059.078.028.033-.061-.087-.124-.173-.182-.263a5.753,5.753,0,0,1-.311-.545c-.041-.082-.077-.167-.117-.25-.065-.134.089.239.011.022-.016-.044-.033-.086-.049-.129q-.107-.294-.186-.6c-.048-.182-.089-.367-.123-.552-.021-.107-.037-.214-.055-.321-.006-.037-.028-.2-.007-.045s-.006-.051-.01-.085c-.053-.463-.079-.928-.094-1.393s-.017-.957-.017-1.435a1.021,1.021,0,0,0-2.042,0,13.545,13.545,0,0,0,.809,5.566A8.745,8.745,0,0,0,937.59,172c2.259,1.117,4.628,1.992,6.885,3.111a23.011,23.011,0,0,1,3.148,1.847c.131.093.26.191.389.286.146.106-.108-.087.018.013.048.038.1.076.143.115q.315.257.612.532a12.657,12.657,0,0,1,1.061,1.112c.075.088.148.177.22.267l.107.135c-.121-.154-.026-.033,0,0,.152.207.3.416.445.63.276.415.531.844.766,1.283s.451.891.65,1.349c.022.053.045.105.067.158-.014-.035-.076-.186,0-.006.043.107.086.213.128.32q.142.362.273.728a57.955,57.955,0,0,1,1.623,5.821,46.982,46.982,0,0,0,1.665,5.749c.908,2.363,2.182,4.568,3.233,6.868a24.838,24.838,0,0,1,1.337,3.524,15.721,15.721,0,0,1,.4,1.743l.03.185c0,.029.034.223.015.1-.022-.153.019.151.018.143.007.062.014.124.02.186q.043.42.06.842a12.414,12.414,0,0,1-.04,1.59c-.012.124-.026.247-.04.371.023-.206-.02.124-.031.189-.046.274-.1.547-.17.817-.064.254-.138.506-.221.754-.045.132-.092.262-.142.391-.022.058-.045.115-.068.172.055-.136.005-.016-.026.053a8.587,8.587,0,0,1-.806,1.41c-.035.049-.236.31-.123.17-.079.1-.16.2-.243.291a8.661,8.661,0,0,1-.606.622,1.03,1.03,0,0,0,0,1.444,1.043,1.043,0,0,0,1.444,0Z" fill="#0c3b2c"/>
              <path id="パス_41" data-name="パス 41" d="M913.247,150.4a16.975,16.975,0,0,0,1.906,7.412A14.178,14.178,0,0,0,920.819,164a11.062,11.062,0,0,0,5.044,1.337V163.3h-.076v2.042a11.178,11.178,0,0,0,8.1-3.547,16.952,16.952,0,0,0,3.94-7.325,16.173,16.173,0,0,0,.57-4.068,1.021,1.021,0,0,0-2.042,0,13.649,13.649,0,0,1-.1,1.539l-.015.12s.033-.226.017-.12c-.01.061-.018.123-.027.184-.022.144-.045.289-.071.433q-.077.429-.176.854a17.594,17.594,0,0,1-.515,1.786c-.1.3-.213.592-.331.884-.026.065-.053.131-.08.2.078-.189.018-.046-.023.049q-.1.227-.208.452a16.1,16.1,0,0,1-.935,1.7q-.261.411-.548.805c-.05.068-.1.135-.151.2-.067.092.047-.061.049-.064-.023.028-.045.057-.067.085-.106.132-.212.262-.322.39a11.94,11.94,0,0,1-1.383,1.371l-.2.16c-.15.123.134-.1-.022.018-.136.1-.272.2-.412.295a9.913,9.913,0,0,1-.87.531q-.243.132-.492.249c-.078.037-.157.072-.236.107-.048.022-.18.067.039-.016l-.139.056a9.7,9.7,0,0,1-1.079.351q-.3.078-.606.136c-.091.018-.181.034-.272.049l-.118.018c-.2.034.125-.01-.006,0-.427.038-.848.075-1.277.077a1.021,1.021,0,0,0,0,2.042h.076a1.021,1.021,0,0,0,0-2.042c-.358-.009-.713-.039-1.068-.077.257.027-.026-.006-.087-.016-.078-.012-.157-.026-.235-.041q-.27-.051-.537-.117a9.435,9.435,0,0,1-.958-.291c-.084-.03-.167-.061-.249-.094s-.2-.083-.037-.012c-.16-.071-.32-.142-.478-.22a12.476,12.476,0,0,1-1.674-1.037c-.093-.066.056.043.06.046-.029-.023-.059-.045-.088-.069l-.172-.14c-.133-.11-.263-.224-.391-.34-.238-.215-.467-.441-.688-.674s-.448-.494-.659-.753l-.139-.174c-.121-.152.095.128-.021-.028-.1-.14-.206-.279-.3-.42a16.069,16.069,0,0,1-1.019-1.669q-.223-.42-.423-.851c-.066-.142-.129-.286-.192-.43-.078-.18.064.16-.009-.022-.036-.088-.072-.177-.107-.266a17.787,17.787,0,0,1-.587-1.759,16.956,16.956,0,0,1-.4-1.893c-.005-.031-.008-.062-.014-.093-.023-.134.027.222.012.087-.009-.081-.021-.162-.03-.243-.015-.139-.028-.279-.039-.418q-.036-.441-.036-.884a1.021,1.021,0,0,0-2.042,0Z" fill="#0c3b2c"/>
              <path id="パス_42" data-name="パス 42" d="M916.169,171.2a21.26,21.26,0,0,0,15.19,1.138,20.7,20.7,0,0,0,4.065-1.726,1.021,1.021,0,0,0-1.031-1.763q-.8.444-1.628.813l-.117.051c.121-.052-.194.079-.166.068-.128.052-.257.1-.387.152-.291.111-.586.215-.882.311q-.84.274-1.7.473-.43.1-.865.179c-.137.026-.273.049-.41.072l-.257.04c-.023,0-.282.04-.174.026s-.1.012-.122.015l-.207.024c-.155.017-.31.033-.466.046q-.466.042-.934.061-.885.039-1.769,0-.443-.02-.883-.058c-.138-.012-.276-.025-.414-.04l-.207-.024c-.039,0-.3-.039-.225-.028l-.122-.018-.205-.032c-.154-.025-.308-.051-.461-.08-.307-.056-.613-.12-.916-.191a18.41,18.41,0,0,1-3.674-1.271,1.021,1.021,0,1,0-1.03,1.763Z" fill="#0c3b2c"/>
            </g>
            <path id="パス_43" data-name="パス 43" d="M910.878,144.455l.06-.457.036-.274c-.026.2-.005.035,0,0,.046-.337.093-.675.143-1.012.1-.646.2-1.292.317-1.935a34.226,34.226,0,0,1,.874-3.714c.186-.617.395-1.227.632-1.826.022-.057.045-.114.068-.17.009-.023.127-.3.038-.094.06-.14.121-.279.184-.418q.2-.435.421-.858a15.58,15.58,0,0,1,.959-1.6c.086-.125.175-.249.265-.372l.136-.183c.107-.141-.148.181.038-.047.214-.262.431-.521.661-.77a11.5,11.5,0,0,1,2.908-2.332q.412-.24.84-.45c.142-.07.286-.138.43-.2l.218-.1c.066-.028.058-.025-.025.011l.177-.072a14.933,14.933,0,0,1,1.857-.6c.309-.077.619-.145.932-.2.156-.029.313-.056.471-.08l.236-.035c-.221.03.09-.009.107-.011a15.586,15.586,0,0,1,2-.1q.477.007.954.043c.158.012.317.027.475.044l.19.021c.122.016.126.016.013,0l.141.021a15.175,15.175,0,0,1,1.911.407c.306.086.609.183.908.288.15.053.3.108.446.166l.265.106c-.164-.067.065.029.106.048a13.809,13.809,0,0,1,1.764.941q.385.243.752.512c.035.026.2.152.058.041l.184.148q.2.162.391.334a11.891,11.891,0,0,1,1.32,1.392c-.006-.007.177.226.088.11s.089.12.084.113q.134.182.261.367.28.408.532.836a16.906,16.906,0,0,1,.828,1.606l.11.249c.08.181.02.045.005.008.059.14.115.281.171.422.124.312.24.628.35.945.212.61.4,1.227.577,1.848.343,1.213.63,2.44.915,3.667.156.669.326,1.336.459,2.01.162.821.246,1.46.33,2.251.182,1.7.286,3.412.517,5.11.082.607.183,1.211.276,1.816q.065.423.126.847c.019.13.038.261.056.392,0,.033.043.328.011.083.012.089.024.179.035.269a30.825,30.825,0,0,1,.281,3.851,17.255,17.255,0,0,1-.094,1.888c-.01.09-.02.18-.032.269,0-.039.031-.2,0,0-.023.147-.047.293-.074.439-.059.315-.13.628-.218.936-.078.273-.172.541-.272.807-.068.18-.008.023.007-.011-.034.076-.068.152-.1.228q-.107.225-.229.441a6.218,6.218,0,0,1-.429.66c-.106.143.154-.171-.044.052-.052.059-.1.12-.154.178-.115.128-.235.252-.36.37s-.234.209-.353.311c-.229.2.158-.1-.09.071l-.153.109a6.877,6.877,0,0,1-.894.521c-.07.035-.142.067-.213.1-.164.074.221-.081-.06.024-.147.056-.294.11-.444.157a7.548,7.548,0,0,1-1.007.237c-.039.007-.2.019-.008,0-.093.008-.187.019-.281.026-.14.01-.281.016-.422.017-.157,0-.313,0-.47-.014-.078,0-.156-.013-.234-.019-.308-.025.2.034-.1-.014a1.048,1.048,0,0,0-1.256.713,1.034,1.034,0,0,0,.713,1.256,7.879,7.879,0,0,0,7.81-3.374c1.464-2.238,1.616-5.146,1.467-7.735-.163-2.829-.764-5.584-1.012-8.318-.16-1.755-.285-3.518-.607-5.254-.251-1.351-.6-2.694-.927-4.029a26.964,26.964,0,0,0-2.808-7.561,13.5,13.5,0,0,0-6.183-5.449,16.243,16.243,0,0,0-16.424,1.972c-4.415,3.5-5.9,9.16-6.672,14.484-.1.7-.2,1.4-.285,2.1a1.023,1.023,0,0,0,1.02,1.021,1.053,1.053,0,0,0,1.021-1.021Z" fill="#0c3b2c"/>
            <path id="パス_44" data-name="パス 44" d="M921.458,137.3c.024-.036.234-.317.115-.171.067-.083.138-.164.211-.242s.148-.152.227-.224c.044-.041.09-.08.135-.12.212-.188-.09.06.041-.035a4.68,4.68,0,0,1,.57-.356c.106-.056.213-.108.323-.156-.179.077.11-.035.175-.057a5.258,5.258,0,0,1,.653-.168c.071-.013.329-.036.132-.023.136-.009.271-.024.408-.028.229-.007.455.008.684.022.041,0,.2.027,0,0,.061.009.122.019.182.03.123.022.245.049.366.076a10.589,10.589,0,0,1,1.37.414c.057.021.113.043.17.066.026.01.2.084.088.035s.034.015.045.02l.165.075c.219.1.434.21.645.326a11,11,0,0,1,1.172.746l.144.107c.127.091-.115-.1.005,0,.081.066.163.13.243.2q.273.229.533.476a11.871,11.871,0,0,1,.945,1.01l.113.138c.018.022.135.168.059.072s.022.029.029.039c.036.048.072.095.107.143q.211.29.406.59a12.835,12.835,0,0,1,.689,1.207c.1.2.193.4.285.61.015.035.072.182,0,.005l.067.166c.044.112.087.224.127.337.4,1.094.675,2.24.963,3.366q.471,1.837.856,3.695A78.8,78.8,0,0,1,936.183,158a1.043,1.043,0,0,0,1.02,1.021A1.032,1.032,0,0,0,938.224,158c-.27-2.729-.666-5.447-1.2-8.137q-.393-1.98-.882-3.94c-.307-1.228-.609-2.474-1.023-3.671a12.739,12.739,0,0,0-8.714-8.335,6.671,6.671,0,0,0-3.651.037,5.74,5.74,0,0,0-3.06,2.312,1.028,1.028,0,0,0,.367,1.4,1.044,1.044,0,0,0,1.4-.366Z" fill="#0c3b2c"/>
            <path id="パス_45" data-name="パス 45" d="M908.268,153.12a15.319,15.319,0,0,0-.023,8.258,7.675,7.675,0,0,0,2.091,3.4,8.3,8.3,0,0,0,3.21,1.8,9.014,9.014,0,0,0,4.225.181,1.026,1.026,0,0,0,.713-1.256,1.049,1.049,0,0,0-1.256-.713c-.124.023-.248.046-.373.062.192-.025.028,0-.009,0l-.187.018a8.142,8.142,0,0,1-.841.023c-.248-.007-.494-.028-.741-.056.209.024-.12-.021-.185-.033-.15-.027-.3-.059-.45-.1-.237-.059-.471-.128-.7-.209-.115-.041-.228-.085-.341-.13.173.069.026.011-.008,0-.082-.039-.165-.076-.246-.117a7.121,7.121,0,0,1-.633-.356c-.1-.065-.2-.133-.3-.2-.049-.035-.1-.07-.146-.107.17.127-.065-.054-.079-.065a6.583,6.583,0,0,1-.532-.5c-.085-.088-.167-.178-.246-.271l-.118-.141c-.189-.231.106.158-.065-.088a5.871,5.871,0,0,1-.739-1.475,9.49,9.49,0,0,1-.56-3.415c0-.343.011-.687.034-1.03.021-.3.066-.74.093-.945s.1-.645.156-.935c.068-.354.145-.706.228-1.056a1.021,1.021,0,1,0-1.968-.543Z" fill="#0c3b2c"/>
            <path id="パス_46" data-name="パス 46" d="M914.937,146.028c2.089-2.972,4.286-5.815,6.506-8.652a1.049,1.049,0,0,0,0-1.444,1.033,1.033,0,0,0-1.444,0c-2.33,2.979-4.649,5.97-6.824,9.065a1.026,1.026,0,0,0,.366,1.4,1.048,1.048,0,0,0,1.4-.366Z" fill="#0c3b2c"/>
            <g id="グループ_10" data-name="グループ 10">
              <ellipse id="楕円形_2" data-name="楕円形 2" cx="1.653" cy="2.139" rx="1.653" ry="2.139" transform="translate(910.954 152.244)" fill="#fff"/>
              <path id="パス_47" data-name="パス 47" d="M912.257,153.268s.077-.058.079-.07c-.109.082-.126.1-.052.043l.044-.028c.036-.022.074-.041.111-.063.118-.071.055.036-.047.017a.736.736,0,0,0,.194-.054c.141-.037-.067.019-.082.01a.462.462,0,0,0,.128,0c.044,0,.146.026.011-.006-.158-.038.026.008.058.016s.1.043.12.037c-.056.016-.187-.092-.024-.005.03.016.06.033.089.051l.043.028c.074.054.057.039-.052-.043.011.05.152.141.192.186.01.011.066.084.071.084-.074-.1-.092-.119-.055-.065.017.023.032.046.047.07s.156.221.138.254c.005-.01-.062-.171-.019-.044.019.058.04.115.057.173s.028.1.039.15c.007.027.058.241.025.1s0,.009,0,.044q.009.116.009.231a.875.875,0,0,0,1.75,0,3.064,3.064,0,0,0-1.545-2.777,2.345,2.345,0,0,0-2.988.936,3.52,3.52,0,0,0-.169,3.38,2.426,2.426,0,0,0,2.71,1.408,2.959,2.959,0,0,0,1.992-2.947.875.875,0,1,0-1.75,0c0,.1-.009.2-.015.3-.009.132.049-.212,0-.011-.01.04-.017.082-.027.122a2.454,2.454,0,0,1-.079.265c-.014.04-.079.132-.011.034.077-.113-.03.052-.046.08,0,.008-.13.221-.134.218s.124-.144.035-.046c-.025.027-.048.055-.073.081s-.064.062-.095.094c-.094.1-.072-.012.034-.021a1.076,1.076,0,0,0-.219.133c-.1.053-.013-.045.069-.029a.5.5,0,0,0-.1.031c-.039.011-.084.015-.123.028-.1.034.187,0,.082-.014a.7.7,0,0,0-.129,0c-.086,0-.074-.053.081.016a.915.915,0,0,0-.244-.063c.082-.016.165.082.069.029-.037-.021-.075-.04-.111-.062s-.084-.07-.108-.071c.02,0,.158.142.054.039-.05-.051-.1-.1-.152-.152l-.035-.041c-.047-.057-.047-.057,0,0s.047.058,0,0c-.016-.023-.031-.047-.046-.071s-.136-.206-.123-.23c0,0,.077.208.02.044-.014-.038-.028-.076-.04-.114a2.5,2.5,0,0,1-.07-.271c-.014-.065-.07-.182-.005.013a.8.8,0,0,1-.016-.195c0-.089,0-.177,0-.266,0-.043.007-.087.009-.13.012-.211-.032.138,0,.01.022-.091.037-.183.064-.274.011-.039.024-.078.037-.116s.02-.057.031-.085q.037-.092-.03.072a1.139,1.139,0,0,0,.108-.205,1.1,1.1,0,0,0,.077-.119" fill="#0c3b2c"/>
            </g>
          </g>
        </g>
      </g>
    </g>
  </g>
</svg>
