<?xml version="1.0" encoding="UTF-8"?>
<svg id="_レイヤー_2" data-name="レイヤー 2" xmlns="http://www.w3.org/2000/svg" viewBox="0 0 219.1 18.12">
  <defs>
    <style>
      .cls-1 {
        fill: #0c3b2c;
      }
    </style>
  </defs>
  <g id="_レイヤー_4" data-name="レイヤー 4">
    <g>
      <path class="cls-1" d="M7.13,3.3v14.43h-3.31V3.3H0V.39h10.96v2.91h-3.82Z"/>
      <path class="cls-1" d="M17.45.39c2.34,0,3.54.62,4.33,1.3,1.3,1.12,1.68,2.6,1.68,3.9,0,1.69-.66,3.17-1.99,4.08-.43.31-1.04.6-1.86.75l5.3,7.31h-4.13l-4.54-6.97h-.41v6.97h-3.31V.39h4.92ZM15.85,8.37h.94c.64,0,3.26-.08,3.26-2.63s-2.6-2.6-3.21-2.6h-.99v5.23Z"/>
      <path class="cls-1" d="M36.72,14.09h-6.85l-1.5,3.64h-3.59L32.08.39h2.6l7.11,17.34h-3.57l-1.5-3.64ZM35.75,11.34l-2.42-6.24-2.42,6.24h4.84Z"/>
      <path class="cls-1" d="M46.58.39v17.34h-3.31V.39h3.31Z"/>
      <path class="cls-1" d="M49.94,17.73V.39h2.29l10.35,11.57V.39h3.31v17.34h-2.29l-10.35-11.6v11.6h-3.31Z"/>
      <path class="cls-1" d="M72.57.39v17.34h-3.31V.39h3.31Z"/>
      <path class="cls-1" d="M75.93,17.73V.39h2.29l10.35,11.57V.39h3.31v17.34h-2.29l-10.35-11.6v11.6h-3.31Z"/>
      <path class="cls-1" d="M103.86,8.45h7.8v.21c0,1.17-.15,4.81-2.5,7.18-1.76,1.79-3.92,2.29-6.04,2.29s-4.31-.44-6.17-2.34c-.59-.6-2.52-2.78-2.52-6.68,0-3.35,1.48-5.41,2.5-6.45,1.27-1.33,3.42-2.65,6.7-2.65,1.27,0,2.62.21,3.92.91,1.1.57,2.29,1.61,3.19,3.17l-2.88,1.59c-.59-1.17-1.45-1.77-1.99-2.05-.71-.36-1.61-.55-2.4-.55-1.35,0-2.88.49-3.92,1.53-.97.96-1.71,2.63-1.71,4.58,0,2.31.97,3.69,1.68,4.39.76.75,1.96,1.48,3.77,1.48,1.12,0,2.4-.31,3.34-1.04.66-.52,1.33-1.4,1.61-2.65h-4.38v-2.91Z"/>
      <path class="cls-1" d="M127.99,4.34c-.99-1.35-2.17-1.48-2.78-1.48-1.78,0-2.34,1.14-2.34,2.03,0,.42.13.81.54,1.17.41.39.97.6,2.04.99,1.33.47,2.57.94,3.44,1.74.76.7,1.45,1.87,1.45,3.64,0,3.38-2.39,5.69-5.91,5.69-3.13,0-4.97-1.95-5.86-3.28l2.17-2.11c.82,1.69,2.37,2.31,3.57,2.31,1.5,0,2.62-.94,2.62-2.39,0-.62-.2-1.12-.66-1.56-.64-.6-1.66-.94-2.62-1.27-.89-.31-1.96-.73-2.83-1.51-.56-.49-1.35-1.46-1.35-3.22,0-2.55,1.68-5.1,5.45-5.1,1.07,0,3.08.21,4.82,2.03l-1.73,2.31Z"/>
      <path class="cls-1" d="M136.04.39v10.89c0,1.33.43,2.13.82,2.57.48.6,1.38,1.2,2.7,1.2s2.22-.6,2.7-1.2c.38-.44.82-1.25.82-2.57V.39h3.31v10.61c0,1.64-.25,3.3-1.27,4.63-1.22,1.64-3.36,2.5-5.56,2.5s-4.33-.86-5.55-2.5c-1.02-1.33-1.27-2.99-1.27-4.63V.39h3.31Z"/>
      <path class="cls-1" d="M154.69.39c1.91,0,3.24.21,4.49,1.33,1.38,1.25,1.73,2.94,1.73,4.19,0,.68-.1,2.55-1.4,3.87-.94.96-2.34,1.53-4.31,1.53h-2.14v6.42h-3.31V.39h4.94ZM153.06,8.4h1.35c.64,0,1.45,0,2.17-.55.61-.49.92-1.27.92-2.03,0-.96-.46-1.61-.94-1.98-.69-.49-1.55-.55-2.34-.55h-1.15v5.1Z"/>
      <path class="cls-1" d="M167.78.39c1.91,0,3.24.21,4.49,1.33,1.38,1.25,1.73,2.94,1.73,4.19,0,.68-.1,2.55-1.4,3.87-.94.96-2.34,1.53-4.31,1.53h-2.14v6.42h-3.31V.39h4.94ZM166.15,8.4h1.35c.64,0,1.45,0,2.17-.55.61-.49.92-1.27.92-2.03,0-.96-.46-1.61-.94-1.98-.69-.49-1.55-.55-2.34-.55h-1.15v5.1Z"/>
      <path class="cls-1" d="M193.27,9.07c0,5.28-3.72,9.05-9.07,9.05s-9.07-3.77-9.07-9.05,3.72-9.07,9.07-9.07,9.07,3.8,9.07,9.07ZM189.85,9.07c0-3.51-2.34-6.01-5.66-6.01s-5.66,2.5-5.66,6.01,2.34,5.98,5.66,5.98,5.66-2.47,5.66-5.98Z"/>
      <path class="cls-1" d="M200.73.39c2.34,0,3.54.62,4.33,1.3,1.3,1.12,1.68,2.6,1.68,3.9,0,1.69-.66,3.17-1.99,4.08-.43.31-1.04.6-1.86.75l5.3,7.31h-4.13l-4.54-6.97h-.41v6.97h-3.31V.39h4.92ZM199.12,8.37h.94c.64,0,3.26-.08,3.26-2.63s-2.6-2.6-3.21-2.6h-.99v5.23Z"/>
      <path class="cls-1" d="M215.28,3.3v14.43h-3.31V3.3h-3.82V.39h10.96v2.91h-3.82Z"/>
    </g>
  </g>
</svg>