<?xml version="1.0" encoding="UTF-8"?>
<svg id="_レイヤー_2" data-name="レイヤー 2" xmlns="http://www.w3.org/2000/svg" viewBox="0 0 340 42.42">
  <defs>
    <style>
      .cls-1 {
        stroke-width: .85px;
      }

      .cls-1, .cls-2 {
        fill: none;
        stroke: #0c3b2c;
        stroke-miterlimit: 10;
      }

      .cls-2 {
        stroke-width: .85px;
      }

      .cls-3 {
        fill: #0c3b2c;
      }
    </style>
  </defs>
  <g id="_レイヤー_4" data-name="レイヤー 4">
    <g>
      <line class="cls-1" y1="42" x2="340" y2="42"/>
      <g>
        <path class="cls-2" d="M87.13,10.01L95.46.43h5.58l-9.59,10.47,10.1,12.2h-5.85l-8.06-10.17-.51.51v9.65h-4.42V.43h4.42v9.59Z"/>
        <path class="cls-2" d="M118.85,18.99c-.44,1.09-2.11,4.59-7.24,4.59-2.38,0-4.18-.68-5.64-2.07-1.63-1.53-2.31-3.43-2.31-5.75,0-2.92,1.19-4.73,2.24-5.78,1.73-1.7,3.77-2.07,5.54-2.07,2.99,0,4.73,1.19,5.75,2.41,1.56,1.87,1.77,4.18,1.77,5.78v.34h-11.01c0,.88.24,1.84.71,2.48.44.61,1.36,1.39,2.96,1.39s2.75-.75,3.43-1.94l3.81.61ZM115.04,13.79c-.34-2.01-1.97-2.96-3.5-2.96s-3.13.99-3.47,2.96h6.97Z"/>
        <path class="cls-2" d="M127.93,20.89l-7-12.51h4.83l4.56,8.36,4.08-8.36h4.69l-11.86,22.51h-4.69l5.41-9.99Z"/>
        <path class="cls-3" d="M162.37,4.23h-7.62v5.07h7.14v3.81h-7.14v10h-4.42V.43h12.03v3.81Z"/>
        <path class="cls-3" d="M179,18.99c-.44,1.09-2.11,4.59-7.24,4.59-2.38,0-4.18-.68-5.64-2.07-1.63-1.53-2.31-3.43-2.31-5.75,0-2.92,1.19-4.73,2.24-5.78,1.73-1.7,3.77-2.07,5.54-2.07,2.99,0,4.73,1.19,5.75,2.41,1.56,1.87,1.77,4.18,1.77,5.78v.34h-11.01c0,.88.24,1.84.71,2.48.44.61,1.36,1.39,2.96,1.39s2.75-.75,3.43-1.94l3.81.61ZM175.19,13.79c-.34-2.01-1.97-2.96-3.5-2.96s-3.13.99-3.47,2.96h6.97Z"/>
        <path class="cls-3" d="M193.24,8.38h4.15v14.72h-4.15v-1.9c-1.5,2.14-3.47,2.38-4.52,2.38-4.52,0-7.51-3.54-7.51-7.85s2.96-7.82,7.31-7.82c1.12,0,3.33.2,4.73,2.38v-1.9ZM185.49,15.72c0,2.35,1.7,4.18,4.08,4.18s4.08-1.84,4.08-4.18-1.7-4.15-4.08-4.15-4.08,1.8-4.08,4.15Z"/>
        <path class="cls-3" d="M205.14,11.92v11.18h-4.15v-11.18h-1.63v-3.54h1.63V3.35h4.15v5.03h2.86v3.54h-2.86Z"/>
        <path class="cls-3" d="M213.98,8.38v8.33c0,.78.07,1.84.88,2.58.51.44,1.33.75,2.11.75s1.6-.31,2.11-.75c.82-.75.88-1.8.88-2.58v-8.33h4.15v9.01c0,1.33-.17,3.09-1.8,4.52-1.36,1.19-3.54,1.67-5.34,1.67s-3.98-.48-5.34-1.67c-1.63-1.43-1.8-3.2-1.8-4.52v-9.01h4.15Z"/>
        <path class="cls-3" d="M227.72,8.38h4.15v2.21c.65-1.26,1.53-1.87,1.84-2.04.65-.41,1.46-.65,2.45-.65.71,0,1.29.17,1.77.34l-.54,3.88c-.54-.37-1.09-.54-1.94-.54-.78,0-1.94.17-2.75,1.19-.78.99-.82,2.24-.82,3.26v7.07h-4.15v-14.72Z"/>
        <path class="cls-3" d="M254.07,18.99c-.44,1.09-2.11,4.59-7.24,4.59-2.38,0-4.18-.68-5.64-2.07-1.63-1.53-2.31-3.43-2.31-5.75,0-2.92,1.19-4.73,2.24-5.78,1.73-1.7,3.77-2.07,5.54-2.07,2.99,0,4.73,1.19,5.75,2.41,1.56,1.87,1.77,4.18,1.77,5.78v.34h-11.01c0,.88.24,1.84.71,2.48.44.61,1.36,1.39,2.96,1.39s2.75-.75,3.43-1.94l3.81.61ZM250.26,13.79c-.34-2.01-1.97-2.96-3.5-2.96s-3.13.99-3.47,2.96h6.97Z"/>
        <path class="cls-3" d="M265.05,11.88c-.99-.92-1.97-.99-2.41-.99-.99,0-1.6.48-1.6,1.19,0,.37.17.95,1.33,1.33l.99.31c1.16.37,2.89.95,3.74,2.11.44.61.75,1.5.75,2.45,0,1.33-.44,2.65-1.63,3.74-1.19,1.09-2.62,1.56-4.42,1.56-3.06,0-4.79-1.46-5.71-2.45l2.18-2.52c.82.95,2.04,1.7,3.26,1.7,1.16,0,2.04-.58,2.04-1.6,0-.92-.75-1.29-1.29-1.5l-.95-.34c-1.05-.37-2.28-.85-3.16-1.77-.68-.71-1.12-1.63-1.12-2.82,0-1.43.68-2.62,1.53-3.33,1.16-.92,2.65-1.05,3.84-1.05,1.09,0,2.82.14,4.69,1.56l-2.04,2.41Z"/>
      </g>
    </g>
  </g>
</svg>