<?xml version="1.0" encoding="UTF-8"?>
<svg id="_レイヤー_2" data-name="レイヤー 2" xmlns="http://www.w3.org/2000/svg" viewBox="0 0 135.99 18.12">
  <defs>
    <style>
      .cls-1 {
        fill: #0c3b2c;
      }
    </style>
  </defs>
  <g id="_レイヤー_4" data-name="レイヤー 4">
    <g>
      <path class="cls-1" d="M3.62.39l4.54,11.65L12.69.39h3.62l-7.19,17.34h-1.99L0,.39h3.62Z"/>
      <path class="cls-1" d="M26.32,14.09h-6.85l-1.5,3.64h-3.59L21.68.39h2.6l7.11,17.34h-3.57l-1.5-3.64ZM25.35,11.34l-2.42-6.24-2.42,6.24h4.84Z"/>
      <path class="cls-1" d="M36.18.39v14.43h5.25v2.91h-8.56V.39h3.31Z"/>
      <path class="cls-1" d="M46.53.39v10.89c0,1.33.43,2.13.82,2.57.48.6,1.38,1.2,2.7,1.2s2.22-.6,2.7-1.2c.38-.44.82-1.25.82-2.57V.39h3.31v10.61c0,1.64-.25,3.3-1.27,4.63-1.22,1.64-3.36,2.5-5.56,2.5s-4.33-.86-5.55-2.5c-1.02-1.33-1.27-2.99-1.27-4.63V.39h3.31Z"/>
      <path class="cls-1" d="M69.66,3.3h-6.12v3.87h5.86v2.91h-5.86v4.73h6.12v2.91h-9.43V.39h9.43v2.91Z"/>
      <path class="cls-1" d="M82.73.39c1.91,0,3.24.21,4.49,1.33,1.38,1.25,1.73,2.94,1.73,4.19,0,.68-.1,2.55-1.4,3.87-.94.96-2.34,1.53-4.31,1.53h-2.14v6.42h-3.31V.39h4.94ZM81.1,8.4h1.35c.64,0,1.45,0,2.17-.55.61-.49.92-1.27.92-2.03,0-.96-.46-1.61-.94-1.98-.69-.49-1.55-.55-2.34-.55h-1.15v5.1Z"/>
      <path class="cls-1" d="M95.8.39c2.34,0,3.54.62,4.33,1.3,1.3,1.12,1.68,2.6,1.68,3.9,0,1.69-.66,3.17-1.99,4.08-.43.31-1.04.6-1.86.75l5.3,7.31h-4.13l-4.54-6.97h-.41v6.97h-3.31V.39h4.92ZM94.2,8.37h.94c.64,0,3.26-.08,3.26-2.63s-2.6-2.6-3.21-2.6h-.99v5.23Z"/>
      <path class="cls-1" d="M108.31.39v17.34h-3.31V.39h3.31Z"/>
      <path class="cls-1" d="M124.01,17.11c-1.02.55-2.37,1.01-4.21,1.01-2.98,0-4.79-1.04-6.22-2.42-1.96-1.92-2.73-4.08-2.73-6.63,0-3.15,1.27-5.41,2.73-6.79,1.71-1.64,3.82-2.29,6.24-2.29,1.2,0,2.62.21,4.18,1.07v3.95c-1.55-1.82-3.49-1.95-4.1-1.95-3.41,0-5.63,2.86-5.63,6.06,0,3.85,2.9,5.93,5.76,5.93,1.58,0,2.98-.7,3.98-1.9v3.95Z"/>
      <path class="cls-1" d="M135.99,3.3h-6.12v3.87h5.86v2.91h-5.86v4.73h6.12v2.91h-9.43V.39h9.43v2.91Z"/>
    </g>
  </g>
</svg>