<?xml version="1.0" encoding="UTF-8"?>
<svg id="_レイヤー_2" data-name="レイヤー 2" xmlns="http://www.w3.org/2000/svg" viewBox="0 0 181.11 18.12">
  <defs>
    <style>
      .cls-1 {
        fill: #0c3b2c;
      }
    </style>
  </defs>
  <g id="_レイヤー_4" data-name="レイヤー 4">
    <g>
      <path class="cls-1" d="M18.14,9.07c0,5.28-3.72,9.05-9.07,9.05S0,14.35,0,9.07,3.72,0,9.07,0s9.07,3.8,9.07,9.07ZM14.73,9.07c0-3.51-2.34-6.01-5.66-6.01s-5.66,2.5-5.66,6.01,2.34,5.98,5.66,5.98,5.66-2.47,5.66-5.98Z"/>
      <path class="cls-1" d="M25.63.39c1.91,0,3.24.21,4.49,1.33,1.38,1.25,1.73,2.94,1.73,4.19,0,.68-.1,2.55-1.4,3.87-.94.96-2.34,1.53-4.31,1.53h-2.14v6.42h-3.31V.39h4.94ZM24,8.4h1.35c.64,0,1.45,0,2.17-.55.61-.49.92-1.27.92-2.03,0-.96-.46-1.61-.94-1.98-.69-.49-1.55-.55-2.34-.55h-1.15v5.1Z"/>
      <path class="cls-1" d="M43.21,3.3h-6.12v3.87h5.86v2.91h-5.86v4.73h6.12v2.91h-9.43V.39h9.43v2.91Z"/>
      <path class="cls-1" d="M45.92,17.73V.39h2.29l10.35,11.57V.39h3.31v17.34h-2.29l-10.35-11.6v11.6h-3.31Z"/>
      <path class="cls-1" d="M74.17,11.93c.31-.36,2.29-2.68,2.91-3.61.46-.7.99-1.77.99-2.78,0-1.56-1.1-2.63-2.52-2.63-1.73,0-2.65,1.4-2.7,2.89h-3.41c.15-3.54,2.6-5.8,5.96-5.8,3.95,0,5.99,2.76,5.99,5.51s-1.76,4.6-3.08,6.06l-2.93,3.25h6.14v2.91h-12.33l4.99-5.8Z"/>
      <path class="cls-1" d="M93.89,11.75h1.99v2.7h-1.99v3.28h-3.11v-3.28h-8.31v-1.51L90.91.39h2.98v11.36ZM90.79,11.75v-6.6l-4.38,6.6h4.38Z"/>
      <path class="cls-1" d="M106.56,7.1h7.19V.39h3.31v17.34h-3.31v-7.72h-7.19v7.72h-3.31V.39h3.31v6.71Z"/>
      <path class="cls-1" d="M137.75,9.07c0,5.28-3.72,9.05-9.07,9.05s-9.07-3.77-9.07-9.05,3.72-9.07,9.07-9.07,9.07,3.8,9.07,9.07ZM134.33,9.07c0-3.51-2.34-6.01-5.66-6.01s-5.66,2.5-5.66,6.01,2.34,5.98,5.66,5.98,5.66-2.47,5.66-5.98Z"/>
      <path class="cls-1" d="M143.35.39v10.89c0,1.33.43,2.13.82,2.57.48.6,1.38,1.2,2.7,1.2s2.22-.6,2.7-1.2c.38-.44.82-1.25.82-2.57V.39h3.31v10.61c0,1.64-.25,3.3-1.27,4.63-1.22,1.64-3.36,2.5-5.56,2.5s-4.33-.86-5.55-2.5c-1.02-1.33-1.27-2.99-1.27-4.63V.39h3.31Z"/>
      <path class="cls-1" d="M161.21.39c2.34,0,3.54.62,4.33,1.3,1.3,1.12,1.68,2.6,1.68,3.9,0,1.69-.66,3.17-1.99,4.08-.43.31-1.04.6-1.86.75l5.3,7.31h-4.13l-4.54-6.97h-.41v6.97h-3.31V.39h4.92ZM159.6,8.37h.94c.64,0,3.26-.08,3.26-2.63s-2.6-2.6-3.21-2.6h-.99v5.23Z"/>
      <path class="cls-1" d="M178.77,4.34c-.99-1.35-2.17-1.48-2.78-1.48-1.78,0-2.34,1.14-2.34,2.03,0,.42.13.81.54,1.17.41.39.97.6,2.04.99,1.32.47,2.57.94,3.44,1.74.76.7,1.45,1.87,1.45,3.64,0,3.38-2.4,5.69-5.91,5.69-3.13,0-4.97-1.95-5.86-3.28l2.17-2.11c.82,1.69,2.37,2.31,3.57,2.31,1.5,0,2.62-.94,2.62-2.39,0-.62-.2-1.12-.66-1.56-.64-.6-1.66-.94-2.62-1.27-.89-.31-1.96-.73-2.83-1.51-.56-.49-1.35-1.46-1.35-3.22,0-2.55,1.68-5.1,5.45-5.1,1.07,0,3.08.21,4.82,2.03l-1.73,2.31Z"/>
    </g>
  </g>
</svg>