<?xml version="1.0" encoding="UTF-8"?>
<svg id="_レイヤー_2" data-name="レイヤー 2" xmlns="http://www.w3.org/2000/svg" viewBox="0 0 137.21 18.12">
  <defs>
    <style>
      .cls-1 {
        fill: #0c3b2c;
      }
    </style>
  </defs>
  <g id="_レイヤー_4" data-name="レイヤー 4">
    <g>
      <path class="cls-1" d="M9.02,3.3H3.31v3.87h5.35v2.91H3.31v7.64H0V.39h9.02v2.91Z"/>
      <path class="cls-1" d="M20.79,3.3h-6.12v3.87h5.86v2.91h-5.86v4.73h6.12v2.91h-9.43V.39h9.43v2.91Z"/>
      <path class="cls-1" d="M32.92,3.3h-6.12v3.87h5.86v2.91h-5.86v4.73h6.12v2.91h-9.43V.39h9.43v2.91Z"/>
      <path class="cls-1" d="M38.93.39v14.43h5.25v2.91h-8.56V.39h3.31Z"/>
      <path class="cls-1" d="M54.32,4.34c-.99-1.35-2.17-1.48-2.78-1.48-1.78,0-2.34,1.14-2.34,2.03,0,.42.13.81.54,1.17.41.39.97.6,2.04.99,1.33.47,2.57.94,3.44,1.74.76.7,1.45,1.87,1.45,3.64,0,3.38-2.39,5.69-5.91,5.69-3.13,0-4.97-1.95-5.86-3.28l2.17-2.11c.82,1.69,2.37,2.31,3.57,2.31,1.5,0,2.62-.94,2.62-2.39,0-.62-.2-1.12-.66-1.56-.64-.6-1.66-.94-2.62-1.27-.89-.31-1.96-.73-2.83-1.51-.56-.49-1.35-1.46-1.35-3.22,0-2.55,1.68-5.1,5.45-5.1,1.07,0,3.08.21,4.82,2.03l-1.73,2.31Z"/>
      <path class="cls-1" d="M73.1,8.45h7.8v.21c0,1.17-.15,4.81-2.5,7.18-1.76,1.79-3.92,2.29-6.04,2.29s-4.31-.44-6.17-2.34c-.59-.6-2.52-2.78-2.52-6.68,0-3.35,1.48-5.41,2.5-6.45,1.27-1.33,3.42-2.65,6.7-2.65,1.27,0,2.62.21,3.92.91,1.1.57,2.29,1.61,3.19,3.17l-2.88,1.59c-.59-1.17-1.45-1.77-1.99-2.05-.71-.36-1.61-.55-2.4-.55-1.35,0-2.88.49-3.92,1.53-.97.96-1.71,2.63-1.71,4.58,0,2.31.97,3.69,1.68,4.39.76.75,1.96,1.48,3.77,1.48,1.12,0,2.4-.31,3.34-1.04.66-.52,1.33-1.4,1.61-2.65h-4.38v-2.91Z"/>
      <path class="cls-1" d="M100.77,9.07c0,5.28-3.72,9.05-9.07,9.05s-9.07-3.77-9.07-9.05,3.72-9.07,9.07-9.07,9.07,3.8,9.07,9.07ZM97.36,9.07c0-3.51-2.34-6.01-5.66-6.01s-5.66,2.5-5.66,6.01,2.34,5.98,5.66,5.98,5.66-2.47,5.66-5.98Z"/>
      <path class="cls-1" d="M120.65,9.07c0,5.28-3.72,9.05-9.07,9.05s-9.07-3.77-9.07-9.05,3.72-9.07,9.07-9.07,9.07,3.8,9.07,9.07ZM117.23,9.07c0-3.51-2.34-6.01-5.66-6.01s-5.66,2.5-5.66,6.01,2.34,5.98,5.66,5.98,5.66-2.47,5.66-5.98Z"/>
      <path class="cls-1" d="M127.63.39c2.37,0,4.43.26,6.32,1.69,2.06,1.59,3.26,4.11,3.26,6.99s-1.17,5.38-3.42,6.99c-1.99,1.43-3.85,1.66-6.22,1.66h-4.38V.39h4.43ZM126.51,14.82h1.02c.84,0,2.68-.05,4.15-1.14,1.35-.99,2.12-2.76,2.12-4.6s-.74-3.59-2.09-4.63c-1.38-1.04-3.06-1.14-4.18-1.14h-1.02v11.52Z"/>
    </g>
  </g>
</svg>