<?xml version="1.0" encoding="UTF-8"?>
<svg id="_レイヤー_2" data-name="レイヤー 2" xmlns="http://www.w3.org/2000/svg" viewBox="0 0 165.17 14.85">
  <defs>
    <style>
      .cls-1 {
        font-family: RyoGothicPlusN-Medium-83pv-RKSJ-H, 'Ryo Gothic PlusN';
        font-size: 10px;
        font-weight: 500;
      }

      .cls-1, .cls-2 {
        fill: #0c3b2c;
      }

      .cls-3 {
        letter-spacing: -.43em;
      }

      .cls-4 {
        letter-spacing: .05em;
      }

      .cls-5 {
        letter-spacing: .03em;
      }
    </style>
  </defs>
  <g id="_レイヤー_4" data-name="レイヤー 4">
    <g>
      <g>
        <path class="cls-2" d="M10.05.32l-2.32,3.84h1.58v1.62h-2.56l-.65,1.13h3.2v1.62h-3.2v3.8h-2.16v-3.8H.74v-1.62h3.21l-.65-1.13H.74v-1.62h1.58L0,.32h2.59l2.43,4.21L7.45.32h2.59Z"/>
        <path class="cls-2" d="M17.97.92l-2.92,3.8c.36-.16.79-.29,1.31-.29.88,0,1.94.34,2.65,1.03.63.59,1.13,1.62,1.13,2.88,0,1.01-.29,2.02-1.1,2.9-1.03,1.12-2.2,1.37-3.42,1.37s-2.43-.23-3.42-1.22c-.65-.65-1.17-1.57-1.17-2.92,0-1.46.67-2.63,1.51-3.75l3.53-4.72,1.89.92ZM17.16,10.12c.29-.29.65-.79.65-1.58,0-.72-.25-1.26-.67-1.66-.45-.43-.95-.58-1.55-.58-.7,0-1.17.23-1.57.65-.43.45-.65.9-.65,1.57s.22,1.21.67,1.62c.31.29.83.59,1.55.59s1.26-.31,1.57-.61Z"/>
        <path class="cls-2" d="M22.72,9.85l2.02.23-2.54,4.77-1.39-.16,1.91-4.84Z"/>
        <path class="cls-2" d="M34.54,8.19h1.4v1.87h-1.4v2.27h-2.2v-2.27h-5.87v-1.04L32.44.32h2.11v7.87ZM32.35,8.19V3.62l-3.1,4.57h3.1Z"/>
        <path class="cls-2" d="M39.42,11.74l2.86-3.75c-.38.13-.85.23-1.28.23-.85,0-1.93-.34-2.63-1.03-.63-.59-1.13-1.62-1.13-2.88,0-1.01.29-2.02,1.1-2.9,1.03-1.12,2.2-1.37,3.42-1.37s2.43.23,3.42,1.22c.65.65,1.17,1.57,1.17,2.92,0,1.46-.67,2.63-1.51,3.75l-3.53,4.72-1.89-.92ZM40.23,2.54c-.29.29-.65.79-.65,1.58,0,.72.25,1.26.67,1.66.45.43.95.58,1.55.58.65,0,1.13-.2,1.57-.65.43-.45.65-.95.65-1.57,0-.76-.31-1.28-.67-1.62-.31-.29-.83-.59-1.55-.59-.76,0-1.26.31-1.57.61Z"/>
        <path class="cls-2" d="M47.72,6.32C47.72,2.2,49.97.05,52.36.05s4.65,2.14,4.65,6.28-2.25,6.27-4.65,6.27-4.65-2.14-4.65-6.28ZM50.06,6.32c0,3.13,1.28,4.27,2.3,4.27s2.3-1.13,2.3-4.27-1.3-4.25-2.3-4.25-2.3,1.13-2.3,4.25Z"/>
        <path class="cls-2" d="M74.27,5.59c-.72.9-.94,1.13-1.3,1.46-.97.88-1.91,1.26-3.06,1.26s-2.16-.36-4.48-1.64c-1.13-.61-1.55-.74-2.36-.74-1.08,0-1.55.34-3.1,2.25l-1.24-1.12c.74-.9.94-1.13,1.31-1.46.95-.88,1.91-1.26,3.06-1.26s2.14.36,4.48,1.64c1.13.61,1.55.74,2.34.74,1.1,0,1.57-.34,3.12-2.25l1.22,1.12Z"/>
        <path class="cls-2" d="M85.66.32l-2.32,3.84h1.58v1.62h-2.56l-.65,1.13h3.2v1.62h-3.2v3.8h-2.16v-3.8h-3.21v-1.62h3.21l-.65-1.13h-2.56v-1.62h1.58l-2.32-3.84h2.59l2.43,4.21,2.43-4.21h2.59Z"/>
        <path class="cls-2" d="M92.52,2.34h-5.58V.32h9.25l-7.22,12.37-1.98-.88,5.53-9.47Z"/>
        <path class="cls-2" d="M98.33,9.85l2.02.23-2.54,4.77-1.39-.16,1.91-4.84Z"/>
        <path class="cls-2" d="M110.2,2.34h-4l-.43,1.89c.23-.04.5-.07.81-.07,1.28,0,2.41.5,3.1,1.21.95.97,1.06,2.16,1.06,2.88,0,1.3-.4,2.3-1.22,3.13-.95.95-2.02,1.22-3.29,1.22-.65,0-1.67-.05-2.59-.5-.49-.23-1.03-.61-1.46-1.03l.77-2.02c.32.43.7.79,1.24,1.08.59.32,1.17.45,1.75.45.99,0,1.55-.41,1.84-.72.34-.36.63-.97.63-1.75,0-.68-.2-1.21-.7-1.66-.61-.54-1.3-.61-1.87-.61-.85,0-1.69.23-2.59.77l1.42-6.3h5.55v2.02Z"/>
        <path class="cls-2" d="M115.04,11.74l2.86-3.75c-.38.13-.85.23-1.28.23-.85,0-1.93-.34-2.63-1.03-.63-.59-1.13-1.62-1.13-2.88,0-1.01.29-2.02,1.1-2.9,1.03-1.12,2.2-1.37,3.42-1.37s2.43.23,3.42,1.22c.65.65,1.17,1.57,1.17,2.92,0,1.46-.67,2.63-1.51,3.75l-3.53,4.72-1.89-.92ZM115.85,2.54c-.29.29-.65.79-.65,1.58,0,.72.25,1.26.67,1.66.45.43.95.58,1.55.58.65,0,1.13-.2,1.57-.65.43-.45.65-.95.65-1.57,0-.76-.31-1.28-.67-1.62-.31-.29-.83-.59-1.55-.59-.76,0-1.26.31-1.57.61Z"/>
        <path class="cls-2" d="M123.33,6.32c0-4.12,2.25-6.27,4.65-6.27s4.65,2.14,4.65,6.28-2.25,6.27-4.65,6.27-4.65-2.14-4.65-6.28ZM125.68,6.32c0,3.13,1.28,4.27,2.3,4.27s2.3-1.13,2.3-4.27-1.3-4.25-2.3-4.25-2.3,1.13-2.3,4.25Z"/>
      </g>
      <text class="cls-1" transform="translate(128.87 11.07)"><tspan class="cls-5" x="0" y="0">（</tspan><tspan class="cls-4" x="10.3" y="0">税</tspan><tspan class="cls-5" x="20.8" y="0">込</tspan><tspan class="cls-3" x="31.1" y="0">）</tspan></text>
    </g>
  </g>
</svg>