<?xml version="1.0" encoding="UTF-8"?>
<svg id="_レイヤー_2" data-name="レイヤー 2" xmlns="http://www.w3.org/2000/svg" viewBox="0 0 221.55 81.66">
  <defs>
    <style>
      .cls-1 {
        fill: none;
      }

      .cls-2 {
        fill: #fff;
      }
    </style>
  </defs>
  <g id="_レイヤー_4" data-name="レイヤー 4">
    <g>
      <g>
        <path class="cls-2" d="M50.87,22.99v.08c.21,2.36,1.07,4.35,2.63,6.08,1.92,2.14,4.25,3.14,7.35,3.14,5.93,0,10.06-4.12,10.06-10.02,0-4.23-2.33-7.14-7.34-9.18l-3.11-1.25c-2.18-.87-3.29-2.11-3.29-3.68,0-2.5,2.15-3.62,4.27-3.62,1.36,0,2.34.33,3.28,1.09.63.54,1.06,1.15,1.37,1.92l.04.1,3.89-2.28.07-.04-.04-.07c-.59-1.18-1.44-2.29-2.39-3.14-1.63-1.4-3.74-2.11-6.28-2.11-6,0-9.14,4.15-9.14,8.25,0,3.54,2.08,6.13,6.36,7.92l2.97,1.25c2.18.89,4.4,2.2,4.4,5.21s-2.11,5.11-5.02,5.11c-1.68,0-3.01-.61-3.97-1.82-.8-1.05-1.28-2.51-1.28-3.89v-.11l-4.87,1.06Z"/>
        <polygon class="cls-2" points="81.41 31.68 86.31 31.68 86.31 5.19 93.41 5.19 93.41 .56 74.31 .56 74.31 5.19 81.41 5.19 81.41 31.68"/>
        <path class="cls-2" d="M143.06,9.74c0-1.46-.36-5.11-3.7-7.36-1.92-1.3-4.3-1.82-8.22-1.82h-5.61v31.13h4.91v-12.67h.7l8.84,12.63.03.04h5.93l-9.67-13.26c4.2-1,6.81-4.32,6.81-8.69ZM138.34,9.79c0,1.86-.84,4.97-6.5,4.97h-1.4V5.09h1.54c4.22,0,6.36,1.58,6.36,4.69Z"/>
        <polygon class="cls-2" points="147.06 5.19 154.16 5.19 154.16 31.68 159.07 31.68 159.07 5.19 166.17 5.19 166.17 .56 147.06 .56 147.06 5.19"/>
        <g>
          <polygon class="cls-1" points="102.7 19.58 111.8 19.58 107.34 9.4 102.7 19.58"/>
          <path class="cls-2" d="M108.39.55h-1.77l-14.64,31.13h5.3l3.39-7.47h13.11l3.23,7.42.02.05h5.3L108.39.55ZM102.7,19.58l4.64-10.18,4.46,10.18h-9.1Z"/>
        </g>
      </g>
      <g>
        <polygon class="cls-2" points="32.32 80.3 49.57 80.3 49.57 75.67 37.23 75.67 37.23 66.1 49.2 66.1 49.2 61.47 37.23 61.47 37.23 53.8 49.57 53.8 49.57 49.17 32.32 49.17 32.32 80.3"/>
        <rect class="cls-2" x="136.34" y="49.17" width="4.91" height="31.13"/>
        <path class="cls-2" d="M160.36,63.57c.9-.47,1.63-1.16,2.14-2.06.64-1.04.94-2.22.94-3.71,0-2.58-.81-4.61-2.49-6.19-2.18-2.03-4.9-2.44-8.6-2.44h-4.77v31.13h7.84c2.67,0,6.36-.53,8.74-3.04,1.43-1.52,2.06-3.25,2.06-5.63,0-2.51-.66-4.37-2.07-5.86-.99-1.02-2.3-1.78-3.8-2.19ZM157.64,61.31c-1.11,1.06-2.69,1.18-3.79,1.18h-1.35v-8.69h1.54c1.51,0,2.71.19,3.7,1.14.96.92,1.09,2.03,1.09,2.91,0,1-.12,2.45-1.18,3.46ZM152.5,66.56h2.88c1.76,0,3.57.17,4.81,1.37.77.77,1.23,1.96,1.23,3.19,0,1.34-.57,2.63-1.5,3.36-1.36,1.1-3.89,1.19-4.63,1.19h-2.79v-9.1Z"/>
        <polygon class="cls-2" points="170.17 80.3 187.42 80.3 187.42 75.67 175.07 75.67 175.07 66.1 187.05 66.1 187.05 61.47 175.07 61.47 175.07 53.8 187.42 53.8 187.42 49.17 170.17 49.17 170.17 80.3"/>
        <path class="cls-2" d="M204.2,61.71l-3.11-1.25c-2.18-.87-3.29-2.11-3.29-3.68,0-2.5,2.15-3.62,4.27-3.62,1.36,0,2.34.33,3.28,1.09.63.54,1.06,1.15,1.37,1.92l.04.09,3.89-2.28.07-.04-.04-.07c-.59-1.18-1.44-2.29-2.39-3.14-1.63-1.4-3.74-2.11-6.28-2.11-6,0-9.14,4.15-9.14,8.26,0,3.54,2.08,6.13,6.36,7.92l2.97,1.25c2.18.89,4.4,2.21,4.4,5.21s-2.11,5.11-5.02,5.11c-1.68,0-3.01-.61-3.97-1.82-.8-1.05-1.28-2.51-1.28-3.89v-.11l-4.87,1.06v.08c.21,2.36,1.07,4.35,2.63,6.08,1.92,2.14,4.25,3.14,7.35,3.14,5.93,0,10.06-4.12,10.06-10.02,0-4.23-2.33-7.14-7.34-9.18Z"/>
        <polygon class="cls-2" points="22.46 49.17 22.46 70.48 2.12 49.17 0 49.17 0 80.3 4.91 80.3 4.91 58.81 25.43 80.3 27.37 80.3 27.37 49.17 22.46 49.17"/>
        <polygon class="cls-2" points="96.8 49.17 91.5 49.17 83.12 69.71 75.64 49.17 74.42 49.17 66.69 69.71 58.58 49.17 53.29 49.17 65.74 80.3 67.4 80.3 74.76 60.51 82.04 80.3 83.73 80.3 96.75 49.3 96.8 49.17"/>
        <polygon class="cls-2" points="132.66 49.17 127.37 49.17 118.79 70.6 110.25 49.23 110.22 49.17 104.93 49.17 117.9 80.3 119.68 80.3 132.61 49.29 132.66 49.17"/>
        <path class="cls-2" d="M218.68,75.64c-1.58,0-2.87,1.35-2.87,3.01s1.29,3.01,2.87,3.01,2.87-1.35,2.87-3.01-1.29-3.01-2.87-3.01Z"/>
        <rect class="cls-2" x="216.32" y="48.4" width="4.72" height="24.63"/>
      </g>
    </g>
  </g>
</svg>