<?xml version="1.0" encoding="UTF-8"?>
<svg id="_レイヤー_2" data-name="レイヤー 2" xmlns="http://www.w3.org/2000/svg" viewBox="0 0 340 45.53">
  <defs>
    <style>
      .cls-1 {
        stroke-width: .85px;
      }

      .cls-1, .cls-2 {
        fill: none;
        stroke: #0c3b2c;
        stroke-miterlimit: 10;
      }

      .cls-2 {
        stroke-width: .85px;
      }

      .cls-3 {
        fill: #0c3b2c;
      }
    </style>
  </defs>
  <g id="_レイヤー_4" data-name="レイヤー 4">
    <g>
      <line class="cls-1" y1="45.1" x2="340" y2="45.1"/>
      <g>
        <path class="cls-2" d="M41.36,25.21h-3.33L30.14,2.53h4.69l5.07,15.43,5.54-15.64h2.45l5.24,15.64,5.44-15.43h4.69l-8.4,22.68h-3.33l-4.96-14.38-5.2,14.38Z"/>
        <path class="cls-2" d="M65.98.43h4.15v11.97c.78-1.09,2.18-2.38,4.56-2.38,1.29,0,3.2.37,4.35,1.8,1.02,1.26,1.16,2.72,1.16,4.15v9.25h-4.15v-8.02c0-.82-.03-2.11-.78-2.89-.65-.68-1.53-.75-1.94-.75-1.09,0-1.94.37-2.55,1.29-.61.95-.65,2.01-.65,2.86v7.51h-4.15V.43Z"/>
        <path class="cls-2" d="M96.1,10.49h4.15v14.72h-4.15v-1.9c-1.5,2.14-3.47,2.38-4.52,2.38-4.52,0-7.51-3.54-7.51-7.85s2.96-7.82,7.31-7.82c1.12,0,3.33.2,4.73,2.38v-1.9ZM88.35,17.83c0,2.35,1.7,4.18,4.08,4.18s4.08-1.84,4.08-4.18-1.7-4.15-4.08-4.15-4.08,1.8-4.08,4.15Z"/>
        <path class="cls-2" d="M109.7,14.02v11.18h-4.15v-11.18h-1.63v-3.54h1.63v-5.03h4.15v5.03h2.86v3.54h-2.86Z"/>
        <path class="cls-2" d="M118.47,2.09l3.81.44-4.79,9.01-2.62-.31,3.6-9.15Z"/>
        <path class="cls-2" d="M129.35,13.99c-.99-.92-1.97-.99-2.41-.99-.99,0-1.6.48-1.6,1.19,0,.37.17.95,1.33,1.33l.99.31c1.16.37,2.89.95,3.74,2.11.44.61.75,1.5.75,2.45,0,1.33-.44,2.65-1.63,3.74-1.19,1.09-2.62,1.56-4.42,1.56-3.06,0-4.79-1.46-5.71-2.45l2.18-2.52c.82.95,2.04,1.7,3.26,1.7,1.16,0,2.04-.58,2.04-1.6,0-.92-.75-1.29-1.29-1.5l-.95-.34c-1.05-.37-2.28-.85-3.16-1.77-.68-.71-1.12-1.63-1.12-2.82,0-1.43.68-2.62,1.53-3.33,1.16-.92,2.65-1.05,3.84-1.05,1.09,0,2.82.14,4.69,1.56l-2.04,2.41Z"/>
        <path class="cls-3" d="M156.31,6.34h-7.62v5.07h7.14v3.81h-7.14v10h-4.42V2.53h12.03v3.81Z"/>
        <path class="cls-3" d="M163.86,2.53v22.68h-4.42V2.53h4.42Z"/>
        <path class="cls-3" d="M175.49,6.34v18.87h-4.42V6.34h-5.1v-3.81h14.62v3.81h-5.1Z"/>
        <path class="cls-3" d="M182.7,25.21V2.53h3.06l13.8,15.13V2.53h4.42v22.68h-3.06l-13.8-15.16v15.16h-4.42Z"/>
        <path class="cls-3" d="M221.05,6.34h-8.16v5.07h7.82v3.81h-7.82v6.19h8.16v3.81h-12.58V2.53h12.58v3.81Z"/>
        <path class="cls-3" d="M235.8,7.7c-1.33-1.77-2.89-1.94-3.71-1.94-2.38,0-3.13,1.5-3.13,2.65,0,.54.17,1.05.71,1.53.54.51,1.29.78,2.72,1.29,1.77.61,3.43,1.22,4.59,2.28,1.02.92,1.94,2.45,1.94,4.76,0,4.42-3.2,7.45-7.89,7.45-4.18,0-6.63-2.55-7.82-4.28l2.89-2.75c1.09,2.21,3.16,3.03,4.76,3.03,2.01,0,3.5-1.22,3.5-3.13,0-.82-.27-1.46-.88-2.04-.85-.78-2.21-1.22-3.5-1.67-1.19-.41-2.62-.95-3.77-1.97-.75-.65-1.8-1.9-1.8-4.22,0-3.33,2.24-6.66,7.28-6.66,1.43,0,4.11.27,6.43,2.65l-2.31,3.03Z"/>
        <path class="cls-3" d="M253.28,7.7c-1.33-1.77-2.89-1.94-3.71-1.94-2.38,0-3.13,1.5-3.13,2.65,0,.54.17,1.05.71,1.53.54.51,1.29.78,2.72,1.29,1.77.61,3.43,1.22,4.59,2.28,1.02.92,1.94,2.45,1.94,4.76,0,4.42-3.2,7.45-7.89,7.45-4.18,0-6.63-2.55-7.82-4.28l2.89-2.75c1.09,2.21,3.16,3.03,4.76,3.03,2.01,0,3.5-1.22,3.5-3.13,0-.82-.27-1.46-.88-2.04-.85-.78-2.21-1.22-3.5-1.67-1.19-.41-2.62-.95-3.77-1.97-.75-.65-1.8-1.9-1.8-4.22,0-3.33,2.24-6.66,7.28-6.66,1.43,0,4.11.27,6.43,2.65l-2.31,3.03Z"/>
        <path class="cls-3" d="M264.3,17.63c.41-.48,3.06-3.5,3.88-4.73.61-.92,1.33-2.31,1.33-3.64,0-2.04-1.46-3.43-3.37-3.43-2.31,0-3.54,1.84-3.6,3.77h-4.56c.2-4.62,3.47-7.58,7.96-7.58,5.27,0,7.99,3.6,7.99,7.21s-2.35,6.02-4.11,7.92l-3.91,4.25h8.19v3.81h-16.45l6.66-7.58Z"/>
        <path class="cls-3" d="M290.61,17.39h2.65v3.54h-2.65v4.28h-4.15v-4.28h-11.08v-1.97l11.25-16.42h3.98v14.86ZM286.46,17.39v-8.64l-5.85,8.64h5.85Z"/>
        <path class="cls-3" d="M298.67,18.31v-6.66c.41.1.85.14,1.33.14,1.33,0,2.48-.44,3.2-1.16.51-.54.88-1.36.88-2.28s-.31-1.56-.71-1.97c-.37-.37-.92-.68-1.77-.68-.99,0-1.53.41-1.73.61-.37.34-.75,1.02-.75,2.21h-4.42c0-1.77.75-3.57,1.7-4.59.92-.95,2.52-1.9,5.37-1.9,1.77,0,3.54.34,4.96,1.73.95.92,1.77,2.41,1.77,4.69,0,1.84-.58,3.23-1.73,4.39-.85.85-2.14,1.67-3.88,1.9v3.57h-4.22ZM300.78,20.42c1.5,0,2.65,1.16,2.65,2.65s-1.16,2.65-2.65,2.65-2.65-1.16-2.65-2.65,1.16-2.65,2.65-2.65Z"/>
      </g>
    </g>
  </g>
</svg>